<?xml version="1.0" encoding="UTF-8" standalone="no"?>
<!DOCTYPE svg PUBLIC "-//W3C//DTD SVG 1.1//EN"
 "http://www.w3.org/Graphics/SVG/1.1/DTD/svg11.dtd">
<!-- Generated by graphviz version 2.40.1 (20161225.0304)
 -->
<!-- Title: libnolimits/NL2/Terrain/AutoPaint.cpp Pages: 1 -->
<svg width="122pt" height="147pt"
 viewBox="0.00 0.00 122.37 147.00" xmlns="http://www.w3.org/2000/svg" xmlns:xlink="http://www.w3.org/1999/xlink">
<g id="graph0" class="graph" transform="scale(1 1) rotate(0) translate(4 143)">
<title>libnolimits/NL2/Terrain/AutoPaint.cpp</title>
<!-- Node0 -->
<g id="node1" class="node">
<title>Node0</title>
<polygon fill="#bfbfbf" stroke="#000000" points="0,-110.5 0,-138.5 114.3691,-138.5 114.3691,-110.5 0,-110.5"/>
<text text-anchor="start" x="8" y="-126.5" font-family="Helvetica,sans-Serif" font-size="10.00" fill="#000000">libnolimits/NL2/Terrain</text>
<text text-anchor="middle" x="57.1846" y="-116.5" font-family="Helvetica,sans-Serif" font-size="10.00" fill="#000000">/AutoPaint.cpp</text>
</g>
<!-- Node1 -->
<g id="node2" class="node">
<title>Node1</title>
<g id="a_node2"><a xlink:href="_auto_paint_8h.html" target="_top" xlink:title="AutoPaint.h">
<polygon fill="none" stroke="#000000" points="23.3325,-55.5 23.3325,-73.5 91.0366,-73.5 91.0366,-55.5 23.3325,-55.5"/>
<text text-anchor="middle" x="57.1846" y="-61.5" font-family="Helvetica,sans-Serif" font-size="10.00" fill="#000000">AutoPaint.h</text>
</a>
</g>
</g>
<!-- Node0&#45;&gt;Node1 -->
<g id="edge1" class="edge">
<title>Node0&#45;&gt;Node1</title>
<path fill="none" stroke="#191970" d="M57.1846,-110.2808C57.1846,-102.3776 57.1846,-92.4316 57.1846,-83.8308"/>
<polygon fill="#191970" stroke="#191970" points="60.6847,-83.5842 57.1846,-73.5842 53.6847,-83.5842 60.6847,-83.5842"/>
</g>
<!-- Node2 -->
<g id="node3" class="node">
<title>Node2</title>
<g id="a_node3"><a xlink:href="_chunk_8h.html" target="_top" xlink:title="../../Stream/Chunk.h">
<polygon fill="none" stroke="#ff0000" points="4.7217,-.5 4.7217,-18.5 109.6475,-18.5 109.6475,-.5 4.7217,-.5"/>
<text text-anchor="middle" x="57.1846" y="-6.5" font-family="Helvetica,sans-Serif" font-size="10.00" fill="#000000">../../Stream/Chunk.h</text>
</a>
</g>
</g>
<!-- Node1&#45;&gt;Node2 -->
<g id="edge2" class="edge">
<title>Node1&#45;&gt;Node2</title>
<path fill="none" stroke="#191970" d="M57.1846,-55.4179C57.1846,-48.2164 57.1846,-37.8962 57.1846,-28.8632"/>
<polygon fill="#191970" stroke="#191970" points="60.6847,-28.7794 57.1846,-18.7795 53.6847,-28.7795 60.6847,-28.7794"/>
</g>
</g>
</svg>
