<?xml version="1.0" encoding="UTF-8" standalone="no"?>
<!DOCTYPE svg PUBLIC "-//W3C//DTD SVG 1.1//EN"
 "http://www.w3.org/Graphics/SVG/1.1/DTD/svg11.dtd">
<!-- Generated by graphviz version 2.40.1 (20161225.0304)
 -->
<!-- Title: libnolimits/NL2/Terrain/BaseMap.cpp Pages: 1 -->
<svg width="172pt" height="147pt"
 viewBox="0.00 0.00 171.69 147.00" xmlns="http://www.w3.org/2000/svg" xmlns:xlink="http://www.w3.org/1999/xlink">
<g id="graph0" class="graph" transform="scale(1 1) rotate(0) translate(4 143)">
<title>libnolimits/NL2/Terrain/BaseMap.cpp</title>
<!-- Node0 -->
<g id="node1" class="node">
<title>Node0</title>
<polygon fill="#bfbfbf" stroke="#000000" points="8.042,-110.5 8.042,-138.5 122.4111,-138.5 122.4111,-110.5 8.042,-110.5"/>
<text text-anchor="start" x="16.042" y="-126.5" font-family="Helvetica,sans-Serif" font-size="10.00" fill="#000000">libnolimits/NL2/Terrain</text>
<text text-anchor="middle" x="65.2266" y="-116.5" font-family="Helvetica,sans-Serif" font-size="10.00" fill="#000000">/BaseMap.cpp</text>
</g>
<!-- Node1 -->
<g id="node2" class="node">
<title>Node1</title>
<g id="a_node2"><a xlink:href="_base_map_8h.html" target="_top" xlink:title="BaseMap.h">
<polygon fill="none" stroke="#000000" points="31.9336,-55.5 31.9336,-73.5 98.5195,-73.5 98.5195,-55.5 31.9336,-55.5"/>
<text text-anchor="middle" x="65.2266" y="-61.5" font-family="Helvetica,sans-Serif" font-size="10.00" fill="#000000">BaseMap.h</text>
</a>
</g>
</g>
<!-- Node0&#45;&gt;Node1 -->
<g id="edge1" class="edge">
<title>Node0&#45;&gt;Node1</title>
<path fill="none" stroke="#191970" d="M65.2266,-110.2808C65.2266,-102.3776 65.2266,-92.4316 65.2266,-83.8308"/>
<polygon fill="#191970" stroke="#191970" points="68.7267,-83.5842 65.2266,-73.5842 61.7267,-83.5842 68.7267,-83.5842"/>
</g>
<!-- Node2 -->
<g id="node3" class="node">
<title>Node2</title>
<polygon fill="none" stroke="#bfbfbf" points="0,-.5 0,-18.5 40.4531,-18.5 40.4531,-.5 0,-.5"/>
<text text-anchor="middle" x="20.2266" y="-6.5" font-family="Helvetica,sans-Serif" font-size="10.00" fill="#000000">string</text>
</g>
<!-- Node1&#45;&gt;Node2 -->
<g id="edge2" class="edge">
<title>Node1&#45;&gt;Node2</title>
<path fill="none" stroke="#191970" d="M57.7957,-55.4179C51.4503,-47.6624 42.1457,-36.29 34.384,-26.8035"/>
<polygon fill="#191970" stroke="#191970" points="36.8601,-24.3027 27.8188,-18.7795 31.4424,-28.7354 36.8601,-24.3027"/>
</g>
<!-- Node3 -->
<g id="node4" class="node">
<title>Node3</title>
<g id="a_node4"><a xlink:href="_chunk_8h.html" target="_top" xlink:title="../../Stream/Chunk.h">
<polygon fill="none" stroke="#ff0000" points="58.7637,-.5 58.7637,-18.5 163.6895,-18.5 163.6895,-.5 58.7637,-.5"/>
<text text-anchor="middle" x="111.2266" y="-6.5" font-family="Helvetica,sans-Serif" font-size="10.00" fill="#000000">../../Stream/Chunk.h</text>
</a>
</g>
</g>
<!-- Node1&#45;&gt;Node3 -->
<g id="edge3" class="edge">
<title>Node1&#45;&gt;Node3</title>
<path fill="none" stroke="#191970" d="M72.8225,-55.4179C79.3751,-47.5833 89.0148,-36.0575 96.9969,-26.5137"/>
<polygon fill="#191970" stroke="#191970" points="99.7348,-28.6957 103.4656,-18.7795 94.3652,-24.2048 99.7348,-28.6957"/>
</g>
</g>
</svg>
