<?xml version="1.0" encoding="UTF-8" standalone="no"?>
<!DOCTYPE svg PUBLIC "-//W3C//DTD SVG 1.1//EN"
 "http://www.w3.org/Graphics/SVG/1.1/DTD/svg11.dtd">
<!-- Generated by graphviz version 2.40.1 (20161225.0304)
 -->
<!-- Title: libnolimits/NL2/Terrain/BaseMap.h Pages: 1 -->
<svg width="230pt" height="202pt"
 viewBox="0.00 0.00 230.29 202.00" xmlns="http://www.w3.org/2000/svg" xmlns:xlink="http://www.w3.org/1999/xlink">
<g id="graph0" class="graph" transform="scale(1 1) rotate(0) translate(4 198)">
<title>libnolimits/NL2/Terrain/BaseMap.h</title>
<!-- Node0 -->
<g id="node1" class="node">
<title>Node0</title>
<polygon fill="#bfbfbf" stroke="#000000" points="8.042,-165.5 8.042,-193.5 122.4111,-193.5 122.4111,-165.5 8.042,-165.5"/>
<text text-anchor="start" x="16.042" y="-181.5" font-family="Helvetica,sans-Serif" font-size="10.00" fill="#000000">libnolimits/NL2/Terrain</text>
<text text-anchor="middle" x="65.2266" y="-171.5" font-family="Helvetica,sans-Serif" font-size="10.00" fill="#000000">/BaseMap.h</text>
</g>
<!-- Node1 -->
<g id="node2" class="node">
<title>Node1</title>
<polygon fill="none" stroke="#bfbfbf" points="0,-110.5 0,-128.5 40.4531,-128.5 40.4531,-110.5 0,-110.5"/>
<text text-anchor="middle" x="20.2266" y="-116.5" font-family="Helvetica,sans-Serif" font-size="10.00" fill="#000000">string</text>
</g>
<!-- Node0&#45;&gt;Node1 -->
<g id="edge1" class="edge">
<title>Node0&#45;&gt;Node1</title>
<path fill="none" stroke="#191970" d="M54.5622,-165.2808C48.1685,-156.756 39.9924,-145.8545 33.2226,-136.8281"/>
<polygon fill="#191970" stroke="#191970" points="35.8397,-134.4842 27.0397,-128.5842 30.2397,-138.6842 35.8397,-134.4842"/>
</g>
<!-- Node2 -->
<g id="node3" class="node">
<title>Node2</title>
<g id="a_node3"><a xlink:href="_chunk_8h.html" target="_top" xlink:title="../../Stream/Chunk.h">
<polygon fill="none" stroke="#000000" points="58.7637,-110.5 58.7637,-128.5 163.6895,-128.5 163.6895,-110.5 58.7637,-110.5"/>
<text text-anchor="middle" x="111.2266" y="-116.5" font-family="Helvetica,sans-Serif" font-size="10.00" fill="#000000">../../Stream/Chunk.h</text>
</a>
</g>
</g>
<!-- Node0&#45;&gt;Node2 -->
<g id="edge2" class="edge">
<title>Node0&#45;&gt;Node2</title>
<path fill="none" stroke="#191970" d="M76.1279,-165.2808C82.7317,-156.6672 91.1958,-145.6271 98.1575,-136.5466"/>
<polygon fill="#191970" stroke="#191970" points="100.9553,-138.6498 104.262,-128.5842 95.4,-134.3907 100.9553,-138.6498"/>
</g>
<!-- Node3 -->
<g id="node4" class="node">
<title>Node3</title>
<g id="a_node4"><a xlink:href="_file_8h.html" target="_top" xlink:title="../File/File.h">
<polygon fill="none" stroke="#ff0000" points="46.3867,-55.5 46.3867,-73.5 114.0664,-73.5 114.0664,-55.5 46.3867,-55.5"/>
<text text-anchor="middle" x="80.2266" y="-61.5" font-family="Helvetica,sans-Serif" font-size="10.00" fill="#000000">../File/File.h</text>
</a>
</g>
</g>
<!-- Node2&#45;&gt;Node3 -->
<g id="edge3" class="edge">
<title>Node2&#45;&gt;Node3</title>
<path fill="none" stroke="#191970" d="M106.1075,-110.4179C101.8701,-102.8998 95.7169,-91.9829 90.4734,-82.6799"/>
<polygon fill="#191970" stroke="#191970" points="93.416,-80.7724 85.4568,-73.7795 87.3179,-84.2096 93.416,-80.7724"/>
</g>
<!-- Node7 -->
<g id="node5" class="node">
<title>Node7</title>
<polygon fill="none" stroke="#bfbfbf" points="18.106,-.5 18.106,-18.5 66.3472,-18.5 66.3472,-.5 18.106,-.5"/>
<text text-anchor="middle" x="42.2266" y="-6.5" font-family="Helvetica,sans-Serif" font-size="10.00" fill="#000000">stdint.h</text>
</g>
<!-- Node2&#45;&gt;Node7 -->
<g id="edge7" class="edge">
<title>Node2&#45;&gt;Node7</title>
<path fill="none" stroke="#191970" d="M83.5451,-110.3671C66.9007,-103.2793 47.088,-91.6398 37.2266,-74 29.4424,-60.0759 31.8347,-41.7482 35.5076,-28.1894"/>
<polygon fill="#191970" stroke="#191970" points="38.8895,-29.1026 38.5578,-18.513 32.2133,-26.9981 38.8895,-29.1026"/>
</g>
<!-- Node8 -->
<g id="node6" class="node">
<title>Node8</title>
<g id="a_node6"><a xlink:href="_nolimits_8h.html" target="_top" xlink:title="../Nolimits.h">
<polygon fill="none" stroke="#ff0000" points="96.1108,-.5 96.1108,-18.5 164.3423,-18.5 164.3423,-.5 96.1108,-.5"/>
<text text-anchor="middle" x="130.2266" y="-6.5" font-family="Helvetica,sans-Serif" font-size="10.00" fill="#000000">../Nolimits.h</text>
</a>
</g>
</g>
<!-- Node2&#45;&gt;Node8 -->
<g id="edge6" class="edge">
<title>Node2&#45;&gt;Node8</title>
<path fill="none" stroke="#191970" d="M114.1232,-110.1815C116.8573,-101.0493 120.8778,-86.6922 123.2266,-74 126.0166,-58.9233 127.8187,-41.6432 128.8947,-28.7659"/>
<polygon fill="#191970" stroke="#191970" points="132.3879,-28.9864 129.6598,-18.7488 125.4082,-28.4532 132.3879,-28.9864"/>
</g>
<!-- Node16 -->
<g id="node7" class="node">
<title>Node16</title>
<polygon fill="none" stroke="#bfbfbf" points="170.165,-55.5 170.165,-73.5 222.2881,-73.5 222.2881,-55.5 170.165,-55.5"/>
<text text-anchor="middle" x="196.2266" y="-61.5" font-family="Helvetica,sans-Serif" font-size="10.00" fill="#000000">ostream</text>
</g>
<!-- Node2&#45;&gt;Node16 -->
<g id="edge8" class="edge">
<title>Node2&#45;&gt;Node16</title>
<path fill="none" stroke="#191970" d="M125.2626,-110.4179C138.4279,-101.8992 158.3373,-89.0166 173.7205,-79.0627"/>
<polygon fill="#191970" stroke="#191970" points="175.6754,-81.9667 182.1697,-73.5956 171.8726,-76.0897 175.6754,-81.9667"/>
</g>
<!-- Node3&#45;&gt;Node7 -->
<g id="edge4" class="edge">
<title>Node3&#45;&gt;Node7</title>
<path fill="none" stroke="#191970" d="M73.9516,-55.4179C68.648,-47.7415 60.8961,-36.5217 54.3828,-27.0945"/>
<polygon fill="#191970" stroke="#191970" points="57.2017,-25.0173 48.6378,-18.7795 51.4426,-28.9963 57.2017,-25.0173"/>
</g>
<!-- Node3&#45;&gt;Node8 -->
<g id="edge5" class="edge">
<title>Node3&#45;&gt;Node8</title>
<path fill="none" stroke="#191970" d="M88.483,-55.4179C95.6774,-47.5041 106.2954,-35.8243 115.0219,-26.2251"/>
<polygon fill="#191970" stroke="#191970" points="117.6537,-28.5332 121.7907,-18.7795 112.4741,-23.8245 117.6537,-28.5332"/>
</g>
</g>
</svg>
