<?xml version="1.0" encoding="UTF-8" standalone="no"?>
<!DOCTYPE svg PUBLIC "-//W3C//DTD SVG 1.1//EN"
 "http://www.w3.org/Graphics/SVG/1.1/DTD/svg11.dtd">
<!-- Generated by graphviz version 2.40.1 (20161225.0304)
 -->
<!-- Title: libnolimits/NL2/Coaster/Support/Beam.h Pages: 1 -->
<svg width="1062pt" height="322pt"
 viewBox="0.00 0.00 1062.22 322.00" xmlns="http://www.w3.org/2000/svg" xmlns:xlink="http://www.w3.org/1999/xlink">
<g id="graph0" class="graph" transform="scale(1 1) rotate(0) translate(4 318)">
<title>libnolimits/NL2/Coaster/Support/Beam.h</title>
<!-- Node0 -->
<g id="node1" class="node">
<title>Node0</title>
<polygon fill="#bfbfbf" stroke="#000000" points="308.1973,-285.5 308.1973,-313.5 427.0147,-313.5 427.0147,-285.5 308.1973,-285.5"/>
<text text-anchor="start" x="316.1973" y="-301.5" font-family="Helvetica,sans-Serif" font-size="10.00" fill="#000000">libnolimits/NL2/Coaster</text>
<text text-anchor="middle" x="367.606" y="-291.5" font-family="Helvetica,sans-Serif" font-size="10.00" fill="#000000">/Support/Beam.h</text>
</g>
<!-- Node1 -->
<g id="node2" class="node">
<title>Node1</title>
<g id="a_node2"><a xlink:href="_chunk_8h.html" target="_top" xlink:title="../../../Stream/Chunk.h">
<polygon fill="none" stroke="#000000" points="66.9756,-110.5 66.9756,-128.5 180.2364,-128.5 180.2364,-110.5 66.9756,-110.5"/>
<text text-anchor="middle" x="123.606" y="-116.5" font-family="Helvetica,sans-Serif" font-size="10.00" fill="#000000">../../../Stream/Chunk.h</text>
</a>
</g>
</g>
<!-- Node0&#45;&gt;Node1 -->
<g id="edge1" class="edge">
<title>Node0&#45;&gt;Node1</title>
<path fill="none" stroke="#191970" d="M308.1276,-294.3684C215.8912,-285.87 46.805,-267.9247 26.606,-249 -1.0138,-223.1226 -8.4793,-196.431 12.606,-165 23.3258,-149.0204 40.7657,-138.6485 58.6789,-131.9181"/>
<polygon fill="#191970" stroke="#191970" points="60.293,-135.0666 68.6397,-128.5411 58.0454,-128.4373 60.293,-135.0666"/>
</g>
<!-- Node17 -->
<g id="node7" class="node">
<title>Node17</title>
<g id="a_node7"><a xlink:href="_beam_node_8h.html" target="_top" xlink:title="BeamNode.h">
<polygon fill="none" stroke="#000000" points="21.4214,-165.5 21.4214,-183.5 95.7906,-183.5 95.7906,-165.5 21.4214,-165.5"/>
<text text-anchor="middle" x="58.606" y="-171.5" font-family="Helvetica,sans-Serif" font-size="10.00" fill="#000000">BeamNode.h</text>
</a>
</g>
</g>
<!-- Node0&#45;&gt;Node17 -->
<g id="edge8" class="edge">
<title>Node0&#45;&gt;Node17</title>
<path fill="none" stroke="#191970" d="M307.9206,-294.5765C217.402,-286.498 54.0298,-269.2838 36.606,-249 22.8149,-232.9452 34.2006,-208.5766 45.0774,-192.1212"/>
<polygon fill="#191970" stroke="#191970" points="47.9794,-194.0794 50.9046,-183.8964 42.2676,-190.0327 47.9794,-194.0794"/>
</g>
<!-- Node18 -->
<g id="node8" class="node">
<title>Node18</title>
<g id="a_node8"><a xlink:href="_flange_8h.html" target="_top" xlink:title="Flange.h">
<polygon fill="none" stroke="#000000" points="45.148,-225.5 45.148,-243.5 100.064,-243.5 100.064,-225.5 45.148,-225.5"/>
<text text-anchor="middle" x="72.606" y="-231.5" font-family="Helvetica,sans-Serif" font-size="10.00" fill="#000000">Flange.h</text>
</a>
</g>
</g>
<!-- Node0&#45;&gt;Node18 -->
<g id="edge10" class="edge">
<title>Node0&#45;&gt;Node18</title>
<path fill="none" stroke="#191970" d="M308.0212,-290.1451C256.1857,-281.4169 179.2876,-267.0433 113.606,-249 111.1216,-248.3175 108.571,-247.5593 106.016,-246.7577"/>
<polygon fill="#191970" stroke="#191970" points="106.864,-243.3514 96.2705,-243.5194 104.6566,-249.9943 106.864,-243.3514"/>
</g>
<!-- Node19 -->
<g id="node9" class="node">
<title>Node19</title>
<g id="a_node9"><a xlink:href="_beam_connection_8h.html" target="_top" xlink:title="BeamConnection/BeamConnection.h">
<polygon fill="none" stroke="#000000" points="277.333,-165.5 277.333,-183.5 457.8789,-183.5 457.8789,-165.5 277.333,-165.5"/>
<text text-anchor="middle" x="367.606" y="-171.5" font-family="Helvetica,sans-Serif" font-size="10.00" fill="#000000">BeamConnection/BeamConnection.h</text>
</a>
</g>
</g>
<!-- Node0&#45;&gt;Node19 -->
<g id="edge13" class="edge">
<title>Node0&#45;&gt;Node19</title>
<path fill="none" stroke="#191970" d="M308.1362,-294.1563C249.7002,-287.5283 166.4792,-273.9266 146.606,-249 138.5712,-238.9221 138.4628,-229.9906 146.606,-220 162.2387,-200.8209 216.2591,-189.4906 266.974,-182.9331"/>
<polygon fill="#191970" stroke="#191970" points="267.5664,-186.3866 277.0606,-181.6844 266.7063,-179.4396 267.5664,-186.3866"/>
</g>
<!-- Node20 -->
<g id="node10" class="node">
<title>Node20</title>
<g id="a_node10"><a xlink:href="_beam_node_connection_8h.html" target="_top" xlink:title="BeamConnection/BeamNodeConnection.h">
<polygon fill="none" stroke="#000000" points="155.3799,-225.5 155.3799,-243.5 359.8321,-243.5 359.8321,-225.5 155.3799,-225.5"/>
<text text-anchor="middle" x="257.606" y="-231.5" font-family="Helvetica,sans-Serif" font-size="10.00" fill="#000000">BeamConnection/BeamNodeConnection.h</text>
</a>
</g>
</g>
<!-- Node0&#45;&gt;Node20 -->
<g id="edge15" class="edge">
<title>Node0&#45;&gt;Node20</title>
<path fill="none" stroke="#191970" d="M343.7376,-285.396C325.359,-274.5359 300.0652,-259.5895 281.6442,-248.7044"/>
<polygon fill="#191970" stroke="#191970" points="283.3524,-245.6484 272.9625,-243.5743 279.7912,-251.6749 283.3524,-245.6484"/>
</g>
<!-- Node21 -->
<g id="node11" class="node">
<title>Node21</title>
<g id="a_node11"><a xlink:href="_free_node_connection_8h.html" target="_top" xlink:title="BeamConnection/FreeNodeConnection.h">
<polygon fill="none" stroke="#000000" points="378.1607,-225.5 378.1607,-243.5 577.0513,-243.5 577.0513,-225.5 378.1607,-225.5"/>
<text text-anchor="middle" x="477.606" y="-231.5" font-family="Helvetica,sans-Serif" font-size="10.00" fill="#000000">BeamConnection/FreeNodeConnection.h</text>
</a>
</g>
</g>
<!-- Node0&#45;&gt;Node21 -->
<g id="edge17" class="edge">
<title>Node0&#45;&gt;Node21</title>
<path fill="none" stroke="#191970" d="M391.4744,-285.396C409.853,-274.5359 435.1468,-259.5895 453.5678,-248.7044"/>
<polygon fill="#191970" stroke="#191970" points="455.4208,-251.6749 462.2495,-243.5743 451.8596,-245.6484 455.4208,-251.6749"/>
</g>
<!-- Node22 -->
<g id="node12" class="node">
<title>Node22</title>
<g id="a_node12"><a xlink:href="_footer_connection_8h.html" target="_top" xlink:title="BeamConnection/FooterConnection.h">
<polygon fill="none" stroke="#000000" points="594.9439,-225.5 594.9439,-243.5 778.2681,-243.5 778.2681,-225.5 594.9439,-225.5"/>
<text text-anchor="middle" x="686.606" y="-231.5" font-family="Helvetica,sans-Serif" font-size="10.00" fill="#000000">BeamConnection/FooterConnection.h</text>
</a>
</g>
</g>
<!-- Node0&#45;&gt;Node22 -->
<g id="edge19" class="edge">
<title>Node0&#45;&gt;Node22</title>
<path fill="none" stroke="#191970" d="M427.2332,-287.3502C486.0941,-275.3566 575.3191,-257.176 632.2718,-245.5712"/>
<polygon fill="#191970" stroke="#191970" points="633.068,-248.981 642.1678,-243.5548 631.6703,-242.1219 633.068,-248.981"/>
</g>
<!-- Node23 -->
<g id="node13" class="node">
<title>Node23</title>
<g id="a_node13"><a xlink:href="_rail_connector_connection_8h.html" target="_top" xlink:title="BeamConnection/RailConnector\lConnection.h">
<polygon fill="none" stroke="#000000" points="796.1778,-220.5 796.1778,-248.5 955.0342,-248.5 955.0342,-220.5 796.1778,-220.5"/>
<text text-anchor="start" x="804.1778" y="-236.5" font-family="Helvetica,sans-Serif" font-size="10.00" fill="#000000">BeamConnection/RailConnector</text>
<text text-anchor="middle" x="875.606" y="-226.5" font-family="Helvetica,sans-Serif" font-size="10.00" fill="#000000">Connection.h</text>
</a>
</g>
</g>
<!-- Node0&#45;&gt;Node23 -->
<g id="edge21" class="edge">
<title>Node0&#45;&gt;Node23</title>
<path fill="none" stroke="#191970" d="M427.1808,-293.165C506.694,-284.5256 652.1374,-268.0808 785.9794,-249.1981"/>
<polygon fill="#191970" stroke="#191970" points="786.5953,-252.6458 796.0046,-247.776 785.6121,-245.7152 786.5953,-252.6458"/>
</g>
<!-- Node24 -->
<g id="node14" class="node">
<title>Node24</title>
<g id="a_node14"><a xlink:href="_support_node_8h.html" target="_top" xlink:title="SupportNode.h">
<polygon fill="none" stroke="#000000" points="767.9707,-110.5 767.9707,-128.5 851.2412,-128.5 851.2412,-110.5 767.9707,-110.5"/>
<text text-anchor="middle" x="809.606" y="-116.5" font-family="Helvetica,sans-Serif" font-size="10.00" fill="#000000">SupportNode.h</text>
</a>
</g>
</g>
<!-- Node0&#45;&gt;Node24 -->
<g id="edge23" class="edge">
<title>Node0&#45;&gt;Node24</title>
<path fill="none" stroke="#191970" d="M427.2174,-298.9189C571.0208,-296.8997 927.7953,-287.9733 963.606,-249 1007.8447,-200.8543 905.0709,-153.8848 846.6095,-132.1087"/>
<polygon fill="#191970" stroke="#191970" points="847.5393,-128.7224 836.9453,-128.5869 845.1425,-135.2993 847.5393,-128.7224"/>
</g>
<!-- Node25 -->
<g id="node15" class="node">
<title>Node25</title>
<polygon fill="none" stroke="#bfbfbf" points="1010.9903,-225.5 1010.9903,-243.5 1054.2217,-243.5 1054.2217,-225.5 1010.9903,-225.5"/>
<text text-anchor="middle" x="1032.606" y="-231.5" font-family="Helvetica,sans-Serif" font-size="10.00" fill="#000000">vector</text>
</g>
<!-- Node0&#45;&gt;Node25 -->
<g id="edge25" class="edge">
<title>Node0&#45;&gt;Node25</title>
<path fill="none" stroke="#191970" d="M427.1389,-297.018C562.3931,-291.0073 889.3761,-274.2776 996.606,-249 998.93,-248.4521 1001.3005,-247.7781 1003.66,-247.0233"/>
<polygon fill="#191970" stroke="#191970" points="1004.9425,-250.2814 1013.1507,-243.5824 1002.5565,-243.7005 1004.9425,-250.2814"/>
</g>
<!-- Node2 -->
<g id="node3" class="node">
<title>Node2</title>
<g id="a_node3"><a xlink:href="_file_8h.html" target="_top" xlink:title="../File/File.h">
<polygon fill="none" stroke="#ff0000" points="89.7661,-55.5 89.7661,-73.5 157.4458,-73.5 157.4458,-55.5 89.7661,-55.5"/>
<text text-anchor="middle" x="123.606" y="-61.5" font-family="Helvetica,sans-Serif" font-size="10.00" fill="#000000">../File/File.h</text>
</a>
</g>
</g>
<!-- Node1&#45;&gt;Node2 -->
<g id="edge2" class="edge">
<title>Node1&#45;&gt;Node2</title>
<path fill="none" stroke="#191970" d="M123.606,-110.4179C123.606,-103.2164 123.606,-92.8962 123.606,-83.8632"/>
<polygon fill="#191970" stroke="#191970" points="127.1061,-83.7794 123.606,-73.7795 120.1061,-83.7795 127.1061,-83.7794"/>
</g>
<!-- Node6 -->
<g id="node4" class="node">
<title>Node6</title>
<polygon fill="none" stroke="#bfbfbf" points="61.4854,-.5 61.4854,-18.5 109.7266,-18.5 109.7266,-.5 61.4854,-.5"/>
<text text-anchor="middle" x="85.606" y="-6.5" font-family="Helvetica,sans-Serif" font-size="10.00" fill="#000000">stdint.h</text>
</g>
<!-- Node1&#45;&gt;Node6 -->
<g id="edge6" class="edge">
<title>Node1&#45;&gt;Node6</title>
<path fill="none" stroke="#191970" d="M110.6936,-110.3491C100.3588,-102.1662 86.6316,-89.1487 80.606,-74 74.8333,-59.4871 76.8076,-41.7087 79.8158,-28.495"/>
<polygon fill="#191970" stroke="#191970" points="83.2486,-29.2048 82.4384,-18.641 76.4841,-27.4044 83.2486,-29.2048"/>
</g>
<!-- Node7 -->
<g id="node5" class="node">
<title>Node7</title>
<g id="a_node5"><a xlink:href="_nolimits_8h.html" target="_top" xlink:title="../Nolimits.h">
<polygon fill="none" stroke="#ff0000" points="151.4903,-.5 151.4903,-18.5 219.7217,-18.5 219.7217,-.5 151.4903,-.5"/>
<text text-anchor="middle" x="185.606" y="-6.5" font-family="Helvetica,sans-Serif" font-size="10.00" fill="#000000">../Nolimits.h</text>
</a>
</g>
</g>
<!-- Node1&#45;&gt;Node7 -->
<g id="edge5" class="edge">
<title>Node1&#45;&gt;Node7</title>
<path fill="none" stroke="#191970" d="M134.6719,-110.497C144.3969,-102.0283 158.2629,-88.5103 166.606,-74 174.6977,-59.9268 179.6049,-42.1104 182.3996,-28.7702"/>
<polygon fill="#191970" stroke="#191970" points="185.8665,-29.2722 184.2739,-18.7978 178.9869,-27.9792 185.8665,-29.2722"/>
</g>
<!-- Node16 -->
<g id="node6" class="node">
<title>Node16</title>
<polygon fill="none" stroke="#bfbfbf" points="213.5445,-55.5 213.5445,-73.5 265.6675,-73.5 265.6675,-55.5 213.5445,-55.5"/>
<text text-anchor="middle" x="239.606" y="-61.5" font-family="Helvetica,sans-Serif" font-size="10.00" fill="#000000">ostream</text>
</g>
<!-- Node1&#45;&gt;Node16 -->
<g id="edge7" class="edge">
<title>Node1&#45;&gt;Node16</title>
<path fill="none" stroke="#191970" d="M142.761,-110.4179C161.3994,-101.5807 189.9426,-88.0473 211.2196,-77.9591"/>
<polygon fill="#191970" stroke="#191970" points="212.8862,-81.0424 220.4225,-73.5956 209.8872,-74.7174 212.8862,-81.0424"/>
</g>
<!-- Node2&#45;&gt;Node6 -->
<g id="edge3" class="edge">
<title>Node2&#45;&gt;Node6</title>
<path fill="none" stroke="#191970" d="M117.3311,-55.4179C112.0274,-47.7415 104.2755,-36.5217 97.7622,-27.0945"/>
<polygon fill="#191970" stroke="#191970" points="100.5812,-25.0173 92.0173,-18.7795 94.822,-28.9963 100.5812,-25.0173"/>
</g>
<!-- Node2&#45;&gt;Node7 -->
<g id="edge4" class="edge">
<title>Node2&#45;&gt;Node7</title>
<path fill="none" stroke="#191970" d="M133.844,-55.4179C142.9434,-47.3458 156.4597,-35.3556 167.3986,-25.6517"/>
<polygon fill="#191970" stroke="#191970" points="169.9874,-28.0339 175.1455,-18.7795 165.3421,-22.7974 169.9874,-28.0339"/>
</g>
<!-- Node17&#45;&gt;Node1 -->
<g id="edge9" class="edge">
<title>Node17&#45;&gt;Node1</title>
<path fill="none" stroke="#191970" d="M69.3394,-165.4179C78.9726,-157.2667 93.3277,-145.1201 104.8541,-135.3669"/>
<polygon fill="#191970" stroke="#191970" points="107.2663,-137.9108 112.6394,-128.7795 102.7447,-132.5671 107.2663,-137.9108"/>
</g>
<!-- Node18&#45;&gt;Node1 -->
<g id="edge11" class="edge">
<title>Node18&#45;&gt;Node1</title>
<path fill="none" stroke="#191970" d="M79.5727,-225.2683C86.6929,-215.4692 97.6632,-199.3143 104.606,-184 111.3089,-169.2148 116.3361,-151.4599 119.5303,-138.3245"/>
<polygon fill="#191970" stroke="#191970" points="122.9492,-139.0739 121.7788,-128.5439 116.1272,-137.5055 122.9492,-139.0739"/>
</g>
<!-- Node18&#45;&gt;Node17 -->
<g id="edge12" class="edge">
<title>Node18&#45;&gt;Node17</title>
<path fill="none" stroke="#191970" d="M70.4797,-225.3873C68.5267,-217.0174 65.569,-204.3414 63.0942,-193.735"/>
<polygon fill="#191970" stroke="#191970" points="66.4331,-192.6416 60.7523,-183.6985 59.6162,-194.2322 66.4331,-192.6416"/>
</g>
<!-- Node19&#45;&gt;Node1 -->
<g id="edge14" class="edge">
<title>Node19&#45;&gt;Node1</title>
<path fill="none" stroke="#191970" d="M327.5876,-165.4795C285.4803,-155.9881 219.1231,-141.0305 173.5984,-130.7688"/>
<polygon fill="#191970" stroke="#191970" points="174.1712,-127.3101 163.6463,-128.5255 172.6318,-134.1388 174.1712,-127.3101"/>
</g>
<!-- Node20&#45;&gt;Node19 -->
<g id="edge16" class="edge">
<title>Node20&#45;&gt;Node19</title>
<path fill="none" stroke="#191970" d="M274.3126,-225.3873C292.346,-215.5509 321.283,-199.7671 342.1507,-188.3847"/>
<polygon fill="#191970" stroke="#191970" points="343.9996,-191.3631 351.1026,-183.5019 340.6476,-185.2178 343.9996,-191.3631"/>
</g>
<!-- Node21&#45;&gt;Node19 -->
<g id="edge18" class="edge">
<title>Node21&#45;&gt;Node19</title>
<path fill="none" stroke="#191970" d="M460.8994,-225.3873C442.866,-215.5509 413.929,-199.7671 393.0613,-188.3847"/>
<polygon fill="#191970" stroke="#191970" points="394.5644,-185.2178 384.1094,-183.5019 391.2124,-191.3631 394.5644,-185.2178"/>
</g>
<!-- Node22&#45;&gt;Node19 -->
<g id="edge20" class="edge">
<title>Node22&#45;&gt;Node19</title>
<path fill="none" stroke="#191970" d="M638.5031,-225.4524C581.4563,-214.7226 486.4363,-196.8505 425.4368,-185.3773"/>
<polygon fill="#191970" stroke="#191970" points="426.0526,-181.9318 415.5779,-183.5229 424.7586,-188.8112 426.0526,-181.9318"/>
</g>
<!-- Node23&#45;&gt;Node19 -->
<g id="edge22" class="edge">
<title>Node23&#45;&gt;Node19</title>
<path fill="none" stroke="#191970" d="M796.0104,-221.182C793.1757,-220.7723 790.3675,-220.3768 787.606,-220 678.6692,-205.136 553.2976,-192.0782 468.0924,-183.808"/>
<polygon fill="#191970" stroke="#191970" points="468.1947,-180.3017 457.9044,-182.8234 467.5213,-187.2692 468.1947,-180.3017"/>
</g>
<!-- Node24&#45;&gt;Node7 -->
<g id="edge24" class="edge">
<title>Node24&#45;&gt;Node7</title>
<path fill="none" stroke="#191970" d="M767.6947,-112.1118C654.8294,-92.2157 345.2528,-37.6429 229.792,-17.2892"/>
<polygon fill="#191970" stroke="#191970" points="230.3348,-13.831 219.879,-15.5417 229.1195,-20.7247 230.3348,-13.831"/>
</g>
</g>
</svg>
