<?xml version="1.0" encoding="UTF-8" standalone="no"?>
<!DOCTYPE svg PUBLIC "-//W3C//DTD SVG 1.1//EN"
 "http://www.w3.org/Graphics/SVG/1.1/DTD/svg11.dtd">
<!-- Generated by graphviz version 2.40.1 (20161225.0304)
 -->
<!-- Title: libnolimits/NL2/Coaster/Support/Beam.cpp Pages: 1 -->
<svg width="1136pt" height="267pt"
 viewBox="0.00 0.00 1135.99 267.00" xmlns="http://www.w3.org/2000/svg" xmlns:xlink="http://www.w3.org/1999/xlink">
<g id="graph0" class="graph" transform="scale(1 1) rotate(0) translate(4 263)">
<title>libnolimits/NL2/Coaster/Support/Beam.cpp</title>
<!-- Node0 -->
<g id="node1" class="node">
<title>Node0</title>
<polygon fill="#bfbfbf" stroke="#000000" points="318.9632,-230.5 318.9632,-258.5 437.7806,-258.5 437.7806,-230.5 318.9632,-230.5"/>
<text text-anchor="start" x="326.9632" y="-246.5" font-family="Helvetica,sans-Serif" font-size="10.00" fill="#000000">libnolimits/NL2/Coaster</text>
<text text-anchor="middle" x="378.3719" y="-236.5" font-family="Helvetica,sans-Serif" font-size="10.00" fill="#000000">/Support/Beam.cpp</text>
</g>
<!-- Node1 -->
<g id="node2" class="node">
<title>Node1</title>
<g id="a_node2"><a xlink:href="_beam_8h.html" target="_top" xlink:title="Beam.h">
<polygon fill="none" stroke="#000000" points="353.1405,-175.5 353.1405,-193.5 403.6034,-193.5 403.6034,-175.5 353.1405,-175.5"/>
<text text-anchor="middle" x="378.3719" y="-181.5" font-family="Helvetica,sans-Serif" font-size="10.00" fill="#000000">Beam.h</text>
</a>
</g>
</g>
<!-- Node0&#45;&gt;Node1 -->
<g id="edge1" class="edge">
<title>Node0&#45;&gt;Node1</title>
<path fill="none" stroke="#191970" d="M378.3719,-230.2808C378.3719,-222.3776 378.3719,-212.4316 378.3719,-203.8308"/>
<polygon fill="#191970" stroke="#191970" points="381.872,-203.5842 378.3719,-193.5842 374.872,-203.5842 381.872,-203.5842"/>
</g>
<!-- Node2 -->
<g id="node3" class="node">
<title>Node2</title>
<g id="a_node3"><a xlink:href="_chunk_8h.html" target="_top" xlink:title="../../../Stream/Chunk.h">
<polygon fill="none" stroke="#ff0000" points="30.7415,-.5 30.7415,-18.5 144.0023,-18.5 144.0023,-.5 30.7415,-.5"/>
<text text-anchor="middle" x="87.3719" y="-6.5" font-family="Helvetica,sans-Serif" font-size="10.00" fill="#000000">../../../Stream/Chunk.h</text>
</a>
</g>
</g>
<!-- Node1&#45;&gt;Node2 -->
<g id="edge2" class="edge">
<title>Node1&#45;&gt;Node2</title>
<path fill="none" stroke="#191970" d="M352.8888,-182.6006C277.6914,-176.7928 60.413,-158.4781 35.3719,-139 4.5244,-115.0054 -10.0927,-88.8886 9.3719,-55 17.8268,-40.2798 33.084,-29.8719 47.8765,-22.7618"/>
<polygon fill="#191970" stroke="#191970" points="49.7068,-25.7806 57.454,-18.5535 46.8908,-19.372 49.7068,-25.7806"/>
</g>
<!-- Node17 -->
<g id="node4" class="node">
<title>Node17</title>
<g id="a_node4"><a xlink:href="_beam_node_8h.html" target="_top" xlink:title="BeamNode.h">
<polygon fill="none" stroke="#000000" points="18.1874,-55.5 18.1874,-73.5 92.5565,-73.5 92.5565,-55.5 18.1874,-55.5"/>
<text text-anchor="middle" x="55.3719" y="-61.5" font-family="Helvetica,sans-Serif" font-size="10.00" fill="#000000">BeamNode.h</text>
</a>
</g>
</g>
<!-- Node1&#45;&gt;Node17 -->
<g id="edge3" class="edge">
<title>Node1&#45;&gt;Node17</title>
<path fill="none" stroke="#191970" d="M352.8858,-182.8969C278.8002,-177.9798 67.457,-162.0349 47.3719,-139 34.0621,-123.7354 39.8999,-99.4833 46.5186,-82.8209"/>
<polygon fill="#191970" stroke="#191970" points="49.7624,-84.1388 50.5764,-73.5753 43.3526,-81.3256 49.7624,-84.1388"/>
</g>
<!-- Node18 -->
<g id="node5" class="node">
<title>Node18</title>
<g id="a_node5"><a xlink:href="_flange_8h.html" target="_top" xlink:title="Flange.h">
<polygon fill="none" stroke="#000000" points="55.9139,-115.5 55.9139,-133.5 110.8299,-133.5 110.8299,-115.5 55.9139,-115.5"/>
<text text-anchor="middle" x="83.3719" y="-121.5" font-family="Helvetica,sans-Serif" font-size="10.00" fill="#000000">Flange.h</text>
</a>
</g>
</g>
<!-- Node1&#45;&gt;Node18 -->
<g id="edge5" class="edge">
<title>Node1&#45;&gt;Node18</title>
<path fill="none" stroke="#191970" d="M352.8374,-181.3269C306.7158,-175.2867 206.6602,-160.7665 124.3719,-139 121.8811,-138.3411 119.3258,-137.6003 116.7675,-136.811"/>
<polygon fill="#191970" stroke="#191970" points="117.6084,-133.403 107.0153,-133.5978 115.4177,-140.0514 117.6084,-133.403"/>
</g>
<!-- Node19 -->
<g id="node6" class="node">
<title>Node19</title>
<g id="a_node6"><a xlink:href="_beam_connection_8h.html" target="_top" xlink:title="BeamConnection/BeamConnection.h">
<polygon fill="none" stroke="#000000" points="288.099,-55.5 288.099,-73.5 468.6449,-73.5 468.6449,-55.5 288.099,-55.5"/>
<text text-anchor="middle" x="378.3719" y="-61.5" font-family="Helvetica,sans-Serif" font-size="10.00" fill="#000000">BeamConnection/BeamConnection.h</text>
</a>
</g>
</g>
<!-- Node1&#45;&gt;Node19 -->
<g id="edge8" class="edge">
<title>Node1&#45;&gt;Node19</title>
<path fill="none" stroke="#191970" d="M352.8536,-183.1553C300.0784,-179.7849 181.812,-168.9844 157.3719,-139 149.2287,-129.0094 149.2287,-119.9906 157.3719,-110 173.0047,-90.8209 227.025,-79.4906 277.7399,-72.9331"/>
<polygon fill="#191970" stroke="#191970" points="278.3323,-76.3866 287.8265,-71.6844 277.4722,-69.4396 278.3323,-76.3866"/>
</g>
<!-- Node20 -->
<g id="node7" class="node">
<title>Node20</title>
<g id="a_node7"><a xlink:href="_beam_node_connection_8h.html" target="_top" xlink:title="BeamConnection/BeamNodeConnection.h">
<polygon fill="none" stroke="#000000" points="166.1458,-115.5 166.1458,-133.5 370.598,-133.5 370.598,-115.5 166.1458,-115.5"/>
<text text-anchor="middle" x="268.3719" y="-121.5" font-family="Helvetica,sans-Serif" font-size="10.00" fill="#000000">BeamConnection/BeamNodeConnection.h</text>
</a>
</g>
</g>
<!-- Node1&#45;&gt;Node20 -->
<g id="edge10" class="edge">
<title>Node1&#45;&gt;Node20</title>
<path fill="none" stroke="#191970" d="M361.6653,-175.3873C343.6319,-165.5509 314.695,-149.7671 293.8272,-138.3847"/>
<polygon fill="#191970" stroke="#191970" points="295.3303,-135.2178 284.8754,-133.5019 291.9783,-141.3631 295.3303,-135.2178"/>
</g>
<!-- Node21 -->
<g id="node8" class="node">
<title>Node21</title>
<g id="a_node8"><a xlink:href="_free_node_connection_8h.html" target="_top" xlink:title="BeamConnection/FreeNodeConnection.h">
<polygon fill="none" stroke="#000000" points="388.9266,-115.5 388.9266,-133.5 587.8172,-133.5 587.8172,-115.5 388.9266,-115.5"/>
<text text-anchor="middle" x="488.3719" y="-121.5" font-family="Helvetica,sans-Serif" font-size="10.00" fill="#000000">BeamConnection/FreeNodeConnection.h</text>
</a>
</g>
</g>
<!-- Node1&#45;&gt;Node21 -->
<g id="edge12" class="edge">
<title>Node1&#45;&gt;Node21</title>
<path fill="none" stroke="#191970" d="M395.0786,-175.3873C413.1119,-165.5509 442.0489,-149.7671 462.9166,-138.3847"/>
<polygon fill="#191970" stroke="#191970" points="464.7655,-141.3631 471.8685,-133.5019 461.4135,-135.2178 464.7655,-141.3631"/>
</g>
<!-- Node22 -->
<g id="node9" class="node">
<title>Node22</title>
<g id="a_node9"><a xlink:href="_footer_connection_8h.html" target="_top" xlink:title="BeamConnection/FooterConnection.h">
<polygon fill="none" stroke="#000000" points="605.7098,-115.5 605.7098,-133.5 789.034,-133.5 789.034,-115.5 605.7098,-115.5"/>
<text text-anchor="middle" x="697.3719" y="-121.5" font-family="Helvetica,sans-Serif" font-size="10.00" fill="#000000">BeamConnection/FooterConnection.h</text>
</a>
</g>
</g>
<!-- Node1&#45;&gt;Node22 -->
<g id="edge14" class="edge">
<title>Node1&#45;&gt;Node22</title>
<path fill="none" stroke="#191970" d="M403.67,-179.7417C454.3044,-170.218 569.2524,-148.5977 639.3885,-135.406"/>
<polygon fill="#191970" stroke="#191970" points="640.2176,-138.8115 649.3983,-133.5233 638.9236,-131.9321 640.2176,-138.8115"/>
</g>
<!-- Node23 -->
<g id="node10" class="node">
<title>Node23</title>
<g id="a_node10"><a xlink:href="_rail_connector_connection_8h.html" target="_top" xlink:title="BeamConnection/RailConnector\lConnection.h">
<polygon fill="none" stroke="#000000" points="806.9437,-110.5 806.9437,-138.5 965.8001,-138.5 965.8001,-110.5 806.9437,-110.5"/>
<text text-anchor="start" x="814.9437" y="-126.5" font-family="Helvetica,sans-Serif" font-size="10.00" fill="#000000">BeamConnection/RailConnector</text>
<text text-anchor="middle" x="886.3719" y="-116.5" font-family="Helvetica,sans-Serif" font-size="10.00" fill="#000000">Connection.h</text>
</a>
</g>
</g>
<!-- Node1&#45;&gt;Node23 -->
<g id="edge16" class="edge">
<title>Node1&#45;&gt;Node23</title>
<path fill="none" stroke="#191970" d="M404,-182.2223C468.2788,-176.4036 641.7293,-160.0501 796.6033,-139.1979"/>
<polygon fill="#191970" stroke="#191970" points="797.3376,-142.6305 806.7763,-137.818 796.3966,-135.694 797.3376,-142.6305"/>
</g>
<!-- Node24 -->
<g id="node11" class="node">
<title>Node24</title>
<g id="a_node11"><a xlink:href="_support_node_8h.html" target="_top" xlink:title="SupportNode.h">
<polygon fill="none" stroke="#ff0000" points="983.7367,-115.5 983.7367,-133.5 1067.0072,-133.5 1067.0072,-115.5 983.7367,-115.5"/>
<text text-anchor="middle" x="1025.3719" y="-121.5" font-family="Helvetica,sans-Serif" font-size="10.00" fill="#000000">SupportNode.h</text>
</a>
</g>
</g>
<!-- Node1&#45;&gt;Node24 -->
<g id="edge18" class="edge">
<title>Node1&#45;&gt;Node24</title>
<path fill="none" stroke="#191970" d="M403.7487,-183.2435C502.6053,-178.2432 861.9967,-159.0543 974.3719,-139 978.7726,-138.2147 983.3389,-137.2055 987.8497,-136.0857"/>
<polygon fill="#191970" stroke="#191970" points="988.788,-139.4579 997.5499,-133.5014 986.9859,-132.6938 988.788,-139.4579"/>
</g>
<!-- Node25 -->
<g id="node12" class="node">
<title>Node25</title>
<polygon fill="none" stroke="#bfbfbf" points="1084.7562,-115.5 1084.7562,-133.5 1127.9876,-133.5 1127.9876,-115.5 1084.7562,-115.5"/>
<text text-anchor="middle" x="1106.3719" y="-121.5" font-family="Helvetica,sans-Serif" font-size="10.00" fill="#000000">vector</text>
</g>
<!-- Node1&#45;&gt;Node25 -->
<g id="edge19" class="edge">
<title>Node1&#45;&gt;Node25</title>
<path fill="none" stroke="#191970" d="M403.6502,-184.1467C512.9703,-182.421 945.4386,-173.5032 1076.3719,-139 1078.0256,-138.5642 1079.6974,-138.0357 1081.3611,-137.4418"/>
<polygon fill="#191970" stroke="#191970" points="1082.7802,-140.6417 1090.6183,-133.5132 1080.0456,-134.1979 1082.7802,-140.6417"/>
</g>
<!-- Node17&#45;&gt;Node2 -->
<g id="edge4" class="edge">
<title>Node17&#45;&gt;Node2</title>
<path fill="none" stroke="#191970" d="M60.6561,-55.4179C65.0302,-47.8998 71.3819,-36.9829 76.7946,-27.6799"/>
<polygon fill="#191970" stroke="#191970" points="79.9692,-29.1831 81.973,-18.7795 73.9188,-25.6628 79.9692,-29.1831"/>
</g>
<!-- Node18&#45;&gt;Node2 -->
<g id="edge6" class="edge">
<title>Node18&#45;&gt;Node2</title>
<path fill="none" stroke="#191970" d="M87.6676,-115.4493C92.1156,-105.5362 98.7714,-89.0414 101.3719,-74 104.0561,-58.4747 99.8181,-41.0196 95.3195,-28.1865"/>
<polygon fill="#191970" stroke="#191970" points="98.4978,-26.7014 91.6256,-18.6377 91.9692,-29.227 98.4978,-26.7014"/>
</g>
<!-- Node18&#45;&gt;Node17 -->
<g id="edge7" class="edge">
<title>Node18&#45;&gt;Node17</title>
<path fill="none" stroke="#191970" d="M79.1193,-115.3873C75.1312,-106.8412 69.0479,-93.8057 64.0369,-83.0679"/>
<polygon fill="#191970" stroke="#191970" points="67.0651,-81.2802 59.6645,-73.6985 60.7218,-84.2404 67.0651,-81.2802"/>
</g>
<!-- Node19&#45;&gt;Node2 -->
<g id="edge9" class="edge">
<title>Node19&#45;&gt;Node2</title>
<path fill="none" stroke="#191970" d="M330.645,-55.4795C279.794,-45.8684 199.2881,-30.6525 144.9528,-20.383"/>
<polygon fill="#191970" stroke="#191970" points="145.6009,-16.9436 135.1249,-18.5255 144.3009,-23.8218 145.6009,-16.9436"/>
</g>
<!-- Node20&#45;&gt;Node19 -->
<g id="edge11" class="edge">
<title>Node20&#45;&gt;Node19</title>
<path fill="none" stroke="#191970" d="M285.0786,-115.3873C303.1119,-105.5509 332.0489,-89.7671 352.9166,-78.3847"/>
<polygon fill="#191970" stroke="#191970" points="354.7655,-81.3631 361.8685,-73.5019 351.4135,-75.2178 354.7655,-81.3631"/>
</g>
<!-- Node21&#45;&gt;Node19 -->
<g id="edge13" class="edge">
<title>Node21&#45;&gt;Node19</title>
<path fill="none" stroke="#191970" d="M471.6653,-115.3873C453.6319,-105.5509 424.695,-89.7671 403.8272,-78.3847"/>
<polygon fill="#191970" stroke="#191970" points="405.3303,-75.2178 394.8754,-73.5019 401.9783,-81.3631 405.3303,-75.2178"/>
</g>
<!-- Node22&#45;&gt;Node19 -->
<g id="edge15" class="edge">
<title>Node22&#45;&gt;Node19</title>
<path fill="none" stroke="#191970" d="M649.269,-115.4524C592.2222,-104.7226 497.2023,-86.8505 436.2027,-75.3773"/>
<polygon fill="#191970" stroke="#191970" points="436.8185,-71.9318 426.3439,-73.5229 435.5245,-78.8112 436.8185,-71.9318"/>
</g>
<!-- Node23&#45;&gt;Node19 -->
<g id="edge17" class="edge">
<title>Node23&#45;&gt;Node19</title>
<path fill="none" stroke="#191970" d="M806.7763,-111.182C803.9416,-110.7723 801.1334,-110.3768 798.3719,-110 689.4351,-95.136 564.0635,-82.0782 478.8583,-73.808"/>
<polygon fill="#191970" stroke="#191970" points="478.9607,-70.3017 468.6703,-72.8234 478.2872,-77.2692 478.9607,-70.3017"/>
</g>
</g>
</svg>
