<?xml version="1.0" encoding="UTF-8" standalone="no"?>
<!DOCTYPE svg PUBLIC "-//W3C//DTD SVG 1.1//EN"
 "http://www.w3.org/Graphics/SVG/1.1/DTD/svg11.dtd">
<!-- Generated by graphviz version 2.40.1 (20161225.0304)
 -->
<!-- Title: libnolimits/NL2/Coaster/Support/BeamConnection.h Pages: 1 -->
<svg width="163pt" height="202pt"
 viewBox="0.00 0.00 162.93 202.00" xmlns="http://www.w3.org/2000/svg" xmlns:xlink="http://www.w3.org/1999/xlink">
<g id="graph0" class="graph" transform="scale(1 1) rotate(0) translate(4 198)">
<title>libnolimits/NL2/Coaster/Support/BeamConnection.h</title>
<!-- Node0 -->
<g id="node1" class="node">
<title>Node0</title>
<polygon fill="#bfbfbf" stroke="#000000" points="0,-165.5 0,-193.5 141.6348,-193.5 141.6348,-165.5 0,-165.5"/>
<text text-anchor="start" x="8" y="-181.5" font-family="Helvetica,sans-Serif" font-size="10.00" fill="#000000">libnolimits/NL2/Coaster</text>
<text text-anchor="middle" x="70.8174" y="-171.5" font-family="Helvetica,sans-Serif" font-size="10.00" fill="#000000">/Support/BeamConnection.h</text>
</g>
<!-- Node1 -->
<g id="node2" class="node">
<title>Node1</title>
<g id="a_node2"><a xlink:href="_chunk_8h.html" target="_top" xlink:title="../../../Stream/Chunk.h">
<polygon fill="none" stroke="#000000" points="14.187,-110.5 14.187,-128.5 127.4478,-128.5 127.4478,-110.5 14.187,-110.5"/>
<text text-anchor="middle" x="70.8174" y="-116.5" font-family="Helvetica,sans-Serif" font-size="10.00" fill="#000000">../../../Stream/Chunk.h</text>
</a>
</g>
</g>
<!-- Node0&#45;&gt;Node1 -->
<g id="edge1" class="edge">
<title>Node0&#45;&gt;Node1</title>
<path fill="none" stroke="#191970" d="M70.8174,-165.2808C70.8174,-157.3776 70.8174,-147.4316 70.8174,-138.8308"/>
<polygon fill="#191970" stroke="#191970" points="74.3175,-138.5842 70.8174,-128.5842 67.3175,-138.5842 74.3175,-138.5842"/>
</g>
<!-- Node2 -->
<g id="node3" class="node">
<title>Node2</title>
<g id="a_node3"><a xlink:href="_file_8h.html" target="_top" xlink:title="../File/File.h">
<polygon fill="none" stroke="#ff0000" points="36.9775,-55.5 36.9775,-73.5 104.6572,-73.5 104.6572,-55.5 36.9775,-55.5"/>
<text text-anchor="middle" x="70.8174" y="-61.5" font-family="Helvetica,sans-Serif" font-size="10.00" fill="#000000">../File/File.h</text>
</a>
</g>
</g>
<!-- Node1&#45;&gt;Node2 -->
<g id="edge2" class="edge">
<title>Node1&#45;&gt;Node2</title>
<path fill="none" stroke="#191970" d="M70.8174,-110.4179C70.8174,-103.2164 70.8174,-92.8962 70.8174,-83.8632"/>
<polygon fill="#191970" stroke="#191970" points="74.3175,-83.7794 70.8174,-73.7795 67.3175,-83.7795 74.3175,-83.7794"/>
</g>
<!-- Node6 -->
<g id="node4" class="node">
<title>Node6</title>
<polygon fill="none" stroke="#bfbfbf" points="8.6968,-.5 8.6968,-18.5 56.938,-18.5 56.938,-.5 8.6968,-.5"/>
<text text-anchor="middle" x="32.8174" y="-6.5" font-family="Helvetica,sans-Serif" font-size="10.00" fill="#000000">stdint.h</text>
</g>
<!-- Node1&#45;&gt;Node6 -->
<g id="edge5" class="edge">
<title>Node1&#45;&gt;Node6</title>
<path fill="none" stroke="#191970" d="M57.905,-110.3491C47.5702,-102.1662 33.843,-89.1487 27.8174,-74 22.0447,-59.4871 24.019,-41.7087 27.0272,-28.495"/>
<polygon fill="#191970" stroke="#191970" points="30.46,-29.2048 29.6498,-18.641 23.6955,-27.4044 30.46,-29.2048"/>
</g>
<!-- Node7 -->
<g id="node5" class="node">
<title>Node7</title>
<g id="a_node5"><a xlink:href="_nolimits_8h.html" target="_top" xlink:title="../Nolimits.h">
<polygon fill="none" stroke="#ff0000" points="86.7017,-.5 86.7017,-18.5 154.9331,-18.5 154.9331,-.5 86.7017,-.5"/>
<text text-anchor="middle" x="120.8174" y="-6.5" font-family="Helvetica,sans-Serif" font-size="10.00" fill="#000000">../Nolimits.h</text>
</a>
</g>
</g>
<!-- Node1&#45;&gt;Node7 -->
<g id="edge6" class="edge">
<title>Node1&#45;&gt;Node7</title>
<path fill="none" stroke="#191970" d="M82.912,-110.4994C93.0305,-102.2267 106.891,-88.9984 113.8174,-74 120.3188,-59.9218 121.852,-42.3317 121.8804,-29.0784"/>
<polygon fill="#191970" stroke="#191970" points="125.3702,-28.6484 121.6049,-18.7453 118.3727,-28.835 125.3702,-28.6484"/>
</g>
<!-- Node2&#45;&gt;Node6 -->
<g id="edge3" class="edge">
<title>Node2&#45;&gt;Node6</title>
<path fill="none" stroke="#191970" d="M64.5425,-55.4179C59.2388,-47.7415 51.4869,-36.5217 44.9736,-27.0945"/>
<polygon fill="#191970" stroke="#191970" points="47.7926,-25.0173 39.2286,-18.7795 42.0334,-28.9963 47.7926,-25.0173"/>
</g>
<!-- Node2&#45;&gt;Node7 -->
<g id="edge4" class="edge">
<title>Node2&#45;&gt;Node7</title>
<path fill="none" stroke="#191970" d="M79.0739,-55.4179C86.2682,-47.5041 96.8862,-35.8243 105.6128,-26.2251"/>
<polygon fill="#191970" stroke="#191970" points="108.2446,-28.5332 112.3815,-18.7795 103.065,-23.8245 108.2446,-28.5332"/>
</g>
</g>
</svg>
