<?xml version="1.0" encoding="UTF-8" standalone="no"?>
<!DOCTYPE svg PUBLIC "-//W3C//DTD SVG 1.1//EN"
 "http://www.w3.org/Graphics/SVG/1.1/DTD/svg11.dtd">
<!-- Generated by graphviz version 2.40.1 (20161225.0304)
 -->
<!-- Title: libnolimits/NL2/Coaster/Support/BeamNode.h Pages: 1 -->
<svg width="382pt" height="232pt"
 viewBox="0.00 0.00 382.16 232.00" xmlns="http://www.w3.org/2000/svg" xmlns:xlink="http://www.w3.org/1999/xlink">
<g id="graph0" class="graph" transform="scale(1 1) rotate(0) translate(4 228)">
<title>libnolimits/NL2/Coaster/Support/BeamNode.h</title>
<!-- Node17 -->
<g id="node1" class="node">
<title>Node17</title>
<polygon fill="#bfbfbf" stroke="#000000" points="112,-195.5 112,-223.5 230.8174,-223.5 230.8174,-195.5 112,-195.5"/>
<text text-anchor="start" x="120" y="-211.5" font-family="Helvetica,sans-Serif" font-size="10.00" fill="#000000">libnolimits/NL2/Coaster</text>
<text text-anchor="middle" x="171.4087" y="-201.5" font-family="Helvetica,sans-Serif" font-size="10.00" fill="#000000">/Support/BeamNode.h</text>
</g>
<!-- Node18 -->
<g id="node2" class="node">
<title>Node18</title>
<g id="a_node2"><a xlink:href="_beam_8h.html" target="_top" xlink:title="libnolimits/NL2/Coaster\l/Support/Beam.h">
<polygon fill="none" stroke="#000000" points="68,-65.5 68,-93.5 186.8174,-93.5 186.8174,-65.5 68,-65.5"/>
<text text-anchor="start" x="76" y="-81.5" font-family="Helvetica,sans-Serif" font-size="10.00" fill="#000000">libnolimits/NL2/Coaster</text>
<text text-anchor="middle" x="127.4087" y="-71.5" font-family="Helvetica,sans-Serif" font-size="10.00" fill="#000000">/Support/Beam.h</text>
</a>
</g>
</g>
<!-- Node17&#45;&gt;Node18 -->
<g id="edge1" class="edge">
<title>Node17&#45;&gt;Node18</title>
<path fill="none" stroke="#191970" d="M132.5086,-189.8616C120.9981,-181.9561 109.7796,-171.667 103.4087,-159 92.5256,-137.3617 106.2625,-109.8858 116.9926,-93.5531"/>
<polygon fill="#191970" stroke="#191970" points="130.9749,-193.0337 141.2923,-195.4422 134.7287,-187.1254 130.9749,-193.0337"/>
</g>
<!-- Node26 -->
<g id="node5" class="node">
<title>Node26</title>
<g id="a_node5"><a xlink:href="_flange_8h.html" target="_top" xlink:title="libnolimits/NL2/Coaster\l/Support/Flange.h">
<polygon fill="none" stroke="#000000" points="112,-130.5 112,-158.5 230.8174,-158.5 230.8174,-130.5 112,-130.5"/>
<text text-anchor="start" x="120" y="-146.5" font-family="Helvetica,sans-Serif" font-size="10.00" fill="#000000">libnolimits/NL2/Coaster</text>
<text text-anchor="middle" x="171.4087" y="-136.5" font-family="Helvetica,sans-Serif" font-size="10.00" fill="#000000">/Support/Flange.h</text>
</a>
</g>
</g>
<!-- Node17&#45;&gt;Node26 -->
<g id="edge4" class="edge">
<title>Node17&#45;&gt;Node26</title>
<path fill="none" stroke="#191970" d="M171.4087,-185.1081C171.4087,-176.1539 171.4087,-166.3227 171.4087,-158.5765"/>
<polygon fill="#191970" stroke="#191970" points="167.9088,-185.3959 171.4087,-195.396 174.9088,-185.396 167.9088,-185.3959"/>
</g>
<!-- Node27 -->
<g id="node6" class="node">
<title>Node27</title>
<g id="a_node6"><a xlink:href="_beam_node_8cpp.html" target="_top" xlink:title="libnolimits/NL2/Coaster\l/Support/BeamNode.cpp">
<polygon fill="none" stroke="#000000" points="248.6528,-130.5 248.6528,-158.5 374.1646,-158.5 374.1646,-130.5 248.6528,-130.5"/>
<text text-anchor="start" x="256.6528" y="-146.5" font-family="Helvetica,sans-Serif" font-size="10.00" fill="#000000">libnolimits/NL2/Coaster</text>
<text text-anchor="middle" x="311.4087" y="-136.5" font-family="Helvetica,sans-Serif" font-size="10.00" fill="#000000">/Support/BeamNode.cpp</text>
</a>
</g>
</g>
<!-- Node17&#45;&gt;Node27 -->
<g id="edge6" class="edge">
<title>Node17&#45;&gt;Node27</title>
<path fill="none" stroke="#191970" d="M210.9737,-191.1305C233.2187,-180.8025 260.5558,-168.1103 281.0901,-158.5765"/>
<polygon fill="#191970" stroke="#191970" points="209.3828,-188.0103 201.7866,-195.396 212.3306,-194.3593 209.3828,-188.0103"/>
</g>
<!-- Node19 -->
<g id="node3" class="node">
<title>Node19</title>
<g id="a_node3"><a xlink:href="_support_8h.html" target="_top" xlink:title="libnolimits/NL2/Coaster\l/Support/Support.h">
<polygon fill="none" stroke="#ff0000" points="0,-.5 0,-28.5 118.8174,-28.5 118.8174,-.5 0,-.5"/>
<text text-anchor="start" x="8" y="-16.5" font-family="Helvetica,sans-Serif" font-size="10.00" fill="#000000">libnolimits/NL2/Coaster</text>
<text text-anchor="middle" x="59.4087" y="-6.5" font-family="Helvetica,sans-Serif" font-size="10.00" fill="#000000">/Support/Support.h</text>
</a>
</g>
</g>
<!-- Node18&#45;&gt;Node19 -->
<g id="edge2" class="edge">
<title>Node18&#45;&gt;Node19</title>
<path fill="none" stroke="#191970" d="M105.2422,-58.3115C95.0419,-48.5612 83.2182,-37.259 74.1349,-28.5765"/>
<polygon fill="#191970" stroke="#191970" points="103.0065,-61.0162 112.6537,-65.396 107.8434,-55.9561 103.0065,-61.0162"/>
</g>
<!-- Node25 -->
<g id="node4" class="node">
<title>Node25</title>
<g id="a_node4"><a xlink:href="_beam_8cpp.html" target="_top" xlink:title="libnolimits/NL2/Coaster\l/Support/Beam.cpp">
<polygon fill="none" stroke="#000000" points="137,-.5 137,-28.5 255.8174,-28.5 255.8174,-.5 137,-.5"/>
<text text-anchor="start" x="145" y="-16.5" font-family="Helvetica,sans-Serif" font-size="10.00" fill="#000000">libnolimits/NL2/Coaster</text>
<text text-anchor="middle" x="196.4087" y="-6.5" font-family="Helvetica,sans-Serif" font-size="10.00" fill="#000000">/Support/Beam.cpp</text>
</a>
</g>
</g>
<!-- Node18&#45;&gt;Node25 -->
<g id="edge3" class="edge">
<title>Node18&#45;&gt;Node25</title>
<path fill="none" stroke="#191970" d="M149.9011,-58.3115C160.2514,-48.5612 172.2491,-37.259 181.4659,-28.5765"/>
<polygon fill="#191970" stroke="#191970" points="147.2597,-55.9914 142.3807,-65.396 152.0595,-61.0866 147.2597,-55.9914"/>
</g>
<!-- Node26&#45;&gt;Node18 -->
<g id="edge5" class="edge">
<title>Node26&#45;&gt;Node18</title>
<path fill="none" stroke="#191970" d="M156.0878,-121.8669C149.7197,-112.4594 142.5267,-101.8334 136.9374,-93.5765"/>
<polygon fill="#191970" stroke="#191970" points="153.3573,-124.0769 161.8613,-130.396 159.154,-120.1529 153.3573,-124.0769"/>
</g>
</g>
</svg>
