<?xml version="1.0" encoding="UTF-8" standalone="no"?>
<!DOCTYPE svg PUBLIC "-//W3C//DTD SVG 1.1//EN"
 "http://www.w3.org/Graphics/SVG/1.1/DTD/svg11.dtd">
<!-- Generated by graphviz version 2.40.1 (20161225.0304)
 -->
<!-- Title: libnolimits/NL2/Coaster/Support/Beam.h Pages: 1 -->
<svg width="352pt" height="312pt"
 viewBox="0.00 0.00 352.31 312.00" xmlns="http://www.w3.org/2000/svg" xmlns:xlink="http://www.w3.org/1999/xlink">
<g id="graph0" class="graph" transform="scale(1 1) rotate(0) translate(4 308)">
<title>libnolimits/NL2/Coaster/Support/Beam.h</title>
<!-- Node0 -->
<g id="node1" class="node">
<title>Node0</title>
<polygon fill="#bfbfbf" stroke="#000000" points="78.2654,-275.5 78.2654,-303.5 197.0827,-303.5 197.0827,-275.5 78.2654,-275.5"/>
<text text-anchor="start" x="86.2654" y="-291.5" font-family="Helvetica,sans-Serif" font-size="10.00" fill="#000000">libnolimits/NL2/Coaster</text>
<text text-anchor="middle" x="137.674" y="-281.5" font-family="Helvetica,sans-Serif" font-size="10.00" fill="#000000">/Support/Beam.h</text>
</g>
<!-- Node1 -->
<g id="node2" class="node">
<title>Node1</title>
<g id="a_node2"><a xlink:href="_chunk_8h.html" target="_top" xlink:title="../../../Stream/Chunk.h">
<polygon fill="none" stroke="#000000" points="57.0437,-110.5 57.0437,-128.5 170.3044,-128.5 170.3044,-110.5 57.0437,-110.5"/>
<text text-anchor="middle" x="113.674" y="-116.5" font-family="Helvetica,sans-Serif" font-size="10.00" fill="#000000">../../../Stream/Chunk.h</text>
</a>
</g>
</g>
<!-- Node0&#45;&gt;Node1 -->
<g id="edge1" class="edge">
<title>Node0&#45;&gt;Node1</title>
<path fill="none" stroke="#191970" d="M104.365,-275.3646C70.8718,-259.0074 21.5695,-228.49 2.674,-184 -8.7751,-157.0426 20.7762,-140.7654 52.253,-131.3067"/>
<polygon fill="#191970" stroke="#191970" points="53.3431,-134.6365 62.0402,-128.5859 51.4681,-127.8922 53.3431,-134.6365"/>
</g>
<!-- Node16 -->
<g id="node6" class="node">
<title>Node16</title>
<g id="a_node6"><a xlink:href="_beam_node_8h.html" target="_top" xlink:title="BeamNode.h">
<polygon fill="none" stroke="#000000" points="11.4895,-165.5 11.4895,-183.5 85.8586,-183.5 85.8586,-165.5 11.4895,-165.5"/>
<text text-anchor="middle" x="48.674" y="-171.5" font-family="Helvetica,sans-Serif" font-size="10.00" fill="#000000">BeamNode.h</text>
</a>
</g>
</g>
<!-- Node0&#45;&gt;Node16 -->
<g id="edge7" class="edge">
<title>Node0&#45;&gt;Node16</title>
<path fill="none" stroke="#191970" d="M114.812,-275.4711C101.6202,-266.4201 85.544,-253.626 74.674,-239 64.4452,-225.2367 57.5633,-206.8914 53.4631,-193.285"/>
<polygon fill="#191970" stroke="#191970" points="56.8119,-192.2634 50.7604,-183.5669 50.0679,-194.1391 56.8119,-192.2634"/>
</g>
<!-- Node17 -->
<g id="node7" class="node">
<title>Node17</title>
<g id="a_node7"><a xlink:href="_flange_8h.html" target="_top" xlink:title="Flange.h">
<polygon fill="none" stroke="#000000" points="83.216,-220.5 83.216,-238.5 138.1321,-238.5 138.1321,-220.5 83.216,-220.5"/>
<text text-anchor="middle" x="110.674" y="-226.5" font-family="Helvetica,sans-Serif" font-size="10.00" fill="#000000">Flange.h</text>
</a>
</g>
</g>
<!-- Node0&#45;&gt;Node17 -->
<g id="edge9" class="edge">
<title>Node0&#45;&gt;Node17</title>
<path fill="none" stroke="#191970" d="M131.2754,-275.2808C127.5991,-267.1112 122.9405,-256.7588 118.9837,-247.9658"/>
<polygon fill="#191970" stroke="#191970" points="122.0574,-246.2671 114.7619,-238.5842 115.6739,-249.1397 122.0574,-246.2671"/>
</g>
<!-- Node18 -->
<g id="node8" class="node">
<title>Node18</title>
<g id="a_node8"><a xlink:href="_beam_connection_8h.html" target="_top" xlink:title="BeamConnection.h">
<polygon fill="none" stroke="#000000" points="142.1472,-165.5 142.1472,-183.5 243.2009,-183.5 243.2009,-165.5 142.1472,-165.5"/>
<text text-anchor="middle" x="192.674" y="-171.5" font-family="Helvetica,sans-Serif" font-size="10.00" fill="#000000">BeamConnection.h</text>
</a>
</g>
</g>
<!-- Node0&#45;&gt;Node18 -->
<g id="edge12" class="edge">
<title>Node0&#45;&gt;Node18</title>
<path fill="none" stroke="#191970" d="M144.4181,-275.3987C154.363,-254.6049 172.9659,-215.7079 183.9416,-192.7588"/>
<polygon fill="#191970" stroke="#191970" points="187.1032,-194.2601 188.2603,-183.7286 180.7883,-191.2399 187.1032,-194.2601"/>
</g>
<!-- Node19 -->
<g id="node9" class="node">
<title>Node19</title>
<g id="a_node9"><a xlink:href="_support_node_8h.html" target="_top" xlink:title="SupportNode.h">
<polygon fill="none" stroke="#000000" points="261.0388,-165.5 261.0388,-183.5 344.3093,-183.5 344.3093,-165.5 261.0388,-165.5"/>
<text text-anchor="middle" x="302.674" y="-171.5" font-family="Helvetica,sans-Serif" font-size="10.00" fill="#000000">SupportNode.h</text>
</a>
</g>
</g>
<!-- Node0&#45;&gt;Node19 -->
<g id="edge14" class="edge">
<title>Node0&#45;&gt;Node19</title>
<path fill="none" stroke="#191970" d="M153.3388,-275.3358C169.9352,-260.6599 197.2096,-237.4686 222.674,-220 239.5865,-208.3981 259.6515,-196.9917 275.4557,-188.5015"/>
<polygon fill="#191970" stroke="#191970" points="277.4803,-191.3899 284.6792,-183.6164 274.204,-185.2039 277.4803,-191.3899"/>
</g>
<!-- Node20 -->
<g id="node10" class="node">
<title>Node20</title>
<polygon fill="none" stroke="#bfbfbf" points="232.0583,-220.5 232.0583,-238.5 275.2898,-238.5 275.2898,-220.5 232.0583,-220.5"/>
<text text-anchor="middle" x="253.674" y="-226.5" font-family="Helvetica,sans-Serif" font-size="10.00" fill="#000000">vector</text>
</g>
<!-- Node0&#45;&gt;Node20 -->
<g id="edge16" class="edge">
<title>Node0&#45;&gt;Node20</title>
<path fill="none" stroke="#191970" d="M164.8709,-275.4327C183.5751,-265.7581 208.3001,-252.9693 226.9103,-243.3433"/>
<polygon fill="#191970" stroke="#191970" points="228.7465,-246.3341 236.0207,-238.6311 225.5305,-240.1166 228.7465,-246.3341"/>
</g>
<!-- Node2 -->
<g id="node3" class="node">
<title>Node2</title>
<g id="a_node3"><a xlink:href="_file_8h.html" target="_top" xlink:title="../File/File.h">
<polygon fill="none" stroke="#ff0000" points="110.8342,-55.5 110.8342,-73.5 178.5139,-73.5 178.5139,-55.5 110.8342,-55.5"/>
<text text-anchor="middle" x="144.674" y="-61.5" font-family="Helvetica,sans-Serif" font-size="10.00" fill="#000000">../File/File.h</text>
</a>
</g>
</g>
<!-- Node1&#45;&gt;Node2 -->
<g id="edge2" class="edge">
<title>Node1&#45;&gt;Node2</title>
<path fill="none" stroke="#191970" d="M118.7931,-110.4179C123.0305,-102.8998 129.1837,-91.9829 134.4272,-82.6799"/>
<polygon fill="#191970" stroke="#191970" points="137.5827,-84.2096 139.4438,-73.7795 131.4846,-80.7724 137.5827,-84.2096"/>
</g>
<!-- Node6 -->
<g id="node4" class="node">
<title>Node6</title>
<polygon fill="none" stroke="#bfbfbf" points="82.5534,-.5 82.5534,-18.5 130.7946,-18.5 130.7946,-.5 82.5534,-.5"/>
<text text-anchor="middle" x="106.674" y="-6.5" font-family="Helvetica,sans-Serif" font-size="10.00" fill="#000000">stdint.h</text>
</g>
<!-- Node1&#45;&gt;Node6 -->
<g id="edge5" class="edge">
<title>Node1&#45;&gt;Node6</title>
<path fill="none" stroke="#191970" d="M110.4744,-110.2292C107.5157,-101.1323 103.3337,-86.8005 101.674,-74 99.7083,-58.838 101.2468,-41.5633 103.1187,-28.7098"/>
<polygon fill="#191970" stroke="#191970" points="106.5927,-29.1534 104.7698,-18.7165 99.6864,-28.0122 106.5927,-29.1534"/>
</g>
<!-- Node7 -->
<g id="node5" class="node">
<title>Node7</title>
<g id="a_node5"><a xlink:href="_nolimits_8h.html" target="_top" xlink:title="../Nolimits.h">
<polygon fill="none" stroke="#ff0000" points="172.5583,-.5 172.5583,-18.5 240.7898,-18.5 240.7898,-.5 172.5583,-.5"/>
<text text-anchor="middle" x="206.674" y="-6.5" font-family="Helvetica,sans-Serif" font-size="10.00" fill="#000000">../Nolimits.h</text>
</a>
</g>
</g>
<!-- Node1&#45;&gt;Node7 -->
<g id="edge6" class="edge">
<title>Node1&#45;&gt;Node7</title>
<path fill="none" stroke="#191970" d="M137.2351,-110.429C153.6177,-102.9775 174.7542,-90.89 187.674,-74 197.6479,-60.9612 202.3974,-42.7845 204.6526,-29.049"/>
<polygon fill="#191970" stroke="#191970" points="208.1712,-29.1402 206.0202,-18.766 201.2323,-28.2172 208.1712,-29.1402"/>
</g>
<!-- Node2&#45;&gt;Node6 -->
<g id="edge3" class="edge">
<title>Node2&#45;&gt;Node6</title>
<path fill="none" stroke="#191970" d="M138.3991,-55.4179C133.0955,-47.7415 125.3436,-36.5217 118.8302,-27.0945"/>
<polygon fill="#191970" stroke="#191970" points="121.6492,-25.0173 113.0853,-18.7795 115.8901,-28.9963 121.6492,-25.0173"/>
</g>
<!-- Node2&#45;&gt;Node7 -->
<g id="edge4" class="edge">
<title>Node2&#45;&gt;Node7</title>
<path fill="none" stroke="#191970" d="M154.9121,-55.4179C164.0114,-47.3458 177.5277,-35.3556 188.4667,-25.6517"/>
<polygon fill="#191970" stroke="#191970" points="191.0555,-28.0339 196.2136,-18.7795 186.4101,-22.7974 191.0555,-28.0339"/>
</g>
<!-- Node16&#45;&gt;Node1 -->
<g id="edge8" class="edge">
<title>Node16&#45;&gt;Node1</title>
<path fill="none" stroke="#191970" d="M59.4075,-165.4179C69.0407,-157.2667 83.3957,-145.1201 94.9222,-135.3669"/>
<polygon fill="#191970" stroke="#191970" points="97.3343,-137.9108 102.7074,-128.7795 92.8127,-132.5671 97.3343,-137.9108"/>
</g>
<!-- Node17&#45;&gt;Node1 -->
<g id="edge10" class="edge">
<title>Node17&#45;&gt;Node1</title>
<path fill="none" stroke="#191970" d="M110.9195,-220.4982C111.4052,-202.6913 112.498,-162.6225 113.1517,-138.6515"/>
<polygon fill="#191970" stroke="#191970" points="116.6511,-138.7179 113.4251,-128.6261 109.6537,-138.527 116.6511,-138.7179"/>
</g>
<!-- Node17&#45;&gt;Node16 -->
<g id="edge11" class="edge">
<title>Node17&#45;&gt;Node16</title>
<path fill="none" stroke="#191970" d="M100.436,-220.4179C91.3366,-212.3458 77.8204,-200.3556 66.8814,-190.6517"/>
<polygon fill="#191970" stroke="#191970" points="68.938,-187.7974 59.1345,-183.7795 64.2926,-193.0339 68.938,-187.7974"/>
</g>
<!-- Node18&#45;&gt;Node1 -->
<g id="edge13" class="edge">
<title>Node18&#45;&gt;Node1</title>
<path fill="none" stroke="#191970" d="M179.6288,-165.4179C167.5072,-156.9788 149.2341,-144.257 134.9934,-134.3426"/>
<polygon fill="#191970" stroke="#191970" points="136.9454,-131.4369 126.7387,-128.5956 132.9458,-137.1818 136.9454,-131.4369"/>
</g>
<!-- Node19&#45;&gt;Node7 -->
<g id="edge15" class="edge">
<title>Node19&#45;&gt;Node7</title>
<path fill="none" stroke="#191970" d="M297.2376,-165.1561C281.7926,-138.6101 237.4581,-62.41 217.11,-27.4369"/>
<polygon fill="#191970" stroke="#191970" points="220.1051,-25.6247 212.0509,-18.7414 214.0546,-29.145 220.1051,-25.6247"/>
</g>
</g>
</svg>
