<?xml version="1.0" encoding="UTF-8" standalone="no"?>
<!DOCTYPE svg PUBLIC "-//W3C//DTD SVG 1.1//EN"
 "http://www.w3.org/Graphics/SVG/1.1/DTD/svg11.dtd">
<!-- Generated by graphviz version 2.40.1 (20161225.0304)
 -->
<!-- Title: libnolimits/NL2/Coaster/Support/BeamConnection/BeamConnection.h Pages: 1 -->
<svg width="159pt" height="222pt"
 viewBox="0.00 0.00 158.76 222.00" xmlns="http://www.w3.org/2000/svg" xmlns:xlink="http://www.w3.org/1999/xlink">
<g id="graph0" class="graph" transform="scale(1 1) rotate(0) translate(4 218)">
<title>libnolimits/NL2/Coaster/Support/BeamConnection/BeamConnection.h</title>
<!-- Node0 -->
<g id="node1" class="node">
<title>Node0</title>
<polygon fill="#bfbfbf" stroke="#000000" points="0,-175.5 0,-213.5 133.2949,-213.5 133.2949,-175.5 0,-175.5"/>
<text text-anchor="start" x="8" y="-201.5" font-family="Helvetica,sans-Serif" font-size="10.00" fill="#000000">libnolimits/NL2/Coaster</text>
<text text-anchor="start" x="8" y="-191.5" font-family="Helvetica,sans-Serif" font-size="10.00" fill="#000000">/Support/BeamConnection</text>
<text text-anchor="middle" x="66.6475" y="-181.5" font-family="Helvetica,sans-Serif" font-size="10.00" fill="#000000">/BeamConnection.h</text>
</g>
<!-- Node1 -->
<g id="node2" class="node">
<title>Node1</title>
<g id="a_node2"><a xlink:href="_chunk_8h.html" target="_top" xlink:title="../../../../Stream\l/Chunk.h">
<polygon fill="none" stroke="#000000" points="25.8618,-110.5 25.8618,-138.5 107.4331,-138.5 107.4331,-110.5 25.8618,-110.5"/>
<text text-anchor="start" x="33.8618" y="-126.5" font-family="Helvetica,sans-Serif" font-size="10.00" fill="#000000">../../../../Stream</text>
<text text-anchor="middle" x="66.6475" y="-116.5" font-family="Helvetica,sans-Serif" font-size="10.00" fill="#000000">/Chunk.h</text>
</a>
</g>
</g>
<!-- Node0&#45;&gt;Node1 -->
<g id="edge1" class="edge">
<title>Node0&#45;&gt;Node1</title>
<path fill="none" stroke="#191970" d="M66.6475,-175.3722C66.6475,-167.2889 66.6475,-157.7725 66.6475,-149.1705"/>
<polygon fill="#191970" stroke="#191970" points="70.1476,-148.9403 66.6475,-138.9404 63.1476,-148.9404 70.1476,-148.9403"/>
</g>
<!-- Node2 -->
<g id="node3" class="node">
<title>Node2</title>
<g id="a_node3"><a xlink:href="_file_8h.html" target="_top" xlink:title="../File/File.h">
<polygon fill="none" stroke="#ff0000" points="32.8076,-55.5 32.8076,-73.5 100.4873,-73.5 100.4873,-55.5 32.8076,-55.5"/>
<text text-anchor="middle" x="66.6475" y="-61.5" font-family="Helvetica,sans-Serif" font-size="10.00" fill="#000000">../File/File.h</text>
</a>
</g>
</g>
<!-- Node1&#45;&gt;Node2 -->
<g id="edge2" class="edge">
<title>Node1&#45;&gt;Node2</title>
<path fill="none" stroke="#191970" d="M66.6475,-110.2808C66.6475,-102.3776 66.6475,-92.4316 66.6475,-83.8308"/>
<polygon fill="#191970" stroke="#191970" points="70.1476,-83.5842 66.6475,-73.5842 63.1476,-83.5842 70.1476,-83.5842"/>
</g>
<!-- Node6 -->
<g id="node4" class="node">
<title>Node6</title>
<polygon fill="none" stroke="#bfbfbf" points="4.5269,-.5 4.5269,-18.5 52.7681,-18.5 52.7681,-.5 4.5269,-.5"/>
<text text-anchor="middle" x="28.6475" y="-6.5" font-family="Helvetica,sans-Serif" font-size="10.00" fill="#000000">stdint.h</text>
</g>
<!-- Node1&#45;&gt;Node6 -->
<g id="edge5" class="edge">
<title>Node1&#45;&gt;Node6</title>
<path fill="none" stroke="#191970" d="M49.8504,-110.4733C40.166,-101.245 28.8977,-88.2644 23.6475,-74 18.2525,-59.3425 20.1942,-41.5766 23.0937,-28.4045"/>
<polygon fill="#191970" stroke="#191970" points="26.5169,-29.1458 25.6146,-18.5895 19.7369,-27.4044 26.5169,-29.1458"/>
</g>
<!-- Node7 -->
<g id="node5" class="node">
<title>Node7</title>
<g id="a_node5"><a xlink:href="_nolimits_8h.html" target="_top" xlink:title="../Nolimits.h">
<polygon fill="none" stroke="#ff0000" points="82.5317,-.5 82.5317,-18.5 150.7632,-18.5 150.7632,-.5 82.5317,-.5"/>
<text text-anchor="middle" x="116.6475" y="-6.5" font-family="Helvetica,sans-Serif" font-size="10.00" fill="#000000">../Nolimits.h</text>
</a>
</g>
</g>
<!-- Node1&#45;&gt;Node7 -->
<g id="edge6" class="edge">
<title>Node1&#45;&gt;Node7</title>
<path fill="none" stroke="#191970" d="M82.9075,-110.259C92.3898,-100.95 103.6343,-87.9599 109.6475,-74 115.7821,-59.7582 117.343,-42.1804 117.4753,-28.9735"/>
<polygon fill="#191970" stroke="#191970" points="120.9701,-28.6263 117.3029,-18.6864 113.9711,-28.7436 120.9701,-28.6263"/>
</g>
<!-- Node2&#45;&gt;Node6 -->
<g id="edge3" class="edge">
<title>Node2&#45;&gt;Node6</title>
<path fill="none" stroke="#191970" d="M60.3725,-55.4179C55.0689,-47.7415 47.317,-36.5217 40.8037,-27.0945"/>
<polygon fill="#191970" stroke="#191970" points="43.6226,-25.0173 35.0587,-18.7795 37.8635,-28.9963 43.6226,-25.0173"/>
</g>
<!-- Node2&#45;&gt;Node7 -->
<g id="edge4" class="edge">
<title>Node2&#45;&gt;Node7</title>
<path fill="none" stroke="#191970" d="M74.9039,-55.4179C82.0983,-47.5041 92.7163,-35.8243 101.4428,-26.2251"/>
<polygon fill="#191970" stroke="#191970" points="104.0746,-28.5332 108.2116,-18.7795 98.895,-23.8245 104.0746,-28.5332"/>
</g>
</g>
</svg>
