<?xml version="1.0" encoding="UTF-8" standalone="no"?>
<!DOCTYPE svg PUBLIC "-//W3C//DTD SVG 1.1//EN"
 "http://www.w3.org/Graphics/SVG/1.1/DTD/svg11.dtd">
<!-- Generated by graphviz version 2.40.1 (20161225.0304)
 -->
<!-- Title: libnolimits/NL2/Coaster/Support/BeamConnection/BeamConnection.h Pages: 1 -->
<svg width="212pt" height="222pt"
 viewBox="0.00 0.00 212.18 222.00" xmlns="http://www.w3.org/2000/svg" xmlns:xlink="http://www.w3.org/1999/xlink">
<g id="graph0" class="graph" transform="scale(1 1) rotate(0) translate(4 218)">
<title>libnolimits/NL2/Coaster/Support/BeamConnection/BeamConnection.h</title>
<!-- Node0 -->
<g id="node1" class="node">
<title>Node0</title>
<polygon fill="#bfbfbf" stroke="#000000" points="26.4731,-175.5 26.4731,-213.5 159.7681,-213.5 159.7681,-175.5 26.4731,-175.5"/>
<text text-anchor="start" x="34.4731" y="-201.5" font-family="Helvetica,sans-Serif" font-size="10.00" fill="#000000">libnolimits/NL2/Coaster</text>
<text text-anchor="start" x="34.4731" y="-191.5" font-family="Helvetica,sans-Serif" font-size="10.00" fill="#000000">/Support/BeamConnection</text>
<text text-anchor="middle" x="93.1206" y="-181.5" font-family="Helvetica,sans-Serif" font-size="10.00" fill="#000000">/BeamConnection.h</text>
</g>
<!-- Node1 -->
<g id="node2" class="node">
<title>Node1</title>
<g id="a_node2"><a xlink:href="_chunk_8h.html" target="_top" xlink:title="../../../../Stream\l/Chunk.h">
<polygon fill="none" stroke="#000000" points="52.335,-110.5 52.335,-138.5 133.9063,-138.5 133.9063,-110.5 52.335,-110.5"/>
<text text-anchor="start" x="60.335" y="-126.5" font-family="Helvetica,sans-Serif" font-size="10.00" fill="#000000">../../../../Stream</text>
<text text-anchor="middle" x="93.1206" y="-116.5" font-family="Helvetica,sans-Serif" font-size="10.00" fill="#000000">/Chunk.h</text>
</a>
</g>
</g>
<!-- Node0&#45;&gt;Node1 -->
<g id="edge1" class="edge">
<title>Node0&#45;&gt;Node1</title>
<path fill="none" stroke="#191970" d="M93.1206,-175.3722C93.1206,-167.2889 93.1206,-157.7725 93.1206,-149.1705"/>
<polygon fill="#191970" stroke="#191970" points="96.6207,-148.9403 93.1206,-138.9404 89.6207,-148.9404 96.6207,-148.9403"/>
</g>
<!-- Node2 -->
<g id="node3" class="node">
<title>Node2</title>
<g id="a_node3"><a xlink:href="_file_8h.html" target="_top" xlink:title="../File/File.h">
<polygon fill="none" stroke="#ff0000" points="28.2808,-55.5 28.2808,-73.5 95.9604,-73.5 95.9604,-55.5 28.2808,-55.5"/>
<text text-anchor="middle" x="62.1206" y="-61.5" font-family="Helvetica,sans-Serif" font-size="10.00" fill="#000000">../File/File.h</text>
</a>
</g>
</g>
<!-- Node1&#45;&gt;Node2 -->
<g id="edge2" class="edge">
<title>Node1&#45;&gt;Node2</title>
<path fill="none" stroke="#191970" d="M85.774,-110.2808C81.5072,-102.0224 76.0879,-91.5335 71.5134,-82.6796"/>
<polygon fill="#191970" stroke="#191970" points="74.5139,-80.8619 66.8141,-73.5842 68.2949,-84.075 74.5139,-80.8619"/>
</g>
<!-- Node6 -->
<g id="node4" class="node">
<title>Node6</title>
<polygon fill="none" stroke="#bfbfbf" points="0,-.5 0,-18.5 48.2412,-18.5 48.2412,-.5 0,-.5"/>
<text text-anchor="middle" x="24.1206" y="-6.5" font-family="Helvetica,sans-Serif" font-size="10.00" fill="#000000">stdint.h</text>
</g>
<!-- Node1&#45;&gt;Node6 -->
<g id="edge6" class="edge">
<title>Node1&#45;&gt;Node6</title>
<path fill="none" stroke="#191970" d="M59.2666,-110.4444C44.085,-102.2256 27.693,-90.2284 19.1206,-74 11.7525,-60.0515 13.9744,-41.9933 17.4812,-28.5336"/>
<polygon fill="#191970" stroke="#191970" points="20.8524,-29.477 20.4103,-18.8914 14.1547,-27.4423 20.8524,-29.477"/>
</g>
<!-- Node7 -->
<g id="node5" class="node">
<title>Node7</title>
<g id="a_node5"><a xlink:href="_nolimits_8h.html" target="_top" xlink:title="../Nolimits.h">
<polygon fill="none" stroke="#ff0000" points="78.0049,-.5 78.0049,-18.5 146.2363,-18.5 146.2363,-.5 78.0049,-.5"/>
<text text-anchor="middle" x="112.1206" y="-6.5" font-family="Helvetica,sans-Serif" font-size="10.00" fill="#000000">../Nolimits.h</text>
</a>
</g>
</g>
<!-- Node1&#45;&gt;Node7 -->
<g id="edge5" class="edge">
<title>Node1&#45;&gt;Node7</title>
<path fill="none" stroke="#191970" d="M96.9592,-110.4485C99.5895,-100.3703 102.9775,-86.4327 105.1206,-74 107.7252,-58.8902 109.5391,-41.6122 110.6667,-28.7441"/>
<polygon fill="#191970" stroke="#191970" points="114.1584,-28.9879 111.4837,-18.7363 107.1816,-28.4184 114.1584,-28.9879"/>
</g>
<!-- Node16 -->
<g id="node6" class="node">
<title>Node16</title>
<polygon fill="none" stroke="#bfbfbf" points="152.0591,-55.5 152.0591,-73.5 204.1821,-73.5 204.1821,-55.5 152.0591,-55.5"/>
<text text-anchor="middle" x="178.1206" y="-61.5" font-family="Helvetica,sans-Serif" font-size="10.00" fill="#000000">ostream</text>
</g>
<!-- Node1&#45;&gt;Node16 -->
<g id="edge7" class="edge">
<title>Node1&#45;&gt;Node16</title>
<path fill="none" stroke="#191970" d="M113.2644,-110.2808C126.3477,-101.0456 143.3825,-89.021 156.7105,-79.613"/>
<polygon fill="#191970" stroke="#191970" points="159.1,-82.2105 165.2513,-73.5842 155.0632,-76.4917 159.1,-82.2105"/>
</g>
<!-- Node2&#45;&gt;Node6 -->
<g id="edge3" class="edge">
<title>Node2&#45;&gt;Node6</title>
<path fill="none" stroke="#191970" d="M55.8457,-55.4179C50.542,-47.7415 42.7902,-36.5217 36.2768,-27.0945"/>
<polygon fill="#191970" stroke="#191970" points="39.0958,-25.0173 30.5319,-18.7795 33.3367,-28.9963 39.0958,-25.0173"/>
</g>
<!-- Node2&#45;&gt;Node7 -->
<g id="edge4" class="edge">
<title>Node2&#45;&gt;Node7</title>
<path fill="none" stroke="#191970" d="M70.3771,-55.4179C77.5714,-47.5041 88.1894,-35.8243 96.916,-26.2251"/>
<polygon fill="#191970" stroke="#191970" points="99.5478,-28.5332 103.6847,-18.7795 94.3682,-23.8245 99.5478,-28.5332"/>
</g>
</g>
</svg>
