<?xml version="1.0" encoding="UTF-8" standalone="no"?>
<!DOCTYPE svg PUBLIC "-//W3C//DTD SVG 1.1//EN"
 "http://www.w3.org/Graphics/SVG/1.1/DTD/svg11.dtd">
<!-- Generated by graphviz version 2.40.1 (20161225.0304)
 -->
<!-- Title: libnolimits/NL2/Coaster/Support/BeamConnection.h Pages: 1 -->
<svg width="366pt" height="167pt"
 viewBox="0.00 0.00 365.51 167.00" xmlns="http://www.w3.org/2000/svg" xmlns:xlink="http://www.w3.org/1999/xlink">
<g id="graph0" class="graph" transform="scale(1 1) rotate(0) translate(4 163)">
<title>libnolimits/NL2/Coaster/Support/BeamConnection.h</title>
<!-- Node16 -->
<g id="node1" class="node">
<title>Node16</title>
<polygon fill="#bfbfbf" stroke="#000000" points="133.5913,-130.5 133.5913,-158.5 275.2261,-158.5 275.2261,-130.5 133.5913,-130.5"/>
<text text-anchor="start" x="141.5913" y="-146.5" font-family="Helvetica,sans-Serif" font-size="10.00" fill="#000000">libnolimits/NL2/Coaster</text>
<text text-anchor="middle" x="204.4087" y="-136.5" font-family="Helvetica,sans-Serif" font-size="10.00" fill="#000000">/Support/BeamConnection.h</text>
</g>
<!-- Node17 -->
<g id="node2" class="node">
<title>Node17</title>
<g id="a_node2"><a xlink:href="_beam_8h.html" target="_top" xlink:title="libnolimits/NL2/Coaster\l/Support/Beam.h">
<polygon fill="none" stroke="#000000" points="68,-65.5 68,-93.5 186.8174,-93.5 186.8174,-65.5 68,-65.5"/>
<text text-anchor="start" x="76" y="-81.5" font-family="Helvetica,sans-Serif" font-size="10.00" fill="#000000">libnolimits/NL2/Coaster</text>
<text text-anchor="middle" x="127.4087" y="-71.5" font-family="Helvetica,sans-Serif" font-size="10.00" fill="#000000">/Support/Beam.h</text>
</a>
</g>
</g>
<!-- Node16&#45;&gt;Node17 -->
<g id="edge1" class="edge">
<title>Node16&#45;&gt;Node17</title>
<path fill="none" stroke="#191970" d="M179.9857,-123.8832C168.2844,-114.0054 154.5711,-102.4293 144.0839,-93.5765"/>
<polygon fill="#191970" stroke="#191970" points="177.8017,-126.6199 187.7008,-130.396 182.3171,-121.2709 177.8017,-126.6199"/>
</g>
<!-- Node25 -->
<g id="node5" class="node">
<title>Node25</title>
<g id="a_node5"><a xlink:href="_beam_connection_8cpp.html" target="_top" xlink:title="libnolimits/NL2/Coaster\l/Support/BeamConnection.cpp">
<polygon fill="none" stroke="#000000" points="205.3105,-65.5 205.3105,-93.5 357.5068,-93.5 357.5068,-65.5 205.3105,-65.5"/>
<text text-anchor="start" x="213.3105" y="-81.5" font-family="Helvetica,sans-Serif" font-size="10.00" fill="#000000">libnolimits/NL2/Coaster</text>
<text text-anchor="middle" x="281.4087" y="-71.5" font-family="Helvetica,sans-Serif" font-size="10.00" fill="#000000">/Support/BeamConnection.cpp</text>
</a>
</g>
</g>
<!-- Node16&#45;&gt;Node25 -->
<g id="edge4" class="edge">
<title>Node16&#45;&gt;Node25</title>
<path fill="none" stroke="#191970" d="M228.8317,-123.8832C240.533,-114.0054 254.2463,-102.4293 264.7334,-93.5765"/>
<polygon fill="#191970" stroke="#191970" points="226.5003,-121.2709 221.1165,-130.396 231.0156,-126.6199 226.5003,-121.2709"/>
</g>
<!-- Node18 -->
<g id="node3" class="node">
<title>Node18</title>
<g id="a_node3"><a xlink:href="_support_8h.html" target="_top" xlink:title="libnolimits/NL2/Coaster\l/Support/Support.h">
<polygon fill="none" stroke="#ff0000" points="0,-.5 0,-28.5 118.8174,-28.5 118.8174,-.5 0,-.5"/>
<text text-anchor="start" x="8" y="-16.5" font-family="Helvetica,sans-Serif" font-size="10.00" fill="#000000">libnolimits/NL2/Coaster</text>
<text text-anchor="middle" x="59.4087" y="-6.5" font-family="Helvetica,sans-Serif" font-size="10.00" fill="#000000">/Support/Support.h</text>
</a>
</g>
</g>
<!-- Node17&#45;&gt;Node18 -->
<g id="edge2" class="edge">
<title>Node17&#45;&gt;Node18</title>
<path fill="none" stroke="#191970" d="M105.2422,-58.3115C95.0419,-48.5612 83.2182,-37.259 74.1349,-28.5765"/>
<polygon fill="#191970" stroke="#191970" points="103.0065,-61.0162 112.6537,-65.396 107.8434,-55.9561 103.0065,-61.0162"/>
</g>
<!-- Node24 -->
<g id="node4" class="node">
<title>Node24</title>
<g id="a_node4"><a xlink:href="_beam_8cpp.html" target="_top" xlink:title="libnolimits/NL2/Coaster\l/Support/Beam.cpp">
<polygon fill="none" stroke="#000000" points="137,-.5 137,-28.5 255.8174,-28.5 255.8174,-.5 137,-.5"/>
<text text-anchor="start" x="145" y="-16.5" font-family="Helvetica,sans-Serif" font-size="10.00" fill="#000000">libnolimits/NL2/Coaster</text>
<text text-anchor="middle" x="196.4087" y="-6.5" font-family="Helvetica,sans-Serif" font-size="10.00" fill="#000000">/Support/Beam.cpp</text>
</a>
</g>
</g>
<!-- Node17&#45;&gt;Node24 -->
<g id="edge3" class="edge">
<title>Node17&#45;&gt;Node24</title>
<path fill="none" stroke="#191970" d="M149.9011,-58.3115C160.2514,-48.5612 172.2491,-37.259 181.4659,-28.5765"/>
<polygon fill="#191970" stroke="#191970" points="147.2597,-55.9914 142.3807,-65.396 152.0595,-61.0866 147.2597,-55.9914"/>
</g>
</g>
</svg>
