<?xml version="1.0" encoding="UTF-8" standalone="no"?>
<!DOCTYPE svg PUBLIC "-//W3C//DTD SVG 1.1//EN"
 "http://www.w3.org/Graphics/SVG/1.1/DTD/svg11.dtd">
<!-- Generated by graphviz version 2.40.1 (20161225.0304)
 -->
<!-- Title: libnolimits/NL2/Coaster/Support/BeamNode.cpp Pages: 1 -->
<svg width="134pt" height="147pt"
 viewBox="0.00 0.00 133.51 147.00" xmlns="http://www.w3.org/2000/svg" xmlns:xlink="http://www.w3.org/1999/xlink">
<g id="graph0" class="graph" transform="scale(1 1) rotate(0) translate(4 143)">
<title>libnolimits/NL2/Coaster/Support/BeamNode.cpp</title>
<!-- Node0 -->
<g id="node1" class="node">
<title>Node0</title>
<polygon fill="#bfbfbf" stroke="#000000" points="0,-110.5 0,-138.5 125.5117,-138.5 125.5117,-110.5 0,-110.5"/>
<text text-anchor="start" x="8" y="-126.5" font-family="Helvetica,sans-Serif" font-size="10.00" fill="#000000">libnolimits/NL2/Coaster</text>
<text text-anchor="middle" x="62.7559" y="-116.5" font-family="Helvetica,sans-Serif" font-size="10.00" fill="#000000">/Support/BeamNode.cpp</text>
</g>
<!-- Node1 -->
<g id="node2" class="node">
<title>Node1</title>
<g id="a_node2"><a xlink:href="_beam_node_8h.html" target="_top" xlink:title="BeamNode.h">
<polygon fill="none" stroke="#000000" points="25.5713,-55.5 25.5713,-73.5 99.9404,-73.5 99.9404,-55.5 25.5713,-55.5"/>
<text text-anchor="middle" x="62.7559" y="-61.5" font-family="Helvetica,sans-Serif" font-size="10.00" fill="#000000">BeamNode.h</text>
</a>
</g>
</g>
<!-- Node0&#45;&gt;Node1 -->
<g id="edge1" class="edge">
<title>Node0&#45;&gt;Node1</title>
<path fill="none" stroke="#191970" d="M62.7559,-110.2808C62.7559,-102.3776 62.7559,-92.4316 62.7559,-83.8308"/>
<polygon fill="#191970" stroke="#191970" points="66.256,-83.5842 62.7559,-73.5842 59.256,-83.5842 66.256,-83.5842"/>
</g>
<!-- Node2 -->
<g id="node3" class="node">
<title>Node2</title>
<g id="a_node3"><a xlink:href="_chunk_8h.html" target="_top" xlink:title="../../../Stream/Chunk.h">
<polygon fill="none" stroke="#ff0000" points="6.1255,-.5 6.1255,-18.5 119.3862,-18.5 119.3862,-.5 6.1255,-.5"/>
<text text-anchor="middle" x="62.7559" y="-6.5" font-family="Helvetica,sans-Serif" font-size="10.00" fill="#000000">../../../Stream/Chunk.h</text>
</a>
</g>
</g>
<!-- Node1&#45;&gt;Node2 -->
<g id="edge2" class="edge">
<title>Node1&#45;&gt;Node2</title>
<path fill="none" stroke="#191970" d="M62.7559,-55.4179C62.7559,-48.2164 62.7559,-37.8962 62.7559,-28.8632"/>
<polygon fill="#191970" stroke="#191970" points="66.256,-28.7794 62.7559,-18.7795 59.256,-28.7795 66.256,-28.7794"/>
</g>
</g>
</svg>
