<?xml version="1.0" encoding="UTF-8" standalone="no"?>
<!DOCTYPE svg PUBLIC "-//W3C//DTD SVG 1.1//EN"
 "http://www.w3.org/Graphics/SVG/1.1/DTD/svg11.dtd">
<!-- Generated by graphviz version 2.40.1 (20161225.0304)
 -->
<!-- Title: libnolimits/NL2/Coaster/Support/Beam.cpp Pages: 1 -->
<svg width="339pt" height="257pt"
 viewBox="0.00 0.00 339.04 257.00" xmlns="http://www.w3.org/2000/svg" xmlns:xlink="http://www.w3.org/1999/xlink">
<g id="graph0" class="graph" transform="scale(1 1) rotate(0) translate(4 253)">
<title>libnolimits/NL2/Coaster/Support/Beam.cpp</title>
<!-- Node0 -->
<g id="node1" class="node">
<title>Node0</title>
<polygon fill="#bfbfbf" stroke="#000000" points="71.016,-220.5 71.016,-248.5 189.8334,-248.5 189.8334,-220.5 71.016,-220.5"/>
<text text-anchor="start" x="79.016" y="-236.5" font-family="Helvetica,sans-Serif" font-size="10.00" fill="#000000">libnolimits/NL2/Coaster</text>
<text text-anchor="middle" x="130.4247" y="-226.5" font-family="Helvetica,sans-Serif" font-size="10.00" fill="#000000">/Support/Beam.cpp</text>
</g>
<!-- Node1 -->
<g id="node2" class="node">
<title>Node1</title>
<g id="a_node2"><a xlink:href="_beam_8h.html" target="_top" xlink:title="Beam.h">
<polygon fill="none" stroke="#000000" points="105.1932,-165.5 105.1932,-183.5 155.6561,-183.5 155.6561,-165.5 105.1932,-165.5"/>
<text text-anchor="middle" x="130.4247" y="-171.5" font-family="Helvetica,sans-Serif" font-size="10.00" fill="#000000">Beam.h</text>
</a>
</g>
</g>
<!-- Node0&#45;&gt;Node1 -->
<g id="edge1" class="edge">
<title>Node0&#45;&gt;Node1</title>
<path fill="none" stroke="#191970" d="M130.4247,-220.2808C130.4247,-212.3776 130.4247,-202.4316 130.4247,-193.8308"/>
<polygon fill="#191970" stroke="#191970" points="133.9248,-193.5842 130.4247,-183.5842 126.9248,-193.5842 133.9248,-193.5842"/>
</g>
<!-- Node2 -->
<g id="node3" class="node">
<title>Node2</title>
<g id="a_node3"><a xlink:href="_chunk_8h.html" target="_top" xlink:title="../../../Stream/Chunk.h">
<polygon fill="none" stroke="#ff0000" points="23.7943,-.5 23.7943,-18.5 137.0551,-18.5 137.0551,-.5 23.7943,-.5"/>
<text text-anchor="middle" x="80.4247" y="-6.5" font-family="Helvetica,sans-Serif" font-size="10.00" fill="#000000">../../../Stream/Chunk.h</text>
</a>
</g>
</g>
<!-- Node1&#45;&gt;Node2 -->
<g id="edge2" class="edge">
<title>Node1&#45;&gt;Node2</title>
<path fill="none" stroke="#191970" d="M107.6633,-165.4711C76.1151,-151.4571 20.8938,-121.0806 2.4247,-74 -6.6961,-50.7496 18.3547,-33.4344 42.4441,-22.6308"/>
<polygon fill="#191970" stroke="#191970" points="44.0292,-25.7617 51.9043,-18.6741 41.3282,-19.3038 44.0292,-25.7617"/>
</g>
<!-- Node17 -->
<g id="node4" class="node">
<title>Node17</title>
<g id="a_node4"><a xlink:href="_beam_node_8h.html" target="_top" xlink:title="BeamNode.h">
<polygon fill="none" stroke="#000000" points="11.2401,-55.5 11.2401,-73.5 85.6093,-73.5 85.6093,-55.5 11.2401,-55.5"/>
<text text-anchor="middle" x="48.4247" y="-61.5" font-family="Helvetica,sans-Serif" font-size="10.00" fill="#000000">BeamNode.h</text>
</a>
</g>
</g>
<!-- Node1&#45;&gt;Node17 -->
<g id="edge3" class="edge">
<title>Node1&#45;&gt;Node17</title>
<path fill="none" stroke="#191970" d="M111.8283,-165.4231C97.6949,-157.6168 78.8039,-145.0787 67.4247,-129 57.9413,-115.6002 53.1435,-97.4591 50.7451,-83.829"/>
<polygon fill="#191970" stroke="#191970" points="54.1648,-83.0269 49.2446,-73.6438 47.2395,-84.0472 54.1648,-83.0269"/>
</g>
<!-- Node18 -->
<g id="node5" class="node">
<title>Node18</title>
<g id="a_node5"><a xlink:href="_flange_8h.html" target="_top" xlink:title="Flange.h">
<polygon fill="none" stroke="#000000" points="75.9667,-110.5 75.9667,-128.5 130.8827,-128.5 130.8827,-110.5 75.9667,-110.5"/>
<text text-anchor="middle" x="103.4247" y="-116.5" font-family="Helvetica,sans-Serif" font-size="10.00" fill="#000000">Flange.h</text>
</a>
</g>
</g>
<!-- Node1&#45;&gt;Node18 -->
<g id="edge5" class="edge">
<title>Node1&#45;&gt;Node18</title>
<path fill="none" stroke="#191970" d="M125.9662,-165.4179C122.3143,-157.9789 117.0289,-147.2123 112.4938,-137.9742"/>
<polygon fill="#191970" stroke="#191970" points="115.5287,-136.2138 107.9801,-128.7795 109.245,-139.2985 115.5287,-136.2138"/>
</g>
<!-- Node19 -->
<g id="node6" class="node">
<title>Node19</title>
<g id="a_node6"><a xlink:href="_beam_connection_8h.html" target="_top" xlink:title="BeamConnection.h">
<polygon fill="none" stroke="#000000" points="141.8978,-55.5 141.8978,-73.5 242.9515,-73.5 242.9515,-55.5 141.8978,-55.5"/>
<text text-anchor="middle" x="192.4247" y="-61.5" font-family="Helvetica,sans-Serif" font-size="10.00" fill="#000000">BeamConnection.h</text>
</a>
</g>
</g>
<!-- Node1&#45;&gt;Node19 -->
<g id="edge8" class="edge">
<title>Node1&#45;&gt;Node19</title>
<path fill="none" stroke="#191970" d="M135.4984,-165.4982C145.7167,-147.369 168.9409,-106.1647 182.3548,-82.3659"/>
<polygon fill="#191970" stroke="#191970" points="185.4197,-84.0562 187.2809,-73.6261 179.3216,-80.6191 185.4197,-84.0562"/>
</g>
<!-- Node20 -->
<g id="node7" class="node">
<title>Node20</title>
<g id="a_node7"><a xlink:href="_support_node_8h.html" target="_top" xlink:title="SupportNode.h">
<polygon fill="none" stroke="#ff0000" points="186.7894,-110.5 186.7894,-128.5 270.0599,-128.5 270.0599,-110.5 186.7894,-110.5"/>
<text text-anchor="middle" x="228.4247" y="-116.5" font-family="Helvetica,sans-Serif" font-size="10.00" fill="#000000">SupportNode.h</text>
</a>
</g>
</g>
<!-- Node1&#45;&gt;Node20 -->
<g id="edge10" class="edge">
<title>Node1&#45;&gt;Node20</title>
<path fill="none" stroke="#191970" d="M146.6074,-165.4179C162.0699,-156.7399 185.6015,-143.5334 203.4655,-133.5077"/>
<polygon fill="#191970" stroke="#191970" points="205.2104,-136.542 212.2179,-128.5956 201.7844,-130.4377 205.2104,-136.542"/>
</g>
<!-- Node21 -->
<g id="node8" class="node">
<title>Node21</title>
<polygon fill="none" stroke="#bfbfbf" points="287.809,-110.5 287.809,-128.5 331.0404,-128.5 331.0404,-110.5 287.809,-110.5"/>
<text text-anchor="middle" x="309.4247" y="-116.5" font-family="Helvetica,sans-Serif" font-size="10.00" fill="#000000">vector</text>
</g>
<!-- Node1&#45;&gt;Node21 -->
<g id="edge11" class="edge">
<title>Node1&#45;&gt;Node21</title>
<path fill="none" stroke="#191970" d="M155.7584,-166.8506C183.5713,-158.4338 229.7909,-144.3918 278.115,-129.3882"/>
<polygon fill="#191970" stroke="#191970" points="279.2931,-132.6873 287.803,-126.3761 277.2147,-126.0029 279.2931,-132.6873"/>
</g>
<!-- Node17&#45;&gt;Node2 -->
<g id="edge4" class="edge">
<title>Node17&#45;&gt;Node2</title>
<path fill="none" stroke="#191970" d="M53.7088,-55.4179C58.083,-47.8998 64.4346,-36.9829 69.8473,-27.6799"/>
<polygon fill="#191970" stroke="#191970" points="73.022,-29.1831 75.0257,-18.7795 66.9715,-25.6628 73.022,-29.1831"/>
</g>
<!-- Node18&#45;&gt;Node2 -->
<g id="edge6" class="edge">
<title>Node18&#45;&gt;Node2</title>
<path fill="none" stroke="#191970" d="M102.6014,-110.2314C101.3754,-97.6275 98.7395,-74.4258 94.4247,-55 92.4559,-46.1364 89.5987,-36.5009 86.9781,-28.3884"/>
<polygon fill="#191970" stroke="#191970" points="90.2592,-27.1644 83.764,-18.7941 83.6218,-29.3879 90.2592,-27.1644"/>
</g>
<!-- Node18&#45;&gt;Node17 -->
<g id="edge7" class="edge">
<title>Node18&#45;&gt;Node17</title>
<path fill="none" stroke="#191970" d="M94.3426,-110.4179C86.3497,-102.425 74.515,-90.5903 64.8624,-80.9377"/>
<polygon fill="#191970" stroke="#191970" points="67.2501,-78.3757 57.7041,-73.7795 62.3004,-83.3254 67.2501,-78.3757"/>
</g>
<!-- Node19&#45;&gt;Node2 -->
<g id="edge9" class="edge">
<title>Node19&#45;&gt;Node2</title>
<path fill="none" stroke="#191970" d="M173.9302,-55.4179C156.0155,-46.6205 128.6236,-33.1691 108.1103,-23.0956"/>
<polygon fill="#191970" stroke="#191970" points="109.4656,-19.8619 98.9467,-18.5956 106.38,-26.1452 109.4656,-19.8619"/>
</g>
</g>
</svg>
