<?xml version="1.0" encoding="UTF-8" standalone="no"?>
<!DOCTYPE svg PUBLIC "-//W3C//DTD SVG 1.1//EN"
 "http://www.w3.org/Graphics/SVG/1.1/DTD/svg11.dtd">
<!-- Generated by graphviz version 2.40.1 (20161225.0304)
 -->
<!-- Title: libnolimits/NL2/Coaster/Support/BeamConnection/BeamConnection.cpp Pages: 1 -->
<svg width="561pt" height="222pt"
 viewBox="0.00 0.00 561.09 222.00" xmlns="http://www.w3.org/2000/svg" xmlns:xlink="http://www.w3.org/1999/xlink">
<g id="graph0" class="graph" transform="scale(1 1) rotate(0) translate(4 218)">
<title>libnolimits/NL2/Coaster/Support/BeamConnection/BeamConnection.cpp</title>
<!-- Node0 -->
<g id="node1" class="node">
<title>Node0</title>
<polygon fill="#bfbfbf" stroke="#000000" points="148.2938,-175.5 148.2938,-213.5 281.5888,-213.5 281.5888,-175.5 148.2938,-175.5"/>
<text text-anchor="start" x="156.2938" y="-201.5" font-family="Helvetica,sans-Serif" font-size="10.00" fill="#000000">libnolimits/NL2/Coaster</text>
<text text-anchor="start" x="156.2938" y="-191.5" font-family="Helvetica,sans-Serif" font-size="10.00" fill="#000000">/Support/BeamConnection</text>
<text text-anchor="middle" x="214.9413" y="-181.5" font-family="Helvetica,sans-Serif" font-size="10.00" fill="#000000">/BeamConnection.cpp</text>
</g>
<!-- Node1 -->
<g id="node2" class="node">
<title>Node1</title>
<g id="a_node2"><a xlink:href="_beam_connection_8h.html" target="_top" xlink:title="BeamConnection.h">
<polygon fill="none" stroke="#000000" points="164.4144,-65.5 164.4144,-83.5 265.4682,-83.5 265.4682,-65.5 164.4144,-65.5"/>
<text text-anchor="middle" x="214.9413" y="-71.5" font-family="Helvetica,sans-Serif" font-size="10.00" fill="#000000">BeamConnection.h</text>
</a>
</g>
</g>
<!-- Node0&#45;&gt;Node1 -->
<g id="edge1" class="edge">
<title>Node0&#45;&gt;Node1</title>
<path fill="none" stroke="#191970" d="M148.279,-185.8787C93.3112,-177.2401 21.605,-161.9107 3.9413,-139 -1.2147,-132.3124 -1.3633,-126.5704 3.9413,-120 22.5564,-96.9428 98.704,-85.0088 154.1923,-79.2546"/>
<polygon fill="#191970" stroke="#191970" points="154.6894,-82.7225 164.2943,-78.2508 153.9971,-75.7568 154.6894,-82.7225"/>
</g>
<!-- Node17 -->
<g id="node4" class="node">
<title>Node17</title>
<g id="a_node4"><a xlink:href="_beam_node_connection_8h.html" target="_top" xlink:title="BeamNodeConnection.h">
<polygon fill="none" stroke="#000000" points="12.4613,-120.5 12.4613,-138.5 137.4213,-138.5 137.4213,-120.5 12.4613,-120.5"/>
<text text-anchor="middle" x="74.9413" y="-126.5" font-family="Helvetica,sans-Serif" font-size="10.00" fill="#000000">BeamNodeConnection.h</text>
</a>
</g>
</g>
<!-- Node0&#45;&gt;Node17 -->
<g id="edge3" class="edge">
<title>Node0&#45;&gt;Node17</title>
<path fill="none" stroke="#191970" d="M173.6939,-175.3494C151.2359,-164.9225 123.9988,-152.2767 103.8224,-142.9091"/>
<polygon fill="#191970" stroke="#191970" points="105.0807,-139.6345 94.5367,-138.5978 102.1328,-145.9836 105.0807,-139.6345"/>
</g>
<!-- Node18 -->
<g id="node5" class="node">
<title>Node18</title>
<g id="a_node5"><a xlink:href="_free_node_connection_8h.html" target="_top" xlink:title="FreeNodeConnection.h">
<polygon fill="none" stroke="#000000" points="155.2421,-120.5 155.2421,-138.5 274.6405,-138.5 274.6405,-120.5 155.2421,-120.5"/>
<text text-anchor="middle" x="214.9413" y="-126.5" font-family="Helvetica,sans-Serif" font-size="10.00" fill="#000000">FreeNodeConnection.h</text>
</a>
</g>
</g>
<!-- Node0&#45;&gt;Node18 -->
<g id="edge5" class="edge">
<title>Node0&#45;&gt;Node18</title>
<path fill="none" stroke="#191970" d="M214.9413,-175.3494C214.9413,-167.0079 214.9413,-157.2463 214.9413,-148.879"/>
<polygon fill="#191970" stroke="#191970" points="218.4414,-148.5978 214.9413,-138.5978 211.4414,-148.5979 218.4414,-148.5978"/>
</g>
<!-- Node19 -->
<g id="node6" class="node">
<title>Node19</title>
<g id="a_node6"><a xlink:href="_footer_connection_8h.html" target="_top" xlink:title="FooterConnection.h">
<polygon fill="none" stroke="#000000" points="293.0253,-120.5 293.0253,-138.5 396.8573,-138.5 396.8573,-120.5 293.0253,-120.5"/>
<text text-anchor="middle" x="344.9413" y="-126.5" font-family="Helvetica,sans-Serif" font-size="10.00" fill="#000000">FooterConnection.h</text>
</a>
</g>
</g>
<!-- Node0&#45;&gt;Node19 -->
<g id="edge7" class="edge">
<title>Node0&#45;&gt;Node19</title>
<path fill="none" stroke="#191970" d="M253.2425,-175.3494C273.9068,-165.0173 298.9284,-152.5064 317.6106,-143.1654"/>
<polygon fill="#191970" stroke="#191970" points="319.3666,-146.2005 326.7456,-138.5978 316.2361,-139.9395 319.3666,-146.2005"/>
</g>
<!-- Node20 -->
<g id="node7" class="node">
<title>Node20</title>
<g id="a_node7"><a xlink:href="_rail_connector_connection_8h.html" target="_top" xlink:title="RailConnectorConnection.h">
<polygon fill="none" stroke="#000000" points="414.7938,-120.5 414.7938,-138.5 553.0888,-138.5 553.0888,-120.5 414.7938,-120.5"/>
<text text-anchor="middle" x="483.9413" y="-126.5" font-family="Helvetica,sans-Serif" font-size="10.00" fill="#000000">RailConnectorConnection.h</text>
</a>
</g>
</g>
<!-- Node0&#45;&gt;Node20 -->
<g id="edge9" class="edge">
<title>Node0&#45;&gt;Node20</title>
<path fill="none" stroke="#191970" d="M281.7813,-178.3491C329.8949,-166.7231 393.6277,-151.323 436.5657,-140.9476"/>
<polygon fill="#191970" stroke="#191970" points="437.5746,-144.3047 446.4728,-138.5537 435.9304,-137.5005 437.5746,-144.3047"/>
</g>
<!-- Node2 -->
<g id="node3" class="node">
<title>Node2</title>
<g id="a_node3"><a xlink:href="_chunk_8h.html" target="_top" xlink:title="../../../../Stream\l/Chunk.h">
<polygon fill="none" stroke="#ff0000" points="174.1557,-.5 174.1557,-28.5 255.7269,-28.5 255.7269,-.5 174.1557,-.5"/>
<text text-anchor="start" x="182.1557" y="-16.5" font-family="Helvetica,sans-Serif" font-size="10.00" fill="#000000">../../../../Stream</text>
<text text-anchor="middle" x="214.9413" y="-6.5" font-family="Helvetica,sans-Serif" font-size="10.00" fill="#000000">/Chunk.h</text>
</a>
</g>
</g>
<!-- Node1&#45;&gt;Node2 -->
<g id="edge2" class="edge">
<title>Node1&#45;&gt;Node2</title>
<path fill="none" stroke="#191970" d="M214.9413,-65.3873C214.9413,-58.3369 214.9413,-48.2311 214.9413,-38.8806"/>
<polygon fill="#191970" stroke="#191970" points="218.4414,-38.8476 214.9413,-28.8477 211.4414,-38.8477 218.4414,-38.8476"/>
</g>
<!-- Node17&#45;&gt;Node1 -->
<g id="edge4" class="edge">
<title>Node17&#45;&gt;Node1</title>
<path fill="none" stroke="#191970" d="M98.0594,-120.4179C121.0607,-111.3817 156.5606,-97.4353 182.4033,-87.2828"/>
<polygon fill="#191970" stroke="#191970" points="183.7611,-90.5098 191.7888,-83.5956 181.2015,-83.9946 183.7611,-90.5098"/>
</g>
<!-- Node18&#45;&gt;Node1 -->
<g id="edge6" class="edge">
<title>Node18&#45;&gt;Node1</title>
<path fill="none" stroke="#191970" d="M214.9413,-120.4179C214.9413,-113.2164 214.9413,-102.8962 214.9413,-93.8632"/>
<polygon fill="#191970" stroke="#191970" points="218.4414,-93.7794 214.9413,-83.7795 211.4414,-93.7795 218.4414,-93.7794"/>
</g>
<!-- Node19&#45;&gt;Node1 -->
<g id="edge8" class="edge">
<title>Node19&#45;&gt;Node1</title>
<path fill="none" stroke="#191970" d="M323.4744,-120.4179C302.3043,-111.4613 269.7319,-97.6806 245.7915,-87.552"/>
<polygon fill="#191970" stroke="#191970" points="247.0135,-84.2687 236.44,-83.5956 244.286,-90.7155 247.0135,-84.2687"/>
</g>
<!-- Node20&#45;&gt;Node1 -->
<g id="edge10" class="edge">
<title>Node20&#45;&gt;Node1</title>
<path fill="none" stroke="#191970" d="M439.8226,-120.4795C393.1085,-110.9282 319.3217,-95.8417 269.1097,-85.5753"/>
<polygon fill="#191970" stroke="#191970" points="269.5825,-82.0997 259.084,-83.5255 268.1802,-88.9578 269.5825,-82.0997"/>
</g>
</g>
</svg>
