<?xml version="1.0" encoding="UTF-8" standalone="no"?>
<!DOCTYPE svg PUBLIC "-//W3C//DTD SVG 1.1//EN"
 "http://www.w3.org/Graphics/SVG/1.1/DTD/svg11.dtd">
<!-- Generated by graphviz version 2.40.1 (20161225.0304)
 -->
<!-- Title: libnolimits/NL2/Coaster/Support/BeamConnection.cpp Pages: 1 -->
<svg width="160pt" height="147pt"
 viewBox="0.00 0.00 160.20 147.00" xmlns="http://www.w3.org/2000/svg" xmlns:xlink="http://www.w3.org/1999/xlink">
<g id="graph0" class="graph" transform="scale(1 1) rotate(0) translate(4 143)">
<title>libnolimits/NL2/Coaster/Support/BeamConnection.cpp</title>
<!-- Node0 -->
<g id="node1" class="node">
<title>Node0</title>
<polygon fill="#bfbfbf" stroke="#000000" points="0,-110.5 0,-138.5 152.1963,-138.5 152.1963,-110.5 0,-110.5"/>
<text text-anchor="start" x="8" y="-126.5" font-family="Helvetica,sans-Serif" font-size="10.00" fill="#000000">libnolimits/NL2/Coaster</text>
<text text-anchor="middle" x="76.0981" y="-116.5" font-family="Helvetica,sans-Serif" font-size="10.00" fill="#000000">/Support/BeamConnection.cpp</text>
</g>
<!-- Node1 -->
<g id="node2" class="node">
<title>Node1</title>
<g id="a_node2"><a xlink:href="_beam_connection_8h.html" target="_top" xlink:title="BeamConnection.h">
<polygon fill="none" stroke="#000000" points="25.5713,-55.5 25.5713,-73.5 126.625,-73.5 126.625,-55.5 25.5713,-55.5"/>
<text text-anchor="middle" x="76.0981" y="-61.5" font-family="Helvetica,sans-Serif" font-size="10.00" fill="#000000">BeamConnection.h</text>
</a>
</g>
</g>
<!-- Node0&#45;&gt;Node1 -->
<g id="edge1" class="edge">
<title>Node0&#45;&gt;Node1</title>
<path fill="none" stroke="#191970" d="M76.0981,-110.2808C76.0981,-102.3776 76.0981,-92.4316 76.0981,-83.8308"/>
<polygon fill="#191970" stroke="#191970" points="79.5982,-83.5842 76.0981,-73.5842 72.5982,-83.5842 79.5982,-83.5842"/>
</g>
<!-- Node2 -->
<g id="node3" class="node">
<title>Node2</title>
<g id="a_node3"><a xlink:href="_chunk_8h.html" target="_top" xlink:title="../../../Stream/Chunk.h">
<polygon fill="none" stroke="#ff0000" points="19.4678,-.5 19.4678,-18.5 132.7285,-18.5 132.7285,-.5 19.4678,-.5"/>
<text text-anchor="middle" x="76.0981" y="-6.5" font-family="Helvetica,sans-Serif" font-size="10.00" fill="#000000">../../../Stream/Chunk.h</text>
</a>
</g>
</g>
<!-- Node1&#45;&gt;Node2 -->
<g id="edge2" class="edge">
<title>Node1&#45;&gt;Node2</title>
<path fill="none" stroke="#191970" d="M76.0981,-55.4179C76.0981,-48.2164 76.0981,-37.8962 76.0981,-28.8632"/>
<polygon fill="#191970" stroke="#191970" points="79.5982,-28.7794 76.0981,-18.7795 72.5982,-28.7795 79.5982,-28.7794"/>
</g>
</g>
</svg>
