<?xml version="1.0" encoding="UTF-8" standalone="no"?>
<!DOCTYPE svg PUBLIC "-//W3C//DTD SVG 1.1//EN"
 "http://www.w3.org/Graphics/SVG/1.1/DTD/svg11.dtd">
<!-- Generated by graphviz version 2.40.1 (20161225.0304)
 -->
<!-- Title: libnolimits/NL1/Track/BeziersChunk.cpp Pages: 1 -->
<svg width="520pt" height="257pt"
 viewBox="0.00 0.00 519.50 257.00" xmlns="http://www.w3.org/2000/svg" xmlns:xlink="http://www.w3.org/1999/xlink">
<g id="graph0" class="graph" transform="scale(1 1) rotate(0) translate(4 253)">
<title>libnolimits/NL1/Track/BeziersChunk.cpp</title>
<!-- Node0 -->
<g id="node1" class="node">
<title>Node0</title>
<polygon fill="#bfbfbf" stroke="#000000" points="78.0598,-220.5 78.0598,-248.5 186.4963,-248.5 186.4963,-220.5 78.0598,-220.5"/>
<text text-anchor="start" x="86.0598" y="-236.5" font-family="Helvetica,sans-Serif" font-size="10.00" fill="#000000">libnolimits/NL1/Track</text>
<text text-anchor="middle" x="132.278" y="-226.5" font-family="Helvetica,sans-Serif" font-size="10.00" fill="#000000">/BeziersChunk.cpp</text>
</g>
<!-- Node1 -->
<g id="node2" class="node">
<title>Node1</title>
<g id="a_node2"><a xlink:href="_beziers_chunk_8h.html" target="_top" xlink:title="BeziersChunk.h">
<polygon fill="none" stroke="#000000" points="45.9826,-165.5 45.9826,-183.5 132.5734,-183.5 132.5734,-165.5 45.9826,-165.5"/>
<text text-anchor="middle" x="89.278" y="-171.5" font-family="Helvetica,sans-Serif" font-size="10.00" fill="#000000">BeziersChunk.h</text>
</a>
</g>
</g>
<!-- Node0&#45;&gt;Node1 -->
<g id="edge1" class="edge">
<title>Node0&#45;&gt;Node1</title>
<path fill="none" stroke="#191970" d="M122.0876,-220.2808C115.9781,-211.756 108.1654,-200.8545 101.6965,-191.8281"/>
<polygon fill="#191970" stroke="#191970" points="104.4585,-189.6735 95.7884,-183.5842 98.7687,-193.7512 104.4585,-189.6735"/>
</g>
<!-- Node18 -->
<g id="node5" class="node">
<title>Node18</title>
<g id="a_node5"><a xlink:href="_n_l1_2_track_2_track_8h.html" target="_top" xlink:title="Track.h">
<polygon fill="none" stroke="#000000" points="253.7912,-165.5 253.7912,-183.5 302.7648,-183.5 302.7648,-165.5 253.7912,-165.5"/>
<text text-anchor="middle" x="278.278" y="-171.5" font-family="Helvetica,sans-Serif" font-size="10.00" fill="#000000">Track.h</text>
</a>
</g>
</g>
<!-- Node0&#45;&gt;Node18 -->
<g id="edge4" class="edge">
<title>Node0&#45;&gt;Node18</title>
<path fill="none" stroke="#191970" d="M166.5085,-220.4327C190.6979,-210.4918 222.8882,-197.263 246.5089,-187.5558"/>
<polygon fill="#191970" stroke="#191970" points="248.1401,-190.6695 256.0591,-183.6311 245.4793,-184.195 248.1401,-190.6695"/>
</g>
<!-- Node2 -->
<g id="node3" class="node">
<title>Node2</title>
<g id="a_node3"><a xlink:href="_chunk_8h.html" target="_top" xlink:title="../../Stream/Chunk.h">
<polygon fill="none" stroke="#ff0000" points="188.8151,-55.5 188.8151,-73.5 293.7409,-73.5 293.7409,-55.5 188.8151,-55.5"/>
<text text-anchor="middle" x="241.278" y="-61.5" font-family="Helvetica,sans-Serif" font-size="10.00" fill="#000000">../../Stream/Chunk.h</text>
</a>
</g>
</g>
<!-- Node1&#45;&gt;Node2 -->
<g id="edge2" class="edge">
<title>Node1&#45;&gt;Node2</title>
<path fill="none" stroke="#191970" d="M59.6333,-165.4186C28.1857,-154.2751 -14.4468,-133.891 5.278,-110 26.8571,-83.8632 116.0877,-72.5756 178.4173,-67.8163"/>
<polygon fill="#191970" stroke="#191970" points="178.8399,-71.295 188.5605,-67.0808 178.3335,-64.3133 178.8399,-71.295"/>
</g>
<!-- Node8 -->
<g id="node4" class="node">
<title>Node8</title>
<g id="a_node4"><a xlink:href="_nolimits_8h.html" target="_top" xlink:title="../Nolimits.h">
<polygon fill="none" stroke="#ff0000" points="346.1623,-.5 346.1623,-18.5 414.3938,-18.5 414.3938,-.5 346.1623,-.5"/>
<text text-anchor="middle" x="380.278" y="-6.5" font-family="Helvetica,sans-Serif" font-size="10.00" fill="#000000">../Nolimits.h</text>
</a>
</g>
</g>
<!-- Node2&#45;&gt;Node8 -->
<g id="edge3" class="edge">
<title>Node2&#45;&gt;Node8</title>
<path fill="none" stroke="#191970" d="M264.2311,-55.4179C287.068,-46.3817 322.3143,-32.4353 347.9725,-22.2828"/>
<polygon fill="#191970" stroke="#191970" points="349.2801,-25.5295 357.2909,-18.5956 346.7046,-19.0205 349.2801,-25.5295"/>
</g>
<!-- Node18&#45;&gt;Node2 -->
<g id="edge6" class="edge">
<title>Node18&#45;&gt;Node2</title>
<path fill="none" stroke="#191970" d="M275.8308,-165.2316C272.4389,-152.6278 265.9666,-129.4264 259.278,-110 256.2057,-101.0767 252.4101,-91.3295 249.0976,-83.1539"/>
<polygon fill="#191970" stroke="#191970" points="252.297,-81.7313 245.2509,-73.819 245.8249,-84.3983 252.297,-81.7313"/>
</g>
<!-- Node18&#45;&gt;Node8 -->
<g id="edge5" class="edge">
<title>Node18&#45;&gt;Node8</title>
<path fill="none" stroke="#191970" d="M303.0417,-167.5202C322.0674,-160.8218 347.3703,-148.751 361.278,-129 382.4644,-98.9123 383.5528,-54.0484 382.128,-28.7176"/>
<polygon fill="#191970" stroke="#191970" points="385.6052,-28.2838 381.3597,-18.5768 378.6252,-28.8127 385.6052,-28.2838"/>
</g>
<!-- Node19 -->
<g id="node6" class="node">
<title>Node19</title>
<g id="a_node6"><a xlink:href="_n_l1_2_info_2_info_8h.html" target="_top" xlink:title="../Info/Info.h">
<polygon fill="none" stroke="#ff0000" points="407.8718,-110.5 407.8718,-128.5 476.6843,-128.5 476.6843,-110.5 407.8718,-110.5"/>
<text text-anchor="middle" x="442.278" y="-116.5" font-family="Helvetica,sans-Serif" font-size="10.00" fill="#000000">../Info/Info.h</text>
</a>
</g>
</g>
<!-- Node18&#45;&gt;Node19 -->
<g id="edge7" class="edge">
<title>Node18&#45;&gt;Node19</title>
<path fill="none" stroke="#191970" d="M302.8305,-166.2659C330.0835,-157.1262 374.3501,-142.2807 405.6901,-131.7703"/>
<polygon fill="#191970" stroke="#191970" points="407.0051,-135.021 415.3732,-128.5229 404.7793,-128.3843 407.0051,-135.021"/>
</g>
<!-- Node14 -->
<g id="node7" class="node">
<title>Node14</title>
<polygon fill="none" stroke="#bfbfbf" points="471.0515,-55.5 471.0515,-73.5 511.5046,-73.5 511.5046,-55.5 471.0515,-55.5"/>
<text text-anchor="middle" x="491.278" y="-61.5" font-family="Helvetica,sans-Serif" font-size="10.00" fill="#000000">string</text>
</g>
<!-- Node18&#45;&gt;Node14 -->
<g id="edge19" class="edge">
<title>Node18&#45;&gt;Node14</title>
<path fill="none" stroke="#191970" d="M303.1261,-172.6269C352.7473,-168.3388 461.4037,-156.0241 485.278,-129 495.9711,-116.8962 496.5553,-98.0746 495.0071,-83.8812"/>
<polygon fill="#191970" stroke="#191970" points="498.4238,-83.0679 493.4608,-73.7074 491.5033,-84.1198 498.4238,-83.0679"/>
</g>
<!-- Node20 -->
<g id="node8" class="node">
<title>Node20</title>
<g id="a_node8"><a xlink:href="_n_l1_2_track_2_train_8h.html" target="_top" xlink:title="Train.h">
<polygon fill="none" stroke="#ff0000" points="305.8996,-110.5 305.8996,-128.5 352.6564,-128.5 352.6564,-110.5 305.8996,-110.5"/>
<text text-anchor="middle" x="329.278" y="-116.5" font-family="Helvetica,sans-Serif" font-size="10.00" fill="#000000">Train.h</text>
</a>
</g>
</g>
<!-- Node18&#45;&gt;Node20 -->
<g id="edge11" class="edge">
<title>Node18&#45;&gt;Node20</title>
<path fill="none" stroke="#191970" d="M286.6996,-165.4179C294.0378,-157.5041 304.8682,-145.8243 313.7693,-136.2251"/>
<polygon fill="#191970" stroke="#191970" points="316.4405,-138.492 320.6734,-128.7795 311.3076,-133.7324 316.4405,-138.492"/>
</g>
<!-- Node23 -->
<g id="node9" class="node">
<title>Node23</title>
<g id="a_node9"><a xlink:href="_n_l1_2_track_2_vertex_8h.html" target="_top" xlink:title="Vertex.h">
<polygon fill="none" stroke="#000000" points="13.9309,-110.5 13.9309,-128.5 66.6252,-128.5 66.6252,-110.5 13.9309,-110.5"/>
<text text-anchor="middle" x="40.278" y="-116.5" font-family="Helvetica,sans-Serif" font-size="10.00" fill="#000000">Vertex.h</text>
</a>
</g>
</g>
<!-- Node18&#45;&gt;Node23 -->
<g id="edge13" class="edge">
<title>Node18&#45;&gt;Node23</title>
<path fill="none" stroke="#191970" d="M253.5082,-169.3202C216.9062,-161.5861 146.0051,-146.2999 76.7558,-129.2947"/>
<polygon fill="#191970" stroke="#191970" points="77.5467,-125.885 66.9991,-126.8844 75.8678,-132.6807 77.5467,-125.885"/>
</g>
<!-- Node24 -->
<g id="node10" class="node">
<title>Node24</title>
<g id="a_node10"><a xlink:href="_n_l1_2_track_2_colors_8h.html" target="_top" xlink:title="Colors.h">
<polygon fill="none" stroke="#000000" points="84.6599,-110.5 84.6599,-128.5 137.8962,-128.5 137.8962,-110.5 84.6599,-110.5"/>
<text text-anchor="middle" x="111.278" y="-116.5" font-family="Helvetica,sans-Serif" font-size="10.00" fill="#000000">Colors.h</text>
</a>
</g>
</g>
<!-- Node18&#45;&gt;Node24 -->
<g id="edge15" class="edge">
<title>Node18&#45;&gt;Node24</title>
<path fill="none" stroke="#191970" d="M253.6366,-166.3846C225.719,-157.1901 179.9412,-142.1136 147.8532,-131.5457"/>
<polygon fill="#191970" stroke="#191970" points="148.5491,-128.09 137.9561,-128.2862 146.3594,-134.7387 148.5491,-128.09"/>
</g>
<!-- Node25 -->
<g id="node11" class="node">
<title>Node25</title>
<g id="a_node11"><a xlink:href="_n_l1_2_track_2_section_2_section_8h.html" target="_top" xlink:title="Section/Section.h">
<polygon fill="none" stroke="#000000" points="156.3645,-110.5 156.3645,-128.5 250.1916,-128.5 250.1916,-110.5 156.3645,-110.5"/>
<text text-anchor="middle" x="203.278" y="-116.5" font-family="Helvetica,sans-Serif" font-size="10.00" fill="#000000">Section/Section.h</text>
</a>
</g>
</g>
<!-- Node18&#45;&gt;Node25 -->
<g id="edge17" class="edge">
<title>Node18&#45;&gt;Node25</title>
<path fill="none" stroke="#191970" d="M265.8933,-165.4179C254.494,-157.0584 237.3643,-144.4966 223.9015,-134.6239"/>
<polygon fill="#191970" stroke="#191970" points="225.815,-131.6869 215.6812,-128.5956 221.6754,-137.3317 225.815,-131.6869"/>
</g>
<!-- Node19&#45;&gt;Node2 -->
<g id="edge9" class="edge">
<title>Node19&#45;&gt;Node2</title>
<path fill="none" stroke="#191970" d="M409.087,-110.4179C374.9435,-101.0751 321.6174,-86.4834 284.2664,-76.263"/>
<polygon fill="#191970" stroke="#191970" points="284.7535,-72.7677 274.1843,-73.5042 282.906,-79.5195 284.7535,-72.7677"/>
</g>
<!-- Node19&#45;&gt;Node8 -->
<g id="edge8" class="edge">
<title>Node19&#45;&gt;Node8</title>
<path fill="none" stroke="#191970" d="M437.2043,-110.4982C426.986,-92.369 403.7618,-51.1647 390.3479,-27.3659"/>
<polygon fill="#191970" stroke="#191970" points="393.3811,-25.6191 385.4219,-18.6261 387.283,-29.0562 393.3811,-25.6191"/>
</g>
<!-- Node19&#45;&gt;Node14 -->
<g id="edge10" class="edge">
<title>Node19&#45;&gt;Node14</title>
<path fill="none" stroke="#191970" d="M450.3694,-110.4179C457.3493,-102.5833 467.6177,-91.0575 476.1204,-81.5137"/>
<polygon fill="#191970" stroke="#191970" points="478.9721,-83.5743 483.0109,-73.7795 473.7455,-78.9178 478.9721,-83.5743"/>
</g>
<!-- Node20&#45;&gt;Node2 -->
<g id="edge12" class="edge">
<title>Node20&#45;&gt;Node2</title>
<path fill="none" stroke="#191970" d="M314.7466,-110.4179C301.1167,-101.8992 280.5045,-89.0166 264.5784,-79.0627"/>
<polygon fill="#191970" stroke="#191970" points="266.166,-75.9277 255.831,-73.5956 262.456,-81.8637 266.166,-75.9277"/>
</g>
<!-- Node23&#45;&gt;Node2 -->
<g id="edge14" class="edge">
<title>Node23&#45;&gt;Node2</title>
<path fill="none" stroke="#191970" d="M66.9693,-112.1964C100.5394,-103.0106 158.5966,-87.1243 198.4165,-76.2283"/>
<polygon fill="#191970" stroke="#191970" points="199.3996,-79.588 208.1213,-73.5727 197.5521,-72.8362 199.3996,-79.588"/>
</g>
<!-- Node24&#45;&gt;Node2 -->
<g id="edge16" class="edge">
<title>Node24&#45;&gt;Node2</title>
<path fill="none" stroke="#191970" d="M132.7449,-110.4179C153.915,-101.4613 186.4874,-87.6806 210.4279,-77.552"/>
<polygon fill="#191970" stroke="#191970" points="211.9334,-80.7155 219.7793,-73.5956 209.2058,-74.2687 211.9334,-80.7155"/>
</g>
<!-- Node25&#45;&gt;Node2 -->
<g id="edge18" class="edge">
<title>Node25&#45;&gt;Node2</title>
<path fill="none" stroke="#191970" d="M209.553,-110.4179C214.8566,-102.7415 222.6085,-91.5217 229.1218,-82.0945"/>
<polygon fill="#191970" stroke="#191970" points="232.062,-83.9963 234.8668,-73.7795 226.3028,-80.0173 232.062,-83.9963"/>
</g>
</g>
</svg>
