<?xml version="1.0" encoding="UTF-8" standalone="no"?>
<!DOCTYPE svg PUBLIC "-//W3C//DTD SVG 1.1//EN"
 "http://www.w3.org/Graphics/SVG/1.1/DTD/svg11.dtd">
<!-- Generated by graphviz version 2.40.1 (20161225.0304)
 -->
<!-- Title: libnolimits/NL2/Coaster/Track/Section/Brake.h Pages: 1 -->
<svg width="193pt" height="267pt"
 viewBox="0.00 0.00 193.08 267.00" xmlns="http://www.w3.org/2000/svg" xmlns:xlink="http://www.w3.org/1999/xlink">
<g id="graph0" class="graph" transform="scale(1 1) rotate(0) translate(4 263)">
<title>libnolimits/NL2/Coaster/Track/Section/Brake.h</title>
<!-- Node0 -->
<g id="node1" class="node">
<title>Node0</title>
<polygon fill="#bfbfbf" stroke="#000000" points="0,-230.5 0,-258.5 118.8174,-258.5 118.8174,-230.5 0,-230.5"/>
<text text-anchor="start" x="8" y="-246.5" font-family="Helvetica,sans-Serif" font-size="10.00" fill="#000000">libnolimits/NL2/Coaster</text>
<text text-anchor="middle" x="59.4087" y="-236.5" font-family="Helvetica,sans-Serif" font-size="10.00" fill="#000000">/Track/Section/Brake.h</text>
</g>
<!-- Node1 -->
<g id="node2" class="node">
<title>Node1</title>
<g id="a_node2"><a xlink:href="_section_8h.html" target="_top" xlink:title="Section.h">
<polygon fill="none" stroke="#000000" points="49.5615,-65.5 49.5615,-83.5 107.2559,-83.5 107.2559,-65.5 49.5615,-65.5"/>
<text text-anchor="middle" x="78.4087" y="-71.5" font-family="Helvetica,sans-Serif" font-size="10.00" fill="#000000">Section.h</text>
</a>
</g>
</g>
<!-- Node0&#45;&gt;Node1 -->
<g id="edge1" class="edge">
<title>Node0&#45;&gt;Node1</title>
<path fill="none" stroke="#191970" d="M60.9959,-230.2983C64.3935,-199.8994 72.3744,-128.4909 76.2377,-93.9244"/>
<polygon fill="#191970" stroke="#191970" points="79.745,-94.0535 77.3775,-83.7266 72.7883,-93.276 79.745,-94.0535"/>
</g>
<!-- Node2 -->
<g id="node3" class="node">
<title>Node2</title>
<g id="a_node3"><a xlink:href="_chunk_8h.html" target="_top" xlink:title="../../../../Stream\l/Chunk.h">
<polygon fill="none" stroke="#ff0000" points="65.623,-.5 65.623,-28.5 147.1943,-28.5 147.1943,-.5 65.623,-.5"/>
<text text-anchor="start" x="73.623" y="-16.5" font-family="Helvetica,sans-Serif" font-size="10.00" fill="#000000">../../../../Stream</text>
<text text-anchor="middle" x="106.4087" y="-6.5" font-family="Helvetica,sans-Serif" font-size="10.00" fill="#000000">/Chunk.h</text>
</a>
</g>
</g>
<!-- Node0&#45;&gt;Node2 -->
<g id="edge8" class="edge">
<title>Node0&#45;&gt;Node2</title>
<path fill="none" stroke="#191970" d="M52.8945,-230.0817C39.5902,-198.3632 12.7887,-120.9111 40.4087,-65 46.6211,-52.4243 57.6334,-42.1171 68.9041,-34.169"/>
<polygon fill="#191970" stroke="#191970" points="71.0419,-36.9531 77.498,-28.5525 67.2124,-31.0935 71.0419,-36.9531"/>
</g>
<!-- Node17 -->
<g id="node4" class="node">
<title>Node17</title>
<g id="a_node4"><a xlink:href="_transport_device_8h.html" target="_top" xlink:title="TransportDevice.h">
<polygon fill="none" stroke="#000000" points="87.7422,-175.5 87.7422,-193.5 185.0752,-193.5 185.0752,-175.5 87.7422,-175.5"/>
<text text-anchor="middle" x="136.4087" y="-181.5" font-family="Helvetica,sans-Serif" font-size="10.00" fill="#000000">TransportDevice.h</text>
</a>
</g>
</g>
<!-- Node0&#45;&gt;Node17 -->
<g id="edge3" class="edge">
<title>Node0&#45;&gt;Node17</title>
<path fill="none" stroke="#191970" d="M77.6566,-230.2808C89.3946,-221.1344 104.6436,-209.252 116.6645,-199.8851"/>
<polygon fill="#191970" stroke="#191970" points="119.0139,-202.4915 124.7506,-193.5842 114.7113,-196.9699 119.0139,-202.4915"/>
</g>
<!-- Node1&#45;&gt;Node2 -->
<g id="edge2" class="edge">
<title>Node1&#45;&gt;Node2</title>
<path fill="none" stroke="#191970" d="M82.6613,-65.3873C86.0576,-58.1095 90.9733,-47.5759 95.4522,-37.9782"/>
<polygon fill="#191970" stroke="#191970" points="98.6558,-39.3896 99.7131,-28.8477 92.3126,-36.4294 98.6558,-39.3896"/>
</g>
<!-- Node17&#45;&gt;Node2 -->
<g id="edge7" class="edge">
<title>Node17&#45;&gt;Node2</title>
<path fill="none" stroke="#191970" d="M144.2647,-175.161C153.6486,-162.8569 167.4838,-140.3856 162.4087,-120 154.7285,-89.1502 136.1627,-57.4129 122.5041,-36.9155"/>
<polygon fill="#191970" stroke="#191970" points="125.3474,-34.8729 116.814,-28.5935 119.569,-38.8239 125.3474,-34.8729"/>
</g>
<!-- Node18 -->
<g id="node5" class="node">
<title>Node18</title>
<g id="a_node5"><a xlink:href="_transport_8h.html" target="_top" xlink:title="Transport.h">
<polygon fill="none" stroke="#000000" points="87.0254,-120.5 87.0254,-138.5 153.792,-138.5 153.792,-120.5 87.0254,-120.5"/>
<text text-anchor="middle" x="120.4087" y="-126.5" font-family="Helvetica,sans-Serif" font-size="10.00" fill="#000000">Transport.h</text>
</a>
</g>
</g>
<!-- Node17&#45;&gt;Node18 -->
<g id="edge4" class="edge">
<title>Node17&#45;&gt;Node18</title>
<path fill="none" stroke="#191970" d="M133.7666,-175.4179C131.6486,-168.1372 128.6033,-157.669 125.9551,-148.5659"/>
<polygon fill="#191970" stroke="#191970" points="129.2622,-147.4037 123.1082,-138.7795 122.5409,-149.3591 129.2622,-147.4037"/>
</g>
<!-- Node18&#45;&gt;Node1 -->
<g id="edge5" class="edge">
<title>Node18&#45;&gt;Node1</title>
<path fill="none" stroke="#191970" d="M113.4732,-120.4179C107.5509,-112.6624 98.8665,-101.29 91.6223,-91.8035"/>
<polygon fill="#191970" stroke="#191970" points="94.3457,-89.6029 85.4948,-83.7795 88.7823,-93.8514 94.3457,-89.6029"/>
</g>
<!-- Node18&#45;&gt;Node2 -->
<g id="edge6" class="edge">
<title>Node18&#45;&gt;Node2</title>
<path fill="none" stroke="#191970" d="M120.2235,-120.2774C119.8834,-107.7256 118.9433,-84.5829 116.4087,-65 115.2794,-56.2748 113.54,-46.7929 111.8267,-38.4263"/>
<polygon fill="#191970" stroke="#191970" points="115.232,-37.6131 109.7183,-28.566 108.3867,-39.0768 115.232,-37.6131"/>
</g>
</g>
</svg>
