<?xml version="1.0" encoding="UTF-8" standalone="no"?>
<!DOCTYPE svg PUBLIC "-//W3C//DTD SVG 1.1//EN"
 "http://www.w3.org/Graphics/SVG/1.1/DTD/svg11.dtd">
<!-- Generated by graphviz version 2.40.1 (20161225.0304)
 -->
<!-- Title: libnolimits/NL2/Coaster/Track/Section/BrakeDevice.h Pages: 1 -->
<svg width="295pt" height="322pt"
 viewBox="0.00 0.00 295.34 322.00" xmlns="http://www.w3.org/2000/svg" xmlns:xlink="http://www.w3.org/1999/xlink">
<g id="graph0" class="graph" transform="scale(1 1) rotate(0) translate(4 318)">
<title>libnolimits/NL2/Coaster/Track/Section/BrakeDevice.h</title>
<!-- Node0 -->
<g id="node1" class="node">
<title>Node0</title>
<polygon fill="#bfbfbf" stroke="#000000" points="0,-285.5 0,-313.5 147.3525,-313.5 147.3525,-285.5 0,-285.5"/>
<text text-anchor="start" x="8" y="-301.5" font-family="Helvetica,sans-Serif" font-size="10.00" fill="#000000">libnolimits/NL2/Coaster</text>
<text text-anchor="middle" x="73.6763" y="-291.5" font-family="Helvetica,sans-Serif" font-size="10.00" fill="#000000">/Track/Section/BrakeDevice.h</text>
</g>
<!-- Node1 -->
<g id="node2" class="node">
<title>Node1</title>
<g id="a_node2"><a xlink:href="_chunk_8h.html" target="_top" xlink:title="../../../../Stream\l/Chunk.h">
<polygon fill="none" stroke="#000000" points="72.8906,-110.5 72.8906,-138.5 154.4619,-138.5 154.4619,-110.5 72.8906,-110.5"/>
<text text-anchor="start" x="80.8906" y="-126.5" font-family="Helvetica,sans-Serif" font-size="10.00" fill="#000000">../../../../Stream</text>
<text text-anchor="middle" x="113.6763" y="-116.5" font-family="Helvetica,sans-Serif" font-size="10.00" fill="#000000">/Chunk.h</text>
</a>
</g>
</g>
<!-- Node0&#45;&gt;Node1 -->
<g id="edge1" class="edge">
<title>Node0&#45;&gt;Node1</title>
<path fill="none" stroke="#191970" d="M76.302,-285.2328C80.6544,-262.013 89.8621,-214.6532 99.6763,-175 101.8279,-166.3064 104.3949,-156.8318 106.7396,-148.4622"/>
<polygon fill="#191970" stroke="#191970" points="110.1771,-149.1695 109.5427,-138.5937 103.4435,-147.2568 110.1771,-149.1695"/>
</g>
<!-- Node16 -->
<g id="node6" class="node">
<title>Node16</title>
<g id="a_node6"><a xlink:href="_brake_8h.html" target="_top" xlink:title="Brake.h">
<polygon fill="none" stroke="#000000" points="96.4448,-230.5 96.4448,-248.5 146.9077,-248.5 146.9077,-230.5 96.4448,-230.5"/>
<text text-anchor="middle" x="121.6763" y="-236.5" font-family="Helvetica,sans-Serif" font-size="10.00" fill="#000000">Brake.h</text>
</a>
</g>
</g>
<!-- Node0&#45;&gt;Node16 -->
<g id="edge7" class="edge">
<title>Node0&#45;&gt;Node16</title>
<path fill="none" stroke="#191970" d="M85.0516,-285.2808C91.9425,-276.6672 100.7746,-265.6271 108.039,-256.5466"/>
<polygon fill="#191970" stroke="#191970" points="110.895,-258.5793 114.4089,-248.5842 105.4289,-254.2065 110.895,-258.5793"/>
</g>
<!-- Node2 -->
<g id="node3" class="node">
<title>Node2</title>
<g id="a_node3"><a xlink:href="_file_8h.html" target="_top" xlink:title="../File/File.h">
<polygon fill="none" stroke="#ff0000" points="79.8364,-55.5 79.8364,-73.5 147.5161,-73.5 147.5161,-55.5 79.8364,-55.5"/>
<text text-anchor="middle" x="113.6763" y="-61.5" font-family="Helvetica,sans-Serif" font-size="10.00" fill="#000000">../File/File.h</text>
</a>
</g>
</g>
<!-- Node1&#45;&gt;Node2 -->
<g id="edge2" class="edge">
<title>Node1&#45;&gt;Node2</title>
<path fill="none" stroke="#191970" d="M113.6763,-110.2808C113.6763,-102.3776 113.6763,-92.4316 113.6763,-83.8308"/>
<polygon fill="#191970" stroke="#191970" points="117.1764,-83.5842 113.6763,-73.5842 110.1764,-83.5842 117.1764,-83.5842"/>
</g>
<!-- Node6 -->
<g id="node4" class="node">
<title>Node6</title>
<polygon fill="none" stroke="#bfbfbf" points="51.5557,-.5 51.5557,-18.5 99.7969,-18.5 99.7969,-.5 51.5557,-.5"/>
<text text-anchor="middle" x="75.6763" y="-6.5" font-family="Helvetica,sans-Serif" font-size="10.00" fill="#000000">stdint.h</text>
</g>
<!-- Node1&#45;&gt;Node6 -->
<g id="edge5" class="edge">
<title>Node1&#45;&gt;Node6</title>
<path fill="none" stroke="#191970" d="M96.8792,-110.4733C87.1948,-101.245 75.9265,-88.2644 70.6763,-74 65.2813,-59.3425 67.223,-41.5766 70.1225,-28.4045"/>
<polygon fill="#191970" stroke="#191970" points="73.5457,-29.1458 72.6434,-18.5895 66.7657,-27.4044 73.5457,-29.1458"/>
</g>
<!-- Node7 -->
<g id="node5" class="node">
<title>Node7</title>
<g id="a_node5"><a xlink:href="_nolimits_8h.html" target="_top" xlink:title="../Nolimits.h">
<polygon fill="none" stroke="#ff0000" points="129.5605,-.5 129.5605,-18.5 197.792,-18.5 197.792,-.5 129.5605,-.5"/>
<text text-anchor="middle" x="163.6763" y="-6.5" font-family="Helvetica,sans-Serif" font-size="10.00" fill="#000000">../Nolimits.h</text>
</a>
</g>
</g>
<!-- Node1&#45;&gt;Node7 -->
<g id="edge6" class="edge">
<title>Node1&#45;&gt;Node7</title>
<path fill="none" stroke="#191970" d="M129.9363,-110.259C139.4186,-100.95 150.6631,-87.9599 156.6763,-74 162.8109,-59.7582 164.3718,-42.1804 164.5042,-28.9735"/>
<polygon fill="#191970" stroke="#191970" points="167.9989,-28.6263 164.3317,-18.6864 160.9999,-28.7436 167.9989,-28.6263"/>
</g>
<!-- Node2&#45;&gt;Node6 -->
<g id="edge3" class="edge">
<title>Node2&#45;&gt;Node6</title>
<path fill="none" stroke="#191970" d="M107.4013,-55.4179C102.0977,-47.7415 94.3458,-36.5217 87.8325,-27.0945"/>
<polygon fill="#191970" stroke="#191970" points="90.6515,-25.0173 82.0875,-18.7795 84.8923,-28.9963 90.6515,-25.0173"/>
</g>
<!-- Node2&#45;&gt;Node7 -->
<g id="edge4" class="edge">
<title>Node2&#45;&gt;Node7</title>
<path fill="none" stroke="#191970" d="M121.9328,-55.4179C129.1271,-47.5041 139.7451,-35.8243 148.4716,-26.2251"/>
<polygon fill="#191970" stroke="#191970" points="151.1034,-28.5332 155.2404,-18.7795 145.9238,-23.8245 151.1034,-28.5332"/>
</g>
<!-- Node16&#45;&gt;Node1 -->
<g id="edge12" class="edge">
<title>Node16&#45;&gt;Node1</title>
<path fill="none" stroke="#191970" d="M117.1515,-230.3658C112.966,-221.3702 107.0456,-207.1112 104.6763,-194 101.9618,-178.9788 104.0695,-161.9883 106.9249,-148.5666"/>
<polygon fill="#191970" stroke="#191970" points="110.3688,-149.214 109.2974,-138.6735 103.5618,-147.5816 110.3688,-149.214"/>
</g>
<!-- Node17 -->
<g id="node7" class="node">
<title>Node17</title>
<g id="a_node7"><a xlink:href="_section_8h.html" target="_top" xlink:title="Section.h">
<polygon fill="none" stroke="#000000" points="113.8291,-175.5 113.8291,-193.5 171.5234,-193.5 171.5234,-175.5 113.8291,-175.5"/>
<text text-anchor="middle" x="142.6763" y="-181.5" font-family="Helvetica,sans-Serif" font-size="10.00" fill="#000000">Section.h</text>
</a>
</g>
</g>
<!-- Node16&#45;&gt;Node17 -->
<g id="edge8" class="edge">
<title>Node16&#45;&gt;Node17</title>
<path fill="none" stroke="#191970" d="M125.144,-230.4179C127.9541,-223.0581 132.0079,-212.441 135.5097,-203.2695"/>
<polygon fill="#191970" stroke="#191970" points="138.8359,-204.3701 139.1332,-193.7795 132.2964,-201.8732 138.8359,-204.3701"/>
</g>
<!-- Node18 -->
<g id="node8" class="node">
<title>Node18</title>
<g id="a_node8"><a xlink:href="_transport_device_8h.html" target="_top" xlink:title="TransportDevice.h">
<polygon fill="none" stroke="#ff0000" points="190.0098,-175.5 190.0098,-193.5 287.3428,-193.5 287.3428,-175.5 190.0098,-175.5"/>
<text text-anchor="middle" x="238.6763" y="-181.5" font-family="Helvetica,sans-Serif" font-size="10.00" fill="#000000">TransportDevice.h</text>
</a>
</g>
</g>
<!-- Node16&#45;&gt;Node18 -->
<g id="edge10" class="edge">
<title>Node16&#45;&gt;Node18</title>
<path fill="none" stroke="#191970" d="M140.9964,-230.4179C159.7955,-221.5807 188.5848,-208.0473 210.0452,-197.9591"/>
<polygon fill="#191970" stroke="#191970" points="211.7665,-201.0174 219.3274,-193.5956 208.7884,-194.6824 211.7665,-201.0174"/>
</g>
<!-- Node17&#45;&gt;Node1 -->
<g id="edge9" class="edge">
<title>Node17&#45;&gt;Node1</title>
<path fill="none" stroke="#191970" d="M138.2718,-175.3873C134.7542,-168.1095 129.663,-157.5759 125.0241,-147.9782"/>
<polygon fill="#191970" stroke="#191970" points="128.1139,-146.328 120.611,-138.8477 121.8115,-149.3743 128.1139,-146.328"/>
</g>
<!-- Node18&#45;&gt;Node1 -->
<g id="edge11" class="edge">
<title>Node18&#45;&gt;Node1</title>
<path fill="none" stroke="#191970" d="M219.6915,-175.3873C201.8829,-166.8392 174.7168,-153.7995 152.3433,-143.0602"/>
<polygon fill="#191970" stroke="#191970" points="153.6192,-139.7903 143.0894,-138.6183 150.59,-146.101 153.6192,-139.7903"/>
</g>
</g>
</svg>
