<?xml version="1.0" encoding="UTF-8" standalone="no"?>
<!DOCTYPE svg PUBLIC "-//W3C//DTD SVG 1.1//EN"
 "http://www.w3.org/Graphics/SVG/1.1/DTD/svg11.dtd">
<!-- Generated by graphviz version 2.40.1 (20161225.0304)
 -->
<!-- Title: libnolimits/NL2/Coaster/Track/Section/BrakeDevice.cpp Pages: 1 -->
<svg width="171pt" height="212pt"
 viewBox="0.00 0.00 170.74 212.00" xmlns="http://www.w3.org/2000/svg" xmlns:xlink="http://www.w3.org/1999/xlink">
<g id="graph0" class="graph" transform="scale(1 1) rotate(0) translate(4 208)">
<title>libnolimits/NL2/Coaster/Track/Section/BrakeDevice.cpp</title>
<!-- Node0 -->
<g id="node1" class="node">
<title>Node0</title>
<polygon fill="#bfbfbf" stroke="#000000" points="4.8286,-175.5 4.8286,-203.5 162.7427,-203.5 162.7427,-175.5 4.8286,-175.5"/>
<text text-anchor="start" x="12.8286" y="-191.5" font-family="Helvetica,sans-Serif" font-size="10.00" fill="#000000">libnolimits/NL2/Coaster</text>
<text text-anchor="middle" x="83.7856" y="-181.5" font-family="Helvetica,sans-Serif" font-size="10.00" fill="#000000">/Track/Section/BrakeDevice.cpp</text>
</g>
<!-- Node1 -->
<g id="node2" class="node">
<title>Node1</title>
<g id="a_node2"><a xlink:href="_brake_device_8h.html" target="_top" xlink:title="BrakeDevice.h">
<polygon fill="none" stroke="#000000" points=".271,-120.5 .271,-138.5 81.3003,-138.5 81.3003,-120.5 .271,-120.5"/>
<text text-anchor="middle" x="40.7856" y="-126.5" font-family="Helvetica,sans-Serif" font-size="10.00" fill="#000000">BrakeDevice.h</text>
</a>
</g>
</g>
<!-- Node0&#45;&gt;Node1 -->
<g id="edge1" class="edge">
<title>Node0&#45;&gt;Node1</title>
<path fill="none" stroke="#191970" d="M73.5952,-175.2808C67.4858,-166.756 59.673,-155.8545 53.2041,-146.8281"/>
<polygon fill="#191970" stroke="#191970" points="55.9661,-144.6735 47.296,-138.5842 50.2763,-148.7512 55.9661,-144.6735"/>
</g>
<!-- Node11 -->
<g id="node5" class="node">
<title>Node11</title>
<polygon fill="none" stroke="#bfbfbf" points="99.6133,-120.5 99.6133,-138.5 153.958,-138.5 153.958,-120.5 99.6133,-120.5"/>
<text text-anchor="middle" x="126.7856" y="-126.5" font-family="Helvetica,sans-Serif" font-size="10.00" fill="#000000">iostream</text>
</g>
<!-- Node0&#45;&gt;Node11 -->
<g id="edge5" class="edge">
<title>Node0&#45;&gt;Node11</title>
<path fill="none" stroke="#191970" d="M93.976,-175.2808C100.0855,-166.756 107.8983,-155.8545 114.3672,-146.8281"/>
<polygon fill="#191970" stroke="#191970" points="117.2949,-148.7512 120.2753,-138.5842 111.6052,-144.6735 117.2949,-148.7512"/>
</g>
<!-- Node2 -->
<g id="node3" class="node">
<title>Node2</title>
<g id="a_node3"><a xlink:href="_chunk_8h.html" target="_top" xlink:title="../../../../Stream\l/Chunk.h">
<polygon fill="none" stroke="#ff0000" points="0,-.5 0,-28.5 81.5713,-28.5 81.5713,-.5 0,-.5"/>
<text text-anchor="start" x="8" y="-16.5" font-family="Helvetica,sans-Serif" font-size="10.00" fill="#000000">../../../../Stream</text>
<text text-anchor="middle" x="40.7856" y="-6.5" font-family="Helvetica,sans-Serif" font-size="10.00" fill="#000000">/Chunk.h</text>
</a>
</g>
</g>
<!-- Node1&#45;&gt;Node2 -->
<g id="edge2" class="edge">
<title>Node1&#45;&gt;Node2</title>
<path fill="none" stroke="#191970" d="M38.9822,-120.4826C37.2513,-111.3362 34.7607,-96.7504 33.7856,-84 32.637,-68.9798 34.2512,-52.1725 36.2175,-38.8488"/>
<polygon fill="#191970" stroke="#191970" points="39.735,-39.0266 37.899,-28.592 32.8272,-37.894 39.735,-39.0266"/>
</g>
<!-- Node18 -->
<g id="node4" class="node">
<title>Node18</title>
<g id="a_node4"><a xlink:href="_brake_8h.html" target="_top" xlink:title="Brake.h">
<polygon fill="none" stroke="#ff0000" points="42.5542,-65.5 42.5542,-83.5 93.0171,-83.5 93.0171,-65.5 42.5542,-65.5"/>
<text text-anchor="middle" x="67.7856" y="-71.5" font-family="Helvetica,sans-Serif" font-size="10.00" fill="#000000">Brake.h</text>
</a>
</g>
</g>
<!-- Node1&#45;&gt;Node18 -->
<g id="edge3" class="edge">
<title>Node1&#45;&gt;Node18</title>
<path fill="none" stroke="#191970" d="M45.2441,-120.4179C48.896,-112.9789 54.1814,-102.2123 58.7165,-92.9742"/>
<polygon fill="#191970" stroke="#191970" points="61.9653,-94.2985 63.2303,-83.7795 55.6816,-91.2138 61.9653,-94.2985"/>
</g>
<!-- Node18&#45;&gt;Node2 -->
<g id="edge4" class="edge">
<title>Node18&#45;&gt;Node2</title>
<path fill="none" stroke="#191970" d="M63.6849,-65.3873C60.4099,-58.1095 55.6698,-47.5759 51.3508,-37.9782"/>
<polygon fill="#191970" stroke="#191970" points="54.5375,-36.5306 47.2421,-28.8477 48.1541,-39.4032 54.5375,-36.5306"/>
</g>
</g>
</svg>
