<?xml version="1.0" encoding="UTF-8" standalone="no"?>
<!DOCTYPE svg PUBLIC "-//W3C//DTD SVG 1.1//EN"
 "http://www.w3.org/Graphics/SVG/1.1/DTD/svg11.dtd">
<!-- Generated by graphviz version 2.40.1 (20161225.0304)
 -->
<!-- Title: libnolimits/NL2/Coaster/Track/Section/BrakeDevice.h Pages: 1 -->
<svg width="295pt" height="322pt"
 viewBox="0.00 0.00 295.34 322.00" xmlns="http://www.w3.org/2000/svg" xmlns:xlink="http://www.w3.org/1999/xlink">
<g id="graph0" class="graph" transform="scale(1 1) rotate(0) translate(4 318)">
<title>libnolimits/NL2/Coaster/Track/Section/BrakeDevice.h</title>
<!-- Node0 -->
<g id="node1" class="node">
<title>Node0</title>
<polygon fill="#bfbfbf" stroke="#000000" points="0,-285.5 0,-313.5 147.3525,-313.5 147.3525,-285.5 0,-285.5"/>
<text text-anchor="start" x="8" y="-301.5" font-family="Helvetica,sans-Serif" font-size="10.00" fill="#000000">libnolimits/NL2/Coaster</text>
<text text-anchor="middle" x="73.6763" y="-291.5" font-family="Helvetica,sans-Serif" font-size="10.00" fill="#000000">/Track/Section/BrakeDevice.h</text>
</g>
<!-- Node1 -->
<g id="node2" class="node">
<title>Node1</title>
<g id="a_node2"><a xlink:href="_chunk_8h.html" target="_top" xlink:title="../../../../Stream\l/Chunk.h">
<polygon fill="none" stroke="#000000" points="72.8906,-110.5 72.8906,-138.5 154.4619,-138.5 154.4619,-110.5 72.8906,-110.5"/>
<text text-anchor="start" x="80.8906" y="-126.5" font-family="Helvetica,sans-Serif" font-size="10.00" fill="#000000">../../../../Stream</text>
<text text-anchor="middle" x="113.6763" y="-116.5" font-family="Helvetica,sans-Serif" font-size="10.00" fill="#000000">/Chunk.h</text>
</a>
</g>
</g>
<!-- Node0&#45;&gt;Node1 -->
<g id="edge1" class="edge">
<title>Node0&#45;&gt;Node1</title>
<path fill="none" stroke="#191970" d="M76.302,-285.2328C80.6544,-262.013 89.8621,-214.6532 99.6763,-175 101.8279,-166.3064 104.3949,-156.8318 106.7396,-148.4622"/>
<polygon fill="#191970" stroke="#191970" points="110.1771,-149.1695 109.5427,-138.5937 103.4435,-147.2568 110.1771,-149.1695"/>
</g>
<!-- Node17 -->
<g id="node7" class="node">
<title>Node17</title>
<g id="a_node7"><a xlink:href="_brake_8h.html" target="_top" xlink:title="Brake.h">
<polygon fill="none" stroke="#000000" points="96.4448,-230.5 96.4448,-248.5 146.9077,-248.5 146.9077,-230.5 96.4448,-230.5"/>
<text text-anchor="middle" x="121.6763" y="-236.5" font-family="Helvetica,sans-Serif" font-size="10.00" fill="#000000">Brake.h</text>
</a>
</g>
</g>
<!-- Node0&#45;&gt;Node17 -->
<g id="edge8" class="edge">
<title>Node0&#45;&gt;Node17</title>
<path fill="none" stroke="#191970" d="M85.0516,-285.2808C91.9425,-276.6672 100.7746,-265.6271 108.039,-256.5466"/>
<polygon fill="#191970" stroke="#191970" points="110.895,-258.5793 114.4089,-248.5842 105.4289,-254.2065 110.895,-258.5793"/>
</g>
<!-- Node2 -->
<g id="node3" class="node">
<title>Node2</title>
<g id="a_node3"><a xlink:href="_file_8h.html" target="_top" xlink:title="../File/File.h">
<polygon fill="none" stroke="#ff0000" points="48.8364,-55.5 48.8364,-73.5 116.5161,-73.5 116.5161,-55.5 48.8364,-55.5"/>
<text text-anchor="middle" x="82.6763" y="-61.5" font-family="Helvetica,sans-Serif" font-size="10.00" fill="#000000">../File/File.h</text>
</a>
</g>
</g>
<!-- Node1&#45;&gt;Node2 -->
<g id="edge2" class="edge">
<title>Node1&#45;&gt;Node2</title>
<path fill="none" stroke="#191970" d="M106.3297,-110.2808C102.0628,-102.0224 96.6436,-91.5335 92.0691,-82.6796"/>
<polygon fill="#191970" stroke="#191970" points="95.0695,-80.8619 87.3698,-73.5842 88.8505,-84.075 95.0695,-80.8619"/>
</g>
<!-- Node6 -->
<g id="node4" class="node">
<title>Node6</title>
<polygon fill="none" stroke="#bfbfbf" points="20.5557,-.5 20.5557,-18.5 68.7969,-18.5 68.7969,-.5 20.5557,-.5"/>
<text text-anchor="middle" x="44.6763" y="-6.5" font-family="Helvetica,sans-Serif" font-size="10.00" fill="#000000">stdint.h</text>
</g>
<!-- Node1&#45;&gt;Node6 -->
<g id="edge6" class="edge">
<title>Node1&#45;&gt;Node6</title>
<path fill="none" stroke="#191970" d="M79.8223,-110.4444C64.6407,-102.2256 48.2487,-90.2284 39.6763,-74 32.3082,-60.0515 34.5301,-41.9933 38.0368,-28.5336"/>
<polygon fill="#191970" stroke="#191970" points="41.4081,-29.477 40.966,-18.8914 34.7103,-27.4423 41.4081,-29.477"/>
</g>
<!-- Node7 -->
<g id="node5" class="node">
<title>Node7</title>
<g id="a_node5"><a xlink:href="_nolimits_8h.html" target="_top" xlink:title="../Nolimits.h">
<polygon fill="none" stroke="#ff0000" points="98.5605,-.5 98.5605,-18.5 166.792,-18.5 166.792,-.5 98.5605,-.5"/>
<text text-anchor="middle" x="132.6763" y="-6.5" font-family="Helvetica,sans-Serif" font-size="10.00" fill="#000000">../Nolimits.h</text>
</a>
</g>
</g>
<!-- Node1&#45;&gt;Node7 -->
<g id="edge5" class="edge">
<title>Node1&#45;&gt;Node7</title>
<path fill="none" stroke="#191970" d="M117.5149,-110.4485C120.1452,-100.3703 123.5331,-86.4327 125.6763,-74 128.2809,-58.8902 130.0948,-41.6122 131.2224,-28.7441"/>
<polygon fill="#191970" stroke="#191970" points="134.714,-28.9879 132.0393,-18.7363 127.7373,-28.4184 134.714,-28.9879"/>
</g>
<!-- Node16 -->
<g id="node6" class="node">
<title>Node16</title>
<polygon fill="none" stroke="#bfbfbf" points="172.6147,-55.5 172.6147,-73.5 224.7378,-73.5 224.7378,-55.5 172.6147,-55.5"/>
<text text-anchor="middle" x="198.6763" y="-61.5" font-family="Helvetica,sans-Serif" font-size="10.00" fill="#000000">ostream</text>
</g>
<!-- Node1&#45;&gt;Node16 -->
<g id="edge7" class="edge">
<title>Node1&#45;&gt;Node16</title>
<path fill="none" stroke="#191970" d="M133.8201,-110.2808C146.9034,-101.0456 163.9381,-89.021 177.2662,-79.613"/>
<polygon fill="#191970" stroke="#191970" points="179.6557,-82.2105 185.807,-73.5842 175.6189,-76.4917 179.6557,-82.2105"/>
</g>
<!-- Node2&#45;&gt;Node6 -->
<g id="edge3" class="edge">
<title>Node2&#45;&gt;Node6</title>
<path fill="none" stroke="#191970" d="M76.4013,-55.4179C71.0977,-47.7415 63.3458,-36.5217 56.8325,-27.0945"/>
<polygon fill="#191970" stroke="#191970" points="59.6515,-25.0173 51.0875,-18.7795 53.8923,-28.9963 59.6515,-25.0173"/>
</g>
<!-- Node2&#45;&gt;Node7 -->
<g id="edge4" class="edge">
<title>Node2&#45;&gt;Node7</title>
<path fill="none" stroke="#191970" d="M90.9328,-55.4179C98.1271,-47.5041 108.7451,-35.8243 117.4716,-26.2251"/>
<polygon fill="#191970" stroke="#191970" points="120.1034,-28.5332 124.2404,-18.7795 114.9238,-23.8245 120.1034,-28.5332"/>
</g>
<!-- Node17&#45;&gt;Node1 -->
<g id="edge13" class="edge">
<title>Node17&#45;&gt;Node1</title>
<path fill="none" stroke="#191970" d="M117.1515,-230.3658C112.966,-221.3702 107.0456,-207.1112 104.6763,-194 101.9618,-178.9788 104.0695,-161.9883 106.9249,-148.5666"/>
<polygon fill="#191970" stroke="#191970" points="110.3688,-149.214 109.2974,-138.6735 103.5618,-147.5816 110.3688,-149.214"/>
</g>
<!-- Node18 -->
<g id="node8" class="node">
<title>Node18</title>
<g id="a_node8"><a xlink:href="_section_8h.html" target="_top" xlink:title="Section.h">
<polygon fill="none" stroke="#000000" points="113.8291,-175.5 113.8291,-193.5 171.5234,-193.5 171.5234,-175.5 113.8291,-175.5"/>
<text text-anchor="middle" x="142.6763" y="-181.5" font-family="Helvetica,sans-Serif" font-size="10.00" fill="#000000">Section.h</text>
</a>
</g>
</g>
<!-- Node17&#45;&gt;Node18 -->
<g id="edge9" class="edge">
<title>Node17&#45;&gt;Node18</title>
<path fill="none" stroke="#191970" d="M125.144,-230.4179C127.9541,-223.0581 132.0079,-212.441 135.5097,-203.2695"/>
<polygon fill="#191970" stroke="#191970" points="138.8359,-204.3701 139.1332,-193.7795 132.2964,-201.8732 138.8359,-204.3701"/>
</g>
<!-- Node19 -->
<g id="node9" class="node">
<title>Node19</title>
<g id="a_node9"><a xlink:href="_transport_device_8h.html" target="_top" xlink:title="TransportDevice.h">
<polygon fill="none" stroke="#ff0000" points="190.0098,-175.5 190.0098,-193.5 287.3428,-193.5 287.3428,-175.5 190.0098,-175.5"/>
<text text-anchor="middle" x="238.6763" y="-181.5" font-family="Helvetica,sans-Serif" font-size="10.00" fill="#000000">TransportDevice.h</text>
</a>
</g>
</g>
<!-- Node17&#45;&gt;Node19 -->
<g id="edge11" class="edge">
<title>Node17&#45;&gt;Node19</title>
<path fill="none" stroke="#191970" d="M140.9964,-230.4179C159.7955,-221.5807 188.5848,-208.0473 210.0452,-197.9591"/>
<polygon fill="#191970" stroke="#191970" points="211.7665,-201.0174 219.3274,-193.5956 208.7884,-194.6824 211.7665,-201.0174"/>
</g>
<!-- Node18&#45;&gt;Node1 -->
<g id="edge10" class="edge">
<title>Node18&#45;&gt;Node1</title>
<path fill="none" stroke="#191970" d="M138.2718,-175.3873C134.7542,-168.1095 129.663,-157.5759 125.0241,-147.9782"/>
<polygon fill="#191970" stroke="#191970" points="128.1139,-146.328 120.611,-138.8477 121.8115,-149.3743 128.1139,-146.328"/>
</g>
<!-- Node19&#45;&gt;Node1 -->
<g id="edge12" class="edge">
<title>Node19&#45;&gt;Node1</title>
<path fill="none" stroke="#191970" d="M219.6915,-175.3873C201.8829,-166.8392 174.7168,-153.7995 152.3433,-143.0602"/>
<polygon fill="#191970" stroke="#191970" points="153.6192,-139.7903 143.0894,-138.6183 150.59,-146.101 153.6192,-139.7903"/>
</g>
</g>
</svg>
