<?xml version="1.0" encoding="UTF-8" standalone="no"?>
<!DOCTYPE svg PUBLIC "-//W3C//DTD SVG 1.1//EN"
 "http://www.w3.org/Graphics/SVG/1.1/DTD/svg11.dtd">
<!-- Generated by graphviz version 2.40.1 (20161225.0304)
 -->
<!-- Title: libnolimits/NL2/Coaster/Track/Section/BrakeDevice.h Pages: 1 -->
<svg width="386pt" height="167pt"
 viewBox="0.00 0.00 386.14 167.00" xmlns="http://www.w3.org/2000/svg" xmlns:xlink="http://www.w3.org/1999/xlink">
<g id="graph0" class="graph" transform="scale(1 1) rotate(0) translate(4 163)">
<title>libnolimits/NL2/Coaster/Track/Section/BrakeDevice.h</title>
<!-- Node20 -->
<g id="node1" class="node">
<title>Node20</title>
<polygon fill="#bfbfbf" stroke="#000000" points="84.2808,-130.5 84.2808,-158.5 231.6333,-158.5 231.6333,-130.5 84.2808,-130.5"/>
<text text-anchor="start" x="92.2808" y="-146.5" font-family="Helvetica,sans-Serif" font-size="10.00" fill="#000000">libnolimits/NL2/Coaster</text>
<text text-anchor="middle" x="157.957" y="-136.5" font-family="Helvetica,sans-Serif" font-size="10.00" fill="#000000">/Track/Section/BrakeDevice.h</text>
</g>
<!-- Node21 -->
<g id="node2" class="node">
<title>Node21</title>
<g id="a_node2"><a xlink:href="_brake_device_8cpp.html" target="_top" xlink:title="libnolimits/NL2/Coaster\l/Track/Section/BrakeDevice.cpp">
<polygon fill="none" stroke="#000000" points="0,-65.5 0,-93.5 157.9141,-93.5 157.9141,-65.5 0,-65.5"/>
<text text-anchor="start" x="8" y="-81.5" font-family="Helvetica,sans-Serif" font-size="10.00" fill="#000000">libnolimits/NL2/Coaster</text>
<text text-anchor="middle" x="78.957" y="-71.5" font-family="Helvetica,sans-Serif" font-size="10.00" fill="#000000">/Track/Section/BrakeDevice.cpp</text>
</a>
</g>
</g>
<!-- Node20&#45;&gt;Node21 -->
<g id="edge1" class="edge">
<title>Node20&#45;&gt;Node21</title>
<path fill="none" stroke="#191970" d="M132.8997,-123.8832C120.8944,-114.0054 106.8249,-102.4293 96.0654,-93.5765"/>
<polygon fill="#191970" stroke="#191970" points="130.8693,-126.745 140.8152,-130.396 135.3169,-121.3395 130.8693,-126.745"/>
</g>
<!-- Node22 -->
<g id="node3" class="node">
<title>Node22</title>
<g id="a_node3"><a xlink:href="_station_8h.html" target="_top" xlink:title="libnolimits/NL2/Coaster\l/Track/Section/Station.h">
<polygon fill="none" stroke="#000000" points="176.0591,-65.5 176.0591,-93.5 297.855,-93.5 297.855,-65.5 176.0591,-65.5"/>
<text text-anchor="start" x="184.0591" y="-81.5" font-family="Helvetica,sans-Serif" font-size="10.00" fill="#000000">libnolimits/NL2/Coaster</text>
<text text-anchor="middle" x="236.957" y="-71.5" font-family="Helvetica,sans-Serif" font-size="10.00" fill="#000000">/Track/Section/Station.h</text>
</a>
</g>
</g>
<!-- Node20&#45;&gt;Node22 -->
<g id="edge2" class="edge">
<title>Node20&#45;&gt;Node22</title>
<path fill="none" stroke="#191970" d="M183.0144,-123.8832C195.0197,-114.0054 209.0891,-102.4293 219.8487,-93.5765"/>
<polygon fill="#191970" stroke="#191970" points="180.5972,-121.3395 175.0989,-130.396 185.0448,-126.745 180.5972,-121.3395"/>
</g>
<!-- Node23 -->
<g id="node4" class="node">
<title>Node23</title>
<g id="a_node4"><a xlink:href="_section_8cpp.html" target="_top" xlink:title="libnolimits/NL2/Coaster\l/Track/Section/Section.cpp">
<polygon fill="none" stroke="#000000" points="93.6675,-.5 93.6675,-28.5 228.2466,-28.5 228.2466,-.5 93.6675,-.5"/>
<text text-anchor="start" x="101.6675" y="-16.5" font-family="Helvetica,sans-Serif" font-size="10.00" fill="#000000">libnolimits/NL2/Coaster</text>
<text text-anchor="middle" x="160.957" y="-6.5" font-family="Helvetica,sans-Serif" font-size="10.00" fill="#000000">/Track/Section/Section.cpp</text>
</a>
</g>
</g>
<!-- Node22&#45;&gt;Node23 -->
<g id="edge3" class="edge">
<title>Node22&#45;&gt;Node23</title>
<path fill="none" stroke="#191970" d="M212.8512,-58.8832C201.3018,-49.0054 187.7667,-37.4293 177.4157,-28.5765"/>
<polygon fill="#191970" stroke="#191970" points="210.5916,-61.5561 220.4662,-65.396 215.1414,-56.2364 210.5916,-61.5561"/>
</g>
<!-- Node24 -->
<g id="node5" class="node">
<title>Node24</title>
<g id="a_node5"><a xlink:href="_station_8cpp.html" target="_top" xlink:title="libnolimits/NL2/Coaster\l/Track/Section/Station.cpp">
<polygon fill="none" stroke="#000000" points="245.7783,-.5 245.7783,-28.5 378.1357,-28.5 378.1357,-.5 245.7783,-.5"/>
<text text-anchor="start" x="253.7783" y="-16.5" font-family="Helvetica,sans-Serif" font-size="10.00" fill="#000000">libnolimits/NL2/Coaster</text>
<text text-anchor="middle" x="311.957" y="-6.5" font-family="Helvetica,sans-Serif" font-size="10.00" fill="#000000">/Track/Section/Station.cpp</text>
</a>
</g>
</g>
<!-- Node22&#45;&gt;Node24 -->
<g id="edge4" class="edge">
<title>Node22&#45;&gt;Node24</title>
<path fill="none" stroke="#191970" d="M261.075,-58.5978C272.3997,-48.7831 285.5984,-37.3442 295.7149,-28.5765"/>
<polygon fill="#191970" stroke="#191970" points="258.4956,-56.2017 253.2309,-65.396 263.0801,-61.4915 258.4956,-56.2017"/>
</g>
</g>
</svg>
