<?xml version="1.0" encoding="UTF-8" standalone="no"?>
<!DOCTYPE svg PUBLIC "-//W3C//DTD SVG 1.1//EN"
 "http://www.w3.org/Graphics/SVG/1.1/DTD/svg11.dtd">
<!-- Generated by graphviz version 2.40.1 (20161225.0304)
 -->
<!-- Title: libnolimits/NL2/Terrain/BumpMap.h Pages: 1 -->
<svg width="295pt" height="202pt"
 viewBox="0.00 0.00 295.34 202.00" xmlns="http://www.w3.org/2000/svg" xmlns:xlink="http://www.w3.org/1999/xlink">
<g id="graph0" class="graph" transform="scale(1 1) rotate(0) translate(4 198)">
<title>libnolimits/NL2/Terrain/BumpMap.h</title>
<!-- Node0 -->
<g id="node1" class="node">
<title>Node0</title>
<polygon fill="#bfbfbf" stroke="#000000" points="38.042,-165.5 38.042,-193.5 152.4111,-193.5 152.4111,-165.5 38.042,-165.5"/>
<text text-anchor="start" x="46.042" y="-181.5" font-family="Helvetica,sans-Serif" font-size="10.00" fill="#000000">libnolimits/NL2/Terrain</text>
<text text-anchor="middle" x="95.2266" y="-171.5" font-family="Helvetica,sans-Serif" font-size="10.00" fill="#000000">/BumpMap.h</text>
</g>
<!-- Node1 -->
<g id="node2" class="node">
<title>Node1</title>
<polygon fill="none" stroke="#bfbfbf" points="0,-110.5 0,-128.5 40.4531,-128.5 40.4531,-110.5 0,-110.5"/>
<text text-anchor="middle" x="20.2266" y="-116.5" font-family="Helvetica,sans-Serif" font-size="10.00" fill="#000000">string</text>
</g>
<!-- Node0&#45;&gt;Node1 -->
<g id="edge1" class="edge">
<title>Node0&#45;&gt;Node1</title>
<path fill="none" stroke="#191970" d="M77.4526,-165.2808C66.0195,-156.1344 51.1666,-144.252 39.4579,-134.8851"/>
<polygon fill="#191970" stroke="#191970" points="41.577,-132.0981 31.5818,-128.5842 37.2041,-137.5642 41.577,-132.0981"/>
</g>
<!-- Node2 -->
<g id="node3" class="node">
<title>Node2</title>
<g id="a_node3"><a xlink:href="_terrain_map_8h.html" target="_top" xlink:title="TerrainMap.h">
<polygon fill="none" stroke="#000000" points="58.0469,-110.5 58.0469,-128.5 132.4063,-128.5 132.4063,-110.5 58.0469,-110.5"/>
<text text-anchor="middle" x="95.2266" y="-116.5" font-family="Helvetica,sans-Serif" font-size="10.00" fill="#000000">TerrainMap.h</text>
</a>
</g>
</g>
<!-- Node0&#45;&gt;Node2 -->
<g id="edge2" class="edge">
<title>Node0&#45;&gt;Node2</title>
<path fill="none" stroke="#191970" d="M95.2266,-165.2808C95.2266,-157.3776 95.2266,-147.4316 95.2266,-138.8308"/>
<polygon fill="#191970" stroke="#191970" points="98.7267,-138.5842 95.2266,-128.5842 91.7267,-138.5842 98.7267,-138.5842"/>
</g>
<!-- Node3 -->
<g id="node4" class="node">
<title>Node3</title>
<g id="a_node4"><a xlink:href="_chunk_8h.html" target="_top" xlink:title="../../Stream/Chunk.h">
<polygon fill="none" stroke="#000000" points="150.7637,-110.5 150.7637,-128.5 255.6895,-128.5 255.6895,-110.5 150.7637,-110.5"/>
<text text-anchor="middle" x="203.2266" y="-116.5" font-family="Helvetica,sans-Serif" font-size="10.00" fill="#000000">../../Stream/Chunk.h</text>
</a>
</g>
</g>
<!-- Node0&#45;&gt;Node3 -->
<g id="edge3" class="edge">
<title>Node0&#45;&gt;Node3</title>
<path fill="none" stroke="#191970" d="M120.5478,-165.4327C137.8022,-155.8468 160.5599,-143.2037 177.8303,-133.609"/>
<polygon fill="#191970" stroke="#191970" points="179.7488,-136.5471 186.7907,-128.6311 176.3493,-130.428 179.7488,-136.5471"/>
</g>
<!-- Node4 -->
<g id="node5" class="node">
<title>Node4</title>
<g id="a_node5"><a xlink:href="_file_8h.html" target="_top" xlink:title="../File/File.h">
<polygon fill="none" stroke="#ff0000" points="169.3867,-55.5 169.3867,-73.5 237.0664,-73.5 237.0664,-55.5 169.3867,-55.5"/>
<text text-anchor="middle" x="203.2266" y="-61.5" font-family="Helvetica,sans-Serif" font-size="10.00" fill="#000000">../File/File.h</text>
</a>
</g>
</g>
<!-- Node3&#45;&gt;Node4 -->
<g id="edge4" class="edge">
<title>Node3&#45;&gt;Node4</title>
<path fill="none" stroke="#191970" d="M203.2266,-110.4179C203.2266,-103.2164 203.2266,-92.8962 203.2266,-83.8632"/>
<polygon fill="#191970" stroke="#191970" points="206.7267,-83.7794 203.2266,-73.7795 199.7267,-83.7795 206.7267,-83.7794"/>
</g>
<!-- Node8 -->
<g id="node6" class="node">
<title>Node8</title>
<polygon fill="none" stroke="#bfbfbf" points="141.106,-.5 141.106,-18.5 189.3472,-18.5 189.3472,-.5 141.106,-.5"/>
<text text-anchor="middle" x="165.2266" y="-6.5" font-family="Helvetica,sans-Serif" font-size="10.00" fill="#000000">stdint.h</text>
</g>
<!-- Node3&#45;&gt;Node8 -->
<g id="edge7" class="edge">
<title>Node3&#45;&gt;Node8</title>
<path fill="none" stroke="#191970" d="M190.3142,-110.3491C179.9794,-102.1662 166.2522,-89.1487 160.2266,-74 154.4538,-59.4871 156.4282,-41.7087 159.4363,-28.495"/>
<polygon fill="#191970" stroke="#191970" points="162.8692,-29.2048 162.059,-18.641 156.1047,-27.4044 162.8692,-29.2048"/>
</g>
<!-- Node9 -->
<g id="node7" class="node">
<title>Node9</title>
<g id="a_node7"><a xlink:href="_nolimits_8h.html" target="_top" xlink:title="../Nolimits.h">
<polygon fill="none" stroke="#ff0000" points="219.1108,-.5 219.1108,-18.5 287.3423,-18.5 287.3423,-.5 219.1108,-.5"/>
<text text-anchor="middle" x="253.2266" y="-6.5" font-family="Helvetica,sans-Serif" font-size="10.00" fill="#000000">../Nolimits.h</text>
</a>
</g>
</g>
<!-- Node3&#45;&gt;Node9 -->
<g id="edge8" class="edge">
<title>Node3&#45;&gt;Node9</title>
<path fill="none" stroke="#191970" d="M215.3212,-110.4994C225.4397,-102.2267 239.3002,-88.9984 246.2266,-74 252.728,-59.9218 254.2612,-42.3317 254.2895,-29.0784"/>
<polygon fill="#191970" stroke="#191970" points="257.7794,-28.6484 254.0141,-18.7453 250.7819,-28.835 257.7794,-28.6484"/>
</g>
<!-- Node4&#45;&gt;Node8 -->
<g id="edge5" class="edge">
<title>Node4&#45;&gt;Node8</title>
<path fill="none" stroke="#191970" d="M196.9516,-55.4179C191.648,-47.7415 183.8961,-36.5217 177.3828,-27.0945"/>
<polygon fill="#191970" stroke="#191970" points="180.2017,-25.0173 171.6378,-18.7795 174.4426,-28.9963 180.2017,-25.0173"/>
</g>
<!-- Node4&#45;&gt;Node9 -->
<g id="edge6" class="edge">
<title>Node4&#45;&gt;Node9</title>
<path fill="none" stroke="#191970" d="M211.483,-55.4179C218.6774,-47.5041 229.2954,-35.8243 238.0219,-26.2251"/>
<polygon fill="#191970" stroke="#191970" points="240.6537,-28.5332 244.7907,-18.7795 235.4741,-23.8245 240.6537,-28.5332"/>
</g>
</g>
</svg>
