<?xml version="1.0" encoding="UTF-8" standalone="no"?>
<!DOCTYPE svg PUBLIC "-//W3C//DTD SVG 1.1//EN"
 "http://www.w3.org/Graphics/SVG/1.1/DTD/svg11.dtd">
<!-- Generated by graphviz version 2.40.1 (20161225.0304)
 -->
<!-- Title: libnolimits/NL2/Terrain/BumpMap.cpp Pages: 1 -->
<svg width="264pt" height="147pt"
 viewBox="0.00 0.00 263.69 147.00" xmlns="http://www.w3.org/2000/svg" xmlns:xlink="http://www.w3.org/1999/xlink">
<g id="graph0" class="graph" transform="scale(1 1) rotate(0) translate(4 143)">
<title>libnolimits/NL2/Terrain/BumpMap.cpp</title>
<!-- Node0 -->
<g id="node1" class="node">
<title>Node0</title>
<polygon fill="#bfbfbf" stroke="#000000" points="38.042,-110.5 38.042,-138.5 152.4111,-138.5 152.4111,-110.5 38.042,-110.5"/>
<text text-anchor="start" x="46.042" y="-126.5" font-family="Helvetica,sans-Serif" font-size="10.00" fill="#000000">libnolimits/NL2/Terrain</text>
<text text-anchor="middle" x="95.2266" y="-116.5" font-family="Helvetica,sans-Serif" font-size="10.00" fill="#000000">/BumpMap.cpp</text>
</g>
<!-- Node1 -->
<g id="node2" class="node">
<title>Node1</title>
<g id="a_node2"><a xlink:href="_bump_map_8h.html" target="_top" xlink:title="BumpMap.h">
<polygon fill="none" stroke="#000000" points="60.2686,-55.5 60.2686,-73.5 130.1846,-73.5 130.1846,-55.5 60.2686,-55.5"/>
<text text-anchor="middle" x="95.2266" y="-61.5" font-family="Helvetica,sans-Serif" font-size="10.00" fill="#000000">BumpMap.h</text>
</a>
</g>
</g>
<!-- Node0&#45;&gt;Node1 -->
<g id="edge1" class="edge">
<title>Node0&#45;&gt;Node1</title>
<path fill="none" stroke="#191970" d="M95.2266,-110.2808C95.2266,-102.3776 95.2266,-92.4316 95.2266,-83.8308"/>
<polygon fill="#191970" stroke="#191970" points="98.7267,-83.5842 95.2266,-73.5842 91.7267,-83.5842 98.7267,-83.5842"/>
</g>
<!-- Node2 -->
<g id="node3" class="node">
<title>Node2</title>
<polygon fill="none" stroke="#bfbfbf" points="0,-.5 0,-18.5 40.4531,-18.5 40.4531,-.5 0,-.5"/>
<text text-anchor="middle" x="20.2266" y="-6.5" font-family="Helvetica,sans-Serif" font-size="10.00" fill="#000000">string</text>
</g>
<!-- Node1&#45;&gt;Node2 -->
<g id="edge2" class="edge">
<title>Node1&#45;&gt;Node2</title>
<path fill="none" stroke="#191970" d="M82.8418,-55.4179C71.4425,-47.0584 54.3129,-34.4966 40.8501,-24.6239"/>
<polygon fill="#191970" stroke="#191970" points="42.7635,-21.6869 32.6297,-18.5956 38.624,-27.3317 42.7635,-21.6869"/>
</g>
<!-- Node3 -->
<g id="node4" class="node">
<title>Node3</title>
<g id="a_node4"><a xlink:href="_terrain_map_8h.html" target="_top" xlink:title="TerrainMap.h">
<polygon fill="none" stroke="#000000" points="58.0469,-.5 58.0469,-18.5 132.4063,-18.5 132.4063,-.5 58.0469,-.5"/>
<text text-anchor="middle" x="95.2266" y="-6.5" font-family="Helvetica,sans-Serif" font-size="10.00" fill="#000000">TerrainMap.h</text>
</a>
</g>
</g>
<!-- Node1&#45;&gt;Node3 -->
<g id="edge3" class="edge">
<title>Node1&#45;&gt;Node3</title>
<path fill="none" stroke="#191970" d="M95.2266,-55.4179C95.2266,-48.2164 95.2266,-37.8962 95.2266,-28.8632"/>
<polygon fill="#191970" stroke="#191970" points="98.7267,-28.7794 95.2266,-18.7795 91.7267,-28.7795 98.7267,-28.7794"/>
</g>
<!-- Node4 -->
<g id="node5" class="node">
<title>Node4</title>
<g id="a_node5"><a xlink:href="_chunk_8h.html" target="_top" xlink:title="../../Stream/Chunk.h">
<polygon fill="none" stroke="#ff0000" points="150.7637,-.5 150.7637,-18.5 255.6895,-18.5 255.6895,-.5 150.7637,-.5"/>
<text text-anchor="middle" x="203.2266" y="-6.5" font-family="Helvetica,sans-Serif" font-size="10.00" fill="#000000">../../Stream/Chunk.h</text>
</a>
</g>
</g>
<!-- Node1&#45;&gt;Node4 -->
<g id="edge4" class="edge">
<title>Node1&#45;&gt;Node4</title>
<path fill="none" stroke="#191970" d="M113.0606,-55.4179C130.2572,-46.6603 156.5102,-33.2907 176.2608,-23.2326"/>
<polygon fill="#191970" stroke="#191970" points="178.0434,-26.2526 185.3661,-18.5956 174.8667,-20.0148 178.0434,-26.2526"/>
</g>
</g>
</svg>
