<?xml version="1.0" encoding="UTF-8" standalone="no"?>
<!DOCTYPE svg PUBLIC "-//W3C//DTD SVG 1.1//EN"
 "http://www.w3.org/Graphics/SVG/1.1/DTD/svg11.dtd">
<!-- Generated by graphviz version 2.40.1 (20161225.0304)
 -->
<!-- Title: libnolimits/NL2/Terrain/BumpMap.h Pages: 1 -->
<svg width="322pt" height="202pt"
 viewBox="0.00 0.00 322.29 202.00" xmlns="http://www.w3.org/2000/svg" xmlns:xlink="http://www.w3.org/1999/xlink">
<g id="graph0" class="graph" transform="scale(1 1) rotate(0) translate(4 198)">
<title>libnolimits/NL2/Terrain/BumpMap.h</title>
<!-- Node0 -->
<g id="node1" class="node">
<title>Node0</title>
<polygon fill="#bfbfbf" stroke="#000000" points="38.042,-165.5 38.042,-193.5 152.4111,-193.5 152.4111,-165.5 38.042,-165.5"/>
<text text-anchor="start" x="46.042" y="-181.5" font-family="Helvetica,sans-Serif" font-size="10.00" fill="#000000">libnolimits/NL2/Terrain</text>
<text text-anchor="middle" x="95.2266" y="-171.5" font-family="Helvetica,sans-Serif" font-size="10.00" fill="#000000">/BumpMap.h</text>
</g>
<!-- Node1 -->
<g id="node2" class="node">
<title>Node1</title>
<polygon fill="none" stroke="#bfbfbf" points="0,-110.5 0,-128.5 40.4531,-128.5 40.4531,-110.5 0,-110.5"/>
<text text-anchor="middle" x="20.2266" y="-116.5" font-family="Helvetica,sans-Serif" font-size="10.00" fill="#000000">string</text>
</g>
<!-- Node0&#45;&gt;Node1 -->
<g id="edge1" class="edge">
<title>Node0&#45;&gt;Node1</title>
<path fill="none" stroke="#191970" d="M77.4526,-165.2808C66.0195,-156.1344 51.1666,-144.252 39.4579,-134.8851"/>
<polygon fill="#191970" stroke="#191970" points="41.577,-132.0981 31.5818,-128.5842 37.2041,-137.5642 41.577,-132.0981"/>
</g>
<!-- Node2 -->
<g id="node3" class="node">
<title>Node2</title>
<g id="a_node3"><a xlink:href="_terrain_map_8h.html" target="_top" xlink:title="TerrainMap.h">
<polygon fill="none" stroke="#000000" points="58.0469,-110.5 58.0469,-128.5 132.4063,-128.5 132.4063,-110.5 58.0469,-110.5"/>
<text text-anchor="middle" x="95.2266" y="-116.5" font-family="Helvetica,sans-Serif" font-size="10.00" fill="#000000">TerrainMap.h</text>
</a>
</g>
</g>
<!-- Node0&#45;&gt;Node2 -->
<g id="edge2" class="edge">
<title>Node0&#45;&gt;Node2</title>
<path fill="none" stroke="#191970" d="M95.2266,-165.2808C95.2266,-157.3776 95.2266,-147.4316 95.2266,-138.8308"/>
<polygon fill="#191970" stroke="#191970" points="98.7267,-138.5842 95.2266,-128.5842 91.7267,-138.5842 98.7267,-138.5842"/>
</g>
<!-- Node3 -->
<g id="node4" class="node">
<title>Node3</title>
<g id="a_node4"><a xlink:href="_chunk_8h.html" target="_top" xlink:title="../../Stream/Chunk.h">
<polygon fill="none" stroke="#000000" points="150.7637,-110.5 150.7637,-128.5 255.6895,-128.5 255.6895,-110.5 150.7637,-110.5"/>
<text text-anchor="middle" x="203.2266" y="-116.5" font-family="Helvetica,sans-Serif" font-size="10.00" fill="#000000">../../Stream/Chunk.h</text>
</a>
</g>
</g>
<!-- Node0&#45;&gt;Node3 -->
<g id="edge3" class="edge">
<title>Node0&#45;&gt;Node3</title>
<path fill="none" stroke="#191970" d="M120.5478,-165.4327C137.8022,-155.8468 160.5599,-143.2037 177.8303,-133.609"/>
<polygon fill="#191970" stroke="#191970" points="179.7488,-136.5471 186.7907,-128.6311 176.3493,-130.428 179.7488,-136.5471"/>
</g>
<!-- Node4 -->
<g id="node5" class="node">
<title>Node4</title>
<g id="a_node5"><a xlink:href="_file_8h.html" target="_top" xlink:title="../File/File.h">
<polygon fill="none" stroke="#ff0000" points="138.3867,-55.5 138.3867,-73.5 206.0664,-73.5 206.0664,-55.5 138.3867,-55.5"/>
<text text-anchor="middle" x="172.2266" y="-61.5" font-family="Helvetica,sans-Serif" font-size="10.00" fill="#000000">../File/File.h</text>
</a>
</g>
</g>
<!-- Node3&#45;&gt;Node4 -->
<g id="edge4" class="edge">
<title>Node3&#45;&gt;Node4</title>
<path fill="none" stroke="#191970" d="M198.1075,-110.4179C193.8701,-102.8998 187.7169,-91.9829 182.4734,-82.6799"/>
<polygon fill="#191970" stroke="#191970" points="185.416,-80.7724 177.4568,-73.7795 179.3179,-84.2096 185.416,-80.7724"/>
</g>
<!-- Node8 -->
<g id="node6" class="node">
<title>Node8</title>
<polygon fill="none" stroke="#bfbfbf" points="110.106,-.5 110.106,-18.5 158.3472,-18.5 158.3472,-.5 110.106,-.5"/>
<text text-anchor="middle" x="134.2266" y="-6.5" font-family="Helvetica,sans-Serif" font-size="10.00" fill="#000000">stdint.h</text>
</g>
<!-- Node3&#45;&gt;Node8 -->
<g id="edge8" class="edge">
<title>Node3&#45;&gt;Node8</title>
<path fill="none" stroke="#191970" d="M175.5451,-110.3671C158.9007,-103.2793 139.088,-91.6398 129.2266,-74 121.4424,-60.0759 123.8347,-41.7482 127.5076,-28.1894"/>
<polygon fill="#191970" stroke="#191970" points="130.8895,-29.1026 130.5578,-18.513 124.2133,-26.9981 130.8895,-29.1026"/>
</g>
<!-- Node9 -->
<g id="node7" class="node">
<title>Node9</title>
<g id="a_node7"><a xlink:href="_nolimits_8h.html" target="_top" xlink:title="../Nolimits.h">
<polygon fill="none" stroke="#ff0000" points="188.1108,-.5 188.1108,-18.5 256.3423,-18.5 256.3423,-.5 188.1108,-.5"/>
<text text-anchor="middle" x="222.2266" y="-6.5" font-family="Helvetica,sans-Serif" font-size="10.00" fill="#000000">../Nolimits.h</text>
</a>
</g>
</g>
<!-- Node3&#45;&gt;Node9 -->
<g id="edge7" class="edge">
<title>Node3&#45;&gt;Node9</title>
<path fill="none" stroke="#191970" d="M206.1232,-110.1815C208.8573,-101.0493 212.8778,-86.6922 215.2266,-74 218.0166,-58.9233 219.8187,-41.6432 220.8947,-28.7659"/>
<polygon fill="#191970" stroke="#191970" points="224.3879,-28.9864 221.6598,-18.7488 217.4082,-28.4532 224.3879,-28.9864"/>
</g>
<!-- Node17 -->
<g id="node8" class="node">
<title>Node17</title>
<polygon fill="none" stroke="#bfbfbf" points="262.165,-55.5 262.165,-73.5 314.2881,-73.5 314.2881,-55.5 262.165,-55.5"/>
<text text-anchor="middle" x="288.2266" y="-61.5" font-family="Helvetica,sans-Serif" font-size="10.00" fill="#000000">ostream</text>
</g>
<!-- Node3&#45;&gt;Node17 -->
<g id="edge9" class="edge">
<title>Node3&#45;&gt;Node17</title>
<path fill="none" stroke="#191970" d="M217.2626,-110.4179C230.4279,-101.8992 250.3373,-89.0166 265.7205,-79.0627"/>
<polygon fill="#191970" stroke="#191970" points="267.6754,-81.9667 274.1697,-73.5956 263.8726,-76.0897 267.6754,-81.9667"/>
</g>
<!-- Node4&#45;&gt;Node8 -->
<g id="edge5" class="edge">
<title>Node4&#45;&gt;Node8</title>
<path fill="none" stroke="#191970" d="M165.9516,-55.4179C160.648,-47.7415 152.8961,-36.5217 146.3828,-27.0945"/>
<polygon fill="#191970" stroke="#191970" points="149.2017,-25.0173 140.6378,-18.7795 143.4426,-28.9963 149.2017,-25.0173"/>
</g>
<!-- Node4&#45;&gt;Node9 -->
<g id="edge6" class="edge">
<title>Node4&#45;&gt;Node9</title>
<path fill="none" stroke="#191970" d="M180.483,-55.4179C187.6774,-47.5041 198.2954,-35.8243 207.0219,-26.2251"/>
<polygon fill="#191970" stroke="#191970" points="209.6537,-28.5332 213.7907,-18.7795 204.4741,-23.8245 209.6537,-28.5332"/>
</g>
</g>
</svg>
