<?xml version="1.0" encoding="UTF-8" standalone="no"?>
<!DOCTYPE svg PUBLIC "-//W3C//DTD SVG 1.1//EN"
 "http://www.w3.org/Graphics/SVG/1.1/DTD/svg11.dtd">
<!-- Generated by graphviz version 2.40.1 (20161225.0304)
 -->
<!-- Title: libnolimits/NL2/Coaster/Car.h Pages: 1 -->
<svg width="228pt" height="257pt"
 viewBox="0.00 0.00 227.74 257.00" xmlns="http://www.w3.org/2000/svg" xmlns:xlink="http://www.w3.org/1999/xlink">
<g id="graph0" class="graph" transform="scale(1 1) rotate(0) translate(4 253)">
<title>libnolimits/NL2/Coaster/Car.h</title>
<!-- Node0 -->
<g id="node1" class="node">
<title>Node0</title>
<polygon fill="#bfbfbf" stroke="#000000" points="79.7119,-220.5 79.7119,-248.5 198.5293,-248.5 198.5293,-220.5 79.7119,-220.5"/>
<text text-anchor="start" x="87.7119" y="-236.5" font-family="Helvetica,sans-Serif" font-size="10.00" fill="#000000">libnolimits/NL2/Coaster</text>
<text text-anchor="middle" x="139.1206" y="-226.5" font-family="Helvetica,sans-Serif" font-size="10.00" fill="#000000">/Car.h</text>
</g>
<!-- Node1 -->
<g id="node2" class="node">
<title>Node1</title>
<g id="a_node2"><a xlink:href="_chunk_8h.html" target="_top" xlink:title="../../Stream/Chunk.h">
<polygon fill="none" stroke="#000000" points="40.6577,-110.5 40.6577,-128.5 145.5835,-128.5 145.5835,-110.5 40.6577,-110.5"/>
<text text-anchor="middle" x="93.1206" y="-116.5" font-family="Helvetica,sans-Serif" font-size="10.00" fill="#000000">../../Stream/Chunk.h</text>
</a>
</g>
</g>
<!-- Node0&#45;&gt;Node1 -->
<g id="edge1" class="edge">
<title>Node0&#45;&gt;Node1</title>
<path fill="none" stroke="#191970" d="M116.7477,-220.3456C104.9507,-211.4994 91.6101,-198.954 85.1206,-184 78.8115,-169.4616 81.8334,-151.4608 85.8466,-138.1731"/>
<polygon fill="#191970" stroke="#191970" points="89.1678,-139.278 89.1183,-128.6832 82.55,-136.9964 89.1678,-139.278"/>
</g>
<!-- Node17 -->
<g id="node7" class="node">
<title>Node17</title>
<g id="a_node7"><a xlink:href="_n_l2_2_coaster_2_individual_color_8h.html" target="_top" xlink:title="IndividualColor.h">
<polygon fill="none" stroke="#000000" points="94.1504,-165.5 94.1504,-183.5 184.0908,-183.5 184.0908,-165.5 94.1504,-165.5"/>
<text text-anchor="middle" x="139.1206" y="-171.5" font-family="Helvetica,sans-Serif" font-size="10.00" fill="#000000">IndividualColor.h</text>
</a>
</g>
</g>
<!-- Node0&#45;&gt;Node17 -->
<g id="edge8" class="edge">
<title>Node0&#45;&gt;Node17</title>
<path fill="none" stroke="#191970" d="M139.1206,-220.2808C139.1206,-212.3776 139.1206,-202.4316 139.1206,-193.8308"/>
<polygon fill="#191970" stroke="#191970" points="142.6207,-193.5842 139.1206,-183.5842 135.6207,-193.5842 142.6207,-193.5842"/>
</g>
<!-- Node18 -->
<g id="node8" class="node">
<title>Node18</title>
<polygon fill="none" stroke="#bfbfbf" points="176.5049,-110.5 176.5049,-128.5 219.7363,-128.5 219.7363,-110.5 176.5049,-110.5"/>
<text text-anchor="middle" x="198.1206" y="-116.5" font-family="Helvetica,sans-Serif" font-size="10.00" fill="#000000">vector</text>
</g>
<!-- Node0&#45;&gt;Node18 -->
<g id="edge11" class="edge">
<title>Node0&#45;&gt;Node18</title>
<path fill="none" stroke="#191970" d="M160.7817,-220.3557C172.502,-211.4326 186.002,-198.8076 193.1206,-184 199.8878,-169.9233 200.7784,-152.1073 200.1799,-138.7681"/>
<polygon fill="#191970" stroke="#191970" points="203.67,-138.503 199.4234,-128.7965 196.69,-139.0327 203.67,-138.503"/>
</g>
<!-- Node2 -->
<g id="node3" class="node">
<title>Node2</title>
<g id="a_node3"><a xlink:href="_file_8h.html" target="_top" xlink:title="../File/File.h">
<polygon fill="none" stroke="#ff0000" points="28.2808,-55.5 28.2808,-73.5 95.9604,-73.5 95.9604,-55.5 28.2808,-55.5"/>
<text text-anchor="middle" x="62.1206" y="-61.5" font-family="Helvetica,sans-Serif" font-size="10.00" fill="#000000">../File/File.h</text>
</a>
</g>
</g>
<!-- Node1&#45;&gt;Node2 -->
<g id="edge2" class="edge">
<title>Node1&#45;&gt;Node2</title>
<path fill="none" stroke="#191970" d="M88.0016,-110.4179C83.7641,-102.8998 77.611,-91.9829 72.3674,-82.6799"/>
<polygon fill="#191970" stroke="#191970" points="75.3101,-80.7724 67.3508,-73.7795 69.212,-84.2096 75.3101,-80.7724"/>
</g>
<!-- Node6 -->
<g id="node4" class="node">
<title>Node6</title>
<polygon fill="none" stroke="#bfbfbf" points="0,-.5 0,-18.5 48.2412,-18.5 48.2412,-.5 0,-.5"/>
<text text-anchor="middle" x="24.1206" y="-6.5" font-family="Helvetica,sans-Serif" font-size="10.00" fill="#000000">stdint.h</text>
</g>
<!-- Node1&#45;&gt;Node6 -->
<g id="edge6" class="edge">
<title>Node1&#45;&gt;Node6</title>
<path fill="none" stroke="#191970" d="M65.4392,-110.3671C48.7948,-103.2793 28.982,-91.6398 19.1206,-74 11.3364,-60.0759 13.7288,-41.7482 17.4017,-28.1894"/>
<polygon fill="#191970" stroke="#191970" points="20.7835,-29.1026 20.4519,-18.513 14.1073,-26.9981 20.7835,-29.1026"/>
</g>
<!-- Node7 -->
<g id="node5" class="node">
<title>Node7</title>
<g id="a_node5"><a xlink:href="_nolimits_8h.html" target="_top" xlink:title="../Nolimits.h">
<polygon fill="none" stroke="#ff0000" points="78.0049,-.5 78.0049,-18.5 146.2363,-18.5 146.2363,-.5 78.0049,-.5"/>
<text text-anchor="middle" x="112.1206" y="-6.5" font-family="Helvetica,sans-Serif" font-size="10.00" fill="#000000">../Nolimits.h</text>
</a>
</g>
</g>
<!-- Node1&#45;&gt;Node7 -->
<g id="edge5" class="edge">
<title>Node1&#45;&gt;Node7</title>
<path fill="none" stroke="#191970" d="M96.0173,-110.1815C98.7513,-101.0493 102.7719,-86.6922 105.1206,-74 107.9106,-58.9233 109.7127,-41.6432 110.7887,-28.7659"/>
<polygon fill="#191970" stroke="#191970" points="114.282,-28.9864 111.5539,-18.7488 107.3023,-28.4532 114.282,-28.9864"/>
</g>
<!-- Node16 -->
<g id="node6" class="node">
<title>Node16</title>
<polygon fill="none" stroke="#bfbfbf" points="152.0591,-55.5 152.0591,-73.5 204.1821,-73.5 204.1821,-55.5 152.0591,-55.5"/>
<text text-anchor="middle" x="178.1206" y="-61.5" font-family="Helvetica,sans-Serif" font-size="10.00" fill="#000000">ostream</text>
</g>
<!-- Node1&#45;&gt;Node16 -->
<g id="edge7" class="edge">
<title>Node1&#45;&gt;Node16</title>
<path fill="none" stroke="#191970" d="M107.1566,-110.4179C120.3219,-101.8992 140.2314,-89.0166 155.6146,-79.0627"/>
<polygon fill="#191970" stroke="#191970" points="157.5694,-81.9667 164.0637,-73.5956 153.7666,-76.0897 157.5694,-81.9667"/>
</g>
<!-- Node2&#45;&gt;Node6 -->
<g id="edge3" class="edge">
<title>Node2&#45;&gt;Node6</title>
<path fill="none" stroke="#191970" d="M55.8457,-55.4179C50.542,-47.7415 42.7902,-36.5217 36.2768,-27.0945"/>
<polygon fill="#191970" stroke="#191970" points="39.0958,-25.0173 30.5319,-18.7795 33.3367,-28.9963 39.0958,-25.0173"/>
</g>
<!-- Node2&#45;&gt;Node7 -->
<g id="edge4" class="edge">
<title>Node2&#45;&gt;Node7</title>
<path fill="none" stroke="#191970" d="M70.3771,-55.4179C77.5714,-47.5041 88.1894,-35.8243 96.916,-26.2251"/>
<polygon fill="#191970" stroke="#191970" points="99.5478,-28.5332 103.6847,-18.7795 94.3682,-23.8245 99.5478,-28.5332"/>
</g>
<!-- Node17&#45;&gt;Node1 -->
<g id="edge9" class="edge">
<title>Node17&#45;&gt;Node1</title>
<path fill="none" stroke="#191970" d="M131.5246,-165.4179C124.9721,-157.5833 115.3324,-146.0575 107.3502,-136.5137"/>
<polygon fill="#191970" stroke="#191970" points="109.982,-134.2048 100.8816,-128.7795 104.6124,-138.6957 109.982,-134.2048"/>
</g>
<!-- Node17&#45;&gt;Node18 -->
<g id="edge10" class="edge">
<title>Node17&#45;&gt;Node18</title>
<path fill="none" stroke="#191970" d="M148.8633,-165.4179C157.5223,-157.3458 170.3846,-145.3556 180.7943,-135.6517"/>
<polygon fill="#191970" stroke="#191970" points="183.2382,-138.1584 188.1663,-128.7795 178.465,-133.0381 183.2382,-138.1584"/>
</g>
</g>
</svg>
