<?xml version="1.0" encoding="UTF-8" standalone="no"?>
<!DOCTYPE svg PUBLIC "-//W3C//DTD SVG 1.1//EN"
 "http://www.w3.org/Graphics/SVG/1.1/DTD/svg11.dtd">
<!-- Generated by graphviz version 2.40.1 (20161225.0304)
 -->
<!-- Title: libnolimits/NL2/Coaster/Car.h Pages: 1 -->
<svg width="332pt" height="167pt"
 viewBox="0.00 0.00 331.82 167.00" xmlns="http://www.w3.org/2000/svg" xmlns:xlink="http://www.w3.org/1999/xlink">
<g id="graph0" class="graph" transform="scale(1 1) rotate(0) translate(4 163)">
<title>libnolimits/NL2/Coaster/Car.h</title>
<!-- Node18 -->
<g id="node1" class="node">
<title>Node18</title>
<polygon fill="#bfbfbf" stroke="#000000" points="68,-130.5 68,-158.5 186.8174,-158.5 186.8174,-130.5 68,-130.5"/>
<text text-anchor="start" x="76" y="-146.5" font-family="Helvetica,sans-Serif" font-size="10.00" fill="#000000">libnolimits/NL2/Coaster</text>
<text text-anchor="middle" x="127.4087" y="-136.5" font-family="Helvetica,sans-Serif" font-size="10.00" fill="#000000">/Car.h</text>
</g>
<!-- Node19 -->
<g id="node2" class="node">
<title>Node19</title>
<g id="a_node2"><a xlink:href="_car_8cpp.html" target="_top" xlink:title="libnolimits/NL2/Coaster\l/Car.cpp">
<polygon fill="none" stroke="#000000" points="0,-65.5 0,-93.5 118.8174,-93.5 118.8174,-65.5 0,-65.5"/>
<text text-anchor="start" x="8" y="-81.5" font-family="Helvetica,sans-Serif" font-size="10.00" fill="#000000">libnolimits/NL2/Coaster</text>
<text text-anchor="middle" x="59.4087" y="-71.5" font-family="Helvetica,sans-Serif" font-size="10.00" fill="#000000">/Car.cpp</text>
</a>
</g>
</g>
<!-- Node18&#45;&gt;Node19 -->
<g id="edge1" class="edge">
<title>Node18&#45;&gt;Node19</title>
<path fill="none" stroke="#191970" d="M105.2422,-123.3115C95.0419,-113.5612 83.2182,-102.259 74.1349,-93.5765"/>
<polygon fill="#191970" stroke="#191970" points="103.0065,-126.0162 112.6537,-130.396 107.8434,-120.9561 103.0065,-126.0162"/>
</g>
<!-- Node20 -->
<g id="node3" class="node">
<title>Node20</title>
<g id="a_node3"><a xlink:href="_train_8h.html" target="_top" xlink:title="libnolimits/NL2/Coaster\l/Train.h">
<polygon fill="none" stroke="#000000" points="137,-65.5 137,-93.5 255.8174,-93.5 255.8174,-65.5 137,-65.5"/>
<text text-anchor="start" x="145" y="-81.5" font-family="Helvetica,sans-Serif" font-size="10.00" fill="#000000">libnolimits/NL2/Coaster</text>
<text text-anchor="middle" x="196.4087" y="-71.5" font-family="Helvetica,sans-Serif" font-size="10.00" fill="#000000">/Train.h</text>
</a>
</g>
</g>
<!-- Node18&#45;&gt;Node20 -->
<g id="edge2" class="edge">
<title>Node18&#45;&gt;Node20</title>
<path fill="none" stroke="#191970" d="M149.9011,-123.3115C160.2514,-113.5612 172.2491,-102.259 181.4659,-93.5765"/>
<polygon fill="#191970" stroke="#191970" points="147.2597,-120.9914 142.3807,-130.396 152.0595,-126.0866 147.2597,-120.9914"/>
</g>
<!-- Node21 -->
<g id="node4" class="node">
<title>Node21</title>
<g id="a_node4"><a xlink:href="_coaster_8h.html" target="_top" xlink:title="libnolimits/NL2/Coaster\l/Coaster.h">
<polygon fill="none" stroke="#ff0000" points="68,-.5 68,-28.5 186.8174,-28.5 186.8174,-.5 68,-.5"/>
<text text-anchor="start" x="76" y="-16.5" font-family="Helvetica,sans-Serif" font-size="10.00" fill="#000000">libnolimits/NL2/Coaster</text>
<text text-anchor="middle" x="127.4087" y="-6.5" font-family="Helvetica,sans-Serif" font-size="10.00" fill="#000000">/Coaster.h</text>
</a>
</g>
</g>
<!-- Node20&#45;&gt;Node21 -->
<g id="edge3" class="edge">
<title>Node20&#45;&gt;Node21</title>
<path fill="none" stroke="#191970" d="M173.9163,-58.3115C163.566,-48.5612 151.5683,-37.259 142.3514,-28.5765"/>
<polygon fill="#191970" stroke="#191970" points="171.7579,-61.0866 181.4367,-65.396 176.5577,-55.9914 171.7579,-61.0866"/>
</g>
<!-- Node25 -->
<g id="node5" class="node">
<title>Node25</title>
<g id="a_node5"><a xlink:href="_train_8cpp.html" target="_top" xlink:title="libnolimits/NL2/Coaster\l/Train.cpp">
<polygon fill="none" stroke="#000000" points="205,-.5 205,-28.5 323.8174,-28.5 323.8174,-.5 205,-.5"/>
<text text-anchor="start" x="213" y="-16.5" font-family="Helvetica,sans-Serif" font-size="10.00" fill="#000000">libnolimits/NL2/Coaster</text>
<text text-anchor="middle" x="264.4087" y="-6.5" font-family="Helvetica,sans-Serif" font-size="10.00" fill="#000000">/Train.cpp</text>
</a>
</g>
</g>
<!-- Node20&#45;&gt;Node25 -->
<g id="edge4" class="edge">
<title>Node20&#45;&gt;Node25</title>
<path fill="none" stroke="#191970" d="M218.5752,-58.3115C228.7754,-48.5612 240.5992,-37.259 249.6825,-28.5765"/>
<polygon fill="#191970" stroke="#191970" points="215.974,-55.9561 211.1637,-65.396 220.8109,-61.0162 215.974,-55.9561"/>
</g>
</g>
</svg>
