<?xml version="1.0" encoding="UTF-8" standalone="no"?>
<!DOCTYPE svg PUBLIC "-//W3C//DTD SVG 1.1//EN"
 "http://www.w3.org/Graphics/SVG/1.1/DTD/svg11.dtd">
<!-- Generated by graphviz version 2.40.1 (20161225.0304)
 -->
<!-- Title: libnolimits/Stream/Chunk.h Pages: 1 -->
<svg width="347pt" height="147pt"
 viewBox="0.00 0.00 347.18 147.00" xmlns="http://www.w3.org/2000/svg" xmlns:xlink="http://www.w3.org/1999/xlink">
<g id="graph0" class="graph" transform="scale(1 1) rotate(0) translate(4 143)">
<title>libnolimits/Stream/Chunk.h</title>
<!-- Node0 -->
<g id="node1" class="node">
<title>Node0</title>
<polygon fill="#bfbfbf" stroke="#000000" points="192.665,-110.5 192.665,-138.5 287.5762,-138.5 287.5762,-110.5 192.665,-110.5"/>
<text text-anchor="start" x="200.665" y="-126.5" font-family="Helvetica,sans-Serif" font-size="10.00" fill="#000000">libnolimits/Stream</text>
<text text-anchor="middle" x="240.1206" y="-116.5" font-family="Helvetica,sans-Serif" font-size="10.00" fill="#000000">/Chunk.h</text>
</g>
<!-- Node1 -->
<g id="node2" class="node">
<title>Node1</title>
<g id="a_node2"><a xlink:href="_file_8h.html" target="_top" xlink:title="../File/File.h">
<polygon fill="none" stroke="#000000" points="123.2808,-55.5 123.2808,-73.5 190.9604,-73.5 190.9604,-55.5 123.2808,-55.5"/>
<text text-anchor="middle" x="157.1206" y="-61.5" font-family="Helvetica,sans-Serif" font-size="10.00" fill="#000000">../File/File.h</text>
</a>
</g>
</g>
<!-- Node0&#45;&gt;Node1 -->
<g id="edge1" class="edge">
<title>Node0&#45;&gt;Node1</title>
<path fill="none" stroke="#191970" d="M220.4508,-110.2808C207.6753,-101.0456 191.0414,-89.021 178.0269,-79.613"/>
<polygon fill="#191970" stroke="#191970" points="179.8418,-76.6062 169.6871,-73.5842 175.7408,-82.2792 179.8418,-76.6062"/>
</g>
<!-- Node5 -->
<g id="node6" class="node">
<title>Node5</title>
<polygon fill="none" stroke="#bfbfbf" points="197,-.5 197,-18.5 245.2412,-18.5 245.2412,-.5 197,-.5"/>
<text text-anchor="middle" x="221.1206" y="-6.5" font-family="Helvetica,sans-Serif" font-size="10.00" fill="#000000">stdint.h</text>
</g>
<!-- Node0&#45;&gt;Node5 -->
<g id="edge8" class="edge">
<title>Node0&#45;&gt;Node5</title>
<path fill="none" stroke="#191970" d="M237.7908,-110.3987C234.4016,-89.8847 228.1012,-51.7512 224.2917,-28.6935"/>
<polygon fill="#191970" stroke="#191970" points="227.7287,-28.0243 222.6453,-18.7286 220.8223,-29.1654 227.7287,-28.0243"/>
</g>
<!-- Node6 -->
<g id="node7" class="node">
<title>Node6</title>
<g id="a_node7"><a xlink:href="_nolimits_8h.html" target="_top" xlink:title="../Nolimits.h">
<polygon fill="none" stroke="#ff0000" points="263.0049,-.5 263.0049,-18.5 331.2363,-18.5 331.2363,-.5 263.0049,-.5"/>
<text text-anchor="middle" x="297.1206" y="-6.5" font-family="Helvetica,sans-Serif" font-size="10.00" fill="#000000">../Nolimits.h</text>
</a>
</g>
</g>
<!-- Node0&#45;&gt;Node6 -->
<g id="edge7" class="edge">
<title>Node0&#45;&gt;Node6</title>
<path fill="none" stroke="#191970" d="M247.1099,-110.3987C257.4164,-89.6049 276.6958,-50.7079 288.0706,-27.7588"/>
<polygon fill="#191970" stroke="#191970" points="291.2413,-29.2428 292.5464,-18.7286 284.9695,-26.1341 291.2413,-29.2428"/>
</g>
<!-- Node15 -->
<g id="node8" class="node">
<title>Node15</title>
<polygon fill="none" stroke="#bfbfbf" points="287.0591,-55.5 287.0591,-73.5 339.1821,-73.5 339.1821,-55.5 287.0591,-55.5"/>
<text text-anchor="middle" x="313.1206" y="-61.5" font-family="Helvetica,sans-Serif" font-size="10.00" fill="#000000">ostream</text>
</g>
<!-- Node0&#45;&gt;Node15 -->
<g id="edge9" class="edge">
<title>Node0&#45;&gt;Node15</title>
<path fill="none" stroke="#191970" d="M257.4206,-110.2808C268.4408,-101.2232 282.7253,-89.4825 294.0693,-80.1586"/>
<polygon fill="#191970" stroke="#191970" points="296.5651,-82.6378 302.0682,-73.5842 292.1204,-77.23 296.5651,-82.6378"/>
</g>
<!-- Node2 -->
<g id="node3" class="node">
<title>Node2</title>
<polygon fill="none" stroke="#bfbfbf" points="0,-.5 0,-18.5 48.2412,-18.5 48.2412,-.5 0,-.5"/>
<text text-anchor="middle" x="24.1206" y="-6.5" font-family="Helvetica,sans-Serif" font-size="10.00" fill="#000000">cstddef</text>
</g>
<!-- Node1&#45;&gt;Node2 -->
<g id="edge2" class="edge">
<title>Node1&#45;&gt;Node2</title>
<path fill="none" stroke="#191970" d="M135.1584,-55.4179C113.4034,-46.4215 79.8792,-32.5581 55.3567,-22.4172"/>
<polygon fill="#191970" stroke="#191970" points="56.694,-19.1828 46.1155,-18.5956 54.019,-25.6515 56.694,-19.1828"/>
</g>
<!-- Node3 -->
<g id="node4" class="node">
<title>Node3</title>
<polygon fill="none" stroke="#bfbfbf" points="66.394,-.5 66.394,-18.5 111.8472,-18.5 111.8472,-.5 66.394,-.5"/>
<text text-anchor="middle" x="89.1206" y="-6.5" font-family="Helvetica,sans-Serif" font-size="10.00" fill="#000000">cstring</text>
</g>
<!-- Node1&#45;&gt;Node3 -->
<g id="edge3" class="edge">
<title>Node1&#45;&gt;Node3</title>
<path fill="none" stroke="#191970" d="M145.8918,-55.4179C135.7162,-47.1876 120.5043,-34.8839 108.3875,-25.0836"/>
<polygon fill="#191970" stroke="#191970" points="110.5696,-22.3469 100.5934,-18.7795 106.1675,-27.7895 110.5696,-22.3469"/>
</g>
<!-- Node4 -->
<g id="node5" class="node">
<title>Node4</title>
<polygon fill="none" stroke="#bfbfbf" points="129.4507,-.5 129.4507,-18.5 178.7905,-18.5 178.7905,-.5 129.4507,-.5"/>
<text text-anchor="middle" x="154.1206" y="-6.5" font-family="Helvetica,sans-Serif" font-size="10.00" fill="#000000">fstream</text>
</g>
<!-- Node1&#45;&gt;Node4 -->
<g id="edge4" class="edge">
<title>Node1&#45;&gt;Node4</title>
<path fill="none" stroke="#191970" d="M156.6252,-55.4179C156.2324,-48.2164 155.6695,-37.8962 155.1768,-28.8632"/>
<polygon fill="#191970" stroke="#191970" points="158.6663,-28.574 154.6268,-18.7795 151.6767,-28.9553 158.6663,-28.574"/>
</g>
<!-- Node1&#45;&gt;Node5 -->
<g id="edge5" class="edge">
<title>Node1&#45;&gt;Node5</title>
<path fill="none" stroke="#191970" d="M167.6889,-55.4179C177.1739,-47.2667 191.3081,-35.1201 202.6573,-25.3669"/>
<polygon fill="#191970" stroke="#191970" points="205.0197,-27.9516 210.3227,-18.7795 200.4573,-22.6427 205.0197,-27.9516"/>
</g>
<!-- Node1&#45;&gt;Node6 -->
<g id="edge6" class="edge">
<title>Node1&#45;&gt;Node6</title>
<path fill="none" stroke="#191970" d="M180.2388,-55.4179C203.24,-46.3817 238.7399,-32.4353 264.5827,-22.2828"/>
<polygon fill="#191970" stroke="#191970" points="265.9404,-25.5098 273.9681,-18.5956 263.3808,-18.9946 265.9404,-25.5098"/>
</g>
</g>
</svg>
