<?xml version="1.0" encoding="UTF-8" standalone="no"?>
<!DOCTYPE svg PUBLIC "-//W3C//DTD SVG 1.1//EN"
 "http://www.w3.org/Graphics/SVG/1.1/DTD/svg11.dtd">
<!-- Generated by graphviz version 2.40.1 (20161225.0304)
 -->
<!-- Title: libnolimits/Stream/Chunk.h Pages: 1 -->
<svg width="339pt" height="147pt"
 viewBox="0.00 0.00 339.24 147.00" xmlns="http://www.w3.org/2000/svg" xmlns:xlink="http://www.w3.org/1999/xlink">
<g id="graph0" class="graph" transform="scale(1 1) rotate(0) translate(4 143)">
<title>libnolimits/Stream/Chunk.h</title>
<!-- Node0 -->
<g id="node1" class="node">
<title>Node0</title>
<polygon fill="#bfbfbf" stroke="#000000" points="173.665,-110.5 173.665,-138.5 268.5762,-138.5 268.5762,-110.5 173.665,-110.5"/>
<text text-anchor="start" x="181.665" y="-126.5" font-family="Helvetica,sans-Serif" font-size="10.00" fill="#000000">libnolimits/Stream</text>
<text text-anchor="middle" x="221.1206" y="-116.5" font-family="Helvetica,sans-Serif" font-size="10.00" fill="#000000">/Chunk.h</text>
</g>
<!-- Node1 -->
<g id="node2" class="node">
<title>Node1</title>
<g id="a_node2"><a xlink:href="_file_8h.html" target="_top" xlink:title="../File/File.h">
<polygon fill="none" stroke="#000000" points="123.2808,-55.5 123.2808,-73.5 190.9604,-73.5 190.9604,-55.5 123.2808,-55.5"/>
<text text-anchor="middle" x="157.1206" y="-61.5" font-family="Helvetica,sans-Serif" font-size="10.00" fill="#000000">../File/File.h</text>
</a>
</g>
</g>
<!-- Node0&#45;&gt;Node1 -->
<g id="edge1" class="edge">
<title>Node0&#45;&gt;Node1</title>
<path fill="none" stroke="#191970" d="M205.9535,-110.2808C196.3867,-101.312 184.0139,-89.7124 174.1164,-80.4335"/>
<polygon fill="#191970" stroke="#191970" points="176.4996,-77.8702 166.8104,-73.5842 171.712,-82.977 176.4996,-77.8702"/>
</g>
<!-- Node5 -->
<g id="node6" class="node">
<title>Node5</title>
<polygon fill="none" stroke="#bfbfbf" points="197,-.5 197,-18.5 245.2412,-18.5 245.2412,-.5 197,-.5"/>
<text text-anchor="middle" x="221.1206" y="-6.5" font-family="Helvetica,sans-Serif" font-size="10.00" fill="#000000">stdint.h</text>
</g>
<!-- Node0&#45;&gt;Node5 -->
<g id="edge7" class="edge">
<title>Node0&#45;&gt;Node5</title>
<path fill="none" stroke="#191970" d="M221.1206,-110.3987C221.1206,-89.9779 221.1206,-52.0975 221.1206,-29.0089"/>
<polygon fill="#191970" stroke="#191970" points="224.6207,-28.7286 221.1206,-18.7286 217.6207,-28.7287 224.6207,-28.7286"/>
</g>
<!-- Node6 -->
<g id="node7" class="node">
<title>Node6</title>
<g id="a_node7"><a xlink:href="_nolimits_8h.html" target="_top" xlink:title="../Nolimits.h">
<polygon fill="none" stroke="#ff0000" points="263.0049,-.5 263.0049,-18.5 331.2363,-18.5 331.2363,-.5 263.0049,-.5"/>
<text text-anchor="middle" x="297.1206" y="-6.5" font-family="Helvetica,sans-Serif" font-size="10.00" fill="#000000">../Nolimits.h</text>
</a>
</g>
</g>
<!-- Node0&#45;&gt;Node6 -->
<g id="edge8" class="edge">
<title>Node0&#45;&gt;Node6</title>
<path fill="none" stroke="#191970" d="M230.4397,-110.3987C244.3049,-89.4184 270.3496,-50.0087 285.4595,-27.1452"/>
<polygon fill="#191970" stroke="#191970" points="288.4281,-29.0011 291.0217,-18.7286 282.5882,-25.1417 288.4281,-29.0011"/>
</g>
<!-- Node2 -->
<g id="node3" class="node">
<title>Node2</title>
<polygon fill="none" stroke="#bfbfbf" points="0,-.5 0,-18.5 48.2412,-18.5 48.2412,-.5 0,-.5"/>
<text text-anchor="middle" x="24.1206" y="-6.5" font-family="Helvetica,sans-Serif" font-size="10.00" fill="#000000">cstddef</text>
</g>
<!-- Node1&#45;&gt;Node2 -->
<g id="edge2" class="edge">
<title>Node1&#45;&gt;Node2</title>
<path fill="none" stroke="#191970" d="M135.1584,-55.4179C113.4034,-46.4215 79.8792,-32.5581 55.3567,-22.4172"/>
<polygon fill="#191970" stroke="#191970" points="56.694,-19.1828 46.1155,-18.5956 54.019,-25.6515 56.694,-19.1828"/>
</g>
<!-- Node3 -->
<g id="node4" class="node">
<title>Node3</title>
<polygon fill="none" stroke="#bfbfbf" points="66.394,-.5 66.394,-18.5 111.8472,-18.5 111.8472,-.5 66.394,-.5"/>
<text text-anchor="middle" x="89.1206" y="-6.5" font-family="Helvetica,sans-Serif" font-size="10.00" fill="#000000">cstring</text>
</g>
<!-- Node1&#45;&gt;Node3 -->
<g id="edge3" class="edge">
<title>Node1&#45;&gt;Node3</title>
<path fill="none" stroke="#191970" d="M145.8918,-55.4179C135.7162,-47.1876 120.5043,-34.8839 108.3875,-25.0836"/>
<polygon fill="#191970" stroke="#191970" points="110.5696,-22.3469 100.5934,-18.7795 106.1675,-27.7895 110.5696,-22.3469"/>
</g>
<!-- Node4 -->
<g id="node5" class="node">
<title>Node4</title>
<polygon fill="none" stroke="#bfbfbf" points="129.4507,-.5 129.4507,-18.5 178.7905,-18.5 178.7905,-.5 129.4507,-.5"/>
<text text-anchor="middle" x="154.1206" y="-6.5" font-family="Helvetica,sans-Serif" font-size="10.00" fill="#000000">fstream</text>
</g>
<!-- Node1&#45;&gt;Node4 -->
<g id="edge4" class="edge">
<title>Node1&#45;&gt;Node4</title>
<path fill="none" stroke="#191970" d="M156.6252,-55.4179C156.2324,-48.2164 155.6695,-37.8962 155.1768,-28.8632"/>
<polygon fill="#191970" stroke="#191970" points="158.6663,-28.574 154.6268,-18.7795 151.6767,-28.9553 158.6663,-28.574"/>
</g>
<!-- Node1&#45;&gt;Node5 -->
<g id="edge5" class="edge">
<title>Node1&#45;&gt;Node5</title>
<path fill="none" stroke="#191970" d="M167.6889,-55.4179C177.1739,-47.2667 191.3081,-35.1201 202.6573,-25.3669"/>
<polygon fill="#191970" stroke="#191970" points="205.0197,-27.9516 210.3227,-18.7795 200.4573,-22.6427 205.0197,-27.9516"/>
</g>
<!-- Node1&#45;&gt;Node6 -->
<g id="edge6" class="edge">
<title>Node1&#45;&gt;Node6</title>
<path fill="none" stroke="#191970" d="M180.2388,-55.4179C203.24,-46.3817 238.7399,-32.4353 264.5827,-22.2828"/>
<polygon fill="#191970" stroke="#191970" points="265.9404,-25.5098 273.9681,-18.5956 263.3808,-18.9946 265.9404,-25.5098"/>
</g>
</g>
</svg>
