<?xml version="1.0" encoding="UTF-8" standalone="no"?>
<!DOCTYPE svg PUBLIC "-//W3C//DTD SVG 1.1//EN"
 "http://www.w3.org/Graphics/SVG/1.1/DTD/svg11.dtd">
<!-- Generated by graphviz version 2.40.1 (20161225.0304)
 -->
<!-- Title: libnolimits/NL2/Coaster/Coaster.h Pages: 1 -->
<svg width="1803pt" height="422pt"
 viewBox="0.00 0.00 1803.36 422.00" xmlns="http://www.w3.org/2000/svg" xmlns:xlink="http://www.w3.org/1999/xlink">
<g id="graph0" class="graph" transform="scale(1 1) rotate(0) translate(4 418)">
<title>libnolimits/NL2/Coaster/Coaster.h</title>
<!-- Node0 -->
<g id="node1" class="node">
<title>Node0</title>
<polygon fill="#bfbfbf" stroke="#000000" points="726.2145,-385.5 726.2145,-413.5 845.0318,-413.5 845.0318,-385.5 726.2145,-385.5"/>
<text text-anchor="start" x="734.2145" y="-401.5" font-family="Helvetica,sans-Serif" font-size="10.00" fill="#000000">libnolimits/NL2/Coaster</text>
<text text-anchor="middle" x="785.6232" y="-391.5" font-family="Helvetica,sans-Serif" font-size="10.00" fill="#000000">/Coaster.h</text>
</g>
<!-- Node1 -->
<g id="node2" class="node">
<title>Node1</title>
<polygon fill="none" stroke="#bfbfbf" points="1537.0074,-110.5 1537.0074,-128.5 1580.2389,-128.5 1580.2389,-110.5 1537.0074,-110.5"/>
<text text-anchor="middle" x="1558.6232" y="-116.5" font-family="Helvetica,sans-Serif" font-size="10.00" fill="#000000">vector</text>
</g>
<!-- Node0&#45;&gt;Node1 -->
<g id="edge1" class="edge">
<title>Node0&#45;&gt;Node1</title>
<path fill="none" stroke="#191970" d="M845.3459,-399.0066C1062.0987,-396.4374 1794.6232,-380.6428 1794.6232,-284.5 1794.6232,-284.5 1794.6232,-284.5 1794.6232,-229.5 1794.6232,-199.6154 1797.5807,-185.272 1775.6232,-165 1748.9758,-140.3982 1643.9829,-127.3616 1590.4204,-122.194"/>
<polygon fill="#191970" stroke="#191970" points="1590.7135,-118.7062 1580.4321,-121.2643 1590.0647,-125.6761 1590.7135,-118.7062"/>
</g>
<!-- Node2 -->
<g id="node3" class="node">
<title>Node2</title>
<g id="a_node3"><a xlink:href="_chunk_8h.html" target="_top" xlink:title="../../Stream/Chunk.h">
<polygon fill="none" stroke="#000000" points="618.1603,-110.5 618.1603,-128.5 723.086,-128.5 723.086,-110.5 618.1603,-110.5"/>
<text text-anchor="middle" x="670.6232" y="-116.5" font-family="Helvetica,sans-Serif" font-size="10.00" fill="#000000">../../Stream/Chunk.h</text>
</a>
</g>
</g>
<!-- Node0&#45;&gt;Node2 -->
<g id="edge2" class="edge">
<title>Node0&#45;&gt;Node2</title>
<path fill="none" stroke="#191970" d="M782.4858,-385.4489C779.155,-371.2624 773.4364,-348.8186 766.6232,-330 740.115,-256.7834 698.7018,-173.7419 680.1597,-137.7435"/>
<polygon fill="#191970" stroke="#191970" points="683.0839,-135.7794 675.3736,-128.5129 676.8696,-139.0016 683.0839,-135.7794"/>
</g>
<!-- Node17 -->
<g id="node7" class="node">
<title>Node17</title>
<g id="a_node7"><a xlink:href="_colors_8h.html" target="_top" xlink:title="Colors.h">
<polygon fill="none" stroke="#000000" points="346.005,-165.5 346.005,-183.5 399.2413,-183.5 399.2413,-165.5 346.005,-165.5"/>
<text text-anchor="middle" x="372.6232" y="-171.5" font-family="Helvetica,sans-Serif" font-size="10.00" fill="#000000">Colors.h</text>
</a>
</g>
</g>
<!-- Node0&#45;&gt;Node17 -->
<g id="edge8" class="edge">
<title>Node0&#45;&gt;Node17</title>
<path fill="none" stroke="#191970" d="M725.8325,-389.2448C693.8637,-381.7487 654.9554,-369.251 624.6232,-349 588.9386,-325.1756 594.2856,-303.9565 562.6232,-275 531.0526,-246.1275 521.1969,-240.4582 483.6232,-220 459.6714,-206.9587 431.1808,-195.3543 409.0613,-187.1289"/>
<polygon fill="#191970" stroke="#191970" points="409.9796,-183.7382 399.3858,-183.5944 407.5777,-190.3132 409.9796,-183.7382"/>
</g>
<!-- Node18 -->
<g id="node8" class="node">
<title>Node18</title>
<g id="a_node8"><a xlink:href="_style_8h.html" target="_top" xlink:title="Style.h">
<polygon fill="none" stroke="#000000" points="965.3375,-330.5 965.3375,-348.5 1011.9088,-348.5 1011.9088,-330.5 965.3375,-330.5"/>
<text text-anchor="middle" x="988.6232" y="-336.5" font-family="Helvetica,sans-Serif" font-size="10.00" fill="#000000">Style.h</text>
</a>
</g>
</g>
<!-- Node0&#45;&gt;Node18 -->
<g id="edge10" class="edge">
<title>Node0&#45;&gt;Node18</title>
<path fill="none" stroke="#191970" d="M833.2176,-385.4327C870.8133,-374.3207 922.309,-359.1002 955.5251,-349.2827"/>
<polygon fill="#191970" stroke="#191970" points="956.6133,-352.6108 965.2111,-346.4198 954.6291,-345.8979 956.6133,-352.6108"/>
</g>
<!-- Node19 -->
<g id="node9" class="node">
<title>Node19</title>
<g id="a_node9"><a xlink:href="_mode_8h.html" target="_top" xlink:title="Mode.h">
<polygon fill="none" stroke="#000000" points="600.9459,-220.5 600.9459,-238.5 650.3004,-238.5 650.3004,-220.5 600.9459,-220.5"/>
<text text-anchor="middle" x="625.6232" y="-226.5" font-family="Helvetica,sans-Serif" font-size="10.00" fill="#000000">Mode.h</text>
</a>
</g>
</g>
<!-- Node0&#45;&gt;Node19 -->
<g id="edge12" class="edge">
<title>Node0&#45;&gt;Node19</title>
<path fill="none" stroke="#191970" d="M726.1611,-385.9604C690.5493,-376.594 650.0352,-363.283 638.6232,-349 615.7013,-320.3115 618.1482,-274.6036 621.9189,-248.8265"/>
<polygon fill="#191970" stroke="#191970" points="625.3961,-249.2538 623.6019,-238.812 618.4929,-248.0936 625.3961,-249.2538"/>
</g>
<!-- Node21 -->
<g id="node11" class="node">
<title>Node21</title>
<g id="a_node11"><a xlink:href="_train_8h.html" target="_top" xlink:title="Train.h">
<polygon fill="none" stroke="#000000" points="1348.2447,-275.5 1348.2447,-293.5 1395.0016,-293.5 1395.0016,-275.5 1348.2447,-275.5"/>
<text text-anchor="middle" x="1371.6232" y="-281.5" font-family="Helvetica,sans-Serif" font-size="10.00" fill="#000000">Train.h</text>
</a>
</g>
</g>
<!-- Node0&#45;&gt;Node21 -->
<g id="edge16" class="edge">
<title>Node0&#45;&gt;Node21</title>
<path fill="none" stroke="#191970" d="M845.0368,-387.8403C967.0367,-363.8984 1242.359,-309.8675 1338.0742,-291.0838"/>
<polygon fill="#191970" stroke="#191970" points="1338.925,-294.4837 1348.0638,-289.1234 1337.5769,-287.6147 1338.925,-294.4837"/>
</g>
<!-- Node24 -->
<g id="node14" class="node">
<title>Node24</title>
<g id="a_node14"><a xlink:href="_track_8h.html" target="_top" xlink:title="Track/Track.h">
<polygon fill="none" stroke="#000000" points="477.4303,-275.5 477.4303,-293.5 553.816,-293.5 553.816,-275.5 477.4303,-275.5"/>
<text text-anchor="middle" x="515.6232" y="-281.5" font-family="Helvetica,sans-Serif" font-size="10.00" fill="#000000">Track/Track.h</text>
</a>
</g>
</g>
<!-- Node0&#45;&gt;Node24 -->
<g id="edge26" class="edge">
<title>Node0&#45;&gt;Node24</title>
<path fill="none" stroke="#191970" d="M726.1965,-390.2204C671.0605,-380.815 593.7092,-365.3532 567.6232,-349 549.2283,-337.4684 534.448,-317.1128 525.4145,-302.3473"/>
<polygon fill="#191970" stroke="#191970" points="528.3807,-300.4854 520.3279,-293.6003 522.3295,-304.0044 528.3807,-300.4854"/>
</g>
<!-- Node25 -->
<g id="node15" class="node">
<title>Node25</title>
<g id="a_node15"><a xlink:href="_section_8h.html" target="_top" xlink:title="Section/Section.h">
<polygon fill="none" stroke="#000000" points="380.7096,-220.5 380.7096,-238.5 474.5367,-238.5 474.5367,-220.5 380.7096,-220.5"/>
<text text-anchor="middle" x="427.6232" y="-226.5" font-family="Helvetica,sans-Serif" font-size="10.00" fill="#000000">Section/Section.h</text>
</a>
</g>
</g>
<!-- Node0&#45;&gt;Node25 -->
<g id="edge30" class="edge">
<title>Node0&#45;&gt;Node25</title>
<path fill="none" stroke="#191970" d="M726.0079,-394.2052C675.647,-388.0825 602.5244,-375.2498 543.6232,-349 505.8671,-332.1737 496.8638,-324.1846 468.6232,-294 455.4927,-279.9657 444.0955,-261.1645 436.6735,-247.4832"/>
<polygon fill="#191970" stroke="#191970" points="439.744,-245.802 432.0038,-238.5674 433.5431,-249.0498 439.744,-245.802"/>
</g>
<!-- Node26 -->
<g id="node16" class="node">
<title>Node26</title>
<g id="a_node16"><a xlink:href="_custom_track_8h.html" target="_top" xlink:title="Track/CustomTrack.h">
<polygon fill="none" stroke="#000000" points="263.2037,-330.5 263.2037,-348.5 374.0426,-348.5 374.0426,-330.5 263.2037,-330.5"/>
<text text-anchor="middle" x="318.6232" y="-336.5" font-family="Helvetica,sans-Serif" font-size="10.00" fill="#000000">Track/CustomTrack.h</text>
</a>
</g>
</g>
<!-- Node0&#45;&gt;Node26 -->
<g id="edge31" class="edge">
<title>Node0&#45;&gt;Node26</title>
<path fill="none" stroke="#191970" d="M726.0029,-391.84C638.3986,-380.5846 475.4613,-359.6505 384.4476,-347.9571"/>
<polygon fill="#191970" stroke="#191970" points="384.6181,-344.4503 374.2536,-346.6474 383.7261,-351.3933 384.6181,-344.4503"/>
</g>
<!-- Node37 -->
<g id="node24" class="node">
<title>Node37</title>
<g id="a_node24"><a xlink:href="_special_track_8h.html" target="_top" xlink:title="Track/SpecialTrack.h">
<polygon fill="none" stroke="#000000" points="648.0314,-330.5 648.0314,-348.5 757.215,-348.5 757.215,-330.5 648.0314,-330.5"/>
<text text-anchor="middle" x="702.6232" y="-336.5" font-family="Helvetica,sans-Serif" font-size="10.00" fill="#000000">Track/SpecialTrack.h</text>
</a>
</g>
</g>
<!-- Node0&#45;&gt;Node37 -->
<g id="edge54" class="edge">
<title>Node0&#45;&gt;Node37</title>
<path fill="none" stroke="#191970" d="M765.9533,-385.2808C753.1779,-376.0456 736.5439,-364.021 723.5295,-354.613"/>
<polygon fill="#191970" stroke="#191970" points="725.3443,-351.6062 715.1896,-348.5842 721.2434,-357.2792 725.3443,-351.6062"/>
</g>
<!-- Node38 -->
<g id="node25" class="node">
<title>Node38</title>
<g id="a_node25"><a xlink:href="_support_8h.html" target="_top" xlink:title="Support/Support.h">
<polygon fill="none" stroke="#000000" points="796.0397,-220.5 796.0397,-238.5 893.2067,-238.5 893.2067,-220.5 796.0397,-220.5"/>
<text text-anchor="middle" x="844.6232" y="-226.5" font-family="Helvetica,sans-Serif" font-size="10.00" fill="#000000">Support/Support.h</text>
</a>
</g>
</g>
<!-- Node0&#45;&gt;Node38 -->
<g id="edge59" class="edge">
<title>Node0&#45;&gt;Node38</title>
<path fill="none" stroke="#191970" d="M790.552,-385.2983C801.1481,-354.7672 826.1009,-282.8692 838.0375,-248.4756"/>
<polygon fill="#191970" stroke="#191970" points="841.4487,-249.3214 841.421,-238.7266 834.8356,-247.0263 841.4487,-249.3214"/>
</g>
<!-- Node45 -->
<g id="node29" class="node">
<title>Node45</title>
<g id="a_node29"><a xlink:href="_script_8h.html" target="_top" xlink:title="Script.h">
<polygon fill="none" stroke="#000000" points="918.6725,-220.5 918.6725,-238.5 968.5738,-238.5 968.5738,-220.5 918.6725,-220.5"/>
<text text-anchor="middle" x="943.6232" y="-226.5" font-family="Helvetica,sans-Serif" font-size="10.00" fill="#000000">Script.h</text>
</a>
</g>
</g>
<!-- Node0&#45;&gt;Node45 -->
<g id="edge69" class="edge">
<title>Node0&#45;&gt;Node45</title>
<path fill="none" stroke="#191970" d="M798.8224,-385.2983C827.8126,-354.1063 896.932,-279.7373 928.013,-246.2957"/>
<polygon fill="#191970" stroke="#191970" points="930.8037,-248.4343 935.0478,-238.7266 925.6762,-243.6688 930.8037,-248.4343"/>
</g>
<!-- Node47 -->
<g id="node31" class="node">
<title>Node47</title>
<g id="a_node31"><a xlink:href="_file_script_8h.html" target="_top" xlink:title="FileScript.h">
<polygon fill="none" stroke="#000000" points="1700.6158,-165.5 1700.6158,-183.5 1766.6305,-183.5 1766.6305,-165.5 1700.6158,-165.5"/>
<text text-anchor="middle" x="1733.6232" y="-171.5" font-family="Helvetica,sans-Serif" font-size="10.00" fill="#000000">FileScript.h</text>
</a>
</g>
</g>
<!-- Node0&#45;&gt;Node47 -->
<g id="edge74" class="edge">
<title>Node0&#45;&gt;Node47</title>
<path fill="none" stroke="#191970" d="M845.3185,-397.5719C1014.5539,-391.2502 1494.0337,-367.1739 1630.6232,-294 1674.7033,-270.3853 1708.2987,-219.6709 1723.9434,-192.5232"/>
<polygon fill="#191970" stroke="#191970" points="1727.061,-194.1189 1728.8812,-183.6815 1720.9495,-190.7057 1727.061,-194.1189"/>
</g>
<!-- Node3 -->
<g id="node4" class="node">
<title>Node3</title>
<g id="a_node4"><a xlink:href="_file_8h.html" target="_top" xlink:title="../File/File.h">
<polygon fill="none" stroke="#ff0000" points="636.7833,-55.5 636.7833,-73.5 704.463,-73.5 704.463,-55.5 636.7833,-55.5"/>
<text text-anchor="middle" x="670.6232" y="-61.5" font-family="Helvetica,sans-Serif" font-size="10.00" fill="#000000">../File/File.h</text>
</a>
</g>
</g>
<!-- Node2&#45;&gt;Node3 -->
<g id="edge3" class="edge">
<title>Node2&#45;&gt;Node3</title>
<path fill="none" stroke="#191970" d="M670.6232,-110.4179C670.6232,-103.2164 670.6232,-92.8962 670.6232,-83.8632"/>
<polygon fill="#191970" stroke="#191970" points="674.1233,-83.7794 670.6232,-73.7795 667.1233,-83.7795 674.1233,-83.7794"/>
</g>
<!-- Node7 -->
<g id="node5" class="node">
<title>Node7</title>
<polygon fill="none" stroke="#bfbfbf" points="608.5026,-.5 608.5026,-18.5 656.7438,-18.5 656.7438,-.5 608.5026,-.5"/>
<text text-anchor="middle" x="632.6232" y="-6.5" font-family="Helvetica,sans-Serif" font-size="10.00" fill="#000000">stdint.h</text>
</g>
<!-- Node2&#45;&gt;Node7 -->
<g id="edge6" class="edge">
<title>Node2&#45;&gt;Node7</title>
<path fill="none" stroke="#191970" d="M657.7108,-110.3491C647.376,-102.1662 633.6488,-89.1487 627.6232,-74 621.8504,-59.4871 623.8248,-41.7087 626.8329,-28.495"/>
<polygon fill="#191970" stroke="#191970" points="630.2658,-29.2048 629.4556,-18.641 623.5013,-27.4044 630.2658,-29.2048"/>
</g>
<!-- Node8 -->
<g id="node6" class="node">
<title>Node8</title>
<g id="a_node6"><a xlink:href="_nolimits_8h.html" target="_top" xlink:title="../Nolimits.h">
<polygon fill="none" stroke="#ff0000" points="686.5074,-.5 686.5074,-18.5 754.7389,-18.5 754.7389,-.5 686.5074,-.5"/>
<text text-anchor="middle" x="720.6232" y="-6.5" font-family="Helvetica,sans-Serif" font-size="10.00" fill="#000000">../Nolimits.h</text>
</a>
</g>
</g>
<!-- Node2&#45;&gt;Node8 -->
<g id="edge7" class="edge">
<title>Node2&#45;&gt;Node8</title>
<path fill="none" stroke="#191970" d="M682.7178,-110.4994C692.8363,-102.2267 706.6968,-88.9984 713.6232,-74 720.1246,-59.9218 721.6578,-42.3317 721.6861,-29.0784"/>
<polygon fill="#191970" stroke="#191970" points="725.176,-28.6484 721.4107,-18.7453 718.1785,-28.835 725.176,-28.6484"/>
</g>
<!-- Node3&#45;&gt;Node7 -->
<g id="edge4" class="edge">
<title>Node3&#45;&gt;Node7</title>
<path fill="none" stroke="#191970" d="M664.3482,-55.4179C659.0446,-47.7415 651.2927,-36.5217 644.7793,-27.0945"/>
<polygon fill="#191970" stroke="#191970" points="647.5983,-25.0173 639.0344,-18.7795 641.8392,-28.9963 647.5983,-25.0173"/>
</g>
<!-- Node3&#45;&gt;Node8 -->
<g id="edge5" class="edge">
<title>Node3&#45;&gt;Node8</title>
<path fill="none" stroke="#191970" d="M678.8796,-55.4179C686.074,-47.5041 696.692,-35.8243 705.4185,-26.2251"/>
<polygon fill="#191970" stroke="#191970" points="708.0503,-28.5332 712.1873,-18.7795 702.8707,-23.8245 708.0503,-28.5332"/>
</g>
<!-- Node17&#45;&gt;Node2 -->
<g id="edge9" class="edge">
<title>Node17&#45;&gt;Node2</title>
<path fill="none" stroke="#191970" d="M399.4853,-168.0634C404.1881,-166.9973 409.0415,-165.9357 413.6232,-165 479.5921,-151.5272 555.5658,-138.3652 607.7038,-129.6923"/>
<polygon fill="#191970" stroke="#191970" points="608.5103,-133.1065 617.8036,-128.0189 607.3659,-126.2007 608.5103,-133.1065"/>
</g>
<!-- Node18&#45;&gt;Node2 -->
<g id="edge11" class="edge">
<title>Node18&#45;&gt;Node2</title>
<path fill="none" stroke="#191970" d="M996.8951,-330.2754C1021.25,-302.0015 1088.2641,-215.4173 1043.6232,-165 1023.4234,-142.1864 834.0352,-128.4375 733.1712,-122.6734"/>
<polygon fill="#191970" stroke="#191970" points="733.2835,-119.1743 723.1029,-122.1078 732.8908,-126.1633 733.2835,-119.1743"/>
</g>
<!-- Node19&#45;&gt;Node2 -->
<g id="edge13" class="edge">
<title>Node19&#45;&gt;Node2</title>
<path fill="none" stroke="#191970" d="M626.0578,-220.3734C626.9455,-207.5348 629.6214,-183.6285 637.6232,-165 642.0353,-154.7283 649.1073,-144.5379 655.5748,-136.4131"/>
<polygon fill="#191970" stroke="#191970" points="658.4635,-138.4151 662.2011,-128.5015 653.097,-133.9205 658.4635,-138.4151"/>
</g>
<!-- Node20 -->
<g id="node10" class="node">
<title>Node20</title>
<g id="a_node10"><a xlink:href="_custom_friction_8h.html" target="_top" xlink:title="CustomFriction.h">
<polygon fill="none" stroke="#000000" points="493.8351,-165.5 493.8351,-183.5 585.4112,-183.5 585.4112,-165.5 493.8351,-165.5"/>
<text text-anchor="middle" x="539.6232" y="-171.5" font-family="Helvetica,sans-Serif" font-size="10.00" fill="#000000">CustomFriction.h</text>
</a>
</g>
</g>
<!-- Node19&#45;&gt;Node20 -->
<g id="edge14" class="edge">
<title>Node19&#45;&gt;Node20</title>
<path fill="none" stroke="#191970" d="M611.422,-220.4179C598.1018,-211.8992 577.9581,-199.0166 562.394,-189.0627"/>
<polygon fill="#191970" stroke="#191970" points="564.1556,-186.0348 553.8454,-183.5956 560.3842,-191.932 564.1556,-186.0348"/>
</g>
<!-- Node20&#45;&gt;Node2 -->
<g id="edge15" class="edge">
<title>Node20&#45;&gt;Node2</title>
<path fill="none" stroke="#191970" d="M561.2551,-165.4179C582.5881,-156.4613 615.4111,-142.6806 639.5357,-132.552"/>
<polygon fill="#191970" stroke="#191970" points="641.0936,-135.6939 648.959,-128.5956 638.3838,-129.2397 641.0936,-135.6939"/>
</g>
<!-- Node21&#45;&gt;Node1 -->
<g id="edge25" class="edge">
<title>Node21&#45;&gt;Node1</title>
<path fill="none" stroke="#191970" d="M1395.3166,-279.4577C1436.1549,-269.3614 1518.855,-242.427 1554.6232,-184 1562.8608,-170.5439 1563.2553,-152.4084 1561.9377,-138.7947"/>
<polygon fill="#191970" stroke="#191970" points="1565.371,-138.0657 1560.5628,-128.6248 1558.4341,-139.0035 1565.371,-138.0657"/>
</g>
<!-- Node21&#45;&gt;Node2 -->
<g id="edge17" class="edge">
<title>Node21&#45;&gt;Node2</title>
<path fill="none" stroke="#191970" d="M1348.2297,-275.5C1303.581,-258.2499 1203.2135,-219.1221 1119.6232,-184 1100.3608,-175.9065 1096.7938,-170.4487 1076.6232,-165 1013.4664,-147.9394 830.5133,-131.8403 733.2069,-124.1757"/>
<polygon fill="#191970" stroke="#191970" points="733.4494,-120.6841 723.207,-123.394 732.9038,-127.6628 733.4494,-120.6841"/>
</g>
<!-- Node22 -->
<g id="node12" class="node">
<title>Node22</title>
<g id="a_node12"><a xlink:href="_individual_color_8h.html" target="_top" xlink:title="IndividualColor.h">
<polygon fill="none" stroke="#000000" points="1326.6529,-165.5 1326.6529,-183.5 1416.5934,-183.5 1416.5934,-165.5 1326.6529,-165.5"/>
<text text-anchor="middle" x="1371.6232" y="-171.5" font-family="Helvetica,sans-Serif" font-size="10.00" fill="#000000">IndividualColor.h</text>
</a>
</g>
</g>
<!-- Node21&#45;&gt;Node22 -->
<g id="edge18" class="edge">
<title>Node21&#45;&gt;Node22</title>
<path fill="none" stroke="#191970" d="M1371.6232,-275.4982C1371.6232,-257.6913 1371.6232,-217.6225 1371.6232,-193.6515"/>
<polygon fill="#191970" stroke="#191970" points="1375.1233,-193.6261 1371.6232,-183.6261 1368.1233,-193.6262 1375.1233,-193.6261"/>
</g>
<!-- Node23 -->
<g id="node13" class="node">
<title>Node23</title>
<g id="a_node13"><a xlink:href="_car_8h.html" target="_top" xlink:title="Car.h">
<polygon fill="none" stroke="#000000" points="1412.67,-220.5 1412.67,-238.5 1452.5763,-238.5 1452.5763,-220.5 1412.67,-220.5"/>
<text text-anchor="middle" x="1432.6232" y="-226.5" font-family="Helvetica,sans-Serif" font-size="10.00" fill="#000000">Car.h</text>
</a>
</g>
</g>
<!-- Node21&#45;&gt;Node23 -->
<g id="edge21" class="edge">
<title>Node21&#45;&gt;Node23</title>
<path fill="none" stroke="#191970" d="M1381.6961,-275.4179C1390.6487,-267.3458 1403.9469,-255.3556 1414.7095,-245.6517"/>
<polygon fill="#191970" stroke="#191970" points="1417.2482,-248.0753 1422.3314,-238.7795 1412.5607,-242.8764 1417.2482,-248.0753"/>
</g>
<!-- Node22&#45;&gt;Node1 -->
<g id="edge20" class="edge">
<title>Node22&#45;&gt;Node1</title>
<path fill="none" stroke="#191970" d="M1402.5024,-165.4179C1436.9645,-155.282 1492.4319,-138.968 1527.1379,-128.7604"/>
<polygon fill="#191970" stroke="#191970" points="1528.1625,-132.1073 1536.7686,-125.9278 1526.1873,-125.3918 1528.1625,-132.1073"/>
</g>
<!-- Node22&#45;&gt;Node2 -->
<g id="edge19" class="edge">
<title>Node22&#45;&gt;Node2</title>
<path fill="none" stroke="#191970" d="M1326.5944,-166.2176C1323.5634,-165.7715 1320.552,-165.3596 1317.6232,-165 1104.1689,-138.7904 849.1019,-126.3634 733.3144,-121.7419"/>
<polygon fill="#191970" stroke="#191970" points="733.3461,-118.2406 723.2163,-121.3447 733.0709,-125.2352 733.3461,-118.2406"/>
</g>
<!-- Node23&#45;&gt;Node1 -->
<g id="edge24" class="edge">
<title>Node23&#45;&gt;Node1</title>
<path fill="none" stroke="#191970" d="M1452.5923,-225.4871C1475.3688,-219.9252 1512.3299,-207.7527 1534.6232,-184 1546.3656,-171.4889 1552.4862,-152.717 1555.5972,-138.6457"/>
<polygon fill="#191970" stroke="#191970" points="1559.0819,-139.0536 1557.4968,-128.578 1552.2033,-137.7556 1559.0819,-139.0536"/>
</g>
<!-- Node23&#45;&gt;Node2 -->
<g id="edge22" class="edge">
<title>Node23&#45;&gt;Node2</title>
<path fill="none" stroke="#191970" d="M1434.8335,-220.4571C1437.6778,-206.3644 1440.6249,-179.2997 1425.6232,-165 1400.7083,-141.2511 910.0229,-125.8797 733.3393,-121.0962"/>
<polygon fill="#191970" stroke="#191970" points="733.2508,-117.5927 723.1604,-120.823 733.0629,-124.5902 733.2508,-117.5927"/>
</g>
<!-- Node23&#45;&gt;Node22 -->
<g id="edge23" class="edge">
<title>Node23&#45;&gt;Node22</title>
<path fill="none" stroke="#191970" d="M1422.5502,-220.4179C1413.5976,-212.3458 1400.2994,-200.3556 1389.5368,-190.6517"/>
<polygon fill="#191970" stroke="#191970" points="1391.6856,-187.8764 1381.9149,-183.7795 1386.9981,-193.0753 1391.6856,-187.8764"/>
</g>
<!-- Node24&#45;&gt;Node2 -->
<g id="edge27" class="edge">
<title>Node24&#45;&gt;Node2</title>
<path fill="none" stroke="#191970" d="M511.3108,-275.3213C499.9271,-250.4642 470.8608,-182.5347 484.6232,-165 499.8569,-145.5905 559.962,-133.3919 607.7792,-126.5677"/>
<polygon fill="#191970" stroke="#191970" points="608.3462,-130.0228 617.7758,-125.1924 607.3921,-123.0881 608.3462,-130.0228"/>
</g>
<!-- Node24&#45;&gt;Node25 -->
<g id="edge28" class="edge">
<title>Node24&#45;&gt;Node25</title>
<path fill="none" stroke="#191970" d="M501.0917,-275.4179C487.4618,-266.8992 466.8496,-254.0166 450.9235,-244.0627"/>
<polygon fill="#191970" stroke="#191970" points="452.5112,-240.9277 442.1762,-238.5956 448.8011,-246.8637 452.5112,-240.9277"/>
</g>
<!-- Node25&#45;&gt;Node2 -->
<g id="edge29" class="edge">
<title>Node25&#45;&gt;Node2</title>
<path fill="none" stroke="#191970" d="M428.2933,-220.4632C429.8444,-206.3788 434.947,-179.3253 451.6232,-165 474.7089,-145.1687 551.6253,-132.5646 607.7988,-125.7721"/>
<polygon fill="#191970" stroke="#191970" points="608.505,-129.2134 618.0286,-124.571 607.6886,-122.2611 608.505,-129.2134"/>
</g>
<!-- Node26&#45;&gt;Node1 -->
<g id="edge32" class="edge">
<title>Node26&#45;&gt;Node1</title>
<path fill="none" stroke="#191970" d="M374.3857,-337.5989C592.7653,-330.0988 1379.1055,-302.5557 1403.6232,-294 1482.0174,-266.6436 1514.7016,-256.8031 1554.6232,-184 1562.1247,-170.3197 1562.6567,-152.4694 1561.5775,-139.0162"/>
<polygon fill="#191970" stroke="#191970" points="1565.0375,-138.4685 1560.4096,-128.9378 1558.0841,-139.2743 1565.0375,-138.4685"/>
</g>
<!-- Node26&#45;&gt;Node2 -->
<g id="edge33" class="edge">
<title>Node26&#45;&gt;Node2</title>
<path fill="none" stroke="#191970" d="M263.1339,-334.8963C180.2924,-327.4751 32.1839,-311.8778 15.6232,-294 -6.7597,-269.837 -2.235,-249.8796 11.6232,-220 27.5456,-185.6696 41.6125,-179.3649 76.6232,-165 124.8151,-145.2269 465.0139,-128.3971 607.7869,-122.1233"/>
<polygon fill="#191970" stroke="#191970" points="608.2891,-125.6048 618.1271,-121.6723 607.984,-118.6115 608.2891,-125.6048"/>
</g>
<!-- Node26&#45;&gt;Node24 -->
<g id="edge34" class="edge">
<title>Node26&#45;&gt;Node24</title>
<path fill="none" stroke="#191970" d="M351.1537,-330.4179C384.6177,-321.0751 436.8826,-306.4834 473.4903,-296.263"/>
<polygon fill="#191970" stroke="#191970" points="474.6812,-299.5644 483.3717,-293.5042 472.7988,-292.8222 474.6812,-299.5644"/>
</g>
<!-- Node26&#45;&gt;Node25 -->
<g id="edge50" class="edge">
<title>Node26&#45;&gt;Node25</title>
<path fill="none" stroke="#191970" d="M339.4824,-330.3713C355.5408,-322.5364 377.4803,-309.9852 392.6232,-294 405.1908,-280.7332 414.663,-262.0842 420.563,-248.2493"/>
<polygon fill="#191970" stroke="#191970" points="423.8883,-249.3607 424.3705,-238.7769 417.3934,-246.75 423.8883,-249.3607"/>
</g>
<!-- Node27 -->
<g id="node17" class="node">
<title>Node27</title>
<g id="a_node17"><a xlink:href="_roll_point_8h.html" target="_top" xlink:title="RollPoint.h">
<polygon fill="none" stroke="#000000" points="20.4435,-220.5 20.4435,-238.5 84.8028,-238.5 84.8028,-220.5 20.4435,-220.5"/>
<text text-anchor="middle" x="52.6232" y="-226.5" font-family="Helvetica,sans-Serif" font-size="10.00" fill="#000000">RollPoint.h</text>
</a>
</g>
</g>
<!-- Node26&#45;&gt;Node27 -->
<g id="edge35" class="edge">
<title>Node26&#45;&gt;Node27</title>
<path fill="none" stroke="#191970" d="M263.1073,-334.8096C181.9915,-327.387 38.9935,-311.9228 23.6232,-294 11.5968,-279.9765 23.7265,-260.1552 35.7708,-246.1964"/>
<polygon fill="#191970" stroke="#191970" points="38.4451,-248.4596 42.6691,-238.7432 33.3078,-243.7048 38.4451,-248.4596"/>
</g>
<!-- Node28 -->
<g id="node18" class="node">
<title>Node28</title>
<g id="a_node18"><a xlink:href="_vertex_8h.html" target="_top" xlink:title="Vertex.h">
<polygon fill="none" stroke="#000000" points="32.276,-275.5 32.276,-293.5 84.9703,-293.5 84.9703,-275.5 32.276,-275.5"/>
<text text-anchor="middle" x="58.6232" y="-281.5" font-family="Helvetica,sans-Serif" font-size="10.00" fill="#000000">Vertex.h</text>
</a>
</g>
</g>
<!-- Node26&#45;&gt;Node28 -->
<g id="edge37" class="edge">
<title>Node26&#45;&gt;Node28</title>
<path fill="none" stroke="#191970" d="M269.2618,-330.4818C225.7722,-322.3196 160.4959,-309.5441 95.3577,-294.308"/>
<polygon fill="#191970" stroke="#191970" points="95.8667,-290.8321 85.3302,-291.9425 94.2594,-297.6451 95.8667,-290.8321"/>
</g>
<!-- Node29 -->
<g id="node19" class="node">
<title>Node29</title>
<g id="a_node19"><a xlink:href="_trigger_8h.html" target="_top" xlink:title="Trigger.h">
<polygon fill="none" stroke="#000000" points="103.0724,-275.5 103.0724,-293.5 158.1739,-293.5 158.1739,-275.5 103.0724,-275.5"/>
<text text-anchor="middle" x="130.6232" y="-281.5" font-family="Helvetica,sans-Serif" font-size="10.00" fill="#000000">Trigger.h</text>
</a>
</g>
</g>
<!-- Node26&#45;&gt;Node29 -->
<g id="edge39" class="edge">
<title>Node26&#45;&gt;Node29</title>
<path fill="none" stroke="#191970" d="M287.5788,-330.4179C254.8308,-320.8374 203.2161,-305.7373 168.1935,-295.4913"/>
<polygon fill="#191970" stroke="#191970" points="168.9216,-292.0577 158.3411,-292.609 166.956,-298.7761 168.9216,-292.0577"/>
</g>
<!-- Node30 -->
<g id="node20" class="node">
<title>Node30</title>
<g id="a_node20"><a xlink:href="_parameter4_d_8h.html" target="_top" xlink:title="Parameter4D.h">
<polygon fill="none" stroke="#000000" points="175.7193,-275.5 175.7193,-293.5 259.527,-293.5 259.527,-275.5 175.7193,-275.5"/>
<text text-anchor="middle" x="217.6232" y="-281.5" font-family="Helvetica,sans-Serif" font-size="10.00" fill="#000000">Parameter4D.h</text>
</a>
</g>
</g>
<!-- Node26&#45;&gt;Node30 -->
<g id="edge41" class="edge">
<title>Node26&#45;&gt;Node30</title>
<path fill="none" stroke="#191970" d="M301.9451,-330.4179C286.0092,-321.7399 261.7573,-308.5334 243.3464,-298.5077"/>
<polygon fill="#191970" stroke="#191970" points="244.7822,-295.3043 234.326,-293.5956 241.4345,-301.4519 244.7822,-295.3043"/>
</g>
<!-- Node31 -->
<g id="node21" class="node">
<title>Node31</title>
<g id="a_node21"><a xlink:href="_segment_8h.html" target="_top" xlink:title="Segment.h">
<polygon fill="none" stroke="#ff0000" points="298.441,-220.5 298.441,-238.5 362.8053,-238.5 362.8053,-220.5 298.441,-220.5"/>
<text text-anchor="middle" x="330.6232" y="-226.5" font-family="Helvetica,sans-Serif" font-size="10.00" fill="#000000">Segment.h</text>
</a>
</g>
</g>
<!-- Node26&#45;&gt;Node31 -->
<g id="edge43" class="edge">
<title>Node26&#45;&gt;Node31</title>
<path fill="none" stroke="#191970" d="M314.4286,-330.2412C309.2841,-317.6482 301.8057,-294.459 306.6232,-275 309.0296,-265.2797 313.9321,-255.3458 318.6825,-247.25"/>
<polygon fill="#191970" stroke="#191970" points="321.6874,-249.046 324.0305,-238.7135 315.7554,-245.3296 321.6874,-249.046"/>
</g>
<!-- Node33 -->
<g id="node22" class="node">
<title>Node33</title>
<g id="a_node22"><a xlink:href="_separator_8h.html" target="_top" xlink:title="Separator.h">
<polygon fill="none" stroke="#000000" points="315.7687,-275.5 315.7687,-293.5 383.4776,-293.5 383.4776,-275.5 315.7687,-275.5"/>
<text text-anchor="middle" x="349.6232" y="-281.5" font-family="Helvetica,sans-Serif" font-size="10.00" fill="#000000">Separator.h</text>
</a>
</g>
</g>
<!-- Node26&#45;&gt;Node33 -->
<g id="edge46" class="edge">
<title>Node26&#45;&gt;Node33</title>
<path fill="none" stroke="#191970" d="M323.7422,-330.4179C327.9796,-322.8998 334.1328,-311.9829 339.3763,-302.6799"/>
<polygon fill="#191970" stroke="#191970" points="342.5318,-304.2096 344.3929,-293.7795 336.4337,-300.7724 342.5318,-304.2096"/>
</g>
<!-- Node34 -->
<g id="node23" class="node">
<title>Node34</title>
<g id="a_node23"><a xlink:href="_rail_node_8h.html" target="_top" xlink:title="../Support/RailNode.h">
<polygon fill="none" stroke="#ff0000" points="1196.818,-165.5 1196.818,-183.5 1308.4283,-183.5 1308.4283,-165.5 1196.818,-165.5"/>
<text text-anchor="middle" x="1252.6232" y="-171.5" font-family="Helvetica,sans-Serif" font-size="10.00" fill="#000000">../Support/RailNode.h</text>
</a>
</g>
</g>
<!-- Node26&#45;&gt;Node34 -->
<g id="edge51" class="edge">
<title>Node26&#45;&gt;Node34</title>
<path fill="none" stroke="#191970" d="M374.4224,-332.5056C488.2979,-317.8982 755.4746,-281.9216 977.6232,-239 1059.4949,-223.1815 1153.9322,-199.9201 1208.1213,-186.0823"/>
<polygon fill="#191970" stroke="#191970" points="1209.2653,-189.4023 1218.083,-183.5288 1207.527,-182.6216 1209.2653,-189.4023"/>
</g>
<!-- Node27&#45;&gt;Node2 -->
<g id="edge36" class="edge">
<title>Node27&#45;&gt;Node2</title>
<path fill="none" stroke="#191970" d="M56.463,-220.4849C63.2062,-205.9128 78.6742,-177.5507 101.6232,-165 145.2015,-141.1671 469.4934,-126.7578 608.0982,-121.6289"/>
<polygon fill="#191970" stroke="#191970" points="608.2825,-125.1246 618.1478,-121.2613 608.0265,-118.1293 608.2825,-125.1246"/>
</g>
<!-- Node28&#45;&gt;Node2 -->
<g id="edge38" class="edge">
<title>Node28&#45;&gt;Node2</title>
<path fill="none" stroke="#191970" d="M68.5275,-275.2603C94.1352,-251.9991 165.5814,-191.0259 237.6232,-165 304.1197,-140.9774 504.6579,-127.7668 607.8224,-122.3946"/>
<polygon fill="#191970" stroke="#191970" points="608.2896,-125.8754 618.0976,-121.8687 607.9317,-118.8845 608.2896,-125.8754"/>
</g>
<!-- Node29&#45;&gt;Node2 -->
<g id="edge40" class="edge">
<title>Node29&#45;&gt;Node2</title>
<path fill="none" stroke="#191970" d="M138.3354,-275.2781C158.3629,-252.059 214.7873,-191.1762 276.6232,-165 334.8213,-140.3637 512.131,-127.6642 607.8154,-122.4498"/>
<polygon fill="#191970" stroke="#191970" points="608.1408,-125.9375 617.94,-121.9094 607.7676,-118.9475 608.1408,-125.9375"/>
</g>
<!-- Node30&#45;&gt;Node2 -->
<g id="edge42" class="edge">
<title>Node30&#45;&gt;Node2</title>
<path fill="none" stroke="#191970" d="M221.0624,-275.3446C230.2568,-252.2813 257.798,-191.734 302.6232,-165 352.7326,-135.1144 516.3788,-124.739 607.6568,-121.2281"/>
<polygon fill="#191970" stroke="#191970" points="608.0127,-124.7175 617.8772,-120.8521 607.7552,-117.7223 608.0127,-124.7175"/>
</g>
<!-- Node31&#45;&gt;Node2 -->
<g id="edge45" class="edge">
<title>Node31&#45;&gt;Node2</title>
<path fill="none" stroke="#191970" d="M328.2875,-220.152C325.4035,-206.1442 322.4618,-179.7784 336.6232,-165 355.0632,-145.7565 516.3907,-130.8602 607.9091,-123.8686"/>
<polygon fill="#191970" stroke="#191970" points="608.1873,-127.3577 617.8959,-123.1159 607.6611,-120.3775 608.1873,-127.3577"/>
</g>
<!-- Node31&#45;&gt;Node17 -->
<g id="edge44" class="edge">
<title>Node31&#45;&gt;Node17</title>
<path fill="none" stroke="#191970" d="M337.5586,-220.4179C343.481,-212.6624 352.1653,-201.29 359.4096,-191.8035"/>
<polygon fill="#191970" stroke="#191970" points="362.2495,-193.8514 365.537,-183.7795 356.6862,-189.6029 362.2495,-193.8514"/>
</g>
<!-- Node33&#45;&gt;Node2 -->
<g id="edge49" class="edge">
<title>Node33&#45;&gt;Node2</title>
<path fill="none" stroke="#191970" d="M329.4381,-275.3585C315.4385,-267.8069 297.881,-255.626 289.6232,-239 274.6344,-208.8223 322.3871,-165.7988 323.6232,-165 369.3346,-135.4581 521.013,-124.9807 607.9529,-121.3524"/>
<polygon fill="#191970" stroke="#191970" points="608.1123,-124.8489 617.9647,-120.9529 607.8331,-117.8545 608.1123,-124.8489"/>
</g>
<!-- Node33&#45;&gt;Node25 -->
<g id="edge47" class="edge">
<title>Node33&#45;&gt;Node25</title>
<path fill="none" stroke="#191970" d="M362.5033,-275.4179C374.3585,-267.0584 392.1734,-254.4966 406.1747,-244.6239"/>
<polygon fill="#191970" stroke="#191970" points="408.5683,-247.2188 414.7239,-238.5956 404.5343,-241.498 408.5683,-247.2188"/>
</g>
<!-- Node33&#45;&gt;Node31 -->
<g id="edge48" class="edge">
<title>Node33&#45;&gt;Node31</title>
<path fill="none" stroke="#191970" d="M346.4857,-275.4179C343.9432,-268.0581 340.2755,-257.441 337.1072,-248.2695"/>
<polygon fill="#191970" stroke="#191970" points="340.4022,-247.0885 333.8288,-238.7795 333.7859,-249.3742 340.4022,-247.0885"/>
</g>
<!-- Node34&#45;&gt;Node1 -->
<g id="edge53" class="edge">
<title>Node34&#45;&gt;Node1</title>
<path fill="none" stroke="#191970" d="M1302.8102,-165.4795C1366.3927,-154.0512 1474.0656,-134.6983 1527.135,-125.1596"/>
<polygon fill="#191970" stroke="#191970" points="1527.7685,-128.602 1536.9915,-123.388 1526.5301,-121.7124 1527.7685,-128.602"/>
</g>
<!-- Node34&#45;&gt;Node2 -->
<g id="edge52" class="edge">
<title>Node34&#45;&gt;Node2</title>
<path fill="none" stroke="#191970" d="M1196.6302,-166.1084C1193.5856,-165.7171 1190.5683,-165.3445 1187.6232,-165 1024.2108,-145.8835 830.8876,-130.8892 733.4587,-123.8622"/>
<polygon fill="#191970" stroke="#191970" points="733.4215,-120.3506 723.1966,-123.1259 732.9205,-127.3326 733.4215,-120.3506"/>
</g>
<!-- Node37&#45;&gt;Node1 -->
<g id="edge55" class="edge">
<title>Node37&#45;&gt;Node1</title>
<path fill="none" stroke="#191970" d="M757.2176,-337.2636C952.2245,-329.2131 1603.2254,-301.7778 1610.6232,-294 1650.1364,-252.4571 1634.3142,-217.2096 1610.6232,-165 1604.9692,-152.54 1594.0305,-142.1506 1583.6388,-134.4602"/>
<polygon fill="#191970" stroke="#191970" points="1585.3927,-131.4191 1575.1664,-128.6489 1581.4332,-137.1916 1585.3927,-131.4191"/>
</g>
<!-- Node37&#45;&gt;Node2 -->
<g id="edge56" class="edge">
<title>Node37&#45;&gt;Node2</title>
<path fill="none" stroke="#191970" d="M700.7386,-330.4311C695.8473,-306.5674 682.6404,-240.0071 675.6232,-184 673.7224,-168.8297 672.4294,-151.5556 671.6351,-138.7043"/>
<polygon fill="#191970" stroke="#191970" points="675.1291,-138.4968 671.0629,-128.7134 668.1405,-138.8972 675.1291,-138.4968"/>
</g>
<!-- Node37&#45;&gt;Node24 -->
<g id="edge57" class="edge">
<title>Node37&#45;&gt;Node24</title>
<path fill="none" stroke="#191970" d="M671.7439,-330.4179C640.1143,-321.115 590.7905,-306.608 556.0636,-296.3943"/>
<polygon fill="#191970" stroke="#191970" points="556.8187,-292.9682 546.2375,-293.5042 554.8435,-299.6837 556.8187,-292.9682"/>
</g>
<!-- Node37&#45;&gt;Node31 -->
<g id="edge58" class="edge">
<title>Node37&#45;&gt;Node31</title>
<path fill="none" stroke="#191970" d="M686.3443,-330.39C660.7702,-316.4535 609.2762,-289.8935 562.6232,-275 483.3046,-249.6785 457.9852,-256.2183 372.6771,-239.1194"/>
<polygon fill="#191970" stroke="#191970" points="373.3242,-235.6793 362.8242,-237.0938 371.9146,-242.5359 373.3242,-235.6793"/>
</g>
<!-- Node38&#45;&gt;Node1 -->
<g id="edge68" class="edge">
<title>Node38&#45;&gt;Node1</title>
<path fill="none" stroke="#191970" d="M893.5518,-221.9451C898.9671,-221.2293 904.4073,-220.5623 909.6232,-220 1138.1896,-195.3594 1203.4945,-243.2337 1425.6232,-184 1466.699,-173.0465 1510.3062,-149.2607 1535.969,-133.8366"/>
<polygon fill="#191970" stroke="#191970" points="1537.8706,-136.7764 1544.5739,-128.5717 1534.2172,-130.8054 1537.8706,-136.7764"/>
</g>
<!-- Node38&#45;&gt;Node2 -->
<g id="edge60" class="edge">
<title>Node38&#45;&gt;Node2</title>
<path fill="none" stroke="#191970" d="M820.322,-220.3574C799.8962,-212.1796 770.3242,-199.1649 746.6232,-184 724.4841,-169.8346 701.8647,-149.7754 687.1268,-135.8011"/>
<polygon fill="#191970" stroke="#191970" points="689.4313,-133.1612 679.8031,-128.7398 684.5727,-138.2004 689.4313,-133.1612"/>
</g>
<!-- Node39 -->
<g id="node26" class="node">
<title>Node39</title>
<g id="a_node26"><a xlink:href="_footer_8h.html" target="_top" xlink:title="Footer.h">
<polygon fill="none" stroke="#000000" points="755.276,-165.5 755.276,-183.5 807.9703,-183.5 807.9703,-165.5 755.276,-165.5"/>
<text text-anchor="middle" x="781.6232" y="-171.5" font-family="Helvetica,sans-Serif" font-size="10.00" fill="#000000">Footer.h</text>
</a>
</g>
</g>
<!-- Node38&#45;&gt;Node39 -->
<g id="edge61" class="edge">
<title>Node38&#45;&gt;Node39</title>
<path fill="none" stroke="#191970" d="M834.22,-220.4179C824.8832,-212.2667 810.9699,-200.1201 799.798,-190.3669"/>
<polygon fill="#191970" stroke="#191970" points="802.0874,-187.7194 792.2524,-183.7795 797.4837,-192.9927 802.0874,-187.7194"/>
</g>
<!-- Node40 -->
<g id="node27" class="node">
<title>Node40</title>
<g id="a_node27"><a xlink:href="_free_node_8h.html" target="_top" xlink:title="FreeNode.h">
<polygon fill="none" stroke="#000000" points="826.2193,-165.5 826.2193,-183.5 895.027,-183.5 895.027,-165.5 826.2193,-165.5"/>
<text text-anchor="middle" x="860.6232" y="-171.5" font-family="Helvetica,sans-Serif" font-size="10.00" fill="#000000">FreeNode.h</text>
</a>
</g>
</g>
<!-- Node38&#45;&gt;Node40 -->
<g id="edge63" class="edge">
<title>Node38&#45;&gt;Node40</title>
<path fill="none" stroke="#191970" d="M847.2652,-220.4179C849.3832,-213.1372 852.4285,-202.669 855.0767,-193.5659"/>
<polygon fill="#191970" stroke="#191970" points="858.491,-194.3591 857.9237,-183.7795 851.7696,-192.4037 858.491,-194.3591"/>
</g>
<!-- Node41 -->
<g id="node28" class="node">
<title>Node41</title>
<g id="a_node28"><a xlink:href="_beam_8h.html" target="_top" xlink:title="Beam.h">
<polygon fill="none" stroke="#ff0000" points="1128.3917,-165.5 1128.3917,-183.5 1178.8546,-183.5 1178.8546,-165.5 1128.3917,-165.5"/>
<text text-anchor="middle" x="1153.6232" y="-171.5" font-family="Helvetica,sans-Serif" font-size="10.00" fill="#000000">Beam.h</text>
</a>
</g>
</g>
<!-- Node38&#45;&gt;Node41 -->
<g id="edge65" class="edge">
<title>Node38&#45;&gt;Node41</title>
<path fill="none" stroke="#191970" d="M893.2443,-220.8457C955.6745,-209.7336 1062.5456,-190.7112 1117.9572,-180.8483"/>
<polygon fill="#191970" stroke="#191970" points="1118.7721,-184.2584 1128.004,-179.06 1117.5454,-177.3667 1118.7721,-184.2584"/>
</g>
<!-- Node39&#45;&gt;Node2 -->
<g id="edge62" class="edge">
<title>Node39&#45;&gt;Node2</title>
<path fill="none" stroke="#191970" d="M763.2938,-165.4179C745.5391,-156.6205 718.3917,-143.1691 698.0616,-133.0956"/>
<polygon fill="#191970" stroke="#191970" points="699.4941,-129.8994 688.9798,-128.5956 696.3862,-136.1716 699.4941,-129.8994"/>
</g>
<!-- Node40&#45;&gt;Node2 -->
<g id="edge64" class="edge">
<title>Node40&#45;&gt;Node2</title>
<path fill="none" stroke="#191970" d="M829.2485,-165.4179C797.1115,-156.115 746.9964,-141.608 711.7124,-131.3943"/>
<polygon fill="#191970" stroke="#191970" points="712.3075,-127.9229 701.7286,-128.5042 710.361,-134.6468 712.3075,-127.9229"/>
</g>
<!-- Node41&#45;&gt;Node1 -->
<g id="edge67" class="edge">
<title>Node41&#45;&gt;Node1</title>
<path fill="none" stroke="#191970" d="M1179.1433,-166.9253C1181.9897,-166.2132 1184.8585,-165.5525 1187.6232,-165 1311.5405,-140.2356 1461.6085,-126.8189 1526.3396,-121.8155"/>
<polygon fill="#191970" stroke="#191970" points="1526.9885,-125.2765 1536.6955,-121.031 1526.4597,-118.2965 1526.9885,-125.2765"/>
</g>
<!-- Node41&#45;&gt;Node2 -->
<g id="edge66" class="edge">
<title>Node41&#45;&gt;Node2</title>
<path fill="none" stroke="#191970" d="M1128.1341,-167.7616C1123.6537,-166.7291 1119.0185,-165.7569 1114.6232,-165 979.7871,-141.7811 819.7271,-128.946 733.3851,-123.2167"/>
<polygon fill="#191970" stroke="#191970" points="733.4347,-119.7125 723.2277,-122.553 732.9782,-126.6976 733.4347,-119.7125"/>
</g>
<!-- Node45&#45;&gt;Node1 -->
<g id="edge71" class="edge">
<title>Node45&#45;&gt;Node1</title>
<path fill="none" stroke="#191970" d="M968.7652,-228.4767C1070.4991,-224.1947 1448.4976,-206.8701 1496.6232,-184 1518.232,-173.7311 1536.2829,-152.4689 1547.2345,-137.16"/>
<polygon fill="#191970" stroke="#191970" points="1550.3639,-138.7832 1553.1043,-128.5489 1544.5798,-134.8404 1550.3639,-138.7832"/>
</g>
<!-- Node45&#45;&gt;Node2 -->
<g id="edge70" class="edge">
<title>Node45&#45;&gt;Node2</title>
<path fill="none" stroke="#191970" d="M940.6453,-220.3326C935.5098,-206.0692 923.5745,-178.7749 903.6232,-165 876.5307,-146.2947 792.5123,-133.216 733.1686,-126.0259"/>
<polygon fill="#191970" stroke="#191970" points="733.4751,-122.5378 723.1328,-124.8372 732.6517,-129.4892 733.4751,-122.5378"/>
</g>
<!-- Node46 -->
<g id="node30" class="node">
<title>Node46</title>
<g id="a_node30"><a xlink:href="_resource_file_8h.html" target="_top" xlink:title="ResourceFile.h">
<polygon fill="none" stroke="#000000" points="950.9977,-165.5 950.9977,-183.5 1034.2486,-183.5 1034.2486,-165.5 950.9977,-165.5"/>
<text text-anchor="middle" x="992.6232" y="-171.5" font-family="Helvetica,sans-Serif" font-size="10.00" fill="#000000">ResourceFile.h</text>
</a>
</g>
</g>
<!-- Node45&#45;&gt;Node46 -->
<g id="edge72" class="edge">
<title>Node45&#45;&gt;Node46</title>
<path fill="none" stroke="#191970" d="M951.7145,-220.4179C958.6944,-212.5833 968.9628,-201.0575 977.4655,-191.5137"/>
<polygon fill="#191970" stroke="#191970" points="980.3172,-193.5743 984.356,-183.7795 975.0906,-188.9178 980.3172,-193.5743"/>
</g>
<!-- Node46&#45;&gt;Node2 -->
<g id="edge73" class="edge">
<title>Node46&#45;&gt;Node2</title>
<path fill="none" stroke="#191970" d="M950.8574,-167.3661C895.535,-157.9166 797.4806,-141.1682 733.2674,-130.2001"/>
<polygon fill="#191970" stroke="#191970" points="733.7104,-126.7252 723.2639,-128.4914 732.5318,-133.6252 733.7104,-126.7252"/>
</g>
<!-- Node47&#45;&gt;Node1 -->
<g id="edge76" class="edge">
<title>Node47&#45;&gt;Node1</title>
<path fill="none" stroke="#191970" d="M1704.7255,-165.4179C1673.1897,-155.5066 1622.8583,-139.6882 1590.2758,-129.448"/>
<polygon fill="#191970" stroke="#191970" points="1590.9565,-125.9932 1580.3671,-126.3338 1588.8576,-132.6711 1590.9565,-125.9932"/>
</g>
<!-- Node47&#45;&gt;Node2 -->
<g id="edge75" class="edge">
<title>Node47&#45;&gt;Node2</title>
<path fill="none" stroke="#191970" d="M1700.3496,-172.7784C1549.9859,-164.9985 932.6513,-133.0574 733.1308,-122.7342"/>
<polygon fill="#191970" stroke="#191970" points="733.2747,-119.237 723.1072,-122.2155 732.913,-126.2277 733.2747,-119.237"/>
</g>
</g>
</svg>
