<?xml version="1.0" encoding="UTF-8" standalone="no"?>
<!DOCTYPE svg PUBLIC "-//W3C//DTD SVG 1.1//EN"
 "http://www.w3.org/Graphics/SVG/1.1/DTD/svg11.dtd">
<!-- Generated by graphviz version 2.40.1 (20161225.0304)
 -->
<!-- Title: libnolimits/NL2/Coaster/Coaster.cpp Pages: 1 -->
<svg width="887pt" height="312pt"
 viewBox="0.00 0.00 887.06 312.00" xmlns="http://www.w3.org/2000/svg" xmlns:xlink="http://www.w3.org/1999/xlink">
<g id="graph0" class="graph" transform="scale(1 1) rotate(0) translate(4 308)">
<title>libnolimits/NL2/Coaster/Coaster.cpp</title>
<!-- Node0 -->
<g id="node1" class="node">
<title>Node0</title>
<polygon fill="#bfbfbf" stroke="#000000" points="498.9697,-275.5 498.9697,-303.5 617.7871,-303.5 617.7871,-275.5 498.9697,-275.5"/>
<text text-anchor="start" x="506.9697" y="-291.5" font-family="Helvetica,sans-Serif" font-size="10.00" fill="#000000">libnolimits/NL2/Coaster</text>
<text text-anchor="middle" x="558.3784" y="-281.5" font-family="Helvetica,sans-Serif" font-size="10.00" fill="#000000">/Coaster.cpp</text>
</g>
<!-- Node1 -->
<g id="node2" class="node">
<title>Node1</title>
<g id="a_node2"><a xlink:href="_coaster_8h.html" target="_top" xlink:title="Coaster.h">
<polygon fill="none" stroke="#000000" points="453.9746,-220.5 453.9746,-238.5 512.7822,-238.5 512.7822,-220.5 453.9746,-220.5"/>
<text text-anchor="middle" x="483.3784" y="-226.5" font-family="Helvetica,sans-Serif" font-size="10.00" fill="#000000">Coaster.h</text>
</a>
</g>
</g>
<!-- Node0&#45;&gt;Node1 -->
<g id="edge1" class="edge">
<title>Node0&#45;&gt;Node1</title>
<path fill="none" stroke="#191970" d="M540.6045,-275.2808C529.1714,-266.1344 514.3184,-254.252 502.6098,-244.8851"/>
<polygon fill="#191970" stroke="#191970" points="504.7288,-242.0981 494.7337,-238.5842 500.3559,-247.5642 504.7288,-242.0981"/>
</g>
<!-- Node12 -->
<g id="node16" class="node">
<title>Node12</title>
<polygon fill="none" stroke="#bfbfbf" points="531.2061,-220.5 531.2061,-238.5 585.5508,-238.5 585.5508,-220.5 531.2061,-220.5"/>
<text text-anchor="middle" x="558.3784" y="-226.5" font-family="Helvetica,sans-Serif" font-size="10.00" fill="#000000">iostream</text>
</g>
<!-- Node0&#45;&gt;Node12 -->
<g id="edge36" class="edge">
<title>Node0&#45;&gt;Node12</title>
<path fill="none" stroke="#191970" d="M558.3784,-275.2808C558.3784,-267.3776 558.3784,-257.4316 558.3784,-248.8308"/>
<polygon fill="#191970" stroke="#191970" points="561.8785,-248.5842 558.3784,-238.5842 554.8785,-248.5842 561.8785,-248.5842"/>
</g>
<!-- Node49 -->
<g id="node17" class="node">
<title>Node49</title>
<polygon fill="none" stroke="#bfbfbf" points="603.8145,-220.5 603.8145,-238.5 660.9424,-238.5 660.9424,-220.5 603.8145,-220.5"/>
<text text-anchor="middle" x="632.3784" y="-226.5" font-family="Helvetica,sans-Serif" font-size="10.00" fill="#000000">algorithm</text>
</g>
<!-- Node0&#45;&gt;Node49 -->
<g id="edge37" class="edge">
<title>Node0&#45;&gt;Node49</title>
<path fill="none" stroke="#191970" d="M575.9154,-275.2808C587.196,-266.1344 601.8509,-254.252 613.4035,-244.8851"/>
<polygon fill="#191970" stroke="#191970" points="615.6113,-247.6009 621.1746,-238.5842 611.2027,-242.1636 615.6113,-247.6009"/>
</g>
<!-- Node2 -->
<g id="node3" class="node">
<title>Node2</title>
<polygon fill="none" stroke="#bfbfbf" points="384.7627,-110.5 384.7627,-128.5 427.9941,-128.5 427.9941,-110.5 384.7627,-110.5"/>
<text text-anchor="middle" x="406.3784" y="-116.5" font-family="Helvetica,sans-Serif" font-size="10.00" fill="#000000">vector</text>
</g>
<!-- Node1&#45;&gt;Node2 -->
<g id="edge2" class="edge">
<title>Node1&#45;&gt;Node2</title>
<path fill="none" stroke="#191970" d="M466.7973,-220.4082C453.7352,-212.4334 436.0113,-199.6752 425.3784,-184 416.1631,-170.4145 411.3388,-152.2917 408.8621,-138.7158"/>
<polygon fill="#191970" stroke="#191970" points="412.2815,-137.9258 407.289,-128.581 405.3643,-138.9995 412.2815,-137.9258"/>
</g>
<!-- Node3 -->
<g id="node4" class="node">
<title>Node3</title>
<g id="a_node4"><a xlink:href="_chunk_8h.html" target="_top" xlink:title="../../Stream/Chunk.h">
<polygon fill="none" stroke="#ff0000" points="475.9155,-.5 475.9155,-18.5 580.8413,-18.5 580.8413,-.5 475.9155,-.5"/>
<text text-anchor="middle" x="528.3784" y="-6.5" font-family="Helvetica,sans-Serif" font-size="10.00" fill="#000000">../../Stream/Chunk.h</text>
</a>
</g>
</g>
<!-- Node1&#45;&gt;Node3 -->
<g id="edge3" class="edge">
<title>Node1&#45;&gt;Node3</title>
<path fill="none" stroke="#191970" d="M513.1662,-222.1419C516.2738,-221.4049 519.3882,-220.6788 522.3784,-220 598.1175,-202.8073 644.443,-244.3103 693.3784,-184 745.2458,-120.0762 618.9649,-50.959 558.4746,-22.6817"/>
<polygon fill="#191970" stroke="#191970" points="559.9169,-19.4927 549.3685,-18.5011 556.9962,-25.8543 559.9169,-19.4927"/>
</g>
<!-- Node18 -->
<g id="node5" class="node">
<title>Node18</title>
<g id="a_node5"><a xlink:href="_colors_8h.html" target="_top" xlink:title="Colors.h">
<polygon fill="none" stroke="#000000" points="719.7603,-55.5 719.7603,-73.5 772.9966,-73.5 772.9966,-55.5 719.7603,-55.5"/>
<text text-anchor="middle" x="746.3784" y="-61.5" font-family="Helvetica,sans-Serif" font-size="10.00" fill="#000000">Colors.h</text>
</a>
</g>
</g>
<!-- Node1&#45;&gt;Node18 -->
<g id="edge4" class="edge">
<title>Node1&#45;&gt;Node18</title>
<path fill="none" stroke="#191970" d="M513.1441,-222.0408C516.256,-221.3234 519.3775,-220.6296 522.3784,-220 612.4843,-201.0954 661.5653,-249.3889 726.3784,-184 752.6929,-157.4517 752.1118,-110.1797 749.2948,-83.7471"/>
<polygon fill="#191970" stroke="#191970" points="752.726,-82.9872 747.9773,-73.5162 745.7833,-83.8813 752.726,-82.9872"/>
</g>
<!-- Node19 -->
<g id="node6" class="node">
<title>Node19</title>
<g id="a_node6"><a xlink:href="_style_8h.html" target="_top" xlink:title="Style.h">
<polygon fill="none" stroke="#000000" points="778.0928,-110.5 778.0928,-128.5 824.6641,-128.5 824.6641,-110.5 778.0928,-110.5"/>
<text text-anchor="middle" x="801.3784" y="-116.5" font-family="Helvetica,sans-Serif" font-size="10.00" fill="#000000">Style.h</text>
</a>
</g>
</g>
<!-- Node1&#45;&gt;Node19 -->
<g id="edge6" class="edge">
<title>Node1&#45;&gt;Node19</title>
<path fill="none" stroke="#191970" d="M513.1272,-221.9573C516.2424,-221.2563 519.3693,-220.589 522.3784,-220 629.0922,-199.1106 674.5604,-245.2937 764.3784,-184 780.1667,-173.2258 790.0689,-153.3386 795.6124,-138.4838"/>
<polygon fill="#191970" stroke="#191970" points="799.0131,-139.3531 798.9004,-128.7589 792.3818,-137.1111 799.0131,-139.3531"/>
</g>
<!-- Node20 -->
<g id="node7" class="node">
<title>Node20</title>
<g id="a_node7"><a xlink:href="_mode_8h.html" target="_top" xlink:title="Mode.h">
<polygon fill="none" stroke="#ff0000" points="829.7012,-55.5 829.7012,-73.5 879.0557,-73.5 879.0557,-55.5 829.7012,-55.5"/>
<text text-anchor="middle" x="854.3784" y="-61.5" font-family="Helvetica,sans-Serif" font-size="10.00" fill="#000000">Mode.h</text>
</a>
</g>
</g>
<!-- Node1&#45;&gt;Node20 -->
<g id="edge8" class="edge">
<title>Node1&#45;&gt;Node20</title>
<path fill="none" stroke="#191970" d="M513.1199,-221.9197C516.2366,-221.226 519.3657,-220.5708 522.3784,-220 638.728,-197.9574 682.433,-240.7315 786.3784,-184 824.4829,-163.2033 842.7657,-111.6482 850.1596,-83.5306"/>
<polygon fill="#191970" stroke="#191970" points="853.5883,-84.2428 852.5493,-73.6991 846.7863,-82.5895 853.5883,-84.2428"/>
</g>
<!-- Node22 -->
<g id="node8" class="node">
<title>Node22</title>
<g id="a_node8"><a xlink:href="_train_8h.html" target="_top" xlink:title="Train.h">
<polygon fill="none" stroke="#ff0000" points="0,-165.5 0,-183.5 46.7568,-183.5 46.7568,-165.5 0,-165.5"/>
<text text-anchor="middle" x="23.3784" y="-171.5" font-family="Helvetica,sans-Serif" font-size="10.00" fill="#000000">Train.h</text>
</a>
</g>
</g>
<!-- Node1&#45;&gt;Node22 -->
<g id="edge10" class="edge">
<title>Node1&#45;&gt;Node22</title>
<path fill="none" stroke="#191970" d="M453.9389,-227.7992C384.7982,-223.4867 206.8242,-210.5338 60.3784,-184 59.3017,-183.8049 58.21,-183.5955 57.1099,-183.3744"/>
<polygon fill="#191970" stroke="#191970" points="57.6747,-179.9143 47.1512,-181.1417 56.1433,-186.7447 57.6747,-179.9143"/>
</g>
<!-- Node25 -->
<g id="node9" class="node">
<title>Node25</title>
<g id="a_node9"><a xlink:href="_track_8h.html" target="_top" xlink:title="Track/Track.h">
<polygon fill="none" stroke="#000000" points="113.1855,-110.5 113.1855,-128.5 189.5713,-128.5 189.5713,-110.5 113.1855,-110.5"/>
<text text-anchor="middle" x="151.3784" y="-116.5" font-family="Helvetica,sans-Serif" font-size="10.00" fill="#000000">Track/Track.h</text>
</a>
</g>
</g>
<!-- Node1&#45;&gt;Node25 -->
<g id="edge13" class="edge">
<title>Node1&#45;&gt;Node25</title>
<path fill="none" stroke="#191970" d="M453.6793,-228.2663C366.7248,-224.3525 117.2863,-210.8593 93.3784,-184 77.8901,-166.5996 102.296,-146.6776 124.0392,-133.6344"/>
<polygon fill="#191970" stroke="#191970" points="125.8103,-136.6536 132.7635,-128.6596 122.3428,-130.5728 125.8103,-136.6536"/>
</g>
<!-- Node26 -->
<g id="node10" class="node">
<title>Node26</title>
<g id="a_node10"><a xlink:href="_section_8h.html" target="_top" xlink:title="Section/Section.h">
<polygon fill="none" stroke="#000000" points="201.4648,-55.5 201.4648,-73.5 295.292,-73.5 295.292,-55.5 201.4648,-55.5"/>
<text text-anchor="middle" x="248.3784" y="-61.5" font-family="Helvetica,sans-Serif" font-size="10.00" fill="#000000">Section/Section.h</text>
</a>
</g>
</g>
<!-- Node1&#45;&gt;Node26 -->
<g id="edge17" class="edge">
<title>Node1&#45;&gt;Node26</title>
<path fill="none" stroke="#191970" d="M453.5766,-227.7387C398.687,-223.8331 284.8806,-212.434 259.3784,-184 234.6695,-156.4505 238.9534,-109.6011 243.8923,-83.4971"/>
<polygon fill="#191970" stroke="#191970" points="247.3201,-84.2046 245.9665,-73.6966 240.4718,-82.7552 247.3201,-84.2046"/>
</g>
<!-- Node27 -->
<g id="node11" class="node">
<title>Node27</title>
<g id="a_node11"><a xlink:href="_custom_track_8h.html" target="_top" xlink:title="Track/CustomTrack.h">
<polygon fill="none" stroke="#ff0000" points="101.959,-165.5 101.959,-183.5 212.7979,-183.5 212.7979,-165.5 101.959,-165.5"/>
<text text-anchor="middle" x="157.3784" y="-171.5" font-family="Helvetica,sans-Serif" font-size="10.00" fill="#000000">Track/CustomTrack.h</text>
</a>
</g>
</g>
<!-- Node1&#45;&gt;Node27 -->
<g id="edge18" class="edge">
<title>Node1&#45;&gt;Node27</title>
<path fill="none" stroke="#191970" d="M453.8731,-224.5221C401.5129,-215.6883 291.2536,-197.0863 220.9428,-185.2241"/>
<polygon fill="#191970" stroke="#191970" points="221.3135,-181.7372 210.8706,-183.5247 220.1489,-188.6397 221.3135,-181.7372"/>
</g>
<!-- Node38 -->
<g id="node12" class="node">
<title>Node38</title>
<g id="a_node12"><a xlink:href="_special_track_8h.html" target="_top" xlink:title="Track/SpecialTrack.h">
<polygon fill="none" stroke="#ff0000" points="268.7866,-165.5 268.7866,-183.5 377.9702,-183.5 377.9702,-165.5 268.7866,-165.5"/>
<text text-anchor="middle" x="323.3784" y="-171.5" font-family="Helvetica,sans-Serif" font-size="10.00" fill="#000000">Track/SpecialTrack.h</text>
</a>
</g>
</g>
<!-- Node1&#45;&gt;Node38 -->
<g id="edge23" class="edge">
<title>Node1&#45;&gt;Node38</title>
<path fill="none" stroke="#191970" d="M456.9577,-220.4179C430.2434,-211.2348 388.7769,-196.9807 359.1337,-186.7909"/>
<polygon fill="#191970" stroke="#191970" points="360.1672,-183.4452 349.5725,-183.5042 357.8916,-190.065 360.1672,-183.4452"/>
</g>
<!-- Node39 -->
<g id="node13" class="node">
<title>Node39</title>
<g id="a_node13"><a xlink:href="_support_8h.html" target="_top" xlink:title="Support/Support.h">
<polygon fill="none" stroke="#ff0000" points="434.7949,-165.5 434.7949,-183.5 531.9619,-183.5 531.9619,-165.5 434.7949,-165.5"/>
<text text-anchor="middle" x="483.3784" y="-171.5" font-family="Helvetica,sans-Serif" font-size="10.00" fill="#000000">Support/Support.h</text>
</a>
</g>
</g>
<!-- Node1&#45;&gt;Node39 -->
<g id="edge27" class="edge">
<title>Node1&#45;&gt;Node39</title>
<path fill="none" stroke="#191970" d="M483.3784,-220.4179C483.3784,-213.2164 483.3784,-202.8962 483.3784,-193.8632"/>
<polygon fill="#191970" stroke="#191970" points="486.8785,-193.7794 483.3784,-183.7795 479.8785,-193.7795 486.8785,-193.7794"/>
</g>
<!-- Node46 -->
<g id="node14" class="node">
<title>Node46</title>
<g id="a_node14"><a xlink:href="_script_8h.html" target="_top" xlink:title="Script.h">
<polygon fill="none" stroke="#ff0000" points="550.4277,-165.5 550.4277,-183.5 600.3291,-183.5 600.3291,-165.5 550.4277,-165.5"/>
<text text-anchor="middle" x="575.3784" y="-171.5" font-family="Helvetica,sans-Serif" font-size="10.00" fill="#000000">Script.h</text>
</a>
</g>
</g>
<!-- Node1&#45;&gt;Node46 -->
<g id="edge30" class="edge">
<title>Node1&#45;&gt;Node46</title>
<path fill="none" stroke="#191970" d="M498.5703,-220.4179C512.953,-211.8195 534.7723,-198.7754 551.4845,-188.7844"/>
<polygon fill="#191970" stroke="#191970" points="553.3767,-191.731 560.1639,-183.5956 549.7848,-185.7228 553.3767,-191.731"/>
</g>
<!-- Node48 -->
<g id="node15" class="node">
<title>Node48</title>
<g id="a_node15"><a xlink:href="_file_script_8h.html" target="_top" xlink:title="FileScript.h">
<polygon fill="none" stroke="#000000" points="618.3711,-165.5 618.3711,-183.5 684.3857,-183.5 684.3857,-165.5 618.3711,-165.5"/>
<text text-anchor="middle" x="651.3784" y="-171.5" font-family="Helvetica,sans-Serif" font-size="10.00" fill="#000000">FileScript.h</text>
</a>
</g>
</g>
<!-- Node1&#45;&gt;Node48 -->
<g id="edge33" class="edge">
<title>Node1&#45;&gt;Node48</title>
<path fill="none" stroke="#191970" d="M511.1202,-220.4179C539.2922,-211.1949 583.0889,-196.8567 614.2406,-186.6582"/>
<polygon fill="#191970" stroke="#191970" points="615.46,-189.9419 623.8746,-183.5042 613.282,-183.2893 615.46,-189.9419"/>
</g>
<!-- Node18&#45;&gt;Node3 -->
<g id="edge5" class="edge">
<title>Node18&#45;&gt;Node3</title>
<path fill="none" stroke="#191970" d="M719.6473,-57.7559C683.4679,-48.6281 618.3779,-32.2063 574.289,-21.0829"/>
<polygon fill="#191970" stroke="#191970" points="574.9444,-17.6387 564.392,-18.586 573.2319,-24.426 574.9444,-17.6387"/>
</g>
<!-- Node19&#45;&gt;Node3 -->
<g id="edge7" class="edge">
<title>Node19&#45;&gt;Node3</title>
<path fill="none" stroke="#191970" d="M801.5106,-110.4659C801.1909,-96.3852 798.3731,-69.3367 782.3784,-55 754.8294,-30.3067 657.1013,-18.537 591.2166,-13.2935"/>
<polygon fill="#191970" stroke="#191970" points="591.1693,-9.7798 580.9315,-12.5071 590.6355,-16.7594 591.1693,-9.7798"/>
</g>
<!-- Node20&#45;&gt;Node3 -->
<g id="edge9" class="edge">
<title>Node20&#45;&gt;Node3</title>
<path fill="none" stroke="#191970" d="M829.6888,-58.1636C824.9541,-57.04 820.0245,-55.9325 815.3784,-55 738.6217,-39.5938 649.462,-26.1463 591.141,-17.9439"/>
<polygon fill="#191970" stroke="#191970" points="591.367,-14.4415 580.9789,-16.5239 590.3983,-21.3742 591.367,-14.4415"/>
</g>
<!-- Node22&#45;&gt;Node2 -->
<g id="edge12" class="edge">
<title>Node22&#45;&gt;Node2</title>
<path fill="none" stroke="#191970" d="M46.7602,-171.1423C112.5498,-161.6947 299.3401,-134.871 374.4865,-124.0798"/>
<polygon fill="#191970" stroke="#191970" points="375.335,-127.4939 384.7359,-122.6079 374.3399,-120.565 375.335,-127.4939"/>
</g>
<!-- Node22&#45;&gt;Node3 -->
<g id="edge11" class="edge">
<title>Node22&#45;&gt;Node3</title>
<path fill="none" stroke="#191970" d="M28.317,-165.2835C41.3074,-142.0768 78.9351,-81.2209 129.3784,-55 186.4368,-25.3405 368.4457,-14.7998 465.7005,-11.225"/>
<polygon fill="#191970" stroke="#191970" points="465.8282,-14.7227 475.6981,-10.8711 465.5805,-7.7271 465.8282,-14.7227"/>
</g>
<!-- Node25&#45;&gt;Node3 -->
<g id="edge14" class="edge">
<title>Node25&#45;&gt;Node3</title>
<path fill="none" stroke="#191970" d="M154.4046,-110.1882C159.6327,-95.7268 171.8183,-68.1663 192.3784,-55 236.3969,-26.8114 381.0422,-15.836 465.5164,-11.7573"/>
<polygon fill="#191970" stroke="#191970" points="465.9336,-15.2418 475.7607,-11.2821 465.6092,-8.2493 465.9336,-15.2418"/>
</g>
<!-- Node25&#45;&gt;Node26 -->
<g id="edge15" class="edge">
<title>Node25&#45;&gt;Node26</title>
<path fill="none" stroke="#191970" d="M167.396,-110.4179C182.5603,-101.8195 205.5655,-88.7754 223.1859,-78.7844"/>
<polygon fill="#191970" stroke="#191970" points="225.3644,-81.5727 232.337,-73.5956 221.9117,-75.4834 225.3644,-81.5727"/>
</g>
<!-- Node26&#45;&gt;Node3 -->
<g id="edge16" class="edge">
<title>Node26&#45;&gt;Node3</title>
<path fill="none" stroke="#191970" d="M294.3012,-55.4795C343.027,-45.9083 420.0504,-30.7787 472.322,-20.5111"/>
<polygon fill="#191970" stroke="#191970" points="473.2927,-23.8874 482.4306,-18.5255 471.9434,-17.0186 473.2927,-23.8874"/>
</g>
<!-- Node27&#45;&gt;Node2 -->
<g id="edge19" class="edge">
<title>Node27&#45;&gt;Node2</title>
<path fill="none" stroke="#191970" d="M198.2169,-165.4795C247.6484,-154.5608 329.8288,-136.4085 374.7205,-126.4927"/>
<polygon fill="#191970" stroke="#191970" points="375.7525,-129.8492 384.7622,-124.2747 374.2426,-123.014 375.7525,-129.8492"/>
</g>
<!-- Node27&#45;&gt;Node3 -->
<g id="edge20" class="edge">
<title>Node27&#45;&gt;Node3</title>
<path fill="none" stroke="#191970" d="M140.2808,-165.3256C121.1014,-153.709 93.9507,-132.4832 104.3784,-110 120.3008,-75.6696 134.7348,-70.229 169.3784,-55 221.0362,-32.2918 376.9664,-19.0487 465.3953,-13.1686"/>
<polygon fill="#191970" stroke="#191970" points="465.82,-16.6484 475.5709,-12.5047 465.3642,-9.6633 465.82,-16.6484"/>
</g>
<!-- Node27&#45;&gt;Node25 -->
<g id="edge21" class="edge">
<title>Node27&#45;&gt;Node25</title>
<path fill="none" stroke="#191970" d="M156.3876,-165.4179C155.602,-158.2164 154.4762,-147.8962 153.4908,-138.8632"/>
<polygon fill="#191970" stroke="#191970" points="156.9546,-138.3409 152.3907,-128.7795 149.9959,-139.1001 156.9546,-138.3409"/>
</g>
<!-- Node27&#45;&gt;Node26 -->
<g id="edge22" class="edge">
<title>Node27&#45;&gt;Node26</title>
<path fill="none" stroke="#191970" d="M166.0653,-165.2678C174.5094,-156.1995 187.6012,-141.8883 198.3784,-129 211.3754,-113.4571 225.4537,-95.1528 235.3498,-82.0219"/>
<polygon fill="#191970" stroke="#191970" points="238.2733,-83.957 241.4681,-73.8553 232.6712,-79.7598 238.2733,-83.957"/>
</g>
<!-- Node38&#45;&gt;Node2 -->
<g id="edge24" class="edge">
<title>Node38&#45;&gt;Node2</title>
<path fill="none" stroke="#191970" d="M337.0842,-165.4179C349.8196,-156.9788 369.0179,-144.257 383.9796,-134.3426"/>
<polygon fill="#191970" stroke="#191970" points="386.2497,-137.037 392.6523,-128.5956 382.383,-131.2019 386.2497,-137.037"/>
</g>
<!-- Node38&#45;&gt;Node3 -->
<g id="edge25" class="edge">
<title>Node38&#45;&gt;Node3</title>
<path fill="none" stroke="#191970" d="M329.3359,-165.4206C338.2844,-152.2163 356.2019,-127.3954 375.3784,-110 415.4825,-73.6208 469.9736,-41.1502 501.9387,-23.4989"/>
<polygon fill="#191970" stroke="#191970" points="503.9891,-26.3675 511.0948,-18.5088 500.6393,-20.2211 503.9891,-26.3675"/>
</g>
<!-- Node38&#45;&gt;Node25 -->
<g id="edge26" class="edge">
<title>Node38&#45;&gt;Node25</title>
<path fill="none" stroke="#191970" d="M294.9761,-165.4179C266.1334,-156.1949 221.2939,-141.8567 189.4005,-131.6582"/>
<polygon fill="#191970" stroke="#191970" points="190.128,-128.2163 179.537,-128.5042 187.9959,-134.8837 190.128,-128.2163"/>
</g>
<!-- Node39&#45;&gt;Node2 -->
<g id="edge29" class="edge">
<title>Node39&#45;&gt;Node2</title>
<path fill="none" stroke="#191970" d="M470.6634,-165.4179C458.9601,-157.0584 441.3737,-144.4966 427.5519,-134.6239"/>
<polygon fill="#191970" stroke="#191970" points="429.284,-131.56 419.1123,-128.5956 425.2153,-137.2561 429.284,-131.56"/>
</g>
<!-- Node39&#45;&gt;Node3 -->
<g id="edge28" class="edge">
<title>Node39&#45;&gt;Node3</title>
<path fill="none" stroke="#191970" d="M485.9267,-165.1561C493.0738,-138.9504 513.4178,-64.3557 523.1142,-28.8021"/>
<polygon fill="#191970" stroke="#191970" points="526.6035,-29.31 525.858,-18.7414 519.8501,-27.4681 526.6035,-29.31"/>
</g>
<!-- Node46&#45;&gt;Node2 -->
<g id="edge32" class="edge">
<title>Node46&#45;&gt;Node2</title>
<path fill="none" stroke="#191970" d="M550.0774,-166.2659C520.1656,-156.5313 470.3649,-140.324 437.9534,-129.7759"/>
<polygon fill="#191970" stroke="#191970" points="438.6808,-126.332 428.0885,-126.5654 436.5145,-132.9883 438.6808,-126.332"/>
</g>
<!-- Node46&#45;&gt;Node3 -->
<g id="edge31" class="edge">
<title>Node46&#45;&gt;Node3</title>
<path fill="none" stroke="#191970" d="M572.7168,-165.1561C565.2522,-138.9504 544.004,-64.3557 533.8766,-28.8021"/>
<polygon fill="#191970" stroke="#191970" points="537.1165,-27.4 531.0108,-18.7414 530.3843,-29.3177 537.1165,-27.4"/>
</g>
<!-- Node48&#45;&gt;Node2 -->
<g id="edge35" class="edge">
<title>Node48&#45;&gt;Node2</title>
<path fill="none" stroke="#191970" d="M618.3648,-167.0262C615.3268,-166.3404 612.2957,-165.6569 609.3784,-165 548.7317,-151.3445 477.871,-135.4834 437.9457,-126.5554"/>
<polygon fill="#191970" stroke="#191970" points="438.5356,-123.1009 428.0128,-124.3345 437.0081,-129.9323 438.5356,-123.1009"/>
</g>
<!-- Node48&#45;&gt;Node3 -->
<g id="edge34" class="edge">
<title>Node48&#45;&gt;Node3</title>
<path fill="none" stroke="#191970" d="M644.413,-165.1561C624.5396,-138.4967 567.3343,-61.7578 541.417,-26.9907"/>
<polygon fill="#191970" stroke="#191970" points="544.0503,-24.667 535.2675,-18.7414 538.438,-28.8507 544.0503,-24.667"/>
</g>
</g>
</svg>
