<?xml version="1.0" encoding="UTF-8" standalone="no"?>
<!DOCTYPE svg PUBLIC "-//W3C//DTD SVG 1.1//EN"
 "http://www.w3.org/Graphics/SVG/1.1/DTD/svg11.dtd">
<!-- Generated by graphviz version 2.40.1 (20161225.0304)
 -->
<!-- Title: libnolimits/NL2/Coaster/Coaster.h Pages: 1 -->
<svg width="263pt" height="157pt"
 viewBox="0.00 0.00 263.04 157.00" xmlns="http://www.w3.org/2000/svg" xmlns:xlink="http://www.w3.org/1999/xlink">
<g id="graph0" class="graph" transform="scale(1 1) rotate(0) translate(4 153)">
<title>libnolimits/NL2/Coaster/Coaster.h</title>
<!-- Node53 -->
<g id="node1" class="node">
<title>Node53</title>
<polygon fill="#bfbfbf" stroke="#000000" points="67,-120.5 67,-148.5 185.8174,-148.5 185.8174,-120.5 67,-120.5"/>
<text text-anchor="start" x="75" y="-136.5" font-family="Helvetica,sans-Serif" font-size="10.00" fill="#000000">libnolimits/NL2/Coaster</text>
<text text-anchor="middle" x="126.4087" y="-126.5" font-family="Helvetica,sans-Serif" font-size="10.00" fill="#000000">/Coaster.h</text>
</g>
<!-- Node54 -->
<g id="node2" class="node">
<title>Node54</title>
<g id="a_node2"><a xlink:href="_coaster_8cpp.html" target="_top" xlink:title="libnolimits/NL2/Coaster\l/Coaster.cpp">
<polygon fill="none" stroke="#000000" points="0,-55.5 0,-83.5 118.8174,-83.5 118.8174,-55.5 0,-55.5"/>
<text text-anchor="start" x="8" y="-71.5" font-family="Helvetica,sans-Serif" font-size="10.00" fill="#000000">libnolimits/NL2/Coaster</text>
<text text-anchor="middle" x="59.4087" y="-61.5" font-family="Helvetica,sans-Serif" font-size="10.00" fill="#000000">/Coaster.cpp</text>
</a>
</g>
</g>
<!-- Node53&#45;&gt;Node54 -->
<g id="edge1" class="edge">
<title>Node53&#45;&gt;Node54</title>
<path fill="none" stroke="#191970" d="M104.5682,-113.3115C94.5179,-103.5612 82.868,-92.259 73.9183,-83.5765"/>
<polygon fill="#191970" stroke="#191970" points="102.2562,-115.9449 111.8707,-120.396 107.1304,-110.9207 102.2562,-115.9449"/>
</g>
<!-- Node55 -->
<g id="node3" class="node">
<title>Node55</title>
<g id="a_node3"><a xlink:href="_park_8h.html" target="_top" xlink:title="libnolimits/NL2/Park.h">
<polygon fill="none" stroke="#000000" points="137.0566,-60.5 137.0566,-78.5 249.7607,-78.5 249.7607,-60.5 137.0566,-60.5"/>
<text text-anchor="middle" x="193.4087" y="-66.5" font-family="Helvetica,sans-Serif" font-size="10.00" fill="#000000">libnolimits/NL2/Park.h</text>
</a>
</g>
</g>
<!-- Node53&#45;&gt;Node55 -->
<g id="edge2" class="edge">
<title>Node53&#45;&gt;Node55</title>
<path fill="none" stroke="#191970" d="M148.1359,-113.4214C160.2825,-101.6373 174.7951,-87.558 184.0552,-78.5743"/>
<polygon fill="#191970" stroke="#191970" points="145.687,-110.9207 140.9467,-120.396 150.5612,-115.9449 145.687,-110.9207"/>
</g>
<!-- Node56 -->
<g id="node4" class="node">
<title>Node56</title>
<g id="a_node4"><a xlink:href="_park_8cpp.html" target="_top" xlink:title="libnolimits/NL2/Park.cpp">
<polygon fill="none" stroke="#000000" points="131.7759,-.5 131.7759,-18.5 255.0415,-18.5 255.0415,-.5 131.7759,-.5"/>
<text text-anchor="middle" x="193.4087" y="-6.5" font-family="Helvetica,sans-Serif" font-size="10.00" fill="#000000">libnolimits/NL2/Park.cpp</text>
</a>
</g>
</g>
<!-- Node55&#45;&gt;Node56 -->
<g id="edge3" class="edge">
<title>Node55&#45;&gt;Node56</title>
<path fill="none" stroke="#191970" d="M193.4087,-50.3734C193.4087,-39.7812 193.4087,-27.0976 193.4087,-18.6985"/>
<polygon fill="#191970" stroke="#191970" points="189.9088,-50.3873 193.4087,-60.3873 196.9088,-50.3873 189.9088,-50.3873"/>
</g>
</g>
</svg>
