<?xml version="1.0" encoding="UTF-8" standalone="no"?>
<!DOCTYPE svg PUBLIC "-//W3C//DTD SVG 1.1//EN"
 "http://www.w3.org/Graphics/SVG/1.1/DTD/svg11.dtd">
<!-- Generated by graphviz version 2.40.1 (20161225.0304)
 -->
<!-- Title: libnolimits/NL2/Coaster/Colors.h Pages: 1 -->
<svg width="575pt" height="362pt"
 viewBox="0.00 0.00 575.46 362.00" xmlns="http://www.w3.org/2000/svg" xmlns:xlink="http://www.w3.org/1999/xlink">
<g id="graph0" class="graph" transform="scale(1 1) rotate(0) translate(4 358)">
<title>libnolimits/NL2/Coaster/Colors.h</title>
<!-- Node16 -->
<g id="node1" class="node">
<title>Node16</title>
<polygon fill="#bfbfbf" stroke="#000000" points="187.6437,-325.5 187.6437,-353.5 306.4611,-353.5 306.4611,-325.5 187.6437,-325.5"/>
<text text-anchor="start" x="195.6437" y="-341.5" font-family="Helvetica,sans-Serif" font-size="10.00" fill="#000000">libnolimits/NL2/Coaster</text>
<text text-anchor="middle" x="247.0524" y="-331.5" font-family="Helvetica,sans-Serif" font-size="10.00" fill="#000000">/Colors.h</text>
</g>
<!-- Node17 -->
<g id="node2" class="node">
<title>Node17</title>
<g id="a_node2"><a xlink:href="_coaster_8h.html" target="_top" xlink:title="libnolimits/NL2/Coaster\l/Coaster.h">
<polygon fill="none" stroke="#000000" points="100.6437,-65.5 100.6437,-93.5 219.4611,-93.5 219.4611,-65.5 100.6437,-65.5"/>
<text text-anchor="start" x="108.6437" y="-81.5" font-family="Helvetica,sans-Serif" font-size="10.00" fill="#000000">libnolimits/NL2/Coaster</text>
<text text-anchor="middle" x="160.0524" y="-71.5" font-family="Helvetica,sans-Serif" font-size="10.00" fill="#000000">/Coaster.h</text>
</a>
</g>
</g>
<!-- Node16&#45;&gt;Node17 -->
<g id="edge1" class="edge">
<title>Node16&#45;&gt;Node17</title>
<path fill="none" stroke="#191970" d="M199.2033,-321.4885C139.4828,-295.9288 40.8404,-242.7171 5.0524,-159 -.0139,-147.1486 -2.5193,-140.4304 5.0524,-130 16.6908,-113.9676 61.9559,-100.3675 100.5878,-91.3342"/>
<polygon fill="#191970" stroke="#191970" points="197.8623,-324.7214 208.4383,-325.3537 200.565,-318.2641 197.8623,-324.7214"/>
</g>
<!-- Node21 -->
<g id="node5" class="node">
<title>Node21</title>
<g id="a_node5"><a xlink:href="_segment_8h.html" target="_top" xlink:title="libnolimits/NL2/Coaster\l/Track/Segment.h">
<polygon fill="none" stroke="#000000" points="187.6437,-260.5 187.6437,-288.5 306.4611,-288.5 306.4611,-260.5 187.6437,-260.5"/>
<text text-anchor="start" x="195.6437" y="-276.5" font-family="Helvetica,sans-Serif" font-size="10.00" fill="#000000">libnolimits/NL2/Coaster</text>
<text text-anchor="middle" x="247.0524" y="-266.5" font-family="Helvetica,sans-Serif" font-size="10.00" fill="#000000">/Track/Segment.h</text>
</a>
</g>
</g>
<!-- Node16&#45;&gt;Node21 -->
<g id="edge4" class="edge">
<title>Node16&#45;&gt;Node21</title>
<path fill="none" stroke="#191970" d="M247.0524,-315.1081C247.0524,-306.1539 247.0524,-296.3227 247.0524,-288.5765"/>
<polygon fill="#191970" stroke="#191970" points="243.5525,-315.3959 247.0524,-325.396 250.5525,-315.396 243.5525,-315.3959"/>
</g>
<!-- Node33 -->
<g id="node12" class="node">
<title>Node33</title>
<g id="a_node12"><a xlink:href="_colors_8cpp.html" target="_top" xlink:title="libnolimits/NL2/Coaster\l/Colors.cpp">
<polygon fill="none" stroke="#000000" points="324.6437,-260.5 324.6437,-288.5 443.4611,-288.5 443.4611,-260.5 324.6437,-260.5"/>
<text text-anchor="start" x="332.6437" y="-276.5" font-family="Helvetica,sans-Serif" font-size="10.00" fill="#000000">libnolimits/NL2/Coaster</text>
<text text-anchor="middle" x="384.0524" y="-266.5" font-family="Helvetica,sans-Serif" font-size="10.00" fill="#000000">/Colors.cpp</text>
</a>
</g>
</g>
<!-- Node16&#45;&gt;Node33 -->
<g id="edge16" class="edge">
<title>Node16&#45;&gt;Node33</title>
<path fill="none" stroke="#191970" d="M286.0615,-320.9921C307.7767,-310.6892 334.3789,-298.0677 354.3835,-288.5765"/>
<polygon fill="#191970" stroke="#191970" points="284.3138,-317.9472 276.7794,-325.396 287.3144,-324.2715 284.3138,-317.9472"/>
</g>
<!-- Node18 -->
<g id="node3" class="node">
<title>Node18</title>
<g id="a_node3"><a xlink:href="_coaster_8cpp.html" target="_top" xlink:title="libnolimits/NL2/Coaster\l/Coaster.cpp">
<polygon fill="none" stroke="#000000" points="33.6437,-.5 33.6437,-28.5 152.4611,-28.5 152.4611,-.5 33.6437,-.5"/>
<text text-anchor="start" x="41.6437" y="-16.5" font-family="Helvetica,sans-Serif" font-size="10.00" fill="#000000">libnolimits/NL2/Coaster</text>
<text text-anchor="middle" x="93.0524" y="-6.5" font-family="Helvetica,sans-Serif" font-size="10.00" fill="#000000">/Coaster.cpp</text>
</a>
</g>
</g>
<!-- Node17&#45;&gt;Node18 -->
<g id="edge2" class="edge">
<title>Node17&#45;&gt;Node18</title>
<path fill="none" stroke="#191970" d="M138.212,-58.3115C128.1617,-48.5612 116.5118,-37.259 107.5621,-28.5765"/>
<polygon fill="#191970" stroke="#191970" points="135.8999,-60.9449 145.5144,-65.396 140.7741,-55.9207 135.8999,-60.9449"/>
</g>
<!-- Node19 -->
<g id="node4" class="node">
<title>Node19</title>
<g id="a_node4"><a xlink:href="_park_8h.html" target="_top" xlink:title="libnolimits/NL2/Park.h">
<polygon fill="none" stroke="#ff0000" points="170.7004,-5.5 170.7004,-23.5 283.4045,-23.5 283.4045,-5.5 170.7004,-5.5"/>
<text text-anchor="middle" x="227.0524" y="-11.5" font-family="Helvetica,sans-Serif" font-size="10.00" fill="#000000">libnolimits/NL2/Park.h</text>
</a>
</g>
</g>
<!-- Node17&#45;&gt;Node19 -->
<g id="edge3" class="edge">
<title>Node17&#45;&gt;Node19</title>
<path fill="none" stroke="#191970" d="M181.7796,-58.4214C193.9263,-46.6373 208.4388,-32.558 217.6989,-23.5743"/>
<polygon fill="#191970" stroke="#191970" points="179.3307,-55.9207 174.5904,-65.396 184.205,-60.9449 179.3307,-55.9207"/>
</g>
<!-- Node22 -->
<g id="node6" class="node">
<title>Node22</title>
<g id="a_node6"><a xlink:href="_custom_track_8h.html" target="_top" xlink:title="libnolimits/NL2/Coaster\l/Track/CustomTrack.h">
<polygon fill="none" stroke="#ff0000" points="361.6437,-130.5 361.6437,-158.5 480.4611,-158.5 480.4611,-130.5 361.6437,-130.5"/>
<text text-anchor="start" x="369.6437" y="-146.5" font-family="Helvetica,sans-Serif" font-size="10.00" fill="#000000">libnolimits/NL2/Coaster</text>
<text text-anchor="middle" x="421.0524" y="-136.5" font-family="Helvetica,sans-Serif" font-size="10.00" fill="#000000">/Track/CustomTrack.h</text>
</a>
</g>
</g>
<!-- Node21&#45;&gt;Node22 -->
<g id="edge5" class="edge">
<title>Node21&#45;&gt;Node22</title>
<path fill="none" stroke="#191970" d="M316.5139,-258.9274C351.8652,-249.6605 389.9039,-237.1663 402.0524,-224 418.6043,-206.0614 421.4915,-176.3402 421.6042,-158.7671"/>
<polygon fill="#191970" stroke="#191970" points="315.4587,-255.5845 306.638,-261.4534 317.1934,-262.3662 315.4587,-255.5845"/>
</g>
<!-- Node24 -->
<g id="node7" class="node">
<title>Node24</title>
<g id="a_node7"><a xlink:href="_separator_8h.html" target="_top" xlink:title="libnolimits/NL2/Coaster\l/Track/Separator.h">
<polygon fill="none" stroke="#ff0000" points="448.6437,-195.5 448.6437,-223.5 567.4611,-223.5 567.4611,-195.5 448.6437,-195.5"/>
<text text-anchor="start" x="456.6437" y="-211.5" font-family="Helvetica,sans-Serif" font-size="10.00" fill="#000000">libnolimits/NL2/Coaster</text>
<text text-anchor="middle" x="508.0524" y="-201.5" font-family="Helvetica,sans-Serif" font-size="10.00" fill="#000000">/Track/Separator.h</text>
</a>
</g>
</g>
<!-- Node21&#45;&gt;Node24 -->
<g id="edge7" class="edge">
<title>Node21&#45;&gt;Node24</title>
<path fill="none" stroke="#191970" d="M313.0994,-258.0515C355.7689,-247.425 410.7137,-233.7414 451.3917,-223.6109"/>
<polygon fill="#191970" stroke="#191970" points="312.222,-254.663 303.3642,-260.476 313.9137,-261.4556 312.222,-254.663"/>
</g>
<!-- Node26 -->
<g id="node8" class="node">
<title>Node26</title>
<g id="a_node8"><a xlink:href="_special_track_8h.html" target="_top" xlink:title="libnolimits/NL2/Coaster\l/Track/SpecialTrack.h">
<polygon fill="none" stroke="#ff0000" points="100.6437,-195.5 100.6437,-223.5 219.4611,-223.5 219.4611,-195.5 100.6437,-195.5"/>
<text text-anchor="start" x="108.6437" y="-211.5" font-family="Helvetica,sans-Serif" font-size="10.00" fill="#000000">libnolimits/NL2/Coaster</text>
<text text-anchor="middle" x="160.0524" y="-201.5" font-family="Helvetica,sans-Serif" font-size="10.00" fill="#000000">/Track/SpecialTrack.h</text>
</a>
</g>
</g>
<!-- Node21&#45;&gt;Node26 -->
<g id="edge9" class="edge">
<title>Node21&#45;&gt;Node26</title>
<path fill="none" stroke="#191970" d="M219.8384,-254.1677C206.5349,-244.2283 190.8564,-232.5144 178.8933,-223.5765"/>
<polygon fill="#191970" stroke="#191970" points="218.0688,-257.2145 228.1747,-260.396 222.2585,-251.6068 218.0688,-257.2145"/>
</g>
<!-- Node28 -->
<g id="node9" class="node">
<title>Node28</title>
<g id="a_node9"><a xlink:href="_switch_track_8h.html" target="_top" xlink:title="libnolimits/NL2/Coaster\l/Track/SwitchTrack.h">
<polygon fill="none" stroke="#ff0000" points="13.6437,-130.5 13.6437,-158.5 132.4611,-158.5 132.4611,-130.5 13.6437,-130.5"/>
<text text-anchor="start" x="21.6437" y="-146.5" font-family="Helvetica,sans-Serif" font-size="10.00" fill="#000000">libnolimits/NL2/Coaster</text>
<text text-anchor="middle" x="73.0524" y="-136.5" font-family="Helvetica,sans-Serif" font-size="10.00" fill="#000000">/Track/SwitchTrack.h</text>
</a>
</g>
</g>
<!-- Node21&#45;&gt;Node28 -->
<g id="edge14" class="edge">
<title>Node21&#45;&gt;Node28</title>
<path fill="none" stroke="#191970" d="M177.591,-258.9274C142.2397,-249.6605 104.201,-237.1663 92.0524,-224 75.5006,-206.0614 72.6134,-176.3402 72.5007,-158.7671"/>
<polygon fill="#191970" stroke="#191970" points="176.9115,-262.3662 187.4669,-261.4534 178.6461,-255.5845 176.9115,-262.3662"/>
</g>
<!-- Node30 -->
<g id="node10" class="node">
<title>Node30</title>
<g id="a_node10"><a xlink:href="_transfer_table_8h.html" target="_top" xlink:title="libnolimits/NL2/Coaster\l/Track/TransferTable.h">
<polygon fill="none" stroke="#ff0000" points="187.6437,-130.5 187.6437,-158.5 306.4611,-158.5 306.4611,-130.5 187.6437,-130.5"/>
<text text-anchor="start" x="195.6437" y="-146.5" font-family="Helvetica,sans-Serif" font-size="10.00" fill="#000000">libnolimits/NL2/Coaster</text>
<text text-anchor="middle" x="247.0524" y="-136.5" font-family="Helvetica,sans-Serif" font-size="10.00" fill="#000000">/Track/TransferTable.h</text>
</a>
</g>
</g>
<!-- Node21&#45;&gt;Node30 -->
<g id="edge15" class="edge">
<title>Node21&#45;&gt;Node30</title>
<path fill="none" stroke="#191970" d="M247.0524,-250.1765C247.0524,-223.2048 247.0524,-180.6099 247.0524,-158.6423"/>
<polygon fill="#191970" stroke="#191970" points="243.5525,-250.3402 247.0524,-260.3402 250.5525,-250.3403 243.5525,-250.3402"/>
</g>
<!-- Node32 -->
<g id="node11" class="node">
<title>Node32</title>
<g id="a_node11"><a xlink:href="_segment_8cpp.html" target="_top" xlink:title="libnolimits/NL2/Coaster\l/Track/Segment.cpp">
<polygon fill="none" stroke="#000000" points="274.6437,-195.5 274.6437,-223.5 393.4611,-223.5 393.4611,-195.5 274.6437,-195.5"/>
<text text-anchor="start" x="282.6437" y="-211.5" font-family="Helvetica,sans-Serif" font-size="10.00" fill="#000000">libnolimits/NL2/Coaster</text>
<text text-anchor="middle" x="334.0524" y="-201.5" font-family="Helvetica,sans-Serif" font-size="10.00" fill="#000000">/Track/Segment.cpp</text>
</a>
</g>
</g>
<!-- Node21&#45;&gt;Node32 -->
<g id="edge13" class="edge">
<title>Node21&#45;&gt;Node32</title>
<path fill="none" stroke="#191970" d="M274.2665,-254.1677C287.5699,-244.2283 303.2485,-232.5144 315.2116,-223.5765"/>
<polygon fill="#191970" stroke="#191970" points="271.8463,-251.6068 265.9301,-260.396 276.0361,-257.2145 271.8463,-251.6068"/>
</g>
<!-- Node22&#45;&gt;Node17 -->
<g id="edge6" class="edge">
<title>Node22&#45;&gt;Node17</title>
<path fill="none" stroke="#191970" d="M355.0055,-128.0515C312.336,-117.425 257.3911,-103.7414 216.7132,-93.6109"/>
<polygon fill="#191970" stroke="#191970" points="354.1912,-131.4556 364.7407,-130.476 355.8829,-124.663 354.1912,-131.4556"/>
</g>
<!-- Node24&#45;&gt;Node22 -->
<g id="edge8" class="edge">
<title>Node24&#45;&gt;Node22</title>
<path fill="none" stroke="#191970" d="M480.8384,-189.1677C467.5349,-179.2283 451.8564,-167.5144 439.8933,-158.5765"/>
<polygon fill="#191970" stroke="#191970" points="479.0688,-192.2145 489.1747,-195.396 483.2585,-186.6068 479.0688,-192.2145"/>
</g>
<!-- Node26&#45;&gt;Node17 -->
<g id="edge10" class="edge">
<title>Node26&#45;&gt;Node17</title>
<path fill="none" stroke="#191970" d="M160.0524,-185.1765C160.0524,-158.2048 160.0524,-115.6099 160.0524,-93.6423"/>
<polygon fill="#191970" stroke="#191970" points="156.5525,-185.3402 160.0524,-195.3402 163.5525,-185.3403 156.5525,-185.3402"/>
</g>
<!-- Node26&#45;&gt;Node28 -->
<g id="edge11" class="edge">
<title>Node26&#45;&gt;Node28</title>
<path fill="none" stroke="#191970" d="M132.8384,-189.1677C119.5349,-179.2283 103.8564,-167.5144 91.8933,-158.5765"/>
<polygon fill="#191970" stroke="#191970" points="131.0688,-192.2145 141.1747,-195.396 135.2585,-186.6068 131.0688,-192.2145"/>
</g>
<!-- Node26&#45;&gt;Node30 -->
<g id="edge12" class="edge">
<title>Node26&#45;&gt;Node30</title>
<path fill="none" stroke="#191970" d="M187.2665,-189.1677C200.5699,-179.2283 216.2485,-167.5144 228.2116,-158.5765"/>
<polygon fill="#191970" stroke="#191970" points="184.8463,-186.6068 178.9301,-195.396 189.0361,-192.2145 184.8463,-186.6068"/>
</g>
</g>
</svg>
