<?xml version="1.0" encoding="UTF-8" standalone="no"?>
<!DOCTYPE svg PUBLIC "-//W3C//DTD SVG 1.1//EN"
 "http://www.w3.org/Graphics/SVG/1.1/DTD/svg11.dtd">
<!-- Generated by graphviz version 2.40.1 (20161225.0304)
 -->
<!-- Title: libnolimits/NL2/Coaster/Track/CustomTrack.h Pages: 1 -->
<svg width="335pt" height="167pt"
 viewBox="0.00 0.00 335.50 167.00" xmlns="http://www.w3.org/2000/svg" xmlns:xlink="http://www.w3.org/1999/xlink">
<g id="graph0" class="graph" transform="scale(1 1) rotate(0) translate(4 163)">
<title>libnolimits/NL2/Coaster/Track/CustomTrack.h</title>
<!-- Node30 -->
<g id="node1" class="node">
<title>Node30</title>
<polygon fill="#bfbfbf" stroke="#000000" points="136,-130.5 136,-158.5 254.8174,-158.5 254.8174,-130.5 136,-130.5"/>
<text text-anchor="start" x="144" y="-146.5" font-family="Helvetica,sans-Serif" font-size="10.00" fill="#000000">libnolimits/NL2/Coaster</text>
<text text-anchor="middle" x="195.4087" y="-136.5" font-family="Helvetica,sans-Serif" font-size="10.00" fill="#000000">/Track/CustomTrack.h</text>
</g>
<!-- Node31 -->
<g id="node2" class="node">
<title>Node31</title>
<g id="a_node2"><a xlink:href="_coaster_8h.html" target="_top" xlink:title="libnolimits/NL2/Coaster\l/Coaster.h">
<polygon fill="none" stroke="#000000" points="67,-65.5 67,-93.5 185.8174,-93.5 185.8174,-65.5 67,-65.5"/>
<text text-anchor="start" x="75" y="-81.5" font-family="Helvetica,sans-Serif" font-size="10.00" fill="#000000">libnolimits/NL2/Coaster</text>
<text text-anchor="middle" x="126.4087" y="-71.5" font-family="Helvetica,sans-Serif" font-size="10.00" fill="#000000">/Coaster.h</text>
</a>
</g>
</g>
<!-- Node30&#45;&gt;Node31 -->
<g id="edge1" class="edge">
<title>Node30&#45;&gt;Node31</title>
<path fill="none" stroke="#191970" d="M172.9163,-123.3115C162.566,-113.5612 150.5683,-102.259 141.3514,-93.5765"/>
<polygon fill="#191970" stroke="#191970" points="170.7579,-126.0866 180.4367,-130.396 175.5577,-120.9914 170.7579,-126.0866"/>
</g>
<!-- Node35 -->
<g id="node5" class="node">
<title>Node35</title>
<g id="a_node5"><a xlink:href="_custom_track_8cpp.html" target="_top" xlink:title="libnolimits/NL2/Coaster\l/Track/CustomTrack.cpp">
<polygon fill="none" stroke="#000000" points="203.3193,-65.5 203.3193,-93.5 327.498,-93.5 327.498,-65.5 203.3193,-65.5"/>
<text text-anchor="start" x="211.3193" y="-81.5" font-family="Helvetica,sans-Serif" font-size="10.00" fill="#000000">libnolimits/NL2/Coaster</text>
<text text-anchor="middle" x="265.4087" y="-71.5" font-family="Helvetica,sans-Serif" font-size="10.00" fill="#000000">/Track/CustomTrack.cpp</text>
</a>
</g>
</g>
<!-- Node30&#45;&gt;Node35 -->
<g id="edge4" class="edge">
<title>Node30&#45;&gt;Node35</title>
<path fill="none" stroke="#191970" d="M218.2271,-123.3115C228.7274,-113.5612 240.8989,-102.259 250.2494,-93.5765"/>
<polygon fill="#191970" stroke="#191970" points="215.544,-121.0266 210.5976,-130.396 220.3072,-126.1562 215.544,-121.0266"/>
</g>
<!-- Node32 -->
<g id="node3" class="node">
<title>Node32</title>
<g id="a_node3"><a xlink:href="_coaster_8cpp.html" target="_top" xlink:title="libnolimits/NL2/Coaster\l/Coaster.cpp">
<polygon fill="none" stroke="#000000" points="0,-.5 0,-28.5 118.8174,-28.5 118.8174,-.5 0,-.5"/>
<text text-anchor="start" x="8" y="-16.5" font-family="Helvetica,sans-Serif" font-size="10.00" fill="#000000">libnolimits/NL2/Coaster</text>
<text text-anchor="middle" x="59.4087" y="-6.5" font-family="Helvetica,sans-Serif" font-size="10.00" fill="#000000">/Coaster.cpp</text>
</a>
</g>
</g>
<!-- Node31&#45;&gt;Node32 -->
<g id="edge2" class="edge">
<title>Node31&#45;&gt;Node32</title>
<path fill="none" stroke="#191970" d="M104.5682,-58.3115C94.5179,-48.5612 82.868,-37.259 73.9183,-28.5765"/>
<polygon fill="#191970" stroke="#191970" points="102.2562,-60.9449 111.8707,-65.396 107.1304,-55.9207 102.2562,-60.9449"/>
</g>
<!-- Node33 -->
<g id="node4" class="node">
<title>Node33</title>
<g id="a_node4"><a xlink:href="_park_8h.html" target="_top" xlink:title="libnolimits/NL2/Park.h">
<polygon fill="none" stroke="#ff0000" points="137.0566,-5.5 137.0566,-23.5 249.7607,-23.5 249.7607,-5.5 137.0566,-5.5"/>
<text text-anchor="middle" x="193.4087" y="-11.5" font-family="Helvetica,sans-Serif" font-size="10.00" fill="#000000">libnolimits/NL2/Park.h</text>
</a>
</g>
</g>
<!-- Node31&#45;&gt;Node33 -->
<g id="edge3" class="edge">
<title>Node31&#45;&gt;Node33</title>
<path fill="none" stroke="#191970" d="M148.1359,-58.4214C160.2825,-46.6373 174.7951,-32.558 184.0552,-23.5743"/>
<polygon fill="#191970" stroke="#191970" points="145.687,-55.9207 140.9467,-65.396 150.5612,-60.9449 145.687,-55.9207"/>
</g>
</g>
</svg>
