<?xml version="1.0" encoding="UTF-8" standalone="no"?>
<!DOCTYPE svg PUBLIC "-//W3C//DTD SVG 1.1//EN"
 "http://www.w3.org/Graphics/SVG/1.1/DTD/svg11.dtd">
<!-- Generated by graphviz version 2.40.1 (20161225.0304)
 -->
<!-- Title: libnolimits/NL2/Coaster/Track/CustomTrack.cpp Pages: 1 -->
<svg width="669pt" height="257pt"
 viewBox="0.00 0.00 669.03 257.00" xmlns="http://www.w3.org/2000/svg" xmlns:xlink="http://www.w3.org/1999/xlink">
<g id="graph0" class="graph" transform="scale(1 1) rotate(0) translate(4 253)">
<title>libnolimits/NL2/Coaster/Track/CustomTrack.cpp</title>
<!-- Node0 -->
<g id="node1" class="node">
<title>Node0</title>
<polygon fill="#bfbfbf" stroke="#000000" points="281.7616,-220.5 281.7616,-248.5 405.9403,-248.5 405.9403,-220.5 281.7616,-220.5"/>
<text text-anchor="start" x="289.7616" y="-236.5" font-family="Helvetica,sans-Serif" font-size="10.00" fill="#000000">libnolimits/NL2/Coaster</text>
<text text-anchor="middle" x="343.8509" y="-226.5" font-family="Helvetica,sans-Serif" font-size="10.00" fill="#000000">/Track/CustomTrack.cpp</text>
</g>
<!-- Node1 -->
<g id="node2" class="node">
<title>Node1</title>
<g id="a_node2"><a xlink:href="_custom_track_8h.html" target="_top" xlink:title="CustomTrack.h">
<polygon fill="none" stroke="#000000" points="259.1376,-165.5 259.1376,-183.5 342.5643,-183.5 342.5643,-165.5 259.1376,-165.5"/>
<text text-anchor="middle" x="300.8509" y="-171.5" font-family="Helvetica,sans-Serif" font-size="10.00" fill="#000000">CustomTrack.h</text>
</a>
</g>
</g>
<!-- Node0&#45;&gt;Node1 -->
<g id="edge1" class="edge">
<title>Node0&#45;&gt;Node1</title>
<path fill="none" stroke="#191970" d="M333.6606,-220.2808C327.5511,-211.756 319.7383,-200.8545 313.2694,-191.8281"/>
<polygon fill="#191970" stroke="#191970" points="316.0314,-189.6735 307.3613,-183.5842 310.3416,-193.7512 316.0314,-189.6735"/>
</g>
<!-- Node12 -->
<g id="node14" class="node">
<title>Node12</title>
<polygon fill="none" stroke="#bfbfbf" points="360.6786,-165.5 360.6786,-183.5 415.0233,-183.5 415.0233,-165.5 360.6786,-165.5"/>
<text text-anchor="middle" x="387.8509" y="-171.5" font-family="Helvetica,sans-Serif" font-size="10.00" fill="#000000">iostream</text>
</g>
<!-- Node0&#45;&gt;Node12 -->
<g id="edge26" class="edge">
<title>Node0&#45;&gt;Node12</title>
<path fill="none" stroke="#191970" d="M354.2783,-220.2808C360.5299,-211.756 368.5244,-200.8545 375.1437,-191.8281"/>
<polygon fill="#191970" stroke="#191970" points="378.098,-193.718 381.1892,-183.5842 372.4531,-189.5785 378.098,-193.718"/>
</g>
<!-- Node2 -->
<g id="node3" class="node">
<title>Node2</title>
<polygon fill="none" stroke="#bfbfbf" points="2.2352,-55.5 2.2352,-73.5 45.4667,-73.5 45.4667,-55.5 2.2352,-55.5"/>
<text text-anchor="middle" x="23.8509" y="-61.5" font-family="Helvetica,sans-Serif" font-size="10.00" fill="#000000">vector</text>
</g>
<!-- Node1&#45;&gt;Node2 -->
<g id="edge2" class="edge">
<title>Node1&#45;&gt;Node2</title>
<path fill="none" stroke="#191970" d="M259.0041,-171.0379C181.5328,-164.2027 22.1279,-147.98 5.8509,-129 -5.4482,-115.8245 2.5538,-96.0795 11.1874,-81.9086"/>
<polygon fill="#191970" stroke="#191970" points="14.1377,-83.7927 16.7556,-73.5264 8.3069,-79.9194 14.1377,-83.7927"/>
</g>
<!-- Node3 -->
<g id="node4" class="node">
<title>Node3</title>
<g id="a_node4"><a xlink:href="_chunk_8h.html" target="_top" xlink:title="../../../Stream/Chunk.h">
<polygon fill="none" stroke="#ff0000" points="343.2206,-.5 343.2206,-18.5 456.4813,-18.5 456.4813,-.5 343.2206,-.5"/>
<text text-anchor="middle" x="399.8509" y="-6.5" font-family="Helvetica,sans-Serif" font-size="10.00" fill="#000000">../../../Stream/Chunk.h</text>
</a>
</g>
</g>
<!-- Node1&#45;&gt;Node3 -->
<g id="edge3" class="edge">
<title>Node1&#45;&gt;Node3</title>
<path fill="none" stroke="#191970" d="M262.6027,-165.4384C230.345,-156.9304 187.869,-143.3874 177.8509,-129 163.755,-108.7562 181.7714,-68.4769 196.8509,-55 216.7959,-37.1748 281.623,-24.7443 332.7161,-17.4334"/>
<polygon fill="#191970" stroke="#191970" points="333.3121,-20.8843 342.7342,-16.0394 332.3472,-13.9511 333.3121,-20.8843"/>
</g>
<!-- Node18 -->
<g id="node5" class="node">
<title>Node18</title>
<g id="a_node5"><a xlink:href="_track_8h.html" target="_top" xlink:title="Track.h">
<polygon fill="none" stroke="#000000" points="186.3641,-110.5 186.3641,-128.5 235.3378,-128.5 235.3378,-110.5 186.3641,-110.5"/>
<text text-anchor="middle" x="210.8509" y="-116.5" font-family="Helvetica,sans-Serif" font-size="10.00" fill="#000000">Track.h</text>
</a>
</g>
</g>
<!-- Node1&#45;&gt;Node18 -->
<g id="edge4" class="edge">
<title>Node1&#45;&gt;Node18</title>
<path fill="none" stroke="#191970" d="M285.9893,-165.4179C272.0496,-156.8992 250.969,-144.0166 234.6809,-134.0627"/>
<polygon fill="#191970" stroke="#191970" points="236.0926,-130.8237 225.7347,-128.5956 232.4424,-136.7967 236.0926,-130.8237"/>
</g>
<!-- Node19 -->
<g id="node6" class="node">
<title>Node19</title>
<g id="a_node6"><a xlink:href="_section_8h.html" target="_top" xlink:title="Section/Section.h">
<polygon fill="none" stroke="#000000" points="217.9374,-55.5 217.9374,-73.5 311.7645,-73.5 311.7645,-55.5 217.9374,-55.5"/>
<text text-anchor="middle" x="264.8509" y="-61.5" font-family="Helvetica,sans-Serif" font-size="10.00" fill="#000000">Section/Section.h</text>
</a>
</g>
</g>
<!-- Node1&#45;&gt;Node19 -->
<g id="edge22" class="edge">
<title>Node1&#45;&gt;Node19</title>
<path fill="none" stroke="#191970" d="M297.9049,-165.4982C292.0508,-147.6108 278.8449,-107.2594 271.0125,-83.3271"/>
<polygon fill="#191970" stroke="#191970" points="274.2745,-82.0415 267.8377,-73.6261 267.6218,-84.2188 274.2745,-82.0415"/>
</g>
<!-- Node20 -->
<g id="node7" class="node">
<title>Node20</title>
<g id="a_node7"><a xlink:href="_roll_point_8h.html" target="_top" xlink:title="RollPoint.h">
<polygon fill="none" stroke="#000000" points="329.6713,-55.5 329.6713,-73.5 394.0306,-73.5 394.0306,-55.5 329.6713,-55.5"/>
<text text-anchor="middle" x="361.8509" y="-61.5" font-family="Helvetica,sans-Serif" font-size="10.00" fill="#000000">RollPoint.h</text>
</a>
</g>
</g>
<!-- Node1&#45;&gt;Node20 -->
<g id="edge8" class="edge">
<title>Node1&#45;&gt;Node20</title>
<path fill="none" stroke="#191970" d="M303.237,-165.327C306.8143,-152.4333 314.2933,-128.4618 324.8509,-110 330.7645,-99.6592 339.0012,-89.2666 346.2023,-81.0295"/>
<polygon fill="#191970" stroke="#191970" points="348.8179,-83.3554 352.9338,-73.5927 343.6281,-78.6578 348.8179,-83.3554"/>
</g>
<!-- Node21 -->
<g id="node8" class="node">
<title>Node21</title>
<g id="a_node8"><a xlink:href="_vertex_8h.html" target="_top" xlink:title="Vertex.h">
<polygon fill="none" stroke="#000000" points="412.5038,-55.5 412.5038,-73.5 465.1981,-73.5 465.1981,-55.5 412.5038,-55.5"/>
<text text-anchor="middle" x="438.8509" y="-61.5" font-family="Helvetica,sans-Serif" font-size="10.00" fill="#000000">Vertex.h</text>
</a>
</g>
</g>
<!-- Node1&#45;&gt;Node21 -->
<g id="edge10" class="edge">
<title>Node1&#45;&gt;Node21</title>
<path fill="none" stroke="#191970" d="M307.4063,-165.2902C317.2464,-151.9233 336.9253,-126.9019 357.8509,-110 373.4373,-97.4107 392.969,-86.326 408.9475,-78.2497"/>
<polygon fill="#191970" stroke="#191970" points="410.9362,-81.1725 418.3701,-73.6234 407.8511,-74.889 410.9362,-81.1725"/>
</g>
<!-- Node22 -->
<g id="node9" class="node">
<title>Node22</title>
<g id="a_node9"><a xlink:href="_trigger_8h.html" target="_top" xlink:title="Trigger.h">
<polygon fill="none" stroke="#000000" points="367.3002,-110.5 367.3002,-128.5 422.4017,-128.5 422.4017,-110.5 367.3002,-110.5"/>
<text text-anchor="middle" x="394.8509" y="-116.5" font-family="Helvetica,sans-Serif" font-size="10.00" fill="#000000">Trigger.h</text>
</a>
</g>
</g>
<!-- Node1&#45;&gt;Node22 -->
<g id="edge12" class="edge">
<title>Node1&#45;&gt;Node22</title>
<path fill="none" stroke="#191970" d="M316.3731,-165.4179C331.0685,-156.8195 353.3621,-143.7754 370.4376,-133.7844"/>
<polygon fill="#191970" stroke="#191970" points="372.4421,-136.6667 379.3057,-128.5956 368.907,-130.6249 372.4421,-136.6667"/>
</g>
<!-- Node23 -->
<g id="node10" class="node">
<title>Node23</title>
<g id="a_node10"><a xlink:href="_parameter4_d_8h.html" target="_top" xlink:title="Parameter4D.h">
<polygon fill="none" stroke="#000000" points="439.9471,-110.5 439.9471,-128.5 523.7548,-128.5 523.7548,-110.5 439.9471,-110.5"/>
<text text-anchor="middle" x="481.8509" y="-116.5" font-family="Helvetica,sans-Serif" font-size="10.00" fill="#000000">Parameter4D.h</text>
</a>
</g>
</g>
<!-- Node1&#45;&gt;Node23 -->
<g id="edge14" class="edge">
<title>Node1&#45;&gt;Node23</title>
<path fill="none" stroke="#191970" d="M330.7394,-165.4179C361.2228,-156.155 408.6859,-141.7325 442.2745,-131.526"/>
<polygon fill="#191970" stroke="#191970" points="443.6685,-134.7605 452.2189,-128.5042 441.6333,-128.0629 443.6685,-134.7605"/>
</g>
<!-- Node24 -->
<g id="node11" class="node">
<title>Node24</title>
<g id="a_node11"><a xlink:href="_segment_8h.html" target="_top" xlink:title="Segment.h">
<polygon fill="none" stroke="#ff0000" points="596.6688,-55.5 596.6688,-73.5 661.0331,-73.5 661.0331,-55.5 596.6688,-55.5"/>
<text text-anchor="middle" x="628.8509" y="-61.5" font-family="Helvetica,sans-Serif" font-size="10.00" fill="#000000">Segment.h</text>
</a>
</g>
</g>
<!-- Node1&#45;&gt;Node24 -->
<g id="edge16" class="edge">
<title>Node1&#45;&gt;Node24</title>
<path fill="none" stroke="#191970" d="M342.5699,-166.5527C345.7074,-166.009 348.8274,-165.4851 351.8509,-165 410.9651,-155.5152 576.0995,-170.9137 618.8509,-129 630.4713,-117.6074 632.2011,-98.6991 631.4803,-84.2924"/>
<polygon fill="#191970" stroke="#191970" points="634.9281,-83.5671 630.5189,-73.9333 627.958,-84.214 634.9281,-83.5671"/>
</g>
<!-- Node27 -->
<g id="node12" class="node">
<title>Node27</title>
<g id="a_node12"><a xlink:href="_separator_8h.html" target="_top" xlink:title="Separator.h">
<polygon fill="none" stroke="#000000" points="541.9965,-110.5 541.9965,-128.5 609.7054,-128.5 609.7054,-110.5 541.9965,-110.5"/>
<text text-anchor="middle" x="575.8509" y="-116.5" font-family="Helvetica,sans-Serif" font-size="10.00" fill="#000000">Separator.h</text>
</a>
</g>
</g>
<!-- Node1&#45;&gt;Node27 -->
<g id="edge18" class="edge">
<title>Node1&#45;&gt;Node27</title>
<path fill="none" stroke="#191970" d="M342.8228,-166.5794C387.2496,-158.1265 459.6771,-144.1499 531.4753,-129.252"/>
<polygon fill="#191970" stroke="#191970" points="532.5226,-132.6091 541.5992,-127.1442 531.0957,-125.756 532.5226,-132.6091"/>
</g>
<!-- Node28 -->
<g id="node13" class="node">
<title>Node28</title>
<g id="a_node13"><a xlink:href="_rail_node_8h.html" target="_top" xlink:title="../Support/RailNode.h">
<polygon fill="none" stroke="#ff0000" points="15.0458,-110.5 15.0458,-128.5 126.6561,-128.5 126.6561,-110.5 15.0458,-110.5"/>
<text text-anchor="middle" x="70.8509" y="-116.5" font-family="Helvetica,sans-Serif" font-size="10.00" fill="#000000">../Support/RailNode.h</text>
</a>
</g>
</g>
<!-- Node1&#45;&gt;Node28 -->
<g id="edge23" class="edge">
<title>Node1&#45;&gt;Node28</title>
<path fill="none" stroke="#191970" d="M263.1287,-165.4795C223.6042,-156.0279 161.4128,-141.1561 118.5169,-130.8984"/>
<polygon fill="#191970" stroke="#191970" points="119.1336,-127.4473 108.5938,-128.5255 117.5056,-134.2553 119.1336,-127.4473"/>
</g>
<!-- Node18&#45;&gt;Node3 -->
<g id="edge5" class="edge">
<title>Node18&#45;&gt;Node3</title>
<path fill="none" stroke="#191970" d="M207.2784,-110.4586C202.5558,-96.8512 196.2135,-71.0015 208.8509,-55 224.285,-35.4574 284.317,-23.401 333.0127,-16.6513"/>
<polygon fill="#191970" stroke="#191970" points="333.7622,-20.0824 343.2116,-15.2908 332.8365,-13.1439 333.7622,-20.0824"/>
</g>
<!-- Node18&#45;&gt;Node19 -->
<g id="edge6" class="edge">
<title>Node18&#45;&gt;Node19</title>
<path fill="none" stroke="#191970" d="M219.768,-110.4179C227.6155,-102.425 239.235,-90.5903 248.7121,-80.9377"/>
<polygon fill="#191970" stroke="#191970" points="251.2318,-83.3672 255.7402,-73.7795 246.2368,-78.463 251.2318,-83.3672"/>
</g>
<!-- Node19&#45;&gt;Node3 -->
<g id="edge7" class="edge">
<title>Node19&#45;&gt;Node3</title>
<path fill="none" stroke="#191970" d="M287.1435,-55.4179C309.2255,-46.4215 343.2539,-32.5581 368.1452,-22.4172"/>
<polygon fill="#191970" stroke="#191970" points="369.585,-25.61 377.5253,-18.5956 366.9438,-19.1273 369.585,-25.61"/>
</g>
<!-- Node20&#45;&gt;Node3 -->
<g id="edge9" class="edge">
<title>Node20&#45;&gt;Node3</title>
<path fill="none" stroke="#191970" d="M368.1259,-55.4179C373.4295,-47.7415 381.1814,-36.5217 387.6948,-27.0945"/>
<polygon fill="#191970" stroke="#191970" points="390.6349,-28.9963 393.4397,-18.7795 384.8758,-25.0173 390.6349,-28.9963"/>
</g>
<!-- Node21&#45;&gt;Node3 -->
<g id="edge11" class="edge">
<title>Node21&#45;&gt;Node3</title>
<path fill="none" stroke="#191970" d="M432.4109,-55.4179C426.9677,-47.7415 419.0118,-36.5217 412.327,-27.0945"/>
<polygon fill="#191970" stroke="#191970" points="415.0703,-24.9123 406.4309,-18.7795 409.3602,-28.9613 415.0703,-24.9123"/>
</g>
<!-- Node22&#45;&gt;Node3 -->
<g id="edge13" class="edge">
<title>Node22&#45;&gt;Node3</title>
<path fill="none" stroke="#191970" d="M422.7642,-111.4636C440.8176,-104.6543 462.9201,-92.9099 473.8509,-74 486.4808,-52.1509 459.739,-33.9972 434.9482,-22.5744"/>
<polygon fill="#191970" stroke="#191970" points="436.1956,-19.3004 425.6286,-18.5324 433.4103,-25.7224 436.1956,-19.3004"/>
</g>
<!-- Node23&#45;&gt;Node3 -->
<g id="edge15" class="edge">
<title>Node23&#45;&gt;Node3</title>
<path fill="none" stroke="#191970" d="M486.1333,-110.3939C491.6732,-97.1562 499.4327,-72.2941 488.8509,-55 479.3869,-39.5326 462.821,-29.1114 446.5275,-22.1939"/>
<polygon fill="#191970" stroke="#191970" points="447.6106,-18.8602 437.0214,-18.5142 445.0836,-25.3882 447.6106,-18.8602"/>
</g>
<!-- Node24&#45;&gt;Node3 -->
<g id="edge17" class="edge">
<title>Node24&#45;&gt;Node3</title>
<path fill="none" stroke="#191970" d="M596.5265,-56.7365C557.5556,-47.3767 491.7415,-31.5698 447.0822,-20.8438"/>
<polygon fill="#191970" stroke="#191970" points="447.8741,-17.4345 437.3332,-18.5023 446.2393,-24.2409 447.8741,-17.4345"/>
</g>
<!-- Node27&#45;&gt;Node3 -->
<g id="edge21" class="edge">
<title>Node27&#45;&gt;Node3</title>
<path fill="none" stroke="#191970" d="M567.4527,-110.1195C554.9059,-96.54 530.0361,-71.2563 504.8509,-55 483.6686,-41.3273 457.6852,-30.0293 436.8658,-22.1115"/>
<polygon fill="#191970" stroke="#191970" points="437.9955,-18.7976 427.4024,-18.608 435.5652,-25.3622 437.9955,-18.7976"/>
</g>
<!-- Node27&#45;&gt;Node19 -->
<g id="edge19" class="edge">
<title>Node27&#45;&gt;Node19</title>
<path fill="none" stroke="#191970" d="M541.6151,-111.7769C538.6547,-111.1574 535.7023,-110.5567 532.8509,-110 531.5523,-109.7465 400.3973,-87.4928 322.0698,-74.2055"/>
<polygon fill="#191970" stroke="#191970" points="322.3001,-70.6947 311.8556,-72.4728 321.1294,-77.5961 322.3001,-70.6947"/>
</g>
<!-- Node27&#45;&gt;Node24 -->
<g id="edge20" class="edge">
<title>Node27&#45;&gt;Node24</title>
<path fill="none" stroke="#191970" d="M584.6028,-110.4179C592.2288,-102.5041 603.4839,-90.8243 612.734,-81.2251"/>
<polygon fill="#191970" stroke="#191970" points="615.4902,-83.4089 619.9089,-73.7795 610.4497,-78.5516 615.4902,-83.4089"/>
</g>
<!-- Node28&#45;&gt;Node2 -->
<g id="edge25" class="edge">
<title>Node28&#45;&gt;Node2</title>
<path fill="none" stroke="#191970" d="M63.0899,-110.4179C56.3948,-102.5833 46.5456,-91.0575 38.3899,-81.5137"/>
<polygon fill="#191970" stroke="#191970" points="40.938,-79.108 31.7807,-73.7795 35.6164,-83.6556 40.938,-79.108"/>
</g>
<!-- Node28&#45;&gt;Node3 -->
<g id="edge24" class="edge">
<title>Node28&#45;&gt;Node3</title>
<path fill="none" stroke="#191970" d="M77.481,-110.2514C88.3332,-95.8767 111.3524,-68.4327 137.8509,-55 171.124,-38.1332 266.7953,-24.4296 332.8256,-16.617"/>
<polygon fill="#191970" stroke="#191970" points="333.6265,-20.0475 343.1545,-15.4141 332.8167,-13.0945 333.6265,-20.0475"/>
</g>
</g>
</svg>
