<?xml version="1.0" encoding="UTF-8" standalone="no"?>
<!DOCTYPE svg PUBLIC "-//W3C//DTD SVG 1.1//EN"
 "http://www.w3.org/Graphics/SVG/1.1/DTD/svg11.dtd">
<!-- Generated by graphviz version 2.40.1 (20161225.0304)
 -->
<!-- Title: libnolimits/NL2/Coaster/CustomFriction.cpp Pages: 1 -->
<svg width="179pt" height="147pt"
 viewBox="0.00 0.00 178.64 147.00" xmlns="http://www.w3.org/2000/svg" xmlns:xlink="http://www.w3.org/1999/xlink">
<g id="graph0" class="graph" transform="scale(1 1) rotate(0) translate(4 143)">
<title>libnolimits/NL2/Coaster/CustomFriction.cpp</title>
<!-- Node0 -->
<g id="node1" class="node">
<title>Node0</title>
<polygon fill="#bfbfbf" stroke="#000000" points="38.0542,-110.5 38.0542,-138.5 156.8716,-138.5 156.8716,-110.5 38.0542,-110.5"/>
<text text-anchor="start" x="46.0542" y="-126.5" font-family="Helvetica,sans-Serif" font-size="10.00" fill="#000000">libnolimits/NL2/Coaster</text>
<text text-anchor="middle" x="97.4629" y="-116.5" font-family="Helvetica,sans-Serif" font-size="10.00" fill="#000000">/CustomFriction.cpp</text>
</g>
<!-- Node1 -->
<g id="node2" class="node">
<title>Node1</title>
<g id="a_node2"><a xlink:href="_custom_friction_8h.html" target="_top" xlink:title="CustomFriction.h">
<polygon fill="none" stroke="#000000" points="6.6748,-55.5 6.6748,-73.5 98.251,-73.5 98.251,-55.5 6.6748,-55.5"/>
<text text-anchor="middle" x="52.4629" y="-61.5" font-family="Helvetica,sans-Serif" font-size="10.00" fill="#000000">CustomFriction.h</text>
</a>
</g>
</g>
<!-- Node0&#45;&gt;Node1 -->
<g id="edge1" class="edge">
<title>Node0&#45;&gt;Node1</title>
<path fill="none" stroke="#191970" d="M86.7985,-110.2808C80.4049,-101.756 72.2287,-90.8545 65.4589,-81.8281"/>
<polygon fill="#191970" stroke="#191970" points="68.0761,-79.4842 59.276,-73.5842 62.4761,-83.6842 68.0761,-79.4842"/>
</g>
<!-- Node11 -->
<g id="node4" class="node">
<title>Node11</title>
<polygon fill="none" stroke="#bfbfbf" points="116.2905,-55.5 116.2905,-73.5 170.6353,-73.5 170.6353,-55.5 116.2905,-55.5"/>
<text text-anchor="middle" x="143.4629" y="-61.5" font-family="Helvetica,sans-Serif" font-size="10.00" fill="#000000">iostream</text>
</g>
<!-- Node0&#45;&gt;Node11 -->
<g id="edge3" class="edge">
<title>Node0&#45;&gt;Node11</title>
<path fill="none" stroke="#191970" d="M108.3642,-110.2808C114.9681,-101.6672 123.4321,-90.6271 130.3938,-81.5466"/>
<polygon fill="#191970" stroke="#191970" points="133.1916,-83.6498 136.4983,-73.5842 127.6364,-79.3907 133.1916,-83.6498"/>
</g>
<!-- Node2 -->
<g id="node3" class="node">
<title>Node2</title>
<g id="a_node3"><a xlink:href="_chunk_8h.html" target="_top" xlink:title="../../Stream/Chunk.h">
<polygon fill="none" stroke="#ff0000" points="0,-.5 0,-18.5 104.9258,-18.5 104.9258,-.5 0,-.5"/>
<text text-anchor="middle" x="52.4629" y="-6.5" font-family="Helvetica,sans-Serif" font-size="10.00" fill="#000000">../../Stream/Chunk.h</text>
</a>
</g>
</g>
<!-- Node1&#45;&gt;Node2 -->
<g id="edge2" class="edge">
<title>Node1&#45;&gt;Node2</title>
<path fill="none" stroke="#191970" d="M52.4629,-55.4179C52.4629,-48.2164 52.4629,-37.8962 52.4629,-28.8632"/>
<polygon fill="#191970" stroke="#191970" points="55.963,-28.7794 52.4629,-18.7795 48.963,-28.7795 55.963,-28.7794"/>
</g>
</g>
</svg>
