<?xml version="1.0" encoding="UTF-8" standalone="no"?>
<!DOCTYPE svg PUBLIC "-//W3C//DTD SVG 1.1//EN"
 "http://www.w3.org/Graphics/SVG/1.1/DTD/svg11.dtd">
<!-- Generated by graphviz version 2.40.1 (20161225.0304)
 -->
<!-- Title: libnolimits/NL2/Coaster/Track/CustomTrack.h Pages: 1 -->
<svg width="875pt" height="367pt"
 viewBox="0.00 0.00 875.48 367.00" xmlns="http://www.w3.org/2000/svg" xmlns:xlink="http://www.w3.org/1999/xlink">
<g id="graph0" class="graph" transform="scale(1 1) rotate(0) translate(4 363)">
<title>libnolimits/NL2/Coaster/Track/CustomTrack.h</title>
<!-- Node0 -->
<g id="node1" class="node">
<title>Node0</title>
<polygon fill="#bfbfbf" stroke="#000000" points="317.207,-330.5 317.207,-358.5 436.0244,-358.5 436.0244,-330.5 317.207,-330.5"/>
<text text-anchor="start" x="325.207" y="-346.5" font-family="Helvetica,sans-Serif" font-size="10.00" fill="#000000">libnolimits/NL2/Coaster</text>
<text text-anchor="middle" x="376.6157" y="-336.5" font-family="Helvetica,sans-Serif" font-size="10.00" fill="#000000">/Track/CustomTrack.h</text>
</g>
<!-- Node1 -->
<g id="node2" class="node">
<title>Node1</title>
<polygon fill="none" stroke="#bfbfbf" points="0,-165.5 0,-183.5 43.2314,-183.5 43.2314,-165.5 0,-165.5"/>
<text text-anchor="middle" x="21.6157" y="-171.5" font-family="Helvetica,sans-Serif" font-size="10.00" fill="#000000">vector</text>
</g>
<!-- Node0&#45;&gt;Node1 -->
<g id="edge1" class="edge">
<title>Node0&#45;&gt;Node1</title>
<path fill="none" stroke="#191970" d="M316.896,-333.2923C230.7165,-315.9128 77.727,-280.1454 40.6157,-239 29.3875,-226.5512 24.7776,-207.7717 22.894,-193.6817"/>
<polygon fill="#191970" stroke="#191970" points="26.3639,-193.2033 21.8936,-183.5978 19.3981,-193.8945 26.3639,-193.2033"/>
</g>
<!-- Node2 -->
<g id="node3" class="node">
<title>Node2</title>
<g id="a_node3"><a xlink:href="_chunk_8h.html" target="_top" xlink:title="../../../Stream/Chunk.h">
<polygon fill="none" stroke="#000000" points="416.9854,-110.5 416.9854,-128.5 530.2461,-128.5 530.2461,-110.5 416.9854,-110.5"/>
<text text-anchor="middle" x="473.6157" y="-116.5" font-family="Helvetica,sans-Serif" font-size="10.00" fill="#000000">../../../Stream/Chunk.h</text>
</a>
</g>
</g>
<!-- Node0&#45;&gt;Node2 -->
<g id="edge2" class="edge">
<title>Node0&#45;&gt;Node2</title>
<path fill="none" stroke="#191970" d="M436.1693,-340.7085C497.4928,-335.3646 595.0588,-322.8133 674.6157,-294 765.9982,-260.9038 815.167,-268.2546 863.6157,-184 867.8252,-176.6795 869.2302,-171.3076 863.6157,-165 842.5618,-141.347 646.6076,-128.0594 540.7407,-122.5512"/>
<polygon fill="#191970" stroke="#191970" points="540.6397,-119.0416 530.4742,-122.0268 540.2825,-126.0325 540.6397,-119.0416"/>
</g>
<!-- Node17 -->
<g id="node7" class="node">
<title>Node17</title>
<g id="a_node7"><a xlink:href="_track_8h.html" target="_top" xlink:title="Track.h">
<polygon fill="none" stroke="#000000" points="224.1289,-275.5 224.1289,-293.5 273.1025,-293.5 273.1025,-275.5 224.1289,-275.5"/>
<text text-anchor="middle" x="248.6157" y="-281.5" font-family="Helvetica,sans-Serif" font-size="10.00" fill="#000000">Track.h</text>
</a>
</g>
</g>
<!-- Node0&#45;&gt;Node17 -->
<g id="edge8" class="edge">
<title>Node0&#45;&gt;Node17</title>
<path fill="none" stroke="#191970" d="M346.6054,-330.4327C325.6823,-320.625 297.9314,-307.6167 277.3042,-297.9477"/>
<polygon fill="#191970" stroke="#191970" points="278.6355,-294.7063 268.0953,-293.6311 275.6644,-301.0446 278.6355,-294.7063"/>
</g>
<!-- Node18 -->
<g id="node8" class="node">
<title>Node18</title>
<g id="a_node8"><a xlink:href="_section_8h.html" target="_top" xlink:title="Section/Section.h">
<polygon fill="none" stroke="#000000" points="217.7021,-220.5 217.7021,-238.5 311.5293,-238.5 311.5293,-220.5 217.7021,-220.5"/>
<text text-anchor="middle" x="264.6157" y="-226.5" font-family="Helvetica,sans-Serif" font-size="10.00" fill="#000000">Section/Section.h</text>
</a>
</g>
</g>
<!-- Node0&#45;&gt;Node18 -->
<g id="edge30" class="edge">
<title>Node0&#45;&gt;Node18</title>
<path fill="none" stroke="#191970" d="M362.8823,-330.3987C342.0861,-309.0455 302.6973,-268.6017 280.6285,-245.9417"/>
<polygon fill="#191970" stroke="#191970" points="283.088,-243.4506 273.6036,-238.7286 278.0733,-248.3345 283.088,-243.4506"/>
</g>
<!-- Node19 -->
<g id="node9" class="node">
<title>Node19</title>
<g id="a_node9"><a xlink:href="_roll_point_8h.html" target="_top" xlink:title="RollPoint.h">
<polygon fill="none" stroke="#000000" points="329.436,-220.5 329.436,-238.5 393.7954,-238.5 393.7954,-220.5 329.436,-220.5"/>
<text text-anchor="middle" x="361.6157" y="-226.5" font-family="Helvetica,sans-Serif" font-size="10.00" fill="#000000">RollPoint.h</text>
</a>
</g>
</g>
<!-- Node0&#45;&gt;Node19 -->
<g id="edge12" class="edge">
<title>Node0&#45;&gt;Node19</title>
<path fill="none" stroke="#191970" d="M371.5746,-330.1239C368.3331,-320.131 364.4046,-306.4272 362.6157,-294 360.4436,-278.9105 360.2987,-261.6313 360.6393,-248.7575"/>
<polygon fill="#191970" stroke="#191970" points="364.1374,-248.8713 361.0249,-238.744 357.1426,-248.6019 364.1374,-248.8713"/>
</g>
<!-- Node20 -->
<g id="node10" class="node">
<title>Node20</title>
<g id="a_node10"><a xlink:href="_vertex_8h.html" target="_top" xlink:title="Vertex.h">
<polygon fill="none" stroke="#000000" points="412.2686,-220.5 412.2686,-238.5 464.9629,-238.5 464.9629,-220.5 412.2686,-220.5"/>
<text text-anchor="middle" x="438.6157" y="-226.5" font-family="Helvetica,sans-Serif" font-size="10.00" fill="#000000">Vertex.h</text>
</a>
</g>
</g>
<!-- Node0&#45;&gt;Node20 -->
<g id="edge14" class="edge">
<title>Node0&#45;&gt;Node20</title>
<path fill="none" stroke="#191970" d="M378.4039,-330.4154C380.7163,-315.8045 385.6877,-292.6655 395.6157,-275 401.7494,-264.086 411.0689,-253.7818 419.4656,-245.7482"/>
<polygon fill="#191970" stroke="#191970" points="422.0626,-248.1171 427.0991,-238.7959 417.3491,-242.9418 422.0626,-248.1171"/>
</g>
<!-- Node21 -->
<g id="node11" class="node">
<title>Node21</title>
<g id="a_node11"><a xlink:href="_trigger_8h.html" target="_top" xlink:title="Trigger.h">
<polygon fill="none" stroke="#000000" points="405.0649,-275.5 405.0649,-293.5 460.1665,-293.5 460.1665,-275.5 405.0649,-275.5"/>
<text text-anchor="middle" x="432.6157" y="-281.5" font-family="Helvetica,sans-Serif" font-size="10.00" fill="#000000">Trigger.h</text>
</a>
</g>
</g>
<!-- Node0&#45;&gt;Node21 -->
<g id="edge16" class="edge">
<title>Node0&#45;&gt;Node21</title>
<path fill="none" stroke="#191970" d="M389.8869,-330.2808C398.0921,-321.4896 408.6563,-310.1708 417.2274,-300.9875"/>
<polygon fill="#191970" stroke="#191970" points="419.8726,-303.2829 424.1371,-293.5842 414.7552,-298.5066 419.8726,-303.2829"/>
</g>
<!-- Node22 -->
<g id="node12" class="node">
<title>Node22</title>
<g id="a_node12"><a xlink:href="_parameter4_d_8h.html" target="_top" xlink:title="Parameter4D.h">
<polygon fill="none" stroke="#000000" points="477.7119,-275.5 477.7119,-293.5 561.5195,-293.5 561.5195,-275.5 477.7119,-275.5"/>
<text text-anchor="middle" x="519.6157" y="-281.5" font-family="Helvetica,sans-Serif" font-size="10.00" fill="#000000">Parameter4D.h</text>
</a>
</g>
</g>
<!-- Node0&#45;&gt;Node22 -->
<g id="edge18" class="edge">
<title>Node0&#45;&gt;Node22</title>
<path fill="none" stroke="#191970" d="M410.1429,-330.4327C433.8352,-320.4918 465.364,-307.263 488.4994,-297.5558"/>
<polygon fill="#191970" stroke="#191970" points="489.9863,-300.7276 497.8534,-293.6311 487.278,-294.2727 489.9863,-300.7276"/>
</g>
<!-- Node23 -->
<g id="node13" class="node">
<title>Node23</title>
<g id="a_node13"><a xlink:href="_segment_8h.html" target="_top" xlink:title="Segment.h">
<polygon fill="none" stroke="#000000" points="633.4336,-220.5 633.4336,-238.5 697.7979,-238.5 697.7979,-220.5 633.4336,-220.5"/>
<text text-anchor="middle" x="665.6157" y="-226.5" font-family="Helvetica,sans-Serif" font-size="10.00" fill="#000000">Segment.h</text>
</a>
</g>
</g>
<!-- Node0&#45;&gt;Node23 -->
<g id="edge20" class="edge">
<title>Node0&#45;&gt;Node23</title>
<path fill="none" stroke="#191970" d="M436.1766,-341.7525C509.2083,-337.0746 626.9675,-324.8523 656.6157,-294 667.8663,-282.2925 669.3266,-263.4226 668.4402,-249.1103"/>
<polygon fill="#191970" stroke="#191970" points="671.8869,-248.4163 667.3686,-238.8333 664.9247,-249.1424 671.8869,-248.4163"/>
</g>
<!-- Node26 -->
<g id="node16" class="node">
<title>Node26</title>
<g id="a_node16"><a xlink:href="_separator_8h.html" target="_top" xlink:title="Separator.h">
<polygon fill="none" stroke="#000000" points="579.7612,-275.5 579.7612,-293.5 647.4702,-293.5 647.4702,-275.5 579.7612,-275.5"/>
<text text-anchor="middle" x="613.6157" y="-281.5" font-family="Helvetica,sans-Serif" font-size="10.00" fill="#000000">Separator.h</text>
</a>
</g>
</g>
<!-- Node0&#45;&gt;Node26 -->
<g id="edge26" class="edge">
<title>Node0&#45;&gt;Node26</title>
<path fill="none" stroke="#191970" d="M432.1817,-330.4327C474.1299,-319.8129 530.9003,-305.4406 569.6984,-295.6183"/>
<polygon fill="#191970" stroke="#191970" points="570.8105,-298.9473 579.6456,-293.1 569.0924,-292.1614 570.8105,-298.9473"/>
</g>
<!-- Node27 -->
<g id="node17" class="node">
<title>Node27</title>
<g id="a_node17"><a xlink:href="_rail_node_8h.html" target="_top" xlink:title="../Support/RailNode.h">
<polygon fill="none" stroke="#000000" points="49.8105,-220.5 49.8105,-238.5 161.4209,-238.5 161.4209,-220.5 49.8105,-220.5"/>
<text text-anchor="middle" x="105.6157" y="-226.5" font-family="Helvetica,sans-Serif" font-size="10.00" fill="#000000">../Support/RailNode.h</text>
</a>
</g>
</g>
<!-- Node0&#45;&gt;Node27 -->
<g id="edge31" class="edge">
<title>Node0&#45;&gt;Node27</title>
<path fill="none" stroke="#191970" d="M321.0826,-330.4361C289.5184,-321.6192 249.6291,-309.0729 215.6157,-294 183.5609,-279.795 149.0673,-258.4798 127.4208,-244.2886"/>
<polygon fill="#191970" stroke="#191970" points="129.2425,-241.2969 118.9748,-238.6843 125.3721,-247.1297 129.2425,-241.2969"/>
</g>
<!-- Node3 -->
<g id="node4" class="node">
<title>Node3</title>
<g id="a_node4"><a xlink:href="_file_8h.html" target="_top" xlink:title="../File/File.h">
<polygon fill="none" stroke="#ff0000" points="406.7759,-55.5 406.7759,-73.5 474.4556,-73.5 474.4556,-55.5 406.7759,-55.5"/>
<text text-anchor="middle" x="440.6157" y="-61.5" font-family="Helvetica,sans-Serif" font-size="10.00" fill="#000000">../File/File.h</text>
</a>
</g>
</g>
<!-- Node2&#45;&gt;Node3 -->
<g id="edge3" class="edge">
<title>Node2&#45;&gt;Node3</title>
<path fill="none" stroke="#191970" d="M468.1664,-110.4179C463.6081,-102.8207 456.9673,-91.7527 451.3477,-82.3866"/>
<polygon fill="#191970" stroke="#191970" points="454.3296,-80.5536 446.1834,-73.7795 448.3272,-84.1552 454.3296,-80.5536"/>
</g>
<!-- Node7 -->
<g id="node5" class="node">
<title>Node7</title>
<polygon fill="none" stroke="#bfbfbf" points="454.4951,-.5 454.4951,-18.5 502.7363,-18.5 502.7363,-.5 454.4951,-.5"/>
<text text-anchor="middle" x="478.6157" y="-6.5" font-family="Helvetica,sans-Serif" font-size="10.00" fill="#000000">stdint.h</text>
</g>
<!-- Node2&#45;&gt;Node7 -->
<g id="edge6" class="edge">
<title>Node2&#45;&gt;Node7</title>
<path fill="none" stroke="#191970" d="M476.2836,-110.1868C478.7503,-101.0585 482.2361,-86.7041 483.6157,-74 485.2663,-58.8005 483.7478,-41.5282 481.9638,-28.6851"/>
<polygon fill="#191970" stroke="#191970" points="485.4056,-28.0405 480.4006,-18.7023 478.4898,-29.1234 485.4056,-28.0405"/>
</g>
<!-- Node8 -->
<g id="node6" class="node">
<title>Node8</title>
<g id="a_node6"><a xlink:href="_nolimits_8h.html" target="_top" xlink:title="../Nolimits.h">
<polygon fill="none" stroke="#ff0000" points="344.5,-.5 344.5,-18.5 412.7314,-18.5 412.7314,-.5 344.5,-.5"/>
<text text-anchor="middle" x="378.6157" y="-6.5" font-family="Helvetica,sans-Serif" font-size="10.00" fill="#000000">../Nolimits.h</text>
</a>
</g>
</g>
<!-- Node2&#45;&gt;Node8 -->
<g id="edge7" class="edge">
<title>Node2&#45;&gt;Node8</title>
<path fill="none" stroke="#191970" d="M449.0632,-110.4252C432.291,-103.0346 410.7973,-91.0226 397.6157,-74 387.5649,-61.0204 382.823,-42.8379 380.5903,-29.0851"/>
<polygon fill="#191970" stroke="#191970" points="384.0107,-28.2478 379.2436,-18.786 377.0698,-29.1555 384.0107,-28.2478"/>
</g>
<!-- Node3&#45;&gt;Node7 -->
<g id="edge4" class="edge">
<title>Node3&#45;&gt;Node7</title>
<path fill="none" stroke="#191970" d="M446.8906,-55.4179C452.1943,-47.7415 459.9462,-36.5217 466.4595,-27.0945"/>
<polygon fill="#191970" stroke="#191970" points="469.3997,-28.9963 472.2045,-18.7795 463.6405,-25.0173 469.3997,-28.9963"/>
</g>
<!-- Node3&#45;&gt;Node8 -->
<g id="edge5" class="edge">
<title>Node3&#45;&gt;Node8</title>
<path fill="none" stroke="#191970" d="M430.3777,-55.4179C421.2783,-47.3458 407.762,-35.3556 396.8231,-25.6517"/>
<polygon fill="#191970" stroke="#191970" points="398.8796,-22.7974 389.0762,-18.7795 394.2343,-28.0339 398.8796,-22.7974"/>
</g>
<!-- Node17&#45;&gt;Node2 -->
<g id="edge9" class="edge">
<title>Node17&#45;&gt;Node2</title>
<path fill="none" stroke="#191970" d="M235.767,-275.3563C219.5883,-262.6991 195.4121,-239.2248 208.6157,-220 233.7724,-183.3711 355.3432,-148.4012 424.7583,-130.9825"/>
<polygon fill="#191970" stroke="#191970" points="425.7397,-134.3453 434.6037,-128.5418 424.0553,-127.5509 425.7397,-134.3453"/>
</g>
<!-- Node17&#45;&gt;Node18 -->
<g id="edge10" class="edge">
<title>Node17&#45;&gt;Node18</title>
<path fill="none" stroke="#191970" d="M251.2578,-275.4179C253.3758,-268.1372 256.4211,-257.669 259.0693,-248.5659"/>
<polygon fill="#191970" stroke="#191970" points="262.4836,-249.3591 261.9162,-238.7795 255.7622,-247.4037 262.4836,-249.3591"/>
</g>
<!-- Node18&#45;&gt;Node2 -->
<g id="edge11" class="edge">
<title>Node18&#45;&gt;Node2</title>
<path fill="none" stroke="#191970" d="M281.7191,-220.4982C318.1548,-201.3216 403.6457,-156.3263 447.1622,-133.4229"/>
<polygon fill="#191970" stroke="#191970" points="449.057,-136.3809 456.2761,-128.6261 445.7967,-130.1864 449.057,-136.3809"/>
</g>
<!-- Node19&#45;&gt;Node2 -->
<g id="edge13" class="edge">
<title>Node19&#45;&gt;Node2</title>
<path fill="none" stroke="#191970" d="M370.7812,-220.4982C389.6502,-201.9662 433.0696,-159.3221 457.0137,-135.8056"/>
<polygon fill="#191970" stroke="#191970" points="459.6416,-138.1303 464.3236,-128.6261 454.7367,-133.1362 459.6416,-138.1303"/>
</g>
<!-- Node20&#45;&gt;Node2 -->
<g id="edge15" class="edge">
<title>Node20&#45;&gt;Node2</title>
<path fill="none" stroke="#191970" d="M441.4799,-220.4982C447.1714,-202.6108 460.0105,-162.2594 467.6253,-138.3271"/>
<polygon fill="#191970" stroke="#191970" points="471.0151,-139.2166 470.7119,-128.6261 464.3446,-137.0942 471.0151,-139.2166"/>
</g>
<!-- Node21&#45;&gt;Node2 -->
<g id="edge17" class="edge">
<title>Node21&#45;&gt;Node2</title>
<path fill="none" stroke="#191970" d="M444.9412,-275.2157C454.8036,-266.9515 467.8969,-253.8894 473.6157,-239 486.4589,-205.5614 481.9782,-162.8707 477.6995,-138.618"/>
<polygon fill="#191970" stroke="#191970" points="481.0947,-137.7413 475.7514,-128.5926 474.2232,-139.0766 481.0947,-137.7413"/>
</g>
<!-- Node22&#45;&gt;Node2 -->
<g id="edge19" class="edge">
<title>Node22&#45;&gt;Node2</title>
<path fill="none" stroke="#191970" d="M518.5717,-275.3017C516.0931,-254.9842 509.0334,-204.9151 495.6157,-165 492.4753,-155.6578 487.8551,-145.7539 483.6584,-137.5798"/>
<polygon fill="#191970" stroke="#191970" points="486.6735,-135.7956 478.8773,-128.6213 480.498,-139.0914 486.6735,-135.7956"/>
</g>
<!-- Node23&#45;&gt;Node2 -->
<g id="edge25" class="edge">
<title>Node23&#45;&gt;Node2</title>
<path fill="none" stroke="#191970" d="M655.5159,-220.1972C640.4971,-206.7146 610.9903,-181.5503 582.6157,-165 559.7283,-151.6503 532.1768,-140.1853 510.5001,-132.1034"/>
<polygon fill="#191970" stroke="#191970" points="511.5856,-128.7739 500.9917,-128.6335 509.1859,-135.3497 511.5856,-128.7739"/>
</g>
<!-- Node24 -->
<g id="node14" class="node">
<title>Node24</title>
<g id="a_node14"><a xlink:href="_colors_8h.html" target="_top" xlink:title="../Colors.h">
<polygon fill="none" stroke="#000000" points="634.8301,-165.5 634.8301,-183.5 696.4014,-183.5 696.4014,-165.5 634.8301,-165.5"/>
<text text-anchor="middle" x="665.6157" y="-171.5" font-family="Helvetica,sans-Serif" font-size="10.00" fill="#000000">../Colors.h</text>
</a>
</g>
</g>
<!-- Node23&#45;&gt;Node24 -->
<g id="edge21" class="edge">
<title>Node23&#45;&gt;Node24</title>
<path fill="none" stroke="#191970" d="M665.6157,-220.4179C665.6157,-213.2164 665.6157,-202.8962 665.6157,-193.8632"/>
<polygon fill="#191970" stroke="#191970" points="669.1158,-193.7794 665.6157,-183.7795 662.1158,-193.7795 669.1158,-193.7794"/>
</g>
<!-- Node25 -->
<g id="node15" class="node">
<title>Node25</title>
<g id="a_node15"><a xlink:href="_wooden_support_generator_8h.html" target="_top" xlink:title="WoodenSupportGenerator.h">
<polygon fill="none" stroke="#000000" points="714.1597,-165.5 714.1597,-183.5 855.0718,-183.5 855.0718,-165.5 714.1597,-165.5"/>
<text text-anchor="middle" x="784.6157" y="-171.5" font-family="Helvetica,sans-Serif" font-size="10.00" fill="#000000">WoodenSupportGenerator.h</text>
</a>
</g>
</g>
<!-- Node23&#45;&gt;Node25 -->
<g id="edge23" class="edge">
<title>Node23&#45;&gt;Node25</title>
<path fill="none" stroke="#191970" d="M685.2662,-220.4179C704.4727,-211.5409 733.932,-197.9253 755.7897,-187.823"/>
<polygon fill="#191970" stroke="#191970" points="757.3271,-190.9682 764.9361,-183.5956 754.3903,-184.614 757.3271,-190.9682"/>
</g>
<!-- Node24&#45;&gt;Node2 -->
<g id="edge22" class="edge">
<title>Node24&#45;&gt;Node2</title>
<path fill="none" stroke="#191970" d="M634.7676,-165.6633C602.3081,-156.365 551.0329,-141.6768 515.0584,-131.3716"/>
<polygon fill="#191970" stroke="#191970" points="515.9231,-127.9786 505.3458,-128.5894 513.9953,-134.7079 515.9231,-127.9786"/>
</g>
<!-- Node25&#45;&gt;Node2 -->
<g id="edge24" class="edge">
<title>Node25&#45;&gt;Node2</title>
<path fill="none" stroke="#191970" d="M733.6086,-165.4795C679.1499,-155.8485 592.8665,-140.5894 534.793,-130.3191"/>
<polygon fill="#191970" stroke="#191970" points="535.1074,-126.8205 524.6507,-128.5255 533.8883,-133.7135 535.1074,-126.8205"/>
</g>
<!-- Node26&#45;&gt;Node2 -->
<g id="edge29" class="edge">
<title>Node26&#45;&gt;Node2</title>
<path fill="none" stroke="#191970" d="M605.6876,-275.1561C582.9712,-248.3832 517.4008,-171.1038 488.0817,-136.5492"/>
<polygon fill="#191970" stroke="#191970" points="490.5955,-134.1021 481.4569,-128.7414 485.2579,-138.6309 490.5955,-134.1021"/>
</g>
<!-- Node26&#45;&gt;Node18 -->
<g id="edge27" class="edge">
<title>Node26&#45;&gt;Node18</title>
<path fill="none" stroke="#191970" d="M579.3946,-276.6987C576.431,-276.0963 573.4739,-275.5208 570.6157,-275 463.3044,-255.4474 433.2068,-256.3208 321.6236,-239.1189"/>
<polygon fill="#191970" stroke="#191970" points="322.0748,-235.647 311.6555,-237.5677 320.9984,-242.5638 322.0748,-235.647"/>
</g>
<!-- Node26&#45;&gt;Node23 -->
<g id="edge28" class="edge">
<title>Node26&#45;&gt;Node23</title>
<path fill="none" stroke="#191970" d="M622.2025,-275.4179C629.6846,-267.5041 640.7273,-255.8243 649.8029,-246.2251"/>
<polygon fill="#191970" stroke="#191970" points="652.5155,-248.4505 656.8424,-238.7795 647.429,-243.6414 652.5155,-248.4505"/>
</g>
<!-- Node27&#45;&gt;Node1 -->
<g id="edge37" class="edge">
<title>Node27&#45;&gt;Node1</title>
<path fill="none" stroke="#191970" d="M91.7448,-220.4179C78.856,-211.9788 59.4264,-199.257 44.2844,-189.3426"/>
<polygon fill="#191970" stroke="#191970" points="45.7907,-186.1454 35.5072,-183.5956 41.9562,-192.0017 45.7907,-186.1454"/>
</g>
<!-- Node27&#45;&gt;Node2 -->
<g id="edge32" class="edge">
<title>Node27&#45;&gt;Node2</title>
<path fill="none" stroke="#191970" d="M106.013,-220.3266C107.1638,-206.055 111.6022,-178.7496 128.6157,-165 139.3089,-156.3582 309.2765,-136.9962 406.5711,-126.5322"/>
<polygon fill="#191970" stroke="#191970" points="407.0472,-130.0013 416.6173,-125.4555 406.3012,-123.0411 407.0472,-130.0013"/>
</g>
<!-- Node28 -->
<g id="node18" class="node">
<title>Node28</title>
<g id="a_node18"><a xlink:href="_support_node_8h.html" target="_top" xlink:title="SupportNode.h">
<polygon fill="none" stroke="#000000" points="286.9805,-110.5 286.9805,-128.5 370.251,-128.5 370.251,-110.5 286.9805,-110.5"/>
<text text-anchor="middle" x="328.6157" y="-116.5" font-family="Helvetica,sans-Serif" font-size="10.00" fill="#000000">SupportNode.h</text>
</a>
</g>
</g>
<!-- Node27&#45;&gt;Node28 -->
<g id="edge33" class="edge">
<title>Node27&#45;&gt;Node28</title>
<path fill="none" stroke="#191970" d="M100.3054,-220.438C93.09,-206.8038 82.5043,-180.9194 95.6157,-165 118.0941,-137.7075 215.1018,-126.5607 276.641,-122.1768"/>
<polygon fill="#191970" stroke="#191970" points="277.2021,-125.647 286.9439,-121.482 276.7311,-118.6629 277.2021,-125.647"/>
</g>
<!-- Node29 -->
<g id="node19" class="node">
<title>Node29</title>
<g id="a_node19"><a xlink:href="_support_parameter_8h.html" target="_top" xlink:title="SupportParameter.h">
<polygon fill="none" stroke="#000000" points="137.8647,-165.5 137.8647,-183.5 243.3667,-183.5 243.3667,-165.5 137.8647,-165.5"/>
<text text-anchor="middle" x="190.6157" y="-171.5" font-family="Helvetica,sans-Serif" font-size="10.00" fill="#000000">SupportParameter.h</text>
</a>
</g>
</g>
<!-- Node27&#45;&gt;Node29 -->
<g id="edge35" class="edge">
<title>Node27&#45;&gt;Node29</title>
<path fill="none" stroke="#191970" d="M119.6517,-220.4179C132.817,-211.8992 152.7265,-199.0166 168.1097,-189.0627"/>
<polygon fill="#191970" stroke="#191970" points="170.0645,-191.9667 176.5588,-183.5956 166.2617,-186.0897 170.0645,-191.9667"/>
</g>
<!-- Node28&#45;&gt;Node8 -->
<g id="edge34" class="edge">
<title>Node28&#45;&gt;Node8</title>
<path fill="none" stroke="#191970" d="M332.7074,-110.4982C340.8747,-92.5302 359.3451,-51.8954 370.2045,-28.0046"/>
<polygon fill="#191970" stroke="#191970" points="373.5157,-29.1781 374.4675,-18.6261 367.1431,-26.2815 373.5157,-29.1781"/>
</g>
<!-- Node29&#45;&gt;Node2 -->
<g id="edge36" class="edge">
<title>Node29&#45;&gt;Node2</title>
<path fill="none" stroke="#191970" d="M237.0305,-165.4795C286.381,-155.8884 364.4516,-140.7156 417.2886,-130.447"/>
<polygon fill="#191970" stroke="#191970" points="418.027,-133.869 427.1756,-128.5255 416.6915,-126.9976 418.027,-133.869"/>
</g>
</g>
</svg>
