<?xml version="1.0" encoding="UTF-8" standalone="no"?>
<!DOCTYPE svg PUBLIC "-//W3C//DTD SVG 1.1//EN"
 "http://www.w3.org/Graphics/SVG/1.1/DTD/svg11.dtd">
<!-- Generated by graphviz version 2.40.1 (20161225.0304)
 -->
<!-- Title: libnolimits/NL2/Coaster/Track/CustomTrack.h Pages: 1 -->
<svg width="893pt" height="367pt"
 viewBox="0.00 0.00 893.48 367.00" xmlns="http://www.w3.org/2000/svg" xmlns:xlink="http://www.w3.org/1999/xlink">
<g id="graph0" class="graph" transform="scale(1 1) rotate(0) translate(4 363)">
<title>libnolimits/NL2/Coaster/Track/CustomTrack.h</title>
<!-- Node0 -->
<g id="node1" class="node">
<title>Node0</title>
<polygon fill="#bfbfbf" stroke="#000000" points="335.207,-330.5 335.207,-358.5 454.0244,-358.5 454.0244,-330.5 335.207,-330.5"/>
<text text-anchor="start" x="343.207" y="-346.5" font-family="Helvetica,sans-Serif" font-size="10.00" fill="#000000">libnolimits/NL2/Coaster</text>
<text text-anchor="middle" x="394.6157" y="-336.5" font-family="Helvetica,sans-Serif" font-size="10.00" fill="#000000">/Track/CustomTrack.h</text>
</g>
<!-- Node1 -->
<g id="node2" class="node">
<title>Node1</title>
<polygon fill="none" stroke="#bfbfbf" points="0,-165.5 0,-183.5 43.2314,-183.5 43.2314,-165.5 0,-165.5"/>
<text text-anchor="middle" x="21.6157" y="-171.5" font-family="Helvetica,sans-Serif" font-size="10.00" fill="#000000">vector</text>
</g>
<!-- Node0&#45;&gt;Node1 -->
<g id="edge1" class="edge">
<title>Node0&#45;&gt;Node1</title>
<path fill="none" stroke="#191970" d="M335.0251,-334.6983C243.9245,-318.4846 76.3765,-283.4145 36.6157,-239 25.6034,-226.6987 22.2259,-207.9012 21.3829,-193.767"/>
<polygon fill="#191970" stroke="#191970" points="24.8793,-193.5625 21.1528,-183.6446 17.8811,-193.7216 24.8793,-193.5625"/>
</g>
<!-- Node2 -->
<g id="node3" class="node">
<title>Node2</title>
<g id="a_node3"><a xlink:href="_chunk_8h.html" target="_top" xlink:title="../../../Stream/Chunk.h">
<polygon fill="none" stroke="#000000" points="434.9854,-110.5 434.9854,-128.5 548.2461,-128.5 548.2461,-110.5 434.9854,-110.5"/>
<text text-anchor="middle" x="491.6157" y="-116.5" font-family="Helvetica,sans-Serif" font-size="10.00" fill="#000000">../../../Stream/Chunk.h</text>
</a>
</g>
</g>
<!-- Node0&#45;&gt;Node2 -->
<g id="edge2" class="edge">
<title>Node0&#45;&gt;Node2</title>
<path fill="none" stroke="#191970" d="M454.1693,-340.7085C515.4928,-335.3646 613.0588,-322.8133 692.6157,-294 783.9982,-260.9038 833.167,-268.2546 881.6157,-184 885.8252,-176.6795 887.2302,-171.3076 881.6157,-165 860.5618,-141.347 664.6076,-128.0594 558.7407,-122.5512"/>
<polygon fill="#191970" stroke="#191970" points="558.6397,-119.0416 548.4742,-122.0268 558.2825,-126.0325 558.6397,-119.0416"/>
</g>
<!-- Node17 -->
<g id="node7" class="node">
<title>Node17</title>
<g id="a_node7"><a xlink:href="_track_8h.html" target="_top" xlink:title="Track.h">
<polygon fill="none" stroke="#000000" points="242.1289,-275.5 242.1289,-293.5 291.1025,-293.5 291.1025,-275.5 242.1289,-275.5"/>
<text text-anchor="middle" x="266.6157" y="-281.5" font-family="Helvetica,sans-Serif" font-size="10.00" fill="#000000">Track.h</text>
</a>
</g>
</g>
<!-- Node0&#45;&gt;Node17 -->
<g id="edge8" class="edge">
<title>Node0&#45;&gt;Node17</title>
<path fill="none" stroke="#191970" d="M364.6054,-330.4327C343.6823,-320.625 315.9314,-307.6167 295.3042,-297.9477"/>
<polygon fill="#191970" stroke="#191970" points="296.6355,-294.7063 286.0953,-293.6311 293.6644,-301.0446 296.6355,-294.7063"/>
</g>
<!-- Node18 -->
<g id="node8" class="node">
<title>Node18</title>
<g id="a_node8"><a xlink:href="_section_8h.html" target="_top" xlink:title="Section/Section.h">
<polygon fill="none" stroke="#000000" points="235.7021,-220.5 235.7021,-238.5 329.5293,-238.5 329.5293,-220.5 235.7021,-220.5"/>
<text text-anchor="middle" x="282.6157" y="-226.5" font-family="Helvetica,sans-Serif" font-size="10.00" fill="#000000">Section/Section.h</text>
</a>
</g>
</g>
<!-- Node0&#45;&gt;Node18 -->
<g id="edge30" class="edge">
<title>Node0&#45;&gt;Node18</title>
<path fill="none" stroke="#191970" d="M380.8823,-330.3987C360.0861,-309.0455 320.6973,-268.6017 298.6285,-245.9417"/>
<polygon fill="#191970" stroke="#191970" points="301.088,-243.4506 291.6036,-238.7286 296.0733,-248.3345 301.088,-243.4506"/>
</g>
<!-- Node19 -->
<g id="node9" class="node">
<title>Node19</title>
<g id="a_node9"><a xlink:href="_roll_point_8h.html" target="_top" xlink:title="RollPoint.h">
<polygon fill="none" stroke="#000000" points="347.436,-220.5 347.436,-238.5 411.7954,-238.5 411.7954,-220.5 347.436,-220.5"/>
<text text-anchor="middle" x="379.6157" y="-226.5" font-family="Helvetica,sans-Serif" font-size="10.00" fill="#000000">RollPoint.h</text>
</a>
</g>
</g>
<!-- Node0&#45;&gt;Node19 -->
<g id="edge12" class="edge">
<title>Node0&#45;&gt;Node19</title>
<path fill="none" stroke="#191970" d="M389.5746,-330.1239C386.3331,-320.131 382.4046,-306.4272 380.6157,-294 378.4436,-278.9105 378.2987,-261.6313 378.6393,-248.7575"/>
<polygon fill="#191970" stroke="#191970" points="382.1374,-248.8713 379.0249,-238.744 375.1426,-248.6019 382.1374,-248.8713"/>
</g>
<!-- Node20 -->
<g id="node10" class="node">
<title>Node20</title>
<g id="a_node10"><a xlink:href="_vertex_8h.html" target="_top" xlink:title="Vertex.h">
<polygon fill="none" stroke="#000000" points="430.2686,-220.5 430.2686,-238.5 482.9629,-238.5 482.9629,-220.5 430.2686,-220.5"/>
<text text-anchor="middle" x="456.6157" y="-226.5" font-family="Helvetica,sans-Serif" font-size="10.00" fill="#000000">Vertex.h</text>
</a>
</g>
</g>
<!-- Node0&#45;&gt;Node20 -->
<g id="edge14" class="edge">
<title>Node0&#45;&gt;Node20</title>
<path fill="none" stroke="#191970" d="M396.4039,-330.4154C398.7163,-315.8045 403.6877,-292.6655 413.6157,-275 419.7494,-264.086 429.0689,-253.7818 437.4656,-245.7482"/>
<polygon fill="#191970" stroke="#191970" points="440.0626,-248.1171 445.0991,-238.7959 435.3491,-242.9418 440.0626,-248.1171"/>
</g>
<!-- Node21 -->
<g id="node11" class="node">
<title>Node21</title>
<g id="a_node11"><a xlink:href="_trigger_8h.html" target="_top" xlink:title="Trigger.h">
<polygon fill="none" stroke="#000000" points="423.0649,-275.5 423.0649,-293.5 478.1665,-293.5 478.1665,-275.5 423.0649,-275.5"/>
<text text-anchor="middle" x="450.6157" y="-281.5" font-family="Helvetica,sans-Serif" font-size="10.00" fill="#000000">Trigger.h</text>
</a>
</g>
</g>
<!-- Node0&#45;&gt;Node21 -->
<g id="edge16" class="edge">
<title>Node0&#45;&gt;Node21</title>
<path fill="none" stroke="#191970" d="M407.8869,-330.2808C416.0921,-321.4896 426.6563,-310.1708 435.2274,-300.9875"/>
<polygon fill="#191970" stroke="#191970" points="437.8726,-303.2829 442.1371,-293.5842 432.7552,-298.5066 437.8726,-303.2829"/>
</g>
<!-- Node22 -->
<g id="node12" class="node">
<title>Node22</title>
<g id="a_node12"><a xlink:href="_parameter4_d_8h.html" target="_top" xlink:title="Parameter4D.h">
<polygon fill="none" stroke="#000000" points="495.7119,-275.5 495.7119,-293.5 579.5195,-293.5 579.5195,-275.5 495.7119,-275.5"/>
<text text-anchor="middle" x="537.6157" y="-281.5" font-family="Helvetica,sans-Serif" font-size="10.00" fill="#000000">Parameter4D.h</text>
</a>
</g>
</g>
<!-- Node0&#45;&gt;Node22 -->
<g id="edge18" class="edge">
<title>Node0&#45;&gt;Node22</title>
<path fill="none" stroke="#191970" d="M428.1429,-330.4327C451.8352,-320.4918 483.364,-307.263 506.4994,-297.5558"/>
<polygon fill="#191970" stroke="#191970" points="507.9863,-300.7276 515.8534,-293.6311 505.278,-294.2727 507.9863,-300.7276"/>
</g>
<!-- Node23 -->
<g id="node13" class="node">
<title>Node23</title>
<g id="a_node13"><a xlink:href="_segment_8h.html" target="_top" xlink:title="Segment.h">
<polygon fill="none" stroke="#000000" points="651.4336,-220.5 651.4336,-238.5 715.7979,-238.5 715.7979,-220.5 651.4336,-220.5"/>
<text text-anchor="middle" x="683.6157" y="-226.5" font-family="Helvetica,sans-Serif" font-size="10.00" fill="#000000">Segment.h</text>
</a>
</g>
</g>
<!-- Node0&#45;&gt;Node23 -->
<g id="edge20" class="edge">
<title>Node0&#45;&gt;Node23</title>
<path fill="none" stroke="#191970" d="M454.1766,-341.7525C527.2083,-337.0746 644.9675,-324.8523 674.6157,-294 685.8663,-282.2925 687.3266,-263.4226 686.4402,-249.1103"/>
<polygon fill="#191970" stroke="#191970" points="689.8869,-248.4163 685.3686,-238.8333 682.9247,-249.1424 689.8869,-248.4163"/>
</g>
<!-- Node26 -->
<g id="node16" class="node">
<title>Node26</title>
<g id="a_node16"><a xlink:href="_separator_8h.html" target="_top" xlink:title="Separator.h">
<polygon fill="none" stroke="#000000" points="597.7612,-275.5 597.7612,-293.5 665.4702,-293.5 665.4702,-275.5 597.7612,-275.5"/>
<text text-anchor="middle" x="631.6157" y="-281.5" font-family="Helvetica,sans-Serif" font-size="10.00" fill="#000000">Separator.h</text>
</a>
</g>
</g>
<!-- Node0&#45;&gt;Node26 -->
<g id="edge26" class="edge">
<title>Node0&#45;&gt;Node26</title>
<path fill="none" stroke="#191970" d="M450.1817,-330.4327C492.1299,-319.8129 548.9003,-305.4406 587.6984,-295.6183"/>
<polygon fill="#191970" stroke="#191970" points="588.8105,-298.9473 597.6456,-293.1 587.0924,-292.1614 588.8105,-298.9473"/>
</g>
<!-- Node27 -->
<g id="node17" class="node">
<title>Node27</title>
<g id="a_node17"><a xlink:href="_rail_connector_8h.html" target="_top" xlink:title="../Support/RailConnector.h">
<polygon fill="none" stroke="#000000" points="45.9683,-220.5 45.9683,-238.5 179.2632,-238.5 179.2632,-220.5 45.9683,-220.5"/>
<text text-anchor="middle" x="112.6157" y="-226.5" font-family="Helvetica,sans-Serif" font-size="10.00" fill="#000000">../Support/RailConnector.h</text>
</a>
</g>
</g>
<!-- Node0&#45;&gt;Node27 -->
<g id="edge31" class="edge">
<title>Node0&#45;&gt;Node27</title>
<path fill="none" stroke="#191970" d="M341.1601,-330.4345C309.3923,-321.4134 268.6035,-308.6626 233.6157,-294 198.5338,-279.2979 160.1054,-257.8203 136.1759,-243.7533"/>
<polygon fill="#191970" stroke="#191970" points="137.8403,-240.6711 127.4546,-238.5763 134.2671,-246.6905 137.8403,-240.6711"/>
</g>
<!-- Node3 -->
<g id="node4" class="node">
<title>Node3</title>
<g id="a_node4"><a xlink:href="_file_8h.html" target="_top" xlink:title="../File/File.h">
<polygon fill="none" stroke="#ff0000" points="424.7759,-55.5 424.7759,-73.5 492.4556,-73.5 492.4556,-55.5 424.7759,-55.5"/>
<text text-anchor="middle" x="458.6157" y="-61.5" font-family="Helvetica,sans-Serif" font-size="10.00" fill="#000000">../File/File.h</text>
</a>
</g>
</g>
<!-- Node2&#45;&gt;Node3 -->
<g id="edge3" class="edge">
<title>Node2&#45;&gt;Node3</title>
<path fill="none" stroke="#191970" d="M486.1664,-110.4179C481.6081,-102.8207 474.9673,-91.7527 469.3477,-82.3866"/>
<polygon fill="#191970" stroke="#191970" points="472.3296,-80.5536 464.1834,-73.7795 466.3272,-84.1552 472.3296,-80.5536"/>
</g>
<!-- Node7 -->
<g id="node5" class="node">
<title>Node7</title>
<polygon fill="none" stroke="#bfbfbf" points="472.4951,-.5 472.4951,-18.5 520.7363,-18.5 520.7363,-.5 472.4951,-.5"/>
<text text-anchor="middle" x="496.6157" y="-6.5" font-family="Helvetica,sans-Serif" font-size="10.00" fill="#000000">stdint.h</text>
</g>
<!-- Node2&#45;&gt;Node7 -->
<g id="edge6" class="edge">
<title>Node2&#45;&gt;Node7</title>
<path fill="none" stroke="#191970" d="M494.2836,-110.1868C496.7503,-101.0585 500.2361,-86.7041 501.6157,-74 503.2663,-58.8005 501.7478,-41.5282 499.9638,-28.6851"/>
<polygon fill="#191970" stroke="#191970" points="503.4056,-28.0405 498.4006,-18.7023 496.4898,-29.1234 503.4056,-28.0405"/>
</g>
<!-- Node8 -->
<g id="node6" class="node">
<title>Node8</title>
<g id="a_node6"><a xlink:href="_nolimits_8h.html" target="_top" xlink:title="../Nolimits.h">
<polygon fill="none" stroke="#ff0000" points="362.5,-.5 362.5,-18.5 430.7314,-18.5 430.7314,-.5 362.5,-.5"/>
<text text-anchor="middle" x="396.6157" y="-6.5" font-family="Helvetica,sans-Serif" font-size="10.00" fill="#000000">../Nolimits.h</text>
</a>
</g>
</g>
<!-- Node2&#45;&gt;Node8 -->
<g id="edge7" class="edge">
<title>Node2&#45;&gt;Node8</title>
<path fill="none" stroke="#191970" d="M467.0632,-110.4252C450.291,-103.0346 428.7973,-91.0226 415.6157,-74 405.5649,-61.0204 400.823,-42.8379 398.5903,-29.0851"/>
<polygon fill="#191970" stroke="#191970" points="402.0107,-28.2478 397.2436,-18.786 395.0698,-29.1555 402.0107,-28.2478"/>
</g>
<!-- Node3&#45;&gt;Node7 -->
<g id="edge4" class="edge">
<title>Node3&#45;&gt;Node7</title>
<path fill="none" stroke="#191970" d="M464.8906,-55.4179C470.1943,-47.7415 477.9462,-36.5217 484.4595,-27.0945"/>
<polygon fill="#191970" stroke="#191970" points="487.3997,-28.9963 490.2045,-18.7795 481.6405,-25.0173 487.3997,-28.9963"/>
</g>
<!-- Node3&#45;&gt;Node8 -->
<g id="edge5" class="edge">
<title>Node3&#45;&gt;Node8</title>
<path fill="none" stroke="#191970" d="M448.3777,-55.4179C439.2783,-47.3458 425.762,-35.3556 414.8231,-25.6517"/>
<polygon fill="#191970" stroke="#191970" points="416.8796,-22.7974 407.0762,-18.7795 412.2343,-28.0339 416.8796,-22.7974"/>
</g>
<!-- Node17&#45;&gt;Node2 -->
<g id="edge9" class="edge">
<title>Node17&#45;&gt;Node2</title>
<path fill="none" stroke="#191970" d="M253.767,-275.3563C237.5883,-262.6991 213.4121,-239.2248 226.6157,-220 251.7724,-183.3711 373.3432,-148.4012 442.7583,-130.9825"/>
<polygon fill="#191970" stroke="#191970" points="443.7397,-134.3453 452.6037,-128.5418 442.0553,-127.5509 443.7397,-134.3453"/>
</g>
<!-- Node17&#45;&gt;Node18 -->
<g id="edge10" class="edge">
<title>Node17&#45;&gt;Node18</title>
<path fill="none" stroke="#191970" d="M269.2578,-275.4179C271.3758,-268.1372 274.4211,-257.669 277.0693,-248.5659"/>
<polygon fill="#191970" stroke="#191970" points="280.4836,-249.3591 279.9162,-238.7795 273.7622,-247.4037 280.4836,-249.3591"/>
</g>
<!-- Node18&#45;&gt;Node2 -->
<g id="edge11" class="edge">
<title>Node18&#45;&gt;Node2</title>
<path fill="none" stroke="#191970" d="M299.7191,-220.4982C336.1548,-201.3216 421.6457,-156.3263 465.1622,-133.4229"/>
<polygon fill="#191970" stroke="#191970" points="467.057,-136.3809 474.2761,-128.6261 463.7967,-130.1864 467.057,-136.3809"/>
</g>
<!-- Node19&#45;&gt;Node2 -->
<g id="edge13" class="edge">
<title>Node19&#45;&gt;Node2</title>
<path fill="none" stroke="#191970" d="M388.7812,-220.4982C407.6502,-201.9662 451.0696,-159.3221 475.0137,-135.8056"/>
<polygon fill="#191970" stroke="#191970" points="477.6416,-138.1303 482.3236,-128.6261 472.7367,-133.1362 477.6416,-138.1303"/>
</g>
<!-- Node20&#45;&gt;Node2 -->
<g id="edge15" class="edge">
<title>Node20&#45;&gt;Node2</title>
<path fill="none" stroke="#191970" d="M459.4799,-220.4982C465.1714,-202.6108 478.0105,-162.2594 485.6253,-138.3271"/>
<polygon fill="#191970" stroke="#191970" points="489.0151,-139.2166 488.7119,-128.6261 482.3446,-137.0942 489.0151,-139.2166"/>
</g>
<!-- Node21&#45;&gt;Node2 -->
<g id="edge17" class="edge">
<title>Node21&#45;&gt;Node2</title>
<path fill="none" stroke="#191970" d="M462.9412,-275.2157C472.8036,-266.9515 485.8969,-253.8894 491.6157,-239 504.4589,-205.5614 499.9782,-162.8707 495.6995,-138.618"/>
<polygon fill="#191970" stroke="#191970" points="499.0947,-137.7413 493.7514,-128.5926 492.2232,-139.0766 499.0947,-137.7413"/>
</g>
<!-- Node22&#45;&gt;Node2 -->
<g id="edge19" class="edge">
<title>Node22&#45;&gt;Node2</title>
<path fill="none" stroke="#191970" d="M536.5717,-275.3017C534.0931,-254.9842 527.0334,-204.9151 513.6157,-165 510.4753,-155.6578 505.8551,-145.7539 501.6584,-137.5798"/>
<polygon fill="#191970" stroke="#191970" points="504.6735,-135.7956 496.8773,-128.6213 498.498,-139.0914 504.6735,-135.7956"/>
</g>
<!-- Node23&#45;&gt;Node2 -->
<g id="edge25" class="edge">
<title>Node23&#45;&gt;Node2</title>
<path fill="none" stroke="#191970" d="M673.5159,-220.1972C658.4971,-206.7146 628.9903,-181.5503 600.6157,-165 577.7283,-151.6503 550.1768,-140.1853 528.5001,-132.1034"/>
<polygon fill="#191970" stroke="#191970" points="529.5856,-128.7739 518.9917,-128.6335 527.1859,-135.3497 529.5856,-128.7739"/>
</g>
<!-- Node24 -->
<g id="node14" class="node">
<title>Node24</title>
<g id="a_node14"><a xlink:href="_colors_8h.html" target="_top" xlink:title="../Colors.h">
<polygon fill="none" stroke="#000000" points="652.8301,-165.5 652.8301,-183.5 714.4014,-183.5 714.4014,-165.5 652.8301,-165.5"/>
<text text-anchor="middle" x="683.6157" y="-171.5" font-family="Helvetica,sans-Serif" font-size="10.00" fill="#000000">../Colors.h</text>
</a>
</g>
</g>
<!-- Node23&#45;&gt;Node24 -->
<g id="edge21" class="edge">
<title>Node23&#45;&gt;Node24</title>
<path fill="none" stroke="#191970" d="M683.6157,-220.4179C683.6157,-213.2164 683.6157,-202.8962 683.6157,-193.8632"/>
<polygon fill="#191970" stroke="#191970" points="687.1158,-193.7794 683.6157,-183.7795 680.1158,-193.7795 687.1158,-193.7794"/>
</g>
<!-- Node25 -->
<g id="node15" class="node">
<title>Node25</title>
<g id="a_node15"><a xlink:href="_wooden_support_generator_8h.html" target="_top" xlink:title="WoodenSupportGenerator.h">
<polygon fill="none" stroke="#000000" points="732.1597,-165.5 732.1597,-183.5 873.0718,-183.5 873.0718,-165.5 732.1597,-165.5"/>
<text text-anchor="middle" x="802.6157" y="-171.5" font-family="Helvetica,sans-Serif" font-size="10.00" fill="#000000">WoodenSupportGenerator.h</text>
</a>
</g>
</g>
<!-- Node23&#45;&gt;Node25 -->
<g id="edge23" class="edge">
<title>Node23&#45;&gt;Node25</title>
<path fill="none" stroke="#191970" d="M703.2662,-220.4179C722.4727,-211.5409 751.932,-197.9253 773.7897,-187.823"/>
<polygon fill="#191970" stroke="#191970" points="775.3271,-190.9682 782.9361,-183.5956 772.3903,-184.614 775.3271,-190.9682"/>
</g>
<!-- Node24&#45;&gt;Node2 -->
<g id="edge22" class="edge">
<title>Node24&#45;&gt;Node2</title>
<path fill="none" stroke="#191970" d="M652.7676,-165.6633C620.3081,-156.365 569.0329,-141.6768 533.0584,-131.3716"/>
<polygon fill="#191970" stroke="#191970" points="533.9231,-127.9786 523.3458,-128.5894 531.9953,-134.7079 533.9231,-127.9786"/>
</g>
<!-- Node25&#45;&gt;Node2 -->
<g id="edge24" class="edge">
<title>Node25&#45;&gt;Node2</title>
<path fill="none" stroke="#191970" d="M751.6086,-165.4795C697.1499,-155.8485 610.8665,-140.5894 552.793,-130.3191"/>
<polygon fill="#191970" stroke="#191970" points="553.1074,-126.8205 542.6507,-128.5255 551.8883,-133.7135 553.1074,-126.8205"/>
</g>
<!-- Node26&#45;&gt;Node2 -->
<g id="edge29" class="edge">
<title>Node26&#45;&gt;Node2</title>
<path fill="none" stroke="#191970" d="M623.6876,-275.1561C600.9712,-248.3832 535.4008,-171.1038 506.0817,-136.5492"/>
<polygon fill="#191970" stroke="#191970" points="508.5955,-134.1021 499.4569,-128.7414 503.2579,-138.6309 508.5955,-134.1021"/>
</g>
<!-- Node26&#45;&gt;Node18 -->
<g id="edge27" class="edge">
<title>Node26&#45;&gt;Node18</title>
<path fill="none" stroke="#191970" d="M597.3946,-276.6987C594.431,-276.0963 591.4739,-275.5208 588.6157,-275 481.3044,-255.4474 451.2068,-256.3208 339.6236,-239.1189"/>
<polygon fill="#191970" stroke="#191970" points="340.0748,-235.647 329.6555,-237.5677 338.9984,-242.5638 340.0748,-235.647"/>
</g>
<!-- Node26&#45;&gt;Node23 -->
<g id="edge28" class="edge">
<title>Node26&#45;&gt;Node23</title>
<path fill="none" stroke="#191970" d="M640.2025,-275.4179C647.6846,-267.5041 658.7273,-255.8243 667.8029,-246.2251"/>
<polygon fill="#191970" stroke="#191970" points="670.5155,-248.4505 674.8424,-238.7795 665.429,-243.6414 670.5155,-248.4505"/>
</g>
<!-- Node27&#45;&gt;Node1 -->
<g id="edge37" class="edge">
<title>Node27&#45;&gt;Node1</title>
<path fill="none" stroke="#191970" d="M97.5889,-220.4179C83.3626,-211.8195 61.7804,-198.7754 45.2499,-188.7844"/>
<polygon fill="#191970" stroke="#191970" points="47.0336,-185.7729 36.6648,-183.5956 43.4127,-191.7637 47.0336,-185.7729"/>
</g>
<!-- Node27&#45;&gt;Node2 -->
<g id="edge32" class="edge">
<title>Node27&#45;&gt;Node2</title>
<path fill="none" stroke="#191970" d="M112.3971,-220.367C112.5985,-206.1507 115.257,-178.9198 131.6157,-165 137.1586,-160.2835 322.3851,-138.6564 424.9244,-126.9983"/>
<polygon fill="#191970" stroke="#191970" points="425.3418,-130.4735 434.8832,-125.8678 424.5522,-123.5181 425.3418,-130.4735"/>
</g>
<!-- Node28 -->
<g id="node18" class="node">
<title>Node28</title>
<g id="a_node18"><a xlink:href="_support_node_8h.html" target="_top" xlink:title="SupportNode.h">
<polygon fill="none" stroke="#000000" points="304.9805,-110.5 304.9805,-128.5 388.251,-128.5 388.251,-110.5 304.9805,-110.5"/>
<text text-anchor="middle" x="346.6157" y="-116.5" font-family="Helvetica,sans-Serif" font-size="10.00" fill="#000000">SupportNode.h</text>
</a>
</g>
</g>
<!-- Node27&#45;&gt;Node28 -->
<g id="edge33" class="edge">
<title>Node27&#45;&gt;Node28</title>
<path fill="none" stroke="#191970" d="M106.4362,-220.4637C97.9739,-206.8631 85.2659,-181.0219 98.6157,-165 123.0863,-135.6315 229.6024,-125.1576 294.8225,-121.4667"/>
<polygon fill="#191970" stroke="#191970" points="295.1162,-124.9561 304.9165,-120.9307 294.7449,-117.966 295.1162,-124.9561"/>
</g>
<!-- Node29 -->
<g id="node19" class="node">
<title>Node29</title>
<g id="a_node19"><a xlink:href="_support_parameter_8h.html" target="_top" xlink:title="SupportParameter.h">
<polygon fill="none" stroke="#000000" points="140.8647,-165.5 140.8647,-183.5 246.3667,-183.5 246.3667,-165.5 140.8647,-165.5"/>
<text text-anchor="middle" x="193.6157" y="-171.5" font-family="Helvetica,sans-Serif" font-size="10.00" fill="#000000">SupportParameter.h</text>
</a>
</g>
</g>
<!-- Node27&#45;&gt;Node29 -->
<g id="edge35" class="edge">
<title>Node27&#45;&gt;Node29</title>
<path fill="none" stroke="#191970" d="M125.9912,-220.4179C138.4197,-211.9788 157.1555,-199.257 171.7567,-189.3426"/>
<polygon fill="#191970" stroke="#191970" points="173.9134,-192.1088 180.2203,-183.5956 169.9811,-186.3176 173.9134,-192.1088"/>
</g>
<!-- Node28&#45;&gt;Node8 -->
<g id="edge34" class="edge">
<title>Node28&#45;&gt;Node8</title>
<path fill="none" stroke="#191970" d="M350.7074,-110.4982C358.8747,-92.5302 377.3451,-51.8954 388.2045,-28.0046"/>
<polygon fill="#191970" stroke="#191970" points="391.5157,-29.1781 392.4675,-18.6261 385.1431,-26.2815 391.5157,-29.1781"/>
</g>
<!-- Node29&#45;&gt;Node2 -->
<g id="edge36" class="edge">
<title>Node29&#45;&gt;Node2</title>
<path fill="none" stroke="#191970" d="M242.4907,-165.4795C294.565,-155.8684 377.0074,-140.6525 432.6497,-130.383"/>
<polygon fill="#191970" stroke="#191970" points="433.5154,-133.7824 442.7141,-128.5255 432.2449,-126.8987 433.5154,-133.7824"/>
</g>
</g>
</svg>
