<?xml version="1.0" encoding="UTF-8" standalone="no"?>
<!DOCTYPE svg PUBLIC "-//W3C//DTD SVG 1.1//EN"
 "http://www.w3.org/Graphics/SVG/1.1/DTD/svg11.dtd">
<!-- Generated by graphviz version 2.40.1 (20161225.0304)
 -->
<!-- Title: libnolimits/NL2/Terrain/DetailMap.h Pages: 1 -->
<svg width="320pt" height="167pt"
 viewBox="0.00 0.00 320.37 167.00" xmlns="http://www.w3.org/2000/svg" xmlns:xlink="http://www.w3.org/1999/xlink">
<g id="graph0" class="graph" transform="scale(1 1) rotate(0) translate(4 163)">
<title>libnolimits/NL2/Terrain/DetailMap.h</title>
<!-- Node16 -->
<g id="node1" class="node">
<title>Node16</title>
<polygon fill="#bfbfbf" stroke="#000000" points="132,-130.5 132,-158.5 246.3691,-158.5 246.3691,-130.5 132,-130.5"/>
<text text-anchor="start" x="140" y="-146.5" font-family="Helvetica,sans-Serif" font-size="10.00" fill="#000000">libnolimits/NL2/Terrain</text>
<text text-anchor="middle" x="189.1846" y="-136.5" font-family="Helvetica,sans-Serif" font-size="10.00" fill="#000000">/DetailMap.h</text>
</g>
<!-- Node17 -->
<g id="node2" class="node">
<title>Node17</title>
<g id="a_node2"><a xlink:href="_layer_8h.html" target="_top" xlink:title="libnolimits/NL2/Terrain\l/Layer.h">
<polygon fill="none" stroke="#000000" points="66,-65.5 66,-93.5 180.3691,-93.5 180.3691,-65.5 66,-65.5"/>
<text text-anchor="start" x="74" y="-81.5" font-family="Helvetica,sans-Serif" font-size="10.00" fill="#000000">libnolimits/NL2/Terrain</text>
<text text-anchor="middle" x="123.1846" y="-71.5" font-family="Helvetica,sans-Serif" font-size="10.00" fill="#000000">/Layer.h</text>
</a>
</g>
</g>
<!-- Node16&#45;&gt;Node17 -->
<g id="edge1" class="edge">
<title>Node16&#45;&gt;Node17</title>
<path fill="none" stroke="#191970" d="M167.6701,-123.3115C157.7698,-113.5612 146.2938,-102.259 137.4776,-93.5765"/>
<polygon fill="#191970" stroke="#191970" points="165.2828,-125.8728 174.8636,-130.396 170.1946,-120.8853 165.2828,-125.8728"/>
</g>
<!-- Node23 -->
<g id="node5" class="node">
<title>Node23</title>
<g id="a_node5"><a xlink:href="_detail_map_8cpp.html" target="_top" xlink:title="libnolimits/NL2/Terrain\l/DetailMap.cpp">
<polygon fill="none" stroke="#000000" points="198,-65.5 198,-93.5 312.3691,-93.5 312.3691,-65.5 198,-65.5"/>
<text text-anchor="start" x="206" y="-81.5" font-family="Helvetica,sans-Serif" font-size="10.00" fill="#000000">libnolimits/NL2/Terrain</text>
<text text-anchor="middle" x="255.1846" y="-71.5" font-family="Helvetica,sans-Serif" font-size="10.00" fill="#000000">/DetailMap.cpp</text>
</a>
</g>
</g>
<!-- Node16&#45;&gt;Node23 -->
<g id="edge4" class="edge">
<title>Node16&#45;&gt;Node23</title>
<path fill="none" stroke="#191970" d="M210.6991,-123.3115C220.5994,-113.5612 232.0754,-102.259 240.8915,-93.5765"/>
<polygon fill="#191970" stroke="#191970" points="208.1745,-120.8853 203.5056,-130.396 213.0864,-125.8728 208.1745,-120.8853"/>
</g>
<!-- Node18 -->
<g id="node3" class="node">
<title>Node18</title>
<g id="a_node3"><a xlink:href="_terrain_8h.html" target="_top" xlink:title="libnolimits/NL2/Terrain\l/Terrain.h">
<polygon fill="none" stroke="#ff0000" points="0,-.5 0,-28.5 114.3691,-28.5 114.3691,-.5 0,-.5"/>
<text text-anchor="start" x="8" y="-16.5" font-family="Helvetica,sans-Serif" font-size="10.00" fill="#000000">libnolimits/NL2/Terrain</text>
<text text-anchor="middle" x="57.1846" y="-6.5" font-family="Helvetica,sans-Serif" font-size="10.00" fill="#000000">/Terrain.h</text>
</a>
</g>
</g>
<!-- Node17&#45;&gt;Node18 -->
<g id="edge2" class="edge">
<title>Node17&#45;&gt;Node18</title>
<path fill="none" stroke="#191970" d="M101.6701,-58.3115C91.7698,-48.5612 80.2938,-37.259 71.4776,-28.5765"/>
<polygon fill="#191970" stroke="#191970" points="99.2828,-60.8728 108.8636,-65.396 104.1946,-55.8853 99.2828,-60.8728"/>
</g>
<!-- Node22 -->
<g id="node4" class="node">
<title>Node22</title>
<g id="a_node4"><a xlink:href="_layer_8cpp.html" target="_top" xlink:title="libnolimits/NL2/Terrain\l/Layer.cpp">
<polygon fill="none" stroke="#000000" points="132,-.5 132,-28.5 246.3691,-28.5 246.3691,-.5 132,-.5"/>
<text text-anchor="start" x="140" y="-16.5" font-family="Helvetica,sans-Serif" font-size="10.00" fill="#000000">libnolimits/NL2/Terrain</text>
<text text-anchor="middle" x="189.1846" y="-6.5" font-family="Helvetica,sans-Serif" font-size="10.00" fill="#000000">/Layer.cpp</text>
</a>
</g>
</g>
<!-- Node17&#45;&gt;Node22 -->
<g id="edge3" class="edge">
<title>Node17&#45;&gt;Node22</title>
<path fill="none" stroke="#191970" d="M144.6991,-58.3115C154.5994,-48.5612 166.0754,-37.259 174.8915,-28.5765"/>
<polygon fill="#191970" stroke="#191970" points="142.1745,-55.8853 137.5056,-65.396 147.0864,-60.8728 142.1745,-55.8853"/>
</g>
</g>
</svg>
