<?xml version="1.0" encoding="UTF-8" standalone="no"?>
<!DOCTYPE svg PUBLIC "-//W3C//DTD SVG 1.1//EN"
 "http://www.w3.org/Graphics/SVG/1.1/DTD/svg11.dtd">
<!-- Generated by graphviz version 2.40.1 (20161225.0304)
 -->
<!-- Title: libnolimits/NL2/Terrain/Extras.h Pages: 1 -->
<svg width="203pt" height="202pt"
 viewBox="0.00 0.00 203.34 202.00" xmlns="http://www.w3.org/2000/svg" xmlns:xlink="http://www.w3.org/1999/xlink">
<g id="graph0" class="graph" transform="scale(1 1) rotate(0) translate(4 198)">
<title>libnolimits/NL2/Terrain/Extras.h</title>
<!-- Node0 -->
<g id="node1" class="node">
<title>Node0</title>
<polygon fill="#bfbfbf" stroke="#000000" points="8.042,-165.5 8.042,-193.5 122.4111,-193.5 122.4111,-165.5 8.042,-165.5"/>
<text text-anchor="start" x="16.042" y="-181.5" font-family="Helvetica,sans-Serif" font-size="10.00" fill="#000000">libnolimits/NL2/Terrain</text>
<text text-anchor="middle" x="65.2266" y="-171.5" font-family="Helvetica,sans-Serif" font-size="10.00" fill="#000000">/Extras.h</text>
</g>
<!-- Node1 -->
<g id="node2" class="node">
<title>Node1</title>
<polygon fill="none" stroke="#bfbfbf" points="0,-110.5 0,-128.5 40.4531,-128.5 40.4531,-110.5 0,-110.5"/>
<text text-anchor="middle" x="20.2266" y="-116.5" font-family="Helvetica,sans-Serif" font-size="10.00" fill="#000000">string</text>
</g>
<!-- Node0&#45;&gt;Node1 -->
<g id="edge1" class="edge">
<title>Node0&#45;&gt;Node1</title>
<path fill="none" stroke="#191970" d="M54.5622,-165.2808C48.1685,-156.756 39.9924,-145.8545 33.2226,-136.8281"/>
<polygon fill="#191970" stroke="#191970" points="35.8397,-134.4842 27.0397,-128.5842 30.2397,-138.6842 35.8397,-134.4842"/>
</g>
<!-- Node2 -->
<g id="node3" class="node">
<title>Node2</title>
<g id="a_node3"><a xlink:href="_chunk_8h.html" target="_top" xlink:title="../../Stream/Chunk.h">
<polygon fill="none" stroke="#000000" points="58.7637,-110.5 58.7637,-128.5 163.6895,-128.5 163.6895,-110.5 58.7637,-110.5"/>
<text text-anchor="middle" x="111.2266" y="-116.5" font-family="Helvetica,sans-Serif" font-size="10.00" fill="#000000">../../Stream/Chunk.h</text>
</a>
</g>
</g>
<!-- Node0&#45;&gt;Node2 -->
<g id="edge2" class="edge">
<title>Node0&#45;&gt;Node2</title>
<path fill="none" stroke="#191970" d="M76.1279,-165.2808C82.7317,-156.6672 91.1958,-145.6271 98.1575,-136.5466"/>
<polygon fill="#191970" stroke="#191970" points="100.9553,-138.6498 104.262,-128.5842 95.4,-134.3907 100.9553,-138.6498"/>
</g>
<!-- Node3 -->
<g id="node4" class="node">
<title>Node3</title>
<g id="a_node4"><a xlink:href="_file_8h.html" target="_top" xlink:title="../File/File.h">
<polygon fill="none" stroke="#ff0000" points="77.3867,-55.5 77.3867,-73.5 145.0664,-73.5 145.0664,-55.5 77.3867,-55.5"/>
<text text-anchor="middle" x="111.2266" y="-61.5" font-family="Helvetica,sans-Serif" font-size="10.00" fill="#000000">../File/File.h</text>
</a>
</g>
</g>
<!-- Node2&#45;&gt;Node3 -->
<g id="edge3" class="edge">
<title>Node2&#45;&gt;Node3</title>
<path fill="none" stroke="#191970" d="M111.2266,-110.4179C111.2266,-103.2164 111.2266,-92.8962 111.2266,-83.8632"/>
<polygon fill="#191970" stroke="#191970" points="114.7267,-83.7794 111.2266,-73.7795 107.7267,-83.7795 114.7267,-83.7794"/>
</g>
<!-- Node7 -->
<g id="node5" class="node">
<title>Node7</title>
<polygon fill="none" stroke="#bfbfbf" points="49.106,-.5 49.106,-18.5 97.3472,-18.5 97.3472,-.5 49.106,-.5"/>
<text text-anchor="middle" x="73.2266" y="-6.5" font-family="Helvetica,sans-Serif" font-size="10.00" fill="#000000">stdint.h</text>
</g>
<!-- Node2&#45;&gt;Node7 -->
<g id="edge6" class="edge">
<title>Node2&#45;&gt;Node7</title>
<path fill="none" stroke="#191970" d="M98.3142,-110.3491C87.9794,-102.1662 74.2522,-89.1487 68.2266,-74 62.4538,-59.4871 64.4282,-41.7087 67.4363,-28.495"/>
<polygon fill="#191970" stroke="#191970" points="70.8692,-29.2048 70.059,-18.641 64.1047,-27.4044 70.8692,-29.2048"/>
</g>
<!-- Node8 -->
<g id="node6" class="node">
<title>Node8</title>
<g id="a_node6"><a xlink:href="_nolimits_8h.html" target="_top" xlink:title="../Nolimits.h">
<polygon fill="none" stroke="#ff0000" points="127.1108,-.5 127.1108,-18.5 195.3423,-18.5 195.3423,-.5 127.1108,-.5"/>
<text text-anchor="middle" x="161.2266" y="-6.5" font-family="Helvetica,sans-Serif" font-size="10.00" fill="#000000">../Nolimits.h</text>
</a>
</g>
</g>
<!-- Node2&#45;&gt;Node8 -->
<g id="edge7" class="edge">
<title>Node2&#45;&gt;Node8</title>
<path fill="none" stroke="#191970" d="M123.3212,-110.4994C133.4397,-102.2267 147.3002,-88.9984 154.2266,-74 160.728,-59.9218 162.2612,-42.3317 162.2895,-29.0784"/>
<polygon fill="#191970" stroke="#191970" points="165.7794,-28.6484 162.0141,-18.7453 158.7819,-28.835 165.7794,-28.6484"/>
</g>
<!-- Node3&#45;&gt;Node7 -->
<g id="edge4" class="edge">
<title>Node3&#45;&gt;Node7</title>
<path fill="none" stroke="#191970" d="M104.9516,-55.4179C99.648,-47.7415 91.8961,-36.5217 85.3828,-27.0945"/>
<polygon fill="#191970" stroke="#191970" points="88.2017,-25.0173 79.6378,-18.7795 82.4426,-28.9963 88.2017,-25.0173"/>
</g>
<!-- Node3&#45;&gt;Node8 -->
<g id="edge5" class="edge">
<title>Node3&#45;&gt;Node8</title>
<path fill="none" stroke="#191970" d="M119.483,-55.4179C126.6774,-47.5041 137.2954,-35.8243 146.0219,-26.2251"/>
<polygon fill="#191970" stroke="#191970" points="148.6537,-28.5332 152.7907,-18.7795 143.4741,-23.8245 148.6537,-28.5332"/>
</g>
</g>
</svg>
