<?xml version="1.0" encoding="UTF-8" standalone="no"?>
<!DOCTYPE svg PUBLIC "-//W3C//DTD SVG 1.1//EN"
 "http://www.w3.org/Graphics/SVG/1.1/DTD/svg11.dtd">
<!-- Generated by graphviz version 2.40.1 (20161225.0304)
 -->
<!-- Title: libnolimits/File/File.cpp Pages: 1 -->
<svg width="421pt" height="192pt"
 viewBox="0.00 0.00 420.79 192.00" xmlns="http://www.w3.org/2000/svg" xmlns:xlink="http://www.w3.org/1999/xlink">
<g id="graph0" class="graph" transform="scale(1 1) rotate(0) translate(4 188)">
<title>libnolimits/File/File.cpp</title>
<!-- Node0 -->
<g id="node1" class="node">
<title>Node0</title>
<polygon fill="#bfbfbf" stroke="#000000" points="186.8228,-165.5 186.8228,-183.5 303.4087,-183.5 303.4087,-165.5 186.8228,-165.5"/>
<text text-anchor="middle" x="245.1157" y="-171.5" font-family="Helvetica,sans-Serif" font-size="10.00" fill="#000000">libnolimits/File/File.cpp</text>
</g>
<!-- Node1 -->
<g id="node2" class="node">
<title>Node1</title>
<g id="a_node2"><a xlink:href="_file_8h.html" target="_top" xlink:title="File.h">
<polygon fill="none" stroke="#000000" points="162.8892,-55.5 162.8892,-73.5 203.3423,-73.5 203.3423,-55.5 162.8892,-55.5"/>
<text text-anchor="middle" x="183.1157" y="-61.5" font-family="Helvetica,sans-Serif" font-size="10.00" fill="#000000">File.h</text>
</a>
</g>
</g>
<!-- Node0&#45;&gt;Node1 -->
<g id="edge1" class="edge">
<title>Node0&#45;&gt;Node1</title>
<path fill="none" stroke="#191970" d="M231.9307,-165.1828C221.201,-156.8984 206.5071,-143.8253 198.1157,-129 190.2405,-115.0865 186.4949,-97.2563 184.7162,-83.8702"/>
<polygon fill="#191970" stroke="#191970" points="188.1883,-83.4223 183.6373,-73.8547 181.2286,-84.1721 188.1883,-83.4223"/>
</g>
<!-- Node15 -->
<g id="node8" class="node">
<title>Node15</title>
<g id="a_node8"><a xlink:href="_memory_file_8h.html" target="_top" xlink:title="MemoryFile.h">
<polygon fill="none" stroke="#000000" points="206.8325,-110.5 206.8325,-128.5 283.3989,-128.5 283.3989,-110.5 206.8325,-110.5"/>
<text text-anchor="middle" x="245.1157" y="-116.5" font-family="Helvetica,sans-Serif" font-size="10.00" fill="#000000">MemoryFile.h</text>
</a>
</g>
</g>
<!-- Node0&#45;&gt;Node15 -->
<g id="edge7" class="edge">
<title>Node0&#45;&gt;Node15</title>
<path fill="none" stroke="#191970" d="M245.1157,-165.4179C245.1157,-158.2164 245.1157,-147.8962 245.1157,-138.8632"/>
<polygon fill="#191970" stroke="#191970" points="248.6158,-138.7794 245.1157,-128.7795 241.6158,-138.7795 248.6158,-138.7794"/>
</g>
<!-- Node16 -->
<g id="node10" class="node">
<title>Node16</title>
<g id="a_node10"><a xlink:href="_chunk_8h.html" target="_top" xlink:title="../Stream/Chunk.h">
<polygon fill="none" stroke="#000000" points="54.8203,-110.5 54.8203,-128.5 151.4111,-128.5 151.4111,-110.5 54.8203,-110.5"/>
<text text-anchor="middle" x="103.1157" y="-116.5" font-family="Helvetica,sans-Serif" font-size="10.00" fill="#000000">../Stream/Chunk.h</text>
</a>
</g>
</g>
<!-- Node0&#45;&gt;Node16 -->
<g id="edge10" class="edge">
<title>Node0&#45;&gt;Node16</title>
<path fill="none" stroke="#191970" d="M221.6673,-165.4179C198.3375,-156.3817 162.3304,-142.4353 136.1185,-132.2828"/>
<polygon fill="#191970" stroke="#191970" points="137.1881,-128.9437 126.599,-128.5956 134.6598,-135.4712 137.1881,-128.9437"/>
</g>
<!-- Node9 -->
<g id="node12" class="node">
<title>Node9</title>
<polygon fill="none" stroke="#bfbfbf" points="300.9434,-110.5 300.9434,-128.5 355.2881,-128.5 355.2881,-110.5 300.9434,-110.5"/>
<text text-anchor="middle" x="328.1157" y="-116.5" font-family="Helvetica,sans-Serif" font-size="10.00" fill="#000000">iostream</text>
</g>
<!-- Node0&#45;&gt;Node9 -->
<g id="edge15" class="edge">
<title>Node0&#45;&gt;Node9</title>
<path fill="none" stroke="#191970" d="M258.8215,-165.4179C271.5569,-156.9788 290.7552,-144.257 305.7169,-134.3426"/>
<polygon fill="#191970" stroke="#191970" points="307.987,-137.037 314.3896,-128.5956 304.1203,-131.2019 307.987,-137.037"/>
</g>
<!-- Node18 -->
<g id="node13" class="node">
<title>Node18</title>
<polygon fill="none" stroke="#bfbfbf" points="373.4434,-110.5 373.4434,-128.5 412.7881,-128.5 412.7881,-110.5 373.4434,-110.5"/>
<text text-anchor="middle" x="393.1157" y="-116.5" font-family="Helvetica,sans-Serif" font-size="10.00" fill="#000000">zlib.h</text>
</g>
<!-- Node0&#45;&gt;Node18 -->
<g id="edge16" class="edge">
<title>Node0&#45;&gt;Node18</title>
<path fill="none" stroke="#191970" d="M269.5549,-165.4179C295.4401,-155.7984 336.2989,-140.6144 363.8749,-130.3665"/>
<polygon fill="#191970" stroke="#191970" points="365.2267,-133.5981 373.3812,-126.8338 362.7883,-127.0365 365.2267,-133.5981"/>
</g>
<!-- Node2 -->
<g id="node3" class="node">
<title>Node2</title>
<polygon fill="none" stroke="#bfbfbf" points="158.9951,-.5 158.9951,-18.5 207.2363,-18.5 207.2363,-.5 158.9951,-.5"/>
<text text-anchor="middle" x="183.1157" y="-6.5" font-family="Helvetica,sans-Serif" font-size="10.00" fill="#000000">cstddef</text>
</g>
<!-- Node1&#45;&gt;Node2 -->
<g id="edge2" class="edge">
<title>Node1&#45;&gt;Node2</title>
<path fill="none" stroke="#191970" d="M183.1157,-55.4179C183.1157,-48.2164 183.1157,-37.8962 183.1157,-28.8632"/>
<polygon fill="#191970" stroke="#191970" points="186.6158,-28.7794 183.1157,-18.7795 179.6158,-28.7795 186.6158,-28.7794"/>
</g>
<!-- Node3 -->
<g id="node4" class="node">
<title>Node3</title>
<polygon fill="none" stroke="#bfbfbf" points="225.3892,-.5 225.3892,-18.5 270.8423,-18.5 270.8423,-.5 225.3892,-.5"/>
<text text-anchor="middle" x="248.1157" y="-6.5" font-family="Helvetica,sans-Serif" font-size="10.00" fill="#000000">cstring</text>
</g>
<!-- Node1&#45;&gt;Node3 -->
<g id="edge3" class="edge">
<title>Node1&#45;&gt;Node3</title>
<path fill="none" stroke="#191970" d="M193.8492,-55.4179C203.4823,-47.2667 217.8374,-35.1201 229.3639,-25.3669"/>
<polygon fill="#191970" stroke="#191970" points="231.776,-27.9108 237.1491,-18.7795 227.2544,-22.5671 231.776,-27.9108"/>
</g>
<!-- Node4 -->
<g id="node5" class="node">
<title>Node4</title>
<polygon fill="none" stroke="#bfbfbf" points="288.4458,-.5 288.4458,-18.5 337.7856,-18.5 337.7856,-.5 288.4458,-.5"/>
<text text-anchor="middle" x="313.1157" y="-6.5" font-family="Helvetica,sans-Serif" font-size="10.00" fill="#000000">fstream</text>
</g>
<!-- Node1&#45;&gt;Node4 -->
<g id="edge4" class="edge">
<title>Node1&#45;&gt;Node4</title>
<path fill="none" stroke="#191970" d="M203.4282,-55.9063C224.5168,-46.9841 257.769,-32.9159 282.1375,-22.6062"/>
<polygon fill="#191970" stroke="#191970" points="283.8029,-25.702 291.6489,-18.5821 281.0754,-19.2552 283.8029,-25.702"/>
</g>
<!-- Node5 -->
<g id="node6" class="node">
<title>Node5</title>
<polygon fill="none" stroke="#bfbfbf" points="92.9951,-.5 92.9951,-18.5 141.2363,-18.5 141.2363,-.5 92.9951,-.5"/>
<text text-anchor="middle" x="117.1157" y="-6.5" font-family="Helvetica,sans-Serif" font-size="10.00" fill="#000000">stdint.h</text>
</g>
<!-- Node1&#45;&gt;Node5 -->
<g id="edge5" class="edge">
<title>Node1&#45;&gt;Node5</title>
<path fill="none" stroke="#191970" d="M172.2172,-55.4179C162.4358,-47.2667 147.8599,-35.1201 136.1561,-25.3669"/>
<polygon fill="#191970" stroke="#191970" points="138.174,-22.4926 128.2511,-18.7795 133.6926,-27.8701 138.174,-22.4926"/>
</g>
<!-- Node6 -->
<g id="node7" class="node">
<title>Node6</title>
<g id="a_node7"><a xlink:href="_nolimits_8h.html" target="_top" xlink:title="../Nolimits.h">
<polygon fill="none" stroke="#ff0000" points="0,-.5 0,-18.5 68.2314,-18.5 68.2314,-.5 0,-.5"/>
<text text-anchor="middle" x="34.1157" y="-6.5" font-family="Helvetica,sans-Serif" font-size="10.00" fill="#000000">../Nolimits.h</text>
</a>
</g>
</g>
<!-- Node1&#45;&gt;Node6 -->
<g id="edge6" class="edge">
<title>Node1&#45;&gt;Node6</title>
<path fill="none" stroke="#191970" d="M162.7103,-56.9678C138.3639,-47.9809 97.2948,-32.8211 68.1233,-22.0531"/>
<polygon fill="#191970" stroke="#191970" points="69.3212,-18.7645 58.7279,-18.585 66.8971,-25.3314 69.3212,-18.7645"/>
</g>
<!-- Node15&#45;&gt;Node1 -->
<g id="edge8" class="edge">
<title>Node15&#45;&gt;Node1</title>
<path fill="none" stroke="#191970" d="M234.8777,-110.4179C225.7783,-102.3458 212.262,-90.3556 201.3231,-80.6517"/>
<polygon fill="#191970" stroke="#191970" points="203.3796,-77.7974 193.5762,-73.7795 198.7343,-83.0339 203.3796,-77.7974"/>
</g>
<!-- Node12 -->
<g id="node9" class="node">
<title>Node12</title>
<polygon fill="none" stroke="#bfbfbf" points="224.8892,-55.5 224.8892,-73.5 265.3423,-73.5 265.3423,-55.5 224.8892,-55.5"/>
<text text-anchor="middle" x="245.1157" y="-61.5" font-family="Helvetica,sans-Serif" font-size="10.00" fill="#000000">string</text>
</g>
<!-- Node15&#45;&gt;Node12 -->
<g id="edge9" class="edge">
<title>Node15&#45;&gt;Node12</title>
<path fill="none" stroke="#191970" d="M245.1157,-110.4179C245.1157,-103.2164 245.1157,-92.8962 245.1157,-83.8632"/>
<polygon fill="#191970" stroke="#191970" points="248.6158,-83.7794 245.1157,-73.7795 241.6158,-83.7795 248.6158,-83.7794"/>
</g>
<!-- Node16&#45;&gt;Node1 -->
<g id="edge11" class="edge">
<title>Node16&#45;&gt;Node1</title>
<path fill="none" stroke="#191970" d="M116.3261,-110.4179C128.6012,-101.9788 147.1056,-89.257 161.5265,-79.3426"/>
<polygon fill="#191970" stroke="#191970" points="163.6282,-82.1451 169.8857,-73.5956 159.6624,-76.3768 163.6282,-82.1451"/>
</g>
<!-- Node16&#45;&gt;Node5 -->
<g id="edge13" class="edge">
<title>Node16&#45;&gt;Node5</title>
<path fill="none" stroke="#191970" d="M106.5371,-110.2468C109.7091,-101.1629 114.2157,-86.8405 116.1157,-74 118.3472,-58.9192 118.4883,-41.6394 118.1311,-28.7632"/>
<polygon fill="#191970" stroke="#191970" points="121.6275,-28.5988 117.729,-18.7473 114.6331,-28.8797 121.6275,-28.5988"/>
</g>
<!-- Node16&#45;&gt;Node6 -->
<g id="edge12" class="edge">
<title>Node16&#45;&gt;Node6</title>
<path fill="none" stroke="#191970" d="M86.1241,-110.4581C73.0666,-102.5931 55.694,-89.9595 46.1157,-74 37.8733,-60.2662 35.0653,-42.1581 34.2084,-28.6255"/>
<polygon fill="#191970" stroke="#191970" points="37.7032,-28.4083 33.8711,-18.5308 30.7071,-28.6421 37.7032,-28.4083"/>
</g>
<!-- Node17 -->
<g id="node11" class="node">
<title>Node17</title>
<polygon fill="none" stroke="#bfbfbf" points="55.0542,-55.5 55.0542,-73.5 107.1772,-73.5 107.1772,-55.5 55.0542,-55.5"/>
<text text-anchor="middle" x="81.1157" y="-61.5" font-family="Helvetica,sans-Serif" font-size="10.00" fill="#000000">ostream</text>
</g>
<!-- Node16&#45;&gt;Node17 -->
<g id="edge14" class="edge">
<title>Node16&#45;&gt;Node17</title>
<path fill="none" stroke="#191970" d="M99.4829,-110.4179C96.539,-103.0581 92.2921,-92.441 88.6235,-83.2695"/>
<polygon fill="#191970" stroke="#191970" points="91.7911,-81.7643 84.8275,-73.7795 85.2918,-84.3641 91.7911,-81.7643"/>
</g>
</g>
</svg>
