<?xml version="1.0" encoding="UTF-8" standalone="no"?>
<!DOCTYPE svg PUBLIC "-//W3C//DTD SVG 1.1//EN"
 "http://www.w3.org/Graphics/SVG/1.1/DTD/svg11.dtd">
<!-- Generated by graphviz version 2.40.1 (20161225.0304)
 -->
<!-- Title: libnolimits/File/File.h Pages: 1 -->
<svg width="377pt" height="137pt"
 viewBox="0.00 0.00 376.75 137.00" xmlns="http://www.w3.org/2000/svg" xmlns:xlink="http://www.w3.org/1999/xlink">
<g id="graph0" class="graph" transform="scale(1 1) rotate(0) translate(4 133)">
<title>libnolimits/File/File.h</title>
<!-- Node0 -->
<g id="node1" class="node">
<title>Node0</title>
<polygon fill="#bfbfbf" stroke="#000000" points="101.1084,-110.5 101.1084,-128.5 207.1328,-128.5 207.1328,-110.5 101.1084,-110.5"/>
<text text-anchor="middle" x="154.1206" y="-116.5" font-family="Helvetica,sans-Serif" font-size="10.00" fill="#000000">libnolimits/File/File.h</text>
</g>
<!-- Node1 -->
<g id="node2" class="node">
<title>Node1</title>
<polygon fill="none" stroke="#bfbfbf" points="0,-55.5 0,-73.5 48.2412,-73.5 48.2412,-55.5 0,-55.5"/>
<text text-anchor="middle" x="24.1206" y="-61.5" font-family="Helvetica,sans-Serif" font-size="10.00" fill="#000000">cstddef</text>
</g>
<!-- Node0&#45;&gt;Node1 -->
<g id="edge1" class="edge">
<title>Node0&#45;&gt;Node1</title>
<path fill="none" stroke="#191970" d="M132.6537,-110.4179C111.4836,-101.4613 78.9112,-87.6806 54.9708,-77.552"/>
<polygon fill="#191970" stroke="#191970" points="56.1928,-74.2687 45.6194,-73.5956 53.4653,-80.7155 56.1928,-74.2687"/>
</g>
<!-- Node2 -->
<g id="node3" class="node">
<title>Node2</title>
<polygon fill="none" stroke="#bfbfbf" points="66.394,-55.5 66.394,-73.5 111.8472,-73.5 111.8472,-55.5 66.394,-55.5"/>
<text text-anchor="middle" x="89.1206" y="-61.5" font-family="Helvetica,sans-Serif" font-size="10.00" fill="#000000">cstring</text>
</g>
<!-- Node0&#45;&gt;Node2 -->
<g id="edge2" class="edge">
<title>Node0&#45;&gt;Node2</title>
<path fill="none" stroke="#191970" d="M143.3872,-110.4179C133.754,-102.2667 119.3989,-90.1201 107.8724,-80.3669"/>
<polygon fill="#191970" stroke="#191970" points="109.9819,-77.5671 100.0872,-73.7795 105.4603,-82.9108 109.9819,-77.5671"/>
</g>
<!-- Node3 -->
<g id="node4" class="node">
<title>Node3</title>
<polygon fill="none" stroke="#bfbfbf" points="129.4507,-55.5 129.4507,-73.5 178.7905,-73.5 178.7905,-55.5 129.4507,-55.5"/>
<text text-anchor="middle" x="154.1206" y="-61.5" font-family="Helvetica,sans-Serif" font-size="10.00" fill="#000000">fstream</text>
</g>
<!-- Node0&#45;&gt;Node3 -->
<g id="edge3" class="edge">
<title>Node0&#45;&gt;Node3</title>
<path fill="none" stroke="#191970" d="M154.1206,-110.4179C154.1206,-103.2164 154.1206,-92.8962 154.1206,-83.8632"/>
<polygon fill="#191970" stroke="#191970" points="157.6207,-83.7794 154.1206,-73.7795 150.6207,-83.7795 157.6207,-83.7794"/>
</g>
<!-- Node4 -->
<g id="node5" class="node">
<title>Node4</title>
<polygon fill="none" stroke="#bfbfbf" points="197,-55.5 197,-73.5 245.2412,-73.5 245.2412,-55.5 197,-55.5"/>
<text text-anchor="middle" x="221.1206" y="-61.5" font-family="Helvetica,sans-Serif" font-size="10.00" fill="#000000">stdint.h</text>
</g>
<!-- Node0&#45;&gt;Node4 -->
<g id="edge4" class="edge">
<title>Node0&#45;&gt;Node4</title>
<path fill="none" stroke="#191970" d="M165.1843,-110.4179C175.1139,-102.2667 189.9106,-90.1201 201.7918,-80.3669"/>
<polygon fill="#191970" stroke="#191970" points="204.308,-82.8297 209.8165,-73.7795 199.8665,-77.4192 204.308,-82.8297"/>
</g>
<!-- Node5 -->
<g id="node6" class="node">
<title>Node5</title>
<g id="a_node6"><a xlink:href="_nolimits_8h.html" target="_top" xlink:title="../Nolimits.h">
<polygon fill="none" stroke="#000000" points="263.0049,-55.5 263.0049,-73.5 331.2363,-73.5 331.2363,-55.5 263.0049,-55.5"/>
<text text-anchor="middle" x="297.1206" y="-61.5" font-family="Helvetica,sans-Serif" font-size="10.00" fill="#000000">../Nolimits.h</text>
</a>
</g>
</g>
<!-- Node0&#45;&gt;Node5 -->
<g id="edge5" class="edge">
<title>Node0&#45;&gt;Node5</title>
<path fill="none" stroke="#191970" d="M177.7341,-110.4179C201.2283,-101.3817 237.4889,-87.4353 263.8854,-77.2828"/>
<polygon fill="#191970" stroke="#191970" points="265.395,-80.4522 273.472,-73.5956 262.8821,-73.9188 265.395,-80.4522"/>
</g>
<!-- Node6 -->
<g id="node7" class="node">
<title>Node6</title>
<polygon fill="none" stroke="#bfbfbf" points="204.771,-.5 204.771,-18.5 297.4702,-18.5 297.4702,-.5 204.771,-.5"/>
<text text-anchor="middle" x="251.1206" y="-6.5" font-family="Helvetica,sans-Serif" font-size="10.00" fill="#000000">glm/common.hpp</text>
</g>
<!-- Node5&#45;&gt;Node6 -->
<g id="edge6" class="edge">
<title>Node5&#45;&gt;Node6</title>
<path fill="none" stroke="#191970" d="M289.5246,-55.4179C282.9721,-47.5833 273.3324,-36.0575 265.3502,-26.5137"/>
<polygon fill="#191970" stroke="#191970" points="267.982,-24.2048 258.8816,-18.7795 262.6124,-28.6957 267.982,-24.2048"/>
</g>
<!-- Node7 -->
<g id="node8" class="node">
<title>Node7</title>
<g id="a_node8"><a xlink:href="_helper_8h.html" target="_top" xlink:title="Helper.h">
<polygon fill="none" stroke="#ff0000" points="315.4951,-.5 315.4951,-18.5 368.7461,-18.5 368.7461,-.5 315.4951,-.5"/>
<text text-anchor="middle" x="342.1206" y="-6.5" font-family="Helvetica,sans-Serif" font-size="10.00" fill="#000000">Helper.h</text>
</a>
</g>
</g>
<!-- Node5&#45;&gt;Node7 -->
<g id="edge7" class="edge">
<title>Node5&#45;&gt;Node7</title>
<path fill="none" stroke="#191970" d="M304.5514,-55.4179C310.8968,-47.6624 320.2015,-36.29 327.9632,-26.8035"/>
<polygon fill="#191970" stroke="#191970" points="330.9048,-28.7354 334.5283,-18.7795 325.4871,-24.3027 330.9048,-28.7354"/>
</g>
</g>
</svg>
