<?xml version="1.0" encoding="UTF-8" standalone="no"?>
<!DOCTYPE svg PUBLIC "-//W3C//DTD SVG 1.1//EN"
 "http://www.w3.org/Graphics/SVG/1.1/DTD/svg11.dtd">
<!-- Generated by graphviz version 2.40.1 (20161225.0304)
 -->
<!-- Title: libnolimits/NL2/Coaster/FileScript.cpp Pages: 1 -->
<svg width="212pt" height="147pt"
 viewBox="0.00 0.00 211.64 147.00" xmlns="http://www.w3.org/2000/svg" xmlns:xlink="http://www.w3.org/1999/xlink">
<g id="graph0" class="graph" transform="scale(1 1) rotate(0) translate(4 143)">
<title>libnolimits/NL2/Coaster/FileScript.cpp</title>
<!-- Node0 -->
<g id="node1" class="node">
<title>Node0</title>
<polygon fill="#bfbfbf" stroke="#000000" points="78.0542,-110.5 78.0542,-138.5 196.8716,-138.5 196.8716,-110.5 78.0542,-110.5"/>
<text text-anchor="start" x="86.0542" y="-126.5" font-family="Helvetica,sans-Serif" font-size="10.00" fill="#000000">libnolimits/NL2/Coaster</text>
<text text-anchor="middle" x="137.4629" y="-116.5" font-family="Helvetica,sans-Serif" font-size="10.00" fill="#000000">/FileScript.cpp</text>
</g>
<!-- Node1 -->
<g id="node2" class="node">
<title>Node1</title>
<g id="a_node2"><a xlink:href="_file_script_8h.html" target="_top" xlink:title="FileScript.h">
<polygon fill="none" stroke="#000000" points="65.4556,-55.5 65.4556,-73.5 131.4702,-73.5 131.4702,-55.5 65.4556,-55.5"/>
<text text-anchor="middle" x="98.4629" y="-61.5" font-family="Helvetica,sans-Serif" font-size="10.00" fill="#000000">FileScript.h</text>
</a>
</g>
</g>
<!-- Node0&#45;&gt;Node1 -->
<g id="edge1" class="edge">
<title>Node0&#45;&gt;Node1</title>
<path fill="none" stroke="#191970" d="M128.2204,-110.2808C122.737,-101.8448 115.7407,-91.0813 109.9099,-82.1107"/>
<polygon fill="#191970" stroke="#191970" points="112.7521,-80.0612 104.3676,-73.5842 106.883,-83.8761 112.7521,-80.0612"/>
</g>
<!-- Node11 -->
<g id="node5" class="node">
<title>Node11</title>
<polygon fill="none" stroke="#bfbfbf" points="149.2905,-55.5 149.2905,-73.5 203.6353,-73.5 203.6353,-55.5 149.2905,-55.5"/>
<text text-anchor="middle" x="176.4629" y="-61.5" font-family="Helvetica,sans-Serif" font-size="10.00" fill="#000000">iostream</text>
</g>
<!-- Node0&#45;&gt;Node11 -->
<g id="edge4" class="edge">
<title>Node0&#45;&gt;Node11</title>
<path fill="none" stroke="#191970" d="M146.7053,-110.2808C152.1888,-101.8448 159.185,-91.0813 165.0159,-82.1107"/>
<polygon fill="#191970" stroke="#191970" points="168.0428,-83.8761 170.5582,-73.5842 162.1737,-80.0612 168.0428,-83.8761"/>
</g>
<!-- Node2 -->
<g id="node3" class="node">
<title>Node2</title>
<g id="a_node3"><a xlink:href="_chunk_8h.html" target="_top" xlink:title="../../Stream/Chunk.h">
<polygon fill="none" stroke="#ff0000" points="0,-.5 0,-18.5 104.9258,-18.5 104.9258,-.5 0,-.5"/>
<text text-anchor="middle" x="52.4629" y="-6.5" font-family="Helvetica,sans-Serif" font-size="10.00" fill="#000000">../../Stream/Chunk.h</text>
</a>
</g>
</g>
<!-- Node1&#45;&gt;Node2 -->
<g id="edge2" class="edge">
<title>Node1&#45;&gt;Node2</title>
<path fill="none" stroke="#191970" d="M90.8669,-55.4179C84.3143,-47.5833 74.6746,-36.0575 66.6925,-26.5137"/>
<polygon fill="#191970" stroke="#191970" points="69.3243,-24.2048 60.2239,-18.7795 63.9547,-28.6957 69.3243,-24.2048"/>
</g>
<!-- Node18 -->
<g id="node4" class="node">
<title>Node18</title>
<polygon fill="none" stroke="#bfbfbf" points="122.8472,-.5 122.8472,-18.5 166.0786,-18.5 166.0786,-.5 122.8472,-.5"/>
<text text-anchor="middle" x="144.4629" y="-6.5" font-family="Helvetica,sans-Serif" font-size="10.00" fill="#000000">vector</text>
</g>
<!-- Node1&#45;&gt;Node18 -->
<g id="edge3" class="edge">
<title>Node1&#45;&gt;Node18</title>
<path fill="none" stroke="#191970" d="M106.0589,-55.4179C112.6114,-47.5833 122.2511,-36.0575 130.2333,-26.5137"/>
<polygon fill="#191970" stroke="#191970" points="132.9711,-28.6957 136.7019,-18.7795 127.6015,-24.2048 132.9711,-28.6957"/>
</g>
</g>
</svg>
