<?xml version="1.0" encoding="UTF-8" standalone="no"?>
<!DOCTYPE svg PUBLIC "-//W3C//DTD SVG 1.1//EN"
 "http://www.w3.org/Graphics/SVG/1.1/DTD/svg11.dtd">
<!-- Generated by graphviz version 2.40.1 (20161225.0304)
 -->
<!-- Title: libnolimits/File/File.cpp Pages: 1 -->
<svg width="418pt" height="192pt"
 viewBox="0.00 0.00 417.79 192.00" xmlns="http://www.w3.org/2000/svg" xmlns:xlink="http://www.w3.org/1999/xlink">
<g id="graph0" class="graph" transform="scale(1 1) rotate(0) translate(4 188)">
<title>libnolimits/File/File.cpp</title>
<!-- Node0 -->
<g id="node1" class="node">
<title>Node0</title>
<polygon fill="#bfbfbf" stroke="#000000" points="183.8276,-165.5 183.8276,-183.5 300.4136,-183.5 300.4136,-165.5 183.8276,-165.5"/>
<text text-anchor="middle" x="242.1206" y="-171.5" font-family="Helvetica,sans-Serif" font-size="10.00" fill="#000000">libnolimits/File/File.cpp</text>
</g>
<!-- Node1 -->
<g id="node2" class="node">
<title>Node1</title>
<g id="a_node2"><a xlink:href="_file_8h.html" target="_top" xlink:title="File.h">
<polygon fill="none" stroke="#000000" points="155.894,-55.5 155.894,-73.5 196.3472,-73.5 196.3472,-55.5 155.894,-55.5"/>
<text text-anchor="middle" x="176.1206" y="-61.5" font-family="Helvetica,sans-Serif" font-size="10.00" fill="#000000">File.h</text>
</a>
</g>
</g>
<!-- Node0&#45;&gt;Node1 -->
<g id="edge1" class="edge">
<title>Node0&#45;&gt;Node1</title>
<path fill="none" stroke="#191970" d="M229.5764,-165.3865C218.9497,-157.0414 204.0557,-143.7702 195.1206,-129 186.7181,-115.1101 181.8377,-97.2779 179.1324,-83.885"/>
<polygon fill="#191970" stroke="#191970" points="182.5462,-83.0917 177.342,-73.8631 175.6553,-84.3228 182.5462,-83.0917"/>
</g>
<!-- Node15 -->
<g id="node8" class="node">
<title>Node15</title>
<g id="a_node8"><a xlink:href="_memory_file_8h.html" target="_top" xlink:title="MemoryFile.h">
<polygon fill="none" stroke="#000000" points="203.8374,-110.5 203.8374,-128.5 280.4038,-128.5 280.4038,-110.5 203.8374,-110.5"/>
<text text-anchor="middle" x="242.1206" y="-116.5" font-family="Helvetica,sans-Serif" font-size="10.00" fill="#000000">MemoryFile.h</text>
</a>
</g>
</g>
<!-- Node0&#45;&gt;Node15 -->
<g id="edge7" class="edge">
<title>Node0&#45;&gt;Node15</title>
<path fill="none" stroke="#191970" d="M242.1206,-165.4179C242.1206,-158.2164 242.1206,-147.8962 242.1206,-138.8632"/>
<polygon fill="#191970" stroke="#191970" points="245.6207,-138.7794 242.1206,-128.7795 238.6207,-138.7795 245.6207,-138.7794"/>
</g>
<!-- Node16 -->
<g id="node10" class="node">
<title>Node16</title>
<g id="a_node10"><a xlink:href="_chunk_8h.html" target="_top" xlink:title="../Stream/Chunk.h">
<polygon fill="none" stroke="#000000" points="51.8252,-110.5 51.8252,-128.5 148.416,-128.5 148.416,-110.5 51.8252,-110.5"/>
<text text-anchor="middle" x="100.1206" y="-116.5" font-family="Helvetica,sans-Serif" font-size="10.00" fill="#000000">../Stream/Chunk.h</text>
</a>
</g>
</g>
<!-- Node0&#45;&gt;Node16 -->
<g id="edge10" class="edge">
<title>Node0&#45;&gt;Node16</title>
<path fill="none" stroke="#191970" d="M218.6722,-165.4179C195.3423,-156.3817 159.3353,-142.4353 133.1234,-132.2828"/>
<polygon fill="#191970" stroke="#191970" points="134.193,-128.9437 123.6039,-128.5956 131.6647,-135.4712 134.193,-128.9437"/>
</g>
<!-- Node9 -->
<g id="node11" class="node">
<title>Node9</title>
<polygon fill="none" stroke="#bfbfbf" points="297.9482,-110.5 297.9482,-128.5 352.293,-128.5 352.293,-110.5 297.9482,-110.5"/>
<text text-anchor="middle" x="325.1206" y="-116.5" font-family="Helvetica,sans-Serif" font-size="10.00" fill="#000000">iostream</text>
</g>
<!-- Node0&#45;&gt;Node9 -->
<g id="edge14" class="edge">
<title>Node0&#45;&gt;Node9</title>
<path fill="none" stroke="#191970" d="M255.8264,-165.4179C268.5617,-156.9788 287.7601,-144.257 302.7218,-134.3426"/>
<polygon fill="#191970" stroke="#191970" points="304.9919,-137.037 311.3945,-128.5956 301.1252,-131.2019 304.9919,-137.037"/>
</g>
<!-- Node17 -->
<g id="node12" class="node">
<title>Node17</title>
<polygon fill="none" stroke="#bfbfbf" points="370.4482,-110.5 370.4482,-128.5 409.793,-128.5 409.793,-110.5 370.4482,-110.5"/>
<text text-anchor="middle" x="390.1206" y="-116.5" font-family="Helvetica,sans-Serif" font-size="10.00" fill="#000000">zlib.h</text>
</g>
<!-- Node0&#45;&gt;Node17 -->
<g id="edge15" class="edge">
<title>Node0&#45;&gt;Node17</title>
<path fill="none" stroke="#191970" d="M266.5598,-165.4179C292.445,-155.7984 333.3038,-140.6144 360.8798,-130.3665"/>
<polygon fill="#191970" stroke="#191970" points="362.2316,-133.5981 370.3861,-126.8338 359.7932,-127.0365 362.2316,-133.5981"/>
</g>
<!-- Node2 -->
<g id="node3" class="node">
<title>Node2</title>
<polygon fill="none" stroke="#bfbfbf" points="152,-.5 152,-18.5 200.2412,-18.5 200.2412,-.5 152,-.5"/>
<text text-anchor="middle" x="176.1206" y="-6.5" font-family="Helvetica,sans-Serif" font-size="10.00" fill="#000000">cstddef</text>
</g>
<!-- Node1&#45;&gt;Node2 -->
<g id="edge2" class="edge">
<title>Node1&#45;&gt;Node2</title>
<path fill="none" stroke="#191970" d="M176.1206,-55.4179C176.1206,-48.2164 176.1206,-37.8962 176.1206,-28.8632"/>
<polygon fill="#191970" stroke="#191970" points="179.6207,-28.7794 176.1206,-18.7795 172.6207,-28.7795 179.6207,-28.7794"/>
</g>
<!-- Node3 -->
<g id="node4" class="node">
<title>Node3</title>
<polygon fill="none" stroke="#bfbfbf" points="218.394,-.5 218.394,-18.5 263.8472,-18.5 263.8472,-.5 218.394,-.5"/>
<text text-anchor="middle" x="241.1206" y="-6.5" font-family="Helvetica,sans-Serif" font-size="10.00" fill="#000000">cstring</text>
</g>
<!-- Node1&#45;&gt;Node3 -->
<g id="edge3" class="edge">
<title>Node1&#45;&gt;Node3</title>
<path fill="none" stroke="#191970" d="M186.854,-55.4179C196.4872,-47.2667 210.8423,-35.1201 222.3688,-25.3669"/>
<polygon fill="#191970" stroke="#191970" points="224.7809,-27.9108 230.154,-18.7795 220.2593,-22.5671 224.7809,-27.9108"/>
</g>
<!-- Node4 -->
<g id="node5" class="node">
<title>Node4</title>
<polygon fill="none" stroke="#bfbfbf" points="281.4507,-.5 281.4507,-18.5 330.7905,-18.5 330.7905,-.5 281.4507,-.5"/>
<text text-anchor="middle" x="306.1206" y="-6.5" font-family="Helvetica,sans-Serif" font-size="10.00" fill="#000000">fstream</text>
</g>
<!-- Node1&#45;&gt;Node4 -->
<g id="edge4" class="edge">
<title>Node1&#45;&gt;Node4</title>
<path fill="none" stroke="#191970" d="M196.4331,-55.9063C217.5217,-46.9841 250.7738,-32.9159 275.1424,-22.6062"/>
<polygon fill="#191970" stroke="#191970" points="276.8078,-25.702 284.6537,-18.5821 274.0803,-19.2552 276.8078,-25.702"/>
</g>
<!-- Node5 -->
<g id="node6" class="node">
<title>Node5</title>
<polygon fill="none" stroke="#bfbfbf" points="0,-.5 0,-18.5 48.2412,-18.5 48.2412,-.5 0,-.5"/>
<text text-anchor="middle" x="24.1206" y="-6.5" font-family="Helvetica,sans-Serif" font-size="10.00" fill="#000000">stdint.h</text>
</g>
<!-- Node1&#45;&gt;Node5 -->
<g id="edge5" class="edge">
<title>Node1&#45;&gt;Node5</title>
<path fill="none" stroke="#191970" d="M155.6212,-57.0825C130.5766,-48.0203 87.8517,-32.5606 57.9173,-21.7291"/>
<polygon fill="#191970" stroke="#191970" points="58.8942,-18.3605 48.2999,-18.2491 56.5124,-24.9429 58.8942,-18.3605"/>
</g>
<!-- Node6 -->
<g id="node7" class="node">
<title>Node6</title>
<g id="a_node7"><a xlink:href="_nolimits_8h.html" target="_top" xlink:title="../Nolimits.h">
<polygon fill="none" stroke="#ff0000" points="66.0049,-.5 66.0049,-18.5 134.2363,-18.5 134.2363,-.5 66.0049,-.5"/>
<text text-anchor="middle" x="100.1206" y="-6.5" font-family="Helvetica,sans-Serif" font-size="10.00" fill="#000000">../Nolimits.h</text>
</a>
</g>
</g>
<!-- Node1&#45;&gt;Node6 -->
<g id="edge6" class="edge">
<title>Node1&#45;&gt;Node6</title>
<path fill="none" stroke="#191970" d="M163.5708,-55.4179C152.0195,-47.0584 134.6614,-34.4966 121.0191,-24.6239"/>
<polygon fill="#191970" stroke="#191970" points="122.8422,-21.6229 112.6891,-18.5956 118.7383,-27.2938 122.8422,-21.6229"/>
</g>
<!-- Node15&#45;&gt;Node1 -->
<g id="edge8" class="edge">
<title>Node15&#45;&gt;Node1</title>
<path fill="none" stroke="#191970" d="M231.222,-110.4179C221.4407,-102.2667 206.8648,-90.1201 195.1609,-80.3669"/>
<polygon fill="#191970" stroke="#191970" points="197.1788,-77.4926 187.256,-73.7795 192.6975,-82.8701 197.1788,-77.4926"/>
</g>
<!-- Node12 -->
<g id="node9" class="node">
<title>Node12</title>
<polygon fill="none" stroke="#bfbfbf" points="221.894,-55.5 221.894,-73.5 262.3472,-73.5 262.3472,-55.5 221.894,-55.5"/>
<text text-anchor="middle" x="242.1206" y="-61.5" font-family="Helvetica,sans-Serif" font-size="10.00" fill="#000000">string</text>
</g>
<!-- Node15&#45;&gt;Node12 -->
<g id="edge9" class="edge">
<title>Node15&#45;&gt;Node12</title>
<path fill="none" stroke="#191970" d="M242.1206,-110.4179C242.1206,-103.2164 242.1206,-92.8962 242.1206,-83.8632"/>
<polygon fill="#191970" stroke="#191970" points="245.6207,-83.7794 242.1206,-73.7795 238.6207,-83.7795 245.6207,-83.7794"/>
</g>
<!-- Node16&#45;&gt;Node1 -->
<g id="edge11" class="edge">
<title>Node16&#45;&gt;Node1</title>
<path fill="none" stroke="#191970" d="M112.6705,-110.4179C124.2218,-102.0584 141.5798,-89.4966 155.2221,-79.6239"/>
<polygon fill="#191970" stroke="#191970" points="157.5029,-82.2938 163.5521,-73.5956 153.399,-76.6229 157.5029,-82.2938"/>
</g>
<!-- Node16&#45;&gt;Node5 -->
<g id="edge12" class="edge">
<title>Node16&#45;&gt;Node5</title>
<path fill="none" stroke="#191970" d="M93.9012,-110.4982C81.3199,-92.2885 52.6538,-50.798 36.2458,-27.0496"/>
<polygon fill="#191970" stroke="#191970" points="38.9899,-24.8639 30.4259,-18.6261 33.2307,-28.843 38.9899,-24.8639"/>
</g>
<!-- Node16&#45;&gt;Node6 -->
<g id="edge13" class="edge">
<title>Node16&#45;&gt;Node6</title>
<path fill="none" stroke="#191970" d="M100.1206,-110.4982C100.1206,-92.6913 100.1206,-52.6225 100.1206,-28.6515"/>
<polygon fill="#191970" stroke="#191970" points="103.6207,-28.6261 100.1206,-18.6261 96.6207,-28.6262 103.6207,-28.6261"/>
</g>
</g>
</svg>
