<?xml version="1.0" encoding="UTF-8" standalone="no"?>
<!DOCTYPE svg PUBLIC "-//W3C//DTD SVG 1.1//EN"
 "http://www.w3.org/Graphics/SVG/1.1/DTD/svg11.dtd">
<!-- Generated by graphviz version 2.40.1 (20161225.0304)
 -->
<!-- Title: libnolimits/NL2/Coaster/FileScript.h Pages: 1 -->
<svg width="331pt" height="167pt"
 viewBox="0.00 0.00 330.82 167.00" xmlns="http://www.w3.org/2000/svg" xmlns:xlink="http://www.w3.org/1999/xlink">
<g id="graph0" class="graph" transform="scale(1 1) rotate(0) translate(4 163)">
<title>libnolimits/NL2/Coaster/FileScript.h</title>
<!-- Node18 -->
<g id="node1" class="node">
<title>Node18</title>
<polygon fill="#bfbfbf" stroke="#000000" points="135,-130.5 135,-158.5 253.8174,-158.5 253.8174,-130.5 135,-130.5"/>
<text text-anchor="start" x="143" y="-146.5" font-family="Helvetica,sans-Serif" font-size="10.00" fill="#000000">libnolimits/NL2/Coaster</text>
<text text-anchor="middle" x="194.4087" y="-136.5" font-family="Helvetica,sans-Serif" font-size="10.00" fill="#000000">/FileScript.h</text>
</g>
<!-- Node19 -->
<g id="node2" class="node">
<title>Node19</title>
<g id="a_node2"><a xlink:href="_coaster_8h.html" target="_top" xlink:title="libnolimits/NL2/Coaster\l/Coaster.h">
<polygon fill="none" stroke="#000000" points="67,-65.5 67,-93.5 185.8174,-93.5 185.8174,-65.5 67,-65.5"/>
<text text-anchor="start" x="75" y="-81.5" font-family="Helvetica,sans-Serif" font-size="10.00" fill="#000000">libnolimits/NL2/Coaster</text>
<text text-anchor="middle" x="126.4087" y="-71.5" font-family="Helvetica,sans-Serif" font-size="10.00" fill="#000000">/Coaster.h</text>
</a>
</g>
</g>
<!-- Node18&#45;&gt;Node19 -->
<g id="edge1" class="edge">
<title>Node18&#45;&gt;Node19</title>
<path fill="none" stroke="#191970" d="M172.2422,-123.3115C162.0419,-113.5612 150.2182,-102.259 141.1349,-93.5765"/>
<polygon fill="#191970" stroke="#191970" points="170.0065,-126.0162 179.6537,-130.396 174.8434,-120.9561 170.0065,-126.0162"/>
</g>
<!-- Node23 -->
<g id="node5" class="node">
<title>Node23</title>
<g id="a_node5"><a xlink:href="_file_script_8cpp.html" target="_top" xlink:title="libnolimits/NL2/Coaster\l/FileScript.cpp">
<polygon fill="none" stroke="#000000" points="204,-65.5 204,-93.5 322.8174,-93.5 322.8174,-65.5 204,-65.5"/>
<text text-anchor="start" x="212" y="-81.5" font-family="Helvetica,sans-Serif" font-size="10.00" fill="#000000">libnolimits/NL2/Coaster</text>
<text text-anchor="middle" x="263.4087" y="-71.5" font-family="Helvetica,sans-Serif" font-size="10.00" fill="#000000">/FileScript.cpp</text>
</a>
</g>
</g>
<!-- Node18&#45;&gt;Node23 -->
<g id="edge4" class="edge">
<title>Node18&#45;&gt;Node23</title>
<path fill="none" stroke="#191970" d="M216.9011,-123.3115C227.2514,-113.5612 239.2491,-102.259 248.4659,-93.5765"/>
<polygon fill="#191970" stroke="#191970" points="214.2597,-120.9914 209.3807,-130.396 219.0595,-126.0866 214.2597,-120.9914"/>
</g>
<!-- Node20 -->
<g id="node3" class="node">
<title>Node20</title>
<g id="a_node3"><a xlink:href="_coaster_8cpp.html" target="_top" xlink:title="libnolimits/NL2/Coaster\l/Coaster.cpp">
<polygon fill="none" stroke="#000000" points="0,-.5 0,-28.5 118.8174,-28.5 118.8174,-.5 0,-.5"/>
<text text-anchor="start" x="8" y="-16.5" font-family="Helvetica,sans-Serif" font-size="10.00" fill="#000000">libnolimits/NL2/Coaster</text>
<text text-anchor="middle" x="59.4087" y="-6.5" font-family="Helvetica,sans-Serif" font-size="10.00" fill="#000000">/Coaster.cpp</text>
</a>
</g>
</g>
<!-- Node19&#45;&gt;Node20 -->
<g id="edge2" class="edge">
<title>Node19&#45;&gt;Node20</title>
<path fill="none" stroke="#191970" d="M104.5682,-58.3115C94.5179,-48.5612 82.868,-37.259 73.9183,-28.5765"/>
<polygon fill="#191970" stroke="#191970" points="102.2562,-60.9449 111.8707,-65.396 107.1304,-55.9207 102.2562,-60.9449"/>
</g>
<!-- Node21 -->
<g id="node4" class="node">
<title>Node21</title>
<g id="a_node4"><a xlink:href="_park_8h.html" target="_top" xlink:title="libnolimits/NL2/Park.h">
<polygon fill="none" stroke="#ff0000" points="137.0566,-5.5 137.0566,-23.5 249.7607,-23.5 249.7607,-5.5 137.0566,-5.5"/>
<text text-anchor="middle" x="193.4087" y="-11.5" font-family="Helvetica,sans-Serif" font-size="10.00" fill="#000000">libnolimits/NL2/Park.h</text>
</a>
</g>
</g>
<!-- Node19&#45;&gt;Node21 -->
<g id="edge3" class="edge">
<title>Node19&#45;&gt;Node21</title>
<path fill="none" stroke="#191970" d="M148.1359,-58.4214C160.2825,-46.6373 174.7951,-32.558 184.0552,-23.5743"/>
<polygon fill="#191970" stroke="#191970" points="145.687,-55.9207 140.9467,-65.396 150.5612,-60.9449 145.687,-55.9207"/>
</g>
</g>
</svg>
