<?xml version="1.0" encoding="UTF-8" standalone="no"?>
<!DOCTYPE svg PUBLIC "-//W3C//DTD SVG 1.1//EN"
 "http://www.w3.org/Graphics/SVG/1.1/DTD/svg11.dtd">
<!-- Generated by graphviz version 2.40.1 (20161225.0304)
 -->
<!-- Title: libnolimits/NL2/Coaster/Support/BeamConnection/FooterConnection.h Pages: 1 -->
<svg width="141pt" height="167pt"
 viewBox="0.00 0.00 141.29 167.00" xmlns="http://www.w3.org/2000/svg" xmlns:xlink="http://www.w3.org/1999/xlink">
<g id="graph0" class="graph" transform="scale(1 1) rotate(0) translate(4 163)">
<title>libnolimits/NL2/Coaster/Support/BeamConnection/FooterConnection.h</title>
<!-- Node0 -->
<g id="node1" class="node">
<title>Node0</title>
<polygon fill="#bfbfbf" stroke="#000000" points="0,-120.5 0,-158.5 133.2949,-158.5 133.2949,-120.5 0,-120.5"/>
<text text-anchor="start" x="8" y="-146.5" font-family="Helvetica,sans-Serif" font-size="10.00" fill="#000000">libnolimits/NL2/Coaster</text>
<text text-anchor="start" x="8" y="-136.5" font-family="Helvetica,sans-Serif" font-size="10.00" fill="#000000">/Support/BeamConnection</text>
<text text-anchor="middle" x="66.6475" y="-126.5" font-family="Helvetica,sans-Serif" font-size="10.00" fill="#000000">/FooterConnection.h</text>
</g>
<!-- Node1 -->
<g id="node2" class="node">
<title>Node1</title>
<g id="a_node2"><a xlink:href="_beam_connection_8h.html" target="_top" xlink:title="BeamConnection.h">
<polygon fill="none" stroke="#000000" points="16.1206,-65.5 16.1206,-83.5 117.1743,-83.5 117.1743,-65.5 16.1206,-65.5"/>
<text text-anchor="middle" x="66.6475" y="-71.5" font-family="Helvetica,sans-Serif" font-size="10.00" fill="#000000">BeamConnection.h</text>
</a>
</g>
</g>
<!-- Node0&#45;&gt;Node1 -->
<g id="edge1" class="edge">
<title>Node0&#45;&gt;Node1</title>
<path fill="none" stroke="#191970" d="M66.6475,-120.3494C66.6475,-112.0079 66.6475,-102.2463 66.6475,-93.879"/>
<polygon fill="#191970" stroke="#191970" points="70.1476,-93.5978 66.6475,-83.5978 63.1476,-93.5979 70.1476,-93.5978"/>
</g>
<!-- Node2 -->
<g id="node3" class="node">
<title>Node2</title>
<g id="a_node3"><a xlink:href="_chunk_8h.html" target="_top" xlink:title="../../../../Stream\l/Chunk.h">
<polygon fill="none" stroke="#ff0000" points="25.8618,-.5 25.8618,-28.5 107.4331,-28.5 107.4331,-.5 25.8618,-.5"/>
<text text-anchor="start" x="33.8618" y="-16.5" font-family="Helvetica,sans-Serif" font-size="10.00" fill="#000000">../../../../Stream</text>
<text text-anchor="middle" x="66.6475" y="-6.5" font-family="Helvetica,sans-Serif" font-size="10.00" fill="#000000">/Chunk.h</text>
</a>
</g>
</g>
<!-- Node1&#45;&gt;Node2 -->
<g id="edge2" class="edge">
<title>Node1&#45;&gt;Node2</title>
<path fill="none" stroke="#191970" d="M66.6475,-65.3873C66.6475,-58.3369 66.6475,-48.2311 66.6475,-38.8806"/>
<polygon fill="#191970" stroke="#191970" points="70.1476,-38.8476 66.6475,-28.8477 63.1476,-38.8477 70.1476,-38.8476"/>
</g>
</g>
</svg>
