<?xml version="1.0" encoding="UTF-8" standalone="no"?>
<!DOCTYPE svg PUBLIC "-//W3C//DTD SVG 1.1//EN"
 "http://www.w3.org/Graphics/SVG/1.1/DTD/svg11.dtd">
<!-- Generated by graphviz version 2.40.1 (20161225.0304)
 -->
<!-- Title: libnolimits/NL2/Coaster/Support/BeamConnection/FooterConnection.h Pages: 1 -->
<svg width="497pt" height="187pt"
 viewBox="0.00 0.00 497.06 187.00" xmlns="http://www.w3.org/2000/svg" xmlns:xlink="http://www.w3.org/1999/xlink">
<g id="graph0" class="graph" transform="scale(1 1) rotate(0) translate(4 183)">
<title>libnolimits/NL2/Coaster/Support/BeamConnection/FooterConnection.h</title>
<!-- Node17 -->
<g id="node1" class="node">
<title>Node17</title>
<polygon fill="#bfbfbf" stroke="#000000" points="204.7612,-140.5 204.7612,-178.5 338.0562,-178.5 338.0562,-140.5 204.7612,-140.5"/>
<text text-anchor="start" x="212.7612" y="-166.5" font-family="Helvetica,sans-Serif" font-size="10.00" fill="#000000">libnolimits/NL2/Coaster</text>
<text text-anchor="start" x="212.7612" y="-156.5" font-family="Helvetica,sans-Serif" font-size="10.00" fill="#000000">/Support/BeamConnection</text>
<text text-anchor="middle" x="271.4087" y="-146.5" font-family="Helvetica,sans-Serif" font-size="10.00" fill="#000000">/FooterConnection.h</text>
</g>
<!-- Node18 -->
<g id="node2" class="node">
<title>Node18</title>
<g id="a_node2"><a xlink:href="_beam_8h.html" target="_top" xlink:title="libnolimits/NL2/Coaster\l/Support/Beam.h">
<polygon fill="none" stroke="#000000" points="68,-70.5 68,-98.5 186.8174,-98.5 186.8174,-70.5 68,-70.5"/>
<text text-anchor="start" x="76" y="-86.5" font-family="Helvetica,sans-Serif" font-size="10.00" fill="#000000">libnolimits/NL2/Coaster</text>
<text text-anchor="middle" x="127.4087" y="-76.5" font-family="Helvetica,sans-Serif" font-size="10.00" fill="#000000">/Support/Beam.h</text>
</a>
</g>
</g>
<!-- Node17&#45;&gt;Node18 -->
<g id="edge1" class="edge">
<title>Node17&#45;&gt;Node18</title>
<path fill="none" stroke="#191970" d="M225.6278,-135.6558C202.21,-123.459 174.5066,-109.0301 154.5019,-98.6111"/>
<polygon fill="#191970" stroke="#191970" points="224.2129,-138.8651 234.6988,-140.3803 227.4465,-132.6567 224.2129,-138.8651"/>
</g>
<!-- Node26 -->
<g id="node5" class="node">
<title>Node26</title>
<g id="a_node5"><a xlink:href="_beam_connection_8cpp.html" target="_top" xlink:title="libnolimits/NL2/Coaster\l/Support/BeamConnection\l/BeamConnection.cpp">
<polygon fill="none" stroke="#000000" points="204.7612,-65.5 204.7612,-103.5 338.0562,-103.5 338.0562,-65.5 204.7612,-65.5"/>
<text text-anchor="start" x="212.7612" y="-91.5" font-family="Helvetica,sans-Serif" font-size="10.00" fill="#000000">libnolimits/NL2/Coaster</text>
<text text-anchor="start" x="212.7612" y="-81.5" font-family="Helvetica,sans-Serif" font-size="10.00" fill="#000000">/Support/BeamConnection</text>
<text text-anchor="middle" x="271.4087" y="-71.5" font-family="Helvetica,sans-Serif" font-size="10.00" fill="#000000">/BeamConnection.cpp</text>
</a>
</g>
</g>
<!-- Node17&#45;&gt;Node26 -->
<g id="edge4" class="edge">
<title>Node17&#45;&gt;Node26</title>
<path fill="none" stroke="#191970" d="M271.4087,-129.8977C271.4087,-121.1033 271.4087,-111.7019 271.4087,-103.7489"/>
<polygon fill="#191970" stroke="#191970" points="267.9088,-130.1856 271.4087,-140.1856 274.9088,-130.1857 267.9088,-130.1856"/>
</g>
<!-- Node27 -->
<g id="node6" class="node">
<title>Node27</title>
<g id="a_node6"><a xlink:href="_footer_connection_8cpp.html" target="_top" xlink:title="libnolimits/NL2/Coaster\l/Support/BeamConnection\l/FooterConnection.cpp">
<polygon fill="none" stroke="#000000" points="355.7612,-65.5 355.7612,-103.5 489.0562,-103.5 489.0562,-65.5 355.7612,-65.5"/>
<text text-anchor="start" x="363.7612" y="-91.5" font-family="Helvetica,sans-Serif" font-size="10.00" fill="#000000">libnolimits/NL2/Coaster</text>
<text text-anchor="start" x="363.7612" y="-81.5" font-family="Helvetica,sans-Serif" font-size="10.00" fill="#000000">/Support/BeamConnection</text>
<text text-anchor="middle" x="422.4087" y="-71.5" font-family="Helvetica,sans-Serif" font-size="10.00" fill="#000000">/FooterConnection.cpp</text>
</a>
</g>
</g>
<!-- Node17&#45;&gt;Node27 -->
<g id="edge5" class="edge">
<title>Node17&#45;&gt;Node27</title>
<path fill="none" stroke="#191970" d="M318.9592,-135.8822C339.9107,-125.4758 364.2055,-113.4088 383.9846,-103.5848"/>
<polygon fill="#191970" stroke="#191970" points="317.3022,-132.7972 309.9031,-140.3803 320.4161,-139.0665 317.3022,-132.7972"/>
</g>
<!-- Node19 -->
<g id="node3" class="node">
<title>Node19</title>
<g id="a_node3"><a xlink:href="_support_8h.html" target="_top" xlink:title="libnolimits/NL2/Coaster\l/Support/Support.h">
<polygon fill="none" stroke="#ff0000" points="0,-.5 0,-28.5 118.8174,-28.5 118.8174,-.5 0,-.5"/>
<text text-anchor="start" x="8" y="-16.5" font-family="Helvetica,sans-Serif" font-size="10.00" fill="#000000">libnolimits/NL2/Coaster</text>
<text text-anchor="middle" x="59.4087" y="-6.5" font-family="Helvetica,sans-Serif" font-size="10.00" fill="#000000">/Support/Support.h</text>
</a>
</g>
</g>
<!-- Node18&#45;&gt;Node19 -->
<g id="edge2" class="edge">
<title>Node18&#45;&gt;Node19</title>
<path fill="none" stroke="#191970" d="M106.54,-63.0175C95.6891,-51.8475 82.7299,-38.5071 73.149,-28.6445"/>
<polygon fill="#191970" stroke="#191970" points="104.1695,-65.6004 113.6479,-70.3345 109.1905,-60.7229 104.1695,-65.6004"/>
</g>
<!-- Node25 -->
<g id="node4" class="node">
<title>Node25</title>
<g id="a_node4"><a xlink:href="_beam_8cpp.html" target="_top" xlink:title="libnolimits/NL2/Coaster\l/Support/Beam.cpp">
<polygon fill="none" stroke="#000000" points="137,-.5 137,-28.5 255.8174,-28.5 255.8174,-.5 137,-.5"/>
<text text-anchor="start" x="145" y="-16.5" font-family="Helvetica,sans-Serif" font-size="10.00" fill="#000000">libnolimits/NL2/Coaster</text>
<text text-anchor="middle" x="196.4087" y="-6.5" font-family="Helvetica,sans-Serif" font-size="10.00" fill="#000000">/Support/Beam.cpp</text>
</a>
</g>
</g>
<!-- Node18&#45;&gt;Node25 -->
<g id="edge3" class="edge">
<title>Node18&#45;&gt;Node25</title>
<path fill="none" stroke="#191970" d="M148.5843,-63.0175C159.5948,-51.8475 172.7446,-38.5071 182.4663,-28.6445"/>
<polygon fill="#191970" stroke="#191970" points="145.8993,-60.7557 141.3719,-70.3345 150.8845,-65.6697 145.8993,-60.7557"/>
</g>
</g>
</svg>
