<?xml version="1.0" encoding="UTF-8" standalone="no"?>
<!DOCTYPE svg PUBLIC "-//W3C//DTD SVG 1.1//EN"
 "http://www.w3.org/Graphics/SVG/1.1/DTD/svg11.dtd">
<!-- Generated by graphviz version 2.40.1 (20161225.0304)
 -->
<!-- Title: libnolimits/NL2/Coaster/Support/FreeNode.cpp Pages: 1 -->
<svg width="128pt" height="147pt"
 viewBox="0.00 0.00 127.95 147.00" xmlns="http://www.w3.org/2000/svg" xmlns:xlink="http://www.w3.org/1999/xlink">
<g id="graph0" class="graph" transform="scale(1 1) rotate(0) translate(4 143)">
<title>libnolimits/NL2/Coaster/Support/FreeNode.cpp</title>
<!-- Node0 -->
<g id="node1" class="node">
<title>Node0</title>
<polygon fill="#bfbfbf" stroke="#000000" points="0,-110.5 0,-138.5 119.9502,-138.5 119.9502,-110.5 0,-110.5"/>
<text text-anchor="start" x="8" y="-126.5" font-family="Helvetica,sans-Serif" font-size="10.00" fill="#000000">libnolimits/NL2/Coaster</text>
<text text-anchor="middle" x="59.9751" y="-116.5" font-family="Helvetica,sans-Serif" font-size="10.00" fill="#000000">/Support/FreeNode.cpp</text>
</g>
<!-- Node1 -->
<g id="node2" class="node">
<title>Node1</title>
<g id="a_node2"><a xlink:href="_free_node_8h.html" target="_top" xlink:title="FreeNode.h">
<polygon fill="none" stroke="#000000" points="25.5713,-55.5 25.5713,-73.5 94.3789,-73.5 94.3789,-55.5 25.5713,-55.5"/>
<text text-anchor="middle" x="59.9751" y="-61.5" font-family="Helvetica,sans-Serif" font-size="10.00" fill="#000000">FreeNode.h</text>
</a>
</g>
</g>
<!-- Node0&#45;&gt;Node1 -->
<g id="edge1" class="edge">
<title>Node0&#45;&gt;Node1</title>
<path fill="none" stroke="#191970" d="M59.9751,-110.2808C59.9751,-102.3776 59.9751,-92.4316 59.9751,-83.8308"/>
<polygon fill="#191970" stroke="#191970" points="63.4752,-83.5842 59.9751,-73.5842 56.4752,-83.5842 63.4752,-83.5842"/>
</g>
<!-- Node2 -->
<g id="node3" class="node">
<title>Node2</title>
<g id="a_node3"><a xlink:href="_chunk_8h.html" target="_top" xlink:title="../../../Stream/Chunk.h">
<polygon fill="none" stroke="#ff0000" points="3.3447,-.5 3.3447,-18.5 116.6055,-18.5 116.6055,-.5 3.3447,-.5"/>
<text text-anchor="middle" x="59.9751" y="-6.5" font-family="Helvetica,sans-Serif" font-size="10.00" fill="#000000">../../../Stream/Chunk.h</text>
</a>
</g>
</g>
<!-- Node1&#45;&gt;Node2 -->
<g id="edge2" class="edge">
<title>Node1&#45;&gt;Node2</title>
<path fill="none" stroke="#191970" d="M59.9751,-55.4179C59.9751,-48.2164 59.9751,-37.8962 59.9751,-28.8632"/>
<polygon fill="#191970" stroke="#191970" points="63.4752,-28.7794 59.9751,-18.7795 56.4752,-28.7795 63.4752,-28.7794"/>
</g>
</g>
</svg>
