<?xml version="1.0" encoding="UTF-8" standalone="no"?>
<!DOCTYPE svg PUBLIC "-//W3C//DTD SVG 1.1//EN"
 "http://www.w3.org/Graphics/SVG/1.1/DTD/svg11.dtd">
<!-- Generated by graphviz version 2.40.1 (20161225.0304)
 -->
<!-- Title: libnolimits/Helper.h Pages: 1 -->
<svg width="680pt" height="342pt"
 viewBox="0.00 0.00 680.17 342.00" xmlns="http://www.w3.org/2000/svg" xmlns:xlink="http://www.w3.org/1999/xlink">
<g id="graph0" class="graph" transform="scale(1 1) rotate(0) translate(4 338)">
<title>libnolimits/Helper.h</title>
<!-- Node7 -->
<g id="node1" class="node">
<title>Node7</title>
<polygon fill="#bfbfbf" stroke="#000000" points="362.2759,-315.5 362.2759,-333.5 462.2065,-333.5 462.2065,-315.5 362.2759,-315.5"/>
<text text-anchor="middle" x="412.2412" y="-321.5" font-family="Helvetica,sans-Serif" font-size="10.00" fill="#000000">libnolimits/Helper.h</text>
</g>
<!-- Node8 -->
<g id="node2" class="node">
<title>Node8</title>
<g id="a_node2"><a xlink:href="_nolimits_8h.html" target="_top" xlink:title="libnolimits/Nolimits.h">
<polygon fill="none" stroke="#000000" points="295.9531,-260.5 295.9531,-278.5 402.5293,-278.5 402.5293,-260.5 295.9531,-260.5"/>
<text text-anchor="middle" x="349.2412" y="-266.5" font-family="Helvetica,sans-Serif" font-size="10.00" fill="#000000">libnolimits/Nolimits.h</text>
</a>
</g>
</g>
<!-- Node7&#45;&gt;Node8 -->
<g id="edge1" class="edge">
<title>Node7&#45;&gt;Node8</title>
<path fill="none" stroke="#191970" d="M394.0103,-308.5841C382.9379,-298.9177 369.1889,-286.9147 359.8704,-278.7795"/>
<polygon fill="#191970" stroke="#191970" points="392.003,-311.4779 401.838,-315.4179 396.6067,-306.2046 392.003,-311.4779"/>
</g>
<!-- Node151 -->
<g id="node11" class="node">
<title>Node151</title>
<g id="a_node11"><a xlink:href="_helper_8cpp.html" target="_top" xlink:title="libnolimits/Helper.cpp">
<polygon fill="none" stroke="#000000" points="420.9951,-260.5 420.9951,-278.5 531.4873,-278.5 531.4873,-260.5 420.9951,-260.5"/>
<text text-anchor="middle" x="476.2412" y="-266.5" font-family="Helvetica,sans-Serif" font-size="10.00" fill="#000000">libnolimits/Helper.cpp</text>
</a>
</g>
</g>
<!-- Node7&#45;&gt;Node151 -->
<g id="edge17" class="edge">
<title>Node7&#45;&gt;Node151</title>
<path fill="none" stroke="#191970" d="M430.4314,-308.8678C441.7354,-299.1535 455.8841,-286.9944 465.4433,-278.7795"/>
<polygon fill="#191970" stroke="#191970" points="428.1125,-306.2457 422.8095,-315.4179 432.6749,-311.5546 428.1125,-306.2457"/>
</g>
<!-- Node9 -->
<g id="node3" class="node">
<title>Node9</title>
<g id="a_node3"><a xlink:href="_file_8h.html" target="_top" xlink:title="libnolimits/File/File.h">
<polygon fill="none" stroke="#ff0000" points="196.229,-200.5 196.229,-218.5 302.2534,-218.5 302.2534,-200.5 196.229,-200.5"/>
<text text-anchor="middle" x="249.2412" y="-206.5" font-family="Helvetica,sans-Serif" font-size="10.00" fill="#000000">libnolimits/File/File.h</text>
</a>
</g>
</g>
<!-- Node8&#45;&gt;Node9 -->
<g id="edge2" class="edge">
<title>Node8&#45;&gt;Node9</title>
<path fill="none" stroke="#191970" d="M325.3695,-255.177C306.3868,-243.7874 280.4164,-228.2051 264.2443,-218.5019"/>
<polygon fill="#191970" stroke="#191970" points="323.6777,-258.2435 334.0534,-260.3873 327.2792,-252.2411 323.6777,-258.2435"/>
</g>
<!-- Node20 -->
<g id="node4" class="node">
<title>Node20</title>
<g id="a_node4"><a xlink:href="_chunk_8h.html" target="_top" xlink:title="libnolimits/Stream\l/Chunk.h">
<polygon fill="none" stroke="#ff0000" points="201.7856,-130.5 201.7856,-158.5 296.6968,-158.5 296.6968,-130.5 201.7856,-130.5"/>
<text text-anchor="start" x="209.7856" y="-146.5" font-family="Helvetica,sans-Serif" font-size="10.00" fill="#000000">libnolimits/Stream</text>
<text text-anchor="middle" x="249.2412" y="-136.5" font-family="Helvetica,sans-Serif" font-size="10.00" fill="#000000">/Chunk.h</text>
</a>
</g>
</g>
<!-- Node8&#45;&gt;Node20 -->
<g id="edge10" class="edge">
<title>Node8&#45;&gt;Node20</title>
<path fill="none" stroke="#191970" d="M342.0652,-250.3141C335.5495,-234.4567 324.8811,-211.8856 311.2412,-195 299.7261,-180.7448 283.6021,-167.7639 270.6836,-158.5331"/>
<polygon fill="#191970" stroke="#191970" points="338.983,-252.0405 345.8982,-260.0674 345.498,-249.4801 338.983,-252.0405"/>
</g>
<!-- Node21 -->
<g id="node5" class="node">
<title>Node21</title>
<g id="a_node5"><a xlink:href="_n_l1_2_info_2_info_8h.html" target="_top" xlink:title="libnolimits/NL1/Info\l/Info.h">
<polygon fill="none" stroke="#ff0000" points="0,-65.5 0,-93.5 100.4824,-93.5 100.4824,-65.5 0,-65.5"/>
<text text-anchor="start" x="8" y="-81.5" font-family="Helvetica,sans-Serif" font-size="10.00" fill="#000000">libnolimits/NL1/Info</text>
<text text-anchor="middle" x="50.2412" y="-71.5" font-family="Helvetica,sans-Serif" font-size="10.00" fill="#000000">/Info.h</text>
</a>
</g>
</g>
<!-- Node8&#45;&gt;Node21 -->
<g id="edge11" class="edge">
<title>Node8&#45;&gt;Node21</title>
<path fill="none" stroke="#191970" d="M285.7556,-263.7382C248.8475,-258.0236 202.7617,-246.6463 167.2412,-224 113.6218,-189.8146 73.2411,-122.6729 57.4762,-93.5406"/>
<polygon fill="#191970" stroke="#191970" points="285.5081,-267.2387 295.9058,-265.2045 286.509,-260.3106 285.5081,-267.2387"/>
</g>
<!-- Node23 -->
<g id="node6" class="node">
<title>Node23</title>
<g id="a_node6"><a xlink:href="_n_l1_2_track_2_track_8h.html" target="_top" xlink:title="libnolimits/NL1/Track\l/Track.h">
<polygon fill="none" stroke="#ff0000" points="192.0229,-.5 192.0229,-28.5 300.4595,-28.5 300.4595,-.5 192.0229,-.5"/>
<text text-anchor="start" x="200.0229" y="-16.5" font-family="Helvetica,sans-Serif" font-size="10.00" fill="#000000">libnolimits/NL1/Track</text>
<text text-anchor="middle" x="246.2412" y="-6.5" font-family="Helvetica,sans-Serif" font-size="10.00" fill="#000000">/Track.h</text>
</a>
</g>
</g>
<!-- Node8&#45;&gt;Node23 -->
<g id="edge13" class="edge">
<title>Node8&#45;&gt;Node23</title>
<path fill="none" stroke="#191970" d="M374.047,-255.3793C430.2259,-221.6652 558.0259,-134.1331 501.2412,-65 476.3557,-34.7029 367.7849,-22.269 300.5886,-17.4067"/>
<polygon fill="#191970" stroke="#191970" points="372.2081,-252.4004 365.3747,-260.497 375.7657,-258.429 372.2081,-252.4004"/>
</g>
<!-- Node25 -->
<g id="node7" class="node">
<title>Node25</title>
<g id="a_node7"><a xlink:href="_n_l1_2_info_2_version_8h.html" target="_top" xlink:title="libnolimits/NL1/Info\l/Version.h">
<polygon fill="none" stroke="#ff0000" points="118,-65.5 118,-93.5 218.4824,-93.5 218.4824,-65.5 118,-65.5"/>
<text text-anchor="start" x="126" y="-81.5" font-family="Helvetica,sans-Serif" font-size="10.00" fill="#000000">libnolimits/NL1/Info</text>
<text text-anchor="middle" x="168.2412" y="-71.5" font-family="Helvetica,sans-Serif" font-size="10.00" fill="#000000">/Version.h</text>
</a>
</g>
</g>
<!-- Node8&#45;&gt;Node25 -->
<g id="edge12" class="edge">
<title>Node8&#45;&gt;Node25</title>
<path fill="none" stroke="#191970" d="M285.9715,-259.0909C246.3636,-251.2357 200.4221,-239.2157 187.2412,-224 154.9352,-186.7067 160.8213,-122.3863 165.4606,-93.851"/>
<polygon fill="#191970" stroke="#191970" points="285.3998,-262.545 295.881,-260.9976 286.7225,-255.6711 285.3998,-262.545"/>
</g>
<!-- Node122 -->
<g id="node8" class="node">
<title>Node122</title>
<g id="a_node8"><a xlink:href="_sky_8h.html" target="_top" xlink:title="libnolimits/NL2/Info\l/Sky.h">
<polygon fill="none" stroke="#ff0000" points="274,-65.5 274,-93.5 374.4824,-93.5 374.4824,-65.5 274,-65.5"/>
<text text-anchor="start" x="282" y="-81.5" font-family="Helvetica,sans-Serif" font-size="10.00" fill="#000000">libnolimits/NL2/Info</text>
<text text-anchor="middle" x="324.2412" y="-71.5" font-family="Helvetica,sans-Serif" font-size="10.00" fill="#000000">/Sky.h</text>
</a>
</g>
</g>
<!-- Node8&#45;&gt;Node122 -->
<g id="edge15" class="edge">
<title>Node8&#45;&gt;Node122</title>
<path fill="none" stroke="#191970" d="M346.6797,-250.0325C341.6389,-211.7227 330.5378,-127.3544 326.1142,-93.7347"/>
<polygon fill="#191970" stroke="#191970" points="343.2607,-250.878 348.0354,-260.3359 350.2009,-249.9647 343.2607,-250.878"/>
</g>
<!-- Node124 -->
<g id="node9" class="node">
<title>Node124</title>
<g id="a_node9"><a xlink:href="_n_l2_2_info_2_version_8h.html" target="_top" xlink:title="libnolimits/NL2/Info\l/Version.h">
<polygon fill="none" stroke="#ff0000" points="392,-65.5 392,-93.5 492.4824,-93.5 492.4824,-65.5 392,-65.5"/>
<text text-anchor="start" x="400" y="-81.5" font-family="Helvetica,sans-Serif" font-size="10.00" fill="#000000">libnolimits/NL2/Info</text>
<text text-anchor="middle" x="442.2412" y="-71.5" font-family="Helvetica,sans-Serif" font-size="10.00" fill="#000000">/Version.h</text>
</a>
</g>
</g>
<!-- Node8&#45;&gt;Node124 -->
<g id="edge16" class="edge">
<title>Node8&#45;&gt;Node124</title>
<path fill="none" stroke="#191970" d="M358.2901,-251.013C376.8078,-213.1811 418.6759,-127.6443 435.2737,-93.7347"/>
<polygon fill="#191970" stroke="#191970" points="354.9796,-249.8154 353.7268,-260.3359 361.2668,-252.8929 354.9796,-249.8154"/>
</g>
<!-- Node149 -->
<g id="node10" class="node">
<title>Node149</title>
<g id="a_node10"><a xlink:href="_support_node_8h.html" target="_top" xlink:title="libnolimits/NL2/Coaster\l/Support/SupportNode.h">
<polygon fill="none" stroke="#ff0000" points="548.3154,-195.5 548.3154,-223.5 672.167,-223.5 672.167,-195.5 548.3154,-195.5"/>
<text text-anchor="start" x="556.3154" y="-211.5" font-family="Helvetica,sans-Serif" font-size="10.00" fill="#000000">libnolimits/NL2/Coaster</text>
<text text-anchor="middle" x="610.2412" y="-201.5" font-family="Helvetica,sans-Serif" font-size="10.00" fill="#000000">/Support/SupportNode.h</text>
</a>
</g>
</g>
<!-- Node8&#45;&gt;Node149 -->
<g id="edge14" class="edge">
<title>Node8&#45;&gt;Node149</title>
<path fill="none" stroke="#191970" d="M398.4878,-258.1789C441.2327,-248.3525 503.2938,-234.0856 549.1867,-223.5355"/>
<polygon fill="#191970" stroke="#191970" points="397.5598,-254.8009 388.5981,-260.4524 399.1281,-261.623 397.5598,-254.8009"/>
</g>
<!-- Node9&#45;&gt;Node20 -->
<g id="edge3" class="edge">
<title>Node9&#45;&gt;Node20</title>
<path fill="none" stroke="#191970" d="M249.2412,-190.2652C249.2412,-180.2384 249.2412,-168.1782 249.2412,-158.9559"/>
<polygon fill="#191970" stroke="#191970" points="245.7413,-190.462 249.2412,-200.462 252.7413,-190.4621 245.7413,-190.462"/>
</g>
<!-- Node20&#45;&gt;Node21 -->
<g id="edge4" class="edge">
<title>Node20&#45;&gt;Node21</title>
<path fill="none" stroke="#191970" d="M196.3617,-127.2278C164.1706,-116.7131 123.5674,-103.4508 93.337,-93.5765"/>
<polygon fill="#191970" stroke="#191970" points="195.4687,-130.618 206.0612,-130.396 197.6421,-123.964 195.4687,-130.618"/>
</g>
<!-- Node20&#45;&gt;Node23 -->
<g id="edge7" class="edge">
<title>Node20&#45;&gt;Node23</title>
<path fill="none" stroke="#191970" d="M248.6799,-120.1765C248.0575,-93.2048 247.0745,-50.6099 246.5676,-28.6423"/>
<polygon fill="#191970" stroke="#191970" points="245.1846,-120.4237 248.9144,-130.3402 252.1827,-120.2621 245.1846,-120.4237"/>
</g>
<!-- Node20&#45;&gt;Node25 -->
<g id="edge6" class="edge">
<title>Node20&#45;&gt;Node25</title>
<path fill="none" stroke="#191970" d="M223.5495,-123.8832C211.2403,-114.0054 196.8146,-102.4293 185.7827,-93.5765"/>
<polygon fill="#191970" stroke="#191970" points="221.6756,-126.867 231.6654,-130.396 226.0567,-121.4075 221.6756,-126.867"/>
</g>
<!-- Node20&#45;&gt;Node122 -->
<g id="edge8" class="edge">
<title>Node20&#45;&gt;Node122</title>
<path fill="none" stroke="#191970" d="M273.3591,-123.5978C284.6838,-113.7831 297.8826,-102.3442 307.9991,-93.5765"/>
<polygon fill="#191970" stroke="#191970" points="270.7797,-121.2017 265.5151,-130.396 275.3643,-126.4915 270.7797,-121.2017"/>
</g>
<!-- Node20&#45;&gt;Node124 -->
<g id="edge9" class="edge">
<title>Node20&#45;&gt;Node124</title>
<path fill="none" stroke="#191970" d="M300.9305,-127.0917C332.0862,-116.5988 371.2522,-103.4082 400.4448,-93.5765"/>
<polygon fill="#191970" stroke="#191970" points="299.4792,-123.8872 291.1193,-130.396 301.7134,-130.5211 299.4792,-123.8872"/>
</g>
<!-- Node21&#45;&gt;Node23 -->
<g id="edge5" class="edge">
<title>Node21&#45;&gt;Node23</title>
<path fill="none" stroke="#191970" d="M102.3236,-62.2278C134.0294,-51.7131 174.0204,-38.4508 203.7951,-28.5765"/>
<polygon fill="#191970" stroke="#191970" points="101.1602,-58.9261 92.7703,-65.396 103.3637,-65.5702 101.1602,-58.9261"/>
</g>
</g>
</svg>
