<?xml version="1.0" encoding="UTF-8" standalone="no"?>
<!DOCTYPE svg PUBLIC "-//W3C//DTD SVG 1.1//EN"
 "http://www.w3.org/Graphics/SVG/1.1/DTD/svg11.dtd">
<!-- Generated by graphviz version 2.40.1 (20161225.0304)
 -->
<!-- Title: libnolimits/Helper.cpp Pages: 1 -->
<svg width="419pt" height="137pt"
 viewBox="0.00 0.00 418.95 137.00" xmlns="http://www.w3.org/2000/svg" xmlns:xlink="http://www.w3.org/1999/xlink">
<g id="graph0" class="graph" transform="scale(1 1) rotate(0) translate(4 133)">
<title>libnolimits/Helper.cpp</title>
<!-- Node0 -->
<g id="node1" class="node">
<title>Node0</title>
<polygon fill="#bfbfbf" stroke="#000000" points="275.9263,-110.5 275.9263,-128.5 386.4185,-128.5 386.4185,-110.5 275.9263,-110.5"/>
<text text-anchor="middle" x="331.1724" y="-116.5" font-family="Helvetica,sans-Serif" font-size="10.00" fill="#000000">libnolimits/Helper.cpp</text>
</g>
<!-- Node1 -->
<g id="node2" class="node">
<title>Node1</title>
<g id="a_node2"><a xlink:href="_helper_8h.html" target="_top" xlink:title="Helper.h">
<polygon fill="none" stroke="#000000" points="203.5469,-55.5 203.5469,-73.5 256.7979,-73.5 256.7979,-55.5 203.5469,-55.5"/>
<text text-anchor="middle" x="230.1724" y="-61.5" font-family="Helvetica,sans-Serif" font-size="10.00" fill="#000000">Helper.h</text>
</a>
</g>
</g>
<!-- Node0&#45;&gt;Node1 -->
<g id="edge1" class="edge">
<title>Node0&#45;&gt;Node1</title>
<path fill="none" stroke="#191970" d="M314.4943,-110.4179C298.5584,-101.7399 274.3065,-88.5334 255.8956,-78.5077"/>
<polygon fill="#191970" stroke="#191970" points="257.3314,-75.3043 246.8752,-73.5956 253.9837,-81.4519 257.3314,-75.3043"/>
</g>
<!-- Node5 -->
<g id="node6" class="node">
<title>Node5</title>
<polygon fill="none" stroke="#bfbfbf" points="356.9458,-.5 356.9458,-18.5 397.3989,-18.5 397.3989,-.5 356.9458,-.5"/>
<text text-anchor="middle" x="377.1724" y="-6.5" font-family="Helvetica,sans-Serif" font-size="10.00" fill="#000000">string</text>
</g>
<!-- Node0&#45;&gt;Node5 -->
<g id="edge8" class="edge">
<title>Node0&#45;&gt;Node5</title>
<path fill="none" stroke="#191970" d="M333.0769,-110.4904C335.9276,-97.7908 341.8703,-74.0485 350.1724,-55 354.34,-45.4376 360.1233,-35.4053 365.2686,-27.2018"/>
<polygon fill="#191970" stroke="#191970" points="368.3754,-28.8437 370.8808,-18.5494 362.5026,-25.0345 368.3754,-28.8437"/>
</g>
<!-- Node8 -->
<g id="node9" class="node">
<title>Node8</title>
<polygon fill="none" stroke="#bfbfbf" points="359.3916,-55.5 359.3916,-73.5 410.9531,-73.5 410.9531,-55.5 359.3916,-55.5"/>
<text text-anchor="middle" x="385.1724" y="-61.5" font-family="Helvetica,sans-Serif" font-size="10.00" fill="#000000">sstream</text>
</g>
<!-- Node0&#45;&gt;Node8 -->
<g id="edge9" class="edge">
<title>Node0&#45;&gt;Node8</title>
<path fill="none" stroke="#191970" d="M340.0894,-110.4179C347.9369,-102.425 359.5564,-90.5903 369.0335,-80.9377"/>
<polygon fill="#191970" stroke="#191970" points="371.5532,-83.3672 376.0616,-73.7795 366.5582,-78.463 371.5532,-83.3672"/>
</g>
<!-- Node2 -->
<g id="node3" class="node">
<title>Node2</title>
<polygon fill="none" stroke="#bfbfbf" points="0,-.5 0,-18.5 54.3447,-18.5 54.3447,-.5 0,-.5"/>
<text text-anchor="middle" x="27.1724" y="-6.5" font-family="Helvetica,sans-Serif" font-size="10.00" fill="#000000">iostream</text>
</g>
<!-- Node1&#45;&gt;Node2 -->
<g id="edge2" class="edge">
<title>Node1&#45;&gt;Node2</title>
<path fill="none" stroke="#191970" d="M203.2155,-57.1964C167.5217,-47.5257 104.4174,-30.4284 64.2521,-19.5462"/>
<polygon fill="#191970" stroke="#191970" points="65.1328,-16.1587 54.5655,-16.9218 63.3022,-22.9151 65.1328,-16.1587"/>
</g>
<!-- Node3 -->
<g id="node4" class="node">
<title>Node3</title>
<polygon fill="none" stroke="#bfbfbf" points="72.7759,-.5 72.7759,-18.5 121.5688,-18.5 121.5688,-.5 72.7759,-.5"/>
<text text-anchor="middle" x="97.1724" y="-6.5" font-family="Helvetica,sans-Serif" font-size="10.00" fill="#000000">string.h</text>
</g>
<!-- Node1&#45;&gt;Node3 -->
<g id="edge3" class="edge">
<title>Node1&#45;&gt;Node3</title>
<path fill="none" stroke="#191970" d="M208.2101,-55.4179C186.4552,-46.4215 152.9309,-32.5581 128.4084,-22.4172"/>
<polygon fill="#191970" stroke="#191970" points="129.7458,-19.1828 119.1672,-18.5956 127.0707,-25.6515 129.7458,-19.1828"/>
</g>
<!-- Node4 -->
<g id="node5" class="node">
<title>Node4</title>
<polygon fill="none" stroke="#bfbfbf" points="139.1157,-.5 139.1157,-18.5 191.229,-18.5 191.229,-.5 139.1157,-.5"/>
<text text-anchor="middle" x="165.1724" y="-6.5" font-family="Helvetica,sans-Serif" font-size="10.00" fill="#000000">memory</text>
</g>
<!-- Node1&#45;&gt;Node4 -->
<g id="edge4" class="edge">
<title>Node1&#45;&gt;Node4</title>
<path fill="none" stroke="#191970" d="M219.4389,-55.4179C209.8057,-47.2667 195.4507,-35.1201 183.9242,-25.3669"/>
<polygon fill="#191970" stroke="#191970" points="186.0337,-22.5671 176.139,-18.7795 181.5121,-27.9108 186.0337,-22.5671"/>
</g>
<!-- Node1&#45;&gt;Node5 -->
<g id="edge5" class="edge">
<title>Node1&#45;&gt;Node5</title>
<path fill="none" stroke="#191970" d="M254.4464,-55.4179C279.8662,-45.9071 319.8242,-30.9568 347.1956,-20.7158"/>
<polygon fill="#191970" stroke="#191970" points="348.5207,-23.957 356.6601,-17.1746 346.0677,-17.4009 348.5207,-23.957"/>
</g>
<!-- Node6 -->
<g id="node7" class="node">
<title>Node6</title>
<polygon fill="none" stroke="#bfbfbf" points="209.1108,-.5 209.1108,-18.5 251.2339,-18.5 251.2339,-.5 209.1108,-.5"/>
<text text-anchor="middle" x="230.1724" y="-6.5" font-family="Helvetica,sans-Serif" font-size="10.00" fill="#000000">cstdio</text>
</g>
<!-- Node1&#45;&gt;Node6 -->
<g id="edge6" class="edge">
<title>Node1&#45;&gt;Node6</title>
<path fill="none" stroke="#191970" d="M230.1724,-55.4179C230.1724,-48.2164 230.1724,-37.8962 230.1724,-28.8632"/>
<polygon fill="#191970" stroke="#191970" points="233.6725,-28.7794 230.1724,-18.7795 226.6725,-28.7795 233.6725,-28.7794"/>
</g>
<!-- Node7 -->
<g id="node8" class="node">
<title>Node7</title>
<polygon fill="none" stroke="#bfbfbf" points="268.9385,-.5 268.9385,-18.5 339.4063,-18.5 339.4063,-.5 268.9385,-.5"/>
<text text-anchor="middle" x="304.1724" y="-6.5" font-family="Helvetica,sans-Serif" font-size="10.00" fill="#000000">glm/glm.hpp</text>
</g>
<!-- Node1&#45;&gt;Node7 -->
<g id="edge7" class="edge">
<title>Node1&#45;&gt;Node7</title>
<path fill="none" stroke="#191970" d="M242.392,-55.4179C253.6393,-47.0584 270.5405,-34.4966 283.8238,-24.6239"/>
<polygon fill="#191970" stroke="#191970" points="285.9965,-27.37 291.9346,-18.5956 281.8208,-21.7518 285.9965,-27.37"/>
</g>
</g>
</svg>
