<?xml version="1.0" encoding="UTF-8" standalone="no"?>
<!DOCTYPE svg PUBLIC "-//W3C//DTD SVG 1.1//EN"
 "http://www.w3.org/Graphics/SVG/1.1/DTD/svg11.dtd">
<!-- Generated by graphviz version 2.40.1 (20161225.0304)
 -->
<!-- Title: libnolimits/Helper.h Pages: 1 -->
<svg width="369pt" height="277pt"
 viewBox="0.00 0.00 369.17 277.00" xmlns="http://www.w3.org/2000/svg" xmlns:xlink="http://www.w3.org/1999/xlink">
<g id="graph0" class="graph" transform="scale(1 1) rotate(0) translate(4 273)">
<title>libnolimits/Helper.h</title>
<!-- Node7 -->
<g id="node1" class="node">
<title>Node7</title>
<polygon fill="#bfbfbf" stroke="#000000" points="141.2759,-250.5 141.2759,-268.5 241.2065,-268.5 241.2065,-250.5 141.2759,-250.5"/>
<text text-anchor="middle" x="191.2412" y="-256.5" font-family="Helvetica,sans-Serif" font-size="10.00" fill="#000000">libnolimits/Helper.h</text>
</g>
<!-- Node8 -->
<g id="node2" class="node">
<title>Node8</title>
<g id="a_node2"><a xlink:href="_nolimits_8h.html" target="_top" xlink:title="libnolimits/Nolimits.h">
<polygon fill="none" stroke="#000000" points="74.9531,-195.5 74.9531,-213.5 181.5293,-213.5 181.5293,-195.5 74.9531,-195.5"/>
<text text-anchor="middle" x="128.2412" y="-201.5" font-family="Helvetica,sans-Serif" font-size="10.00" fill="#000000">libnolimits/Nolimits.h</text>
</a>
</g>
</g>
<!-- Node7&#45;&gt;Node8 -->
<g id="edge1" class="edge">
<title>Node7&#45;&gt;Node8</title>
<path fill="none" stroke="#191970" d="M173.0103,-243.5841C161.9379,-233.9177 148.1889,-221.9147 138.8704,-213.7795"/>
<polygon fill="#191970" stroke="#191970" points="171.003,-246.4779 180.838,-250.4179 175.6067,-241.2046 171.003,-246.4779"/>
</g>
<!-- Node131 -->
<g id="node8" class="node">
<title>Node131</title>
<g id="a_node8"><a xlink:href="_helper_8cpp.html" target="_top" xlink:title="libnolimits/Helper.cpp">
<polygon fill="none" stroke="#000000" points="199.9951,-195.5 199.9951,-213.5 310.4873,-213.5 310.4873,-195.5 199.9951,-195.5"/>
<text text-anchor="middle" x="255.2412" y="-201.5" font-family="Helvetica,sans-Serif" font-size="10.00" fill="#000000">libnolimits/Helper.cpp</text>
</a>
</g>
</g>
<!-- Node7&#45;&gt;Node131 -->
<g id="edge10" class="edge">
<title>Node7&#45;&gt;Node131</title>
<path fill="none" stroke="#191970" d="M209.4314,-243.8678C220.7354,-234.1535 234.8841,-221.9944 244.4433,-213.7795"/>
<polygon fill="#191970" stroke="#191970" points="207.1125,-241.2457 201.8095,-250.4179 211.6749,-246.5546 207.1125,-241.2457"/>
</g>
<!-- Node9 -->
<g id="node3" class="node">
<title>Node9</title>
<g id="a_node3"><a xlink:href="_file_8h.html" target="_top" xlink:title="libnolimits/File/File.h">
<polygon fill="none" stroke="#ff0000" points="75.229,-135.5 75.229,-153.5 181.2534,-153.5 181.2534,-135.5 75.229,-135.5"/>
<text text-anchor="middle" x="128.2412" y="-141.5" font-family="Helvetica,sans-Serif" font-size="10.00" fill="#000000">libnolimits/File/File.h</text>
</a>
</g>
</g>
<!-- Node8&#45;&gt;Node9 -->
<g id="edge2" class="edge">
<title>Node8&#45;&gt;Node9</title>
<path fill="none" stroke="#191970" d="M128.2412,-185.3734C128.2412,-174.7812 128.2412,-162.0976 128.2412,-153.6985"/>
<polygon fill="#191970" stroke="#191970" points="124.7413,-185.3873 128.2412,-195.3873 131.7413,-185.3873 124.7413,-185.3873"/>
</g>
<!-- Node18 -->
<g id="node4" class="node">
<title>Node18</title>
<g id="a_node4"><a xlink:href="_chunk_8h.html" target="_top" xlink:title="libnolimits/Stream\l/Chunk.h">
<polygon fill="none" stroke="#ff0000" points="80.7856,-65.5 80.7856,-93.5 175.6968,-93.5 175.6968,-65.5 80.7856,-65.5"/>
<text text-anchor="start" x="88.7856" y="-81.5" font-family="Helvetica,sans-Serif" font-size="10.00" fill="#000000">libnolimits/Stream</text>
<text text-anchor="middle" x="128.2412" y="-71.5" font-family="Helvetica,sans-Serif" font-size="10.00" fill="#000000">/Chunk.h</text>
</a>
</g>
</g>
<!-- Node8&#45;&gt;Node18 -->
<g id="edge6" class="edge">
<title>Node8&#45;&gt;Node18</title>
<path fill="none" stroke="#191970" d="M98.3484,-190.4593C86.0426,-182.9866 73.0863,-172.5139 66.2412,-159 60.4172,-147.502 60.709,-141.6412 66.2412,-130 73.6301,-114.4519 88.4074,-102.1178 101.682,-93.5319"/>
<polygon fill="#191970" stroke="#191970" points="96.6641,-193.5275 107.0974,-195.3709 100.0909,-187.4236 96.6641,-193.5275"/>
</g>
<!-- Node102 -->
<g id="node5" class="node">
<title>Node102</title>
<g id="a_node5"><a xlink:href="_sky_8h.html" target="_top" xlink:title="libnolimits/NL2/Info\l/Sky.h">
<polygon fill="none" stroke="#ff0000" points="0,-.5 0,-28.5 100.4824,-28.5 100.4824,-.5 0,-.5"/>
<text text-anchor="start" x="8" y="-16.5" font-family="Helvetica,sans-Serif" font-size="10.00" fill="#000000">libnolimits/NL2/Info</text>
<text text-anchor="middle" x="50.2412" y="-6.5" font-family="Helvetica,sans-Serif" font-size="10.00" fill="#000000">/Sky.h</text>
</a>
</g>
</g>
<!-- Node8&#45;&gt;Node102 -->
<g id="edge8" class="edge">
<title>Node8&#45;&gt;Node102</title>
<path fill="none" stroke="#191970" d="M94.4802,-190.8663C80.8233,-183.537 66.385,-173.0643 58.2412,-159 33.9423,-117.0357 41.7346,-56.2156 47.0414,-28.8221"/>
<polygon fill="#191970" stroke="#191970" points="93.2084,-194.1422 103.723,-195.4437 96.3151,-187.8693 93.2084,-194.1422"/>
</g>
<!-- Node104 -->
<g id="node6" class="node">
<title>Node104</title>
<g id="a_node6"><a xlink:href="_version_8h.html" target="_top" xlink:title="libnolimits/NL2/Info\l/Version.h">
<polygon fill="none" stroke="#ff0000" points="118,-.5 118,-28.5 218.4824,-28.5 218.4824,-.5 118,-.5"/>
<text text-anchor="start" x="126" y="-16.5" font-family="Helvetica,sans-Serif" font-size="10.00" fill="#000000">libnolimits/NL2/Info</text>
<text text-anchor="middle" x="168.2412" y="-6.5" font-family="Helvetica,sans-Serif" font-size="10.00" fill="#000000">/Version.h</text>
</a>
</g>
</g>
<!-- Node8&#45;&gt;Node104 -->
<g id="edge9" class="edge">
<title>Node8&#45;&gt;Node104</title>
<path fill="none" stroke="#191970" d="M158.134,-190.4593C170.4398,-182.9866 183.3961,-172.5139 190.2412,-159 212.3713,-115.3095 188.6291,-55.366 175.6033,-28.5085"/>
<polygon fill="#191970" stroke="#191970" points="156.3915,-187.4236 149.385,-195.3709 159.8183,-193.5275 156.3915,-187.4236"/>
</g>
<!-- Node129 -->
<g id="node7" class="node">
<title>Node129</title>
<g id="a_node7"><a xlink:href="_support_node_8h.html" target="_top" xlink:title="libnolimits/NL2/Coaster\l/Support/SupportNode.h">
<polygon fill="none" stroke="#ff0000" points="237.3154,-130.5 237.3154,-158.5 361.167,-158.5 361.167,-130.5 237.3154,-130.5"/>
<text text-anchor="start" x="245.3154" y="-146.5" font-family="Helvetica,sans-Serif" font-size="10.00" fill="#000000">libnolimits/NL2/Coaster</text>
<text text-anchor="middle" x="299.2412" y="-136.5" font-family="Helvetica,sans-Serif" font-size="10.00" fill="#000000">/Support/SupportNode.h</text>
</a>
</g>
</g>
<!-- Node8&#45;&gt;Node129 -->
<g id="edge7" class="edge">
<title>Node8&#45;&gt;Node129</title>
<path fill="none" stroke="#191970" d="M163.9448,-191.9724C191.7935,-182.2009 230.4615,-168.6332 259.3297,-158.504"/>
<polygon fill="#191970" stroke="#191970" points="162.4896,-188.7737 154.2124,-195.3873 164.8073,-195.379 162.4896,-188.7737"/>
</g>
<!-- Node9&#45;&gt;Node18 -->
<g id="edge3" class="edge">
<title>Node9&#45;&gt;Node18</title>
<path fill="none" stroke="#191970" d="M128.2412,-125.2652C128.2412,-115.2384 128.2412,-103.1782 128.2412,-93.9559"/>
<polygon fill="#191970" stroke="#191970" points="124.7413,-125.462 128.2412,-135.462 131.7413,-125.4621 124.7413,-125.462"/>
</g>
<!-- Node18&#45;&gt;Node102 -->
<g id="edge4" class="edge">
<title>Node18&#45;&gt;Node102</title>
<path fill="none" stroke="#191970" d="M103.501,-58.8832C91.6477,-49.0054 77.7564,-37.4293 67.133,-28.5765"/>
<polygon fill="#191970" stroke="#191970" points="101.3935,-61.6829 111.3164,-65.396 105.8748,-56.3053 101.3935,-61.6829"/>
</g>
<!-- Node18&#45;&gt;Node104 -->
<g id="edge5" class="edge">
<title>Node18&#45;&gt;Node104</title>
<path fill="none" stroke="#191970" d="M142.1693,-56.8669C147.9585,-47.4594 154.4976,-36.8334 159.5787,-28.5765"/>
<polygon fill="#191970" stroke="#191970" points="139.1808,-55.045 136.9206,-65.396 145.1424,-58.7137 139.1808,-55.045"/>
</g>
</g>
</svg>
