<?xml version="1.0" encoding="UTF-8" standalone="no"?>
<!DOCTYPE svg PUBLIC "-//W3C//DTD SVG 1.1//EN"
 "http://www.w3.org/Graphics/SVG/1.1/DTD/svg11.dtd">
<!-- Generated by graphviz version 2.40.1 (20161225.0304)
 -->
<!-- Title: libnolimits/Helper.h Pages: 1 -->
<svg width="405pt" height="82pt"
 viewBox="0.00 0.00 405.41 82.00" xmlns="http://www.w3.org/2000/svg" xmlns:xlink="http://www.w3.org/1999/xlink">
<g id="graph0" class="graph" transform="scale(1 1) rotate(0) translate(4 78)">
<title>libnolimits/Helper.h</title>
<!-- Node0 -->
<g id="node1" class="node">
<title>Node0</title>
<polygon fill="#bfbfbf" stroke="#000000" points="147.207,-55.5 147.207,-73.5 247.1377,-73.5 247.1377,-55.5 147.207,-55.5"/>
<text text-anchor="middle" x="197.1724" y="-61.5" font-family="Helvetica,sans-Serif" font-size="10.00" fill="#000000">libnolimits/Helper.h</text>
</g>
<!-- Node1 -->
<g id="node2" class="node">
<title>Node1</title>
<polygon fill="none" stroke="#bfbfbf" points="0,-.5 0,-18.5 54.3447,-18.5 54.3447,-.5 0,-.5"/>
<text text-anchor="middle" x="27.1724" y="-6.5" font-family="Helvetica,sans-Serif" font-size="10.00" fill="#000000">iostream</text>
</g>
<!-- Node0&#45;&gt;Node1 -->
<g id="edge1" class="edge">
<title>Node0&#45;&gt;Node1</title>
<path fill="none" stroke="#191970" d="M169.1003,-55.4179C140.4228,-46.1398 95.7451,-31.6853 64.1891,-21.476"/>
<polygon fill="#191970" stroke="#191970" points="65.0334,-18.0706 54.4416,-18.3224 62.8786,-24.7307 65.0334,-18.0706"/>
</g>
<!-- Node2 -->
<g id="node3" class="node">
<title>Node2</title>
<polygon fill="none" stroke="#bfbfbf" points="72.7759,-.5 72.7759,-18.5 121.5688,-18.5 121.5688,-.5 72.7759,-.5"/>
<text text-anchor="middle" x="97.1724" y="-6.5" font-family="Helvetica,sans-Serif" font-size="10.00" fill="#000000">string.h</text>
</g>
<!-- Node0&#45;&gt;Node2 -->
<g id="edge2" class="edge">
<title>Node0&#45;&gt;Node2</title>
<path fill="none" stroke="#191970" d="M180.6594,-55.4179C164.8813,-46.7399 140.8695,-33.5334 122.6409,-23.5077"/>
<polygon fill="#191970" stroke="#191970" points="124.1588,-20.3481 113.7099,-18.5956 120.7853,-26.4816 124.1588,-20.3481"/>
</g>
<!-- Node3 -->
<g id="node4" class="node">
<title>Node3</title>
<polygon fill="none" stroke="#bfbfbf" points="139.1157,-.5 139.1157,-18.5 191.229,-18.5 191.229,-.5 139.1157,-.5"/>
<text text-anchor="middle" x="165.1724" y="-6.5" font-family="Helvetica,sans-Serif" font-size="10.00" fill="#000000">memory</text>
</g>
<!-- Node0&#45;&gt;Node3 -->
<g id="edge3" class="edge">
<title>Node0&#45;&gt;Node3</title>
<path fill="none" stroke="#191970" d="M191.8882,-55.4179C187.5141,-47.8998 181.1624,-36.9829 175.7497,-27.6799"/>
<polygon fill="#191970" stroke="#191970" points="178.6255,-25.6628 170.5713,-18.7795 172.5751,-29.1831 178.6255,-25.6628"/>
</g>
<!-- Node4 -->
<g id="node5" class="node">
<title>Node4</title>
<polygon fill="none" stroke="#bfbfbf" points="208.9458,-.5 208.9458,-18.5 249.3989,-18.5 249.3989,-.5 208.9458,-.5"/>
<text text-anchor="middle" x="229.1724" y="-6.5" font-family="Helvetica,sans-Serif" font-size="10.00" fill="#000000">string</text>
</g>
<!-- Node0&#45;&gt;Node4 -->
<g id="edge4" class="edge">
<title>Node0&#45;&gt;Node4</title>
<path fill="none" stroke="#191970" d="M202.4565,-55.4179C206.8307,-47.8998 213.1823,-36.9829 218.595,-27.6799"/>
<polygon fill="#191970" stroke="#191970" points="221.7696,-29.1831 223.7734,-18.7795 215.7192,-25.6628 221.7696,-29.1831"/>
</g>
<!-- Node5 -->
<g id="node6" class="node">
<title>Node5</title>
<polygon fill="none" stroke="#bfbfbf" points="267.1108,-.5 267.1108,-18.5 309.2339,-18.5 309.2339,-.5 267.1108,-.5"/>
<text text-anchor="middle" x="288.1724" y="-6.5" font-family="Helvetica,sans-Serif" font-size="10.00" fill="#000000">cstdio</text>
</g>
<!-- Node0&#45;&gt;Node5 -->
<g id="edge5" class="edge">
<title>Node0&#45;&gt;Node5</title>
<path fill="none" stroke="#191970" d="M212.1992,-55.4179C226.4255,-46.8195 248.0076,-33.7754 264.5381,-23.7844"/>
<polygon fill="#191970" stroke="#191970" points="266.3754,-26.7637 273.1232,-18.5956 262.7545,-20.7729 266.3754,-26.7637"/>
</g>
<!-- Node6 -->
<g id="node7" class="node">
<title>Node6</title>
<polygon fill="none" stroke="#bfbfbf" points="326.9385,-.5 326.9385,-18.5 397.4063,-18.5 397.4063,-.5 326.9385,-.5"/>
<text text-anchor="middle" x="362.1724" y="-6.5" font-family="Helvetica,sans-Serif" font-size="10.00" fill="#000000">glm/glm.hpp</text>
</g>
<!-- Node0&#45;&gt;Node6 -->
<g id="edge6" class="edge">
<title>Node0&#45;&gt;Node6</title>
<path fill="none" stroke="#191970" d="M224.4188,-55.4179C251.9679,-46.2348 294.7301,-31.9807 325.2997,-21.7909"/>
<polygon fill="#191970" stroke="#191970" points="326.7797,-24.9869 335.1597,-18.5042 324.5661,-18.3462 326.7797,-24.9869"/>
</g>
</g>
</svg>
