<?xml version="1.0" encoding="UTF-8" standalone="no"?>
<!DOCTYPE svg PUBLIC "-//W3C//DTD SVG 1.1//EN"
 "http://www.w3.org/Graphics/SVG/1.1/DTD/svg11.dtd">
<!-- Generated by graphviz version 2.40.1 (20161225.0304)
 -->
<!-- Title: libnolimits/NL2/Coaster/IndividualColor.h Pages: 1 -->
<svg width="351pt" height="167pt"
 viewBox="0.00 0.00 350.82 167.00" xmlns="http://www.w3.org/2000/svg" xmlns:xlink="http://www.w3.org/1999/xlink">
<g id="graph0" class="graph" transform="scale(1 1) rotate(0) translate(4 163)">
<title>libnolimits/NL2/Coaster/IndividualColor.h</title>
<!-- Node17 -->
<g id="node1" class="node">
<title>Node17</title>
<polygon fill="#bfbfbf" stroke="#000000" points="137,-130.5 137,-158.5 255.8174,-158.5 255.8174,-130.5 137,-130.5"/>
<text text-anchor="start" x="145" y="-146.5" font-family="Helvetica,sans-Serif" font-size="10.00" fill="#000000">libnolimits/NL2/Coaster</text>
<text text-anchor="middle" x="196.4087" y="-136.5" font-family="Helvetica,sans-Serif" font-size="10.00" fill="#000000">/IndividualColor.h</text>
</g>
<!-- Node18 -->
<g id="node2" class="node">
<title>Node18</title>
<g id="a_node2"><a xlink:href="_car_8h.html" target="_top" xlink:title="libnolimits/NL2/Coaster\l/Car.h">
<polygon fill="none" stroke="#000000" points="50,-65.5 50,-93.5 168.8174,-93.5 168.8174,-65.5 50,-65.5"/>
<text text-anchor="start" x="58" y="-81.5" font-family="Helvetica,sans-Serif" font-size="10.00" fill="#000000">libnolimits/NL2/Coaster</text>
<text text-anchor="middle" x="109.4087" y="-71.5" font-family="Helvetica,sans-Serif" font-size="10.00" fill="#000000">/Car.h</text>
</a>
</g>
</g>
<!-- Node17&#45;&gt;Node18 -->
<g id="edge1" class="edge">
<title>Node17&#45;&gt;Node18</title>
<path fill="none" stroke="#191970" d="M169.1946,-124.1677C155.8912,-114.2283 140.2126,-102.5144 128.2496,-93.5765"/>
<polygon fill="#191970" stroke="#191970" points="167.4251,-127.2145 177.531,-130.396 171.6148,-121.6068 167.4251,-127.2145"/>
</g>
<!-- Node20 -->
<g id="node4" class="node">
<title>Node20</title>
<g id="a_node4"><a xlink:href="_train_8h.html" target="_top" xlink:title="libnolimits/NL2/Coaster\l/Train.h">
<polygon fill="none" stroke="#ff0000" points="137,-.5 137,-28.5 255.8174,-28.5 255.8174,-.5 137,-.5"/>
<text text-anchor="start" x="145" y="-16.5" font-family="Helvetica,sans-Serif" font-size="10.00" fill="#000000">libnolimits/NL2/Coaster</text>
<text text-anchor="middle" x="196.4087" y="-6.5" font-family="Helvetica,sans-Serif" font-size="10.00" fill="#000000">/Train.h</text>
</a>
</g>
</g>
<!-- Node17&#45;&gt;Node20 -->
<g id="edge4" class="edge">
<title>Node17&#45;&gt;Node20</title>
<path fill="none" stroke="#191970" d="M196.4087,-120.1765C196.4087,-93.2048 196.4087,-50.6099 196.4087,-28.6423"/>
<polygon fill="#191970" stroke="#191970" points="192.9088,-120.3402 196.4087,-130.3402 199.9088,-120.3403 192.9088,-120.3402"/>
</g>
<!-- Node26 -->
<g id="node5" class="node">
<title>Node26</title>
<g id="a_node5"><a xlink:href="_individual_color_8cpp.html" target="_top" xlink:title="libnolimits/NL2/Coaster\l/IndividualColor.cpp">
<polygon fill="none" stroke="#000000" points="224,-65.5 224,-93.5 342.8174,-93.5 342.8174,-65.5 224,-65.5"/>
<text text-anchor="start" x="232" y="-81.5" font-family="Helvetica,sans-Serif" font-size="10.00" fill="#000000">libnolimits/NL2/Coaster</text>
<text text-anchor="middle" x="283.4087" y="-71.5" font-family="Helvetica,sans-Serif" font-size="10.00" fill="#000000">/IndividualColor.cpp</text>
</a>
</g>
</g>
<!-- Node17&#45;&gt;Node26 -->
<g id="edge5" class="edge">
<title>Node17&#45;&gt;Node26</title>
<path fill="none" stroke="#191970" d="M223.6228,-124.1677C236.9262,-114.2283 252.6048,-102.5144 264.5678,-93.5765"/>
<polygon fill="#191970" stroke="#191970" points="221.2026,-121.6068 215.2864,-130.396 225.3923,-127.2145 221.2026,-121.6068"/>
</g>
<!-- Node19 -->
<g id="node3" class="node">
<title>Node19</title>
<g id="a_node3"><a xlink:href="_car_8cpp.html" target="_top" xlink:title="libnolimits/NL2/Coaster\l/Car.cpp">
<polygon fill="none" stroke="#000000" points="0,-.5 0,-28.5 118.8174,-28.5 118.8174,-.5 0,-.5"/>
<text text-anchor="start" x="8" y="-16.5" font-family="Helvetica,sans-Serif" font-size="10.00" fill="#000000">libnolimits/NL2/Coaster</text>
<text text-anchor="middle" x="59.4087" y="-6.5" font-family="Helvetica,sans-Serif" font-size="10.00" fill="#000000">/Car.cpp</text>
</a>
</g>
</g>
<!-- Node18&#45;&gt;Node19 -->
<g id="edge2" class="edge">
<title>Node18&#45;&gt;Node19</title>
<path fill="none" stroke="#191970" d="M92.445,-57.4472C85.0999,-47.8986 76.7192,-37.0037 70.2368,-28.5765"/>
<polygon fill="#191970" stroke="#191970" points="89.6881,-59.6037 98.5594,-65.396 95.2365,-55.3357 89.6881,-59.6037"/>
</g>
<!-- Node18&#45;&gt;Node20 -->
<g id="edge3" class="edge">
<title>Node18&#45;&gt;Node20</title>
<path fill="none" stroke="#191970" d="M136.6228,-59.1677C149.9262,-49.2283 165.6048,-37.5144 177.5678,-28.5765"/>
<polygon fill="#191970" stroke="#191970" points="134.2026,-56.6068 128.2864,-65.396 138.3923,-62.2145 134.2026,-56.6068"/>
</g>
</g>
</svg>
