<?xml version="1.0" encoding="UTF-8" standalone="no"?>
<!DOCTYPE svg PUBLIC "-//W3C//DTD SVG 1.1//EN"
 "http://www.w3.org/Graphics/SVG/1.1/DTD/svg11.dtd">
<!-- Generated by graphviz version 2.40.1 (20161225.0304)
 -->
<!-- Title: libnolimits/NL2/Info/Info.h Pages: 1 -->
<svg width="260pt" height="257pt"
 viewBox="0.00 0.00 260.05 257.00" xmlns="http://www.w3.org/2000/svg" xmlns:xlink="http://www.w3.org/1999/xlink">
<g id="graph0" class="graph" transform="scale(1 1) rotate(0) translate(4 253)">
<title>libnolimits/NL2/Info/Info.h</title>
<!-- Node0 -->
<g id="node1" class="node">
<title>Node0</title>
<polygon fill="#bfbfbf" stroke="#000000" points="40.5803,-220.5 40.5803,-248.5 141.0627,-248.5 141.0627,-220.5 40.5803,-220.5"/>
<text text-anchor="start" x="48.5803" y="-236.5" font-family="Helvetica,sans-Serif" font-size="10.00" fill="#000000">libnolimits/NL2/Info</text>
<text text-anchor="middle" x="90.8215" y="-226.5" font-family="Helvetica,sans-Serif" font-size="10.00" fill="#000000">/Info.h</text>
</g>
<!-- Node1 -->
<g id="node2" class="node">
<title>Node1</title>
<g id="a_node2"><a xlink:href="_chunk_8h.html" target="_top" xlink:title="../../Stream/Chunk.h">
<polygon fill="none" stroke="#000000" points="4.3586,-110.5 4.3586,-128.5 109.2844,-128.5 109.2844,-110.5 4.3586,-110.5"/>
<text text-anchor="middle" x="56.8215" y="-116.5" font-family="Helvetica,sans-Serif" font-size="10.00" fill="#000000">../../Stream/Chunk.h</text>
</a>
</g>
</g>
<!-- Node0&#45;&gt;Node1 -->
<g id="edge1" class="edge">
<title>Node0&#45;&gt;Node1</title>
<path fill="none" stroke="#191970" d="M56.9675,-220.4444C41.7859,-212.2256 25.3939,-200.2284 16.8215,-184 7.8183,-166.9561 22.1665,-148.3292 36.1182,-135.4941"/>
<polygon fill="#191970" stroke="#191970" points="38.7821,-137.8213 44.1073,-128.662 34.2326,-132.5013 38.7821,-137.8213"/>
</g>
<!-- Node16 -->
<g id="node6" class="node">
<title>Node16</title>
<g id="a_node6"><a xlink:href="_weather_8h.html" target="_top" xlink:title="Weather.h">
<polygon fill="none" stroke="#000000" points="26.1164,-165.5 26.1164,-183.5 87.5266,-183.5 87.5266,-165.5 26.1164,-165.5"/>
<text text-anchor="middle" x="56.8215" y="-171.5" font-family="Helvetica,sans-Serif" font-size="10.00" fill="#000000">Weather.h</text>
</a>
</g>
</g>
<!-- Node0&#45;&gt;Node16 -->
<g id="edge7" class="edge">
<title>Node0&#45;&gt;Node16</title>
<path fill="none" stroke="#191970" d="M82.764,-220.2808C78.0338,-211.9336 72.0125,-201.3076 66.9618,-192.3946"/>
<polygon fill="#191970" stroke="#191970" points="69.9445,-190.5589 61.9692,-183.5842 63.8543,-194.01 69.9445,-190.5589"/>
</g>
<!-- Node17 -->
<g id="node7" class="node">
<title>Node17</title>
<g id="a_node7"><a xlink:href="_sky_8h.html" target="_top" xlink:title="Sky.h">
<polygon fill="none" stroke="#000000" points="105.6853,-165.5 105.6853,-183.5 145.9577,-183.5 145.9577,-165.5 105.6853,-165.5"/>
<text text-anchor="middle" x="125.8215" y="-171.5" font-family="Helvetica,sans-Serif" font-size="10.00" fill="#000000">Sky.h</text>
</a>
</g>
</g>
<!-- Node0&#45;&gt;Node17 -->
<g id="edge9" class="edge">
<title>Node0&#45;&gt;Node17</title>
<path fill="none" stroke="#191970" d="M99.116,-220.2808C103.9852,-211.9336 110.1837,-201.3076 115.383,-192.3946"/>
<polygon fill="#191970" stroke="#191970" points="118.5068,-193.9856 120.5224,-183.5842 112.4604,-190.4584 118.5068,-193.9856"/>
</g>
<!-- Node18 -->
<g id="node8" class="node">
<title>Node18</title>
<g id="a_node8"><a xlink:href="_version_8h.html" target="_top" xlink:title="Version.h">
<polygon fill="none" stroke="#000000" points="163.9719,-165.5 163.9719,-183.5 221.6711,-183.5 221.6711,-165.5 163.9719,-165.5"/>
<text text-anchor="middle" x="192.8215" y="-171.5" font-family="Helvetica,sans-Serif" font-size="10.00" fill="#000000">Version.h</text>
</a>
</g>
</g>
<!-- Node0&#45;&gt;Node18 -->
<g id="edge12" class="edge">
<title>Node0&#45;&gt;Node18</title>
<path fill="none" stroke="#191970" d="M114.736,-220.4327C130.881,-210.9356 152.1276,-198.4376 168.3817,-188.8763"/>
<polygon fill="#191970" stroke="#191970" points="170.4539,-191.7181 177.2987,-183.6311 166.9047,-185.6845 170.4539,-191.7181"/>
</g>
<!-- Node2 -->
<g id="node3" class="node">
<title>Node2</title>
<g id="a_node3"><a xlink:href="_file_8h.html" target="_top" xlink:title="../File/File.h">
<polygon fill="none" stroke="#ff0000" points="11.9816,-55.5 11.9816,-73.5 79.6613,-73.5 79.6613,-55.5 11.9816,-55.5"/>
<text text-anchor="middle" x="45.8215" y="-61.5" font-family="Helvetica,sans-Serif" font-size="10.00" fill="#000000">../File/File.h</text>
</a>
</g>
</g>
<!-- Node1&#45;&gt;Node2 -->
<g id="edge2" class="edge">
<title>Node1&#45;&gt;Node2</title>
<path fill="none" stroke="#191970" d="M55.0051,-110.4179C53.5648,-103.2164 51.5007,-92.8962 49.6941,-83.8632"/>
<polygon fill="#191970" stroke="#191970" points="53.0707,-82.8988 47.6774,-73.7795 46.2066,-84.2717 53.0707,-82.8988"/>
</g>
<!-- Node6 -->
<g id="node4" class="node">
<title>Node6</title>
<polygon fill="none" stroke="#bfbfbf" points="2.7009,-.5 2.7009,-18.5 50.9421,-18.5 50.9421,-.5 2.7009,-.5"/>
<text text-anchor="middle" x="26.8215" y="-6.5" font-family="Helvetica,sans-Serif" font-size="10.00" fill="#000000">stdint.h</text>
</g>
<!-- Node1&#45;&gt;Node6 -->
<g id="edge5" class="edge">
<title>Node1&#45;&gt;Node6</title>
<path fill="none" stroke="#191970" d="M39.3966,-110.3464C26.6459,-102.5746 10.3174,-90.1181 2.8215,-74 -4.3834,-58.5078 3.9496,-40.1975 12.7098,-27.0515"/>
<polygon fill="#191970" stroke="#191970" points="15.6062,-29.0196 18.6572,-18.8736 9.945,-24.9025 15.6062,-29.0196"/>
</g>
<!-- Node7 -->
<g id="node5" class="node">
<title>Node7</title>
<g id="a_node5"><a xlink:href="_nolimits_8h.html" target="_top" xlink:title="../Nolimits.h">
<polygon fill="none" stroke="#ff0000" points="92.7058,-.5 92.7058,-18.5 160.9372,-18.5 160.9372,-.5 92.7058,-.5"/>
<text text-anchor="middle" x="126.8215" y="-6.5" font-family="Helvetica,sans-Serif" font-size="10.00" fill="#000000">../Nolimits.h</text>
</a>
</g>
</g>
<!-- Node1&#45;&gt;Node7 -->
<g id="edge6" class="edge">
<title>Node1&#45;&gt;Node7</title>
<path fill="none" stroke="#191970" d="M63.6645,-110.2396C70.3017,-101.1504 80.5533,-86.8241 88.8215,-74 98.6988,-58.6801 109.1589,-40.7872 116.5986,-27.7386"/>
<polygon fill="#191970" stroke="#191970" points="119.7622,-29.2546 121.6394,-18.8274 113.6694,-25.8081 119.7622,-29.2546"/>
</g>
<!-- Node2&#45;&gt;Node6 -->
<g id="edge3" class="edge">
<title>Node2&#45;&gt;Node6</title>
<path fill="none" stroke="#191970" d="M42.684,-55.4179C40.1416,-48.0581 36.4738,-37.441 33.3055,-28.2695"/>
<polygon fill="#191970" stroke="#191970" points="36.6006,-27.0885 30.0271,-18.7795 29.9842,-29.3742 36.6006,-27.0885"/>
</g>
<!-- Node2&#45;&gt;Node7 -->
<g id="edge4" class="edge">
<title>Node2&#45;&gt;Node7</title>
<path fill="none" stroke="#191970" d="M59.197,-55.4179C71.6255,-46.9788 90.3612,-34.257 104.9624,-24.3426"/>
<polygon fill="#191970" stroke="#191970" points="107.1192,-27.1088 113.4261,-18.5956 103.1869,-21.3176 107.1192,-27.1088"/>
</g>
<!-- Node16&#45;&gt;Node1 -->
<g id="edge8" class="edge">
<title>Node16&#45;&gt;Node1</title>
<path fill="none" stroke="#191970" d="M56.8215,-165.4179C56.8215,-158.2164 56.8215,-147.8962 56.8215,-138.8632"/>
<polygon fill="#191970" stroke="#191970" points="60.3216,-138.7794 56.8215,-128.7795 53.3216,-138.7795 60.3216,-138.7794"/>
</g>
<!-- Node17&#45;&gt;Node1 -->
<g id="edge11" class="edge">
<title>Node17&#45;&gt;Node1</title>
<path fill="none" stroke="#191970" d="M114.4275,-165.4179C104.1023,-157.1876 88.6667,-144.8839 76.3718,-135.0836"/>
<polygon fill="#191970" stroke="#191970" points="78.4643,-132.2757 68.463,-128.7795 74.1011,-137.7495 78.4643,-132.2757"/>
</g>
<!-- Node17&#45;&gt;Node7 -->
<g id="edge10" class="edge">
<title>Node17&#45;&gt;Node7</title>
<path fill="none" stroke="#191970" d="M125.8781,-165.1561C126.0369,-138.9504 126.489,-64.3557 126.7045,-28.8021"/>
<polygon fill="#191970" stroke="#191970" points="130.2047,-28.7625 126.7655,-18.7414 123.2048,-28.72 130.2047,-28.7625"/>
</g>
<!-- Node18&#45;&gt;Node1 -->
<g id="edge15" class="edge">
<title>Node18&#45;&gt;Node1</title>
<path fill="none" stroke="#191970" d="M170.3639,-165.4179C148.1182,-156.4215 113.8378,-142.5581 88.7621,-132.4172"/>
<polygon fill="#191970" stroke="#191970" points="89.8953,-129.1001 79.3125,-128.5956 87.2709,-135.5895 89.8953,-129.1001"/>
</g>
<!-- Node18&#45;&gt;Node7 -->
<g id="edge13" class="edge">
<title>Node18&#45;&gt;Node7</title>
<path fill="none" stroke="#191970" d="M189.0839,-165.1561C178.5563,-138.837 148.5051,-63.709 134.3585,-28.3426"/>
<polygon fill="#191970" stroke="#191970" points="137.4817,-26.7263 130.518,-18.7414 130.9823,-29.3261 137.4817,-26.7263"/>
</g>
<!-- Node13 -->
<g id="node9" class="node">
<title>Node13</title>
<polygon fill="none" stroke="#bfbfbf" points="211.5949,-110.5 211.5949,-128.5 252.048,-128.5 252.048,-110.5 211.5949,-110.5"/>
<text text-anchor="middle" x="231.8215" y="-116.5" font-family="Helvetica,sans-Serif" font-size="10.00" fill="#000000">string</text>
</g>
<!-- Node18&#45;&gt;Node13 -->
<g id="edge14" class="edge">
<title>Node18&#45;&gt;Node13</title>
<path fill="none" stroke="#191970" d="M199.2615,-165.4179C204.7048,-157.7415 212.6606,-146.5217 219.3454,-137.0945"/>
<polygon fill="#191970" stroke="#191970" points="222.3123,-138.9613 225.2415,-128.7795 216.6021,-134.9123 222.3123,-138.9613"/>
</g>
</g>
</svg>
