<?xml version="1.0" encoding="UTF-8" standalone="no"?>
<!DOCTYPE svg PUBLIC "-//W3C//DTD SVG 1.1//EN"
 "http://www.w3.org/Graphics/SVG/1.1/DTD/svg11.dtd">
<!-- Generated by graphviz version 2.40.1 (20161225.0304)
 -->
<!-- Title: libnolimits/NL2/Info/Info.h Pages: 1 -->
<svg width="245pt" height="157pt"
 viewBox="0.00 0.00 244.87 157.00" xmlns="http://www.w3.org/2000/svg" xmlns:xlink="http://www.w3.org/1999/xlink">
<g id="graph0" class="graph" transform="scale(1 1) rotate(0) translate(4 153)">
<title>libnolimits/NL2/Info/Info.h</title>
<!-- Node19 -->
<g id="node1" class="node">
<title>Node19</title>
<polygon fill="#bfbfbf" stroke="#000000" points="62,-120.5 62,-148.5 162.4824,-148.5 162.4824,-120.5 62,-120.5"/>
<text text-anchor="start" x="70" y="-136.5" font-family="Helvetica,sans-Serif" font-size="10.00" fill="#000000">libnolimits/NL2/Info</text>
<text text-anchor="middle" x="112.2412" y="-126.5" font-family="Helvetica,sans-Serif" font-size="10.00" fill="#000000">/Info.h</text>
</g>
<!-- Node20 -->
<g id="node2" class="node">
<title>Node20</title>
<g id="a_node2"><a xlink:href="_info_8cpp.html" target="_top" xlink:title="libnolimits/NL2/Info\l/Info.cpp">
<polygon fill="none" stroke="#000000" points="0,-55.5 0,-83.5 100.4824,-83.5 100.4824,-55.5 0,-55.5"/>
<text text-anchor="start" x="8" y="-71.5" font-family="Helvetica,sans-Serif" font-size="10.00" fill="#000000">libnolimits/NL2/Info</text>
<text text-anchor="middle" x="50.2412" y="-61.5" font-family="Helvetica,sans-Serif" font-size="10.00" fill="#000000">/Info.cpp</text>
</a>
</g>
</g>
<!-- Node19&#45;&gt;Node20 -->
<g id="edge1" class="edge">
<title>Node19&#45;&gt;Node20</title>
<path fill="none" stroke="#191970" d="M91.7567,-113.0243C82.5192,-103.3398 71.8686,-92.1739 63.668,-83.5765"/>
<polygon fill="#191970" stroke="#191970" points="89.3534,-115.5756 98.7881,-120.396 94.4186,-110.7441 89.3534,-115.5756"/>
</g>
<!-- Node21 -->
<g id="node3" class="node">
<title>Node21</title>
<g id="a_node3"><a xlink:href="_park_8h.html" target="_top" xlink:title="libnolimits/NL2/Park.h">
<polygon fill="none" stroke="#000000" points="118.8892,-60.5 118.8892,-78.5 231.5933,-78.5 231.5933,-60.5 118.8892,-60.5"/>
<text text-anchor="middle" x="175.2412" y="-66.5" font-family="Helvetica,sans-Serif" font-size="10.00" fill="#000000">libnolimits/NL2/Park.h</text>
</a>
</g>
</g>
<!-- Node19&#45;&gt;Node21 -->
<g id="edge2" class="edge">
<title>Node19&#45;&gt;Node21</title>
<path fill="none" stroke="#191970" d="M132.9951,-113.0873C144.3498,-101.3721 157.821,-87.4732 166.4461,-78.5743"/>
<polygon fill="#191970" stroke="#191970" points="130.3578,-110.7793 125.9113,-120.396 135.3843,-115.6512 130.3578,-110.7793"/>
</g>
<!-- Node22 -->
<g id="node4" class="node">
<title>Node22</title>
<g id="a_node4"><a xlink:href="_park_8cpp.html" target="_top" xlink:title="libnolimits/NL2/Park.cpp">
<polygon fill="none" stroke="#000000" points="113.6084,-.5 113.6084,-18.5 236.874,-18.5 236.874,-.5 113.6084,-.5"/>
<text text-anchor="middle" x="175.2412" y="-6.5" font-family="Helvetica,sans-Serif" font-size="10.00" fill="#000000">libnolimits/NL2/Park.cpp</text>
</a>
</g>
</g>
<!-- Node21&#45;&gt;Node22 -->
<g id="edge3" class="edge">
<title>Node21&#45;&gt;Node22</title>
<path fill="none" stroke="#191970" d="M175.2412,-50.3734C175.2412,-39.7812 175.2412,-27.0976 175.2412,-18.6985"/>
<polygon fill="#191970" stroke="#191970" points="171.7413,-50.3873 175.2412,-60.3873 178.7413,-50.3873 171.7413,-50.3873"/>
</g>
</g>
</svg>
