<?xml version="1.0" encoding="UTF-8" standalone="no"?>
<!DOCTYPE svg PUBLIC "-//W3C//DTD SVG 1.1//EN"
 "http://www.w3.org/Graphics/SVG/1.1/DTD/svg11.dtd">
<!-- Generated by graphviz version 2.40.1 (20161225.0304)
 -->
<!-- Title: libnolimits/NL2/Info/Info.cpp Pages: 1 -->
<svg width="397pt" height="202pt"
 viewBox="0.00 0.00 397.00 202.00" xmlns="http://www.w3.org/2000/svg" xmlns:xlink="http://www.w3.org/1999/xlink">
<g id="graph0" class="graph" transform="scale(1 1) rotate(0) translate(4 198)">
<title>libnolimits/NL2/Info/Info.cpp</title>
<!-- Node0 -->
<g id="node1" class="node">
<title>Node0</title>
<polygon fill="#bfbfbf" stroke="#000000" points="213.9754,-165.5 213.9754,-193.5 314.4578,-193.5 314.4578,-165.5 213.9754,-165.5"/>
<text text-anchor="start" x="221.9754" y="-181.5" font-family="Helvetica,sans-Serif" font-size="10.00" fill="#000000">libnolimits/NL2/Info</text>
<text text-anchor="middle" x="264.2166" y="-171.5" font-family="Helvetica,sans-Serif" font-size="10.00" fill="#000000">/Info.cpp</text>
</g>
<!-- Node1 -->
<g id="node2" class="node">
<title>Node1</title>
<g id="a_node2"><a xlink:href="_info_8h.html" target="_top" xlink:title="Info.h">
<polygon fill="none" stroke="#000000" points="92.7068,-110.5 92.7068,-128.5 133.7263,-128.5 133.7263,-110.5 92.7068,-110.5"/>
<text text-anchor="middle" x="113.2166" y="-116.5" font-family="Helvetica,sans-Serif" font-size="10.00" fill="#000000">Info.h</text>
</a>
</g>
</g>
<!-- Node0&#45;&gt;Node1 -->
<g id="edge1" class="edge">
<title>Node0&#45;&gt;Node1</title>
<path fill="none" stroke="#191970" d="M228.8138,-165.4327C202.9182,-155.143 168.1568,-141.3306 143.5356,-131.5473"/>
<polygon fill="#191970" stroke="#191970" points="144.5717,-128.1928 133.986,-127.7527 141.9867,-134.6981 144.5717,-128.1928"/>
</g>
<!-- Node14 -->
<g id="node7" class="node">
<title>Node14</title>
<polygon fill="none" stroke="#bfbfbf" points="182.99,-.5 182.99,-18.5 223.4431,-18.5 223.4431,-.5 182.99,-.5"/>
<text text-anchor="middle" x="203.2166" y="-6.5" font-family="Helvetica,sans-Serif" font-size="10.00" fill="#000000">string</text>
</g>
<!-- Node0&#45;&gt;Node14 -->
<g id="edge11" class="edge">
<title>Node0&#45;&gt;Node14</title>
<path fill="none" stroke="#191970" d="M259.1207,-165.2983C248.1654,-134.7672 222.3667,-62.8692 210.0255,-28.4756"/>
<polygon fill="#191970" stroke="#191970" points="213.1991,-26.9569 206.5273,-18.7266 206.6104,-29.3212 213.1991,-26.9569"/>
</g>
<!-- Node11 -->
<g id="node8" class="node">
<title>Node11</title>
<polygon fill="none" stroke="#bfbfbf" points="265.0442,-110.5 265.0442,-128.5 319.3889,-128.5 319.3889,-110.5 265.0442,-110.5"/>
<text text-anchor="middle" x="292.2166" y="-116.5" font-family="Helvetica,sans-Serif" font-size="10.00" fill="#000000">iostream</text>
</g>
<!-- Node0&#45;&gt;Node11 -->
<g id="edge10" class="edge">
<title>Node0&#45;&gt;Node11</title>
<path fill="none" stroke="#191970" d="M270.8522,-165.2808C274.7061,-157.0224 279.601,-146.5335 283.7327,-137.6796"/>
<polygon fill="#191970" stroke="#191970" points="286.92,-139.1261 287.9773,-128.5842 280.5767,-136.1659 286.92,-139.1261"/>
</g>
<!-- Node20 -->
<g id="node9" class="node">
<title>Node20</title>
<polygon fill="none" stroke="#bfbfbf" points="337.4358,-110.5 337.4358,-128.5 388.9973,-128.5 388.9973,-110.5 337.4358,-110.5"/>
<text text-anchor="middle" x="363.2166" y="-116.5" font-family="Helvetica,sans-Serif" font-size="10.00" fill="#000000">sstream</text>
</g>
<!-- Node0&#45;&gt;Node20 -->
<g id="edge12" class="edge">
<title>Node0&#45;&gt;Node20</title>
<path fill="none" stroke="#191970" d="M287.4277,-165.4327C303.0978,-155.9356 323.7196,-143.4376 339.4956,-133.8763"/>
<polygon fill="#191970" stroke="#191970" points="341.4124,-136.8073 348.1503,-128.6311 337.7843,-130.8209 341.4124,-136.8073"/>
</g>
<!-- Node2 -->
<g id="node3" class="node">
<title>Node2</title>
<g id="a_node3"><a xlink:href="_chunk_8h.html" target="_top" xlink:title="../../Stream/Chunk.h">
<polygon fill="none" stroke="#ff0000" points="37.7537,-.5 37.7537,-18.5 142.6795,-18.5 142.6795,-.5 37.7537,-.5"/>
<text text-anchor="middle" x="90.2166" y="-6.5" font-family="Helvetica,sans-Serif" font-size="10.00" fill="#000000">../../Stream/Chunk.h</text>
</a>
</g>
</g>
<!-- Node1&#45;&gt;Node2 -->
<g id="edge2" class="edge">
<title>Node1&#45;&gt;Node2</title>
<path fill="none" stroke="#191970" d="M92.4754,-117.5633C66.7487,-113.9234 23.8853,-103.5239 4.2166,-74 -11.0762,-51.0447 19.9519,-33.0968 48.9142,-22.0256"/>
<polygon fill="#191970" stroke="#191970" points="50.3675,-25.2222 58.5871,-18.5373 47.9927,-18.6373 50.3675,-25.2222"/>
</g>
<!-- Node17 -->
<g id="node4" class="node">
<title>Node17</title>
<g id="a_node4"><a xlink:href="_weather_8h.html" target="_top" xlink:title="Weather.h">
<polygon fill="none" stroke="#000000" points="13.5115,-55.5 13.5115,-73.5 74.9217,-73.5 74.9217,-55.5 13.5115,-55.5"/>
<text text-anchor="middle" x="44.2166" y="-61.5" font-family="Helvetica,sans-Serif" font-size="10.00" fill="#000000">Weather.h</text>
</a>
</g>
</g>
<!-- Node1&#45;&gt;Node17 -->
<g id="edge3" class="edge">
<title>Node1&#45;&gt;Node17</title>
<path fill="none" stroke="#191970" d="M101.8226,-110.4179C91.4974,-102.1876 76.0618,-89.8839 63.7668,-80.0836"/>
<polygon fill="#191970" stroke="#191970" points="65.8594,-77.2757 55.8581,-73.7795 61.4962,-82.7495 65.8594,-77.2757"/>
</g>
<!-- Node18 -->
<g id="node5" class="node">
<title>Node18</title>
<g id="a_node5"><a xlink:href="_sky_8h.html" target="_top" xlink:title="Sky.h">
<polygon fill="none" stroke="#ff0000" points="93.0803,-55.5 93.0803,-73.5 133.3528,-73.5 133.3528,-55.5 93.0803,-55.5"/>
<text text-anchor="middle" x="113.2166" y="-61.5" font-family="Helvetica,sans-Serif" font-size="10.00" fill="#000000">Sky.h</text>
</a>
</g>
</g>
<!-- Node1&#45;&gt;Node18 -->
<g id="edge5" class="edge">
<title>Node1&#45;&gt;Node18</title>
<path fill="none" stroke="#191970" d="M113.2166,-110.4179C113.2166,-103.2164 113.2166,-92.8962 113.2166,-83.8632"/>
<polygon fill="#191970" stroke="#191970" points="116.7167,-83.7794 113.2166,-73.7795 109.7167,-83.7795 116.7167,-83.7794"/>
</g>
<!-- Node19 -->
<g id="node6" class="node">
<title>Node19</title>
<g id="a_node6"><a xlink:href="_version_8h.html" target="_top" xlink:title="Version.h">
<polygon fill="none" stroke="#ff0000" points="151.367,-55.5 151.367,-73.5 209.0662,-73.5 209.0662,-55.5 151.367,-55.5"/>
<text text-anchor="middle" x="180.2166" y="-61.5" font-family="Helvetica,sans-Serif" font-size="10.00" fill="#000000">Version.h</text>
</a>
</g>
</g>
<!-- Node1&#45;&gt;Node19 -->
<g id="edge7" class="edge">
<title>Node1&#45;&gt;Node19</title>
<path fill="none" stroke="#191970" d="M124.2803,-110.4179C134.2099,-102.2667 149.0066,-90.1201 160.8878,-80.3669"/>
<polygon fill="#191970" stroke="#191970" points="163.4039,-82.8297 168.9125,-73.7795 158.9625,-77.4192 163.4039,-82.8297"/>
</g>
<!-- Node17&#45;&gt;Node2 -->
<g id="edge4" class="edge">
<title>Node17&#45;&gt;Node2</title>
<path fill="none" stroke="#191970" d="M51.8125,-55.4179C58.3651,-47.5833 68.0048,-36.0575 75.9869,-26.5137"/>
<polygon fill="#191970" stroke="#191970" points="78.7248,-28.6957 82.4556,-18.7795 73.3552,-24.2048 78.7248,-28.6957"/>
</g>
<!-- Node18&#45;&gt;Node2 -->
<g id="edge6" class="edge">
<title>Node18&#45;&gt;Node2</title>
<path fill="none" stroke="#191970" d="M109.4186,-55.4179C106.3409,-48.0581 101.901,-37.441 98.0656,-28.2695"/>
<polygon fill="#191970" stroke="#191970" points="101.1842,-26.6549 94.0971,-18.7795 94.7262,-29.3556 101.1842,-26.6549"/>
</g>
<!-- Node19&#45;&gt;Node2 -->
<g id="edge9" class="edge">
<title>Node19&#45;&gt;Node2</title>
<path fill="none" stroke="#191970" d="M165.3549,-55.4179C151.4152,-46.8992 130.3346,-34.0166 114.0465,-24.0627"/>
<polygon fill="#191970" stroke="#191970" points="115.4582,-20.8237 105.1003,-18.5956 111.8081,-26.7967 115.4582,-20.8237"/>
</g>
<!-- Node19&#45;&gt;Node14 -->
<g id="edge8" class="edge">
<title>Node19&#45;&gt;Node14</title>
<path fill="none" stroke="#191970" d="M184.0146,-55.4179C187.0923,-48.0581 191.5321,-37.441 195.3675,-28.2695"/>
<polygon fill="#191970" stroke="#191970" points="198.707,-29.3556 199.3361,-18.7795 192.2489,-26.6549 198.707,-29.3556"/>
</g>
</g>
</svg>
