<?xml version="1.0" encoding="UTF-8" standalone="no"?>
<!DOCTYPE svg PUBLIC "-//W3C//DTD SVG 1.1//EN"
 "http://www.w3.org/Graphics/SVG/1.1/DTD/svg11.dtd">
<!-- Generated by graphviz version 2.40.1 (20161225.0304)
 -->
<!-- Title: libnolimits/NL2/Terrain/Layer.cpp Pages: 1 -->
<svg width="439pt" height="202pt"
 viewBox="0.00 0.00 439.17 202.00" xmlns="http://www.w3.org/2000/svg" xmlns:xlink="http://www.w3.org/1999/xlink">
<g id="graph0" class="graph" transform="scale(1 1) rotate(0) translate(4 198)">
<title>libnolimits/NL2/Terrain/Layer.cpp</title>
<!-- Node0 -->
<g id="node1" class="node">
<title>Node0</title>
<polygon fill="#bfbfbf" stroke="#000000" points="147.7916,-165.5 147.7916,-193.5 262.1608,-193.5 262.1608,-165.5 147.7916,-165.5"/>
<text text-anchor="start" x="155.7916" y="-181.5" font-family="Helvetica,sans-Serif" font-size="10.00" fill="#000000">libnolimits/NL2/Terrain</text>
<text text-anchor="middle" x="204.9762" y="-171.5" font-family="Helvetica,sans-Serif" font-size="10.00" fill="#000000">/Layer.cpp</text>
</g>
<!-- Node1 -->
<g id="node2" class="node">
<title>Node1</title>
<g id="a_node2"><a xlink:href="_layer_8h.html" target="_top" xlink:title="Layer.h">
<polygon fill="none" stroke="#000000" points="180.5724,-110.5 180.5724,-128.5 229.38,-128.5 229.38,-110.5 180.5724,-110.5"/>
<text text-anchor="middle" x="204.9762" y="-116.5" font-family="Helvetica,sans-Serif" font-size="10.00" fill="#000000">Layer.h</text>
</a>
</g>
</g>
<!-- Node0&#45;&gt;Node1 -->
<g id="edge1" class="edge">
<title>Node0&#45;&gt;Node1</title>
<path fill="none" stroke="#191970" d="M204.9762,-165.2808C204.9762,-157.3776 204.9762,-147.4316 204.9762,-138.8308"/>
<polygon fill="#191970" stroke="#191970" points="208.4763,-138.5842 204.9762,-128.5842 201.4763,-138.5842 208.4763,-138.5842"/>
</g>
<!-- Node2 -->
<g id="node3" class="node">
<title>Node2</title>
<polygon fill="none" stroke="#bfbfbf" points="98.7496,-.5 98.7496,-18.5 139.2028,-18.5 139.2028,-.5 98.7496,-.5"/>
<text text-anchor="middle" x="118.9762" y="-6.5" font-family="Helvetica,sans-Serif" font-size="10.00" fill="#000000">string</text>
</g>
<!-- Node1&#45;&gt;Node2 -->
<g id="edge2" class="edge">
<title>Node1&#45;&gt;Node2</title>
<path fill="none" stroke="#191970" d="M180.5046,-117.6163C132.2386,-113.3391 27.5705,-101.0889 5.9762,-74 -19.4657,-42.0844 47.2997,-23.0896 88.7851,-14.6758"/>
<polygon fill="#191970" stroke="#191970" points="89.5584,-18.0912 98.716,-12.7632 88.2345,-11.2176 89.5584,-18.0912"/>
</g>
<!-- Node3 -->
<g id="node4" class="node">
<title>Node3</title>
<g id="a_node4"><a xlink:href="_base_map_8h.html" target="_top" xlink:title="BaseMap.h">
<polygon fill="none" stroke="#000000" points="85.6832,-55.5 85.6832,-73.5 152.2692,-73.5 152.2692,-55.5 85.6832,-55.5"/>
<text text-anchor="middle" x="118.9762" y="-61.5" font-family="Helvetica,sans-Serif" font-size="10.00" fill="#000000">BaseMap.h</text>
</a>
</g>
</g>
<!-- Node1&#45;&gt;Node3 -->
<g id="edge3" class="edge">
<title>Node1&#45;&gt;Node3</title>
<path fill="none" stroke="#191970" d="M190.7751,-110.4179C177.4549,-101.8992 157.3112,-89.0166 141.747,-79.0627"/>
<polygon fill="#191970" stroke="#191970" points="143.5087,-76.0348 133.1985,-73.5956 139.7372,-81.932 143.5087,-76.0348"/>
</g>
<!-- Node4 -->
<g id="node5" class="node">
<title>Node4</title>
<g id="a_node5"><a xlink:href="_chunk_8h.html" target="_top" xlink:title="../../Stream/Chunk.h">
<polygon fill="none" stroke="#ff0000" points="198.5133,-.5 198.5133,-18.5 303.4391,-18.5 303.4391,-.5 198.5133,-.5"/>
<text text-anchor="middle" x="250.9762" y="-6.5" font-family="Helvetica,sans-Serif" font-size="10.00" fill="#000000">../../Stream/Chunk.h</text>
</a>
</g>
</g>
<!-- Node1&#45;&gt;Node4 -->
<g id="edge17" class="edge">
<title>Node1&#45;&gt;Node4</title>
<path fill="none" stroke="#191970" d="M229.7581,-118.1255C281.6278,-114.677 398.8336,-103.7018 422.9762,-74 456.084,-33.2687 375.5251,-18.2505 313.7716,-12.7186"/>
<polygon fill="#191970" stroke="#191970" points="313.9108,-9.2182 303.6558,-11.8801 313.3325,-16.1943 313.9108,-9.2182"/>
</g>
<!-- Node18 -->
<g id="node6" class="node">
<title>Node18</title>
<g id="a_node6"><a xlink:href="_detail_map_8h.html" target="_top" xlink:title="DetailMap.h">
<polygon fill="none" stroke="#000000" points="170.2965,-55.5 170.2965,-73.5 239.6559,-73.5 239.6559,-55.5 170.2965,-55.5"/>
<text text-anchor="middle" x="204.9762" y="-61.5" font-family="Helvetica,sans-Serif" font-size="10.00" fill="#000000">DetailMap.h</text>
</a>
</g>
</g>
<!-- Node1&#45;&gt;Node18 -->
<g id="edge6" class="edge">
<title>Node1&#45;&gt;Node18</title>
<path fill="none" stroke="#191970" d="M204.9762,-110.4179C204.9762,-103.2164 204.9762,-92.8962 204.9762,-83.8632"/>
<polygon fill="#191970" stroke="#191970" points="208.4763,-83.7794 204.9762,-73.7795 201.4763,-83.7795 208.4763,-83.7794"/>
</g>
<!-- Node19 -->
<g id="node7" class="node">
<title>Node19</title>
<g id="a_node7"><a xlink:href="_bump_map_8h.html" target="_top" xlink:title="BumpMap.h">
<polygon fill="none" stroke="#ff0000" points="258.0182,-55.5 258.0182,-73.5 327.9342,-73.5 327.9342,-55.5 258.0182,-55.5"/>
<text text-anchor="middle" x="292.9762" y="-61.5" font-family="Helvetica,sans-Serif" font-size="10.00" fill="#000000">BumpMap.h</text>
</a>
</g>
</g>
<!-- Node1&#45;&gt;Node19 -->
<g id="edge9" class="edge">
<title>Node1&#45;&gt;Node19</title>
<path fill="none" stroke="#191970" d="M219.5076,-110.4179C233.1376,-101.8992 253.7497,-89.0166 269.6758,-79.0627"/>
<polygon fill="#191970" stroke="#191970" points="271.7982,-81.8637 278.4232,-73.5956 268.0882,-75.9277 271.7982,-81.8637"/>
</g>
<!-- Node21 -->
<g id="node8" class="node">
<title>Node21</title>
<g id="a_node8"><a xlink:href="_auto_paint_8h.html" target="_top" xlink:title="AutoPaint.h">
<polygon fill="none" stroke="#000000" points="346.1242,-55.5 346.1242,-73.5 413.8283,-73.5 413.8283,-55.5 346.1242,-55.5"/>
<text text-anchor="middle" x="379.9762" y="-61.5" font-family="Helvetica,sans-Serif" font-size="10.00" fill="#000000">AutoPaint.h</text>
</a>
</g>
</g>
<!-- Node1&#45;&gt;Node21 -->
<g id="edge12" class="edge">
<title>Node1&#45;&gt;Node21</title>
<path fill="none" stroke="#191970" d="M229.6783,-111.7365C258.8339,-102.5733 307.65,-87.2311 341.7104,-76.5264"/>
<polygon fill="#191970" stroke="#191970" points="342.842,-79.8396 351.3326,-73.5023 340.7432,-73.1616 342.842,-79.8396"/>
</g>
<!-- Node22 -->
<g id="node9" class="node">
<title>Node22</title>
<g id="a_node9"><a xlink:href="_extras_8h.html" target="_top" xlink:title="Extras.h">
<polygon fill="none" stroke="#000000" points="14.6364,-55.5 14.6364,-73.5 67.316,-73.5 67.316,-55.5 14.6364,-55.5"/>
<text text-anchor="middle" x="40.9762" y="-61.5" font-family="Helvetica,sans-Serif" font-size="10.00" fill="#000000">Extras.h</text>
</a>
</g>
</g>
<!-- Node1&#45;&gt;Node22 -->
<g id="edge14" class="edge">
<title>Node1&#45;&gt;Node22</title>
<path fill="none" stroke="#191970" d="M180.4237,-111.2659C153.0095,-102.0721 108.3797,-87.1048 77.0092,-76.5842"/>
<polygon fill="#191970" stroke="#191970" points="77.9224,-73.199 67.3285,-73.3377 75.6966,-79.8357 77.9224,-73.199"/>
</g>
<!-- Node3&#45;&gt;Node2 -->
<g id="edge4" class="edge">
<title>Node3&#45;&gt;Node2</title>
<path fill="none" stroke="#191970" d="M118.9762,-55.4179C118.9762,-48.2164 118.9762,-37.8962 118.9762,-28.8632"/>
<polygon fill="#191970" stroke="#191970" points="122.4763,-28.7794 118.9762,-18.7795 115.4763,-28.7795 122.4763,-28.7794"/>
</g>
<!-- Node3&#45;&gt;Node4 -->
<g id="edge5" class="edge">
<title>Node3&#45;&gt;Node4</title>
<path fill="none" stroke="#191970" d="M140.7733,-55.4179C162.2692,-46.4613 195.3426,-32.6806 219.6514,-22.552"/>
<polygon fill="#191970" stroke="#191970" points="221.2621,-25.6726 229.1467,-18.5956 218.5698,-19.2111 221.2621,-25.6726"/>
</g>
<!-- Node18&#45;&gt;Node2 -->
<g id="edge7" class="edge">
<title>Node18&#45;&gt;Node2</title>
<path fill="none" stroke="#191970" d="M190.7751,-55.4179C177.4549,-46.8992 157.3112,-34.0166 141.747,-24.0627"/>
<polygon fill="#191970" stroke="#191970" points="143.5087,-21.0348 133.1985,-18.5956 139.7372,-26.932 143.5087,-21.0348"/>
</g>
<!-- Node18&#45;&gt;Node4 -->
<g id="edge8" class="edge">
<title>Node18&#45;&gt;Node4</title>
<path fill="none" stroke="#191970" d="M212.5722,-55.4179C219.1248,-47.5833 228.7645,-36.0575 236.7466,-26.5137"/>
<polygon fill="#191970" stroke="#191970" points="239.4844,-28.6957 243.2152,-18.7795 234.1148,-24.2048 239.4844,-28.6957"/>
</g>
<!-- Node19&#45;&gt;Node2 -->
<g id="edge10" class="edge">
<title>Node19&#45;&gt;Node2</title>
<path fill="none" stroke="#191970" d="M264.2436,-55.4179C232.4526,-45.369 181.4505,-29.2476 149.1085,-19.0246"/>
<polygon fill="#191970" stroke="#191970" points="149.9014,-15.6046 139.3115,-15.9278 147.7916,-22.2791 149.9014,-15.6046"/>
</g>
<!-- Node19&#45;&gt;Node4 -->
<g id="edge11" class="edge">
<title>Node19&#45;&gt;Node4</title>
<path fill="none" stroke="#191970" d="M286.0408,-55.4179C280.1184,-47.6624 271.434,-36.29 264.1898,-26.8035"/>
<polygon fill="#191970" stroke="#191970" points="266.9132,-24.6029 258.0623,-18.7795 261.3498,-28.8514 266.9132,-24.6029"/>
</g>
<!-- Node21&#45;&gt;Node4 -->
<g id="edge13" class="edge">
<title>Node21&#45;&gt;Node4</title>
<path fill="none" stroke="#191970" d="M358.6745,-55.4179C337.6672,-46.4613 305.3454,-32.6806 281.5891,-22.552"/>
<polygon fill="#191970" stroke="#191970" points="282.8811,-19.2981 272.3096,-18.5956 280.1357,-25.7372 282.8811,-19.2981"/>
</g>
<!-- Node22&#45;&gt;Node2 -->
<g id="edge15" class="edge">
<title>Node22&#45;&gt;Node2</title>
<path fill="none" stroke="#191970" d="M53.8563,-55.4179C65.7116,-47.0584 83.5264,-34.4966 97.5278,-24.6239"/>
<polygon fill="#191970" stroke="#191970" points="99.9213,-27.2188 106.077,-18.5956 95.8874,-21.498 99.9213,-27.2188"/>
</g>
<!-- Node22&#45;&gt;Node4 -->
<g id="edge16" class="edge">
<title>Node22&#45;&gt;Node4</title>
<path fill="none" stroke="#191970" d="M67.3205,-57.5408C70.5721,-56.6839 73.8503,-55.8212 76.9762,-55 120.9542,-43.4474 171.2029,-30.3149 206.3574,-21.1382"/>
<polygon fill="#191970" stroke="#191970" points="207.5142,-24.4536 216.3062,-18.5416 205.7464,-17.6805 207.5142,-24.4536"/>
</g>
</g>
</svg>
