<?xml version="1.0" encoding="UTF-8" standalone="no"?>
<!DOCTYPE svg PUBLIC "-//W3C//DTD SVG 1.1//EN"
 "http://www.w3.org/Graphics/SVG/1.1/DTD/svg11.dtd">
<!-- Generated by graphviz version 2.40.1 (20161225.0304)
 -->
<!-- Title: libnolimits/NL2/Terrain/Layer.h Pages: 1 -->
<svg width="459pt" height="147pt"
 viewBox="0.00 0.00 459.01 147.00" xmlns="http://www.w3.org/2000/svg" xmlns:xlink="http://www.w3.org/1999/xlink">
<g id="graph0" class="graph" transform="scale(1 1) rotate(0) translate(4 143)">
<title>libnolimits/NL2/Terrain/Layer.h</title>
<!-- Node0 -->
<g id="node1" class="node">
<title>Node0</title>
<polygon fill="#bfbfbf" stroke="#000000" points="155.9695,-110.5 155.9695,-138.5 270.3387,-138.5 270.3387,-110.5 155.9695,-110.5"/>
<text text-anchor="start" x="163.9695" y="-126.5" font-family="Helvetica,sans-Serif" font-size="10.00" fill="#000000">libnolimits/NL2/Terrain</text>
<text text-anchor="middle" x="213.1541" y="-116.5" font-family="Helvetica,sans-Serif" font-size="10.00" fill="#000000">/Layer.h</text>
</g>
<!-- Node1 -->
<g id="node2" class="node">
<title>Node1</title>
<polygon fill="none" stroke="#bfbfbf" points="107.9275,-.5 107.9275,-18.5 148.3807,-18.5 148.3807,-.5 107.9275,-.5"/>
<text text-anchor="middle" x="128.1541" y="-6.5" font-family="Helvetica,sans-Serif" font-size="10.00" fill="#000000">string</text>
</g>
<!-- Node0&#45;&gt;Node1 -->
<g id="edge1" class="edge">
<title>Node0&#45;&gt;Node1</title>
<path fill="none" stroke="#191970" d="M155.8808,-118.4069C101.1996,-111.2686 24.4895,-97.3463 6.1541,-74 -20.9714,-39.4614 53.2986,-21.315 97.6663,-13.7941"/>
<polygon fill="#191970" stroke="#191970" points="98.3727,-17.2257 107.6928,-12.1872 97.2649,-10.3139 98.3727,-17.2257"/>
</g>
<!-- Node2 -->
<g id="node3" class="node">
<title>Node2</title>
<g id="a_node3"><a xlink:href="_base_map_8h.html" target="_top" xlink:title="BaseMap.h">
<polygon fill="none" stroke="#000000" points="14.8611,-55.5 14.8611,-73.5 81.4471,-73.5 81.4471,-55.5 14.8611,-55.5"/>
<text text-anchor="middle" x="48.1541" y="-61.5" font-family="Helvetica,sans-Serif" font-size="10.00" fill="#000000">BaseMap.h</text>
</a>
</g>
</g>
<!-- Node0&#45;&gt;Node2 -->
<g id="edge2" class="edge">
<title>Node0&#45;&gt;Node2</title>
<path fill="none" stroke="#191970" d="M174.4689,-110.4327C146.7655,-100.3587 109.7762,-86.908 82.9903,-77.1677"/>
<polygon fill="#191970" stroke="#191970" points="83.8586,-73.7593 73.2645,-73.6311 81.4663,-80.3378 83.8586,-73.7593"/>
</g>
<!-- Node3 -->
<g id="node4" class="node">
<title>Node3</title>
<g id="a_node4"><a xlink:href="_chunk_8h.html" target="_top" xlink:title="../../Stream/Chunk.h">
<polygon fill="none" stroke="#ff0000" points="166.6912,-.5 166.6912,-18.5 271.617,-18.5 271.617,-.5 166.6912,-.5"/>
<text text-anchor="middle" x="219.1541" y="-6.5" font-family="Helvetica,sans-Serif" font-size="10.00" fill="#000000">../../Stream/Chunk.h</text>
</a>
</g>
</g>
<!-- Node0&#45;&gt;Node3 -->
<g id="edge17" class="edge">
<title>Node0&#45;&gt;Node3</title>
<path fill="none" stroke="#191970" d="M270.5375,-115.4835C295.0488,-108.4798 321.3713,-96.0496 336.1541,-74 354.0578,-47.2954 318.2716,-30.5997 281.6882,-20.9033"/>
<polygon fill="#191970" stroke="#191970" points="282.4484,-17.4859 271.8994,-18.4694 280.7593,-24.279 282.4484,-17.4859"/>
</g>
<!-- Node17 -->
<g id="node5" class="node">
<title>Node17</title>
<g id="a_node5"><a xlink:href="_detail_map_8h.html" target="_top" xlink:title="DetailMap.h">
<polygon fill="none" stroke="#000000" points="99.4744,-55.5 99.4744,-73.5 168.8338,-73.5 168.8338,-55.5 99.4744,-55.5"/>
<text text-anchor="middle" x="134.1541" y="-61.5" font-family="Helvetica,sans-Serif" font-size="10.00" fill="#000000">DetailMap.h</text>
</a>
</g>
</g>
<!-- Node0&#45;&gt;Node17 -->
<g id="edge5" class="edge">
<title>Node0&#45;&gt;Node17</title>
<path fill="none" stroke="#191970" d="M194.4322,-110.2808C182.3893,-101.1344 166.7442,-89.252 154.4111,-79.8851"/>
<polygon fill="#191970" stroke="#191970" points="156.1954,-76.8452 146.1149,-73.5842 151.9616,-82.4198 156.1954,-76.8452"/>
</g>
<!-- Node18 -->
<g id="node6" class="node">
<title>Node18</title>
<g id="a_node6"><a xlink:href="_bump_map_8h.html" target="_top" xlink:title="BumpMap.h">
<polygon fill="none" stroke="#000000" points="257.1961,-55.5 257.1961,-73.5 327.1121,-73.5 327.1121,-55.5 257.1961,-55.5"/>
<text text-anchor="middle" x="292.1541" y="-61.5" font-family="Helvetica,sans-Serif" font-size="10.00" fill="#000000">BumpMap.h</text>
</a>
</g>
</g>
<!-- Node0&#45;&gt;Node18 -->
<g id="edge8" class="edge">
<title>Node0&#45;&gt;Node18</title>
<path fill="none" stroke="#191970" d="M231.876,-110.2808C243.9189,-101.1344 259.564,-89.252 271.8971,-79.8851"/>
<polygon fill="#191970" stroke="#191970" points="274.3466,-82.4198 280.1932,-73.5842 270.1128,-76.8452 274.3466,-82.4198"/>
</g>
<!-- Node20 -->
<g id="node8" class="node">
<title>Node20</title>
<g id="a_node8"><a xlink:href="_auto_paint_8h.html" target="_top" xlink:title="AutoPaint.h">
<polygon fill="none" stroke="#000000" points="383.302,-55.5 383.302,-73.5 451.0061,-73.5 451.0061,-55.5 383.302,-55.5"/>
<text text-anchor="middle" x="417.1541" y="-61.5" font-family="Helvetica,sans-Serif" font-size="10.00" fill="#000000">AutoPaint.h</text>
</a>
</g>
</g>
<!-- Node0&#45;&gt;Node20 -->
<g id="edge12" class="edge">
<title>Node0&#45;&gt;Node20</title>
<path fill="none" stroke="#191970" d="M260.983,-110.4327C296.0957,-100.1054 343.2737,-86.2295 376.5576,-76.4402"/>
<polygon fill="#191970" stroke="#191970" points="377.8062,-79.7212 386.4122,-73.5417 375.831,-73.0057 377.8062,-79.7212"/>
</g>
<!-- Node21 -->
<g id="node9" class="node">
<title>Node21</title>
<g id="a_node9"><a xlink:href="_extras_8h.html" target="_top" xlink:title="Extras.h">
<polygon fill="none" stroke="#000000" points="186.8143,-55.5 186.8143,-73.5 239.4939,-73.5 239.4939,-55.5 186.8143,-55.5"/>
<text text-anchor="middle" x="213.1541" y="-61.5" font-family="Helvetica,sans-Serif" font-size="10.00" fill="#000000">Extras.h</text>
</a>
</g>
</g>
<!-- Node0&#45;&gt;Node21 -->
<g id="edge14" class="edge">
<title>Node0&#45;&gt;Node21</title>
<path fill="none" stroke="#191970" d="M213.1541,-110.2808C213.1541,-102.3776 213.1541,-92.4316 213.1541,-83.8308"/>
<polygon fill="#191970" stroke="#191970" points="216.6542,-83.5842 213.1541,-73.5842 209.6542,-83.5842 216.6542,-83.5842"/>
</g>
<!-- Node2&#45;&gt;Node1 -->
<g id="edge3" class="edge">
<title>Node2&#45;&gt;Node1</title>
<path fill="none" stroke="#191970" d="M61.3645,-55.4179C73.6395,-46.9788 92.144,-34.257 106.5649,-24.3426"/>
<polygon fill="#191970" stroke="#191970" points="108.6665,-27.1451 114.9241,-18.5956 104.7008,-21.3768 108.6665,-27.1451"/>
</g>
<!-- Node2&#45;&gt;Node3 -->
<g id="edge4" class="edge">
<title>Node2&#45;&gt;Node3</title>
<path fill="none" stroke="#191970" d="M76.3913,-55.4179C105.0663,-46.1949 149.6451,-31.8567 181.3531,-21.6582"/>
<polygon fill="#191970" stroke="#191970" points="182.7112,-24.8981 191.1592,-18.5042 180.5678,-18.2343 182.7112,-24.8981"/>
</g>
<!-- Node17&#45;&gt;Node1 -->
<g id="edge6" class="edge">
<title>Node17&#45;&gt;Node1</title>
<path fill="none" stroke="#191970" d="M133.1633,-55.4179C132.3777,-48.2164 131.2519,-37.8962 130.2664,-28.8632"/>
<polygon fill="#191970" stroke="#191970" points="133.7303,-28.3409 129.1664,-18.7795 126.7716,-29.1001 133.7303,-28.3409"/>
</g>
<!-- Node17&#45;&gt;Node3 -->
<g id="edge7" class="edge">
<title>Node17&#45;&gt;Node3</title>
<path fill="none" stroke="#191970" d="M148.1901,-55.4179C161.3554,-46.8992 181.2649,-34.0166 196.6481,-24.0627"/>
<polygon fill="#191970" stroke="#191970" points="198.6029,-26.9667 205.0972,-18.5956 194.8001,-21.0897 198.6029,-26.9667"/>
</g>
<!-- Node18&#45;&gt;Node1 -->
<g id="edge9" class="edge">
<title>Node18&#45;&gt;Node1</title>
<path fill="none" stroke="#191970" d="M265.0728,-55.4179C235.6472,-45.5495 188.7596,-29.825 158.2147,-19.5813"/>
<polygon fill="#191970" stroke="#191970" points="159.1252,-16.1951 148.5313,-16.3338 156.8994,-22.8319 159.1252,-16.1951"/>
</g>
<!-- Node18&#45;&gt;Node3 -->
<g id="edge11" class="edge">
<title>Node18&#45;&gt;Node3</title>
<path fill="none" stroke="#191970" d="M280.0996,-55.4179C269.0707,-47.1084 252.5309,-34.6469 239.4634,-24.8015"/>
<polygon fill="#191970" stroke="#191970" points="241.5635,-22.0016 231.4705,-18.7795 237.3512,-27.5924 241.5635,-22.0016"/>
</g>
<!-- Node19 -->
<g id="node7" class="node">
<title>Node19</title>
<g id="a_node7"><a xlink:href="_terrain_map_8h.html" target="_top" xlink:title="TerrainMap.h">
<polygon fill="none" stroke="#000000" points="289.9744,-.5 289.9744,-18.5 364.3338,-18.5 364.3338,-.5 289.9744,-.5"/>
<text text-anchor="middle" x="327.1541" y="-6.5" font-family="Helvetica,sans-Serif" font-size="10.00" fill="#000000">TerrainMap.h</text>
</a>
</g>
</g>
<!-- Node18&#45;&gt;Node19 -->
<g id="edge10" class="edge">
<title>Node18&#45;&gt;Node19</title>
<path fill="none" stroke="#191970" d="M297.9336,-55.4179C302.7682,-47.8207 309.8115,-36.7527 315.7717,-27.3866"/>
<polygon fill="#191970" stroke="#191970" points="318.833,-29.0952 321.249,-18.7795 312.9274,-25.337 318.833,-29.0952"/>
</g>
<!-- Node20&#45;&gt;Node3 -->
<g id="edge13" class="edge">
<title>Node20&#45;&gt;Node3</title>
<path fill="none" stroke="#191970" d="M384.4584,-55.4179C350.8245,-46.0751 298.2944,-31.4834 261.5008,-21.263"/>
<polygon fill="#191970" stroke="#191970" points="262.1412,-17.8084 251.5693,-18.5042 260.2677,-24.553 262.1412,-17.8084"/>
</g>
<!-- Node21&#45;&gt;Node1 -->
<g id="edge15" class="edge">
<title>Node21&#45;&gt;Node1</title>
<path fill="none" stroke="#191970" d="M199.1181,-55.4179C185.9528,-46.8992 166.0433,-34.0166 150.6601,-24.0627"/>
<polygon fill="#191970" stroke="#191970" points="152.5081,-21.0897 142.211,-18.5956 148.7053,-26.9667 152.5081,-21.0897"/>
</g>
<!-- Node21&#45;&gt;Node3 -->
<g id="edge16" class="edge">
<title>Node21&#45;&gt;Node3</title>
<path fill="none" stroke="#191970" d="M214.1449,-55.4179C214.9305,-48.2164 216.0563,-37.8962 217.0418,-28.8632"/>
<polygon fill="#191970" stroke="#191970" points="220.5366,-29.1001 218.1418,-18.7795 213.5779,-28.3409 220.5366,-29.1001"/>
</g>
</g>
</svg>
