<?xml version="1.0" encoding="UTF-8" standalone="no"?>
<!DOCTYPE svg PUBLIC "-//W3C//DTD SVG 1.1//EN"
 "http://www.w3.org/Graphics/SVG/1.1/DTD/svg11.dtd">
<!-- Generated by graphviz version 2.40.1 (20161225.0304)
 -->
<!-- Title: libnolimits/NL2/Coaster/Track/Section/Lift.h Pages: 1 -->
<svg width="127pt" height="157pt"
 viewBox="0.00 0.00 126.82 157.00" xmlns="http://www.w3.org/2000/svg" xmlns:xlink="http://www.w3.org/1999/xlink">
<g id="graph0" class="graph" transform="scale(1 1) rotate(0) translate(4 153)">
<title>libnolimits/NL2/Coaster/Track/Section/Lift.h</title>
<!-- Node0 -->
<g id="node1" class="node">
<title>Node0</title>
<polygon fill="#bfbfbf" stroke="#000000" points="0,-120.5 0,-148.5 118.8174,-148.5 118.8174,-120.5 0,-120.5"/>
<text text-anchor="start" x="8" y="-136.5" font-family="Helvetica,sans-Serif" font-size="10.00" fill="#000000">libnolimits/NL2/Coaster</text>
<text text-anchor="middle" x="59.4087" y="-126.5" font-family="Helvetica,sans-Serif" font-size="10.00" fill="#000000">/Track/Section/Lift.h</text>
</g>
<!-- Node1 -->
<g id="node2" class="node">
<title>Node1</title>
<g id="a_node2"><a xlink:href="_section_8h.html" target="_top" xlink:title="Section.h">
<polygon fill="none" stroke="#000000" points="2.5615,-65.5 2.5615,-83.5 60.2559,-83.5 60.2559,-65.5 2.5615,-65.5"/>
<text text-anchor="middle" x="31.4087" y="-71.5" font-family="Helvetica,sans-Serif" font-size="10.00" fill="#000000">Section.h</text>
</a>
</g>
</g>
<!-- Node0&#45;&gt;Node1 -->
<g id="edge1" class="edge">
<title>Node0&#45;&gt;Node1</title>
<path fill="none" stroke="#191970" d="M52.7731,-120.2808C48.9191,-112.0224 44.0243,-101.5335 39.8925,-92.6796"/>
<polygon fill="#191970" stroke="#191970" points="43.0485,-91.1659 35.648,-83.5842 36.7052,-94.1261 43.0485,-91.1659"/>
</g>
<!-- Node2 -->
<g id="node3" class="node">
<title>Node2</title>
<g id="a_node3"><a xlink:href="_chunk_8h.html" target="_top" xlink:title="../../../../Stream\l/Chunk.h">
<polygon fill="none" stroke="#ff0000" points="18.623,-.5 18.623,-28.5 100.1943,-28.5 100.1943,-.5 18.623,-.5"/>
<text text-anchor="start" x="26.623" y="-16.5" font-family="Helvetica,sans-Serif" font-size="10.00" fill="#000000">../../../../Stream</text>
<text text-anchor="middle" x="59.4087" y="-6.5" font-family="Helvetica,sans-Serif" font-size="10.00" fill="#000000">/Chunk.h</text>
</a>
</g>
</g>
<!-- Node0&#45;&gt;Node2 -->
<g id="edge3" class="edge">
<title>Node0&#45;&gt;Node2</title>
<path fill="none" stroke="#191970" d="M62.9555,-120.461C65.3113,-110.3886 68.1876,-96.4529 69.4087,-84 70.9012,-68.779 68.529,-51.7846 65.7217,-38.4107"/>
<polygon fill="#191970" stroke="#191970" points="69.1076,-37.5175 63.4425,-28.5644 62.2879,-39.0962 69.1076,-37.5175"/>
</g>
<!-- Node1&#45;&gt;Node2 -->
<g id="edge2" class="edge">
<title>Node1&#45;&gt;Node2</title>
<path fill="none" stroke="#191970" d="M35.6613,-65.3873C39.0576,-58.1095 43.9733,-47.5759 48.4522,-37.9782"/>
<polygon fill="#191970" stroke="#191970" points="51.6558,-39.3896 52.7131,-28.8477 45.3126,-36.4294 51.6558,-39.3896"/>
</g>
</g>
</svg>
