<?xml version="1.0" encoding="UTF-8" standalone="no"?>
<!DOCTYPE svg PUBLIC "-//W3C//DTD SVG 1.1//EN"
 "http://www.w3.org/Graphics/SVG/1.1/DTD/svg11.dtd">
<!-- Generated by graphviz version 2.40.1 (20161225.0304)
 -->
<!-- Title: libnolimits/File/MemoryFile.h Pages: 1 -->
<svg width="1000pt" height="92pt"
 viewBox="0.00 0.00 1000.48 92.00" xmlns="http://www.w3.org/2000/svg" xmlns:xlink="http://www.w3.org/1999/xlink">
<g id="graph0" class="graph" transform="scale(1 1) rotate(0) translate(4 88)">
<title>libnolimits/File/MemoryFile.h</title>
<!-- Node15 -->
<g id="node1" class="node">
<title>Node15</title>
<polygon fill="#bfbfbf" stroke="#000000" points="439.2241,-65.5 439.2241,-83.5 581.3618,-83.5 581.3618,-65.5 439.2241,-65.5"/>
<text text-anchor="middle" x="510.293" y="-71.5" font-family="Helvetica,sans-Serif" font-size="10.00" fill="#000000">libnolimits/File/MemoryFile.h</text>
</g>
<!-- Node16 -->
<g id="node2" class="node">
<title>Node16</title>
<g id="a_node2"><a xlink:href="_file_8cpp.html" target="_top" xlink:title="libnolimits/File/File.cpp">
<polygon fill="none" stroke="#000000" points="0,-5.5 0,-23.5 116.5859,-23.5 116.5859,-5.5 0,-5.5"/>
<text text-anchor="middle" x="58.293" y="-11.5" font-family="Helvetica,sans-Serif" font-size="10.00" fill="#000000">libnolimits/File/File.cpp</text>
</a>
</g>
</g>
<!-- Node15&#45;&gt;Node16 -->
<g id="edge1" class="edge">
<title>Node15&#45;&gt;Node16</title>
<path fill="none" stroke="#191970" d="M428.653,-67.0284C350.7056,-59.3755 230.0878,-46.1781 126.293,-29 117.004,-27.4627 107.0627,-25.516 97.729,-23.5523"/>
<polygon fill="#191970" stroke="#191970" points="428.5964,-70.5394 438.8886,-68.0255 429.2751,-63.5724 428.5964,-70.5394"/>
</g>
<!-- Node17 -->
<g id="node3" class="node">
<title>Node17</title>
<g id="a_node3"><a xlink:href="_memory_file_8cpp.html" target="_top" xlink:title="libnolimits/File/MemoryFile.cpp">
<polygon fill="none" stroke="#000000" points="134.9434,-5.5 134.9434,-23.5 287.6426,-23.5 287.6426,-5.5 134.9434,-5.5"/>
<text text-anchor="middle" x="211.293" y="-11.5" font-family="Helvetica,sans-Serif" font-size="10.00" fill="#000000">libnolimits/File/MemoryFile.cpp</text>
</a>
</g>
</g>
<!-- Node15&#45;&gt;Node17 -->
<g id="edge2" class="edge">
<title>Node15&#45;&gt;Node17</title>
<path fill="none" stroke="#191970" d="M455.247,-63.454C397.9987,-51.966 309.4527,-34.1976 256.2573,-23.5229"/>
<polygon fill="#191970" stroke="#191970" points="454.7127,-66.9165 465.2059,-65.4524 456.09,-60.0533 454.7127,-66.9165"/>
</g>
<!-- Node18 -->
<g id="node4" class="node">
<title>Node18</title>
<g id="a_node4"><a xlink:href="_support_8cpp.html" target="_top" xlink:title="libnolimits/NL2/Coaster\l/Support/Support.cpp">
<polygon fill="none" stroke="#000000" points="305.8843,-.5 305.8843,-28.5 424.7017,-28.5 424.7017,-.5 305.8843,-.5"/>
<text text-anchor="start" x="313.8843" y="-16.5" font-family="Helvetica,sans-Serif" font-size="10.00" fill="#000000">libnolimits/NL2/Coaster</text>
<text text-anchor="middle" x="365.293" y="-6.5" font-family="Helvetica,sans-Serif" font-size="10.00" fill="#000000">/Support/Support.cpp</text>
</a>
</g>
</g>
<!-- Node15&#45;&gt;Node18 -->
<g id="edge3" class="edge">
<title>Node15&#45;&gt;Node18</title>
<path fill="none" stroke="#191970" d="M478.7668,-61.4547C455.2557,-51.7259 423.1855,-38.4555 399.136,-28.504"/>
<polygon fill="#191970" stroke="#191970" points="477.6922,-64.7978 488.2706,-65.3873 480.3687,-58.3297 477.6922,-64.7978"/>
</g>
<!-- Node19 -->
<g id="node5" class="node">
<title>Node19</title>
<g id="a_node5"><a xlink:href="_section_8cpp.html" target="_top" xlink:title="libnolimits/NL2/Coaster\l/Track/Section/Section.cpp">
<polygon fill="none" stroke="#000000" points="443.0034,-.5 443.0034,-28.5 577.5825,-28.5 577.5825,-.5 443.0034,-.5"/>
<text text-anchor="start" x="451.0034" y="-16.5" font-family="Helvetica,sans-Serif" font-size="10.00" fill="#000000">libnolimits/NL2/Coaster</text>
<text text-anchor="middle" x="510.293" y="-6.5" font-family="Helvetica,sans-Serif" font-size="10.00" fill="#000000">/Track/Section/Section.cpp</text>
</a>
</g>
</g>
<!-- Node15&#45;&gt;Node19 -->
<g id="edge4" class="edge">
<title>Node15&#45;&gt;Node19</title>
<path fill="none" stroke="#191970" d="M510.293,-55.1865C510.293,-46.6283 510.293,-36.7354 510.293,-28.8477"/>
<polygon fill="#191970" stroke="#191970" points="506.7931,-55.3873 510.293,-65.3873 513.7931,-55.3873 506.7931,-55.3873"/>
</g>
<!-- Node20 -->
<g id="node6" class="node">
<title>Node20</title>
<g id="a_node6"><a xlink:href="_special_track_8cpp.html" target="_top" xlink:title="libnolimits/NL2/Coaster\l/Track/SpecialTrack.cpp">
<polygon fill="none" stroke="#000000" points="596.0313,-.5 596.0313,-28.5 718.5547,-28.5 718.5547,-.5 596.0313,-.5"/>
<text text-anchor="start" x="604.0313" y="-16.5" font-family="Helvetica,sans-Serif" font-size="10.00" fill="#000000">libnolimits/NL2/Coaster</text>
<text text-anchor="middle" x="657.293" y="-6.5" font-family="Helvetica,sans-Serif" font-size="10.00" fill="#000000">/Track/SpecialTrack.cpp</text>
</a>
</g>
</g>
<!-- Node15&#45;&gt;Node20 -->
<g id="edge5" class="edge">
<title>Node15&#45;&gt;Node20</title>
<path fill="none" stroke="#191970" d="M541.9353,-61.5848C565.799,-51.8445 598.4931,-38.5 622.9831,-28.504"/>
<polygon fill="#191970" stroke="#191970" points="540.5549,-58.3678 532.6191,-65.3873 543.2002,-64.8487 540.5549,-58.3678"/>
</g>
<!-- Node21 -->
<g id="node7" class="node">
<title>Node21</title>
<g id="a_node7"><a xlink:href="_park_8cpp.html" target="_top" xlink:title="libnolimits/NL2/Park.cpp">
<polygon fill="none" stroke="#000000" points="736.6602,-5.5 736.6602,-23.5 859.9258,-23.5 859.9258,-5.5 736.6602,-5.5"/>
<text text-anchor="middle" x="798.293" y="-11.5" font-family="Helvetica,sans-Serif" font-size="10.00" fill="#000000">libnolimits/NL2/Park.cpp</text>
</a>
</g>
</g>
<!-- Node15&#45;&gt;Node21 -->
<g id="edge6" class="edge">
<title>Node15&#45;&gt;Node21</title>
<path fill="none" stroke="#191970" d="M563.6567,-63.3826C618.809,-51.8925 703.8506,-34.1755 754.9829,-23.5229"/>
<polygon fill="#191970" stroke="#191970" points="562.7972,-59.9864 553.7213,-65.4524 564.225,-66.8392 562.7972,-59.9864"/>
</g>
<!-- Node22 -->
<g id="node8" class="node">
<title>Node22</title>
<g id="a_node8"><a xlink:href="_terrain_8cpp.html" target="_top" xlink:title="libnolimits/NL2/Terrain\l/Terrain.cpp">
<polygon fill="none" stroke="#000000" points="878.1084,-.5 878.1084,-28.5 992.4775,-28.5 992.4775,-.5 878.1084,-.5"/>
<text text-anchor="start" x="886.1084" y="-16.5" font-family="Helvetica,sans-Serif" font-size="10.00" fill="#000000">libnolimits/NL2/Terrain</text>
<text text-anchor="middle" x="935.293" y="-6.5" font-family="Helvetica,sans-Serif" font-size="10.00" fill="#000000">/Terrain.cpp</text>
</a>
</g>
</g>
<!-- Node15&#45;&gt;Node22 -->
<g id="edge7" class="edge">
<title>Node15&#45;&gt;Node22</title>
<path fill="none" stroke="#191970" d="M591.4604,-66.3261C664.4265,-58.4765 774.3958,-45.4036 869.293,-29 872.0674,-28.5204 874.9017,-28.0033 877.7603,-27.46"/>
<polygon fill="#191970" stroke="#191970" points="590.9873,-62.8566 581.4156,-67.3988 591.7307,-69.817 590.9873,-62.8566"/>
</g>
</g>
</svg>
