<?xml version="1.0" encoding="UTF-8" standalone="no"?>
<!DOCTYPE svg PUBLIC "-//W3C//DTD SVG 1.1//EN"
 "http://www.w3.org/Graphics/SVG/1.1/DTD/svg11.dtd">
<!-- Generated by graphviz version 2.40.1 (20161225.0304)
 -->
<!-- Title: libnolimits/File/MemoryFile.h Pages: 1 -->
<svg width="1394pt" height="92pt"
 viewBox="0.00 0.00 1394.48 92.00" xmlns="http://www.w3.org/2000/svg" xmlns:xlink="http://www.w3.org/1999/xlink">
<g id="graph0" class="graph" transform="scale(1 1) rotate(0) translate(4 88)">
<title>libnolimits/File/MemoryFile.h</title>
<!-- Node15 -->
<g id="node1" class="node">
<title>Node15</title>
<polygon fill="#bfbfbf" stroke="#000000" points="622.2241,-65.5 622.2241,-83.5 764.3618,-83.5 764.3618,-65.5 622.2241,-65.5"/>
<text text-anchor="middle" x="693.293" y="-71.5" font-family="Helvetica,sans-Serif" font-size="10.00" fill="#000000">libnolimits/File/MemoryFile.h</text>
</g>
<!-- Node16 -->
<g id="node2" class="node">
<title>Node16</title>
<g id="a_node2"><a xlink:href="_file_8cpp.html" target="_top" xlink:title="libnolimits/File/File.cpp">
<polygon fill="none" stroke="#000000" points="0,-5.5 0,-23.5 116.5859,-23.5 116.5859,-5.5 0,-5.5"/>
<text text-anchor="middle" x="58.293" y="-11.5" font-family="Helvetica,sans-Serif" font-size="10.00" fill="#000000">libnolimits/File/File.cpp</text>
</a>
</g>
</g>
<!-- Node15&#45;&gt;Node16 -->
<g id="edge1" class="edge">
<title>Node15&#45;&gt;Node16</title>
<path fill="none" stroke="#191970" d="M611.7251,-71.2881C501.229,-66.1782 298.0422,-54.0941 126.293,-29 116.4988,-27.569 106.0022,-25.567 96.258,-23.5067"/>
<polygon fill="#191970" stroke="#191970" points="611.6501,-74.7882 621.7989,-71.7464 611.9683,-67.7954 611.6501,-74.7882"/>
</g>
<!-- Node17 -->
<g id="node3" class="node">
<title>Node17</title>
<g id="a_node3"><a xlink:href="_memory_file_8cpp.html" target="_top" xlink:title="libnolimits/File/MemoryFile.cpp">
<polygon fill="none" stroke="#000000" points="134.9434,-5.5 134.9434,-23.5 287.6426,-23.5 287.6426,-5.5 134.9434,-5.5"/>
<text text-anchor="middle" x="211.293" y="-11.5" font-family="Helvetica,sans-Serif" font-size="10.00" fill="#000000">libnolimits/File/MemoryFile.cpp</text>
</a>
</g>
</g>
<!-- Node15&#45;&gt;Node17 -->
<g id="edge2" class="edge">
<title>Node15&#45;&gt;Node17</title>
<path fill="none" stroke="#191970" d="M611.9401,-66.4174C531.7733,-58.1549 405.8754,-44.3809 297.293,-29 285.8993,-27.3861 273.6911,-25.4525 262.1561,-23.5312"/>
<polygon fill="#191970" stroke="#191970" points="611.6652,-69.9075 621.9704,-67.4471 612.3801,-62.9441 611.6652,-69.9075"/>
</g>
<!-- Node18 -->
<g id="node4" class="node">
<title>Node18</title>
<g id="a_node4"><a xlink:href="_no_limits_track_8cpp.html" target="_top" xlink:title="libnolimits/NL1/NoLimits\lTrack.cpp">
<polygon fill="none" stroke="#000000" points="305.9434,-.5 305.9434,-28.5 428.6426,-28.5 428.6426,-.5 305.9434,-.5"/>
<text text-anchor="start" x="313.9434" y="-16.5" font-family="Helvetica,sans-Serif" font-size="10.00" fill="#000000">libnolimits/NL1/NoLimits</text>
<text text-anchor="middle" x="367.293" y="-6.5" font-family="Helvetica,sans-Serif" font-size="10.00" fill="#000000">Track.cpp</text>
</a>
</g>
</g>
<!-- Node15&#45;&gt;Node18 -->
<g id="edge3" class="edge">
<title>Node15&#45;&gt;Node18</title>
<path fill="none" stroke="#191970" d="M630.467,-63.7383C578.8042,-54.781 503.7185,-41.5158 438.293,-29 435.2038,-28.409 432.0408,-27.7952 428.848,-27.1687"/>
<polygon fill="#191970" stroke="#191970" points="630.027,-67.2141 640.4774,-65.4708 631.2208,-60.3166 630.027,-67.2141"/>
</g>
<!-- Node19 -->
<g id="node5" class="node">
<title>Node19</title>
<g id="a_node5"><a xlink:href="_n_l1_2_track_2_section_2_section_8cpp.html" target="_top" xlink:title="libnolimits/NL1/Track\l/Section/Section.cpp">
<polygon fill="none" stroke="#000000" points="447.0747,-.5 447.0747,-28.5 555.5112,-28.5 555.5112,-.5 447.0747,-.5"/>
<text text-anchor="start" x="455.0747" y="-16.5" font-family="Helvetica,sans-Serif" font-size="10.00" fill="#000000">libnolimits/NL1/Track</text>
<text text-anchor="middle" x="501.293" y="-6.5" font-family="Helvetica,sans-Serif" font-size="10.00" fill="#000000">/Section/Section.cpp</text>
</a>
</g>
</g>
<!-- Node15&#45;&gt;Node19 -->
<g id="edge4" class="edge">
<title>Node15&#45;&gt;Node19</title>
<path fill="none" stroke="#191970" d="M654.4327,-62.3562C623.0804,-52.5586 578.9458,-38.7665 546.1059,-28.504"/>
<polygon fill="#191970" stroke="#191970" points="653.5435,-65.7452 664.1323,-65.3873 655.6315,-59.0638 653.5435,-65.7452"/>
</g>
<!-- Node20 -->
<g id="node6" class="node">
<title>Node20</title>
<g id="a_node6"><a xlink:href="_n_l1_2_track_2_track_8cpp.html" target="_top" xlink:title="libnolimits/NL1/Track\l/Track.cpp">
<polygon fill="none" stroke="#000000" points="573.0747,-.5 573.0747,-28.5 681.5112,-28.5 681.5112,-.5 573.0747,-.5"/>
<text text-anchor="start" x="581.0747" y="-16.5" font-family="Helvetica,sans-Serif" font-size="10.00" fill="#000000">libnolimits/NL1/Track</text>
<text text-anchor="middle" x="627.293" y="-6.5" font-family="Helvetica,sans-Serif" font-size="10.00" fill="#000000">/Track.cpp</text>
</a>
</g>
</g>
<!-- Node15&#45;&gt;Node20 -->
<g id="edge5" class="edge">
<title>Node15&#45;&gt;Node20</title>
<path fill="none" stroke="#191970" d="M675.7119,-58.5172C665.4759,-49.2117 652.6866,-37.5851 642.8231,-28.6183"/>
<polygon fill="#191970" stroke="#191970" points="673.5152,-61.2503 683.269,-65.3873 678.2239,-56.0707 673.5152,-61.2503"/>
</g>
<!-- Node21 -->
<g id="node7" class="node">
<title>Node21</title>
<g id="a_node7"><a xlink:href="_support_8cpp.html" target="_top" xlink:title="libnolimits/NL2/Coaster\l/Support/Support.cpp">
<polygon fill="none" stroke="#000000" points="699.8843,-.5 699.8843,-28.5 818.7017,-28.5 818.7017,-.5 699.8843,-.5"/>
<text text-anchor="start" x="707.8843" y="-16.5" font-family="Helvetica,sans-Serif" font-size="10.00" fill="#000000">libnolimits/NL2/Coaster</text>
<text text-anchor="middle" x="759.293" y="-6.5" font-family="Helvetica,sans-Serif" font-size="10.00" fill="#000000">/Support/Support.cpp</text>
</a>
</g>
</g>
<!-- Node15&#45;&gt;Node21 -->
<g id="edge6" class="edge">
<title>Node15&#45;&gt;Node21</title>
<path fill="none" stroke="#191970" d="M710.874,-58.5172C721.1101,-49.2117 733.8993,-37.5851 743.7629,-28.6183"/>
<polygon fill="#191970" stroke="#191970" points="708.362,-56.0707 703.3169,-65.3873 713.0707,-61.2503 708.362,-56.0707"/>
</g>
<!-- Node22 -->
<g id="node8" class="node">
<title>Node22</title>
<g id="a_node8"><a xlink:href="_n_l2_2_coaster_2_track_2_section_2_section_8cpp.html" target="_top" xlink:title="libnolimits/NL2/Coaster\l/Track/Section/Section.cpp">
<polygon fill="none" stroke="#000000" points="837.0034,-.5 837.0034,-28.5 971.5825,-28.5 971.5825,-.5 837.0034,-.5"/>
<text text-anchor="start" x="845.0034" y="-16.5" font-family="Helvetica,sans-Serif" font-size="10.00" fill="#000000">libnolimits/NL2/Coaster</text>
<text text-anchor="middle" x="904.293" y="-6.5" font-family="Helvetica,sans-Serif" font-size="10.00" fill="#000000">/Track/Section/Section.cpp</text>
</a>
</g>
</g>
<!-- Node15&#45;&gt;Node22 -->
<g id="edge7" class="edge">
<title>Node15&#45;&gt;Node22</title>
<path fill="none" stroke="#191970" d="M735.1071,-62.6097C769.6128,-52.7977 818.6433,-38.8554 855.0455,-28.504"/>
<polygon fill="#191970" stroke="#191970" points="734.0007,-59.2855 725.3393,-65.3873 735.9153,-66.0186 734.0007,-59.2855"/>
</g>
<!-- Node23 -->
<g id="node9" class="node">
<title>Node23</title>
<g id="a_node9"><a xlink:href="_special_track_8cpp.html" target="_top" xlink:title="libnolimits/NL2/Coaster\l/Track/SpecialTrack.cpp">
<polygon fill="none" stroke="#000000" points="990.0313,-.5 990.0313,-28.5 1112.5547,-28.5 1112.5547,-.5 990.0313,-.5"/>
<text text-anchor="start" x="998.0313" y="-16.5" font-family="Helvetica,sans-Serif" font-size="10.00" fill="#000000">libnolimits/NL2/Coaster</text>
<text text-anchor="middle" x="1051.293" y="-6.5" font-family="Helvetica,sans-Serif" font-size="10.00" fill="#000000">/Track/SpecialTrack.cpp</text>
</a>
</g>
</g>
<!-- Node15&#45;&gt;Node23 -->
<g id="edge8" class="edge">
<title>Node15&#45;&gt;Node23</title>
<path fill="none" stroke="#191970" d="M765.4754,-63.9602C823.6045,-55.2549 907.3585,-42.2222 980.293,-29 983.3877,-28.439 986.5552,-27.8492 989.7515,-27.2417"/>
<polygon fill="#191970" stroke="#191970" points="764.6637,-60.5425 755.29,-65.4805 765.6972,-67.4658 764.6637,-60.5425"/>
</g>
<!-- Node24 -->
<g id="node10" class="node">
<title>Node24</title>
<g id="a_node10"><a xlink:href="_park_8cpp.html" target="_top" xlink:title="libnolimits/NL2/Park.cpp">
<polygon fill="none" stroke="#000000" points="1130.6602,-5.5 1130.6602,-23.5 1253.9258,-23.5 1253.9258,-5.5 1130.6602,-5.5"/>
<text text-anchor="middle" x="1192.293" y="-11.5" font-family="Helvetica,sans-Serif" font-size="10.00" fill="#000000">libnolimits/NL2/Park.cpp</text>
</a>
</g>
</g>
<!-- Node15&#45;&gt;Node24 -->
<g id="edge9" class="edge">
<title>Node15&#45;&gt;Node24</title>
<path fill="none" stroke="#191970" d="M774.3637,-68.2043C860.6627,-60.9609 1001.0727,-47.6226 1121.293,-29 1131.1147,-27.4786 1141.6359,-25.5153 1151.4896,-23.5278"/>
<polygon fill="#191970" stroke="#191970" points="774.0473,-64.7184 764.3721,-69.036 774.628,-71.6943 774.0473,-64.7184"/>
</g>
<!-- Node25 -->
<g id="node11" class="node">
<title>Node25</title>
<g id="a_node11"><a xlink:href="_terrain_8cpp.html" target="_top" xlink:title="libnolimits/NL2/Terrain\l/Terrain.cpp">
<polygon fill="none" stroke="#000000" points="1272.1084,-.5 1272.1084,-28.5 1386.4775,-28.5 1386.4775,-.5 1272.1084,-.5"/>
<text text-anchor="start" x="1280.1084" y="-16.5" font-family="Helvetica,sans-Serif" font-size="10.00" fill="#000000">libnolimits/NL2/Terrain</text>
<text text-anchor="middle" x="1329.293" y="-6.5" font-family="Helvetica,sans-Serif" font-size="10.00" fill="#000000">/Terrain.cpp</text>
</a>
</g>
</g>
<!-- Node15&#45;&gt;Node25 -->
<g id="edge10" class="edge">
<title>Node15&#45;&gt;Node25</title>
<path fill="none" stroke="#191970" d="M774.8565,-71.4935C885.8591,-66.6048 1090.476,-54.758 1263.293,-29 1266.0778,-28.5849 1268.9205,-28.1202 1271.7859,-27.6189"/>
<polygon fill="#191970" stroke="#191970" points="774.5774,-68.0022 764.738,-71.9312 774.88,-74.9957 774.5774,-68.0022"/>
</g>
</g>
</svg>
