<?xml version="1.0" encoding="UTF-8" standalone="no"?>
<!DOCTYPE svg PUBLIC "-//W3C//DTD SVG 1.1//EN"
 "http://www.w3.org/Graphics/SVG/1.1/DTD/svg11.dtd">
<!-- Generated by graphviz version 2.40.1 (20161225.0304)
 -->
<!-- Title: libnolimits/File/MemoryFile.h Pages: 1 -->
<svg width="1268pt" height="92pt"
 viewBox="0.00 0.00 1268.48 92.00" xmlns="http://www.w3.org/2000/svg" xmlns:xlink="http://www.w3.org/1999/xlink">
<g id="graph0" class="graph" transform="scale(1 1) rotate(0) translate(4 88)">
<title>libnolimits/File/MemoryFile.h</title>
<!-- Node15 -->
<g id="node1" class="node">
<title>Node15</title>
<polygon fill="#bfbfbf" stroke="#000000" points="562.2241,-65.5 562.2241,-83.5 704.3618,-83.5 704.3618,-65.5 562.2241,-65.5"/>
<text text-anchor="middle" x="633.293" y="-71.5" font-family="Helvetica,sans-Serif" font-size="10.00" fill="#000000">libnolimits/File/MemoryFile.h</text>
</g>
<!-- Node16 -->
<g id="node2" class="node">
<title>Node16</title>
<g id="a_node2"><a xlink:href="_file_8cpp.html" target="_top" xlink:title="libnolimits/File/File.cpp">
<polygon fill="none" stroke="#000000" points="0,-5.5 0,-23.5 116.5859,-23.5 116.5859,-5.5 0,-5.5"/>
<text text-anchor="middle" x="58.293" y="-11.5" font-family="Helvetica,sans-Serif" font-size="10.00" fill="#000000">libnolimits/File/File.cpp</text>
</a>
</g>
</g>
<!-- Node15&#45;&gt;Node16 -->
<g id="edge1" class="edge">
<title>Node15&#45;&gt;Node16</title>
<path fill="none" stroke="#191970" d="M551.9398,-70.2292C451.4928,-64.2601 275.6175,-51.5371 126.293,-29 116.625,-27.5408 106.2673,-25.5534 96.6244,-23.5181"/>
<polygon fill="#191970" stroke="#191970" points="551.83,-73.7286 562.0178,-70.8204 552.24,-66.7407 551.83,-73.7286"/>
</g>
<!-- Node17 -->
<g id="node3" class="node">
<title>Node17</title>
<g id="a_node3"><a xlink:href="_memory_file_8cpp.html" target="_top" xlink:title="libnolimits/File/MemoryFile.cpp">
<polygon fill="none" stroke="#000000" points="134.9434,-5.5 134.9434,-23.5 287.6426,-23.5 287.6426,-5.5 134.9434,-5.5"/>
<text text-anchor="middle" x="211.293" y="-11.5" font-family="Helvetica,sans-Serif" font-size="10.00" fill="#000000">libnolimits/File/MemoryFile.cpp</text>
</a>
</g>
</g>
<!-- Node15&#45;&gt;Node17 -->
<g id="edge2" class="edge">
<title>Node15&#45;&gt;Node17</title>
<path fill="none" stroke="#191970" d="M551.8441,-64.2219C483.7328,-55.4467 384.0633,-42.1865 297.293,-29 286.2156,-27.3166 274.3564,-25.3948 263.093,-23.5131"/>
<polygon fill="#191970" stroke="#191970" points="551.7134,-67.7338 562.078,-65.5372 552.6058,-60.7909 551.7134,-67.7338"/>
</g>
<!-- Node18 -->
<g id="node4" class="node">
<title>Node18</title>
<g id="a_node4"><a xlink:href="_no_limits_track_8cpp.html" target="_top" xlink:title="libnolimits/NL1/NoLimits\lTrack.cpp">
<polygon fill="none" stroke="#000000" points="305.9434,-.5 305.9434,-28.5 428.6426,-28.5 428.6426,-.5 305.9434,-.5"/>
<text text-anchor="start" x="313.9434" y="-16.5" font-family="Helvetica,sans-Serif" font-size="10.00" fill="#000000">libnolimits/NL1/NoLimits</text>
<text text-anchor="middle" x="367.293" y="-6.5" font-family="Helvetica,sans-Serif" font-size="10.00" fill="#000000">Track.cpp</text>
</a>
</g>
</g>
<!-- Node15&#45;&gt;Node18 -->
<g id="edge3" class="edge">
<title>Node15&#45;&gt;Node18</title>
<path fill="none" stroke="#191970" d="M583.3273,-63.2295C539.5209,-53.3484 475.6832,-38.9489 428.7582,-28.3643"/>
<polygon fill="#191970" stroke="#191970" points="582.657,-66.6662 593.1821,-65.4524 584.1973,-59.8378 582.657,-66.6662"/>
</g>
<!-- Node19 -->
<g id="node5" class="node">
<title>Node19</title>
<g id="a_node5"><a xlink:href="_n_l1_2_track_2_track_8cpp.html" target="_top" xlink:title="libnolimits/NL1/Track\l/Track.cpp">
<polygon fill="none" stroke="#000000" points="447.0747,-.5 447.0747,-28.5 555.5112,-28.5 555.5112,-.5 447.0747,-.5"/>
<text text-anchor="start" x="455.0747" y="-16.5" font-family="Helvetica,sans-Serif" font-size="10.00" fill="#000000">libnolimits/NL1/Track</text>
<text text-anchor="middle" x="501.293" y="-6.5" font-family="Helvetica,sans-Serif" font-size="10.00" fill="#000000">/Track.cpp</text>
</a>
</g>
</g>
<!-- Node15&#45;&gt;Node19 -->
<g id="edge4" class="edge">
<title>Node15&#45;&gt;Node19</title>
<path fill="none" stroke="#191970" d="M604.0181,-61.1932C582.6693,-51.4892 553.7997,-38.3667 532.1018,-28.504"/>
<polygon fill="#191970" stroke="#191970" points="602.693,-64.4355 613.245,-65.3873 605.5897,-58.0629 602.693,-64.4355"/>
</g>
<!-- Node20 -->
<g id="node6" class="node">
<title>Node20</title>
<g id="a_node6"><a xlink:href="_support_8cpp.html" target="_top" xlink:title="libnolimits/NL2/Coaster\l/Support/Support.cpp">
<polygon fill="none" stroke="#000000" points="573.8843,-.5 573.8843,-28.5 692.7017,-28.5 692.7017,-.5 573.8843,-.5"/>
<text text-anchor="start" x="581.8843" y="-16.5" font-family="Helvetica,sans-Serif" font-size="10.00" fill="#000000">libnolimits/NL2/Coaster</text>
<text text-anchor="middle" x="633.293" y="-6.5" font-family="Helvetica,sans-Serif" font-size="10.00" fill="#000000">/Support/Support.cpp</text>
</a>
</g>
</g>
<!-- Node15&#45;&gt;Node20 -->
<g id="edge5" class="edge">
<title>Node15&#45;&gt;Node20</title>
<path fill="none" stroke="#191970" d="M633.293,-55.1865C633.293,-46.6283 633.293,-36.7354 633.293,-28.8477"/>
<polygon fill="#191970" stroke="#191970" points="629.7931,-55.3873 633.293,-65.3873 636.7931,-55.3873 629.7931,-55.3873"/>
</g>
<!-- Node21 -->
<g id="node7" class="node">
<title>Node21</title>
<g id="a_node7"><a xlink:href="_section_8cpp.html" target="_top" xlink:title="libnolimits/NL2/Coaster\l/Track/Section/Section.cpp">
<polygon fill="none" stroke="#000000" points="711.0034,-.5 711.0034,-28.5 845.5825,-28.5 845.5825,-.5 711.0034,-.5"/>
<text text-anchor="start" x="719.0034" y="-16.5" font-family="Helvetica,sans-Serif" font-size="10.00" fill="#000000">libnolimits/NL2/Coaster</text>
<text text-anchor="middle" x="778.293" y="-6.5" font-family="Helvetica,sans-Serif" font-size="10.00" fill="#000000">/Track/Section/Section.cpp</text>
</a>
</g>
</g>
<!-- Node15&#45;&gt;Node21 -->
<g id="edge6" class="edge">
<title>Node15&#45;&gt;Node21</title>
<path fill="none" stroke="#191970" d="M664.8192,-61.4547C688.3303,-51.7259 720.4004,-38.4555 744.4499,-28.504"/>
<polygon fill="#191970" stroke="#191970" points="663.2173,-58.3297 655.3153,-65.3873 665.8938,-64.7978 663.2173,-58.3297"/>
</g>
<!-- Node22 -->
<g id="node8" class="node">
<title>Node22</title>
<g id="a_node8"><a xlink:href="_special_track_8cpp.html" target="_top" xlink:title="libnolimits/NL2/Coaster\l/Track/SpecialTrack.cpp">
<polygon fill="none" stroke="#000000" points="864.0313,-.5 864.0313,-28.5 986.5547,-28.5 986.5547,-.5 864.0313,-.5"/>
<text text-anchor="start" x="872.0313" y="-16.5" font-family="Helvetica,sans-Serif" font-size="10.00" fill="#000000">libnolimits/NL2/Coaster</text>
<text text-anchor="middle" x="925.293" y="-6.5" font-family="Helvetica,sans-Serif" font-size="10.00" fill="#000000">/Track/SpecialTrack.cpp</text>
</a>
</g>
</g>
<!-- Node15&#45;&gt;Node22 -->
<g id="edge7" class="edge">
<title>Node15&#45;&gt;Node22</title>
<path fill="none" stroke="#191970" d="M687.2968,-63.4033C737.2934,-53.13 811.5788,-37.8659 863.8281,-27.1298"/>
<polygon fill="#191970" stroke="#191970" points="686.4153,-60.0112 677.3245,-65.4524 687.8243,-66.868 686.4153,-60.0112"/>
</g>
<!-- Node23 -->
<g id="node9" class="node">
<title>Node23</title>
<g id="a_node9"><a xlink:href="_park_8cpp.html" target="_top" xlink:title="libnolimits/NL2/Park.cpp">
<polygon fill="none" stroke="#000000" points="1004.6602,-5.5 1004.6602,-23.5 1127.9258,-23.5 1127.9258,-5.5 1004.6602,-5.5"/>
<text text-anchor="middle" x="1066.293" y="-11.5" font-family="Helvetica,sans-Serif" font-size="10.00" fill="#000000">libnolimits/NL2/Park.cpp</text>
</a>
</g>
</g>
<!-- Node15&#45;&gt;Node23 -->
<g id="edge8" class="edge">
<title>Node15&#45;&gt;Node23</title>
<path fill="none" stroke="#191970" d="M714.7395,-66.0626C788.2765,-58.0174 899.3381,-44.8048 995.293,-29 1004.8514,-27.4256 1015.0832,-25.4865 1024.7185,-23.5445"/>
<polygon fill="#191970" stroke="#191970" points="714.1807,-62.6027 704.6177,-67.1633 714.9375,-69.5617 714.1807,-62.6027"/>
</g>
<!-- Node24 -->
<g id="node10" class="node">
<title>Node24</title>
<g id="a_node10"><a xlink:href="_terrain_8cpp.html" target="_top" xlink:title="libnolimits/NL2/Terrain\l/Terrain.cpp">
<polygon fill="none" stroke="#000000" points="1146.1084,-.5 1146.1084,-28.5 1260.4775,-28.5 1260.4775,-.5 1146.1084,-.5"/>
<text text-anchor="start" x="1154.1084" y="-16.5" font-family="Helvetica,sans-Serif" font-size="10.00" fill="#000000">libnolimits/NL2/Terrain</text>
<text text-anchor="middle" x="1203.293" y="-6.5" font-family="Helvetica,sans-Serif" font-size="10.00" fill="#000000">/Terrain.cpp</text>
</a>
</g>
</g>
<!-- Node15&#45;&gt;Node24 -->
<g id="edge9" class="edge">
<title>Node15&#45;&gt;Node24</title>
<path fill="none" stroke="#191970" d="M714.6119,-70.3254C814.5578,-64.4671 989.1307,-51.8698 1137.293,-29 1140.0756,-28.5705 1142.9166,-28.0941 1145.7805,-27.5833"/>
<polygon fill="#191970" stroke="#191970" points="714.3638,-66.8338 704.5826,-70.9053 714.768,-73.8221 714.3638,-66.8338"/>
</g>
</g>
</svg>
