<?xml version="1.0" encoding="UTF-8" standalone="no"?>
<!DOCTYPE svg PUBLIC "-//W3C//DTD SVG 1.1//EN"
 "http://www.w3.org/Graphics/SVG/1.1/DTD/svg11.dtd">
<!-- Generated by graphviz version 2.40.1 (20161225.0304)
 -->
<!-- Title: libnolimits/File/MemoryFile.cpp Pages: 1 -->
<svg width="359pt" height="192pt"
 viewBox="0.00 0.00 359.40 192.00" xmlns="http://www.w3.org/2000/svg" xmlns:xlink="http://www.w3.org/1999/xlink">
<g id="graph0" class="graph" transform="scale(1 1) rotate(0) translate(4 188)">
<title>libnolimits/File/MemoryFile.cpp</title>
<!-- Node0 -->
<g id="node1" class="node">
<title>Node0</title>
<polygon fill="#bfbfbf" stroke="#000000" points="101.877,-165.5 101.877,-183.5 254.5762,-183.5 254.5762,-165.5 101.877,-165.5"/>
<text text-anchor="middle" x="178.2266" y="-171.5" font-family="Helvetica,sans-Serif" font-size="10.00" fill="#000000">libnolimits/File/MemoryFile.cpp</text>
</g>
<!-- Node1 -->
<g id="node2" class="node">
<title>Node1</title>
<g id="a_node2"><a xlink:href="_memory_file_8h.html" target="_top" xlink:title="MemoryFile.h">
<polygon fill="none" stroke="#000000" points="21.9434,-110.5 21.9434,-128.5 98.5098,-128.5 98.5098,-110.5 21.9434,-110.5"/>
<text text-anchor="middle" x="60.2266" y="-116.5" font-family="Helvetica,sans-Serif" font-size="10.00" fill="#000000">MemoryFile.h</text>
</a>
</g>
</g>
<!-- Node0&#45;&gt;Node1 -->
<g id="edge1" class="edge">
<title>Node0&#45;&gt;Node1</title>
<path fill="none" stroke="#191970" d="M158.7413,-165.4179C139.6961,-156.5409 110.4844,-142.9253 88.8103,-132.823"/>
<polygon fill="#191970" stroke="#191970" points="90.2833,-129.648 79.7408,-128.5956 87.326,-135.9927 90.2833,-129.648"/>
</g>
<!-- Node5 -->
<g id="node4" class="node">
<title>Node5</title>
<polygon fill="none" stroke="#bfbfbf" points="48.5566,-.5 48.5566,-18.5 97.8965,-18.5 97.8965,-.5 48.5566,-.5"/>
<text text-anchor="middle" x="73.2266" y="-6.5" font-family="Helvetica,sans-Serif" font-size="10.00" fill="#000000">fstream</text>
</g>
<!-- Node0&#45;&gt;Node5 -->
<g id="edge7" class="edge">
<title>Node0&#45;&gt;Node5</title>
<path fill="none" stroke="#191970" d="M170.9695,-165.3769C163.9764,-156.3896 153.2977,-142.1366 145.2266,-129 125.8721,-97.4989 126.805,-86.3624 107.2266,-55 101.103,-45.1908 93.4553,-34.821 86.9648,-26.4625"/>
<polygon fill="#191970" stroke="#191970" points="89.6827,-24.2569 80.7321,-18.5879 84.1939,-28.6012 89.6827,-24.2569"/>
</g>
<!-- Node16 -->
<g id="node6" class="node">
<title>Node16</title>
<polygon fill="none" stroke="#bfbfbf" points="154.3843,-110.5 154.3843,-128.5 202.0688,-128.5 202.0688,-110.5 154.3843,-110.5"/>
<text text-anchor="middle" x="178.2266" y="-116.5" font-family="Helvetica,sans-Serif" font-size="10.00" fill="#000000">stdlib.h</text>
</g>
<!-- Node0&#45;&gt;Node16 -->
<g id="edge5" class="edge">
<title>Node0&#45;&gt;Node16</title>
<path fill="none" stroke="#191970" d="M178.2266,-165.4179C178.2266,-158.2164 178.2266,-147.8962 178.2266,-138.8632"/>
<polygon fill="#191970" stroke="#191970" points="181.7267,-138.7794 178.2266,-128.7795 174.7267,-138.7795 181.7267,-138.7794"/>
</g>
<!-- Node17 -->
<g id="node7" class="node">
<title>Node17</title>
<polygon fill="none" stroke="#bfbfbf" points="219.8252,-110.5 219.8252,-128.5 278.6279,-128.5 278.6279,-110.5 219.8252,-110.5"/>
<text text-anchor="middle" x="249.2266" y="-116.5" font-family="Helvetica,sans-Serif" font-size="10.00" fill="#000000">stdexcept</text>
</g>
<!-- Node0&#45;&gt;Node17 -->
<g id="edge6" class="edge">
<title>Node0&#45;&gt;Node17</title>
<path fill="none" stroke="#191970" d="M189.9508,-165.4179C200.5753,-157.1876 216.4583,-144.8839 229.1096,-135.0836"/>
<polygon fill="#191970" stroke="#191970" points="231.4855,-137.6704 237.2476,-128.7795 227.1987,-132.1365 231.4855,-137.6704"/>
</g>
<!-- Node10 -->
<g id="node8" class="node">
<title>Node10</title>
<polygon fill="none" stroke="#bfbfbf" points="297.0542,-110.5 297.0542,-128.5 351.3989,-128.5 351.3989,-110.5 297.0542,-110.5"/>
<text text-anchor="middle" x="324.2266" y="-116.5" font-family="Helvetica,sans-Serif" font-size="10.00" fill="#000000">iostream</text>
</g>
<!-- Node0&#45;&gt;Node10 -->
<g id="edge8" class="edge">
<title>Node0&#45;&gt;Node10</title>
<path fill="none" stroke="#191970" d="M202.3355,-165.4179C226.4282,-156.3419 263.6703,-142.3123 290.6497,-132.1488"/>
<polygon fill="#191970" stroke="#191970" points="291.9577,-135.3963 300.0818,-128.5956 289.4899,-128.8457 291.9577,-135.3963"/>
</g>
<!-- Node2 -->
<g id="node3" class="node">
<title>Node2</title>
<g id="a_node3"><a xlink:href="_file_8h.html" target="_top" xlink:title="File.h">
<polygon fill="none" stroke="#ff0000" points="0,-55.5 0,-73.5 40.4531,-73.5 40.4531,-55.5 0,-55.5"/>
<text text-anchor="middle" x="20.2266" y="-61.5" font-family="Helvetica,sans-Serif" font-size="10.00" fill="#000000">File.h</text>
</a>
</g>
</g>
<!-- Node1&#45;&gt;Node2 -->
<g id="edge2" class="edge">
<title>Node1&#45;&gt;Node2</title>
<path fill="none" stroke="#191970" d="M53.6214,-110.4179C48.0386,-102.7415 39.8787,-91.5217 33.0226,-82.0945"/>
<polygon fill="#191970" stroke="#191970" points="35.6876,-79.8082 26.9753,-73.7795 30.0264,-83.9255 35.6876,-79.8082"/>
</g>
<!-- Node13 -->
<g id="node5" class="node">
<title>Node13</title>
<polygon fill="none" stroke="#bfbfbf" points="58,-55.5 58,-73.5 98.4531,-73.5 98.4531,-55.5 58,-55.5"/>
<text text-anchor="middle" x="78.2266" y="-61.5" font-family="Helvetica,sans-Serif" font-size="10.00" fill="#000000">string</text>
</g>
<!-- Node1&#45;&gt;Node13 -->
<g id="edge4" class="edge">
<title>Node1&#45;&gt;Node13</title>
<path fill="none" stroke="#191970" d="M63.1989,-110.4179C65.5817,-103.1372 69.0076,-92.669 71.9868,-83.5659"/>
<polygon fill="#191970" stroke="#191970" points="75.4056,-84.3721 75.1896,-73.7795 68.7528,-82.1948 75.4056,-84.3721"/>
</g>
<!-- Node2&#45;&gt;Node5 -->
<g id="edge3" class="edge">
<title>Node2&#45;&gt;Node5</title>
<path fill="none" stroke="#191970" d="M28.9784,-55.4179C36.6044,-47.5041 47.8595,-35.8243 57.1097,-26.2251"/>
<polygon fill="#191970" stroke="#191970" points="59.8659,-28.4089 64.2845,-18.7795 54.8253,-23.5516 59.8659,-28.4089"/>
</g>
</g>
</svg>
