<?xml version="1.0" encoding="UTF-8" standalone="no"?>
<!DOCTYPE svg PUBLIC "-//W3C//DTD SVG 1.1//EN"
 "http://www.w3.org/Graphics/SVG/1.1/DTD/svg11.dtd">
<!-- Generated by graphviz version 2.40.1 (20161225.0304)
 -->
<!-- Title: libnolimits/File/MemoryFile.h Pages: 1 -->
<svg width="339pt" height="137pt"
 viewBox="0.00 0.00 339.24 137.00" xmlns="http://www.w3.org/2000/svg" xmlns:xlink="http://www.w3.org/1999/xlink">
<g id="graph0" class="graph" transform="scale(1 1) rotate(0) translate(4 133)">
<title>libnolimits/File/MemoryFile.h</title>
<!-- Node0 -->
<g id="node1" class="node">
<title>Node0</title>
<polygon fill="#bfbfbf" stroke="#000000" points="112.0518,-110.5 112.0518,-128.5 254.1895,-128.5 254.1895,-110.5 112.0518,-110.5"/>
<text text-anchor="middle" x="183.1206" y="-116.5" font-family="Helvetica,sans-Serif" font-size="10.00" fill="#000000">libnolimits/File/MemoryFile.h</text>
</g>
<!-- Node1 -->
<g id="node2" class="node">
<title>Node1</title>
<g id="a_node2"><a xlink:href="_file_8h.html" target="_top" xlink:title="File.h">
<polygon fill="none" stroke="#000000" points="133.894,-55.5 133.894,-73.5 174.3472,-73.5 174.3472,-55.5 133.894,-55.5"/>
<text text-anchor="middle" x="154.1206" y="-61.5" font-family="Helvetica,sans-Serif" font-size="10.00" fill="#000000">File.h</text>
</a>
</g>
</g>
<!-- Node0&#45;&gt;Node1 -->
<g id="edge1" class="edge">
<title>Node0&#45;&gt;Node1</title>
<path fill="none" stroke="#191970" d="M178.3318,-110.4179C174.3678,-102.8998 168.6116,-91.9829 163.7063,-82.6799"/>
<polygon fill="#191970" stroke="#191970" points="166.7736,-80.9927 159.0134,-73.7795 160.5816,-84.2576 166.7736,-80.9927"/>
</g>
<!-- Node12 -->
<g id="node8" class="node">
<title>Node12</title>
<polygon fill="none" stroke="#bfbfbf" points="191.894,-55.5 191.894,-73.5 232.3472,-73.5 232.3472,-55.5 191.894,-55.5"/>
<text text-anchor="middle" x="212.1206" y="-61.5" font-family="Helvetica,sans-Serif" font-size="10.00" fill="#000000">string</text>
</g>
<!-- Node0&#45;&gt;Node12 -->
<g id="edge7" class="edge">
<title>Node0&#45;&gt;Node12</title>
<path fill="none" stroke="#191970" d="M187.9094,-110.4179C191.8734,-102.8998 197.6296,-91.9829 202.5349,-82.6799"/>
<polygon fill="#191970" stroke="#191970" points="205.6597,-84.2576 207.2278,-73.7795 199.4677,-80.9927 205.6597,-84.2576"/>
</g>
<!-- Node2 -->
<g id="node3" class="node">
<title>Node2</title>
<polygon fill="none" stroke="#bfbfbf" points="0,-.5 0,-18.5 48.2412,-18.5 48.2412,-.5 0,-.5"/>
<text text-anchor="middle" x="24.1206" y="-6.5" font-family="Helvetica,sans-Serif" font-size="10.00" fill="#000000">cstddef</text>
</g>
<!-- Node1&#45;&gt;Node2 -->
<g id="edge2" class="edge">
<title>Node1&#45;&gt;Node2</title>
<path fill="none" stroke="#191970" d="M133.8081,-55.9063C112.7195,-46.9841 79.4674,-32.9159 55.0988,-22.6062"/>
<polygon fill="#191970" stroke="#191970" points="56.1609,-19.2552 45.5875,-18.5821 53.4334,-25.702 56.1609,-19.2552"/>
</g>
<!-- Node3 -->
<g id="node4" class="node">
<title>Node3</title>
<polygon fill="none" stroke="#bfbfbf" points="66.394,-.5 66.394,-18.5 111.8472,-18.5 111.8472,-.5 66.394,-.5"/>
<text text-anchor="middle" x="89.1206" y="-6.5" font-family="Helvetica,sans-Serif" font-size="10.00" fill="#000000">cstring</text>
</g>
<!-- Node1&#45;&gt;Node3 -->
<g id="edge3" class="edge">
<title>Node1&#45;&gt;Node3</title>
<path fill="none" stroke="#191970" d="M143.3872,-55.4179C133.754,-47.2667 119.3989,-35.1201 107.8724,-25.3669"/>
<polygon fill="#191970" stroke="#191970" points="109.9819,-22.5671 100.0872,-18.7795 105.4603,-27.9108 109.9819,-22.5671"/>
</g>
<!-- Node4 -->
<g id="node5" class="node">
<title>Node4</title>
<polygon fill="none" stroke="#bfbfbf" points="129.4507,-.5 129.4507,-18.5 178.7905,-18.5 178.7905,-.5 129.4507,-.5"/>
<text text-anchor="middle" x="154.1206" y="-6.5" font-family="Helvetica,sans-Serif" font-size="10.00" fill="#000000">fstream</text>
</g>
<!-- Node1&#45;&gt;Node4 -->
<g id="edge4" class="edge">
<title>Node1&#45;&gt;Node4</title>
<path fill="none" stroke="#191970" d="M154.1206,-55.4179C154.1206,-48.2164 154.1206,-37.8962 154.1206,-28.8632"/>
<polygon fill="#191970" stroke="#191970" points="157.6207,-28.7794 154.1206,-18.7795 150.6207,-28.7795 157.6207,-28.7794"/>
</g>
<!-- Node5 -->
<g id="node6" class="node">
<title>Node5</title>
<polygon fill="none" stroke="#bfbfbf" points="197,-.5 197,-18.5 245.2412,-18.5 245.2412,-.5 197,-.5"/>
<text text-anchor="middle" x="221.1206" y="-6.5" font-family="Helvetica,sans-Serif" font-size="10.00" fill="#000000">stdint.h</text>
</g>
<!-- Node1&#45;&gt;Node5 -->
<g id="edge5" class="edge">
<title>Node1&#45;&gt;Node5</title>
<path fill="none" stroke="#191970" d="M165.1843,-55.4179C175.1139,-47.2667 189.9106,-35.1201 201.7918,-25.3669"/>
<polygon fill="#191970" stroke="#191970" points="204.308,-27.8297 209.8165,-18.7795 199.8665,-22.4192 204.308,-27.8297"/>
</g>
<!-- Node6 -->
<g id="node7" class="node">
<title>Node6</title>
<g id="a_node7"><a xlink:href="_nolimits_8h.html" target="_top" xlink:title="../Nolimits.h">
<polygon fill="none" stroke="#ff0000" points="263.0049,-.5 263.0049,-18.5 331.2363,-18.5 331.2363,-.5 263.0049,-.5"/>
<text text-anchor="middle" x="297.1206" y="-6.5" font-family="Helvetica,sans-Serif" font-size="10.00" fill="#000000">../Nolimits.h</text>
</a>
</g>
</g>
<!-- Node1&#45;&gt;Node6 -->
<g id="edge6" class="edge">
<title>Node1&#45;&gt;Node6</title>
<path fill="none" stroke="#191970" d="M174.609,-56.6198C197.8571,-47.6783 236.1184,-32.9624 263.7022,-22.3532"/>
<polygon fill="#191970" stroke="#191970" points="265.257,-25.5053 273.334,-18.6487 262.7441,-18.9718 265.257,-25.5053"/>
</g>
</g>
</svg>
