<?xml version="1.0" encoding="UTF-8" standalone="no"?>
<!DOCTYPE svg PUBLIC "-//W3C//DTD SVG 1.1//EN"
 "http://www.w3.org/Graphics/SVG/1.1/DTD/svg11.dtd">
<!-- Generated by graphviz version 2.40.1 (20161225.0304)
 -->
<!-- Title: libnolimits/NL2/Coaster/Mode.cpp Pages: 1 -->
<svg width="158pt" height="202pt"
 viewBox="0.00 0.00 157.64 202.00" xmlns="http://www.w3.org/2000/svg" xmlns:xlink="http://www.w3.org/1999/xlink">
<g id="graph0" class="graph" transform="scale(1 1) rotate(0) translate(4 198)">
<title>libnolimits/NL2/Coaster/Mode.cpp</title>
<!-- Node0 -->
<g id="node1" class="node">
<title>Node0</title>
<polygon fill="#bfbfbf" stroke="#000000" points="28.0542,-165.5 28.0542,-193.5 146.8716,-193.5 146.8716,-165.5 28.0542,-165.5"/>
<text text-anchor="start" x="36.0542" y="-181.5" font-family="Helvetica,sans-Serif" font-size="10.00" fill="#000000">libnolimits/NL2/Coaster</text>
<text text-anchor="middle" x="87.4629" y="-171.5" font-family="Helvetica,sans-Serif" font-size="10.00" fill="#000000">/Mode.cpp</text>
</g>
<!-- Node1 -->
<g id="node2" class="node">
<title>Node1</title>
<g id="a_node2"><a xlink:href="_mode_8h.html" target="_top" xlink:title="Mode.h">
<polygon fill="none" stroke="#000000" points="27.7856,-110.5 27.7856,-128.5 77.1401,-128.5 77.1401,-110.5 27.7856,-110.5"/>
<text text-anchor="middle" x="52.4629" y="-116.5" font-family="Helvetica,sans-Serif" font-size="10.00" fill="#000000">Mode.h</text>
</a>
</g>
</g>
<!-- Node0&#45;&gt;Node1 -->
<g id="edge1" class="edge">
<title>Node0&#45;&gt;Node1</title>
<path fill="none" stroke="#191970" d="M79.1684,-165.2808C74.2991,-156.9336 68.1007,-146.3076 62.9014,-137.3946"/>
<polygon fill="#191970" stroke="#191970" points="65.824,-135.4584 57.762,-128.5842 59.7775,-138.9856 65.824,-135.4584"/>
</g>
<!-- Node11 -->
<g id="node5" class="node">
<title>Node11</title>
<polygon fill="none" stroke="#bfbfbf" points="95.2905,-110.5 95.2905,-128.5 149.6353,-128.5 149.6353,-110.5 95.2905,-110.5"/>
<text text-anchor="middle" x="122.4629" y="-116.5" font-family="Helvetica,sans-Serif" font-size="10.00" fill="#000000">iostream</text>
</g>
<!-- Node0&#45;&gt;Node11 -->
<g id="edge5" class="edge">
<title>Node0&#45;&gt;Node11</title>
<path fill="none" stroke="#191970" d="M95.7574,-165.2808C100.6266,-156.9336 106.8251,-146.3076 112.0244,-137.3946"/>
<polygon fill="#191970" stroke="#191970" points="115.1483,-138.9856 117.1638,-128.5842 109.1018,-135.4584 115.1483,-138.9856"/>
</g>
<!-- Node2 -->
<g id="node3" class="node">
<title>Node2</title>
<g id="a_node3"><a xlink:href="_chunk_8h.html" target="_top" xlink:title="../../Stream/Chunk.h">
<polygon fill="none" stroke="#ff0000" points="0,-.5 0,-18.5 104.9258,-18.5 104.9258,-.5 0,-.5"/>
<text text-anchor="middle" x="52.4629" y="-6.5" font-family="Helvetica,sans-Serif" font-size="10.00" fill="#000000">../../Stream/Chunk.h</text>
</a>
</g>
</g>
<!-- Node1&#45;&gt;Node2 -->
<g id="edge2" class="edge">
<title>Node1&#45;&gt;Node2</title>
<path fill="none" stroke="#191970" d="M47.6739,-110.3981C43.2436,-101.4264 36.9761,-87.1847 34.4629,-74 31.4398,-58.1402 36.9938,-40.5063 42.7087,-27.6904"/>
<polygon fill="#191970" stroke="#191970" points="45.9191,-29.0924 47.1656,-18.5712 39.63,-26.0187 45.9191,-29.0924"/>
</g>
<!-- Node18 -->
<g id="node4" class="node">
<title>Node18</title>
<g id="a_node4"><a xlink:href="_custom_friction_8h.html" target="_top" xlink:title="CustomFriction.h">
<polygon fill="none" stroke="#000000" points="43.6748,-55.5 43.6748,-73.5 135.251,-73.5 135.251,-55.5 43.6748,-55.5"/>
<text text-anchor="middle" x="89.4629" y="-61.5" font-family="Helvetica,sans-Serif" font-size="10.00" fill="#000000">CustomFriction.h</text>
</a>
</g>
</g>
<!-- Node1&#45;&gt;Node18 -->
<g id="edge3" class="edge">
<title>Node1&#45;&gt;Node18</title>
<path fill="none" stroke="#191970" d="M58.5727,-110.4179C63.7368,-102.7415 71.2846,-91.5217 77.6266,-82.0945"/>
<polygon fill="#191970" stroke="#191970" points="80.5426,-84.0303 83.2203,-73.7795 74.7345,-80.1231 80.5426,-84.0303"/>
</g>
<!-- Node18&#45;&gt;Node2 -->
<g id="edge4" class="edge">
<title>Node18&#45;&gt;Node2</title>
<path fill="none" stroke="#191970" d="M83.3531,-55.4179C78.189,-47.7415 70.6411,-36.5217 64.2992,-27.0945"/>
<polygon fill="#191970" stroke="#191970" points="67.1913,-25.1231 58.7054,-18.7795 61.3832,-29.0303 67.1913,-25.1231"/>
</g>
</g>
</svg>
