<?xml version="1.0" encoding="UTF-8" standalone="no"?>
<!DOCTYPE svg PUBLIC "-//W3C//DTD SVG 1.1//EN"
 "http://www.w3.org/Graphics/SVG/1.1/DTD/svg11.dtd">
<!-- Generated by graphviz version 2.40.1 (20161225.0304)
 -->
<!-- Title: libnolimits/NL2/Coaster/Track/Section/Station.h Pages: 1 -->
<svg width="292pt" height="102pt"
 viewBox="0.00 0.00 292.47 102.00" xmlns="http://www.w3.org/2000/svg" xmlns:xlink="http://www.w3.org/1999/xlink">
<g id="graph0" class="graph" transform="scale(1 1) rotate(0) translate(4 98)">
<title>libnolimits/NL2/Coaster/Track/Section/Station.h</title>
<!-- Node24 -->
<g id="node1" class="node">
<title>Node24</title>
<polygon fill="#bfbfbf" stroke="#000000" points="81.3916,-65.5 81.3916,-93.5 203.1875,-93.5 203.1875,-65.5 81.3916,-65.5"/>
<text text-anchor="start" x="89.3916" y="-81.5" font-family="Helvetica,sans-Serif" font-size="10.00" fill="#000000">libnolimits/NL2/Coaster</text>
<text text-anchor="middle" x="142.2896" y="-71.5" font-family="Helvetica,sans-Serif" font-size="10.00" fill="#000000">/Track/Section/Station.h</text>
</g>
<!-- Node25 -->
<g id="node2" class="node">
<title>Node25</title>
<g id="a_node2"><a xlink:href="_n_l2_2_coaster_2_track_2_section_2_section_8cpp.html" target="_top" xlink:title="libnolimits/NL2/Coaster\l/Track/Section/Section.cpp">
<polygon fill="none" stroke="#000000" points="0,-.5 0,-28.5 134.5791,-28.5 134.5791,-.5 0,-.5"/>
<text text-anchor="start" x="8" y="-16.5" font-family="Helvetica,sans-Serif" font-size="10.00" fill="#000000">libnolimits/NL2/Coaster</text>
<text text-anchor="middle" x="67.2896" y="-6.5" font-family="Helvetica,sans-Serif" font-size="10.00" fill="#000000">/Track/Section/Section.cpp</text>
</a>
</g>
</g>
<!-- Node24&#45;&gt;Node25 -->
<g id="edge1" class="edge">
<title>Node24&#45;&gt;Node25</title>
<path fill="none" stroke="#191970" d="M118.1716,-58.5978C106.8469,-48.7831 93.6482,-37.3442 83.5317,-28.5765"/>
<polygon fill="#191970" stroke="#191970" points="116.1665,-61.4915 126.0157,-65.396 120.751,-56.2017 116.1665,-61.4915"/>
</g>
<!-- Node26 -->
<g id="node3" class="node">
<title>Node26</title>
<g id="a_node3"><a xlink:href="_n_l2_2_coaster_2_track_2_section_2_station_8cpp.html" target="_top" xlink:title="libnolimits/NL2/Coaster\l/Track/Section/Station.cpp">
<polygon fill="none" stroke="#000000" points="152.1108,-.5 152.1108,-28.5 284.4683,-28.5 284.4683,-.5 152.1108,-.5"/>
<text text-anchor="start" x="160.1108" y="-16.5" font-family="Helvetica,sans-Serif" font-size="10.00" fill="#000000">libnolimits/NL2/Coaster</text>
<text text-anchor="middle" x="218.2896" y="-6.5" font-family="Helvetica,sans-Serif" font-size="10.00" fill="#000000">/Track/Section/Station.cpp</text>
</a>
</g>
</g>
<!-- Node24&#45;&gt;Node26 -->
<g id="edge2" class="edge">
<title>Node24&#45;&gt;Node26</title>
<path fill="none" stroke="#191970" d="M166.3954,-58.8832C177.9447,-49.0054 191.4799,-37.4293 201.8309,-28.5765"/>
<polygon fill="#191970" stroke="#191970" points="164.1052,-56.2364 158.7804,-65.396 168.655,-61.5561 164.1052,-56.2364"/>
</g>
</g>
</svg>
