<?xml version="1.0" encoding="UTF-8" standalone="no"?>
<!DOCTYPE svg PUBLIC "-//W3C//DTD SVG 1.1//EN"
 "http://www.w3.org/Graphics/SVG/1.1/DTD/svg11.dtd">
<!-- Generated by graphviz version 2.40.1 (20161225.0304)
 -->
<!-- Title: libnolimits/NL2/Info/Version.cpp Pages: 1 -->
<svg width="202pt" height="202pt"
 viewBox="0.00 0.00 201.70 202.00" xmlns="http://www.w3.org/2000/svg" xmlns:xlink="http://www.w3.org/1999/xlink">
<g id="graph0" class="graph" transform="scale(1 1) rotate(0) translate(4 198)">
<title>libnolimits/NL2/Info/Version.cpp</title>
<!-- Node0 -->
<g id="node1" class="node">
<title>Node0</title>
<polygon fill="#bfbfbf" stroke="#000000" points="0,-165.5 0,-193.5 100.4824,-193.5 100.4824,-165.5 0,-165.5"/>
<text text-anchor="start" x="8" y="-181.5" font-family="Helvetica,sans-Serif" font-size="10.00" fill="#000000">libnolimits/NL2/Info</text>
<text text-anchor="middle" x="50.2412" y="-171.5" font-family="Helvetica,sans-Serif" font-size="10.00" fill="#000000">/Version.cpp</text>
</g>
<!-- Node1 -->
<g id="node2" class="node">
<title>Node1</title>
<g id="a_node2"><a xlink:href="_n_l2_2_info_2_version_8h.html" target="_top" xlink:title="Version.h">
<polygon fill="none" stroke="#000000" points="21.3916,-110.5 21.3916,-128.5 79.0908,-128.5 79.0908,-110.5 21.3916,-110.5"/>
<text text-anchor="middle" x="50.2412" y="-116.5" font-family="Helvetica,sans-Serif" font-size="10.00" fill="#000000">Version.h</text>
</a>
</g>
</g>
<!-- Node0&#45;&gt;Node1 -->
<g id="edge1" class="edge">
<title>Node0&#45;&gt;Node1</title>
<path fill="none" stroke="#191970" d="M50.2412,-165.2808C50.2412,-157.3776 50.2412,-147.4316 50.2412,-138.8308"/>
<polygon fill="#191970" stroke="#191970" points="53.7413,-138.5842 50.2412,-128.5842 46.7413,-138.5842 53.7413,-138.5842"/>
</g>
<!-- Node2 -->
<g id="node3" class="node">
<title>Node2</title>
<g id="a_node3"><a xlink:href="_nolimits_8h.html" target="_top" xlink:title="../../Nolimits.h">
<polygon fill="none" stroke="#ff0000" points="32.958,-.5 32.958,-18.5 109.5244,-18.5 109.5244,-.5 32.958,-.5"/>
<text text-anchor="middle" x="71.2412" y="-6.5" font-family="Helvetica,sans-Serif" font-size="10.00" fill="#000000">../../Nolimits.h</text>
</a>
</g>
</g>
<!-- Node1&#45;&gt;Node2 -->
<g id="edge2" class="edge">
<title>Node1&#45;&gt;Node2</title>
<path fill="none" stroke="#191970" d="M40.9555,-110.3304C29.4876,-97.8386 12.5042,-74.7637 21.2412,-55 26.654,-42.7558 37.1694,-32.3899 47.1659,-24.6592"/>
<polygon fill="#191970" stroke="#191970" points="49.2389,-27.4796 55.3175,-18.8019 45.1542,-21.7949 49.2389,-27.4796"/>
</g>
<!-- Node8 -->
<g id="node4" class="node">
<title>Node8</title>
<polygon fill="none" stroke="#bfbfbf" points="30.0146,-55.5 30.0146,-73.5 70.4678,-73.5 70.4678,-55.5 30.0146,-55.5"/>
<text text-anchor="middle" x="50.2412" y="-61.5" font-family="Helvetica,sans-Serif" font-size="10.00" fill="#000000">string</text>
</g>
<!-- Node1&#45;&gt;Node8 -->
<g id="edge3" class="edge">
<title>Node1&#45;&gt;Node8</title>
<path fill="none" stroke="#191970" d="M50.2412,-110.4179C50.2412,-103.2164 50.2412,-92.8962 50.2412,-83.8632"/>
<polygon fill="#191970" stroke="#191970" points="53.7413,-83.7794 50.2412,-73.7795 46.7413,-83.7795 53.7413,-83.7794"/>
</g>
<!-- Node11 -->
<g id="node5" class="node">
<title>Node11</title>
<g id="a_node5"><a xlink:href="_chunk_8h.html" target="_top" xlink:title="../../Stream/Chunk.h">
<polygon fill="none" stroke="#ff0000" points="88.7783,-55.5 88.7783,-73.5 193.7041,-73.5 193.7041,-55.5 88.7783,-55.5"/>
<text text-anchor="middle" x="141.2412" y="-61.5" font-family="Helvetica,sans-Serif" font-size="10.00" fill="#000000">../../Stream/Chunk.h</text>
</a>
</g>
</g>
<!-- Node1&#45;&gt;Node11 -->
<g id="edge4" class="edge">
<title>Node1&#45;&gt;Node11</title>
<path fill="none" stroke="#191970" d="M65.268,-110.4179C79.4943,-101.8195 101.0765,-88.7754 117.607,-78.7844"/>
<polygon fill="#191970" stroke="#191970" points="119.4442,-81.7637 126.1921,-73.5956 115.8234,-75.7729 119.4442,-81.7637"/>
</g>
<!-- Node11&#45;&gt;Node2 -->
<g id="edge5" class="edge">
<title>Node11&#45;&gt;Node2</title>
<path fill="none" stroke="#191970" d="M129.6821,-55.4179C119.2072,-47.1876 103.548,-34.8839 91.0748,-25.0836"/>
<polygon fill="#191970" stroke="#191970" points="93.077,-22.2056 83.0514,-18.7795 88.7522,-27.7098 93.077,-22.2056"/>
</g>
</g>
</svg>
