<?xml version="1.0" encoding="UTF-8" standalone="no"?>
<!DOCTYPE svg PUBLIC "-//W3C//DTD SVG 1.1//EN"
 "http://www.w3.org/Graphics/SVG/1.1/DTD/svg11.dtd">
<!-- Generated by graphviz version 2.40.1 (20161225.0304)
 -->
<!-- Title: libnolimits/NL1/Track/Track.cpp Pages: 1 -->
<svg width="460pt" height="312pt"
 viewBox="0.00 0.00 459.58 312.00" xmlns="http://www.w3.org/2000/svg" xmlns:xlink="http://www.w3.org/1999/xlink">
<g id="graph0" class="graph" transform="scale(1 1) rotate(0) translate(4 308)">
<title>libnolimits/NL1/Track/Track.cpp</title>
<!-- Node0 -->
<g id="node1" class="node">
<title>Node0</title>
<polygon fill="#bfbfbf" stroke="#000000" points="209.3025,-275.5 209.3025,-303.5 317.739,-303.5 317.739,-275.5 209.3025,-275.5"/>
<text text-anchor="start" x="217.3025" y="-291.5" font-family="Helvetica,sans-Serif" font-size="10.00" fill="#000000">libnolimits/NL1/Track</text>
<text text-anchor="middle" x="263.5208" y="-281.5" font-family="Helvetica,sans-Serif" font-size="10.00" fill="#000000">/Track.cpp</text>
</g>
<!-- Node1 -->
<g id="node2" class="node">
<title>Node1</title>
<g id="a_node2"><a xlink:href="_n_l1_2_track_2_track_8h.html" target="_top" xlink:title="Track.h">
<polygon fill="none" stroke="#000000" points="92.0339,-220.5 92.0339,-238.5 141.0076,-238.5 141.0076,-220.5 92.0339,-220.5"/>
<text text-anchor="middle" x="116.5208" y="-226.5" font-family="Helvetica,sans-Serif" font-size="10.00" fill="#000000">Track.h</text>
</a>
</g>
</g>
<!-- Node0&#45;&gt;Node1 -->
<g id="edge1" class="edge">
<title>Node0&#45;&gt;Node1</title>
<path fill="none" stroke="#191970" d="M229.0558,-275.4327C204.592,-265.4474 172.0005,-252.1448 148.1895,-242.426"/>
<polygon fill="#191970" stroke="#191970" points="149.473,-239.1696 138.8919,-238.6311 146.8277,-245.6506 149.473,-239.1696"/>
</g>
<!-- Node22 -->
<g id="node9" class="node">
<title>Node22</title>
<g id="a_node9"><a xlink:href="_normal_file_8h.html" target="_top" xlink:title="../../File/NormalFile.h">
<polygon fill="none" stroke="#000000" points="209.4001,-220.5 209.4001,-238.5 317.6414,-238.5 317.6414,-220.5 209.4001,-220.5"/>
<text text-anchor="middle" x="263.5208" y="-226.5" font-family="Helvetica,sans-Serif" font-size="10.00" fill="#000000">../../File/NormalFile.h</text>
</a>
</g>
</g>
<!-- Node0&#45;&gt;Node22 -->
<g id="edge14" class="edge">
<title>Node0&#45;&gt;Node22</title>
<path fill="none" stroke="#191970" d="M263.5208,-275.2808C263.5208,-267.3776 263.5208,-257.4316 263.5208,-248.8308"/>
<polygon fill="#191970" stroke="#191970" points="267.0209,-248.5842 263.5208,-238.5842 260.0209,-248.5842 267.0209,-248.5842"/>
</g>
<!-- Node24 -->
<g id="node11" class="node">
<title>Node24</title>
<g id="a_node11"><a xlink:href="_memory_file_8h.html" target="_top" xlink:title="../../File/MemoryFile.h">
<polygon fill="none" stroke="#000000" points="339.4568,-165.5 339.4568,-183.5 451.5847,-183.5 451.5847,-165.5 339.4568,-165.5"/>
<text text-anchor="middle" x="395.5208" y="-171.5" font-family="Helvetica,sans-Serif" font-size="10.00" fill="#000000">../../File/MemoryFile.h</text>
</a>
</g>
</g>
<!-- Node0&#45;&gt;Node24 -->
<g id="edge17" class="edge">
<title>Node0&#45;&gt;Node24</title>
<path fill="none" stroke="#191970" d="M281.7404,-275.4898C294.484,-265.5474 311.7916,-251.7554 326.5208,-239 344.7582,-223.2065 364.8232,-204.2627 378.5915,-191.006"/>
<polygon fill="#191970" stroke="#191970" points="381.1568,-193.3939 385.909,-183.9246 376.2889,-188.3637 381.1568,-193.3939"/>
</g>
<!-- Node2 -->
<g id="node3" class="node">
<title>Node2</title>
<g id="a_node3"><a xlink:href="_nolimits_8h.html" target="_top" xlink:title="../../Nolimits.h">
<polygon fill="none" stroke="#ff0000" points="93.2376,-.5 93.2376,-18.5 169.804,-18.5 169.804,-.5 93.2376,-.5"/>
<text text-anchor="middle" x="131.5208" y="-6.5" font-family="Helvetica,sans-Serif" font-size="10.00" fill="#000000">../../Nolimits.h</text>
</a>
</g>
</g>
<!-- Node1&#45;&gt;Node2 -->
<g id="edge2" class="edge">
<title>Node1&#45;&gt;Node2</title>
<path fill="none" stroke="#191970" d="M92.0037,-227.5082C64.9139,-223.8474 22.4832,-213.4612 2.5208,-184 -2.2161,-177.0092 1.9114,-173.4224 2.5208,-165 4.3032,-140.3627 -1.561,-131.5454 10.5208,-110 32.4806,-70.8388 76.1429,-40.5258 104.5732,-23.8487"/>
<polygon fill="#191970" stroke="#191970" points="106.6187,-26.7117 113.5776,-18.7226 103.1555,-20.6284 106.6187,-26.7117"/>
</g>
<!-- Node11 -->
<g id="node4" class="node">
<title>Node11</title>
<g id="a_node4"><a xlink:href="_chunk_8h.html" target="_top" xlink:title="../../Stream/Chunk.h">
<polygon fill="none" stroke="#ff0000" points="19.0579,-110.5 19.0579,-128.5 123.9836,-128.5 123.9836,-110.5 19.0579,-110.5"/>
<text text-anchor="middle" x="71.5208" y="-116.5" font-family="Helvetica,sans-Serif" font-size="10.00" fill="#000000">../../Stream/Chunk.h</text>
</a>
</g>
</g>
<!-- Node1&#45;&gt;Node11 -->
<g id="edge3" class="edge">
<title>Node1&#45;&gt;Node11</title>
<path fill="none" stroke="#191970" d="M112.8382,-220.4982C105.4876,-202.5302 88.8643,-161.8954 79.0908,-138.0046"/>
<polygon fill="#191970" stroke="#191970" points="82.28,-136.5564 75.2542,-128.6261 75.8012,-139.2069 82.28,-136.5564"/>
</g>
<!-- Node18 -->
<g id="node6" class="node">
<title>Node18</title>
<g id="a_node6"><a xlink:href="_n_l1_2_info_2_info_8h.html" target="_top" xlink:title="../Info/Info.h">
<polygon fill="none" stroke="#ff0000" points="113.1145,-165.5 113.1145,-183.5 181.927,-183.5 181.927,-165.5 113.1145,-165.5"/>
<text text-anchor="middle" x="147.5208" y="-171.5" font-family="Helvetica,sans-Serif" font-size="10.00" fill="#000000">../Info/Info.h</text>
</a>
</g>
</g>
<!-- Node1&#45;&gt;Node18 -->
<g id="edge7" class="edge">
<title>Node1&#45;&gt;Node18</title>
<path fill="none" stroke="#191970" d="M121.6398,-220.4179C125.8772,-212.8998 132.0304,-201.9829 137.2739,-192.6799"/>
<polygon fill="#191970" stroke="#191970" points="140.4294,-194.2096 142.2905,-183.7795 134.3313,-190.7724 140.4294,-194.2096"/>
</g>
<!-- Node8 -->
<g id="node7" class="node">
<title>Node8</title>
<polygon fill="none" stroke="#bfbfbf" points="179.2942,-110.5 179.2942,-128.5 219.7473,-128.5 219.7473,-110.5 179.2942,-110.5"/>
<text text-anchor="middle" x="199.5208" y="-116.5" font-family="Helvetica,sans-Serif" font-size="10.00" fill="#000000">string</text>
</g>
<!-- Node1&#45;&gt;Node8 -->
<g id="edge13" class="edge">
<title>Node1&#45;&gt;Node8</title>
<path fill="none" stroke="#191970" d="M141.2155,-220.8251C157.9179,-213.6228 178.966,-201.6717 190.5208,-184 199.2219,-170.6925 201.0794,-152.5423 200.9864,-138.8852"/>
<polygon fill="#191970" stroke="#191970" points="204.4742,-138.5191 200.5569,-128.675 197.4803,-138.8133 204.4742,-138.5191"/>
</g>
<!-- Node19 -->
<g id="node8" class="node">
<title>Node19</title>
<g id="a_node8"><a xlink:href="_n_l1_2_track_2_train_8h.html" target="_top" xlink:title="Train.h">
<polygon fill="none" stroke="#ff0000" points="11.1423,-165.5 11.1423,-183.5 57.8992,-183.5 57.8992,-165.5 11.1423,-165.5"/>
<text text-anchor="middle" x="34.5208" y="-171.5" font-family="Helvetica,sans-Serif" font-size="10.00" fill="#000000">Train.h</text>
</a>
</g>
</g>
<!-- Node1&#45;&gt;Node19 -->
<g id="edge11" class="edge">
<title>Node1&#45;&gt;Node19</title>
<path fill="none" stroke="#191970" d="M102.9801,-220.4179C90.3982,-211.9788 71.4312,-199.257 56.6497,-189.3426"/>
<polygon fill="#191970" stroke="#191970" points="58.336,-186.2593 48.0815,-183.5956 54.4368,-192.0727 58.336,-186.2593"/>
</g>
<!-- Node11&#45;&gt;Node2 -->
<g id="edge6" class="edge">
<title>Node11&#45;&gt;Node2</title>
<path fill="none" stroke="#191970" d="M76.4308,-110.4982C86.2755,-92.4496 108.595,-51.5306 121.6021,-27.6843"/>
<polygon fill="#191970" stroke="#191970" points="124.8269,-29.0811 126.5429,-18.6261 118.6816,-25.7291 124.8269,-29.0811"/>
</g>
<!-- Node12 -->
<g id="node5" class="node">
<title>Node12</title>
<g id="a_node5"><a xlink:href="_file_8h.html" target="_top" xlink:title="../File/File.h">
<polygon fill="none" stroke="#ff0000" points="196.6809,-55.5 196.6809,-73.5 264.3606,-73.5 264.3606,-55.5 196.6809,-55.5"/>
<text text-anchor="middle" x="230.5208" y="-61.5" font-family="Helvetica,sans-Serif" font-size="10.00" fill="#000000">../File/File.h</text>
</a>
</g>
</g>
<!-- Node11&#45;&gt;Node12 -->
<g id="edge4" class="edge">
<title>Node11&#45;&gt;Node12</title>
<path fill="none" stroke="#191970" d="M97.7764,-110.4179C124.3237,-101.2348 165.531,-86.9807 194.9889,-76.7909"/>
<polygon fill="#191970" stroke="#191970" points="196.184,-80.081 204.4904,-73.5042 193.8956,-73.4656 196.184,-80.081"/>
</g>
<!-- Node12&#45;&gt;Node2 -->
<g id="edge5" class="edge">
<title>Node12&#45;&gt;Node2</title>
<path fill="none" stroke="#191970" d="M214.1729,-55.4179C198.5526,-46.7399 174.7809,-33.5334 156.7346,-23.5077"/>
<polygon fill="#191970" stroke="#191970" points="158.3342,-20.3925 147.8929,-18.5956 154.9347,-26.5117 158.3342,-20.3925"/>
</g>
<!-- Node18&#45;&gt;Node2 -->
<g id="edge8" class="edge">
<title>Node18&#45;&gt;Node2</title>
<path fill="none" stroke="#191970" d="M146.6147,-165.1561C144.0735,-138.9504 136.8401,-64.3557 133.3925,-28.8021"/>
<polygon fill="#191970" stroke="#191970" points="136.8658,-28.3569 132.4169,-18.7414 129.8985,-29.0325 136.8658,-28.3569"/>
</g>
<!-- Node18&#45;&gt;Node11 -->
<g id="edge9" class="edge">
<title>Node18&#45;&gt;Node11</title>
<path fill="none" stroke="#191970" d="M134.9709,-165.4179C123.4196,-157.0584 106.0615,-144.4966 92.4192,-134.6239"/>
<polygon fill="#191970" stroke="#191970" points="94.2424,-131.6229 84.0893,-128.5956 90.1385,-137.2938 94.2424,-131.6229"/>
</g>
<!-- Node18&#45;&gt;Node8 -->
<g id="edge10" class="edge">
<title>Node18&#45;&gt;Node8</title>
<path fill="none" stroke="#191970" d="M156.1075,-165.4179C163.5896,-157.5041 174.6323,-145.8243 183.7079,-136.2251"/>
<polygon fill="#191970" stroke="#191970" points="186.4206,-138.4505 190.7475,-128.7795 181.334,-133.6414 186.4206,-138.4505"/>
</g>
<!-- Node19&#45;&gt;Node11 -->
<g id="edge12" class="edge">
<title>Node19&#45;&gt;Node11</title>
<path fill="none" stroke="#191970" d="M40.6306,-165.4179C45.7946,-157.7415 53.3425,-146.5217 59.6845,-137.0945"/>
<polygon fill="#191970" stroke="#191970" points="62.6004,-139.0303 65.2782,-128.7795 56.7924,-135.1231 62.6004,-139.0303"/>
</g>
<!-- Node22&#45;&gt;Node12 -->
<g id="edge15" class="edge">
<title>Node22&#45;&gt;Node12</title>
<path fill="none" stroke="#191970" d="M261.652,-220.1561C256.4108,-193.9504 241.4919,-119.3557 234.3812,-83.8021"/>
<polygon fill="#191970" stroke="#191970" points="237.7623,-82.8608 232.369,-73.7414 230.8982,-84.2336 237.7623,-82.8608"/>
</g>
<!-- Node23 -->
<g id="node10" class="node">
<title>Node23</title>
<polygon fill="none" stroke="#bfbfbf" points="275.7893,-165.5 275.7893,-183.5 321.2522,-183.5 321.2522,-165.5 275.7893,-165.5"/>
<text text-anchor="middle" x="298.5208" y="-171.5" font-family="Helvetica,sans-Serif" font-size="10.00" fill="#000000">stdio.h</text>
</g>
<!-- Node22&#45;&gt;Node23 -->
<g id="edge16" class="edge">
<title>Node22&#45;&gt;Node23</title>
<path fill="none" stroke="#191970" d="M269.3003,-220.4179C274.1349,-212.8207 281.1781,-201.7527 287.1384,-192.3866"/>
<polygon fill="#191970" stroke="#191970" points="290.1997,-194.0952 292.6156,-183.7795 284.294,-190.337 290.1997,-194.0952"/>
</g>
<!-- Node24&#45;&gt;Node12 -->
<g id="edge18" class="edge">
<title>Node24&#45;&gt;Node12</title>
<path fill="none" stroke="#191970" d="M382.0181,-165.4982C353.6157,-146.5633 287.4556,-102.4566 252.7199,-79.2994"/>
<polygon fill="#191970" stroke="#191970" points="254.472,-76.261 244.21,-73.6261 250.589,-82.0854 254.472,-76.261"/>
</g>
<!-- Node24&#45;&gt;Node8 -->
<g id="edge19" class="edge">
<title>Node24&#45;&gt;Node8</title>
<path fill="none" stroke="#191970" d="M363.1553,-165.4179C326.144,-155.032 266.0173,-138.1597 229.8708,-128.0166"/>
<polygon fill="#191970" stroke="#191970" points="230.4865,-124.5543 219.9128,-125.2223 228.5953,-131.2939 230.4865,-124.5543"/>
</g>
</g>
</svg>
