<?xml version="1.0" encoding="UTF-8" standalone="no"?>
<!DOCTYPE svg PUBLIC "-//W3C//DTD SVG 1.1//EN"
 "http://www.w3.org/Graphics/SVG/1.1/DTD/svg11.dtd">
<!-- Generated by graphviz version 2.40.1 (20161225.0304)
 -->
<!-- Title: libnolimits/NL2/Coaster/Track/Section/Brake.h Pages: 1 -->
<svg width="356pt" height="232pt"
 viewBox="0.00 0.00 356.25 232.00" xmlns="http://www.w3.org/2000/svg" xmlns:xlink="http://www.w3.org/1999/xlink">
<g id="graph0" class="graph" transform="scale(1 1) rotate(0) translate(4 228)">
<title>libnolimits/NL2/Coaster/Track/Section/Brake.h</title>
<!-- Node20 -->
<g id="node1" class="node">
<title>Node20</title>
<polygon fill="#bfbfbf" stroke="#000000" points="164.5483,-195.5 164.5483,-223.5 283.3657,-223.5 283.3657,-195.5 164.5483,-195.5"/>
<text text-anchor="start" x="172.5483" y="-211.5" font-family="Helvetica,sans-Serif" font-size="10.00" fill="#000000">libnolimits/NL2/Coaster</text>
<text text-anchor="middle" x="223.957" y="-201.5" font-family="Helvetica,sans-Serif" font-size="10.00" fill="#000000">/Track/Section/Brake.h</text>
</g>
<!-- Node21 -->
<g id="node2" class="node">
<title>Node21</title>
<g id="a_node2"><a xlink:href="_n_l2_2_coaster_2_track_2_section_2_brake_8cpp.html" target="_top" xlink:title="libnolimits/NL2/Coaster\l/Track/Section/Brake.cpp">
<polygon fill="none" stroke="#000000" points="5.2832,-130.5 5.2832,-158.5 132.6309,-158.5 132.6309,-130.5 5.2832,-130.5"/>
<text text-anchor="start" x="13.2832" y="-146.5" font-family="Helvetica,sans-Serif" font-size="10.00" fill="#000000">libnolimits/NL2/Coaster</text>
<text text-anchor="middle" x="68.957" y="-136.5" font-family="Helvetica,sans-Serif" font-size="10.00" fill="#000000">/Track/Section/Brake.cpp</text>
</a>
</g>
</g>
<!-- Node20&#45;&gt;Node21 -->
<g id="edge1" class="edge">
<title>Node20&#45;&gt;Node21</title>
<path fill="none" stroke="#191970" d="M180.8112,-191.4066C156.0656,-181.0294 125.4614,-168.1954 102.5241,-158.5765"/>
<polygon fill="#191970" stroke="#191970" points="179.7488,-194.7563 190.3243,-195.396 182.456,-188.301 179.7488,-194.7563"/>
</g>
<!-- Node22 -->
<g id="node3" class="node">
<title>Node22</title>
<g id="a_node3"><a xlink:href="_brake_device_8h.html" target="_top" xlink:title="libnolimits/NL2/Coaster\l/Track/Section/BrakeDevice.h">
<polygon fill="none" stroke="#000000" points="150.2808,-130.5 150.2808,-158.5 297.6333,-158.5 297.6333,-130.5 150.2808,-130.5"/>
<text text-anchor="start" x="158.2808" y="-146.5" font-family="Helvetica,sans-Serif" font-size="10.00" fill="#000000">libnolimits/NL2/Coaster</text>
<text text-anchor="middle" x="223.957" y="-136.5" font-family="Helvetica,sans-Serif" font-size="10.00" fill="#000000">/Track/Section/BrakeDevice.h</text>
</a>
</g>
</g>
<!-- Node20&#45;&gt;Node22 -->
<g id="edge2" class="edge">
<title>Node20&#45;&gt;Node22</title>
<path fill="none" stroke="#191970" d="M223.957,-185.1081C223.957,-176.1539 223.957,-166.3227 223.957,-158.5765"/>
<polygon fill="#191970" stroke="#191970" points="220.4571,-185.3959 223.957,-195.396 227.4571,-185.396 220.4571,-185.3959"/>
</g>
<!-- Node25 -->
<g id="node6" class="node">
<title>Node25</title>
<g id="a_node6"><a xlink:href="_n_l2_2_coaster_2_track_2_section_2_section_8cpp.html" target="_top" xlink:title="libnolimits/NL2/Coaster\l/Track/Section/Section.cpp">
<polygon fill="none" stroke="#000000" points="213.6675,-.5 213.6675,-28.5 348.2466,-28.5 348.2466,-.5 213.6675,-.5"/>
<text text-anchor="start" x="221.6675" y="-16.5" font-family="Helvetica,sans-Serif" font-size="10.00" fill="#000000">libnolimits/NL2/Coaster</text>
<text text-anchor="middle" x="280.957" y="-6.5" font-family="Helvetica,sans-Serif" font-size="10.00" fill="#000000">/Track/Section/Section.cpp</text>
</a>
</g>
</g>
<!-- Node20&#45;&gt;Node25 -->
<g id="edge6" class="edge">
<title>Node20&#45;&gt;Node25</title>
<path fill="none" stroke="#191970" d="M272.8384,-190.707C286.3004,-183.0098 299.2956,-172.6295 306.957,-159 327.4285,-122.5816 316.7955,-105.6028 306.957,-65 303.7988,-51.9661 296.6583,-38.5282 290.658,-28.7942"/>
<polygon fill="#191970" stroke="#191970" points="271.1858,-187.6216 263.9759,-195.3848 274.4534,-193.8121 271.1858,-187.6216"/>
</g>
<!-- Node23 -->
<g id="node4" class="node">
<title>Node23</title>
<g id="a_node4"><a xlink:href="_brake_device_8cpp.html" target="_top" xlink:title="libnolimits/NL2/Coaster\l/Track/Section/BrakeDevice.cpp">
<polygon fill="none" stroke="#000000" points="0,-65.5 0,-93.5 157.9141,-93.5 157.9141,-65.5 0,-65.5"/>
<text text-anchor="start" x="8" y="-81.5" font-family="Helvetica,sans-Serif" font-size="10.00" fill="#000000">libnolimits/NL2/Coaster</text>
<text text-anchor="middle" x="78.957" y="-71.5" font-family="Helvetica,sans-Serif" font-size="10.00" fill="#000000">/Track/Section/BrakeDevice.cpp</text>
</a>
</g>
</g>
<!-- Node22&#45;&gt;Node23 -->
<g id="edge3" class="edge">
<title>Node22&#45;&gt;Node23</title>
<path fill="none" stroke="#191970" d="M183.2872,-126.2687C160.1924,-115.9159 131.7211,-103.1528 110.3585,-93.5765"/>
<polygon fill="#191970" stroke="#191970" points="181.9374,-129.4991 192.4942,-130.396 184.8008,-123.1116 181.9374,-129.4991"/>
</g>
<!-- Node24 -->
<g id="node5" class="node">
<title>Node24</title>
<g id="a_node5"><a xlink:href="_n_l2_2_coaster_2_track_2_section_2_station_8h.html" target="_top" xlink:title="libnolimits/NL2/Coaster\l/Track/Section/Station.h">
<polygon fill="none" stroke="#ff0000" points="176.0591,-65.5 176.0591,-93.5 297.855,-93.5 297.855,-65.5 176.0591,-65.5"/>
<text text-anchor="start" x="184.0591" y="-81.5" font-family="Helvetica,sans-Serif" font-size="10.00" fill="#000000">libnolimits/NL2/Coaster</text>
<text text-anchor="middle" x="236.957" y="-71.5" font-family="Helvetica,sans-Serif" font-size="10.00" fill="#000000">/Track/Section/Station.h</text>
</a>
</g>
</g>
<!-- Node22&#45;&gt;Node24 -->
<g id="edge4" class="edge">
<title>Node22&#45;&gt;Node24</title>
<path fill="none" stroke="#191970" d="M228.7764,-120.4029C230.583,-111.3703 232.5755,-101.4078 234.1417,-93.5765"/>
<polygon fill="#191970" stroke="#191970" points="225.307,-119.9037 226.7778,-130.396 232.1711,-121.2766 225.307,-119.9037"/>
</g>
<!-- Node24&#45;&gt;Node25 -->
<g id="edge5" class="edge">
<title>Node24&#45;&gt;Node25</title>
<path fill="none" stroke="#191970" d="M252.2779,-56.8669C258.646,-47.4594 265.839,-36.8334 271.4283,-28.5765"/>
<polygon fill="#191970" stroke="#191970" points="249.2117,-55.1529 246.5044,-65.396 255.0085,-59.0769 249.2117,-55.1529"/>
</g>
</g>
</svg>
