<?xml version="1.0" encoding="UTF-8" standalone="no"?>
<!DOCTYPE svg PUBLIC "-//W3C//DTD SVG 1.1//EN"
 "http://www.w3.org/Graphics/SVG/1.1/DTD/svg11.dtd">
<!-- Generated by graphviz version 2.40.1 (20161225.0304)
 -->
<!-- Title: libnolimits/NL1/Track/Section/Brake.cpp Pages: 1 -->
<svg width="182pt" height="147pt"
 viewBox="0.00 0.00 181.51 147.00" xmlns="http://www.w3.org/2000/svg" xmlns:xlink="http://www.w3.org/1999/xlink">
<g id="graph0" class="graph" transform="scale(1 1) rotate(0) translate(4 143)">
<title>libnolimits/NL1/Track/Section/Brake.cpp</title>
<!-- Node0 -->
<g id="node1" class="node">
<title>Node0</title>
<polygon fill="#bfbfbf" stroke="#000000" points="22.6289,-110.5 22.6289,-138.5 131.0654,-138.5 131.0654,-110.5 22.6289,-110.5"/>
<text text-anchor="start" x="30.6289" y="-126.5" font-family="Helvetica,sans-Serif" font-size="10.00" fill="#000000">libnolimits/NL1/Track</text>
<text text-anchor="middle" x="76.8472" y="-116.5" font-family="Helvetica,sans-Serif" font-size="10.00" fill="#000000">/Section/Brake.cpp</text>
</g>
<!-- Node1 -->
<g id="node2" class="node">
<title>Node1</title>
<g id="a_node2"><a xlink:href="_n_l1_2_track_2_section_2_brake_8h.html" target="_top" xlink:title="Brake.h">
<polygon fill="none" stroke="#000000" points="51.6157,-55.5 51.6157,-73.5 102.0786,-73.5 102.0786,-55.5 51.6157,-55.5"/>
<text text-anchor="middle" x="76.8472" y="-61.5" font-family="Helvetica,sans-Serif" font-size="10.00" fill="#000000">Brake.h</text>
</a>
</g>
</g>
<!-- Node0&#45;&gt;Node1 -->
<g id="edge1" class="edge">
<title>Node0&#45;&gt;Node1</title>
<path fill="none" stroke="#191970" d="M76.8472,-110.2808C76.8472,-102.3776 76.8472,-92.4316 76.8472,-83.8308"/>
<polygon fill="#191970" stroke="#191970" points="80.3473,-83.5842 76.8472,-73.5842 73.3473,-83.5842 80.3473,-83.5842"/>
</g>
<!-- Node2 -->
<g id="node3" class="node">
<title>Node2</title>
<g id="a_node3"><a xlink:href="_n_l1_2_track_2_section_2_section_8h.html" target="_top" xlink:title="Section.h">
<polygon fill="none" stroke="#ff0000" points="0,-.5 0,-18.5 57.6943,-18.5 57.6943,-.5 0,-.5"/>
<text text-anchor="middle" x="28.8472" y="-6.5" font-family="Helvetica,sans-Serif" font-size="10.00" fill="#000000">Section.h</text>
</a>
</g>
</g>
<!-- Node1&#45;&gt;Node2 -->
<g id="edge2" class="edge">
<title>Node1&#45;&gt;Node2</title>
<path fill="none" stroke="#191970" d="M68.9209,-55.4179C62.0835,-47.5833 52.0246,-36.0575 43.6955,-26.5137"/>
<polygon fill="#191970" stroke="#191970" points="46.158,-24.0123 36.9456,-18.7795 40.884,-28.6151 46.158,-24.0123"/>
</g>
<!-- Node19 -->
<g id="node4" class="node">
<title>Node19</title>
<g id="a_node4"><a xlink:href="_n_l1_2_track_2_section_2_transport_device_8h.html" target="_top" xlink:title="TransportDevice.h">
<polygon fill="none" stroke="#ff0000" points="76.1807,-.5 76.1807,-18.5 173.5137,-18.5 173.5137,-.5 76.1807,-.5"/>
<text text-anchor="middle" x="124.8472" y="-6.5" font-family="Helvetica,sans-Serif" font-size="10.00" fill="#000000">TransportDevice.h</text>
</a>
</g>
</g>
<!-- Node1&#45;&gt;Node19 -->
<g id="edge3" class="edge">
<title>Node1&#45;&gt;Node19</title>
<path fill="none" stroke="#191970" d="M84.7734,-55.4179C91.6109,-47.5833 101.6697,-36.0575 109.9989,-26.5137"/>
<polygon fill="#191970" stroke="#191970" points="112.8104,-28.6151 116.7487,-18.7795 107.5364,-24.0123 112.8104,-28.6151"/>
</g>
</g>
</svg>
