<?xml version="1.0" encoding="UTF-8" standalone="no"?>
<!DOCTYPE svg PUBLIC "-//W3C//DTD SVG 1.1//EN"
 "http://www.w3.org/Graphics/SVG/1.1/DTD/svg11.dtd">
<!-- Generated by graphviz version 2.40.1 (20161225.0304)
 -->
<!-- Title: libnolimits/NL1/Track/Track.h Pages: 1 -->
<svg width="258pt" height="167pt"
 viewBox="0.00 0.00 257.57 167.00" xmlns="http://www.w3.org/2000/svg" xmlns:xlink="http://www.w3.org/1999/xlink">
<g id="graph0" class="graph" transform="scale(1 1) rotate(0) translate(4 163)">
<title>libnolimits/NL1/Track/Track.h</title>
<!-- Node21 -->
<g id="node1" class="node">
<title>Node21</title>
<polygon fill="#bfbfbf" stroke="#000000" points="74.1313,-130.5 74.1313,-158.5 182.5679,-158.5 182.5679,-130.5 74.1313,-130.5"/>
<text text-anchor="start" x="82.1313" y="-146.5" font-family="Helvetica,sans-Serif" font-size="10.00" fill="#000000">libnolimits/NL1/Track</text>
<text text-anchor="middle" x="128.3496" y="-136.5" font-family="Helvetica,sans-Serif" font-size="10.00" fill="#000000">/Track.h</text>
</g>
<!-- Node22 -->
<g id="node2" class="node">
<title>Node22</title>
<g id="a_node2"><a xlink:href="_no_limits_track_8h.html" target="_top" xlink:title="libnolimits/NL1/NoLimits\lTrack.h">
<polygon fill="none" stroke="#000000" points="0,-65.5 0,-93.5 122.6992,-93.5 122.6992,-65.5 0,-65.5"/>
<text text-anchor="start" x="8" y="-81.5" font-family="Helvetica,sans-Serif" font-size="10.00" fill="#000000">libnolimits/NL1/NoLimits</text>
<text text-anchor="middle" x="61.3496" y="-71.5" font-family="Helvetica,sans-Serif" font-size="10.00" fill="#000000">Track.h</text>
</a>
</g>
</g>
<!-- Node21&#45;&gt;Node22 -->
<g id="edge1" class="edge">
<title>Node21&#45;&gt;Node22</title>
<path fill="none" stroke="#191970" d="M106.5091,-123.3115C96.4588,-113.5612 84.8089,-102.259 75.8592,-93.5765"/>
<polygon fill="#191970" stroke="#191970" points="104.1971,-125.9449 113.8116,-130.396 109.0713,-120.9207 104.1971,-125.9449"/>
</g>
<!-- Node24 -->
<g id="node4" class="node">
<title>Node24</title>
<g id="a_node4"><a xlink:href="_n_l1_2_track_2_track_8cpp.html" target="_top" xlink:title="libnolimits/NL1/Track\l/Track.cpp">
<polygon fill="none" stroke="#000000" points="141.1313,-65.5 141.1313,-93.5 249.5679,-93.5 249.5679,-65.5 141.1313,-65.5"/>
<text text-anchor="start" x="149.1313" y="-81.5" font-family="Helvetica,sans-Serif" font-size="10.00" fill="#000000">libnolimits/NL1/Track</text>
<text text-anchor="middle" x="195.3496" y="-71.5" font-family="Helvetica,sans-Serif" font-size="10.00" fill="#000000">/Track.cpp</text>
</a>
</g>
</g>
<!-- Node21&#45;&gt;Node24 -->
<g id="edge3" class="edge">
<title>Node21&#45;&gt;Node24</title>
<path fill="none" stroke="#191970" d="M150.1901,-123.3115C160.2404,-113.5612 171.8903,-102.259 180.84,-93.5765"/>
<polygon fill="#191970" stroke="#191970" points="147.6279,-120.9207 142.8876,-130.396 152.5021,-125.9449 147.6279,-120.9207"/>
</g>
<!-- Node23 -->
<g id="node3" class="node">
<title>Node23</title>
<g id="a_node3"><a xlink:href="_no_limits_track_8cpp.html" target="_top" xlink:title="libnolimits/NL1/NoLimits\lTrack.cpp">
<polygon fill="none" stroke="#000000" points="0,-.5 0,-28.5 122.6992,-28.5 122.6992,-.5 0,-.5"/>
<text text-anchor="start" x="8" y="-16.5" font-family="Helvetica,sans-Serif" font-size="10.00" fill="#000000">libnolimits/NL1/NoLimits</text>
<text text-anchor="middle" x="61.3496" y="-6.5" font-family="Helvetica,sans-Serif" font-size="10.00" fill="#000000">Track.cpp</text>
</a>
</g>
</g>
<!-- Node22&#45;&gt;Node23 -->
<g id="edge2" class="edge">
<title>Node22&#45;&gt;Node23</title>
<path fill="none" stroke="#191970" d="M61.3496,-55.1081C61.3496,-46.1539 61.3496,-36.3227 61.3496,-28.5765"/>
<polygon fill="#191970" stroke="#191970" points="57.8497,-55.3959 61.3496,-65.396 64.8497,-55.396 57.8497,-55.3959"/>
</g>
</g>
</svg>
