<?xml version="1.0" encoding="UTF-8" standalone="no"?>
<!DOCTYPE svg PUBLIC "-//W3C//DTD SVG 1.1//EN"
 "http://www.w3.org/Graphics/SVG/1.1/DTD/svg11.dtd">
<!-- Generated by graphviz version 2.40.1 (20161225.0304)
 -->
<!-- Title: libnolimits/NL2/Coaster/IndividualColor.cpp Pages: 1 -->
<svg width="224pt" height="147pt"
 viewBox="0.00 0.00 223.64 147.00" xmlns="http://www.w3.org/2000/svg" xmlns:xlink="http://www.w3.org/1999/xlink">
<g id="graph0" class="graph" transform="scale(1 1) rotate(0) translate(4 143)">
<title>libnolimits/NL2/Coaster/IndividualColor.cpp</title>
<!-- Node0 -->
<g id="node1" class="node">
<title>Node0</title>
<polygon fill="#bfbfbf" stroke="#000000" points="84.0542,-110.5 84.0542,-138.5 202.8716,-138.5 202.8716,-110.5 84.0542,-110.5"/>
<text text-anchor="start" x="92.0542" y="-126.5" font-family="Helvetica,sans-Serif" font-size="10.00" fill="#000000">libnolimits/NL2/Coaster</text>
<text text-anchor="middle" x="143.4629" y="-116.5" font-family="Helvetica,sans-Serif" font-size="10.00" fill="#000000">/IndividualColor.cpp</text>
</g>
<!-- Node1 -->
<g id="node2" class="node">
<title>Node1</title>
<g id="a_node2"><a xlink:href="_n_l2_2_coaster_2_individual_color_8h.html" target="_top" xlink:title="IndividualColor.h">
<polygon fill="none" stroke="#000000" points="53.4927,-55.5 53.4927,-73.5 143.4331,-73.5 143.4331,-55.5 53.4927,-55.5"/>
<text text-anchor="middle" x="98.4629" y="-61.5" font-family="Helvetica,sans-Serif" font-size="10.00" fill="#000000">IndividualColor.h</text>
</a>
</g>
</g>
<!-- Node0&#45;&gt;Node1 -->
<g id="edge1" class="edge">
<title>Node0&#45;&gt;Node1</title>
<path fill="none" stroke="#191970" d="M132.7985,-110.2808C126.4049,-101.756 118.2287,-90.8545 111.4589,-81.8281"/>
<polygon fill="#191970" stroke="#191970" points="114.0761,-79.4842 105.276,-73.5842 108.4761,-83.6842 114.0761,-79.4842"/>
</g>
<!-- Node11 -->
<g id="node5" class="node">
<title>Node11</title>
<polygon fill="none" stroke="#bfbfbf" points="161.2905,-55.5 161.2905,-73.5 215.6353,-73.5 215.6353,-55.5 161.2905,-55.5"/>
<text text-anchor="middle" x="188.4629" y="-61.5" font-family="Helvetica,sans-Serif" font-size="10.00" fill="#000000">iostream</text>
</g>
<!-- Node0&#45;&gt;Node11 -->
<g id="edge4" class="edge">
<title>Node0&#45;&gt;Node11</title>
<path fill="none" stroke="#191970" d="M154.1273,-110.2808C160.5209,-101.756 168.6971,-90.8545 175.4668,-81.8281"/>
<polygon fill="#191970" stroke="#191970" points="178.4497,-83.6842 181.6497,-73.5842 172.8497,-79.4842 178.4497,-83.6842"/>
</g>
<!-- Node2 -->
<g id="node3" class="node">
<title>Node2</title>
<g id="a_node3"><a xlink:href="_chunk_8h.html" target="_top" xlink:title="../../Stream/Chunk.h">
<polygon fill="none" stroke="#ff0000" points="0,-.5 0,-18.5 104.9258,-18.5 104.9258,-.5 0,-.5"/>
<text text-anchor="middle" x="52.4629" y="-6.5" font-family="Helvetica,sans-Serif" font-size="10.00" fill="#000000">../../Stream/Chunk.h</text>
</a>
</g>
</g>
<!-- Node1&#45;&gt;Node2 -->
<g id="edge2" class="edge">
<title>Node1&#45;&gt;Node2</title>
<path fill="none" stroke="#191970" d="M90.8669,-55.4179C84.3143,-47.5833 74.6746,-36.0575 66.6925,-26.5137"/>
<polygon fill="#191970" stroke="#191970" points="69.3243,-24.2048 60.2239,-18.7795 63.9547,-28.6957 69.3243,-24.2048"/>
</g>
<!-- Node18 -->
<g id="node4" class="node">
<title>Node18</title>
<polygon fill="none" stroke="#bfbfbf" points="122.8472,-.5 122.8472,-18.5 166.0786,-18.5 166.0786,-.5 122.8472,-.5"/>
<text text-anchor="middle" x="144.4629" y="-6.5" font-family="Helvetica,sans-Serif" font-size="10.00" fill="#000000">vector</text>
</g>
<!-- Node1&#45;&gt;Node18 -->
<g id="edge3" class="edge">
<title>Node1&#45;&gt;Node18</title>
<path fill="none" stroke="#191970" d="M106.0589,-55.4179C112.6114,-47.5833 122.2511,-36.0575 130.2333,-26.5137"/>
<polygon fill="#191970" stroke="#191970" points="132.9711,-28.6957 136.7019,-18.7795 127.6015,-24.2048 132.9711,-28.6957"/>
</g>
</g>
</svg>
