<?xml version="1.0" encoding="UTF-8" standalone="no"?>
<!DOCTYPE svg PUBLIC "-//W3C//DTD SVG 1.1//EN"
 "http://www.w3.org/Graphics/SVG/1.1/DTD/svg11.dtd">
<!-- Generated by graphviz version 2.40.1 (20161225.0304)
 -->
<!-- Title: libnolimits/NL1/Track/Section/TransportDevice.cpp Pages: 1 -->
<svg width="155pt" height="147pt"
 viewBox="0.00 0.00 154.81 147.00" xmlns="http://www.w3.org/2000/svg" xmlns:xlink="http://www.w3.org/1999/xlink">
<g id="graph0" class="graph" transform="scale(1 1) rotate(0) translate(4 143)">
<title>libnolimits/NL1/Track/Section/TransportDevice.cpp</title>
<!-- Node0 -->
<g id="node1" class="node">
<title>Node0</title>
<polygon fill="#bfbfbf" stroke="#000000" points="0,-110.5 0,-138.5 146.8057,-138.5 146.8057,-110.5 0,-110.5"/>
<text text-anchor="start" x="8" y="-126.5" font-family="Helvetica,sans-Serif" font-size="10.00" fill="#000000">libnolimits/NL1/Track</text>
<text text-anchor="middle" x="73.4028" y="-116.5" font-family="Helvetica,sans-Serif" font-size="10.00" fill="#000000">/Section/TransportDevice.cpp</text>
</g>
<!-- Node1 -->
<g id="node2" class="node">
<title>Node1</title>
<g id="a_node2"><a xlink:href="_n_l1_2_track_2_section_2_transport_device_8h.html" target="_top" xlink:title="TransportDevice.h">
<polygon fill="none" stroke="#000000" points="24.7363,-55.5 24.7363,-73.5 122.0693,-73.5 122.0693,-55.5 24.7363,-55.5"/>
<text text-anchor="middle" x="73.4028" y="-61.5" font-family="Helvetica,sans-Serif" font-size="10.00" fill="#000000">TransportDevice.h</text>
</a>
</g>
</g>
<!-- Node0&#45;&gt;Node1 -->
<g id="edge1" class="edge">
<title>Node0&#45;&gt;Node1</title>
<path fill="none" stroke="#191970" d="M73.4028,-110.2808C73.4028,-102.3776 73.4028,-92.4316 73.4028,-83.8308"/>
<polygon fill="#191970" stroke="#191970" points="76.9029,-83.5842 73.4028,-73.5842 69.9029,-83.5842 76.9029,-83.5842"/>
</g>
<!-- Node2 -->
<g id="node3" class="node">
<title>Node2</title>
<g id="a_node3"><a xlink:href="_n_l1_2_track_2_section_2_transport_8h.html" target="_top" xlink:title="Transport.h">
<polygon fill="none" stroke="#ff0000" points="40.0195,-.5 40.0195,-18.5 106.7861,-18.5 106.7861,-.5 40.0195,-.5"/>
<text text-anchor="middle" x="73.4028" y="-6.5" font-family="Helvetica,sans-Serif" font-size="10.00" fill="#000000">Transport.h</text>
</a>
</g>
</g>
<!-- Node1&#45;&gt;Node2 -->
<g id="edge2" class="edge">
<title>Node1&#45;&gt;Node2</title>
<path fill="none" stroke="#191970" d="M73.4028,-55.4179C73.4028,-48.2164 73.4028,-37.8962 73.4028,-28.8632"/>
<polygon fill="#191970" stroke="#191970" points="76.9029,-28.7794 73.4028,-18.7795 69.9029,-28.7795 76.9029,-28.7794"/>
</g>
</g>
</svg>
