<?xml version="1.0" encoding="UTF-8" standalone="no"?>
<!DOCTYPE svg PUBLIC "-//W3C//DTD SVG 1.1//EN"
 "http://www.w3.org/Graphics/SVG/1.1/DTD/svg11.dtd">
<!-- Generated by graphviz version 2.40.1 (20161225.0304)
 -->
<!-- Title: libnolimits/NL2/Coaster/Track/Track.h Pages: 1 -->
<svg width="579pt" height="232pt"
 viewBox="0.00 0.00 579.50 232.00" xmlns="http://www.w3.org/2000/svg" xmlns:xlink="http://www.w3.org/1999/xlink">
<g id="graph0" class="graph" transform="scale(1 1) rotate(0) translate(4 228)">
<title>libnolimits/NL2/Coaster/Track/Track.h</title>
<!-- Node18 -->
<g id="node1" class="node">
<title>Node18</title>
<polygon fill="#bfbfbf" stroke="#000000" points="234.6807,-195.5 234.6807,-223.5 353.498,-223.5 353.498,-195.5 234.6807,-195.5"/>
<text text-anchor="start" x="242.6807" y="-211.5" font-family="Helvetica,sans-Serif" font-size="10.00" fill="#000000">libnolimits/NL2/Coaster</text>
<text text-anchor="middle" x="294.0894" y="-201.5" font-family="Helvetica,sans-Serif" font-size="10.00" fill="#000000">/Track/Track.h</text>
</g>
<!-- Node19 -->
<g id="node2" class="node">
<title>Node19</title>
<g id="a_node2"><a xlink:href="_coaster_8h.html" target="_top" xlink:title="libnolimits/NL2/Coaster\l/Coaster.h">
<polygon fill="none" stroke="#000000" points="141.6807,-65.5 141.6807,-93.5 260.498,-93.5 260.498,-65.5 141.6807,-65.5"/>
<text text-anchor="start" x="149.6807" y="-81.5" font-family="Helvetica,sans-Serif" font-size="10.00" fill="#000000">libnolimits/NL2/Coaster</text>
<text text-anchor="middle" x="201.0894" y="-71.5" font-family="Helvetica,sans-Serif" font-size="10.00" fill="#000000">/Coaster.h</text>
</a>
</g>
</g>
<!-- Node18&#45;&gt;Node19 -->
<g id="edge1" class="edge">
<title>Node18&#45;&gt;Node19</title>
<path fill="none" stroke="#191970" d="M277.9582,-186.951C258.7551,-160.1081 227.271,-116.098 211.2065,-93.6423"/>
<polygon fill="#191970" stroke="#191970" points="275.2948,-189.2435 283.9597,-195.3402 280.9879,-185.1707 275.2948,-189.2435"/>
</g>
<!-- Node23 -->
<g id="node5" class="node">
<title>Node23</title>
<g id="a_node5"><a xlink:href="_custom_track_8h.html" target="_top" xlink:title="libnolimits/NL2/Coaster\l/Track/CustomTrack.h">
<polygon fill="none" stroke="#000000" points="104.6807,-130.5 104.6807,-158.5 223.498,-158.5 223.498,-130.5 104.6807,-130.5"/>
<text text-anchor="start" x="112.6807" y="-146.5" font-family="Helvetica,sans-Serif" font-size="10.00" fill="#000000">libnolimits/NL2/Coaster</text>
<text text-anchor="middle" x="164.0894" y="-136.5" font-family="Helvetica,sans-Serif" font-size="10.00" fill="#000000">/Track/CustomTrack.h</text>
</a>
</g>
</g>
<!-- Node18&#45;&gt;Node23 -->
<g id="edge4" class="edge">
<title>Node18&#45;&gt;Node23</title>
<path fill="none" stroke="#191970" d="M256.796,-190.8533C236.2415,-180.5761 211.1397,-168.0252 192.2424,-158.5765"/>
<polygon fill="#191970" stroke="#191970" points="255.3717,-194.0543 265.8813,-195.396 258.5023,-187.7933 255.3717,-194.0543"/>
</g>
<!-- Node25 -->
<g id="node7" class="node">
<title>Node25</title>
<g id="a_node7"><a xlink:href="_special_track_8h.html" target="_top" xlink:title="libnolimits/NL2/Coaster\l/Track/SpecialTrack.h">
<polygon fill="none" stroke="#000000" points="278.6807,-130.5 278.6807,-158.5 397.498,-158.5 397.498,-130.5 278.6807,-130.5"/>
<text text-anchor="start" x="286.6807" y="-146.5" font-family="Helvetica,sans-Serif" font-size="10.00" fill="#000000">libnolimits/NL2/Coaster</text>
<text text-anchor="middle" x="338.0894" y="-136.5" font-family="Helvetica,sans-Serif" font-size="10.00" fill="#000000">/Track/SpecialTrack.h</text>
</a>
</g>
</g>
<!-- Node18&#45;&gt;Node25 -->
<g id="edge7" class="edge">
<title>Node18&#45;&gt;Node25</title>
<path fill="none" stroke="#191970" d="M309.4102,-186.8669C315.7783,-177.4594 322.9713,-166.8334 328.5606,-158.5765"/>
<polygon fill="#191970" stroke="#191970" points="306.344,-185.1529 303.6367,-195.396 312.1408,-189.0769 306.344,-185.1529"/>
</g>
<!-- Node31 -->
<g id="node11" class="node">
<title>Node31</title>
<g id="a_node11"><a xlink:href="_n_l2_2_coaster_2_track_2_track_8cpp.html" target="_top" xlink:title="libnolimits/NL2/Coaster\l/Track/Track.cpp">
<polygon fill="none" stroke="#000000" points="415.6807,-130.5 415.6807,-158.5 534.498,-158.5 534.498,-130.5 415.6807,-130.5"/>
<text text-anchor="start" x="423.6807" y="-146.5" font-family="Helvetica,sans-Serif" font-size="10.00" fill="#000000">libnolimits/NL2/Coaster</text>
<text text-anchor="middle" x="475.0894" y="-136.5" font-family="Helvetica,sans-Serif" font-size="10.00" fill="#000000">/Track/Track.cpp</text>
</a>
</g>
</g>
<!-- Node18&#45;&gt;Node31 -->
<g id="edge14" class="edge">
<title>Node18&#45;&gt;Node31</title>
<path fill="none" stroke="#191970" d="M342.9447,-191.9553C372.1012,-181.4847 408.6327,-168.3656 435.8917,-158.5765"/>
<polygon fill="#191970" stroke="#191970" points="341.5922,-188.722 333.3637,-195.396 343.9582,-195.3101 341.5922,-188.722"/>
</g>
<!-- Node20 -->
<g id="node3" class="node">
<title>Node20</title>
<g id="a_node3"><a xlink:href="_coaster_8cpp.html" target="_top" xlink:title="libnolimits/NL2/Coaster\l/Coaster.cpp">
<polygon fill="none" stroke="#000000" points="183.6807,-.5 183.6807,-28.5 302.498,-28.5 302.498,-.5 183.6807,-.5"/>
<text text-anchor="start" x="191.6807" y="-16.5" font-family="Helvetica,sans-Serif" font-size="10.00" fill="#000000">libnolimits/NL2/Coaster</text>
<text text-anchor="middle" x="243.0894" y="-6.5" font-family="Helvetica,sans-Serif" font-size="10.00" fill="#000000">/Coaster.cpp</text>
</a>
</g>
</g>
<!-- Node19&#45;&gt;Node20 -->
<g id="edge2" class="edge">
<title>Node19&#45;&gt;Node20</title>
<path fill="none" stroke="#191970" d="M215.7138,-56.8669C221.7925,-47.4594 228.6585,-36.8334 233.9938,-28.5765"/>
<polygon fill="#191970" stroke="#191970" points="212.6902,-55.0973 210.2027,-65.396 218.5696,-58.8963 212.6902,-55.0973"/>
</g>
<!-- Node21 -->
<g id="node4" class="node">
<title>Node21</title>
<g id="a_node4"><a xlink:href="_park_8h.html" target="_top" xlink:title="libnolimits/NL2/Park.h">
<polygon fill="none" stroke="#ff0000" points="52.7373,-5.5 52.7373,-23.5 165.4414,-23.5 165.4414,-5.5 52.7373,-5.5"/>
<text text-anchor="middle" x="109.0894" y="-11.5" font-family="Helvetica,sans-Serif" font-size="10.00" fill="#000000">libnolimits/NL2/Park.h</text>
</a>
</g>
</g>
<!-- Node19&#45;&gt;Node21 -->
<g id="edge3" class="edge">
<title>Node19&#45;&gt;Node21</title>
<path fill="none" stroke="#191970" d="M172.6631,-59.4163C155.7098,-47.4383 135.0082,-32.8122 121.933,-23.5743"/>
<polygon fill="#191970" stroke="#191970" points="170.9399,-62.4841 181.1267,-65.396 174.9791,-56.7671 170.9399,-62.4841"/>
</g>
<!-- Node23&#45;&gt;Node19 -->
<g id="edge5" class="edge">
<title>Node23&#45;&gt;Node19</title>
<path fill="none" stroke="#191970" d="M177.1386,-121.5756C182.4524,-112.2406 188.4249,-101.7483 193.0766,-93.5765"/>
<polygon fill="#191970" stroke="#191970" points="174.0231,-119.9738 172.1178,-130.396 180.1066,-123.4368 174.0231,-119.9738"/>
</g>
<!-- Node24 -->
<g id="node6" class="node">
<title>Node24</title>
<g id="a_node6"><a xlink:href="_custom_track_8cpp.html" target="_top" xlink:title="libnolimits/NL2/Coaster\l/Track/CustomTrack.cpp">
<polygon fill="none" stroke="#000000" points="0,-65.5 0,-93.5 124.1787,-93.5 124.1787,-65.5 0,-65.5"/>
<text text-anchor="start" x="8" y="-81.5" font-family="Helvetica,sans-Serif" font-size="10.00" fill="#000000">libnolimits/NL2/Coaster</text>
<text text-anchor="middle" x="62.0894" y="-71.5" font-family="Helvetica,sans-Serif" font-size="10.00" fill="#000000">/Track/CustomTrack.cpp</text>
</a>
</g>
</g>
<!-- Node23&#45;&gt;Node24 -->
<g id="edge6" class="edge">
<title>Node23&#45;&gt;Node24</title>
<path fill="none" stroke="#191970" d="M133.5131,-125.0151C117.64,-114.8999 98.605,-102.7698 84.1786,-93.5765"/>
<polygon fill="#191970" stroke="#191970" points="131.6427,-127.9734 141.9569,-130.396 135.4046,-122.0702 131.6427,-127.9734"/>
</g>
<!-- Node25&#45;&gt;Node19 -->
<g id="edge8" class="edge">
<title>Node25&#45;&gt;Node19</title>
<path fill="none" stroke="#191970" d="M299.0803,-125.9921C277.3651,-115.6892 250.7628,-103.0677 230.7583,-93.5765"/>
<polygon fill="#191970" stroke="#191970" points="297.8274,-129.2715 308.3624,-130.396 300.828,-122.9472 297.8274,-129.2715"/>
</g>
<!-- Node26 -->
<g id="node8" class="node">
<title>Node26</title>
<g id="a_node8"><a xlink:href="_special_track_8cpp.html" target="_top" xlink:title="libnolimits/NL2/Coaster\l/Track/SpecialTrack.cpp">
<polygon fill="none" stroke="#000000" points="363.8276,-.5 363.8276,-28.5 486.3511,-28.5 486.3511,-.5 363.8276,-.5"/>
<text text-anchor="start" x="371.8276" y="-16.5" font-family="Helvetica,sans-Serif" font-size="10.00" fill="#000000">libnolimits/NL2/Coaster</text>
<text text-anchor="middle" x="425.0894" y="-6.5" font-family="Helvetica,sans-Serif" font-size="10.00" fill="#000000">/Track/SpecialTrack.cpp</text>
</a>
</g>
</g>
<!-- Node25&#45;&gt;Node26 -->
<g id="edge9" class="edge">
<title>Node25&#45;&gt;Node26</title>
<path fill="none" stroke="#191970" d="M373.8376,-124.9121C385.6998,-116.7857 397.9426,-106.3454 406.0894,-94 419.3767,-73.8647 423.3954,-45.4138 424.5959,-28.5706"/>
<polygon fill="#191970" stroke="#191970" points="371.8267,-122.0444 365.3312,-130.4146 375.6287,-127.9219 371.8267,-122.0444"/>
</g>
<!-- Node27 -->
<g id="node9" class="node">
<title>Node27</title>
<g id="a_node9"><a xlink:href="_switch_track_8h.html" target="_top" xlink:title="libnolimits/NL2/Coaster\l/Track/SwitchTrack.h">
<polygon fill="none" stroke="#ff0000" points="452.6807,-65.5 452.6807,-93.5 571.498,-93.5 571.498,-65.5 452.6807,-65.5"/>
<text text-anchor="start" x="460.6807" y="-81.5" font-family="Helvetica,sans-Serif" font-size="10.00" fill="#000000">libnolimits/NL2/Coaster</text>
<text text-anchor="middle" x="512.0894" y="-71.5" font-family="Helvetica,sans-Serif" font-size="10.00" fill="#000000">/Track/SwitchTrack.h</text>
</a>
</g>
</g>
<!-- Node25&#45;&gt;Node27 -->
<g id="edge10" class="edge">
<title>Node25&#45;&gt;Node27</title>
<path fill="none" stroke="#191970" d="M385.4213,-126.8185C413.3894,-116.3707 448.3168,-103.3231 474.4076,-93.5765"/>
<polygon fill="#191970" stroke="#191970" points="383.9877,-123.6178 375.8448,-130.396 386.4373,-130.1752 383.9877,-123.6178"/>
</g>
<!-- Node29 -->
<g id="node10" class="node">
<title>Node29</title>
<g id="a_node10"><a xlink:href="_transfer_table_8h.html" target="_top" xlink:title="libnolimits/NL2/Coaster\l/Track/TransferTable.h">
<polygon fill="none" stroke="#ff0000" points="278.6807,-65.5 278.6807,-93.5 397.498,-93.5 397.498,-65.5 278.6807,-65.5"/>
<text text-anchor="start" x="286.6807" y="-81.5" font-family="Helvetica,sans-Serif" font-size="10.00" fill="#000000">libnolimits/NL2/Coaster</text>
<text text-anchor="middle" x="338.0894" y="-71.5" font-family="Helvetica,sans-Serif" font-size="10.00" fill="#000000">/Track/TransferTable.h</text>
</a>
</g>
</g>
<!-- Node25&#45;&gt;Node29 -->
<g id="edge12" class="edge">
<title>Node25&#45;&gt;Node29</title>
<path fill="none" stroke="#191970" d="M338.0894,-120.1081C338.0894,-111.1539 338.0894,-101.3227 338.0894,-93.5765"/>
<polygon fill="#191970" stroke="#191970" points="334.5895,-120.3959 338.0894,-130.396 341.5895,-120.396 334.5895,-120.3959"/>
</g>
<!-- Node27&#45;&gt;Node26 -->
<g id="edge11" class="edge">
<title>Node27&#45;&gt;Node26</title>
<path fill="none" stroke="#191970" d="M484.8753,-59.1677C471.5718,-49.2283 455.8933,-37.5144 443.9302,-28.5765"/>
<polygon fill="#191970" stroke="#191970" points="483.1057,-62.2145 493.2117,-65.396 487.2954,-56.6068 483.1057,-62.2145"/>
</g>
<!-- Node29&#45;&gt;Node26 -->
<g id="edge13" class="edge">
<title>Node29&#45;&gt;Node26</title>
<path fill="none" stroke="#191970" d="M365.3034,-59.1677C378.6069,-49.2283 394.2854,-37.5144 406.2485,-28.5765"/>
<polygon fill="#191970" stroke="#191970" points="362.8833,-56.6068 356.9671,-65.396 367.073,-62.2145 362.8833,-56.6068"/>
</g>
</g>
</svg>
