<?xml version="1.0" encoding="UTF-8" standalone="no"?>
<!DOCTYPE svg PUBLIC "-//W3C//DTD SVG 1.1//EN"
 "http://www.w3.org/Graphics/SVG/1.1/DTD/svg11.dtd">
<!-- Generated by graphviz version 2.40.1 (20161225.0304)
 -->
<!-- Title: libnolimits/NL1/Track/Track.h Pages: 1 -->
<svg width="386pt" height="422pt"
 viewBox="0.00 0.00 385.62 422.00" xmlns="http://www.w3.org/2000/svg" xmlns:xlink="http://www.w3.org/1999/xlink">
<g id="graph0" class="graph" transform="scale(1 1) rotate(0) translate(4 418)">
<title>libnolimits/NL1/Track/Track.h</title>
<!-- Node0 -->
<g id="node1" class="node">
<title>Node0</title>
<polygon fill="#bfbfbf" stroke="#000000" points="97.7817,-385.5 97.7817,-413.5 206.2183,-413.5 206.2183,-385.5 97.7817,-385.5"/>
<text text-anchor="start" x="105.7817" y="-401.5" font-family="Helvetica,sans-Serif" font-size="10.00" fill="#000000">libnolimits/NL1/Track</text>
<text text-anchor="middle" x="152" y="-391.5" font-family="Helvetica,sans-Serif" font-size="10.00" fill="#000000">/Track.h</text>
</g>
<!-- Node1 -->
<g id="node2" class="node">
<title>Node1</title>
<g id="a_node2"><a xlink:href="_nolimits_8h.html" target="_top" xlink:title="../../Nolimits.h">
<polygon fill="none" stroke="#000000" points="129.7168,-110.5 129.7168,-128.5 206.2832,-128.5 206.2832,-110.5 129.7168,-110.5"/>
<text text-anchor="middle" x="168" y="-116.5" font-family="Helvetica,sans-Serif" font-size="10.00" fill="#000000">../../Nolimits.h</text>
</a>
</g>
</g>
<!-- Node0&#45;&gt;Node1 -->
<g id="edge1" class="edge">
<title>Node0&#45;&gt;Node1</title>
<path fill="none" stroke="#191970" d="M152.5384,-385.4805C153.9753,-349.0789 158.1903,-248.5705 164,-165 164.6049,-156.2983 165.4285,-146.6738 166.1712,-138.5263"/>
<polygon fill="#191970" stroke="#191970" points="169.6571,-138.8398 167.1056,-128.5568 162.6876,-138.1865 169.6571,-138.8398"/>
</g>
<!-- Node7 -->
<g id="node5" class="node">
<title>Node7</title>
<polygon fill="none" stroke="#bfbfbf" points="17.7734,-.5 17.7734,-18.5 58.2266,-18.5 58.2266,-.5 17.7734,-.5"/>
<text text-anchor="middle" x="38" y="-6.5" font-family="Helvetica,sans-Serif" font-size="10.00" fill="#000000">string</text>
</g>
<!-- Node0&#45;&gt;Node7 -->
<g id="edge23" class="edge">
<title>Node0&#45;&gt;Node7</title>
<path fill="none" stroke="#191970" d="M103.9063,-385.4494C59.375,-369.1306 0,-337.4449 0,-284.5 0,-284.5 0,-284.5 0,-119.5 0,-85.4876 16.4315,-48.6418 27.6845,-27.3963"/>
<polygon fill="#191970" stroke="#191970" points="30.7984,-28.9975 32.5555,-18.5493 24.6664,-25.6213 30.7984,-28.9975"/>
</g>
<!-- Node10 -->
<g id="node6" class="node">
<title>Node10</title>
<g id="a_node6"><a xlink:href="_chunk_8h.html" target="_top" xlink:title="../../Stream/Chunk.h">
<polygon fill="none" stroke="#000000" points="193.5371,-220.5 193.5371,-238.5 298.4629,-238.5 298.4629,-220.5 193.5371,-220.5"/>
<text text-anchor="middle" x="246" y="-226.5" font-family="Helvetica,sans-Serif" font-size="10.00" fill="#000000">../../Stream/Chunk.h</text>
</a>
</g>
</g>
<!-- Node0&#45;&gt;Node10 -->
<g id="edge5" class="edge">
<title>Node0&#45;&gt;Node10</title>
<path fill="none" stroke="#191970" d="M159.8527,-385.2983C176.8808,-354.5029 217.1801,-281.6211 235.9969,-247.5907"/>
<polygon fill="#191970" stroke="#191970" points="239.1222,-249.1716 240.8982,-238.7266 232.9963,-245.7843 239.1222,-249.1716"/>
</g>
<!-- Node17 -->
<g id="node10" class="node">
<title>Node17</title>
<g id="a_node10"><a xlink:href="_n_l1_2_info_2_info_8h.html" target="_top" xlink:title="../Info/Info.h">
<polygon fill="none" stroke="#000000" points="55.5938,-275.5 55.5938,-293.5 124.4063,-293.5 124.4063,-275.5 55.5938,-275.5"/>
<text text-anchor="middle" x="90" y="-281.5" font-family="Helvetica,sans-Serif" font-size="10.00" fill="#000000">../Info/Info.h</text>
</a>
</g>
</g>
<!-- Node0&#45;&gt;Node17 -->
<g id="edge12" class="edge">
<title>Node0&#45;&gt;Node17</title>
<path fill="none" stroke="#191970" d="M144.3976,-385.3987C133.187,-364.6049 112.2164,-325.7079 99.8438,-302.7588"/>
<polygon fill="#191970" stroke="#191970" points="102.8018,-300.8699 94.9754,-293.7286 96.6403,-304.1919 102.8018,-300.8699"/>
</g>
<!-- Node18 -->
<g id="node11" class="node">
<title>Node18</title>
<g id="a_node11"><a xlink:href="_n_l1_2_track_2_train_8h.html" target="_top" xlink:title="Train.h">
<polygon fill="none" stroke="#000000" points="247.6216,-330.5 247.6216,-348.5 294.3784,-348.5 294.3784,-330.5 247.6216,-330.5"/>
<text text-anchor="middle" x="271" y="-336.5" font-family="Helvetica,sans-Serif" font-size="10.00" fill="#000000">Train.h</text>
</a>
</g>
</g>
<!-- Node0&#45;&gt;Node18 -->
<g id="edge17" class="edge">
<title>Node0&#45;&gt;Node18</title>
<path fill="none" stroke="#191970" d="M179.9002,-385.4327C199.1761,-375.7137 224.6854,-362.8519 243.8065,-353.211"/>
<polygon fill="#191970" stroke="#191970" points="245.5366,-356.2585 252.8901,-348.6311 242.3851,-350.008 245.5366,-356.2585"/>
</g>
<!-- Node2 -->
<g id="node3" class="node">
<title>Node2</title>
<polygon fill="none" stroke="#bfbfbf" points="137.6504,-55.5 137.6504,-73.5 230.3496,-73.5 230.3496,-55.5 137.6504,-55.5"/>
<text text-anchor="middle" x="184" y="-61.5" font-family="Helvetica,sans-Serif" font-size="10.00" fill="#000000">glm/common.hpp</text>
</g>
<!-- Node1&#45;&gt;Node2 -->
<g id="edge2" class="edge">
<title>Node1&#45;&gt;Node2</title>
<path fill="none" stroke="#191970" d="M170.6421,-110.4179C172.7601,-103.1372 175.8054,-92.669 178.4536,-83.5659"/>
<polygon fill="#191970" stroke="#191970" points="181.8678,-84.3591 181.3005,-73.7795 175.1465,-82.4037 181.8678,-84.3591"/>
</g>
<!-- Node3 -->
<g id="node4" class="node">
<title>Node3</title>
<g id="a_node4"><a xlink:href="_helper_8h.html" target="_top" xlink:title="Helper.h">
<polygon fill="none" stroke="#ff0000" points="66.3745,-55.5 66.3745,-73.5 119.6255,-73.5 119.6255,-55.5 66.3745,-55.5"/>
<text text-anchor="middle" x="93" y="-61.5" font-family="Helvetica,sans-Serif" font-size="10.00" fill="#000000">Helper.h</text>
</a>
</g>
</g>
<!-- Node1&#45;&gt;Node3 -->
<g id="edge3" class="edge">
<title>Node1&#45;&gt;Node3</title>
<path fill="none" stroke="#191970" d="M155.6153,-110.4179C144.216,-102.0584 127.0863,-89.4966 113.6235,-79.6239"/>
<polygon fill="#191970" stroke="#191970" points="115.537,-76.6869 105.4031,-73.5956 111.3974,-82.3317 115.537,-76.6869"/>
</g>
<!-- Node3&#45;&gt;Node7 -->
<g id="edge4" class="edge">
<title>Node3&#45;&gt;Node7</title>
<path fill="none" stroke="#191970" d="M83.9179,-55.4179C75.925,-47.425 64.0903,-35.5903 54.4377,-25.9377"/>
<polygon fill="#191970" stroke="#191970" points="56.8254,-23.3757 47.2795,-18.7795 51.8757,-28.3254 56.8254,-23.3757"/>
</g>
<!-- Node10&#45;&gt;Node1 -->
<g id="edge9" class="edge">
<title>Node10&#45;&gt;Node1</title>
<path fill="none" stroke="#191970" d="M246.4058,-220.3686C246.5588,-207.0996 245.1598,-182.1987 234,-165 225.2828,-151.5656 211.0673,-141.0156 198.0577,-133.4712"/>
<polygon fill="#191970" stroke="#191970" points="199.3541,-130.1931 188.8937,-128.5107 196.0218,-136.3491 199.3541,-130.1931"/>
</g>
<!-- Node11 -->
<g id="node7" class="node">
<title>Node11</title>
<g id="a_node7"><a xlink:href="_file_8h.html" target="_top" xlink:title="../File/File.h">
<polygon fill="none" stroke="#ff0000" points="281.1602,-165.5 281.1602,-183.5 348.8398,-183.5 348.8398,-165.5 281.1602,-165.5"/>
<text text-anchor="middle" x="315" y="-171.5" font-family="Helvetica,sans-Serif" font-size="10.00" fill="#000000">../File/File.h</text>
</a>
</g>
</g>
<!-- Node10&#45;&gt;Node11 -->
<g id="edge6" class="edge">
<title>Node10&#45;&gt;Node11</title>
<path fill="none" stroke="#191970" d="M257.3939,-220.4179C267.7192,-212.1876 283.1547,-199.8839 295.4497,-190.0836"/>
<polygon fill="#191970" stroke="#191970" points="297.7204,-192.7495 303.3585,-183.7795 293.3571,-187.2757 297.7204,-192.7495"/>
</g>
<!-- Node15 -->
<g id="node8" class="node">
<title>Node15</title>
<polygon fill="none" stroke="#bfbfbf" points="321.8794,-110.5 321.8794,-128.5 370.1206,-128.5 370.1206,-110.5 321.8794,-110.5"/>
<text text-anchor="middle" x="346" y="-116.5" font-family="Helvetica,sans-Serif" font-size="10.00" fill="#000000">stdint.h</text>
</g>
<!-- Node10&#45;&gt;Node15 -->
<g id="edge10" class="edge">
<title>Node10&#45;&gt;Node15</title>
<path fill="none" stroke="#191970" d="M298.5275,-221.4359C320.7606,-215.1401 344.5811,-203.9354 358,-184 367.2124,-170.3139 362.1586,-151.4668 356.033,-137.6801"/>
<polygon fill="#191970" stroke="#191970" points="359.1496,-136.0865 351.5719,-128.6818 352.878,-139.1958 359.1496,-136.0865"/>
</g>
<!-- Node16 -->
<g id="node9" class="node">
<title>Node16</title>
<polygon fill="none" stroke="#bfbfbf" points="172.9385,-165.5 172.9385,-183.5 225.0615,-183.5 225.0615,-165.5 172.9385,-165.5"/>
<text text-anchor="middle" x="199" y="-171.5" font-family="Helvetica,sans-Serif" font-size="10.00" fill="#000000">ostream</text>
</g>
<!-- Node10&#45;&gt;Node16 -->
<g id="edge11" class="edge">
<title>Node10&#45;&gt;Node16</title>
<path fill="none" stroke="#191970" d="M238.2389,-220.4179C231.5439,-212.5833 221.6946,-201.0575 213.539,-191.5137"/>
<polygon fill="#191970" stroke="#191970" points="216.0871,-189.108 206.9297,-183.7795 210.7655,-193.6556 216.0871,-189.108"/>
</g>
<!-- Node11&#45;&gt;Node1 -->
<g id="edge8" class="edge">
<title>Node11&#45;&gt;Node1</title>
<path fill="none" stroke="#191970" d="M290.7259,-165.4179C266.4682,-156.3419 228.9711,-142.3123 201.8068,-132.1488"/>
<polygon fill="#191970" stroke="#191970" points="202.9025,-128.8219 192.3101,-128.5956 200.4495,-135.378 202.9025,-128.8219"/>
</g>
<!-- Node11&#45;&gt;Node15 -->
<g id="edge7" class="edge">
<title>Node11&#45;&gt;Node15</title>
<path fill="none" stroke="#191970" d="M320.119,-165.4179C324.3565,-157.8998 330.5097,-146.9829 335.7532,-137.6799"/>
<polygon fill="#191970" stroke="#191970" points="338.9086,-139.2096 340.7698,-128.7795 332.8105,-135.7724 338.9086,-139.2096"/>
</g>
<!-- Node17&#45;&gt;Node1 -->
<g id="edge13" class="edge">
<title>Node17&#45;&gt;Node1</title>
<path fill="none" stroke="#191970" d="M91.9718,-275.3533C96.6632,-254.7182 109.7145,-203.3571 131,-165 136.7801,-154.584 145.0053,-144.185 152.2333,-135.963"/>
<polygon fill="#191970" stroke="#191970" points="154.8457,-138.2926 159.0014,-128.5468 149.6752,-133.574 154.8457,-138.2926"/>
</g>
<!-- Node17&#45;&gt;Node7 -->
<g id="edge15" class="edge">
<title>Node17&#45;&gt;Node7</title>
<path fill="none" stroke="#191970" d="M82.3272,-275.4801C67.8625,-257.5203 38,-215.4797 38,-174.5 38,-174.5 38,-174.5 38,-119.5 38,-87.7718 38,-50.8957 38,-28.917"/>
<polygon fill="#191970" stroke="#191970" points="41.5001,-28.6266 38,-18.6267 34.5001,-28.6267 41.5001,-28.6266"/>
</g>
<!-- Node17&#45;&gt;Node10 -->
<g id="edge14" class="edge">
<title>Node17&#45;&gt;Node10</title>
<path fill="none" stroke="#191970" d="M115.7602,-275.4179C141.6934,-266.2748 181.8852,-252.1046 210.7609,-241.924"/>
<polygon fill="#191970" stroke="#191970" points="212.1935,-245.1302 220.4608,-238.5042 209.866,-238.5285 212.1935,-245.1302"/>
</g>
<!-- Node17&#45;&gt;Node16 -->
<g id="edge16" class="edge">
<title>Node17&#45;&gt;Node16</title>
<path fill="none" stroke="#191970" d="M98.9199,-275.4982C117.2835,-256.9662 159.54,-214.3221 182.8427,-190.8056"/>
<polygon fill="#191970" stroke="#191970" points="185.4042,-193.193 189.9568,-183.6261 180.4319,-188.2659 185.4042,-193.193"/>
</g>
<!-- Node18&#45;&gt;Node10 -->
<g id="edge18" class="edge">
<title>Node18&#45;&gt;Node10</title>
<path fill="none" stroke="#191970" d="M264.4553,-330.2744C258.6096,-321.4408 250.4528,-307.4975 247,-294 243.2218,-279.2306 243.1789,-261.931 243.9671,-248.968"/>
<polygon fill="#191970" stroke="#191970" points="247.4665,-249.1192 244.8008,-238.8652 240.4902,-248.5435 247.4665,-249.1192"/>
</g>
<!-- Node19 -->
<g id="node12" class="node">
<title>Node19</title>
<g id="a_node12"><a xlink:href="_n_l1_2_track_2_individual_color_8h.html" target="_top" xlink:title="IndividualColor.h">
<polygon fill="none" stroke="#000000" points="256.0298,-275.5 256.0298,-293.5 345.9702,-293.5 345.9702,-275.5 256.0298,-275.5"/>
<text text-anchor="middle" x="301" y="-281.5" font-family="Helvetica,sans-Serif" font-size="10.00" fill="#000000">IndividualColor.h</text>
</a>
</g>
</g>
<!-- Node18&#45;&gt;Node19 -->
<g id="edge19" class="edge">
<title>Node18&#45;&gt;Node19</title>
<path fill="none" stroke="#191970" d="M275.9539,-330.4179C280.0546,-322.8998 286.0093,-311.9829 291.0837,-302.6799"/>
<polygon fill="#191970" stroke="#191970" points="294.2225,-304.2344 295.9385,-293.7795 288.0773,-300.8824 294.2225,-304.2344"/>
</g>
<!-- Node20 -->
<g id="node13" class="node">
<title>Node20</title>
<polygon fill="none" stroke="#bfbfbf" points="334.3843,-220.5 334.3843,-238.5 377.6157,-238.5 377.6157,-220.5 334.3843,-220.5"/>
<text text-anchor="middle" x="356" y="-226.5" font-family="Helvetica,sans-Serif" font-size="10.00" fill="#000000">vector</text>
</g>
<!-- Node18&#45;&gt;Node20 -->
<g id="edge22" class="edge">
<title>Node18&#45;&gt;Node20</title>
<path fill="none" stroke="#191970" d="M294.4637,-333.8688C314.4111,-327.7141 341.8462,-315.7001 355,-294 363.1637,-280.5321 362.6603,-262.3977 360.5483,-248.7875"/>
<polygon fill="#191970" stroke="#191970" points="363.9131,-247.7584 358.5508,-238.6208 357.0444,-249.1079 363.9131,-247.7584"/>
</g>
<!-- Node19&#45;&gt;Node10 -->
<g id="edge20" class="edge">
<title>Node19&#45;&gt;Node10</title>
<path fill="none" stroke="#191970" d="M291.9179,-275.4179C283.925,-267.425 272.0903,-255.5903 262.4377,-245.9377"/>
<polygon fill="#191970" stroke="#191970" points="264.8254,-243.3757 255.2795,-238.7795 259.8757,-248.3254 264.8254,-243.3757"/>
</g>
<!-- Node19&#45;&gt;Node20 -->
<g id="edge21" class="edge">
<title>Node19&#45;&gt;Node20</title>
<path fill="none" stroke="#191970" d="M310.0821,-275.4179C318.075,-267.425 329.9097,-255.5903 339.5623,-245.9377"/>
<polygon fill="#191970" stroke="#191970" points="342.1243,-248.3254 346.7205,-238.7795 337.1746,-243.3757 342.1243,-248.3254"/>
</g>
</g>
</svg>
