<?xml version="1.0" encoding="UTF-8" standalone="no"?>
<!DOCTYPE svg PUBLIC "-//W3C//DTD SVG 1.1//EN"
 "http://www.w3.org/Graphics/SVG/1.1/DTD/svg11.dtd">
<!-- Generated by graphviz version 2.40.1 (20161225.0304)
 -->
<!-- Title: libnolimits/NL1/Info/Version.h Pages: 1 -->
<svg width="288pt" height="312pt"
 viewBox="0.00 0.00 288.06 312.00" xmlns="http://www.w3.org/2000/svg" xmlns:xlink="http://www.w3.org/1999/xlink">
<g id="graph0" class="graph" transform="scale(1 1) rotate(0) translate(4 308)">
<title>libnolimits/NL1/Info/Version.h</title>
<!-- Node0 -->
<g id="node1" class="node">
<title>Node0</title>
<polygon fill="#bfbfbf" stroke="#000000" points="37.7588,-275.5 37.7588,-303.5 138.2412,-303.5 138.2412,-275.5 37.7588,-275.5"/>
<text text-anchor="start" x="45.7588" y="-291.5" font-family="Helvetica,sans-Serif" font-size="10.00" fill="#000000">libnolimits/NL1/Info</text>
<text text-anchor="middle" x="88" y="-281.5" font-family="Helvetica,sans-Serif" font-size="10.00" fill="#000000">/Version.h</text>
</g>
<!-- Node1 -->
<g id="node2" class="node">
<title>Node1</title>
<g id="a_node2"><a xlink:href="_nolimits_8h.html" target="_top" xlink:title="../../Nolimits.h">
<polygon fill="none" stroke="#000000" points="37.7168,-110.5 37.7168,-128.5 114.2832,-128.5 114.2832,-110.5 37.7168,-110.5"/>
<text text-anchor="middle" x="76" y="-116.5" font-family="Helvetica,sans-Serif" font-size="10.00" fill="#000000">../../Nolimits.h</text>
</a>
</g>
</g>
<!-- Node0&#45;&gt;Node1 -->
<g id="edge1" class="edge">
<title>Node0&#45;&gt;Node1</title>
<path fill="none" stroke="#191970" d="M84.1315,-275.4802C81.5556,-265.417 78.3968,-251.4842 77,-239 73.0549,-203.739 73.9344,-162.2602 74.9531,-138.6068"/>
<polygon fill="#191970" stroke="#191970" points="78.4531,-138.6908 75.4439,-128.5323 71.4614,-138.3502 78.4531,-138.6908"/>
</g>
<!-- Node7 -->
<g id="node5" class="node">
<title>Node7</title>
<polygon fill="none" stroke="#bfbfbf" points="6.7734,-.5 6.7734,-18.5 47.2266,-18.5 47.2266,-.5 6.7734,-.5"/>
<text text-anchor="middle" x="27" y="-6.5" font-family="Helvetica,sans-Serif" font-size="10.00" fill="#000000">string</text>
</g>
<!-- Node0&#45;&gt;Node7 -->
<g id="edge12" class="edge">
<title>Node0&#45;&gt;Node7</title>
<path fill="none" stroke="#191970" d="M67.1452,-275.46C41.1224,-256.0802 0,-218.4951 0,-174.5 0,-174.5 0,-174.5 0,-119.5 0,-86.6971 11.4647,-49.9368 19.4526,-28.3052"/>
<polygon fill="#191970" stroke="#191970" points="22.8126,-29.3189 23.1316,-18.7289 16.2782,-26.8086 22.8126,-29.3189"/>
</g>
<!-- Node10 -->
<g id="node6" class="node">
<title>Node10</title>
<g id="a_node6"><a xlink:href="_chunk_8h.html" target="_top" xlink:title="../../Stream/Chunk.h">
<polygon fill="none" stroke="#000000" points="85.5371,-220.5 85.5371,-238.5 190.4629,-238.5 190.4629,-220.5 85.5371,-220.5"/>
<text text-anchor="middle" x="138" y="-226.5" font-family="Helvetica,sans-Serif" font-size="10.00" fill="#000000">../../Stream/Chunk.h</text>
</a>
</g>
</g>
<!-- Node0&#45;&gt;Node10 -->
<g id="edge5" class="edge">
<title>Node0&#45;&gt;Node10</title>
<path fill="none" stroke="#191970" d="M99.8493,-275.2808C107.0274,-266.6672 116.2274,-255.6271 123.7945,-246.5466"/>
<polygon fill="#191970" stroke="#191970" points="126.7167,-248.5071 130.4298,-238.5842 121.3392,-244.0258 126.7167,-248.5071"/>
</g>
<!-- Node16 -->
<g id="node9" class="node">
<title>Node16</title>
<polygon fill="none" stroke="#bfbfbf" points="227.9385,-165.5 227.9385,-183.5 280.0615,-183.5 280.0615,-165.5 227.9385,-165.5"/>
<text text-anchor="middle" x="254" y="-171.5" font-family="Helvetica,sans-Serif" font-size="10.00" fill="#000000">ostream</text>
</g>
<!-- Node0&#45;&gt;Node16 -->
<g id="edge13" class="edge">
<title>Node0&#45;&gt;Node16</title>
<path fill="none" stroke="#191970" d="M129.911,-275.4626C151.7673,-266.9436 178.204,-254.6734 199,-239 216.5458,-225.7762 232.3326,-206.0392 242.4446,-191.8834"/>
<polygon fill="#191970" stroke="#191970" points="245.4245,-193.7278 248.2316,-183.5116 239.6662,-189.7475 245.4245,-193.7278"/>
</g>
<!-- Node2 -->
<g id="node3" class="node">
<title>Node2</title>
<polygon fill="none" stroke="#bfbfbf" points="99.6504,-55.5 99.6504,-73.5 192.3496,-73.5 192.3496,-55.5 99.6504,-55.5"/>
<text text-anchor="middle" x="146" y="-61.5" font-family="Helvetica,sans-Serif" font-size="10.00" fill="#000000">glm/common.hpp</text>
</g>
<!-- Node1&#45;&gt;Node2 -->
<g id="edge2" class="edge">
<title>Node1&#45;&gt;Node2</title>
<path fill="none" stroke="#191970" d="M87.5591,-110.4179C98.034,-102.1876 113.6932,-89.8839 126.1664,-80.0836"/>
<polygon fill="#191970" stroke="#191970" points="128.489,-82.7098 134.1898,-73.7795 124.1642,-77.2056 128.489,-82.7098"/>
</g>
<!-- Node3 -->
<g id="node4" class="node">
<title>Node3</title>
<g id="a_node4"><a xlink:href="_helper_8h.html" target="_top" xlink:title="Helper.h">
<polygon fill="none" stroke="#ff0000" points="28.3745,-55.5 28.3745,-73.5 81.6255,-73.5 81.6255,-55.5 28.3745,-55.5"/>
<text text-anchor="middle" x="55" y="-61.5" font-family="Helvetica,sans-Serif" font-size="10.00" fill="#000000">Helper.h</text>
</a>
</g>
</g>
<!-- Node1&#45;&gt;Node3 -->
<g id="edge3" class="edge">
<title>Node1&#45;&gt;Node3</title>
<path fill="none" stroke="#191970" d="M72.5323,-110.4179C69.7222,-103.0581 65.6684,-92.441 62.1665,-83.2695"/>
<polygon fill="#191970" stroke="#191970" points="65.3799,-81.8732 58.5431,-73.7795 58.8404,-84.3701 65.3799,-81.8732"/>
</g>
<!-- Node3&#45;&gt;Node7 -->
<g id="edge4" class="edge">
<title>Node3&#45;&gt;Node7</title>
<path fill="none" stroke="#191970" d="M50.3764,-55.4179C46.5893,-47.9789 41.1081,-37.2123 36.405,-27.9742"/>
<polygon fill="#191970" stroke="#191970" points="39.38,-26.1032 31.7241,-18.7795 33.1419,-29.279 39.38,-26.1032"/>
</g>
<!-- Node10&#45;&gt;Node1 -->
<g id="edge9" class="edge">
<title>Node10&#45;&gt;Node1</title>
<path fill="none" stroke="#191970" d="M126.9341,-220.497C117.2091,-212.0283 103.343,-198.5103 95,-184 86.9083,-169.9268 82.0011,-152.1104 79.2064,-138.7702"/>
<polygon fill="#191970" stroke="#191970" points="82.6191,-137.9792 77.3321,-128.7978 75.7395,-139.2722 82.6191,-137.9792"/>
</g>
<!-- Node11 -->
<g id="node7" class="node">
<title>Node11</title>
<g id="a_node7"><a xlink:href="_file_8h.html" target="_top" xlink:title="../File/File.h">
<polygon fill="none" stroke="#ff0000" points="104.1602,-165.5 104.1602,-183.5 171.8398,-183.5 171.8398,-165.5 104.1602,-165.5"/>
<text text-anchor="middle" x="138" y="-171.5" font-family="Helvetica,sans-Serif" font-size="10.00" fill="#000000">../File/File.h</text>
</a>
</g>
</g>
<!-- Node10&#45;&gt;Node11 -->
<g id="edge6" class="edge">
<title>Node10&#45;&gt;Node11</title>
<path fill="none" stroke="#191970" d="M138,-220.4179C138,-213.2164 138,-202.8962 138,-193.8632"/>
<polygon fill="#191970" stroke="#191970" points="141.5001,-193.7794 138,-183.7795 134.5001,-193.7795 141.5001,-193.7794"/>
</g>
<!-- Node15 -->
<g id="node8" class="node">
<title>Node15</title>
<polygon fill="none" stroke="#bfbfbf" points="153.8794,-110.5 153.8794,-128.5 202.1206,-128.5 202.1206,-110.5 153.8794,-110.5"/>
<text text-anchor="middle" x="178" y="-116.5" font-family="Helvetica,sans-Serif" font-size="10.00" fill="#000000">stdint.h</text>
</g>
<!-- Node10&#45;&gt;Node15 -->
<g id="edge10" class="edge">
<title>Node10&#45;&gt;Node15</title>
<path fill="none" stroke="#191970" d="M150.9124,-220.3491C161.2471,-212.1662 174.9744,-199.1487 181,-184 186.7617,-169.5149 185.3785,-151.7341 182.9126,-138.5124"/>
<polygon fill="#191970" stroke="#191970" points="186.307,-137.6527 180.7197,-128.6509 179.4739,-139.1723 186.307,-137.6527"/>
</g>
<!-- Node10&#45;&gt;Node16 -->
<g id="edge11" class="edge">
<title>Node10&#45;&gt;Node16</title>
<path fill="none" stroke="#191970" d="M157.155,-220.4179C175.7934,-211.5807 204.3367,-198.0473 225.6136,-187.9591"/>
<polygon fill="#191970" stroke="#191970" points="227.2802,-191.0424 234.8165,-183.5956 224.2812,-184.7174 227.2802,-191.0424"/>
</g>
<!-- Node11&#45;&gt;Node1 -->
<g id="edge8" class="edge">
<title>Node11&#45;&gt;Node1</title>
<path fill="none" stroke="#191970" d="M127.762,-165.4179C118.6626,-157.3458 105.1463,-145.3556 94.2074,-135.6517"/>
<polygon fill="#191970" stroke="#191970" points="96.2639,-132.7974 86.4605,-128.7795 91.6186,-138.0339 96.2639,-132.7974"/>
</g>
<!-- Node11&#45;&gt;Node15 -->
<g id="edge7" class="edge">
<title>Node11&#45;&gt;Node15</title>
<path fill="none" stroke="#191970" d="M144.6052,-165.4179C150.188,-157.7415 158.3478,-146.5217 165.204,-137.0945"/>
<polygon fill="#191970" stroke="#191970" points="168.2001,-138.9255 171.2513,-128.7795 162.539,-134.8082 168.2001,-138.9255"/>
</g>
</g>
</svg>
