<?xml version="1.0" encoding="UTF-8" standalone="no"?>
<!DOCTYPE svg PUBLIC "-//W3C//DTD SVG 1.1//EN"
 "http://www.w3.org/Graphics/SVG/1.1/DTD/svg11.dtd">
<!-- Generated by graphviz version 2.40.1 (20161225.0304)
 -->
<!-- Title: libnolimits/NL2/Coaster/Colors.cpp Pages: 1 -->
<svg width="160pt" height="147pt"
 viewBox="0.00 0.00 159.64 147.00" xmlns="http://www.w3.org/2000/svg" xmlns:xlink="http://www.w3.org/1999/xlink">
<g id="graph0" class="graph" transform="scale(1 1) rotate(0) translate(4 143)">
<title>libnolimits/NL2/Coaster/Colors.cpp</title>
<!-- Node0 -->
<g id="node1" class="node">
<title>Node0</title>
<polygon fill="#bfbfbf" stroke="#000000" points="29.0542,-110.5 29.0542,-138.5 147.8716,-138.5 147.8716,-110.5 29.0542,-110.5"/>
<text text-anchor="start" x="37.0542" y="-126.5" font-family="Helvetica,sans-Serif" font-size="10.00" fill="#000000">libnolimits/NL2/Coaster</text>
<text text-anchor="middle" x="88.4629" y="-116.5" font-family="Helvetica,sans-Serif" font-size="10.00" fill="#000000">/Colors.cpp</text>
</g>
<!-- Node1 -->
<g id="node2" class="node">
<title>Node1</title>
<g id="a_node2"><a xlink:href="_n_l2_2_coaster_2_colors_8h.html" target="_top" xlink:title="Colors.h">
<polygon fill="none" stroke="#000000" points="25.8447,-55.5 25.8447,-73.5 79.0811,-73.5 79.0811,-55.5 25.8447,-55.5"/>
<text text-anchor="middle" x="52.4629" y="-61.5" font-family="Helvetica,sans-Serif" font-size="10.00" fill="#000000">Colors.h</text>
</a>
</g>
</g>
<!-- Node0&#45;&gt;Node1 -->
<g id="edge1" class="edge">
<title>Node0&#45;&gt;Node1</title>
<path fill="none" stroke="#191970" d="M79.9314,-110.2808C74.923,-101.9336 68.5475,-91.3076 63.1997,-82.3946"/>
<polygon fill="#191970" stroke="#191970" points="66.0596,-80.3584 57.9134,-73.5842 60.0572,-83.9599 66.0596,-80.3584"/>
</g>
<!-- Node11 -->
<g id="node4" class="node">
<title>Node11</title>
<polygon fill="none" stroke="#bfbfbf" points="97.2905,-55.5 97.2905,-73.5 151.6353,-73.5 151.6353,-55.5 97.2905,-55.5"/>
<text text-anchor="middle" x="124.4629" y="-61.5" font-family="Helvetica,sans-Serif" font-size="10.00" fill="#000000">iostream</text>
</g>
<!-- Node0&#45;&gt;Node11 -->
<g id="edge3" class="edge">
<title>Node0&#45;&gt;Node11</title>
<path fill="none" stroke="#191970" d="M96.9944,-110.2808C102.0027,-101.9336 108.3783,-91.3076 113.7261,-82.3946"/>
<polygon fill="#191970" stroke="#191970" points="116.8686,-83.9599 119.0124,-73.5842 110.8661,-80.3584 116.8686,-83.9599"/>
</g>
<!-- Node2 -->
<g id="node3" class="node">
<title>Node2</title>
<g id="a_node3"><a xlink:href="_chunk_8h.html" target="_top" xlink:title="../../Stream/Chunk.h">
<polygon fill="none" stroke="#ff0000" points="0,-.5 0,-18.5 104.9258,-18.5 104.9258,-.5 0,-.5"/>
<text text-anchor="middle" x="52.4629" y="-6.5" font-family="Helvetica,sans-Serif" font-size="10.00" fill="#000000">../../Stream/Chunk.h</text>
</a>
</g>
</g>
<!-- Node1&#45;&gt;Node2 -->
<g id="edge2" class="edge">
<title>Node1&#45;&gt;Node2</title>
<path fill="none" stroke="#191970" d="M52.4629,-55.4179C52.4629,-48.2164 52.4629,-37.8962 52.4629,-28.8632"/>
<polygon fill="#191970" stroke="#191970" points="55.963,-28.7794 52.4629,-18.7795 48.963,-28.7795 55.963,-28.7794"/>
</g>
</g>
</svg>
