<?xml version="1.0" encoding="UTF-8" standalone="no"?>
<!DOCTYPE svg PUBLIC "-//W3C//DTD SVG 1.1//EN"
 "http://www.w3.org/Graphics/SVG/1.1/DTD/svg11.dtd">
<!-- Generated by graphviz version 2.40.1 (20161225.0304)
 -->
<!-- Title: libnolimits/NL1/Track/Section/Station.h Pages: 1 -->
<svg width="160pt" height="257pt"
 viewBox="0.00 0.00 160.30 257.00" xmlns="http://www.w3.org/2000/svg" xmlns:xlink="http://www.w3.org/1999/xlink">
<g id="graph0" class="graph" transform="scale(1 1) rotate(0) translate(4 253)">
<title>libnolimits/NL1/Track/Section/Station.h</title>
<!-- Node0 -->
<g id="node1" class="node">
<title>Node0</title>
<polygon fill="#bfbfbf" stroke="#000000" points="10.4121,-220.5 10.4121,-248.5 118.8486,-248.5 118.8486,-220.5 10.4121,-220.5"/>
<text text-anchor="start" x="18.4121" y="-236.5" font-family="Helvetica,sans-Serif" font-size="10.00" fill="#000000">libnolimits/NL1/Track</text>
<text text-anchor="middle" x="64.6304" y="-226.5" font-family="Helvetica,sans-Serif" font-size="10.00" fill="#000000">/Section/Station.h</text>
</g>
<!-- Node1 -->
<g id="node2" class="node">
<title>Node1</title>
<g id="a_node2"><a xlink:href="_n_l1_2_track_2_section_2_section_8h.html" target="_top" xlink:title="Section.h">
<polygon fill="none" stroke="#000000" points="27.7832,-55.5 27.7832,-73.5 85.4775,-73.5 85.4775,-55.5 27.7832,-55.5"/>
<text text-anchor="middle" x="56.6304" y="-61.5" font-family="Helvetica,sans-Serif" font-size="10.00" fill="#000000">Section.h</text>
</a>
</g>
</g>
<!-- Node0&#45;&gt;Node1 -->
<g id="edge1" class="edge">
<title>Node0&#45;&gt;Node1</title>
<path fill="none" stroke="#191970" d="M57.7159,-220.3095C53.2842,-210.3994 47.9438,-196.7183 45.6304,-184 39.2251,-148.786 46.3702,-107.0195 51.7637,-83.3526"/>
<polygon fill="#191970" stroke="#191970" points="55.1812,-84.111 54.1337,-73.568 48.3779,-82.4631 55.1812,-84.111"/>
</g>
<!-- Node18 -->
<g id="node4" class="node">
<title>Node18</title>
<g id="a_node4"><a xlink:href="_n_l1_2_track_2_section_2_transport_device_8h.html" target="_top" xlink:title="TransportDevice.h">
<polygon fill="none" stroke="#000000" points="54.9639,-165.5 54.9639,-183.5 152.2969,-183.5 152.2969,-165.5 54.9639,-165.5"/>
<text text-anchor="middle" x="103.6304" y="-171.5" font-family="Helvetica,sans-Serif" font-size="10.00" fill="#000000">TransportDevice.h</text>
</a>
</g>
</g>
<!-- Node0&#45;&gt;Node18 -->
<g id="edge3" class="edge">
<title>Node0&#45;&gt;Node18</title>
<path fill="none" stroke="#191970" d="M73.8728,-220.2808C79.3563,-211.8448 86.3525,-201.0813 92.1834,-192.1107"/>
<polygon fill="#191970" stroke="#191970" points="95.2103,-193.8761 97.7256,-183.5842 89.3412,-190.0612 95.2103,-193.8761"/>
</g>
<!-- Node2 -->
<g id="node3" class="node">
<title>Node2</title>
<g id="a_node3"><a xlink:href="_chunk_8h.html" target="_top" xlink:title="../../../Stream/Chunk.h">
<polygon fill="none" stroke="#ff0000" points="0,-.5 0,-18.5 113.2607,-18.5 113.2607,-.5 0,-.5"/>
<text text-anchor="middle" x="56.6304" y="-6.5" font-family="Helvetica,sans-Serif" font-size="10.00" fill="#000000">../../../Stream/Chunk.h</text>
</a>
</g>
</g>
<!-- Node1&#45;&gt;Node2 -->
<g id="edge2" class="edge">
<title>Node1&#45;&gt;Node2</title>
<path fill="none" stroke="#191970" d="M56.6304,-55.4179C56.6304,-48.2164 56.6304,-37.8962 56.6304,-28.8632"/>
<polygon fill="#191970" stroke="#191970" points="60.1305,-28.7794 56.6304,-18.7795 53.1305,-28.7795 60.1305,-28.7794"/>
</g>
<!-- Node19 -->
<g id="node5" class="node">
<title>Node19</title>
<g id="a_node5"><a xlink:href="_n_l1_2_track_2_section_2_transport_8h.html" target="_top" xlink:title="Transport.h">
<polygon fill="none" stroke="#000000" points="62.2471,-110.5 62.2471,-128.5 129.0137,-128.5 129.0137,-110.5 62.2471,-110.5"/>
<text text-anchor="middle" x="95.6304" y="-116.5" font-family="Helvetica,sans-Serif" font-size="10.00" fill="#000000">Transport.h</text>
</a>
</g>
</g>
<!-- Node18&#45;&gt;Node19 -->
<g id="edge4" class="edge">
<title>Node18&#45;&gt;Node19</title>
<path fill="none" stroke="#191970" d="M102.3093,-165.4179C101.2618,-158.2164 99.7607,-147.8962 98.4468,-138.8632"/>
<polygon fill="#191970" stroke="#191970" points="101.8831,-138.1715 96.9801,-128.7795 94.956,-139.1791 101.8831,-138.1715"/>
</g>
<!-- Node19&#45;&gt;Node1 -->
<g id="edge5" class="edge">
<title>Node19&#45;&gt;Node1</title>
<path fill="none" stroke="#191970" d="M89.1903,-110.4179C83.7471,-102.7415 75.7912,-91.5217 69.1065,-82.0945"/>
<polygon fill="#191970" stroke="#191970" points="71.8497,-79.9123 63.2103,-73.7795 66.1396,-83.9613 71.8497,-79.9123"/>
</g>
</g>
</svg>
