<?xml version="1.0" encoding="UTF-8" standalone="no"?>
<!DOCTYPE svg PUBLIC "-//W3C//DTD SVG 1.1//EN"
 "http://www.w3.org/Graphics/SVG/1.1/DTD/svg11.dtd">
<!-- Generated by graphviz version 2.40.1 (20161225.0304)
 -->
<!-- Title: libnolimits/NL2/Coaster/Track/Track.cpp Pages: 1 -->
<svg width="152pt" height="202pt"
 viewBox="0.00 0.00 152.32 202.00" xmlns="http://www.w3.org/2000/svg" xmlns:xlink="http://www.w3.org/1999/xlink">
<g id="graph0" class="graph" transform="scale(1 1) rotate(0) translate(4 198)">
<title>libnolimits/NL2/Coaster/Track/Track.cpp</title>
<!-- Node0 -->
<g id="node1" class="node">
<title>Node0</title>
<polygon fill="#bfbfbf" stroke="#000000" points="0,-165.5 0,-193.5 118.8174,-193.5 118.8174,-165.5 0,-165.5"/>
<text text-anchor="start" x="8" y="-181.5" font-family="Helvetica,sans-Serif" font-size="10.00" fill="#000000">libnolimits/NL2/Coaster</text>
<text text-anchor="middle" x="59.4087" y="-171.5" font-family="Helvetica,sans-Serif" font-size="10.00" fill="#000000">/Track/Track.cpp</text>
</g>
<!-- Node1 -->
<g id="node2" class="node">
<title>Node1</title>
<g id="a_node2"><a xlink:href="_n_l2_2_coaster_2_track_2_track_8h.html" target="_top" xlink:title="Track.h">
<polygon fill="none" stroke="#000000" points="34.9219,-110.5 34.9219,-128.5 83.8955,-128.5 83.8955,-110.5 34.9219,-110.5"/>
<text text-anchor="middle" x="59.4087" y="-116.5" font-family="Helvetica,sans-Serif" font-size="10.00" fill="#000000">Track.h</text>
</a>
</g>
</g>
<!-- Node0&#45;&gt;Node1 -->
<g id="edge1" class="edge">
<title>Node0&#45;&gt;Node1</title>
<path fill="none" stroke="#191970" d="M59.4087,-165.2808C59.4087,-157.3776 59.4087,-147.4316 59.4087,-138.8308"/>
<polygon fill="#191970" stroke="#191970" points="62.9088,-138.5842 59.4087,-128.5842 55.9088,-138.5842 62.9088,-138.5842"/>
</g>
<!-- Node2 -->
<g id="node3" class="node">
<title>Node2</title>
<g id="a_node3"><a xlink:href="_chunk_8h.html" target="_top" xlink:title="../../../Stream/Chunk.h">
<polygon fill="none" stroke="#ff0000" points="2.7783,-.5 2.7783,-18.5 116.0391,-18.5 116.0391,-.5 2.7783,-.5"/>
<text text-anchor="middle" x="59.4087" y="-6.5" font-family="Helvetica,sans-Serif" font-size="10.00" fill="#000000">../../../Stream/Chunk.h</text>
</a>
</g>
</g>
<!-- Node1&#45;&gt;Node2 -->
<g id="edge2" class="edge">
<title>Node1&#45;&gt;Node2</title>
<path fill="none" stroke="#191970" d="M54.6197,-110.3981C50.1894,-101.4264 43.9219,-87.1847 41.4087,-74 38.3856,-58.1402 43.9396,-40.5063 49.6545,-27.6904"/>
<polygon fill="#191970" stroke="#191970" points="52.8649,-29.0924 54.1114,-18.5712 46.5758,-26.0187 52.8649,-29.0924"/>
</g>
<!-- Node18 -->
<g id="node4" class="node">
<title>Node18</title>
<g id="a_node4"><a xlink:href="_n_l2_2_coaster_2_track_2_section_2_section_8h.html" target="_top" xlink:title="Section/Section.h">
<polygon fill="none" stroke="#000000" points="50.4951,-55.5 50.4951,-73.5 144.3223,-73.5 144.3223,-55.5 50.4951,-55.5"/>
<text text-anchor="middle" x="97.4087" y="-61.5" font-family="Helvetica,sans-Serif" font-size="10.00" fill="#000000">Section/Section.h</text>
</a>
</g>
</g>
<!-- Node1&#45;&gt;Node18 -->
<g id="edge3" class="edge">
<title>Node1&#45;&gt;Node18</title>
<path fill="none" stroke="#191970" d="M65.6836,-110.4179C70.9873,-102.7415 78.7391,-91.5217 85.2525,-82.0945"/>
<polygon fill="#191970" stroke="#191970" points="88.1926,-83.9963 90.9974,-73.7795 82.4335,-80.0173 88.1926,-83.9963"/>
</g>
<!-- Node18&#45;&gt;Node2 -->
<g id="edge4" class="edge">
<title>Node18&#45;&gt;Node2</title>
<path fill="none" stroke="#191970" d="M91.1338,-55.4179C85.8301,-47.7415 78.0782,-36.5217 71.5649,-27.0945"/>
<polygon fill="#191970" stroke="#191970" points="74.3839,-25.0173 65.82,-18.7795 68.6248,-28.9963 74.3839,-25.0173"/>
</g>
</g>
</svg>
