<?xml version="1.0" encoding="UTF-8" standalone="no"?>
<!DOCTYPE svg PUBLIC "-//W3C//DTD SVG 1.1//EN"
 "http://www.w3.org/Graphics/SVG/1.1/DTD/svg11.dtd">
<!-- Generated by graphviz version 2.40.1 (20161225.0304)
 -->
<!-- Title: libnolimits/NL1/Track/Section/Section.h Pages: 1 -->
<svg width="1070pt" height="297pt"
 viewBox="0.00 0.00 1069.69 297.00" xmlns="http://www.w3.org/2000/svg" xmlns:xlink="http://www.w3.org/1999/xlink">
<g id="graph0" class="graph" transform="scale(1 1) rotate(0) translate(4 293)">
<title>libnolimits/NL1/Track/Section/Section.h</title>
<!-- Node17 -->
<g id="node1" class="node">
<title>Node17</title>
<polygon fill="#bfbfbf" stroke="#000000" points="616.1313,-260.5 616.1313,-288.5 724.5679,-288.5 724.5679,-260.5 616.1313,-260.5"/>
<text text-anchor="start" x="624.1313" y="-276.5" font-family="Helvetica,sans-Serif" font-size="10.00" fill="#000000">libnolimits/NL1/Track</text>
<text text-anchor="middle" x="670.3496" y="-266.5" font-family="Helvetica,sans-Serif" font-size="10.00" fill="#000000">/Section/Section.h</text>
</g>
<!-- Node18 -->
<g id="node2" class="node">
<title>Node18</title>
<g id="a_node2"><a xlink:href="_n_l1_2_track_2_track_8h.html" target="_top" xlink:title="libnolimits/NL1/Track\l/Track.h">
<polygon fill="none" stroke="#000000" points="267.1313,-195.5 267.1313,-223.5 375.5679,-223.5 375.5679,-195.5 267.1313,-195.5"/>
<text text-anchor="start" x="275.1313" y="-211.5" font-family="Helvetica,sans-Serif" font-size="10.00" fill="#000000">libnolimits/NL1/Track</text>
<text text-anchor="middle" x="321.3496" y="-201.5" font-family="Helvetica,sans-Serif" font-size="10.00" fill="#000000">/Track.h</text>
</a>
</g>
</g>
<!-- Node17&#45;&gt;Node18 -->
<g id="edge1" class="edge">
<title>Node17&#45;&gt;Node18</title>
<path fill="none" stroke="#191970" d="M605.9259,-262.5013C539.7952,-250.1847 438.0172,-231.2289 375.785,-219.6384"/>
<polygon fill="#191970" stroke="#191970" points="605.3465,-265.9535 615.8184,-264.3438 606.6283,-259.0719 605.3465,-265.9535"/>
</g>
<!-- Node22 -->
<g id="node5" class="node">
<title>Node22</title>
<g id="a_node5"><a xlink:href="_segments_chunk_8cpp.html" target="_top" xlink:title="libnolimits/NL1/Track\l/Section/SegmentsChunk.cpp">
<polygon fill="none" stroke="#000000" points="393.478,-130.5 393.478,-158.5 541.2212,-158.5 541.2212,-130.5 393.478,-130.5"/>
<text text-anchor="start" x="401.478" y="-146.5" font-family="Helvetica,sans-Serif" font-size="10.00" fill="#000000">libnolimits/NL1/Track</text>
<text text-anchor="middle" x="467.3496" y="-136.5" font-family="Helvetica,sans-Serif" font-size="10.00" fill="#000000">/Section/SegmentsChunk.cpp</text>
</a>
</g>
</g>
<!-- Node17&#45;&gt;Node22 -->
<g id="edge20" class="edge">
<title>Node17&#45;&gt;Node22</title>
<path fill="none" stroke="#191970" d="M620.5272,-256.703C599.6112,-248.2121 575.5128,-237.0448 555.3496,-224 525.7894,-204.8756 496.4557,-175.8287 480.2352,-158.6481"/>
<polygon fill="#191970" stroke="#191970" points="619.3017,-259.9821 629.8877,-260.4131 621.8809,-253.4746 619.3017,-259.9821"/>
</g>
<!-- Node24 -->
<g id="node7" class="node">
<title>Node24</title>
<g id="a_node7"><a xlink:href="_n_l1_2_track_2_section_2_brake_8h.html" target="_top" xlink:title="libnolimits/NL1/Track\l/Section/Brake.h">
<polygon fill="none" stroke="#000000" points="493.1313,-65.5 493.1313,-93.5 601.5679,-93.5 601.5679,-65.5 493.1313,-65.5"/>
<text text-anchor="start" x="501.1313" y="-81.5" font-family="Helvetica,sans-Serif" font-size="10.00" fill="#000000">libnolimits/NL1/Track</text>
<text text-anchor="middle" x="547.3496" y="-71.5" font-family="Helvetica,sans-Serif" font-size="10.00" fill="#000000">/Section/Brake.h</text>
</a>
</g>
</g>
<!-- Node17&#45;&gt;Node24 -->
<g id="edge6" class="edge">
<title>Node17&#45;&gt;Node24</title>
<path fill="none" stroke="#191970" d="M639.2238,-254.4604C628.0516,-246.0932 616.072,-235.61 607.3496,-224 575.8597,-182.0855 557.7482,-121.2401 550.741,-93.8311"/>
<polygon fill="#191970" stroke="#191970" points="637.3775,-257.4433 647.5426,-260.43 641.4586,-251.7561 637.3775,-257.4433"/>
</g>
<!-- Node26 -->
<g id="node9" class="node">
<title>Node26</title>
<g id="a_node9"><a xlink:href="_n_l1_2_track_2_section_2_section_8cpp.html" target="_top" xlink:title="libnolimits/NL1/Track\l/Section/Section.cpp">
<polygon fill="none" stroke="#000000" points="833.1313,-.5 833.1313,-28.5 941.5679,-28.5 941.5679,-.5 833.1313,-.5"/>
<text text-anchor="start" x="841.1313" y="-16.5" font-family="Helvetica,sans-Serif" font-size="10.00" fill="#000000">libnolimits/NL1/Track</text>
<text text-anchor="middle" x="887.3496" y="-6.5" font-family="Helvetica,sans-Serif" font-size="10.00" fill="#000000">/Section/Section.cpp</text>
</a>
</g>
</g>
<!-- Node17&#45;&gt;Node26 -->
<g id="edge19" class="edge">
<title>Node17&#45;&gt;Node26</title>
<path fill="none" stroke="#191970" d="M734.9571,-270.2239C818.5462,-263.7574 958.7425,-249.459 1003.3496,-224 1035.7231,-205.5233 1043.8477,-194.116 1056.3496,-159 1071.6968,-115.8921 1049.7046,-94.0491 1014.3496,-65 993.3581,-47.7525 965.7383,-35.8311 941.6186,-27.9217"/>
<polygon fill="#191970" stroke="#191970" points="734.5115,-266.7475 724.8043,-270.9924 735.0399,-273.7275 734.5115,-266.7475"/>
</g>
<!-- Node28 -->
<g id="node11" class="node">
<title>Node28</title>
<g id="a_node11"><a xlink:href="_n_l1_2_track_2_section_2_transport_8h.html" target="_top" xlink:title="libnolimits/NL1/Track\l/Section/Transport.h">
<polygon fill="none" stroke="#000000" points="847.1313,-195.5 847.1313,-223.5 955.5679,-223.5 955.5679,-195.5 847.1313,-195.5"/>
<text text-anchor="start" x="855.1313" y="-211.5" font-family="Helvetica,sans-Serif" font-size="10.00" fill="#000000">libnolimits/NL1/Track</text>
<text text-anchor="middle" x="901.3496" y="-201.5" font-family="Helvetica,sans-Serif" font-size="10.00" fill="#000000">/Section/Transport.h</text>
</a>
</g>
</g>
<!-- Node17&#45;&gt;Node28 -->
<g id="edge10" class="edge">
<title>Node17&#45;&gt;Node28</title>
<path fill="none" stroke="#191970" d="M730.0011,-257.7149C767.5923,-247.1373 815.5782,-233.6348 851.2016,-223.6109"/>
<polygon fill="#191970" stroke="#191970" points="728.8669,-254.3981 720.1888,-260.476 730.763,-261.1364 728.8669,-254.3981"/>
</g>
<!-- Node30 -->
<g id="node13" class="node">
<title>Node30</title>
<g id="a_node13"><a xlink:href="_n_l1_2_track_2_section_2_station_8h.html" target="_top" xlink:title="libnolimits/NL1/Track\l/Section/Station.h">
<polygon fill="none" stroke="#000000" points="849.1313,-65.5 849.1313,-93.5 957.5679,-93.5 957.5679,-65.5 849.1313,-65.5"/>
<text text-anchor="start" x="857.1313" y="-81.5" font-family="Helvetica,sans-Serif" font-size="10.00" fill="#000000">libnolimits/NL1/Track</text>
<text text-anchor="middle" x="903.3496" y="-71.5" font-family="Helvetica,sans-Serif" font-size="10.00" fill="#000000">/Section/Station.h</text>
</a>
</g>
</g>
<!-- Node17&#45;&gt;Node30 -->
<g id="edge21" class="edge">
<title>Node17&#45;&gt;Node30</title>
<path fill="none" stroke="#191970" d="M734.721,-267.4909C808.5766,-258.7459 924.6107,-242.6513 964.3496,-224 1004.585,-205.1157 1021.7554,-199.3703 1040.3496,-159 1045.7417,-147.2932 1047.7207,-140.5731 1040.3496,-130 1030.3828,-115.7038 991.5999,-102.1962 957.831,-92.7545"/>
<polygon fill="#191970" stroke="#191970" points="734.1176,-264.0375 724.5919,-268.6755 734.9309,-270.9901 734.1176,-264.0375"/>
</g>
<!-- Node33 -->
<g id="node15" class="node">
<title>Node33</title>
<g id="a_node15"><a xlink:href="_n_l1_2_track_2_section_2_lift_8h.html" target="_top" xlink:title="libnolimits/NL1/Track\l/Section/Lift.h">
<polygon fill="none" stroke="#000000" points="616.1313,-195.5 616.1313,-223.5 724.5679,-223.5 724.5679,-195.5 616.1313,-195.5"/>
<text text-anchor="start" x="624.1313" y="-211.5" font-family="Helvetica,sans-Serif" font-size="10.00" fill="#000000">libnolimits/NL1/Track</text>
<text text-anchor="middle" x="670.3496" y="-201.5" font-family="Helvetica,sans-Serif" font-size="10.00" fill="#000000">/Section/Lift.h</text>
</a>
</g>
</g>
<!-- Node17&#45;&gt;Node33 -->
<g id="edge16" class="edge">
<title>Node17&#45;&gt;Node33</title>
<path fill="none" stroke="#191970" d="M670.3496,-250.1081C670.3496,-241.1539 670.3496,-231.3227 670.3496,-223.5765"/>
<polygon fill="#191970" stroke="#191970" points="666.8497,-250.3959 670.3496,-260.396 673.8497,-250.396 666.8497,-250.3959"/>
</g>
<!-- Node19 -->
<g id="node3" class="node">
<title>Node19</title>
<g id="a_node3"><a xlink:href="_no_limits_track_8h.html" target="_top" xlink:title="libnolimits/NL1/NoLimits\lTrack.h">
<polygon fill="none" stroke="#ff0000" points="0,-130.5 0,-158.5 122.6992,-158.5 122.6992,-130.5 0,-130.5"/>
<text text-anchor="start" x="8" y="-146.5" font-family="Helvetica,sans-Serif" font-size="10.00" fill="#000000">libnolimits/NL1/NoLimits</text>
<text text-anchor="middle" x="61.3496" y="-136.5" font-family="Helvetica,sans-Serif" font-size="10.00" fill="#000000">Track.h</text>
</a>
</g>
</g>
<!-- Node18&#45;&gt;Node19 -->
<g id="edge2" class="edge">
<title>Node18&#45;&gt;Node19</title>
<path fill="none" stroke="#191970" d="M257.0932,-193.4359C214.3015,-182.738 158.6111,-168.8154 117.5781,-158.5571"/>
<polygon fill="#191970" stroke="#191970" points="256.2948,-196.8439 266.8451,-195.8739 257.9926,-190.0529 256.2948,-196.8439"/>
</g>
<!-- Node21 -->
<g id="node4" class="node">
<title>Node21</title>
<g id="a_node4"><a xlink:href="_beziers_chunk_8cpp.html" target="_top" xlink:title="libnolimits/NL1/Track\l/BeziersChunk.cpp">
<polygon fill="none" stroke="#000000" points="141.1313,-130.5 141.1313,-158.5 249.5679,-158.5 249.5679,-130.5 141.1313,-130.5"/>
<text text-anchor="start" x="149.1313" y="-146.5" font-family="Helvetica,sans-Serif" font-size="10.00" fill="#000000">libnolimits/NL1/Track</text>
<text text-anchor="middle" x="195.3496" y="-136.5" font-family="Helvetica,sans-Serif" font-size="10.00" fill="#000000">/BeziersChunk.cpp</text>
</a>
</g>
</g>
<!-- Node18&#45;&gt;Node21 -->
<g id="edge3" class="edge">
<title>Node18&#45;&gt;Node21</title>
<path fill="none" stroke="#191970" d="M284.9342,-190.7143C265.0627,-180.4631 240.8697,-167.9826 222.6364,-158.5765"/>
<polygon fill="#191970" stroke="#191970" points="283.5177,-193.9218 294.0095,-195.396 286.727,-187.7008 283.5177,-193.9218"/>
</g>
<!-- Node18&#45;&gt;Node22 -->
<g id="edge4" class="edge">
<title>Node18&#45;&gt;Node22</title>
<path fill="none" stroke="#191970" d="M362.2999,-191.2687C385.554,-180.9159 414.2217,-168.1528 435.7316,-158.5765"/>
<polygon fill="#191970" stroke="#191970" points="360.7414,-188.1313 353.0294,-195.396 363.5885,-194.5262 360.7414,-188.1313"/>
</g>
<!-- Node23 -->
<g id="node6" class="node">
<title>Node23</title>
<g id="a_node6"><a xlink:href="_n_l1_2_track_2_track_8cpp.html" target="_top" xlink:title="libnolimits/NL1/Track\l/Track.cpp">
<polygon fill="none" stroke="#000000" points="267.1313,-130.5 267.1313,-158.5 375.5679,-158.5 375.5679,-130.5 267.1313,-130.5"/>
<text text-anchor="start" x="275.1313" y="-146.5" font-family="Helvetica,sans-Serif" font-size="10.00" fill="#000000">libnolimits/NL1/Track</text>
<text text-anchor="middle" x="321.3496" y="-136.5" font-family="Helvetica,sans-Serif" font-size="10.00" fill="#000000">/Track.cpp</text>
</a>
</g>
</g>
<!-- Node18&#45;&gt;Node23 -->
<g id="edge5" class="edge">
<title>Node18&#45;&gt;Node23</title>
<path fill="none" stroke="#191970" d="M321.3496,-185.1081C321.3496,-176.1539 321.3496,-166.3227 321.3496,-158.5765"/>
<polygon fill="#191970" stroke="#191970" points="317.8497,-185.3959 321.3496,-195.396 324.8497,-185.396 317.8497,-185.3959"/>
</g>
<!-- Node25 -->
<g id="node8" class="node">
<title>Node25</title>
<g id="a_node8"><a xlink:href="_n_l1_2_track_2_section_2_brake_8cpp.html" target="_top" xlink:title="libnolimits/NL1/Track\l/Section/Brake.cpp">
<polygon fill="none" stroke="#000000" points="556.1313,-.5 556.1313,-28.5 664.5679,-28.5 664.5679,-.5 556.1313,-.5"/>
<text text-anchor="start" x="564.1313" y="-16.5" font-family="Helvetica,sans-Serif" font-size="10.00" fill="#000000">libnolimits/NL1/Track</text>
<text text-anchor="middle" x="610.3496" y="-6.5" font-family="Helvetica,sans-Serif" font-size="10.00" fill="#000000">/Section/Brake.cpp</text>
</a>
</g>
</g>
<!-- Node24&#45;&gt;Node25 -->
<g id="edge7" class="edge">
<title>Node24&#45;&gt;Node25</title>
<path fill="none" stroke="#191970" d="M568.1646,-58.0243C577.551,-48.3398 588.3733,-37.1739 596.7062,-28.5765"/>
<polygon fill="#191970" stroke="#191970" points="565.4662,-55.7793 561.0197,-65.396 570.4927,-60.6512 565.4662,-55.7793"/>
</g>
<!-- Node24&#45;&gt;Node26 -->
<g id="edge8" class="edge">
<title>Node24&#45;&gt;Node26</title>
<path fill="none" stroke="#191970" d="M612.0378,-65.664C613.15,-65.4399 614.2546,-65.2184 615.3496,-65 690.7125,-49.9717 778.1218,-34.0022 833.0808,-24.1385"/>
<polygon fill="#191970" stroke="#191970" points="610.9796,-62.3078 601.8826,-67.7387 612.3808,-69.1662 610.9796,-62.3078"/>
</g>
<!-- Node27 -->
<g id="node10" class="node">
<title>Node27</title>
<g id="a_node10"><a xlink:href="_n_l1_2_track_2_section_2_station_8cpp.html" target="_top" xlink:title="libnolimits/NL1/Track\l/Section/Station.cpp">
<polygon fill="none" stroke="#000000" points="430.1313,-.5 430.1313,-28.5 538.5679,-28.5 538.5679,-.5 430.1313,-.5"/>
<text text-anchor="start" x="438.1313" y="-16.5" font-family="Helvetica,sans-Serif" font-size="10.00" fill="#000000">libnolimits/NL1/Track</text>
<text text-anchor="middle" x="484.3496" y="-6.5" font-family="Helvetica,sans-Serif" font-size="10.00" fill="#000000">/Section/Station.cpp</text>
</a>
</g>
</g>
<!-- Node24&#45;&gt;Node27 -->
<g id="edge9" class="edge">
<title>Node24&#45;&gt;Node27</title>
<path fill="none" stroke="#191970" d="M526.5347,-58.0243C517.1482,-48.3398 506.3259,-37.1739 497.993,-28.5765"/>
<polygon fill="#191970" stroke="#191970" points="524.2065,-60.6512 533.6795,-65.396 529.233,-55.7793 524.2065,-60.6512"/>
</g>
<!-- Node28&#45;&gt;Node26 -->
<g id="edge14" class="edge">
<title>Node28&#45;&gt;Node26</title>
<path fill="none" stroke="#191970" d="M965.6665,-193.8003C997.51,-184.5923 1031.1036,-172.1965 1040.3496,-159 1047.7455,-148.4442 1045.6643,-141.7421 1040.3496,-130 1017.5687,-79.6683 959.9997,-46.0461 922.3371,-28.6263"/>
<polygon fill="#191970" stroke="#191970" points="964.5496,-190.4785 955.8691,-196.5529 966.443,-197.2175 964.5496,-190.4785"/>
</g>
<!-- Node29 -->
<g id="node12" class="node">
<title>Node29</title>
<g id="a_node12"><a xlink:href="_n_l1_2_track_2_section_2_transport_device_8h.html" target="_top" xlink:title="libnolimits/NL1/Track\l/Section/TransportDevice.h">
<polygon fill="none" stroke="#ff0000" points="761.2275,-130.5 761.2275,-158.5 897.4717,-158.5 897.4717,-130.5 761.2275,-130.5"/>
<text text-anchor="start" x="769.2275" y="-146.5" font-family="Helvetica,sans-Serif" font-size="10.00" fill="#000000">libnolimits/NL1/Track</text>
<text text-anchor="middle" x="829.3496" y="-136.5" font-family="Helvetica,sans-Serif" font-size="10.00" fill="#000000">/Section/TransportDevice.h</text>
</a>
</g>
</g>
<!-- Node28&#45;&gt;Node29 -->
<g id="edge11" class="edge">
<title>Node28&#45;&gt;Node29</title>
<path fill="none" stroke="#191970" d="M878.1964,-188.5978C867.3247,-178.7831 854.6539,-167.3442 844.942,-158.5765"/>
<polygon fill="#191970" stroke="#191970" points="875.9586,-191.2929 885.7267,-195.396 880.6493,-186.097 875.9586,-191.2929"/>
</g>
<!-- Node32 -->
<g id="node14" class="node">
<title>Node32</title>
<g id="a_node14"><a xlink:href="_n_l1_2_track_2_section_2_transport_8cpp.html" target="_top" xlink:title="libnolimits/NL1/Track\l/Section/Transport.cpp">
<polygon fill="none" stroke="#000000" points="915.23,-130.5 915.23,-158.5 1031.4692,-158.5 1031.4692,-130.5 915.23,-130.5"/>
<text text-anchor="start" x="923.23" y="-146.5" font-family="Helvetica,sans-Serif" font-size="10.00" fill="#000000">libnolimits/NL1/Track</text>
<text text-anchor="middle" x="973.3496" y="-136.5" font-family="Helvetica,sans-Serif" font-size="10.00" fill="#000000">/Section/Transport.cpp</text>
</a>
</g>
</g>
<!-- Node28&#45;&gt;Node32 -->
<g id="edge15" class="edge">
<title>Node28&#45;&gt;Node32</title>
<path fill="none" stroke="#191970" d="M924.5028,-188.5978C935.3745,-178.7831 948.0453,-167.3442 957.7572,-158.5765"/>
<polygon fill="#191970" stroke="#191970" points="922.0499,-186.097 916.9725,-195.396 926.7406,-191.2929 922.0499,-186.097"/>
</g>
<!-- Node29&#45;&gt;Node24 -->
<g id="edge12" class="edge">
<title>Node29&#45;&gt;Node24</title>
<path fill="none" stroke="#191970" d="M758.6915,-128.2136C710.1151,-117.0169 646.5639,-102.3686 601.8826,-92.0697"/>
<polygon fill="#191970" stroke="#191970" points="757.9763,-131.6404 768.507,-130.476 759.5487,-124.8193 757.9763,-131.6404"/>
</g>
<!-- Node29&#45;&gt;Node30 -->
<g id="edge13" class="edge">
<title>Node29&#45;&gt;Node30</title>
<path fill="none" stroke="#191970" d="M853.146,-123.5978C864.3197,-113.7831 877.3424,-102.3442 887.324,-93.5765"/>
<polygon fill="#191970" stroke="#191970" points="850.6099,-121.1669 845.4065,-130.396 855.2295,-126.4261 850.6099,-121.1669"/>
</g>
<!-- Node33&#45;&gt;Node26 -->
<g id="edge18" class="edge">
<title>Node33&#45;&gt;Node26</title>
<path fill="none" stroke="#191970" d="M645.6085,-188.3735C629.6044,-172.0715 613.8855,-149.1457 626.3496,-130 671.97,-59.9239 770.8555,-32.0465 832.9606,-21.184"/>
<polygon fill="#191970" stroke="#191970" points="643.2452,-190.9566 652.8816,-195.3602 648.0946,-185.9084 643.2452,-190.9566"/>
</g>
<!-- Node34 -->
<g id="node16" class="node">
<title>Node34</title>
<g id="a_node16"><a xlink:href="_n_l1_2_track_2_section_2_lift_8cpp.html" target="_top" xlink:title="libnolimits/NL1/Track\l/Section/Lift.cpp">
<polygon fill="none" stroke="#000000" points="635.1313,-130.5 635.1313,-158.5 743.5679,-158.5 743.5679,-130.5 635.1313,-130.5"/>
<text text-anchor="start" x="643.1313" y="-146.5" font-family="Helvetica,sans-Serif" font-size="10.00" fill="#000000">libnolimits/NL1/Track</text>
<text text-anchor="middle" x="689.3496" y="-136.5" font-family="Helvetica,sans-Serif" font-size="10.00" fill="#000000">/Section/Lift.cpp</text>
</a>
</g>
</g>
<!-- Node33&#45;&gt;Node34 -->
<g id="edge17" class="edge">
<title>Node33&#45;&gt;Node34</title>
<path fill="none" stroke="#191970" d="M677.3074,-185.6971C679.9703,-176.5871 682.9209,-166.4929 685.2349,-158.5765"/>
<polygon fill="#191970" stroke="#191970" points="673.9186,-184.8156 674.4723,-195.396 680.6375,-186.7796 673.9186,-184.8156"/>
</g>
</g>
</svg>
