<?xml version="1.0" encoding="UTF-8" standalone="no"?>
<!DOCTYPE svg PUBLIC "-//W3C//DTD SVG 1.1//EN"
 "http://www.w3.org/Graphics/SVG/1.1/DTD/svg11.dtd">
<!-- Generated by graphviz version 2.40.1 (20161225.0304)
 -->
<!-- Title: libnolimits/NL1/Track/Section/Transport.h Pages: 1 -->
<svg width="579pt" height="232pt"
 viewBox="0.00 0.00 579.34 232.00" xmlns="http://www.w3.org/2000/svg" xmlns:xlink="http://www.w3.org/1999/xlink">
<g id="graph0" class="graph" transform="scale(1 1) rotate(0) translate(4 228)">
<title>libnolimits/NL1/Track/Section/Transport.h</title>
<!-- Node18 -->
<g id="node1" class="node">
<title>Node18</title>
<polygon fill="#bfbfbf" stroke="#000000" points="373,-195.5 373,-223.5 481.4365,-223.5 481.4365,-195.5 373,-195.5"/>
<text text-anchor="start" x="381" y="-211.5" font-family="Helvetica,sans-Serif" font-size="10.00" fill="#000000">libnolimits/NL1/Track</text>
<text text-anchor="middle" x="427.2183" y="-201.5" font-family="Helvetica,sans-Serif" font-size="10.00" fill="#000000">/Section/Transport.h</text>
</g>
<!-- Node19 -->
<g id="node2" class="node">
<title>Node19</title>
<g id="a_node2"><a xlink:href="_n_l1_2_track_2_section_2_transport_device_8h.html" target="_top" xlink:title="libnolimits/NL1/Track\l/Section/TransportDevice.h">
<polygon fill="none" stroke="#000000" points="185.0962,-130.5 185.0962,-158.5 321.3403,-158.5 321.3403,-130.5 185.0962,-130.5"/>
<text text-anchor="start" x="193.0962" y="-146.5" font-family="Helvetica,sans-Serif" font-size="10.00" fill="#000000">libnolimits/NL1/Track</text>
<text text-anchor="middle" x="253.2183" y="-136.5" font-family="Helvetica,sans-Serif" font-size="10.00" fill="#000000">/Section/TransportDevice.h</text>
</a>
</g>
</g>
<!-- Node18&#45;&gt;Node19 -->
<g id="edge1" class="edge">
<title>Node18&#45;&gt;Node19</title>
<path fill="none" stroke="#191970" d="M379.8863,-191.8185C351.9182,-181.3707 316.9908,-168.3231 290.9,-158.5765"/>
<polygon fill="#191970" stroke="#191970" points="378.8703,-195.1752 389.4629,-195.396 381.32,-188.6178 378.8703,-195.1752"/>
</g>
<!-- Node22 -->
<g id="node4" class="node">
<title>Node22</title>
<g id="a_node4"><a xlink:href="_n_l1_2_track_2_section_2_section_8cpp.html" target="_top" xlink:title="libnolimits/NL1/Track\l/Section/Section.cpp">
<polygon fill="none" stroke="#000000" points="186,-.5 186,-28.5 294.4365,-28.5 294.4365,-.5 186,-.5"/>
<text text-anchor="start" x="194" y="-16.5" font-family="Helvetica,sans-Serif" font-size="10.00" fill="#000000">libnolimits/NL1/Track</text>
<text text-anchor="middle" x="240.2183" y="-6.5" font-family="Helvetica,sans-Serif" font-size="10.00" fill="#000000">/Section/Section.cpp</text>
</a>
</g>
</g>
<!-- Node18&#45;&gt;Node22 -->
<g id="edge6" class="edge">
<title>Node18&#45;&gt;Node22</title>
<path fill="none" stroke="#191970" d="M431.3693,-185.0794C435.2608,-153.5134 436.8123,-98.6216 408.2183,-65 393.3707,-47.5419 337.9172,-33.1571 294.7331,-24.2659"/>
<polygon fill="#191970" stroke="#191970" points="427.873,-184.8077 429.9408,-195.1988 434.8043,-185.7862 427.873,-184.8077"/>
</g>
<!-- Node26 -->
<g id="node7" class="node">
<title>Node26</title>
<g id="a_node7"><a xlink:href="_n_l1_2_track_2_section_2_transport_8cpp.html" target="_top" xlink:title="libnolimits/NL1/Track\l/Section/Transport.cpp">
<polygon fill="none" stroke="#000000" points="455.0986,-130.5 455.0986,-158.5 571.3379,-158.5 571.3379,-130.5 455.0986,-130.5"/>
<text text-anchor="start" x="463.0986" y="-146.5" font-family="Helvetica,sans-Serif" font-size="10.00" fill="#000000">libnolimits/NL1/Track</text>
<text text-anchor="middle" x="513.2183" y="-136.5" font-family="Helvetica,sans-Serif" font-size="10.00" fill="#000000">/Section/Transport.cpp</text>
</a>
</g>
</g>
<!-- Node18&#45;&gt;Node26 -->
<g id="edge7" class="edge">
<title>Node18&#45;&gt;Node26</title>
<path fill="none" stroke="#191970" d="M454.1195,-189.1677C467.2701,-179.2283 482.7684,-167.5144 494.594,-158.5765"/>
<polygon fill="#191970" stroke="#191970" points="451.7463,-186.5741 445.879,-195.396 455.9671,-192.1585 451.7463,-186.5741"/>
</g>
<!-- Node20 -->
<g id="node3" class="node">
<title>Node20</title>
<g id="a_node3"><a xlink:href="_n_l1_2_track_2_section_2_brake_8h.html" target="_top" xlink:title="libnolimits/NL1/Track\l/Section/Brake.h">
<polygon fill="none" stroke="#ff0000" points="0,-65.5 0,-93.5 108.4365,-93.5 108.4365,-65.5 0,-65.5"/>
<text text-anchor="start" x="8" y="-81.5" font-family="Helvetica,sans-Serif" font-size="10.00" fill="#000000">libnolimits/NL1/Track</text>
<text text-anchor="middle" x="54.2183" y="-71.5" font-family="Helvetica,sans-Serif" font-size="10.00" fill="#000000">/Section/Brake.h</text>
</a>
</g>
</g>
<!-- Node19&#45;&gt;Node20 -->
<g id="edge2" class="edge">
<title>Node19&#45;&gt;Node20</title>
<path fill="none" stroke="#191970" d="M200.3387,-127.2278C168.1476,-116.7131 127.5445,-103.4508 97.314,-93.5765"/>
<polygon fill="#191970" stroke="#191970" points="199.4457,-130.618 210.0382,-130.396 201.6192,-123.964 199.4457,-130.618"/>
</g>
<!-- Node24 -->
<g id="node5" class="node">
<title>Node24</title>
<g id="a_node5"><a xlink:href="_n_l1_2_track_2_section_2_station_8h.html" target="_top" xlink:title="libnolimits/NL1/Track\l/Section/Station.h">
<polygon fill="none" stroke="#000000" points="126,-65.5 126,-93.5 234.4365,-93.5 234.4365,-65.5 126,-65.5"/>
<text text-anchor="start" x="134" y="-81.5" font-family="Helvetica,sans-Serif" font-size="10.00" fill="#000000">libnolimits/NL1/Track</text>
<text text-anchor="middle" x="180.2183" y="-71.5" font-family="Helvetica,sans-Serif" font-size="10.00" fill="#000000">/Section/Station.h</text>
</a>
</g>
</g>
<!-- Node19&#45;&gt;Node24 -->
<g id="edge4" class="edge">
<title>Node19&#45;&gt;Node24</title>
<path fill="none" stroke="#191970" d="M229.7435,-123.5978C218.7208,-113.7831 205.874,-102.3442 196.0273,-93.5765"/>
<polygon fill="#191970" stroke="#191970" points="227.5824,-126.3599 237.3783,-130.396 232.2374,-121.132 227.5824,-126.3599"/>
</g>
<!-- Node25 -->
<g id="node6" class="node">
<title>Node25</title>
<g id="a_node6"><a xlink:href="_n_l1_2_track_2_section_2_transport_device_8cpp.html" target="_top" xlink:title="libnolimits/NL1/Track\l/Section/TransportDevice.cpp">
<polygon fill="none" stroke="#000000" points="252.8154,-65.5 252.8154,-93.5 399.6211,-93.5 399.6211,-65.5 252.8154,-65.5"/>
<text text-anchor="start" x="260.8154" y="-81.5" font-family="Helvetica,sans-Serif" font-size="10.00" fill="#000000">libnolimits/NL1/Track</text>
<text text-anchor="middle" x="326.2183" y="-71.5" font-family="Helvetica,sans-Serif" font-size="10.00" fill="#000000">/Section/TransportDevice.cpp</text>
</a>
</g>
</g>
<!-- Node19&#45;&gt;Node25 -->
<g id="edge5" class="edge">
<title>Node19&#45;&gt;Node25</title>
<path fill="none" stroke="#191970" d="M276.6931,-123.5978C287.7157,-113.7831 300.5625,-102.3442 310.4093,-93.5765"/>
<polygon fill="#191970" stroke="#191970" points="274.1991,-121.132 269.0582,-130.396 278.8542,-126.3599 274.1991,-121.132"/>
</g>
<!-- Node20&#45;&gt;Node22 -->
<g id="edge3" class="edge">
<title>Node20&#45;&gt;Node22</title>
<path fill="none" stroke="#191970" d="M104.0329,-62.0917C134.0585,-51.5988 171.804,-38.4082 199.9378,-28.5765"/>
<polygon fill="#191970" stroke="#191970" points="102.863,-58.7929 94.5775,-65.396 105.1723,-65.401 102.863,-58.7929"/>
</g>
</g>
</svg>
