<?xml version="1.0" encoding="UTF-8" standalone="no"?>
<!DOCTYPE svg PUBLIC "-//W3C//DTD SVG 1.1//EN"
 "http://www.w3.org/Graphics/SVG/1.1/DTD/svg11.dtd">
<!-- Generated by graphviz version 2.40.1 (20161225.0304)
 -->
<!-- Title: libnolimits/NL1/Track/Train.cpp Pages: 1 -->
<svg width="203pt" height="202pt"
 viewBox="0.00 0.00 202.64 202.00" xmlns="http://www.w3.org/2000/svg" xmlns:xlink="http://www.w3.org/1999/xlink">
<g id="graph0" class="graph" transform="scale(1 1) rotate(0) translate(4 198)">
<title>libnolimits/NL1/Track/Train.cpp</title>
<!-- Node0 -->
<g id="node1" class="node">
<title>Node0</title>
<polygon fill="#bfbfbf" stroke="#000000" points="78.2446,-165.5 78.2446,-193.5 186.6812,-193.5 186.6812,-165.5 78.2446,-165.5"/>
<text text-anchor="start" x="86.2446" y="-181.5" font-family="Helvetica,sans-Serif" font-size="10.00" fill="#000000">libnolimits/NL1/Track</text>
<text text-anchor="middle" x="132.4629" y="-171.5" font-family="Helvetica,sans-Serif" font-size="10.00" fill="#000000">/Train.cpp</text>
</g>
<!-- Node1 -->
<g id="node2" class="node">
<title>Node1</title>
<g id="a_node2"><a xlink:href="_n_l1_2_track_2_train_8h.html" target="_top" xlink:title="Train.h">
<polygon fill="none" stroke="#000000" points="75.0845,-110.5 75.0845,-128.5 121.8413,-128.5 121.8413,-110.5 75.0845,-110.5"/>
<text text-anchor="middle" x="98.4629" y="-116.5" font-family="Helvetica,sans-Serif" font-size="10.00" fill="#000000">Train.h</text>
</a>
</g>
</g>
<!-- Node0&#45;&gt;Node1 -->
<g id="edge1" class="edge">
<title>Node0&#45;&gt;Node1</title>
<path fill="none" stroke="#191970" d="M124.4054,-165.2808C119.6752,-156.9336 113.6539,-146.3076 108.6032,-137.3946"/>
<polygon fill="#191970" stroke="#191970" points="111.5859,-135.5589 103.6106,-128.5842 105.4957,-139.01 111.5859,-135.5589"/>
</g>
<!-- Node11 -->
<g id="node6" class="node">
<title>Node11</title>
<polygon fill="none" stroke="#bfbfbf" points="140.2905,-110.5 140.2905,-128.5 194.6353,-128.5 194.6353,-110.5 140.2905,-110.5"/>
<text text-anchor="middle" x="167.4629" y="-116.5" font-family="Helvetica,sans-Serif" font-size="10.00" fill="#000000">iostream</text>
</g>
<!-- Node0&#45;&gt;Node11 -->
<g id="edge7" class="edge">
<title>Node0&#45;&gt;Node11</title>
<path fill="none" stroke="#191970" d="M140.7574,-165.2808C145.6266,-156.9336 151.8251,-146.3076 157.0244,-137.3946"/>
<polygon fill="#191970" stroke="#191970" points="160.1483,-138.9856 162.1638,-128.5842 154.1018,-135.4584 160.1483,-138.9856"/>
</g>
<!-- Node2 -->
<g id="node3" class="node">
<title>Node2</title>
<g id="a_node3"><a xlink:href="_chunk_8h.html" target="_top" xlink:title="../../Stream/Chunk.h">
<polygon fill="none" stroke="#ff0000" points="0,-.5 0,-18.5 104.9258,-18.5 104.9258,-.5 0,-.5"/>
<text text-anchor="middle" x="52.4629" y="-6.5" font-family="Helvetica,sans-Serif" font-size="10.00" fill="#000000">../../Stream/Chunk.h</text>
</a>
</g>
</g>
<!-- Node1&#45;&gt;Node2 -->
<g id="edge2" class="edge">
<title>Node1&#45;&gt;Node2</title>
<path fill="none" stroke="#191970" d="M81.038,-110.3464C68.2874,-102.5746 51.9588,-90.1181 44.4629,-74 37.7798,-59.6297 40.8381,-41.6125 44.9603,-28.2758"/>
<polygon fill="#191970" stroke="#191970" points="48.2972,-29.3374 48.3286,-18.7426 41.6971,-27.0054 48.2972,-29.3374"/>
</g>
<!-- Node18 -->
<g id="node4" class="node">
<title>Node18</title>
<g id="a_node4"><a xlink:href="_n_l1_2_track_2_individual_color_8h.html" target="_top" xlink:title="IndividualColor.h">
<polygon fill="none" stroke="#000000" points="53.4927,-55.5 53.4927,-73.5 143.4331,-73.5 143.4331,-55.5 53.4927,-55.5"/>
<text text-anchor="middle" x="98.4629" y="-61.5" font-family="Helvetica,sans-Serif" font-size="10.00" fill="#000000">IndividualColor.h</text>
</a>
</g>
</g>
<!-- Node1&#45;&gt;Node18 -->
<g id="edge3" class="edge">
<title>Node1&#45;&gt;Node18</title>
<path fill="none" stroke="#191970" d="M98.4629,-110.4179C98.4629,-103.2164 98.4629,-92.8962 98.4629,-83.8632"/>
<polygon fill="#191970" stroke="#191970" points="101.963,-83.7794 98.4629,-73.7795 94.963,-83.7795 101.963,-83.7794"/>
</g>
<!-- Node19 -->
<g id="node5" class="node">
<title>Node19</title>
<polygon fill="none" stroke="#bfbfbf" points="135.8472,-.5 135.8472,-18.5 179.0786,-18.5 179.0786,-.5 135.8472,-.5"/>
<text text-anchor="middle" x="157.4629" y="-6.5" font-family="Helvetica,sans-Serif" font-size="10.00" fill="#000000">vector</text>
</g>
<!-- Node1&#45;&gt;Node19 -->
<g id="edge6" class="edge">
<title>Node1&#45;&gt;Node19</title>
<path fill="none" stroke="#191970" d="M115.0217,-110.4988C127.653,-102.6568 144.2373,-90.0344 152.4629,-74 159.592,-60.1031 160.4512,-42.2715 159.7487,-28.8806"/>
<polygon fill="#191970" stroke="#191970" points="163.2314,-28.5272 158.8946,-18.8606 156.2567,-29.1218 163.2314,-28.5272"/>
</g>
<!-- Node18&#45;&gt;Node2 -->
<g id="edge4" class="edge">
<title>Node18&#45;&gt;Node2</title>
<path fill="none" stroke="#191970" d="M90.8669,-55.4179C84.3143,-47.5833 74.6746,-36.0575 66.6925,-26.5137"/>
<polygon fill="#191970" stroke="#191970" points="69.3243,-24.2048 60.2239,-18.7795 63.9547,-28.6957 69.3243,-24.2048"/>
</g>
<!-- Node18&#45;&gt;Node19 -->
<g id="edge5" class="edge">
<title>Node18&#45;&gt;Node19</title>
<path fill="none" stroke="#191970" d="M108.2055,-55.4179C116.8646,-47.3458 129.7269,-35.3556 140.1365,-25.6517"/>
<polygon fill="#191970" stroke="#191970" points="142.5804,-28.1584 147.5086,-18.7795 137.8073,-23.0381 142.5804,-28.1584"/>
</g>
</g>
</svg>
