<?xml version="1.0" encoding="UTF-8" standalone="no"?>
<!DOCTYPE svg PUBLIC "-//W3C//DTD SVG 1.1//EN"
 "http://www.w3.org/Graphics/SVG/1.1/DTD/svg11.dtd">
<!-- Generated by graphviz version 2.40.1 (20161225.0304)
 -->
<!-- Title: libnolimits/NL1/Info/Version.h Pages: 1 -->
<svg width="250pt" height="167pt"
 viewBox="0.00 0.00 249.59 167.00" xmlns="http://www.w3.org/2000/svg" xmlns:xlink="http://www.w3.org/1999/xlink">
<g id="graph0" class="graph" transform="scale(1 1) rotate(0) translate(4 163)">
<title>libnolimits/NL1/Info/Version.h</title>
<!-- Node17 -->
<g id="node1" class="node">
<title>Node17</title>
<polygon fill="#bfbfbf" stroke="#000000" points="65,-130.5 65,-158.5 165.4824,-158.5 165.4824,-130.5 65,-130.5"/>
<text text-anchor="start" x="73" y="-146.5" font-family="Helvetica,sans-Serif" font-size="10.00" fill="#000000">libnolimits/NL1/Info</text>
<text text-anchor="middle" x="115.2412" y="-136.5" font-family="Helvetica,sans-Serif" font-size="10.00" fill="#000000">/Version.h</text>
</g>
<!-- Node18 -->
<g id="node2" class="node">
<title>Node18</title>
<g id="a_node2"><a xlink:href="_n_l1_2_info_2_version_8cpp.html" target="_top" xlink:title="libnolimits/NL1/Info\l/Version.cpp">
<polygon fill="none" stroke="#000000" points="0,-65.5 0,-93.5 100.4824,-93.5 100.4824,-65.5 0,-65.5"/>
<text text-anchor="start" x="8" y="-81.5" font-family="Helvetica,sans-Serif" font-size="10.00" fill="#000000">libnolimits/NL1/Info</text>
<text text-anchor="middle" x="50.2412" y="-71.5" font-family="Helvetica,sans-Serif" font-size="10.00" fill="#000000">/Version.cpp</text>
</a>
</g>
</g>
<!-- Node17&#45;&gt;Node18 -->
<g id="edge1" class="edge">
<title>Node17&#45;&gt;Node18</title>
<path fill="none" stroke="#191970" d="M94.0527,-123.3115C84.3024,-113.5612 73.0003,-102.259 64.3177,-93.5765"/>
<polygon fill="#191970" stroke="#191970" points="91.5912,-125.7998 101.1372,-130.396 96.541,-120.85 91.5912,-125.7998"/>
</g>
<!-- Node19 -->
<g id="node3" class="node">
<title>Node19</title>
<g id="a_node3"><a xlink:href="_no_limits_track_8h.html" target="_top" xlink:title="libnolimits/NL1/NoLimits\lTrack.h">
<polygon fill="none" stroke="#000000" points="118.8916,-65.5 118.8916,-93.5 241.5908,-93.5 241.5908,-65.5 118.8916,-65.5"/>
<text text-anchor="start" x="126.8916" y="-81.5" font-family="Helvetica,sans-Serif" font-size="10.00" fill="#000000">libnolimits/NL1/NoLimits</text>
<text text-anchor="middle" x="180.2412" y="-71.5" font-family="Helvetica,sans-Serif" font-size="10.00" fill="#000000">Track.h</text>
</a>
</g>
</g>
<!-- Node17&#45;&gt;Node19 -->
<g id="edge2" class="edge">
<title>Node17&#45;&gt;Node19</title>
<path fill="none" stroke="#191970" d="M136.4297,-123.3115C146.18,-113.5612 157.4822,-102.259 166.1647,-93.5765"/>
<polygon fill="#191970" stroke="#191970" points="133.9415,-120.85 129.3452,-130.396 138.8912,-125.7998 133.9415,-120.85"/>
</g>
<!-- Node20 -->
<g id="node4" class="node">
<title>Node20</title>
<g id="a_node4"><a xlink:href="_no_limits_track_8cpp.html" target="_top" xlink:title="libnolimits/NL1/NoLimits\lTrack.cpp">
<polygon fill="none" stroke="#000000" points="118.8916,-.5 118.8916,-28.5 241.5908,-28.5 241.5908,-.5 118.8916,-.5"/>
<text text-anchor="start" x="126.8916" y="-16.5" font-family="Helvetica,sans-Serif" font-size="10.00" fill="#000000">libnolimits/NL1/NoLimits</text>
<text text-anchor="middle" x="180.2412" y="-6.5" font-family="Helvetica,sans-Serif" font-size="10.00" fill="#000000">Track.cpp</text>
</a>
</g>
</g>
<!-- Node19&#45;&gt;Node20 -->
<g id="edge3" class="edge">
<title>Node19&#45;&gt;Node20</title>
<path fill="none" stroke="#191970" d="M180.2412,-55.1081C180.2412,-46.1539 180.2412,-36.3227 180.2412,-28.5765"/>
<polygon fill="#191970" stroke="#191970" points="176.7413,-55.3959 180.2412,-65.396 183.7413,-55.396 176.7413,-55.3959"/>
</g>
</g>
</svg>
