<?xml version="1.0" encoding="UTF-8" standalone="no"?>
<!DOCTYPE svg PUBLIC "-//W3C//DTD SVG 1.1//EN"
 "http://www.w3.org/Graphics/SVG/1.1/DTD/svg11.dtd">
<!-- Generated by graphviz version 2.40.1 (20161225.0304)
 -->
<!-- Title: libnolimits/NL1/Track/Track.cpp Pages: 1 -->
<svg width="797pt" height="312pt"
 viewBox="0.00 0.00 797.03 312.00" xmlns="http://www.w3.org/2000/svg" xmlns:xlink="http://www.w3.org/1999/xlink">
<g id="graph0" class="graph" transform="scale(1 1) rotate(0) translate(4 308)">
<title>libnolimits/NL1/Track/Track.cpp</title>
<!-- Node0 -->
<g id="node1" class="node">
<title>Node0</title>
<polygon fill="#bfbfbf" stroke="#000000" points="278.0771,-275.5 278.0771,-303.5 386.5137,-303.5 386.5137,-275.5 278.0771,-275.5"/>
<text text-anchor="start" x="286.0771" y="-291.5" font-family="Helvetica,sans-Serif" font-size="10.00" fill="#000000">libnolimits/NL1/Track</text>
<text text-anchor="middle" x="332.2954" y="-281.5" font-family="Helvetica,sans-Serif" font-size="10.00" fill="#000000">/Track.cpp</text>
</g>
<!-- Node1 -->
<g id="node2" class="node">
<title>Node1</title>
<g id="a_node2"><a xlink:href="_n_l1_2_track_2_track_8h.html" target="_top" xlink:title="Track.h">
<polygon fill="none" stroke="#000000" points="307.8086,-220.5 307.8086,-238.5 356.7822,-238.5 356.7822,-220.5 307.8086,-220.5"/>
<text text-anchor="middle" x="332.2954" y="-226.5" font-family="Helvetica,sans-Serif" font-size="10.00" fill="#000000">Track.h</text>
</a>
</g>
</g>
<!-- Node0&#45;&gt;Node1 -->
<g id="edge1" class="edge">
<title>Node0&#45;&gt;Node1</title>
<path fill="none" stroke="#191970" d="M332.2954,-275.2808C332.2954,-267.3776 332.2954,-257.4316 332.2954,-248.8308"/>
<polygon fill="#191970" stroke="#191970" points="335.7955,-248.5842 332.2954,-238.5842 328.7955,-248.5842 335.7955,-248.5842"/>
</g>
<!-- Node25 -->
<g id="node12" class="node">
<title>Node25</title>
<g id="a_node12"><a xlink:href="_normal_file_8h.html" target="_top" xlink:title="../../File/NormalFile.h">
<polygon fill="none" stroke="#000000" points="661.1748,-220.5 661.1748,-238.5 769.416,-238.5 769.416,-220.5 661.1748,-220.5"/>
<text text-anchor="middle" x="715.2954" y="-226.5" font-family="Helvetica,sans-Serif" font-size="10.00" fill="#000000">../../File/NormalFile.h</text>
</a>
</g>
</g>
<!-- Node0&#45;&gt;Node25 -->
<g id="edge20" class="edge">
<title>Node0&#45;&gt;Node25</title>
<path fill="none" stroke="#191970" d="M386.7632,-280.9672C456.3907,-270.0595 576.7723,-251.2008 650.8763,-239.5918"/>
<polygon fill="#191970" stroke="#191970" points="651.6777,-243.009 661.0155,-238.0034 650.5943,-236.0933 651.6777,-243.009"/>
</g>
<!-- Node27 -->
<g id="node14" class="node">
<title>Node27</title>
<g id="a_node14"><a xlink:href="_memory_file_8h.html" target="_top" xlink:title="../../File/MemoryFile.h">
<polygon fill="none" stroke="#000000" points="575.2314,-165.5 575.2314,-183.5 687.3594,-183.5 687.3594,-165.5 575.2314,-165.5"/>
<text text-anchor="middle" x="631.2954" y="-171.5" font-family="Helvetica,sans-Serif" font-size="10.00" fill="#000000">../../File/MemoryFile.h</text>
</a>
</g>
</g>
<!-- Node0&#45;&gt;Node27 -->
<g id="edge23" class="edge">
<title>Node0&#45;&gt;Node27</title>
<path fill="none" stroke="#191970" d="M368.9587,-275.3987C427.6548,-252.8233 541.8306,-208.9095 598.1909,-187.2325"/>
<polygon fill="#191970" stroke="#191970" points="599.6159,-190.4344 607.6929,-183.5779 597.103,-183.901 599.6159,-190.4344"/>
</g>
<!-- Node28 -->
<g id="node15" class="node">
<title>Node28</title>
<g id="a_node15"><a xlink:href="_beziers_chunk_8h.html" target="_top" xlink:title="BeziersChunk.h">
<polygon fill="none" stroke="#000000" points="0,-220.5 0,-238.5 86.5908,-238.5 86.5908,-220.5 0,-220.5"/>
<text text-anchor="middle" x="43.2954" y="-226.5" font-family="Helvetica,sans-Serif" font-size="10.00" fill="#000000">BeziersChunk.h</text>
</a>
</g>
</g>
<!-- Node0&#45;&gt;Node28 -->
<g id="edge26" class="edge">
<title>Node0&#45;&gt;Node28</title>
<path fill="none" stroke="#191970" d="M277.9367,-278.2145C226.125,-267.4577 148.5702,-251.3563 96.9824,-240.6461"/>
<polygon fill="#191970" stroke="#191970" points="97.5291,-237.185 87.0264,-238.5791 96.1061,-244.0389 97.5291,-237.185"/>
</g>
<!-- Node29 -->
<g id="node16" class="node">
<title>Node29</title>
<g id="a_node16"><a xlink:href="_segments_chunk_8h.html" target="_top" xlink:title="Section/SegmentsChunk.h">
<polygon fill="none" stroke="#000000" points="138.0938,-220.5 138.0938,-238.5 272.4971,-238.5 272.4971,-220.5 138.0938,-220.5"/>
<text text-anchor="middle" x="205.2954" y="-226.5" font-family="Helvetica,sans-Serif" font-size="10.00" fill="#000000">Section/SegmentsChunk.h</text>
</a>
</g>
</g>
<!-- Node0&#45;&gt;Node29 -->
<g id="edge28" class="edge">
<title>Node0&#45;&gt;Node29</title>
<path fill="none" stroke="#191970" d="M302.5196,-275.4327C281.7599,-265.625 254.2258,-252.6167 233.7597,-242.9477"/>
<polygon fill="#191970" stroke="#191970" points="235.1597,-239.7382 224.6228,-238.6311 232.1694,-246.0674 235.1597,-239.7382"/>
</g>
<!-- Node2 -->
<g id="node3" class="node">
<title>Node2</title>
<g id="a_node3"><a xlink:href="_nolimits_8h.html" target="_top" xlink:title="../../Nolimits.h">
<polygon fill="none" stroke="#ff0000" points="459.0122,-.5 459.0122,-18.5 535.5786,-18.5 535.5786,-.5 459.0122,-.5"/>
<text text-anchor="middle" x="497.2954" y="-6.5" font-family="Helvetica,sans-Serif" font-size="10.00" fill="#000000">../../Nolimits.h</text>
</a>
</g>
</g>
<!-- Node1&#45;&gt;Node2 -->
<g id="edge2" class="edge">
<title>Node1&#45;&gt;Node2</title>
<path fill="none" stroke="#191970" d="M356.9333,-226.0068C399.9048,-219.459 486.1042,-204.1613 508.2954,-184 552.056,-144.2425 522.86,-63.9702 506.3914,-27.8475"/>
<polygon fill="#191970" stroke="#191970" points="509.4164,-26.0579 501.969,-18.5223 503.0916,-29.0575 509.4164,-26.0579"/>
</g>
<!-- Node11 -->
<g id="node4" class="node">
<title>Node11</title>
<g id="a_node4"><a xlink:href="_chunk_8h.html" target="_top" xlink:title="../../Stream/Chunk.h">
<polygon fill="none" stroke="#ff0000" points="210.8325,-110.5 210.8325,-128.5 315.7583,-128.5 315.7583,-110.5 210.8325,-110.5"/>
<text text-anchor="middle" x="263.2954" y="-116.5" font-family="Helvetica,sans-Serif" font-size="10.00" fill="#000000">../../Stream/Chunk.h</text>
</a>
</g>
</g>
<!-- Node1&#45;&gt;Node11 -->
<g id="edge3" class="edge">
<title>Node1&#45;&gt;Node11</title>
<path fill="none" stroke="#191970" d="M307.6855,-224.7536C272.4319,-217.3975 210.3529,-202.18 197.2954,-184 183.1037,-164.2408 208.9671,-145.2295 232.3619,-133.0304"/>
<polygon fill="#191970" stroke="#191970" points="234.0296,-136.1105 241.4485,-128.5467 230.932,-129.8331 234.0296,-136.1105"/>
</g>
<!-- Node18 -->
<g id="node6" class="node">
<title>Node18</title>
<g id="a_node6"><a xlink:href="_n_l1_2_info_2_info_8h.html" target="_top" xlink:title="../Info/Info.h">
<polygon fill="none" stroke="#ff0000" points="412.8892,-165.5 412.8892,-183.5 481.7017,-183.5 481.7017,-165.5 412.8892,-165.5"/>
<text text-anchor="middle" x="447.2954" y="-171.5" font-family="Helvetica,sans-Serif" font-size="10.00" fill="#000000">../Info/Info.h</text>
</a>
</g>
</g>
<!-- Node1&#45;&gt;Node18 -->
<g id="edge7" class="edge">
<title>Node1&#45;&gt;Node18</title>
<path fill="none" stroke="#191970" d="M351.2853,-220.4179C369.7631,-211.5807 398.0602,-198.0473 419.1537,-187.9591"/>
<polygon fill="#191970" stroke="#191970" points="420.766,-191.0677 428.2773,-183.5956 417.7458,-184.7528 420.766,-191.0677"/>
</g>
<!-- Node8 -->
<g id="node7" class="node">
<title>Node8</title>
<polygon fill="none" stroke="#bfbfbf" points="479.0688,-110.5 479.0688,-128.5 519.522,-128.5 519.522,-110.5 479.0688,-110.5"/>
<text text-anchor="middle" x="499.2954" y="-116.5" font-family="Helvetica,sans-Serif" font-size="10.00" fill="#000000">string</text>
</g>
<!-- Node1&#45;&gt;Node8 -->
<g id="edge19" class="edge">
<title>Node1&#45;&gt;Node8</title>
<path fill="none" stroke="#191970" d="M357.0514,-225.7063C396.9688,-219.0663 472.8534,-204.1078 490.2954,-184 500.9349,-171.7344 502.4696,-152.9326 501.7665,-138.7877"/>
<polygon fill="#191970" stroke="#191970" points="505.237,-138.3017 500.8541,-128.656 498.2653,-138.9296 505.237,-138.3017"/>
</g>
<!-- Node19 -->
<g id="node8" class="node">
<title>Node19</title>
<g id="a_node8"><a xlink:href="_n_l1_2_track_2_train_8h.html" target="_top" xlink:title="Train.h">
<polygon fill="none" stroke="#ff0000" points="205.917,-165.5 205.917,-183.5 252.6738,-183.5 252.6738,-165.5 205.917,-165.5"/>
<text text-anchor="middle" x="229.2954" y="-171.5" font-family="Helvetica,sans-Serif" font-size="10.00" fill="#000000">Train.h</text>
</a>
</g>
</g>
<!-- Node1&#45;&gt;Node19 -->
<g id="edge11" class="edge">
<title>Node1&#45;&gt;Node19</title>
<path fill="none" stroke="#191970" d="M315.2871,-220.4179C298.9611,-211.7001 274.0764,-198.4122 255.27,-188.3699"/>
<polygon fill="#191970" stroke="#191970" points="256.7988,-185.2186 246.329,-183.5956 253.5016,-191.3934 256.7988,-185.2186"/>
</g>
<!-- Node22 -->
<g id="node9" class="node">
<title>Node22</title>
<g id="a_node9"><a xlink:href="_n_l1_2_track_2_vertex_8h.html" target="_top" xlink:title="Vertex.h">
<polygon fill="none" stroke="#000000" points="270.9482,-165.5 270.9482,-183.5 323.6426,-183.5 323.6426,-165.5 270.9482,-165.5"/>
<text text-anchor="middle" x="297.2954" y="-171.5" font-family="Helvetica,sans-Serif" font-size="10.00" fill="#000000">Vertex.h</text>
</a>
</g>
</g>
<!-- Node1&#45;&gt;Node22 -->
<g id="edge13" class="edge">
<title>Node1&#45;&gt;Node22</title>
<path fill="none" stroke="#191970" d="M326.5159,-220.4179C321.6813,-212.8207 314.638,-201.7527 308.6778,-192.3866"/>
<polygon fill="#191970" stroke="#191970" points="311.5221,-190.337 303.2005,-183.7795 305.6165,-194.0952 311.5221,-190.337"/>
</g>
<!-- Node23 -->
<g id="node10" class="node">
<title>Node23</title>
<g id="a_node10"><a xlink:href="_n_l1_2_track_2_colors_8h.html" target="_top" xlink:title="Colors.h">
<polygon fill="none" stroke="#000000" points="341.6772,-165.5 341.6772,-183.5 394.9136,-183.5 394.9136,-165.5 341.6772,-165.5"/>
<text text-anchor="middle" x="368.2954" y="-171.5" font-family="Helvetica,sans-Serif" font-size="10.00" fill="#000000">Colors.h</text>
</a>
</g>
</g>
<!-- Node1&#45;&gt;Node23 -->
<g id="edge15" class="edge">
<title>Node1&#45;&gt;Node23</title>
<path fill="none" stroke="#191970" d="M338.2401,-220.4179C343.2128,-212.8207 350.4573,-201.7527 356.5878,-192.3866"/>
<polygon fill="#191970" stroke="#191970" points="359.6734,-194.0633 362.2216,-183.7795 353.8165,-190.2297 359.6734,-194.0633"/>
</g>
<!-- Node24 -->
<g id="node11" class="node">
<title>Node24</title>
<g id="a_node11"><a xlink:href="_n_l1_2_track_2_section_2_section_8h.html" target="_top" xlink:title="Section/Section.h">
<polygon fill="none" stroke="#000000" points="56.3818,-165.5 56.3818,-183.5 150.209,-183.5 150.209,-165.5 56.3818,-165.5"/>
<text text-anchor="middle" x="103.2954" y="-171.5" font-family="Helvetica,sans-Serif" font-size="10.00" fill="#000000">Section/Section.h</text>
</a>
</g>
</g>
<!-- Node1&#45;&gt;Node24 -->
<g id="edge17" class="edge">
<title>Node1&#45;&gt;Node24</title>
<path fill="none" stroke="#191970" d="M307.7884,-223.614C270.4095,-214.6366 198.4641,-197.3571 150.6592,-185.8756"/>
<polygon fill="#191970" stroke="#191970" points="151.3866,-182.4508 140.8457,-183.5186 149.7518,-189.2573 151.3866,-182.4508"/>
</g>
<!-- Node11&#45;&gt;Node2 -->
<g id="edge6" class="edge">
<title>Node11&#45;&gt;Node2</title>
<path fill="none" stroke="#191970" d="M282.4446,-110.4982C323.4957,-91.2007 420.1645,-45.7581 468.5932,-22.9925"/>
<polygon fill="#191970" stroke="#191970" points="470.3207,-26.0479 477.8816,-18.6261 467.3427,-19.713 470.3207,-26.0479"/>
</g>
<!-- Node12 -->
<g id="node5" class="node">
<title>Node12</title>
<g id="a_node5"><a xlink:href="_file_8h.html" target="_top" xlink:title="../File/File.h">
<polygon fill="none" stroke="#ff0000" points="580.4556,-55.5 580.4556,-73.5 648.1353,-73.5 648.1353,-55.5 580.4556,-55.5"/>
<text text-anchor="middle" x="614.2954" y="-61.5" font-family="Helvetica,sans-Serif" font-size="10.00" fill="#000000">../File/File.h</text>
</a>
</g>
</g>
<!-- Node11&#45;&gt;Node12 -->
<g id="edge4" class="edge">
<title>Node11&#45;&gt;Node12</title>
<path fill="none" stroke="#191970" d="M315.8437,-111.2659C385.0077,-100.4283 505.371,-81.5679 570.0958,-71.4259"/>
<polygon fill="#191970" stroke="#191970" points="570.6521,-74.8815 579.9897,-69.8755 569.5684,-67.9659 570.6521,-74.8815"/>
</g>
<!-- Node12&#45;&gt;Node2 -->
<g id="edge5" class="edge">
<title>Node12&#45;&gt;Node2</title>
<path fill="none" stroke="#191970" d="M594.9752,-55.4179C576.1762,-46.5807 547.3869,-33.0473 525.9265,-22.9591"/>
<polygon fill="#191970" stroke="#191970" points="527.1832,-19.6824 516.6443,-18.5956 524.2052,-26.0174 527.1832,-19.6824"/>
</g>
<!-- Node18&#45;&gt;Node2 -->
<g id="edge8" class="edge">
<title>Node18&#45;&gt;Node2</title>
<path fill="none" stroke="#191970" d="M450.1269,-165.1561C458.1024,-138.837 480.8685,-63.709 491.5855,-28.3426"/>
<polygon fill="#191970" stroke="#191970" points="494.9444,-29.3267 494.495,-18.7414 488.2453,-27.2966 494.9444,-29.3267"/>
</g>
<!-- Node18&#45;&gt;Node11 -->
<g id="edge9" class="edge">
<title>Node18&#45;&gt;Node11</title>
<path fill="none" stroke="#191970" d="M416.9116,-165.4179C385.7894,-156.115 337.2568,-141.608 303.0871,-131.3943"/>
<polygon fill="#191970" stroke="#191970" points="304.0021,-128.0148 293.4186,-128.5042 301.9973,-134.7216 304.0021,-128.0148"/>
</g>
<!-- Node18&#45;&gt;Node8 -->
<g id="edge10" class="edge">
<title>Node18&#45;&gt;Node8</title>
<path fill="none" stroke="#191970" d="M455.8822,-165.4179C463.3642,-157.5041 474.407,-145.8243 483.4826,-136.2251"/>
<polygon fill="#191970" stroke="#191970" points="486.1952,-138.4505 490.5221,-128.7795 481.1087,-133.6414 486.1952,-138.4505"/>
</g>
<!-- Node19&#45;&gt;Node11 -->
<g id="edge12" class="edge">
<title>Node19&#45;&gt;Node11</title>
<path fill="none" stroke="#191970" d="M234.9098,-165.4179C239.6063,-157.8207 246.4483,-146.7527 252.2382,-137.3866"/>
<polygon fill="#191970" stroke="#191970" points="255.2778,-139.1258 257.559,-128.7795 249.3237,-135.445 255.2778,-139.1258"/>
</g>
<!-- Node22&#45;&gt;Node11 -->
<g id="edge14" class="edge">
<title>Node22&#45;&gt;Node11</title>
<path fill="none" stroke="#191970" d="M291.681,-165.4179C286.9846,-157.8207 280.1425,-146.7527 274.3526,-137.3866"/>
<polygon fill="#191970" stroke="#191970" points="277.2672,-135.445 269.0318,-128.7795 271.313,-139.1258 277.2672,-135.445"/>
</g>
<!-- Node23&#45;&gt;Node11 -->
<g id="edge16" class="edge">
<title>Node23&#45;&gt;Node11</title>
<path fill="none" stroke="#191970" d="M350.9568,-165.4179C334.3138,-156.7001 308.9459,-143.4122 289.7743,-133.3699"/>
<polygon fill="#191970" stroke="#191970" points="291.1422,-130.1353 280.6598,-128.5956 287.8941,-136.3362 291.1422,-130.1353"/>
</g>
<!-- Node24&#45;&gt;Node11 -->
<g id="edge18" class="edge">
<title>Node24&#45;&gt;Node11</title>
<path fill="none" stroke="#191970" d="M129.7162,-165.4179C156.4305,-156.2348 197.8969,-141.9807 227.5401,-131.7909"/>
<polygon fill="#191970" stroke="#191970" points="228.7823,-135.065 237.1013,-128.5042 226.5067,-128.4452 228.7823,-135.065"/>
</g>
<!-- Node25&#45;&gt;Node12 -->
<g id="edge21" class="edge">
<title>Node25&#45;&gt;Node12</title>
<path fill="none" stroke="#191970" d="M713.7788,-220.3039C711.3891,-207.3826 705.9906,-183.3787 696.2954,-165 678.8277,-131.8873 649.465,-99.3976 631.0236,-80.6866"/>
<polygon fill="#191970" stroke="#191970" points="633.4114,-78.1249 623.8554,-73.5496 628.4724,-83.0855 633.4114,-78.1249"/>
</g>
<!-- Node26 -->
<g id="node13" class="node">
<title>Node26</title>
<polygon fill="none" stroke="#bfbfbf" points="743.564,-165.5 743.564,-183.5 789.0269,-183.5 789.0269,-165.5 743.564,-165.5"/>
<text text-anchor="middle" x="766.2954" y="-171.5" font-family="Helvetica,sans-Serif" font-size="10.00" fill="#000000">stdio.h</text>
</g>
<!-- Node25&#45;&gt;Node26 -->
<g id="edge22" class="edge">
<title>Node25&#45;&gt;Node26</title>
<path fill="none" stroke="#191970" d="M723.717,-220.4179C731.0552,-212.5041 741.8856,-200.8243 750.7867,-191.2251"/>
<polygon fill="#191970" stroke="#191970" points="753.4578,-193.492 757.6908,-183.7795 748.3249,-188.7324 753.4578,-193.492"/>
</g>
<!-- Node27&#45;&gt;Node12 -->
<g id="edge24" class="edge">
<title>Node27&#45;&gt;Node12</title>
<path fill="none" stroke="#191970" d="M629.9042,-165.4982C627.1523,-147.6913 620.9598,-107.6225 617.2552,-83.6515"/>
<polygon fill="#191970" stroke="#191970" points="620.6922,-82.9742 615.7058,-73.6261 613.7743,-84.0434 620.6922,-82.9742"/>
</g>
<!-- Node27&#45;&gt;Node8 -->
<g id="edge25" class="edge">
<title>Node27&#45;&gt;Node8</title>
<path fill="none" stroke="#191970" d="M609.4983,-165.4179C587.6163,-156.3004 553.737,-142.184 529.3187,-132.0097"/>
<polygon fill="#191970" stroke="#191970" points="530.3978,-128.6677 519.8208,-128.0522 527.7054,-135.1292 530.3978,-128.6677"/>
</g>
<!-- Node28&#45;&gt;Node11 -->
<g id="edge27" class="edge">
<title>Node28&#45;&gt;Node11</title>
<path fill="none" stroke="#191970" d="M38.412,-220.4278C31.8098,-206.7804 22.2722,-180.8789 35.2954,-165 55.8628,-139.9226 140.455,-128.3997 200.5844,-123.2959"/>
<polygon fill="#191970" stroke="#191970" points="201.072,-126.7679 210.7573,-122.4731 200.5077,-119.7907 201.072,-126.7679"/>
</g>
<!-- Node29&#45;&gt;Node11 -->
<g id="edge29" class="edge">
<title>Node29&#45;&gt;Node11</title>
<path fill="none" stroke="#191970" d="M137.9421,-224.0252C82.8009,-216.8893 18.2688,-200.778 47.2954,-165 66.3427,-141.5224 143.9583,-129.7011 200.714,-124.086"/>
<polygon fill="#191970" stroke="#191970" points="201.069,-127.5681 210.6943,-123.1405 200.4087,-120.5993 201.069,-127.5681"/>
</g>
</g>
</svg>
