<?xml version="1.0" encoding="UTF-8" standalone="no"?>
<!DOCTYPE svg PUBLIC "-//W3C//DTD SVG 1.1//EN"
 "http://www.w3.org/Graphics/SVG/1.1/DTD/svg11.dtd">
<!-- Generated by graphviz version 2.40.1 (20161225.0304)
 -->
<!-- Title: libnolimits/NL1/Track/Section/Brake.h Pages: 1 -->
<svg width="368pt" height="102pt"
 viewBox="0.00 0.00 368.44 102.00" xmlns="http://www.w3.org/2000/svg" xmlns:xlink="http://www.w3.org/1999/xlink">
<g id="graph0" class="graph" transform="scale(1 1) rotate(0) translate(4 98)">
<title>libnolimits/NL1/Track/Section/Brake.h</title>
<!-- Node20 -->
<g id="node1" class="node">
<title>Node20</title>
<polygon fill="#bfbfbf" stroke="#000000" points="126,-65.5 126,-93.5 234.4365,-93.5 234.4365,-65.5 126,-65.5"/>
<text text-anchor="start" x="134" y="-81.5" font-family="Helvetica,sans-Serif" font-size="10.00" fill="#000000">libnolimits/NL1/Track</text>
<text text-anchor="middle" x="180.2183" y="-71.5" font-family="Helvetica,sans-Serif" font-size="10.00" fill="#000000">/Section/Brake.h</text>
</g>
<!-- Node21 -->
<g id="node2" class="node">
<title>Node21</title>
<g id="a_node2"><a xlink:href="_n_l1_2_track_2_section_2_brake_8cpp.html" target="_top" xlink:title="libnolimits/NL1/Track\l/Section/Brake.cpp">
<polygon fill="none" stroke="#000000" points="0,-.5 0,-28.5 108.4365,-28.5 108.4365,-.5 0,-.5"/>
<text text-anchor="start" x="8" y="-16.5" font-family="Helvetica,sans-Serif" font-size="10.00" fill="#000000">libnolimits/NL1/Track</text>
<text text-anchor="middle" x="54.2183" y="-6.5" font-family="Helvetica,sans-Serif" font-size="10.00" fill="#000000">/Section/Brake.cpp</text>
</a>
</g>
</g>
<!-- Node20&#45;&gt;Node21 -->
<g id="edge1" class="edge">
<title>Node20&#45;&gt;Node21</title>
<path fill="none" stroke="#191970" d="M143.8029,-60.7143C123.9313,-50.4631 99.7384,-37.9826 81.505,-28.5765"/>
<polygon fill="#191970" stroke="#191970" points="142.3864,-63.9218 152.8781,-65.396 145.5956,-57.7008 142.3864,-63.9218"/>
</g>
<!-- Node22 -->
<g id="node3" class="node">
<title>Node22</title>
<g id="a_node3"><a xlink:href="_n_l1_2_track_2_section_2_section_8cpp.html" target="_top" xlink:title="libnolimits/NL1/Track\l/Section/Section.cpp">
<polygon fill="none" stroke="#000000" points="126,-.5 126,-28.5 234.4365,-28.5 234.4365,-.5 126,-.5"/>
<text text-anchor="start" x="134" y="-16.5" font-family="Helvetica,sans-Serif" font-size="10.00" fill="#000000">libnolimits/NL1/Track</text>
<text text-anchor="middle" x="180.2183" y="-6.5" font-family="Helvetica,sans-Serif" font-size="10.00" fill="#000000">/Section/Section.cpp</text>
</a>
</g>
</g>
<!-- Node20&#45;&gt;Node22 -->
<g id="edge2" class="edge">
<title>Node20&#45;&gt;Node22</title>
<path fill="none" stroke="#191970" d="M180.2183,-55.1081C180.2183,-46.1539 180.2183,-36.3227 180.2183,-28.5765"/>
<polygon fill="#191970" stroke="#191970" points="176.7184,-55.3959 180.2183,-65.396 183.7184,-55.396 176.7184,-55.3959"/>
</g>
<!-- Node23 -->
<g id="node4" class="node">
<title>Node23</title>
<g id="a_node4"><a xlink:href="_n_l1_2_track_2_section_2_station_8cpp.html" target="_top" xlink:title="libnolimits/NL1/Track\l/Section/Station.cpp">
<polygon fill="none" stroke="#000000" points="252,-.5 252,-28.5 360.4365,-28.5 360.4365,-.5 252,-.5"/>
<text text-anchor="start" x="260" y="-16.5" font-family="Helvetica,sans-Serif" font-size="10.00" fill="#000000">libnolimits/NL1/Track</text>
<text text-anchor="middle" x="306.2183" y="-6.5" font-family="Helvetica,sans-Serif" font-size="10.00" fill="#000000">/Section/Station.cpp</text>
</a>
</g>
</g>
<!-- Node20&#45;&gt;Node23 -->
<g id="edge3" class="edge">
<title>Node20&#45;&gt;Node23</title>
<path fill="none" stroke="#191970" d="M216.6336,-60.7143C236.5052,-50.4631 260.6982,-37.9826 278.9315,-28.5765"/>
<polygon fill="#191970" stroke="#191970" points="214.8409,-57.7008 207.5584,-65.396 218.0502,-63.9218 214.8409,-57.7008"/>
</g>
</g>
</svg>
