<?xml version="1.0" encoding="UTF-8" standalone="no"?>
<!DOCTYPE svg PUBLIC "-//W3C//DTD SVG 1.1//EN"
 "http://www.w3.org/Graphics/SVG/1.1/DTD/svg11.dtd">
<!-- Generated by graphviz version 2.40.1 (20161225.0304)
 -->
<!-- Title: libnolimits/NL1/Track/Section/TransportDevice.h Pages: 1 -->
<svg width="144pt" height="147pt"
 viewBox="0.00 0.00 144.24 147.00" xmlns="http://www.w3.org/2000/svg" xmlns:xlink="http://www.w3.org/1999/xlink">
<g id="graph0" class="graph" transform="scale(1 1) rotate(0) translate(4 143)">
<title>libnolimits/NL1/Track/Section/TransportDevice.h</title>
<!-- Node0 -->
<g id="node1" class="node">
<title>Node0</title>
<polygon fill="#bfbfbf" stroke="#000000" points="0,-110.5 0,-138.5 136.2441,-138.5 136.2441,-110.5 0,-110.5"/>
<text text-anchor="start" x="8" y="-126.5" font-family="Helvetica,sans-Serif" font-size="10.00" fill="#000000">libnolimits/NL1/Track</text>
<text text-anchor="middle" x="68.1221" y="-116.5" font-family="Helvetica,sans-Serif" font-size="10.00" fill="#000000">/Section/TransportDevice.h</text>
</g>
<!-- Node1 -->
<g id="node2" class="node">
<title>Node1</title>
<g id="a_node2"><a xlink:href="_n_l1_2_track_2_section_2_transport_8h.html" target="_top" xlink:title="Transport.h">
<polygon fill="none" stroke="#000000" points="34.7388,-55.5 34.7388,-73.5 101.5054,-73.5 101.5054,-55.5 34.7388,-55.5"/>
<text text-anchor="middle" x="68.1221" y="-61.5" font-family="Helvetica,sans-Serif" font-size="10.00" fill="#000000">Transport.h</text>
</a>
</g>
</g>
<!-- Node0&#45;&gt;Node1 -->
<g id="edge1" class="edge">
<title>Node0&#45;&gt;Node1</title>
<path fill="none" stroke="#191970" d="M68.1221,-110.2808C68.1221,-102.3776 68.1221,-92.4316 68.1221,-83.8308"/>
<polygon fill="#191970" stroke="#191970" points="71.6222,-83.5842 68.1221,-73.5842 64.6222,-83.5842 71.6222,-83.5842"/>
</g>
<!-- Node2 -->
<g id="node3" class="node">
<title>Node2</title>
<g id="a_node3"><a xlink:href="_n_l1_2_track_2_section_2_section_8h.html" target="_top" xlink:title="Section.h">
<polygon fill="none" stroke="#ff0000" points="39.2749,-.5 39.2749,-18.5 96.9692,-18.5 96.9692,-.5 39.2749,-.5"/>
<text text-anchor="middle" x="68.1221" y="-6.5" font-family="Helvetica,sans-Serif" font-size="10.00" fill="#000000">Section.h</text>
</a>
</g>
</g>
<!-- Node1&#45;&gt;Node2 -->
<g id="edge2" class="edge">
<title>Node1&#45;&gt;Node2</title>
<path fill="none" stroke="#191970" d="M68.1221,-55.4179C68.1221,-48.2164 68.1221,-37.8962 68.1221,-28.8632"/>
<polygon fill="#191970" stroke="#191970" points="71.6222,-28.7794 68.1221,-18.7795 64.6222,-28.7795 71.6222,-28.7794"/>
</g>
</g>
</svg>
