<?xml version="1.0" encoding="UTF-8" standalone="no"?>
<!DOCTYPE svg PUBLIC "-//W3C//DTD SVG 1.1//EN"
 "http://www.w3.org/Graphics/SVG/1.1/DTD/svg11.dtd">
<!-- Generated by graphviz version 2.40.1 (20161225.0304)
 -->
<!-- Title: libnolimits/NL1/Track/Section/Lift.h Pages: 1 -->
<svg width="242pt" height="102pt"
 viewBox="0.00 0.00 242.44 102.00" xmlns="http://www.w3.org/2000/svg" xmlns:xlink="http://www.w3.org/1999/xlink">
<g id="graph0" class="graph" transform="scale(1 1) rotate(0) translate(4 98)">
<title>libnolimits/NL1/Track/Section/Lift.h</title>
<!-- Node18 -->
<g id="node1" class="node">
<title>Node18</title>
<polygon fill="#bfbfbf" stroke="#000000" points="63,-65.5 63,-93.5 171.4365,-93.5 171.4365,-65.5 63,-65.5"/>
<text text-anchor="start" x="71" y="-81.5" font-family="Helvetica,sans-Serif" font-size="10.00" fill="#000000">libnolimits/NL1/Track</text>
<text text-anchor="middle" x="117.2183" y="-71.5" font-family="Helvetica,sans-Serif" font-size="10.00" fill="#000000">/Section/Lift.h</text>
</g>
<!-- Node19 -->
<g id="node2" class="node">
<title>Node19</title>
<g id="a_node2"><a xlink:href="_n_l1_2_track_2_section_2_lift_8cpp.html" target="_top" xlink:title="libnolimits/NL1/Track\l/Section/Lift.cpp">
<polygon fill="none" stroke="#000000" points="0,-.5 0,-28.5 108.4365,-28.5 108.4365,-.5 0,-.5"/>
<text text-anchor="start" x="8" y="-16.5" font-family="Helvetica,sans-Serif" font-size="10.00" fill="#000000">libnolimits/NL1/Track</text>
<text text-anchor="middle" x="54.2183" y="-6.5" font-family="Helvetica,sans-Serif" font-size="10.00" fill="#000000">/Section/Lift.cpp</text>
</a>
</g>
</g>
<!-- Node18&#45;&gt;Node19 -->
<g id="edge1" class="edge">
<title>Node18&#45;&gt;Node19</title>
<path fill="none" stroke="#191970" d="M96.4033,-58.0243C87.0169,-48.3398 76.1945,-37.1739 67.8616,-28.5765"/>
<polygon fill="#191970" stroke="#191970" points="94.0752,-60.6512 103.5482,-65.396 99.1017,-55.7793 94.0752,-60.6512"/>
</g>
<!-- Node20 -->
<g id="node3" class="node">
<title>Node20</title>
<g id="a_node3"><a xlink:href="_n_l1_2_track_2_section_2_section_8cpp.html" target="_top" xlink:title="libnolimits/NL1/Track\l/Section/Section.cpp">
<polygon fill="none" stroke="#000000" points="126,-.5 126,-28.5 234.4365,-28.5 234.4365,-.5 126,-.5"/>
<text text-anchor="start" x="134" y="-16.5" font-family="Helvetica,sans-Serif" font-size="10.00" fill="#000000">libnolimits/NL1/Track</text>
<text text-anchor="middle" x="180.2183" y="-6.5" font-family="Helvetica,sans-Serif" font-size="10.00" fill="#000000">/Section/Section.cpp</text>
</a>
</g>
</g>
<!-- Node18&#45;&gt;Node20 -->
<g id="edge2" class="edge">
<title>Node18&#45;&gt;Node20</title>
<path fill="none" stroke="#191970" d="M138.0332,-58.0243C147.4196,-48.3398 158.242,-37.1739 166.5749,-28.5765"/>
<polygon fill="#191970" stroke="#191970" points="135.3348,-55.7793 130.8883,-65.396 140.3613,-60.6512 135.3348,-55.7793"/>
</g>
</g>
</svg>
