<?xml version="1.0" encoding="UTF-8" standalone="no"?>
<!DOCTYPE svg PUBLIC "-//W3C//DTD SVG 1.1//EN"
 "http://www.w3.org/Graphics/SVG/1.1/DTD/svg11.dtd">
<!-- Generated by graphviz version 2.40.1 (20161225.0304)
 -->
<!-- Title: libnolimits/NL1/Track/Track.h Pages: 1 -->
<svg width="550pt" height="167pt"
 viewBox="0.00 0.00 549.57 167.00" xmlns="http://www.w3.org/2000/svg" xmlns:xlink="http://www.w3.org/1999/xlink">
<g id="graph0" class="graph" transform="scale(1 1) rotate(0) translate(4 163)">
<title>libnolimits/NL1/Track/Track.h</title>
<!-- Node24 -->
<g id="node1" class="node">
<title>Node24</title>
<polygon fill="#bfbfbf" stroke="#000000" points="214.1313,-130.5 214.1313,-158.5 322.5679,-158.5 322.5679,-130.5 214.1313,-130.5"/>
<text text-anchor="start" x="222.1313" y="-146.5" font-family="Helvetica,sans-Serif" font-size="10.00" fill="#000000">libnolimits/NL1/Track</text>
<text text-anchor="middle" x="268.3496" y="-136.5" font-family="Helvetica,sans-Serif" font-size="10.00" fill="#000000">/Track.h</text>
</g>
<!-- Node25 -->
<g id="node2" class="node">
<title>Node25</title>
<g id="a_node2"><a xlink:href="_no_limits_track_8h.html" target="_top" xlink:title="libnolimits/NL1/NoLimits\lTrack.h">
<polygon fill="none" stroke="#000000" points="0,-65.5 0,-93.5 122.6992,-93.5 122.6992,-65.5 0,-65.5"/>
<text text-anchor="start" x="8" y="-81.5" font-family="Helvetica,sans-Serif" font-size="10.00" fill="#000000">libnolimits/NL1/NoLimits</text>
<text text-anchor="middle" x="61.3496" y="-71.5" font-family="Helvetica,sans-Serif" font-size="10.00" fill="#000000">Track.h</text>
</a>
</g>
</g>
<!-- Node24&#45;&gt;Node25 -->
<g id="edge1" class="edge">
<title>Node24&#45;&gt;Node25</title>
<path fill="none" stroke="#191970" d="M214.0336,-127.4442C180.4789,-116.9078 137.938,-103.5495 106.2874,-93.6109"/>
<polygon fill="#191970" stroke="#191970" points="213.0993,-130.8193 223.6885,-130.476 215.1964,-124.1408 213.0993,-130.8193"/>
</g>
<!-- Node27 -->
<g id="node4" class="node">
<title>Node27</title>
<g id="a_node4"><a xlink:href="_beziers_chunk_8cpp.html" target="_top" xlink:title="libnolimits/NL1/Track\l/BeziersChunk.cpp">
<polygon fill="none" stroke="#000000" points="141.1313,-65.5 141.1313,-93.5 249.5679,-93.5 249.5679,-65.5 141.1313,-65.5"/>
<text text-anchor="start" x="149.1313" y="-81.5" font-family="Helvetica,sans-Serif" font-size="10.00" fill="#000000">libnolimits/NL1/Track</text>
<text text-anchor="middle" x="195.3496" y="-71.5" font-family="Helvetica,sans-Serif" font-size="10.00" fill="#000000">/BeziersChunk.cpp</text>
</a>
</g>
</g>
<!-- Node24&#45;&gt;Node27 -->
<g id="edge3" class="edge">
<title>Node24&#45;&gt;Node27</title>
<path fill="none" stroke="#191970" d="M244.8748,-123.5978C233.8521,-113.7831 221.0054,-102.3442 211.1586,-93.5765"/>
<polygon fill="#191970" stroke="#191970" points="242.7137,-126.3599 252.5097,-130.396 247.3687,-121.132 242.7137,-126.3599"/>
</g>
<!-- Node28 -->
<g id="node5" class="node">
<title>Node28</title>
<g id="a_node5"><a xlink:href="_segments_chunk_8cpp.html" target="_top" xlink:title="libnolimits/NL1/Track\l/Section/SegmentsChunk.cpp">
<polygon fill="none" stroke="#000000" points="267.478,-65.5 267.478,-93.5 415.2212,-93.5 415.2212,-65.5 267.478,-65.5"/>
<text text-anchor="start" x="275.478" y="-81.5" font-family="Helvetica,sans-Serif" font-size="10.00" fill="#000000">libnolimits/NL1/Track</text>
<text text-anchor="middle" x="341.3496" y="-71.5" font-family="Helvetica,sans-Serif" font-size="10.00" fill="#000000">/Section/SegmentsChunk.cpp</text>
</a>
</g>
</g>
<!-- Node24&#45;&gt;Node28 -->
<g id="edge4" class="edge">
<title>Node24&#45;&gt;Node28</title>
<path fill="none" stroke="#191970" d="M291.8244,-123.5978C302.8471,-113.7831 315.6938,-102.3442 325.5406,-93.5765"/>
<polygon fill="#191970" stroke="#191970" points="289.3305,-121.132 284.1895,-130.396 293.9855,-126.3599 289.3305,-121.132"/>
</g>
<!-- Node29 -->
<g id="node6" class="node">
<title>Node29</title>
<g id="a_node6"><a xlink:href="_n_l1_2_track_2_track_8cpp.html" target="_top" xlink:title="libnolimits/NL1/Track\l/Track.cpp">
<polygon fill="none" stroke="#000000" points="433.1313,-65.5 433.1313,-93.5 541.5679,-93.5 541.5679,-65.5 433.1313,-65.5"/>
<text text-anchor="start" x="441.1313" y="-81.5" font-family="Helvetica,sans-Serif" font-size="10.00" fill="#000000">libnolimits/NL1/Track</text>
<text text-anchor="middle" x="487.3496" y="-71.5" font-family="Helvetica,sans-Serif" font-size="10.00" fill="#000000">/Track.cpp</text>
</a>
</g>
</g>
<!-- Node24&#45;&gt;Node29 -->
<g id="edge5" class="edge">
<title>Node24&#45;&gt;Node29</title>
<path fill="none" stroke="#191970" d="M325.3578,-127.5797C360.9277,-117.0225 406.1776,-103.5921 439.8067,-93.6109"/>
<polygon fill="#191970" stroke="#191970" points="324.1905,-124.2752 315.5997,-130.476 326.1823,-130.9859 324.1905,-124.2752"/>
</g>
<!-- Node26 -->
<g id="node3" class="node">
<title>Node26</title>
<g id="a_node3"><a xlink:href="_no_limits_track_8cpp.html" target="_top" xlink:title="libnolimits/NL1/NoLimits\lTrack.cpp">
<polygon fill="none" stroke="#000000" points="0,-.5 0,-28.5 122.6992,-28.5 122.6992,-.5 0,-.5"/>
<text text-anchor="start" x="8" y="-16.5" font-family="Helvetica,sans-Serif" font-size="10.00" fill="#000000">libnolimits/NL1/NoLimits</text>
<text text-anchor="middle" x="61.3496" y="-6.5" font-family="Helvetica,sans-Serif" font-size="10.00" fill="#000000">Track.cpp</text>
</a>
</g>
</g>
<!-- Node25&#45;&gt;Node26 -->
<g id="edge2" class="edge">
<title>Node25&#45;&gt;Node26</title>
<path fill="none" stroke="#191970" d="M61.3496,-55.1081C61.3496,-46.1539 61.3496,-36.3227 61.3496,-28.5765"/>
<polygon fill="#191970" stroke="#191970" points="57.8497,-55.3959 61.3496,-65.396 64.8497,-55.396 57.8497,-55.3959"/>
</g>
</g>
</svg>
