<?xml version="1.0" encoding="UTF-8" standalone="no"?>
<!DOCTYPE svg PUBLIC "-//W3C//DTD SVG 1.1//EN"
 "http://www.w3.org/Graphics/SVG/1.1/DTD/svg11.dtd">
<!-- Generated by graphviz version 2.40.1 (20161225.0304)
 -->
<!-- Title: libnolimits/NL1/Track/Track.h Pages: 1 -->
<svg width="523pt" height="422pt"
 viewBox="0.00 0.00 523.00 422.00" xmlns="http://www.w3.org/2000/svg" xmlns:xlink="http://www.w3.org/1999/xlink">
<g id="graph0" class="graph" transform="scale(1 1) rotate(0) translate(4 418)">
<title>libnolimits/NL1/Track/Track.h</title>
<!-- Node0 -->
<g id="node1" class="node">
<title>Node0</title>
<polygon fill="#bfbfbf" stroke="#000000" points="167.7817,-385.5 167.7817,-413.5 276.2183,-413.5 276.2183,-385.5 167.7817,-385.5"/>
<text text-anchor="start" x="175.7817" y="-401.5" font-family="Helvetica,sans-Serif" font-size="10.00" fill="#000000">libnolimits/NL1/Track</text>
<text text-anchor="middle" x="222" y="-391.5" font-family="Helvetica,sans-Serif" font-size="10.00" fill="#000000">/Track.h</text>
</g>
<!-- Node1 -->
<g id="node2" class="node">
<title>Node1</title>
<g id="a_node2"><a xlink:href="_nolimits_8h.html" target="_top" xlink:title="../../Nolimits.h">
<polygon fill="none" stroke="#000000" points="116.7168,-110.5 116.7168,-128.5 193.2832,-128.5 193.2832,-110.5 116.7168,-110.5"/>
<text text-anchor="middle" x="155" y="-116.5" font-family="Helvetica,sans-Serif" font-size="10.00" fill="#000000">../../Nolimits.h</text>
</a>
</g>
</g>
<!-- Node0&#45;&gt;Node1 -->
<g id="edge1" class="edge">
<title>Node0&#45;&gt;Node1</title>
<path fill="none" stroke="#191970" d="M167.6927,-394.8316C101.9699,-385.8614 0,-359.8092 0,-284.5 0,-284.5 0,-284.5 0,-229.5 0,-176.1629 61.7942,-146.3265 107.3482,-131.5779"/>
<polygon fill="#191970" stroke="#191970" points="108.5607,-134.8666 117.0827,-128.5717 106.4952,-128.1783 108.5607,-134.8666"/>
</g>
<!-- Node7 -->
<g id="node5" class="node">
<title>Node7</title>
<polygon fill="none" stroke="#bfbfbf" points="212.7734,-.5 212.7734,-18.5 253.2266,-18.5 253.2266,-.5 212.7734,-.5"/>
<text text-anchor="middle" x="233" y="-6.5" font-family="Helvetica,sans-Serif" font-size="10.00" fill="#000000">string</text>
</g>
<!-- Node0&#45;&gt;Node7 -->
<g id="edge29" class="edge">
<title>Node0&#45;&gt;Node7</title>
<path fill="none" stroke="#191970" d="M276.4244,-389.6705C361.1578,-372.7976 515,-335.184 515,-284.5 515,-284.5 515,-284.5 515,-119.5 515,-65.906 335.9821,-27.8847 263.2124,-14.6432"/>
<polygon fill="#191970" stroke="#191970" points="263.7402,-11.1821 253.2807,-12.8704 262.5101,-18.0732 263.7402,-11.1821"/>
</g>
<!-- Node10 -->
<g id="node6" class="node">
<title>Node10</title>
<g id="a_node6"><a xlink:href="_chunk_8h.html" target="_top" xlink:title="../../Stream/Chunk.h">
<polygon fill="none" stroke="#000000" points="170.5371,-220.5 170.5371,-238.5 275.4629,-238.5 275.4629,-220.5 170.5371,-220.5"/>
<text text-anchor="middle" x="223" y="-226.5" font-family="Helvetica,sans-Serif" font-size="10.00" fill="#000000">../../Stream/Chunk.h</text>
</a>
</g>
</g>
<!-- Node0&#45;&gt;Node10 -->
<g id="edge5" class="edge">
<title>Node0&#45;&gt;Node10</title>
<path fill="none" stroke="#191970" d="M228.9145,-385.3095C233.3462,-375.3994 238.6866,-361.7183 241,-349 247.4502,-313.5387 237.1375,-271.8568 229.6551,-248.2724"/>
<polygon fill="#191970" stroke="#191970" points="232.8854,-246.8964 226.391,-238.5254 226.2478,-249.1193 232.8854,-246.8964"/>
</g>
<!-- Node17 -->
<g id="node10" class="node">
<title>Node17</title>
<g id="a_node10"><a xlink:href="_n_l1_2_info_2_info_8h.html" target="_top" xlink:title="../Info/Info.h">
<polygon fill="none" stroke="#000000" points="44.5938,-275.5 44.5938,-293.5 113.4063,-293.5 113.4063,-275.5 44.5938,-275.5"/>
<text text-anchor="middle" x="79" y="-281.5" font-family="Helvetica,sans-Serif" font-size="10.00" fill="#000000">../Info/Info.h</text>
</a>
</g>
</g>
<!-- Node0&#45;&gt;Node17 -->
<g id="edge12" class="edge">
<title>Node0&#45;&gt;Node17</title>
<path fill="none" stroke="#191970" d="M167.4327,-389.9863C124.7135,-381.2964 70.3618,-367.0632 57,-349 46.6107,-334.9552 55.525,-315.6543 64.9313,-301.8329"/>
<polygon fill="#191970" stroke="#191970" points="67.8503,-303.7722 70.9857,-293.6519 62.2236,-299.6081 67.8503,-303.7722"/>
</g>
<!-- Node18 -->
<g id="node11" class="node">
<title>Node18</title>
<g id="a_node11"><a xlink:href="_n_l1_2_track_2_train_8h.html" target="_top" xlink:title="Train.h">
<polygon fill="none" stroke="#000000" points="353.6216,-330.5 353.6216,-348.5 400.3784,-348.5 400.3784,-330.5 353.6216,-330.5"/>
<text text-anchor="middle" x="377" y="-336.5" font-family="Helvetica,sans-Serif" font-size="10.00" fill="#000000">Train.h</text>
</a>
</g>
</g>
<!-- Node0&#45;&gt;Node18 -->
<g id="edge17" class="edge">
<title>Node0&#45;&gt;Node18</title>
<path fill="none" stroke="#191970" d="M258.3406,-385.4327C284.2504,-375.4031 318.8066,-362.0265 343.942,-352.2966"/>
<polygon fill="#191970" stroke="#191970" points="345.3492,-355.5051 353.4114,-348.6311 342.8222,-348.9771 345.3492,-355.5051"/>
</g>
<!-- Node21 -->
<g id="node14" class="node">
<title>Node21</title>
<g id="a_node14"><a xlink:href="_n_l1_2_track_2_vertex_8h.html" target="_top" xlink:title="Vertex.h">
<polygon fill="none" stroke="#000000" points="250.6528,-275.5 250.6528,-293.5 303.3472,-293.5 303.3472,-275.5 250.6528,-275.5"/>
<text text-anchor="middle" x="277" y="-281.5" font-family="Helvetica,sans-Serif" font-size="10.00" fill="#000000">Vertex.h</text>
</a>
</g>
</g>
<!-- Node0&#45;&gt;Node21 -->
<g id="edge23" class="edge">
<title>Node0&#45;&gt;Node21</title>
<path fill="none" stroke="#191970" d="M242.7723,-385.4741C254.1804,-376.5088 267.3323,-363.8014 274,-349 280.3388,-334.9288 280.7275,-317.3381 279.7325,-304.0829"/>
<polygon fill="#191970" stroke="#191970" points="283.1699,-303.3143 278.6167,-293.7478 276.2104,-304.0657 283.1699,-303.3143"/>
</g>
<!-- Node22 -->
<g id="node15" class="node">
<title>Node22</title>
<g id="a_node15"><a xlink:href="_n_l1_2_track_2_colors_8h.html" target="_top" xlink:title="Colors.h">
<polygon fill="none" stroke="#000000" points="66.3818,-330.5 66.3818,-348.5 119.6182,-348.5 119.6182,-330.5 66.3818,-330.5"/>
<text text-anchor="middle" x="93" y="-336.5" font-family="Helvetica,sans-Serif" font-size="10.00" fill="#000000">Colors.h</text>
</a>
</g>
</g>
<!-- Node0&#45;&gt;Node22 -->
<g id="edge25" class="edge">
<title>Node0&#45;&gt;Node22</title>
<path fill="none" stroke="#191970" d="M191.7552,-385.4327C170.6687,-375.625 142.7009,-362.6167 121.9126,-352.9477"/>
<polygon fill="#191970" stroke="#191970" points="123.1751,-349.6749 112.6318,-348.6311 120.2229,-356.022 123.1751,-349.6749"/>
</g>
<!-- Node23 -->
<g id="node16" class="node">
<title>Node23</title>
<g id="a_node16"><a xlink:href="_n_l1_2_track_2_section_2_section_8h.html" target="_top" xlink:title="Section/Section.h">
<polygon fill="none" stroke="#000000" points="138.0864,-330.5 138.0864,-348.5 231.9136,-348.5 231.9136,-330.5 138.0864,-330.5"/>
<text text-anchor="middle" x="185" y="-336.5" font-family="Helvetica,sans-Serif" font-size="10.00" fill="#000000">Section/Section.h</text>
</a>
</g>
</g>
<!-- Node0&#45;&gt;Node23 -->
<g id="edge27" class="edge">
<title>Node0&#45;&gt;Node23</title>
<path fill="none" stroke="#191970" d="M213.2315,-385.2808C208.0293,-376.8448 201.3918,-366.0813 195.86,-357.1107"/>
<polygon fill="#191970" stroke="#191970" points="198.83,-355.2588 190.6019,-348.5842 192.8717,-358.933 198.83,-355.2588"/>
</g>
<!-- Node2 -->
<g id="node3" class="node">
<title>Node2</title>
<polygon fill="none" stroke="#bfbfbf" points="95.6504,-55.5 95.6504,-73.5 188.3496,-73.5 188.3496,-55.5 95.6504,-55.5"/>
<text text-anchor="middle" x="142" y="-61.5" font-family="Helvetica,sans-Serif" font-size="10.00" fill="#000000">glm/common.hpp</text>
</g>
<!-- Node1&#45;&gt;Node2 -->
<g id="edge2" class="edge">
<title>Node1&#45;&gt;Node2</title>
<path fill="none" stroke="#191970" d="M152.8533,-110.4179C151.1324,-103.1372 148.6581,-92.669 146.5065,-83.5659"/>
<polygon fill="#191970" stroke="#191970" points="149.8998,-82.7062 144.1933,-73.7795 143.0875,-84.3164 149.8998,-82.7062"/>
</g>
<!-- Node3 -->
<g id="node4" class="node">
<title>Node3</title>
<g id="a_node4"><a xlink:href="_helper_8h.html" target="_top" xlink:title="Helper.h">
<polygon fill="none" stroke="#ff0000" points="206.3745,-55.5 206.3745,-73.5 259.6255,-73.5 259.6255,-55.5 206.3745,-55.5"/>
<text text-anchor="middle" x="233" y="-61.5" font-family="Helvetica,sans-Serif" font-size="10.00" fill="#000000">Helper.h</text>
</a>
</g>
</g>
<!-- Node1&#45;&gt;Node3 -->
<g id="edge3" class="edge">
<title>Node1&#45;&gt;Node3</title>
<path fill="none" stroke="#191970" d="M167.8801,-110.4179C179.7354,-102.0584 197.5502,-89.4966 211.5516,-79.6239"/>
<polygon fill="#191970" stroke="#191970" points="213.9451,-82.2188 220.1008,-73.5956 209.9112,-76.498 213.9451,-82.2188"/>
</g>
<!-- Node3&#45;&gt;Node7 -->
<g id="edge4" class="edge">
<title>Node3&#45;&gt;Node7</title>
<path fill="none" stroke="#191970" d="M233,-55.4179C233,-48.2164 233,-37.8962 233,-28.8632"/>
<polygon fill="#191970" stroke="#191970" points="236.5001,-28.7794 233,-18.7795 229.5001,-28.7795 236.5001,-28.7794"/>
</g>
<!-- Node10&#45;&gt;Node1 -->
<g id="edge9" class="edge">
<title>Node10&#45;&gt;Node1</title>
<path fill="none" stroke="#191970" d="M217.4353,-220.4982C206.2281,-202.369 180.7564,-161.1647 166.0444,-137.3659"/>
<polygon fill="#191970" stroke="#191970" points="168.877,-135.2917 160.6416,-128.6261 162.9228,-138.9725 168.877,-135.2917"/>
</g>
<!-- Node11 -->
<g id="node7" class="node">
<title>Node11</title>
<g id="a_node7"><a xlink:href="_file_8h.html" target="_top" xlink:title="../File/File.h">
<polygon fill="none" stroke="#ff0000" points="215.1602,-165.5 215.1602,-183.5 282.8398,-183.5 282.8398,-165.5 215.1602,-165.5"/>
<text text-anchor="middle" x="249" y="-171.5" font-family="Helvetica,sans-Serif" font-size="10.00" fill="#000000">../File/File.h</text>
</a>
</g>
</g>
<!-- Node10&#45;&gt;Node11 -->
<g id="edge6" class="edge">
<title>Node10&#45;&gt;Node11</title>
<path fill="none" stroke="#191970" d="M227.2934,-220.4179C230.81,-212.9789 235.8996,-202.2123 240.2668,-192.9742"/>
<polygon fill="#191970" stroke="#191970" points="243.5038,-194.316 244.6133,-183.7795 237.1752,-191.3243 243.5038,-194.316"/>
</g>
<!-- Node15 -->
<g id="node8" class="node">
<title>Node15</title>
<polygon fill="none" stroke="#bfbfbf" points="255.8794,-110.5 255.8794,-128.5 304.1206,-128.5 304.1206,-110.5 255.8794,-110.5"/>
<text text-anchor="middle" x="280" y="-116.5" font-family="Helvetica,sans-Serif" font-size="10.00" fill="#000000">stdint.h</text>
</g>
<!-- Node10&#45;&gt;Node15 -->
<g id="edge10" class="edge">
<title>Node10&#45;&gt;Node15</title>
<path fill="none" stroke="#191970" d="M247.826,-220.3658C263.5747,-213.1227 282.6804,-201.3089 292,-184 299.6592,-169.7748 295.1468,-151.5117 289.5994,-138.0525"/>
<polygon fill="#191970" stroke="#191970" points="292.7146,-136.45 285.34,-128.843 286.3612,-139.3885 292.7146,-136.45"/>
</g>
<!-- Node16 -->
<g id="node9" class="node">
<title>Node16</title>
<polygon fill="none" stroke="#bfbfbf" points="106.9385,-165.5 106.9385,-183.5 159.0615,-183.5 159.0615,-165.5 106.9385,-165.5"/>
<text text-anchor="middle" x="133" y="-171.5" font-family="Helvetica,sans-Serif" font-size="10.00" fill="#000000">ostream</text>
</g>
<!-- Node10&#45;&gt;Node16 -->
<g id="edge11" class="edge">
<title>Node10&#45;&gt;Node16</title>
<path fill="none" stroke="#191970" d="M208.1383,-220.4179C194.1986,-211.8992 173.118,-199.0166 156.8299,-189.0627"/>
<polygon fill="#191970" stroke="#191970" points="158.2417,-185.8237 147.8837,-183.5956 154.5915,-191.7967 158.2417,-185.8237"/>
</g>
<!-- Node11&#45;&gt;Node1 -->
<g id="edge8" class="edge">
<title>Node11&#45;&gt;Node1</title>
<path fill="none" stroke="#191970" d="M233.4778,-165.4179C218.7825,-156.8195 196.4888,-143.7754 179.4134,-133.7844"/>
<polygon fill="#191970" stroke="#191970" points="180.9439,-130.6249 170.5452,-128.5956 177.4088,-136.6667 180.9439,-130.6249"/>
</g>
<!-- Node11&#45;&gt;Node15 -->
<g id="edge7" class="edge">
<title>Node11&#45;&gt;Node15</title>
<path fill="none" stroke="#191970" d="M254.119,-165.4179C258.3565,-157.8998 264.5097,-146.9829 269.7532,-137.6799"/>
<polygon fill="#191970" stroke="#191970" points="272.9086,-139.2096 274.7698,-128.7795 266.8105,-135.7724 272.9086,-139.2096"/>
</g>
<!-- Node17&#45;&gt;Node1 -->
<g id="edge13" class="edge">
<title>Node17&#45;&gt;Node1</title>
<path fill="none" stroke="#191970" d="M78.3115,-275.375C77.1558,-254.3461 76.749,-201.4868 98,-165 105.3415,-152.3951 117.6186,-141.9206 128.9024,-134.2118"/>
<polygon fill="#191970" stroke="#191970" points="131.0858,-136.9702 137.6256,-128.6346 127.315,-131.0725 131.0858,-136.9702"/>
</g>
<!-- Node17&#45;&gt;Node7 -->
<g id="edge15" class="edge">
<title>Node17&#45;&gt;Node7</title>
<path fill="none" stroke="#191970" d="M73.5555,-275.4507C63.0482,-257.0998 41,-213.899 41,-174.5 41,-174.5 41,-174.5 41,-119.5 41,-46.0288 148.1579,-20.9413 202.3647,-12.9508"/>
<polygon fill="#191970" stroke="#191970" points="203.019,-16.394 212.4526,-11.5714 202.0706,-9.4586 203.019,-16.394"/>
</g>
<!-- Node17&#45;&gt;Node10 -->
<g id="edge14" class="edge">
<title>Node17&#45;&gt;Node10</title>
<path fill="none" stroke="#191970" d="M102.7787,-275.4179C126.4371,-266.3817 162.9513,-252.4353 189.5324,-242.2828"/>
<polygon fill="#191970" stroke="#191970" points="191.093,-245.4334 199.186,-238.5956 188.5954,-238.8941 191.093,-245.4334"/>
</g>
<!-- Node17&#45;&gt;Node16 -->
<g id="edge16" class="edge">
<title>Node17&#45;&gt;Node16</title>
<path fill="none" stroke="#191970" d="M83.419,-275.4982C92.2793,-257.4496 112.3668,-216.5306 124.0732,-192.6843"/>
<polygon fill="#191970" stroke="#191970" points="127.2549,-194.1452 128.5199,-183.6261 120.9713,-191.0605 127.2549,-194.1452"/>
</g>
<!-- Node18&#45;&gt;Node10 -->
<g id="edge18" class="edge">
<title>Node18&#45;&gt;Node10</title>
<path fill="none" stroke="#191970" d="M369.3419,-330.2608C357.8933,-316.8575 335.1718,-291.791 312,-275 294.2154,-262.1127 272.2626,-250.847 254.6099,-242.7494"/>
<polygon fill="#191970" stroke="#191970" points="255.8566,-239.473 245.299,-238.5865 252.9995,-245.8634 255.8566,-239.473"/>
</g>
<!-- Node19 -->
<g id="node12" class="node">
<title>Node19</title>
<g id="a_node12"><a xlink:href="_n_l1_2_track_2_individual_color_8h.html" target="_top" xlink:title="IndividualColor.h">
<polygon fill="none" stroke="#000000" points="359.0298,-275.5 359.0298,-293.5 448.9702,-293.5 448.9702,-275.5 359.0298,-275.5"/>
<text text-anchor="middle" x="404" y="-281.5" font-family="Helvetica,sans-Serif" font-size="10.00" fill="#000000">IndividualColor.h</text>
</a>
</g>
</g>
<!-- Node18&#45;&gt;Node19 -->
<g id="edge19" class="edge">
<title>Node18&#45;&gt;Node19</title>
<path fill="none" stroke="#191970" d="M381.4585,-330.4179C385.1103,-322.9789 390.3958,-312.2123 394.9309,-302.9742"/>
<polygon fill="#191970" stroke="#191970" points="398.1797,-304.2985 399.4446,-293.7795 391.896,-301.2138 398.1797,-304.2985"/>
</g>
<!-- Node20 -->
<g id="node13" class="node">
<title>Node20</title>
<polygon fill="none" stroke="#bfbfbf" points="412.3843,-220.5 412.3843,-238.5 455.6157,-238.5 455.6157,-220.5 412.3843,-220.5"/>
<text text-anchor="middle" x="434" y="-226.5" font-family="Helvetica,sans-Serif" font-size="10.00" fill="#000000">vector</text>
</g>
<!-- Node18&#45;&gt;Node20 -->
<g id="edge22" class="edge">
<title>Node18&#45;&gt;Node20</title>
<path fill="none" stroke="#191970" d="M400.493,-333.4243C419.7275,-327.0731 445.6982,-315.02 458,-294 466.728,-279.0865 457.9346,-260.4378 448.6313,-247.0339"/>
<polygon fill="#191970" stroke="#191970" points="451.1473,-244.559 442.3181,-238.7027 445.5681,-248.7867 451.1473,-244.559"/>
</g>
<!-- Node19&#45;&gt;Node10 -->
<g id="edge20" class="edge">
<title>Node19&#45;&gt;Node10</title>
<path fill="none" stroke="#191970" d="M374.1115,-275.4179C343.6282,-266.155 296.165,-251.7325 262.5765,-241.526"/>
<polygon fill="#191970" stroke="#191970" points="263.2177,-238.0629 252.632,-238.5042 261.1824,-244.7605 263.2177,-238.0629"/>
</g>
<!-- Node19&#45;&gt;Node20 -->
<g id="edge21" class="edge">
<title>Node19&#45;&gt;Node20</title>
<path fill="none" stroke="#191970" d="M408.9539,-275.4179C413.0546,-267.8998 419.0093,-256.9829 424.0837,-247.6799"/>
<polygon fill="#191970" stroke="#191970" points="427.2225,-249.2344 428.9385,-238.7795 421.0773,-245.8824 427.2225,-249.2344"/>
</g>
<!-- Node21&#45;&gt;Node10 -->
<g id="edge24" class="edge">
<title>Node21&#45;&gt;Node10</title>
<path fill="none" stroke="#191970" d="M268.083,-275.4179C260.2354,-267.425 248.616,-255.5903 239.1389,-245.9377"/>
<polygon fill="#191970" stroke="#191970" points="241.6142,-243.463 232.1107,-238.7795 236.6192,-248.3672 241.6142,-243.463"/>
</g>
<!-- Node22&#45;&gt;Node10 -->
<g id="edge26" class="edge">
<title>Node22&#45;&gt;Node10</title>
<path fill="none" stroke="#191970" d="M103.6384,-330.4982C125.7304,-311.805 176.8162,-268.5786 204.4497,-245.1964"/>
<polygon fill="#191970" stroke="#191970" points="206.8415,-247.7575 212.2146,-238.6261 202.3199,-242.4137 206.8415,-247.7575"/>
</g>
<!-- Node23&#45;&gt;Node10 -->
<g id="edge28" class="edge">
<title>Node23&#45;&gt;Node10</title>
<path fill="none" stroke="#191970" d="M188.1097,-330.4982C194.289,-312.6108 208.2286,-272.2594 216.4961,-248.3271"/>
<polygon fill="#191970" stroke="#191970" points="219.8902,-249.2209 219.8473,-238.6261 213.2739,-246.9352 219.8902,-249.2209"/>
</g>
</g>
</svg>
