<?xml version="1.0" encoding="UTF-8" standalone="no"?>
<!DOCTYPE svg PUBLIC "-//W3C//DTD SVG 1.1//EN"
 "http://www.w3.org/Graphics/SVG/1.1/DTD/svg11.dtd">
<!-- Generated by graphviz version 2.40.1 (20161225.0304)
 -->
<!-- Title: libnolimits/NL1/Info/Info.cpp Pages: 1 -->
<svg width="256pt" height="202pt"
 viewBox="0.00 0.00 255.51 202.00" xmlns="http://www.w3.org/2000/svg" xmlns:xlink="http://www.w3.org/1999/xlink">
<g id="graph0" class="graph" transform="scale(1 1) rotate(0) translate(4 198)">
<title>libnolimits/NL1/Info/Info.cpp</title>
<!-- Node0 -->
<g id="node1" class="node">
<title>Node0</title>
<polygon fill="#bfbfbf" stroke="#000000" points="89.042,-165.5 89.042,-193.5 189.5244,-193.5 189.5244,-165.5 89.042,-165.5"/>
<text text-anchor="start" x="97.042" y="-181.5" font-family="Helvetica,sans-Serif" font-size="10.00" fill="#000000">libnolimits/NL1/Info</text>
<text text-anchor="middle" x="139.2832" y="-171.5" font-family="Helvetica,sans-Serif" font-size="10.00" fill="#000000">/Info.cpp</text>
</g>
<!-- Node1 -->
<g id="node2" class="node">
<title>Node1</title>
<g id="a_node2"><a xlink:href="_n_l1_2_info_2_info_8h.html" target="_top" xlink:title="Info.h">
<polygon fill="none" stroke="#000000" points="118.7734,-110.5 118.7734,-128.5 159.793,-128.5 159.793,-110.5 118.7734,-110.5"/>
<text text-anchor="middle" x="139.2832" y="-116.5" font-family="Helvetica,sans-Serif" font-size="10.00" fill="#000000">Info.h</text>
</a>
</g>
</g>
<!-- Node0&#45;&gt;Node1 -->
<g id="edge1" class="edge">
<title>Node0&#45;&gt;Node1</title>
<path fill="none" stroke="#191970" d="M139.2832,-165.2808C139.2832,-157.3776 139.2832,-147.4316 139.2832,-138.8308"/>
<polygon fill="#191970" stroke="#191970" points="142.7833,-138.5842 139.2832,-128.5842 135.7833,-138.5842 142.7833,-138.5842"/>
</g>
<!-- Node2 -->
<g id="node3" class="node">
<title>Node2</title>
<g id="a_node3"><a xlink:href="_nolimits_8h.html" target="_top" xlink:title="../../Nolimits.h">
<polygon fill="none" stroke="#ff0000" points="0,-.5 0,-18.5 76.5664,-18.5 76.5664,-.5 0,-.5"/>
<text text-anchor="middle" x="38.2832" y="-6.5" font-family="Helvetica,sans-Serif" font-size="10.00" fill="#000000">../../Nolimits.h</text>
</a>
</g>
</g>
<!-- Node1&#45;&gt;Node2 -->
<g id="edge2" class="edge">
<title>Node1&#45;&gt;Node2</title>
<path fill="none" stroke="#191970" d="M118.7549,-116.8419C94.7454,-112.5133 56.0296,-101.4587 38.2832,-74 29.6502,-60.6424 30.5966,-42.2526 33.1502,-28.5262"/>
<polygon fill="#191970" stroke="#191970" points="36.5793,-29.2307 35.3904,-18.7028 29.7545,-27.6743 36.5793,-29.2307"/>
</g>
<!-- Node11 -->
<g id="node4" class="node">
<title>Node11</title>
<g id="a_node4"><a xlink:href="_chunk_8h.html" target="_top" xlink:title="../../Stream/Chunk.h">
<polygon fill="none" stroke="#ff0000" points="46.8203,-55.5 46.8203,-73.5 151.7461,-73.5 151.7461,-55.5 46.8203,-55.5"/>
<text text-anchor="middle" x="99.2832" y="-61.5" font-family="Helvetica,sans-Serif" font-size="10.00" fill="#000000">../../Stream/Chunk.h</text>
</a>
</g>
</g>
<!-- Node1&#45;&gt;Node11 -->
<g id="edge3" class="edge">
<title>Node1&#45;&gt;Node11</title>
<path fill="none" stroke="#191970" d="M132.678,-110.4179C127.0952,-102.7415 118.9354,-91.5217 112.0792,-82.0945"/>
<polygon fill="#191970" stroke="#191970" points="114.7442,-79.8082 106.0319,-73.7795 109.0831,-83.9255 114.7442,-79.8082"/>
</g>
<!-- Node17 -->
<g id="node5" class="node">
<title>Node17</title>
<polygon fill="none" stroke="#bfbfbf" points="133.2217,-.5 133.2217,-18.5 185.3447,-18.5 185.3447,-.5 133.2217,-.5"/>
<text text-anchor="middle" x="159.2832" y="-6.5" font-family="Helvetica,sans-Serif" font-size="10.00" fill="#000000">ostream</text>
</g>
<!-- Node1&#45;&gt;Node17 -->
<g id="edge7" class="edge">
<title>Node1&#45;&gt;Node17</title>
<path fill="none" stroke="#191970" d="M145.0601,-110.1639C150.2105,-101.2522 157.3717,-87.2561 160.2832,-74 163.5536,-59.1099 163.0633,-41.818 161.887,-28.8886"/>
<polygon fill="#191970" stroke="#191970" points="165.3503,-28.3654 160.7539,-18.8195 158.3942,-29.1482 165.3503,-28.3654"/>
</g>
<!-- Node8 -->
<g id="node6" class="node">
<title>Node8</title>
<polygon fill="none" stroke="#bfbfbf" points="207.0566,-55.5 207.0566,-73.5 247.5098,-73.5 247.5098,-55.5 207.0566,-55.5"/>
<text text-anchor="middle" x="227.2832" y="-61.5" font-family="Helvetica,sans-Serif" font-size="10.00" fill="#000000">string</text>
</g>
<!-- Node1&#45;&gt;Node8 -->
<g id="edge6" class="edge">
<title>Node1&#45;&gt;Node8</title>
<path fill="none" stroke="#191970" d="M153.8146,-110.4179C167.4446,-101.8992 188.0567,-89.0166 203.9828,-79.0627"/>
<polygon fill="#191970" stroke="#191970" points="206.1052,-81.8637 212.7302,-73.5956 202.3952,-75.9277 206.1052,-81.8637"/>
</g>
<!-- Node11&#45;&gt;Node2 -->
<g id="edge4" class="edge">
<title>Node11&#45;&gt;Node2</title>
<path fill="none" stroke="#191970" d="M89.2103,-55.4179C80.2577,-47.3458 66.9594,-35.3556 56.1969,-25.6517"/>
<polygon fill="#191970" stroke="#191970" points="58.3456,-22.8764 48.575,-18.7795 53.6581,-28.0753 58.3456,-22.8764"/>
</g>
<!-- Node11&#45;&gt;Node17 -->
<g id="edge5" class="edge">
<title>Node11&#45;&gt;Node17</title>
<path fill="none" stroke="#191970" d="M109.191,-55.4179C117.9968,-47.3458 131.0771,-35.3556 141.6632,-25.6517"/>
<polygon fill="#191970" stroke="#191970" points="144.1536,-28.1168 149.1602,-18.7795 139.4235,-22.9567 144.1536,-28.1168"/>
</g>
</g>
</svg>
