<?xml version="1.0" encoding="UTF-8" standalone="no"?>
<!DOCTYPE svg PUBLIC "-//W3C//DTD SVG 1.1//EN"
 "http://www.w3.org/Graphics/SVG/1.1/DTD/svg11.dtd">
<!-- Generated by graphviz version 2.40.1 (20161225.0304)
 -->
<!-- Title: libnolimits/NL1/Track/Vertex.h Pages: 1 -->
<svg width="550pt" height="167pt"
 viewBox="0.00 0.00 549.57 167.00" xmlns="http://www.w3.org/2000/svg" xmlns:xlink="http://www.w3.org/1999/xlink">
<g id="graph0" class="graph" transform="scale(1 1) rotate(0) translate(4 163)">
<title>libnolimits/NL1/Track/Vertex.h</title>
<!-- Node17 -->
<g id="node1" class="node">
<title>Node17</title>
<polygon fill="#bfbfbf" stroke="#000000" points="277.1313,-130.5 277.1313,-158.5 385.5679,-158.5 385.5679,-130.5 277.1313,-130.5"/>
<text text-anchor="start" x="285.1313" y="-146.5" font-family="Helvetica,sans-Serif" font-size="10.00" fill="#000000">libnolimits/NL1/Track</text>
<text text-anchor="middle" x="331.3496" y="-136.5" font-family="Helvetica,sans-Serif" font-size="10.00" fill="#000000">/Vertex.h</text>
</g>
<!-- Node18 -->
<g id="node2" class="node">
<title>Node18</title>
<g id="a_node2"><a xlink:href="_n_l1_2_track_2_track_8h.html" target="_top" xlink:title="libnolimits/NL1/Track\l/Track.h">
<polygon fill="none" stroke="#000000" points="214.1313,-65.5 214.1313,-93.5 322.5679,-93.5 322.5679,-65.5 214.1313,-65.5"/>
<text text-anchor="start" x="222.1313" y="-81.5" font-family="Helvetica,sans-Serif" font-size="10.00" fill="#000000">libnolimits/NL1/Track</text>
<text text-anchor="middle" x="268.3496" y="-71.5" font-family="Helvetica,sans-Serif" font-size="10.00" fill="#000000">/Track.h</text>
</a>
</g>
</g>
<!-- Node17&#45;&gt;Node18 -->
<g id="edge1" class="edge">
<title>Node17&#45;&gt;Node18</title>
<path fill="none" stroke="#191970" d="M310.5347,-123.0243C301.1482,-113.3398 290.3259,-102.1739 281.993,-93.5765"/>
<polygon fill="#191970" stroke="#191970" points="308.2065,-125.6512 317.6795,-130.396 313.233,-120.7793 308.2065,-125.6512"/>
</g>
<!-- Node24 -->
<g id="node7" class="node">
<title>Node24</title>
<g id="a_node7"><a xlink:href="_n_l1_2_track_2_vertex_8cpp.html" target="_top" xlink:title="libnolimits/NL1/Track\l/Vertex.cpp">
<polygon fill="none" stroke="#000000" points="340.1313,-65.5 340.1313,-93.5 448.5679,-93.5 448.5679,-65.5 340.1313,-65.5"/>
<text text-anchor="start" x="348.1313" y="-81.5" font-family="Helvetica,sans-Serif" font-size="10.00" fill="#000000">libnolimits/NL1/Track</text>
<text text-anchor="middle" x="394.3496" y="-71.5" font-family="Helvetica,sans-Serif" font-size="10.00" fill="#000000">/Vertex.cpp</text>
</a>
</g>
</g>
<!-- Node17&#45;&gt;Node24 -->
<g id="edge6" class="edge">
<title>Node17&#45;&gt;Node24</title>
<path fill="none" stroke="#191970" d="M352.1646,-123.0243C361.551,-113.3398 372.3733,-102.1739 380.7062,-93.5765"/>
<polygon fill="#191970" stroke="#191970" points="349.4662,-120.7793 345.0197,-130.396 354.4927,-125.6512 349.4662,-120.7793"/>
</g>
<!-- Node19 -->
<g id="node3" class="node">
<title>Node19</title>
<g id="a_node3"><a xlink:href="_no_limits_track_8h.html" target="_top" xlink:title="libnolimits/NL1/NoLimits\lTrack.h">
<polygon fill="none" stroke="#ff0000" points="0,-.5 0,-28.5 122.6992,-28.5 122.6992,-.5 0,-.5"/>
<text text-anchor="start" x="8" y="-16.5" font-family="Helvetica,sans-Serif" font-size="10.00" fill="#000000">libnolimits/NL1/NoLimits</text>
<text text-anchor="middle" x="61.3496" y="-6.5" font-family="Helvetica,sans-Serif" font-size="10.00" fill="#000000">Track.h</text>
</a>
</g>
</g>
<!-- Node18&#45;&gt;Node19 -->
<g id="edge2" class="edge">
<title>Node18&#45;&gt;Node19</title>
<path fill="none" stroke="#191970" d="M214.0336,-62.4442C180.4789,-51.9078 137.938,-38.5495 106.2874,-28.6109"/>
<polygon fill="#191970" stroke="#191970" points="213.0993,-65.8193 223.6885,-65.476 215.1964,-59.1408 213.0993,-65.8193"/>
</g>
<!-- Node21 -->
<g id="node4" class="node">
<title>Node21</title>
<g id="a_node4"><a xlink:href="_beziers_chunk_8cpp.html" target="_top" xlink:title="libnolimits/NL1/Track\l/BeziersChunk.cpp">
<polygon fill="none" stroke="#000000" points="141.1313,-.5 141.1313,-28.5 249.5679,-28.5 249.5679,-.5 141.1313,-.5"/>
<text text-anchor="start" x="149.1313" y="-16.5" font-family="Helvetica,sans-Serif" font-size="10.00" fill="#000000">libnolimits/NL1/Track</text>
<text text-anchor="middle" x="195.3496" y="-6.5" font-family="Helvetica,sans-Serif" font-size="10.00" fill="#000000">/BeziersChunk.cpp</text>
</a>
</g>
</g>
<!-- Node18&#45;&gt;Node21 -->
<g id="edge3" class="edge">
<title>Node18&#45;&gt;Node21</title>
<path fill="none" stroke="#191970" d="M244.8748,-58.5978C233.8521,-48.7831 221.0054,-37.3442 211.1586,-28.5765"/>
<polygon fill="#191970" stroke="#191970" points="242.7137,-61.3599 252.5097,-65.396 247.3687,-56.132 242.7137,-61.3599"/>
</g>
<!-- Node22 -->
<g id="node5" class="node">
<title>Node22</title>
<g id="a_node5"><a xlink:href="_segments_chunk_8cpp.html" target="_top" xlink:title="libnolimits/NL1/Track\l/Section/SegmentsChunk.cpp">
<polygon fill="none" stroke="#000000" points="267.478,-.5 267.478,-28.5 415.2212,-28.5 415.2212,-.5 267.478,-.5"/>
<text text-anchor="start" x="275.478" y="-16.5" font-family="Helvetica,sans-Serif" font-size="10.00" fill="#000000">libnolimits/NL1/Track</text>
<text text-anchor="middle" x="341.3496" y="-6.5" font-family="Helvetica,sans-Serif" font-size="10.00" fill="#000000">/Section/SegmentsChunk.cpp</text>
</a>
</g>
</g>
<!-- Node18&#45;&gt;Node22 -->
<g id="edge4" class="edge">
<title>Node18&#45;&gt;Node22</title>
<path fill="none" stroke="#191970" d="M291.8244,-58.5978C302.8471,-48.7831 315.6938,-37.3442 325.5406,-28.5765"/>
<polygon fill="#191970" stroke="#191970" points="289.3305,-56.132 284.1895,-65.396 293.9855,-61.3599 289.3305,-56.132"/>
</g>
<!-- Node23 -->
<g id="node6" class="node">
<title>Node23</title>
<g id="a_node6"><a xlink:href="_n_l1_2_track_2_track_8cpp.html" target="_top" xlink:title="libnolimits/NL1/Track\l/Track.cpp">
<polygon fill="none" stroke="#000000" points="433.1313,-.5 433.1313,-28.5 541.5679,-28.5 541.5679,-.5 433.1313,-.5"/>
<text text-anchor="start" x="441.1313" y="-16.5" font-family="Helvetica,sans-Serif" font-size="10.00" fill="#000000">libnolimits/NL1/Track</text>
<text text-anchor="middle" x="487.3496" y="-6.5" font-family="Helvetica,sans-Serif" font-size="10.00" fill="#000000">/Track.cpp</text>
</a>
</g>
</g>
<!-- Node18&#45;&gt;Node23 -->
<g id="edge5" class="edge">
<title>Node18&#45;&gt;Node23</title>
<path fill="none" stroke="#191970" d="M325.3578,-62.5797C360.9277,-52.0225 406.1776,-38.5921 439.8067,-28.6109"/>
<polygon fill="#191970" stroke="#191970" points="324.1905,-59.2752 315.5997,-65.476 326.1823,-65.9859 324.1905,-59.2752"/>
</g>
</g>
</svg>
