<?xml version="1.0" encoding="UTF-8" standalone="no"?>
<!DOCTYPE svg PUBLIC "-//W3C//DTD SVG 1.1//EN"
 "http://www.w3.org/Graphics/SVG/1.1/DTD/svg11.dtd">
<!-- Generated by graphviz version 2.40.1 (20161225.0304)
 -->
<!-- Title: libnolimits/NL1/Track/Section/Section.cpp Pages: 1 -->
<svg width="329pt" height="367pt"
 viewBox="0.00 0.00 328.74 367.00" xmlns="http://www.w3.org/2000/svg" xmlns:xlink="http://www.w3.org/1999/xlink">
<g id="graph0" class="graph" transform="scale(1 1) rotate(0) translate(4 363)">
<title>libnolimits/NL1/Track/Section/Section.cpp</title>
<!-- Node0 -->
<g id="node1" class="node">
<title>Node0</title>
<polygon fill="#bfbfbf" stroke="#000000" points="6.2975,-330.5 6.2975,-358.5 114.7341,-358.5 114.7341,-330.5 6.2975,-330.5"/>
<text text-anchor="start" x="14.2975" y="-346.5" font-family="Helvetica,sans-Serif" font-size="10.00" fill="#000000">libnolimits/NL1/Track</text>
<text text-anchor="middle" x="60.5158" y="-336.5" font-family="Helvetica,sans-Serif" font-size="10.00" fill="#000000">/Section/Section.cpp</text>
</g>
<!-- Node1 -->
<g id="node2" class="node">
<title>Node1</title>
<g id="a_node2"><a xlink:href="_n_l1_2_track_2_section_2_section_8h.html" target="_top" xlink:title="Section.h">
<polygon fill="none" stroke="#000000" points="90.6686,-110.5 90.6686,-128.5 148.363,-128.5 148.363,-110.5 90.6686,-110.5"/>
<text text-anchor="middle" x="119.5158" y="-116.5" font-family="Helvetica,sans-Serif" font-size="10.00" fill="#000000">Section.h</text>
</a>
</g>
</g>
<!-- Node0&#45;&gt;Node1 -->
<g id="edge1" class="edge">
<title>Node0&#45;&gt;Node1</title>
<path fill="none" stroke="#191970" d="M49.5207,-330.2146C26.2413,-298.1003 -23.0759,-218.8107 12.5158,-165 27.5217,-142.3128 56.376,-130.9028 80.3425,-125.184"/>
<polygon fill="#191970" stroke="#191970" points="81.212,-128.5773 90.26,-123.0652 79.7494,-121.7318 81.212,-128.5773"/>
</g>
<!-- Node18 -->
<g id="node5" class="node">
<title>Node18</title>
<g id="a_node5"><a xlink:href="_n_l1_2_track_2_section_2_lift_8h.html" target="_top" xlink:title="Lift.h">
<polygon fill="none" stroke="#000000" points="21.676,-165.5 21.676,-183.5 59.3556,-183.5 59.3556,-165.5 21.676,-165.5"/>
<text text-anchor="middle" x="40.5158" y="-171.5" font-family="Helvetica,sans-Serif" font-size="10.00" fill="#000000">Lift.h</text>
</a>
</g>
</g>
<!-- Node0&#45;&gt;Node18 -->
<g id="edge4" class="edge">
<title>Node0&#45;&gt;Node18</title>
<path fill="none" stroke="#191970" d="M55.6118,-330.103C52.4315,-320.1007 48.5198,-306.3943 46.5158,-294 40.8455,-258.931 40.0735,-217.3877 40.1858,-193.6702"/>
<polygon fill="#191970" stroke="#191970" points="43.6866,-193.6026 40.2944,-183.5655 36.687,-193.5273 43.6866,-193.6026"/>
</g>
<!-- Node19 -->
<g id="node6" class="node">
<title>Node19</title>
<g id="a_node6"><a xlink:href="_n_l1_2_track_2_section_2_transport_8h.html" target="_top" xlink:title="Transport.h">
<polygon fill="none" stroke="#000000" points="86.1325,-165.5 86.1325,-183.5 152.8991,-183.5 152.8991,-165.5 86.1325,-165.5"/>
<text text-anchor="middle" x="119.5158" y="-171.5" font-family="Helvetica,sans-Serif" font-size="10.00" fill="#000000">Transport.h</text>
</a>
</g>
</g>
<!-- Node0&#45;&gt;Node19 -->
<g id="edge6" class="edge">
<title>Node0&#45;&gt;Node19</title>
<path fill="none" stroke="#191970" d="M60.1469,-330.3181C60.0635,-306.4073 62.2373,-257.057 79.5158,-220 84.5828,-209.1329 93.0691,-198.9216 100.9246,-190.9369"/>
<polygon fill="#191970" stroke="#191970" points="103.6225,-193.1991 108.4199,-183.7526 98.7787,-188.1456 103.6225,-193.1991"/>
</g>
<!-- Node20 -->
<g id="node7" class="node">
<title>Node20</title>
<g id="a_node7"><a xlink:href="_n_l1_2_track_2_section_2_brake_8h.html" target="_top" xlink:title="Brake.h">
<polygon fill="none" stroke="#000000" points="112.2844,-275.5 112.2844,-293.5 162.7472,-293.5 162.7472,-275.5 112.2844,-275.5"/>
<text text-anchor="middle" x="137.5158" y="-281.5" font-family="Helvetica,sans-Serif" font-size="10.00" fill="#000000">Brake.h</text>
</a>
</g>
</g>
<!-- Node0&#45;&gt;Node20 -->
<g id="edge8" class="edge">
<title>Node0&#45;&gt;Node20</title>
<path fill="none" stroke="#191970" d="M78.7637,-330.2808C90.5017,-321.1344 105.7507,-309.252 117.7716,-299.8851"/>
<polygon fill="#191970" stroke="#191970" points="120.121,-302.4915 125.8578,-293.5842 115.8184,-296.9699 120.121,-302.4915"/>
</g>
<!-- Node22 -->
<g id="node9" class="node">
<title>Node22</title>
<g id="a_node9"><a xlink:href="_memory_file_8h.html" target="_top" xlink:title="../../../File/MemoryFile.h">
<polygon fill="none" stroke="#000000" points="192.2844,-275.5 192.2844,-293.5 312.7472,-293.5 312.7472,-275.5 192.2844,-275.5"/>
<text text-anchor="middle" x="252.5158" y="-281.5" font-family="Helvetica,sans-Serif" font-size="10.00" fill="#000000">../../../File/MemoryFile.h</text>
</a>
</g>
</g>
<!-- Node0&#45;&gt;Node22 -->
<g id="edge12" class="edge">
<title>Node0&#45;&gt;Node22</title>
<path fill="none" stroke="#191970" d="M105.5313,-330.4327C138.4361,-320.1499 182.5987,-306.3491 213.9015,-296.567"/>
<polygon fill="#191970" stroke="#191970" points="215.0815,-299.8652 223.5823,-293.5417 212.9935,-293.1839 215.0815,-299.8652"/>
</g>
<!-- Node2 -->
<g id="node3" class="node">
<title>Node2</title>
<g id="a_node3"><a xlink:href="_chunk_8h.html" target="_top" xlink:title="../../../Stream/Chunk.h">
<polygon fill="none" stroke="#ff0000" points="86.8854,-55.5 86.8854,-73.5 200.1462,-73.5 200.1462,-55.5 86.8854,-55.5"/>
<text text-anchor="middle" x="143.5158" y="-61.5" font-family="Helvetica,sans-Serif" font-size="10.00" fill="#000000">../../../Stream/Chunk.h</text>
</a>
</g>
</g>
<!-- Node1&#45;&gt;Node2 -->
<g id="edge2" class="edge">
<title>Node1&#45;&gt;Node2</title>
<path fill="none" stroke="#191970" d="M123.4789,-110.4179C126.725,-102.9789 131.4231,-92.2123 135.4543,-82.9742"/>
<polygon fill="#191970" stroke="#191970" points="138.675,-84.3447 139.4666,-73.7795 132.2592,-81.545 138.675,-84.3447"/>
</g>
<!-- Node3 -->
<g id="node4" class="node">
<title>Node3</title>
<g id="a_node4"><a xlink:href="_file_8h.html" target="_top" xlink:title="../File/File.h">
<polygon fill="none" stroke="#ff0000" points="151.676,-.5 151.676,-18.5 219.3556,-18.5 219.3556,-.5 151.676,-.5"/>
<text text-anchor="middle" x="185.5158" y="-6.5" font-family="Helvetica,sans-Serif" font-size="10.00" fill="#000000">../File/File.h</text>
</a>
</g>
</g>
<!-- Node2&#45;&gt;Node3 -->
<g id="edge3" class="edge">
<title>Node2&#45;&gt;Node3</title>
<path fill="none" stroke="#191970" d="M150.4512,-55.4179C156.3736,-47.6624 165.058,-36.29 172.3022,-26.8035"/>
<polygon fill="#191970" stroke="#191970" points="175.1422,-28.8514 178.4297,-18.7795 169.5788,-24.6029 175.1422,-28.8514"/>
</g>
<!-- Node18&#45;&gt;Node1 -->
<g id="edge5" class="edge">
<title>Node18&#45;&gt;Node1</title>
<path fill="none" stroke="#191970" d="M53.561,-165.4179C65.6827,-156.9788 83.9558,-144.257 98.1965,-134.3426"/>
<polygon fill="#191970" stroke="#191970" points="100.244,-137.1818 106.4512,-128.5956 96.2444,-131.4369 100.244,-137.1818"/>
</g>
<!-- Node19&#45;&gt;Node1 -->
<g id="edge7" class="edge">
<title>Node19&#45;&gt;Node1</title>
<path fill="none" stroke="#191970" d="M119.5158,-165.4179C119.5158,-158.2164 119.5158,-147.8962 119.5158,-138.8632"/>
<polygon fill="#191970" stroke="#191970" points="123.0159,-138.7794 119.5158,-128.7795 116.0159,-138.7795 123.0159,-138.7794"/>
</g>
<!-- Node20&#45;&gt;Node1 -->
<g id="edge9" class="edge">
<title>Node20&#45;&gt;Node1</title>
<path fill="none" stroke="#191970" d="M156.7615,-275.3502C170.35,-267.7258 187.5093,-255.4571 195.5158,-239 199.2101,-231.4065 197.8238,-228.1229 195.5158,-220 185.6805,-185.3855 157.1042,-153.7589 137.9331,-135.5729"/>
<polygon fill="#191970" stroke="#191970" points="140.1077,-132.818 130.3748,-128.6322 135.3731,-137.9739 140.1077,-132.818"/>
</g>
<!-- Node21 -->
<g id="node8" class="node">
<title>Node21</title>
<g id="a_node8"><a xlink:href="_n_l1_2_track_2_section_2_transport_device_8h.html" target="_top" xlink:title="TransportDevice.h">
<polygon fill="none" stroke="#000000" points="88.8493,-220.5 88.8493,-238.5 186.1823,-238.5 186.1823,-220.5 88.8493,-220.5"/>
<text text-anchor="middle" x="137.5158" y="-226.5" font-family="Helvetica,sans-Serif" font-size="10.00" fill="#000000">TransportDevice.h</text>
</a>
</g>
</g>
<!-- Node20&#45;&gt;Node21 -->
<g id="edge10" class="edge">
<title>Node20&#45;&gt;Node21</title>
<path fill="none" stroke="#191970" d="M137.5158,-275.4179C137.5158,-268.2164 137.5158,-257.8962 137.5158,-248.8632"/>
<polygon fill="#191970" stroke="#191970" points="141.0159,-248.7794 137.5158,-238.7795 134.0159,-248.7795 141.0159,-248.7794"/>
</g>
<!-- Node21&#45;&gt;Node19 -->
<g id="edge11" class="edge">
<title>Node21&#45;&gt;Node19</title>
<path fill="none" stroke="#191970" d="M134.5435,-220.4179C132.1607,-213.1372 128.7347,-202.669 125.7555,-193.5659"/>
<polygon fill="#191970" stroke="#191970" points="128.9896,-192.1948 122.5527,-183.7795 122.3368,-194.3721 128.9896,-192.1948"/>
</g>
<!-- Node22&#45;&gt;Node3 -->
<g id="edge13" class="edge">
<title>Node22&#45;&gt;Node3</title>
<path fill="none" stroke="#191970" d="M252.5158,-275.3733C252.5158,-256.5256 252.5158,-211.9306 252.5158,-174.5 252.5158,-174.5 252.5158,-174.5 252.5158,-119.5 252.5158,-81.5984 223.1437,-45.6641 203.2947,-25.7075"/>
<polygon fill="#191970" stroke="#191970" points="205.606,-23.0737 195.9846,-18.6376 200.7396,-28.1055 205.606,-23.0737"/>
</g>
<!-- Node14 -->
<g id="node10" class="node">
<title>Node14</title>
<polygon fill="none" stroke="#bfbfbf" points="280.2892,-220.5 280.2892,-238.5 320.7424,-238.5 320.7424,-220.5 280.2892,-220.5"/>
<text text-anchor="middle" x="300.5158" y="-226.5" font-family="Helvetica,sans-Serif" font-size="10.00" fill="#000000">string</text>
</g>
<!-- Node22&#45;&gt;Node14 -->
<g id="edge14" class="edge">
<title>Node22&#45;&gt;Node14</title>
<path fill="none" stroke="#191970" d="M260.442,-275.4179C267.2795,-267.5833 277.3383,-256.0575 285.6675,-246.5137"/>
<polygon fill="#191970" stroke="#191970" points="288.479,-248.6151 292.4174,-238.7795 283.205,-244.0123 288.479,-248.6151"/>
</g>
</g>
</svg>
