<?xml version="1.0" encoding="UTF-8" standalone="no"?>
<!DOCTYPE svg PUBLIC "-//W3C//DTD SVG 1.1//EN"
 "http://www.w3.org/Graphics/SVG/1.1/DTD/svg11.dtd">
<!-- Generated by graphviz version 2.40.1 (20161225.0304)
 -->
<!-- Title: libnolimits/NL1/Track/Section/Lift.h Pages: 1 -->
<svg width="121pt" height="147pt"
 viewBox="0.00 0.00 121.26 147.00" xmlns="http://www.w3.org/2000/svg" xmlns:xlink="http://www.w3.org/1999/xlink">
<g id="graph0" class="graph" transform="scale(1 1) rotate(0) translate(4 143)">
<title>libnolimits/NL1/Track/Section/Lift.h</title>
<!-- Node0 -->
<g id="node1" class="node">
<title>Node0</title>
<polygon fill="#bfbfbf" stroke="#000000" points="2.4121,-110.5 2.4121,-138.5 110.8486,-138.5 110.8486,-110.5 2.4121,-110.5"/>
<text text-anchor="start" x="10.4121" y="-126.5" font-family="Helvetica,sans-Serif" font-size="10.00" fill="#000000">libnolimits/NL1/Track</text>
<text text-anchor="middle" x="56.6304" y="-116.5" font-family="Helvetica,sans-Serif" font-size="10.00" fill="#000000">/Section/Lift.h</text>
</g>
<!-- Node1 -->
<g id="node2" class="node">
<title>Node1</title>
<g id="a_node2"><a xlink:href="_n_l1_2_track_2_section_2_section_8h.html" target="_top" xlink:title="Section.h">
<polygon fill="none" stroke="#000000" points="27.7832,-55.5 27.7832,-73.5 85.4775,-73.5 85.4775,-55.5 27.7832,-55.5"/>
<text text-anchor="middle" x="56.6304" y="-61.5" font-family="Helvetica,sans-Serif" font-size="10.00" fill="#000000">Section.h</text>
</a>
</g>
</g>
<!-- Node0&#45;&gt;Node1 -->
<g id="edge1" class="edge">
<title>Node0&#45;&gt;Node1</title>
<path fill="none" stroke="#191970" d="M56.6304,-110.2808C56.6304,-102.3776 56.6304,-92.4316 56.6304,-83.8308"/>
<polygon fill="#191970" stroke="#191970" points="60.1305,-83.5842 56.6304,-73.5842 53.1305,-83.5842 60.1305,-83.5842"/>
</g>
<!-- Node2 -->
<g id="node3" class="node">
<title>Node2</title>
<g id="a_node3"><a xlink:href="_chunk_8h.html" target="_top" xlink:title="../../../Stream/Chunk.h">
<polygon fill="none" stroke="#ff0000" points="0,-.5 0,-18.5 113.2607,-18.5 113.2607,-.5 0,-.5"/>
<text text-anchor="middle" x="56.6304" y="-6.5" font-family="Helvetica,sans-Serif" font-size="10.00" fill="#000000">../../../Stream/Chunk.h</text>
</a>
</g>
</g>
<!-- Node1&#45;&gt;Node2 -->
<g id="edge2" class="edge">
<title>Node1&#45;&gt;Node2</title>
<path fill="none" stroke="#191970" d="M56.6304,-55.4179C56.6304,-48.2164 56.6304,-37.8962 56.6304,-28.8632"/>
<polygon fill="#191970" stroke="#191970" points="60.1305,-28.7794 56.6304,-18.7795 53.1305,-28.7795 60.1305,-28.7794"/>
</g>
</g>
</svg>
