<?xml version="1.0" encoding="UTF-8" standalone="no"?>
<!DOCTYPE svg PUBLIC "-//W3C//DTD SVG 1.1//EN"
 "http://www.w3.org/Graphics/SVG/1.1/DTD/svg11.dtd">
<!-- Generated by graphviz version 2.40.1 (20161225.0304)
 -->
<!-- Title: libnolimits/NL2/Coaster/Track/Section/Lift.cpp Pages: 1 -->
<svg width="156pt" height="212pt"
 viewBox="0.00 0.00 156.26 212.00" xmlns="http://www.w3.org/2000/svg" xmlns:xlink="http://www.w3.org/1999/xlink">
<g id="graph0" class="graph" transform="scale(1 1) rotate(0) translate(4 208)">
<title>libnolimits/NL2/Coaster/Track/Section/Lift.cpp</title>
<!-- Node0 -->
<g id="node1" class="node">
<title>Node0</title>
<polygon fill="#bfbfbf" stroke="#000000" points="29.4385,-175.5 29.4385,-203.5 148.2559,-203.5 148.2559,-175.5 29.4385,-175.5"/>
<text text-anchor="start" x="37.4385" y="-191.5" font-family="Helvetica,sans-Serif" font-size="10.00" fill="#000000">libnolimits/NL2/Coaster</text>
<text text-anchor="middle" x="88.8472" y="-181.5" font-family="Helvetica,sans-Serif" font-size="10.00" fill="#000000">/Track/Section/Lift.cpp</text>
</g>
<!-- Node1 -->
<g id="node2" class="node">
<title>Node1</title>
<g id="a_node2"><a xlink:href="_n_l2_2_coaster_2_track_2_section_2_lift_8h.html" target="_top" xlink:title="Lift.h">
<polygon fill="none" stroke="#000000" points="38.0073,-120.5 38.0073,-138.5 75.687,-138.5 75.687,-120.5 38.0073,-120.5"/>
<text text-anchor="middle" x="56.8472" y="-126.5" font-family="Helvetica,sans-Serif" font-size="10.00" fill="#000000">Lift.h</text>
</a>
</g>
</g>
<!-- Node0&#45;&gt;Node1 -->
<g id="edge1" class="edge">
<title>Node0&#45;&gt;Node1</title>
<path fill="none" stroke="#191970" d="M81.2636,-175.2808C76.8591,-167.0224 71.265,-156.5335 66.543,-147.6796"/>
<polygon fill="#191970" stroke="#191970" points="69.4862,-145.7607 61.6921,-138.5842 63.3098,-149.0548 69.4862,-145.7607"/>
</g>
<!-- Node12 -->
<g id="node5" class="node">
<title>Node12</title>
<polygon fill="none" stroke="#bfbfbf" points="93.6748,-120.5 93.6748,-138.5 148.0195,-138.5 148.0195,-120.5 93.6748,-120.5"/>
<text text-anchor="middle" x="120.8472" y="-126.5" font-family="Helvetica,sans-Serif" font-size="10.00" fill="#000000">iostream</text>
</g>
<!-- Node0&#45;&gt;Node12 -->
<g id="edge5" class="edge">
<title>Node0&#45;&gt;Node12</title>
<path fill="none" stroke="#191970" d="M96.4307,-175.2808C100.8352,-167.0224 106.4293,-156.5335 111.1514,-147.6796"/>
<polygon fill="#191970" stroke="#191970" points="114.3846,-149.0548 116.0023,-138.5842 108.2081,-145.7607 114.3846,-149.0548"/>
</g>
<!-- Node2 -->
<g id="node3" class="node">
<title>Node2</title>
<g id="a_node3"><a xlink:href="_n_l2_2_coaster_2_track_2_section_2_section_8h.html" target="_top" xlink:title="Section.h">
<polygon fill="none" stroke="#000000" points="0,-65.5 0,-83.5 57.6943,-83.5 57.6943,-65.5 0,-65.5"/>
<text text-anchor="middle" x="28.8472" y="-71.5" font-family="Helvetica,sans-Serif" font-size="10.00" fill="#000000">Section.h</text>
</a>
</g>
</g>
<!-- Node1&#45;&gt;Node2 -->
<g id="edge2" class="edge">
<title>Node1&#45;&gt;Node2</title>
<path fill="none" stroke="#191970" d="M52.2235,-120.4179C48.4365,-112.9789 42.9553,-102.2123 38.2522,-92.9742"/>
<polygon fill="#191970" stroke="#191970" points="41.2272,-91.1032 33.5713,-83.7795 34.9891,-94.279 41.2272,-91.1032"/>
</g>
<!-- Node3 -->
<g id="node4" class="node">
<title>Node3</title>
<g id="a_node4"><a xlink:href="_chunk_8h.html" target="_top" xlink:title="../../../../Stream\l/Chunk.h">
<polygon fill="none" stroke="#ff0000" points="16.0615,-.5 16.0615,-28.5 97.6328,-28.5 97.6328,-.5 16.0615,-.5"/>
<text text-anchor="start" x="24.0615" y="-16.5" font-family="Helvetica,sans-Serif" font-size="10.00" fill="#000000">../../../../Stream</text>
<text text-anchor="middle" x="56.8472" y="-6.5" font-family="Helvetica,sans-Serif" font-size="10.00" fill="#000000">/Chunk.h</text>
</a>
</g>
</g>
<!-- Node1&#45;&gt;Node3 -->
<g id="edge4" class="edge">
<title>Node1&#45;&gt;Node3</title>
<path fill="none" stroke="#191970" d="M59.515,-120.1868C61.9817,-111.0585 65.4676,-96.7041 66.8472,-84 68.4983,-68.7954 66.1292,-51.8013 63.2839,-38.4235"/>
<polygon fill="#191970" stroke="#191970" points="66.6638,-37.5066 60.9675,-28.5734 59.8497,-39.1091 66.6638,-37.5066"/>
</g>
<!-- Node2&#45;&gt;Node3 -->
<g id="edge3" class="edge">
<title>Node2&#45;&gt;Node3</title>
<path fill="none" stroke="#191970" d="M33.0998,-65.3873C36.4961,-58.1095 41.4117,-47.5759 45.8907,-37.9782"/>
<polygon fill="#191970" stroke="#191970" points="49.0943,-39.3896 50.1516,-28.8477 42.751,-36.4294 49.0943,-39.3896"/>
</g>
</g>
</svg>
