<?xml version="1.0" encoding="UTF-8" standalone="no"?>
<!DOCTYPE svg PUBLIC "-//W3C//DTD SVG 1.1//EN"
 "http://www.w3.org/Graphics/SVG/1.1/DTD/svg11.dtd">
<!-- Generated by graphviz version 2.40.1 (20161225.0304)
 -->
<!-- Title: libnolimits/NL2/Info/Version.h Pages: 1 -->
<svg width="253pt" height="312pt"
 viewBox="0.00 0.00 253.28 312.00" xmlns="http://www.w3.org/2000/svg" xmlns:xlink="http://www.w3.org/1999/xlink">
<g id="graph0" class="graph" transform="scale(1 1) rotate(0) translate(4 308)">
<title>libnolimits/NL2/Info/Version.h</title>
<!-- Node0 -->
<g id="node1" class="node">
<title>Node0</title>
<polygon fill="#bfbfbf" stroke="#000000" points="64.042,-275.5 64.042,-303.5 164.5244,-303.5 164.5244,-275.5 64.042,-275.5"/>
<text text-anchor="start" x="72.042" y="-291.5" font-family="Helvetica,sans-Serif" font-size="10.00" fill="#000000">libnolimits/NL2/Info</text>
<text text-anchor="middle" x="114.2832" y="-281.5" font-family="Helvetica,sans-Serif" font-size="10.00" fill="#000000">/Version.h</text>
</g>
<!-- Node1 -->
<g id="node2" class="node">
<title>Node1</title>
<g id="a_node2"><a xlink:href="_nolimits_8h.html" target="_top" xlink:title="../../Nolimits.h">
<polygon fill="none" stroke="#000000" points="0,-110.5 0,-128.5 76.5664,-128.5 76.5664,-110.5 0,-110.5"/>
<text text-anchor="middle" x="38.2832" y="-116.5" font-family="Helvetica,sans-Serif" font-size="10.00" fill="#000000">../../Nolimits.h</text>
</a>
</g>
</g>
<!-- Node0&#45;&gt;Node1 -->
<g id="edge1" class="edge">
<title>Node0&#45;&gt;Node1</title>
<path fill="none" stroke="#191970" d="M93.3366,-275.2903C80.6829,-265.9932 64.8255,-253.0044 53.2832,-239 35.5739,-217.5131 30.1632,-210.981 23.2832,-184 19.3382,-168.529 24.0876,-150.862 29.2593,-137.9345"/>
<polygon fill="#191970" stroke="#191970" points="32.4928,-139.2765 33.3395,-128.7155 26.0917,-136.4435 32.4928,-139.2765"/>
</g>
<!-- Node7 -->
<g id="node5" class="node">
<title>Node7</title>
<polygon fill="none" stroke="#bfbfbf" points="134.0566,-.5 134.0566,-18.5 174.5098,-18.5 174.5098,-.5 134.0566,-.5"/>
<text text-anchor="middle" x="154.2832" y="-6.5" font-family="Helvetica,sans-Serif" font-size="10.00" fill="#000000">string</text>
</g>
<!-- Node0&#45;&gt;Node7 -->
<g id="edge5" class="edge">
<title>Node0&#45;&gt;Node7</title>
<path fill="none" stroke="#191970" d="M151.4721,-275.4805C190.2015,-258.177 245.2832,-224.7368 245.2832,-174.5 245.2832,-174.5 245.2832,-174.5 245.2832,-119.5 245.2832,-77.4138 205.2463,-42.7628 178.2854,-24.2"/>
<polygon fill="#191970" stroke="#191970" points="179.9915,-21.1321 169.7201,-18.5341 176.1294,-26.9704 179.9915,-21.1321"/>
</g>
<!-- Node10 -->
<g id="node6" class="node">
<title>Node10</title>
<g id="a_node6"><a xlink:href="_chunk_8h.html" target="_top" xlink:title="../../Stream/Chunk.h">
<polygon fill="none" stroke="#000000" points="61.8203,-220.5 61.8203,-238.5 166.7461,-238.5 166.7461,-220.5 61.8203,-220.5"/>
<text text-anchor="middle" x="114.2832" y="-226.5" font-family="Helvetica,sans-Serif" font-size="10.00" fill="#000000">../../Stream/Chunk.h</text>
</a>
</g>
</g>
<!-- Node0&#45;&gt;Node10 -->
<g id="edge6" class="edge">
<title>Node0&#45;&gt;Node10</title>
<path fill="none" stroke="#191970" d="M114.2832,-275.2808C114.2832,-267.3776 114.2832,-257.4316 114.2832,-248.8308"/>
<polygon fill="#191970" stroke="#191970" points="117.7833,-248.5842 114.2832,-238.5842 110.7833,-248.5842 117.7833,-248.5842"/>
</g>
<!-- Node2 -->
<g id="node3" class="node">
<title>Node2</title>
<polygon fill="none" stroke="#bfbfbf" points="82.9336,-55.5 82.9336,-73.5 175.6328,-73.5 175.6328,-55.5 82.9336,-55.5"/>
<text text-anchor="middle" x="129.2832" y="-61.5" font-family="Helvetica,sans-Serif" font-size="10.00" fill="#000000">glm/common.hpp</text>
</g>
<!-- Node1&#45;&gt;Node2 -->
<g id="edge2" class="edge">
<title>Node1&#45;&gt;Node2</title>
<path fill="none" stroke="#191970" d="M53.31,-110.4179C67.5363,-101.8195 89.1185,-88.7754 105.649,-78.7844"/>
<polygon fill="#191970" stroke="#191970" points="107.4862,-81.7637 114.2341,-73.5956 103.8654,-75.7729 107.4862,-81.7637"/>
</g>
<!-- Node3 -->
<g id="node4" class="node">
<title>Node3</title>
<g id="a_node4"><a xlink:href="_helper_8h.html" target="_top" xlink:title="Helper.h">
<polygon fill="none" stroke="#ff0000" points="11.6577,-55.5 11.6577,-73.5 64.9087,-73.5 64.9087,-55.5 11.6577,-55.5"/>
<text text-anchor="middle" x="38.2832" y="-61.5" font-family="Helvetica,sans-Serif" font-size="10.00" fill="#000000">Helper.h</text>
</a>
</g>
</g>
<!-- Node1&#45;&gt;Node3 -->
<g id="edge3" class="edge">
<title>Node1&#45;&gt;Node3</title>
<path fill="none" stroke="#191970" d="M38.2832,-110.4179C38.2832,-103.2164 38.2832,-92.8962 38.2832,-83.8632"/>
<polygon fill="#191970" stroke="#191970" points="41.7833,-83.7794 38.2832,-73.7795 34.7833,-83.7795 41.7833,-83.7794"/>
</g>
<!-- Node3&#45;&gt;Node7 -->
<g id="edge4" class="edge">
<title>Node3&#45;&gt;Node7</title>
<path fill="none" stroke="#191970" d="M57.4382,-55.4179C76.0766,-46.5807 104.6199,-33.0473 125.8968,-22.9591"/>
<polygon fill="#191970" stroke="#191970" points="127.5634,-26.0424 135.0997,-18.5956 124.5644,-19.7174 127.5634,-26.0424"/>
</g>
<!-- Node10&#45;&gt;Node1 -->
<g id="edge10" class="edge">
<title>Node10&#45;&gt;Node1</title>
<path fill="none" stroke="#191970" d="M81.6309,-220.3792C63.6771,-213.5105 42.9387,-202.0985 32.2832,-184 24.1792,-170.2353 26.9144,-151.8902 30.956,-138.2841"/>
<polygon fill="#191970" stroke="#191970" points="34.3555,-139.1611 34.2952,-128.5664 27.7354,-136.8862 34.3555,-139.1611"/>
</g>
<!-- Node11 -->
<g id="node7" class="node">
<title>Node11</title>
<g id="a_node7"><a xlink:href="_file_8h.html" target="_top" xlink:title="../File/File.h">
<polygon fill="none" stroke="#ff0000" points="41.4434,-165.5 41.4434,-183.5 109.123,-183.5 109.123,-165.5 41.4434,-165.5"/>
<text text-anchor="middle" x="75.2832" y="-171.5" font-family="Helvetica,sans-Serif" font-size="10.00" fill="#000000">../File/File.h</text>
</a>
</g>
</g>
<!-- Node10&#45;&gt;Node11 -->
<g id="edge7" class="edge">
<title>Node10&#45;&gt;Node11</title>
<path fill="none" stroke="#191970" d="M107.8431,-220.4179C102.3999,-212.7415 94.4441,-201.5217 87.7593,-192.0945"/>
<polygon fill="#191970" stroke="#191970" points="90.5026,-189.9123 81.8632,-183.7795 84.7924,-193.9613 90.5026,-189.9123"/>
</g>
<!-- Node15 -->
<g id="node8" class="node">
<title>Node15</title>
<polygon fill="none" stroke="#bfbfbf" points="144.1626,-110.5 144.1626,-128.5 192.4038,-128.5 192.4038,-110.5 144.1626,-110.5"/>
<text text-anchor="middle" x="168.2832" y="-116.5" font-family="Helvetica,sans-Serif" font-size="10.00" fill="#000000">stdint.h</text>
</g>
<!-- Node10&#45;&gt;Node15 -->
<g id="edge11" class="edge">
<title>Node10&#45;&gt;Node15</title>
<path fill="none" stroke="#191970" d="M141.9646,-220.3671C158.609,-213.2793 178.4218,-201.6398 188.2832,-184 196.4775,-169.3423 189.2412,-150.8951 181.2762,-137.4875"/>
<polygon fill="#191970" stroke="#191970" points="183.9597,-135.196 175.5579,-128.7416 178.1009,-139.0267 183.9597,-135.196"/>
</g>
<!-- Node16 -->
<g id="node9" class="node">
<title>Node16</title>
<polygon fill="none" stroke="#bfbfbf" points="127.2217,-165.5 127.2217,-183.5 179.3447,-183.5 179.3447,-165.5 127.2217,-165.5"/>
<text text-anchor="middle" x="153.2832" y="-171.5" font-family="Helvetica,sans-Serif" font-size="10.00" fill="#000000">ostream</text>
</g>
<!-- Node10&#45;&gt;Node16 -->
<g id="edge12" class="edge">
<title>Node10&#45;&gt;Node16</title>
<path fill="none" stroke="#191970" d="M120.7233,-220.4179C126.1665,-212.7415 134.1224,-201.5217 140.8071,-192.0945"/>
<polygon fill="#191970" stroke="#191970" points="143.774,-193.9613 146.7032,-183.7795 138.0638,-189.9123 143.774,-193.9613"/>
</g>
<!-- Node11&#45;&gt;Node1 -->
<g id="edge9" class="edge">
<title>Node11&#45;&gt;Node1</title>
<path fill="none" stroke="#191970" d="M69.1734,-165.4179C64.0093,-157.7415 56.4614,-146.5217 50.1195,-137.0945"/>
<polygon fill="#191970" stroke="#191970" points="53.0116,-135.1231 44.5257,-128.7795 47.2035,-139.0303 53.0116,-135.1231"/>
</g>
<!-- Node11&#45;&gt;Node15 -->
<g id="edge8" class="edge">
<title>Node11&#45;&gt;Node15</title>
<path fill="none" stroke="#191970" d="M90.6403,-165.4179C105.1793,-156.8195 127.2357,-143.7754 144.1295,-133.7844"/>
<polygon fill="#191970" stroke="#191970" points="146.0776,-136.6987 152.9033,-128.5956 142.5142,-130.6735 146.0776,-136.6987"/>
</g>
</g>
</svg>
