<?xml version="1.0" encoding="UTF-8" standalone="no"?>
<!DOCTYPE svg PUBLIC "-//W3C//DTD SVG 1.1//EN"
 "http://www.w3.org/Graphics/SVG/1.1/DTD/svg11.dtd">
<!-- Generated by graphviz version 2.40.1 (20161225.0304)
 -->
<!-- Title: libnolimits/NL2/Coaster/Track/Section/Brake.cpp Pages: 1 -->
<svg width="220pt" height="212pt"
 viewBox="0.00 0.00 219.51 212.00" xmlns="http://www.w3.org/2000/svg" xmlns:xlink="http://www.w3.org/1999/xlink">
<g id="graph0" class="graph" transform="scale(1 1) rotate(0) translate(4 208)">
<title>libnolimits/NL2/Coaster/Track/Section/Brake.cpp</title>
<!-- Node0 -->
<g id="node1" class="node">
<title>Node0</title>
<polygon fill="#bfbfbf" stroke="#000000" points="57.1733,-175.5 57.1733,-203.5 184.521,-203.5 184.521,-175.5 57.1733,-175.5"/>
<text text-anchor="start" x="65.1733" y="-191.5" font-family="Helvetica,sans-Serif" font-size="10.00" fill="#000000">libnolimits/NL2/Coaster</text>
<text text-anchor="middle" x="120.8472" y="-181.5" font-family="Helvetica,sans-Serif" font-size="10.00" fill="#000000">/Track/Section/Brake.cpp</text>
</g>
<!-- Node1 -->
<g id="node2" class="node">
<title>Node1</title>
<g id="a_node2"><a xlink:href="_n_l2_2_coaster_2_track_2_section_2_brake_8h.html" target="_top" xlink:title="Brake.h">
<polygon fill="none" stroke="#000000" points="60.6157,-120.5 60.6157,-138.5 111.0786,-138.5 111.0786,-120.5 60.6157,-120.5"/>
<text text-anchor="middle" x="85.8472" y="-126.5" font-family="Helvetica,sans-Serif" font-size="10.00" fill="#000000">Brake.h</text>
</a>
</g>
</g>
<!-- Node0&#45;&gt;Node1 -->
<g id="edge1" class="edge">
<title>Node0&#45;&gt;Node1</title>
<path fill="none" stroke="#191970" d="M112.5527,-175.2808C107.6834,-166.9336 101.485,-156.3076 96.2857,-147.3946"/>
<polygon fill="#191970" stroke="#191970" points="99.2083,-145.4584 91.1463,-138.5842 93.1618,-148.9856 99.2083,-145.4584"/>
</g>
<!-- Node12 -->
<g id="node6" class="node">
<title>Node12</title>
<polygon fill="none" stroke="#bfbfbf" points="128.6748,-120.5 128.6748,-138.5 183.0195,-138.5 183.0195,-120.5 128.6748,-120.5"/>
<text text-anchor="middle" x="155.8472" y="-126.5" font-family="Helvetica,sans-Serif" font-size="10.00" fill="#000000">iostream</text>
</g>
<!-- Node0&#45;&gt;Node12 -->
<g id="edge7" class="edge">
<title>Node0&#45;&gt;Node12</title>
<path fill="none" stroke="#191970" d="M129.1417,-175.2808C134.0109,-166.9336 140.2094,-156.3076 145.4086,-147.3946"/>
<polygon fill="#191970" stroke="#191970" points="148.5325,-148.9856 150.5481,-138.5842 142.4861,-145.4584 148.5325,-148.9856"/>
</g>
<!-- Node2 -->
<g id="node3" class="node">
<title>Node2</title>
<g id="a_node3"><a xlink:href="_n_l2_2_coaster_2_track_2_section_2_section_8h.html" target="_top" xlink:title="Section.h">
<polygon fill="none" stroke="#000000" points="0,-65.5 0,-83.5 57.6943,-83.5 57.6943,-65.5 0,-65.5"/>
<text text-anchor="middle" x="28.8472" y="-71.5" font-family="Helvetica,sans-Serif" font-size="10.00" fill="#000000">Section.h</text>
</a>
</g>
</g>
<!-- Node1&#45;&gt;Node2 -->
<g id="edge2" class="edge">
<title>Node1&#45;&gt;Node2</title>
<path fill="none" stroke="#191970" d="M76.4348,-120.4179C68.1512,-112.425 55.8862,-100.5903 45.8827,-90.9377"/>
<polygon fill="#191970" stroke="#191970" points="48.0906,-88.2045 38.4641,-83.7795 43.23,-93.2419 48.0906,-88.2045"/>
</g>
<!-- Node3 -->
<g id="node4" class="node">
<title>Node3</title>
<g id="a_node4"><a xlink:href="_chunk_8h.html" target="_top" xlink:title="../../../../Stream\l/Chunk.h">
<polygon fill="none" stroke="#ff0000" points="45.0615,-.5 45.0615,-28.5 126.6328,-28.5 126.6328,-.5 45.0615,-.5"/>
<text text-anchor="start" x="53.0615" y="-16.5" font-family="Helvetica,sans-Serif" font-size="10.00" fill="#000000">../../../../Stream</text>
<text text-anchor="middle" x="85.8472" y="-6.5" font-family="Helvetica,sans-Serif" font-size="10.00" fill="#000000">/Chunk.h</text>
</a>
</g>
</g>
<!-- Node1&#45;&gt;Node3 -->
<g id="edge6" class="edge">
<title>Node1&#45;&gt;Node3</title>
<path fill="none" stroke="#191970" d="M85.8472,-120.4761C85.8472,-103.0557 85.8472,-64.265 85.8472,-38.7612"/>
<polygon fill="#191970" stroke="#191970" points="89.3473,-38.7455 85.8472,-28.7455 82.3473,-38.7455 89.3473,-38.7455"/>
</g>
<!-- Node19 -->
<g id="node5" class="node">
<title>Node19</title>
<g id="a_node5"><a xlink:href="_n_l2_2_coaster_2_track_2_section_2_transport_device_8h.html" target="_top" xlink:title="TransportDevice.h">
<polygon fill="none" stroke="#ff0000" points="114.1807,-65.5 114.1807,-83.5 211.5137,-83.5 211.5137,-65.5 114.1807,-65.5"/>
<text text-anchor="middle" x="162.8472" y="-71.5" font-family="Helvetica,sans-Serif" font-size="10.00" fill="#000000">TransportDevice.h</text>
</a>
</g>
</g>
<!-- Node1&#45;&gt;Node19 -->
<g id="edge4" class="edge">
<title>Node1&#45;&gt;Node19</title>
<path fill="none" stroke="#191970" d="M98.5622,-120.4179C110.2654,-112.0584 127.8519,-99.4966 141.6737,-89.6239"/>
<polygon fill="#191970" stroke="#191970" points="144.0103,-92.2561 150.1133,-83.5956 139.9416,-86.56 144.0103,-92.2561"/>
</g>
<!-- Node2&#45;&gt;Node3 -->
<g id="edge3" class="edge">
<title>Node2&#45;&gt;Node3</title>
<path fill="none" stroke="#191970" d="M37.5042,-65.3873C44.8503,-57.6546 55.688,-46.2465 65.2411,-36.1906"/>
<polygon fill="#191970" stroke="#191970" points="67.8669,-38.5083 72.2169,-28.8477 62.7919,-33.687 67.8669,-38.5083"/>
</g>
<!-- Node19&#45;&gt;Node3 -->
<g id="edge5" class="edge">
<title>Node19&#45;&gt;Node3</title>
<path fill="none" stroke="#191970" d="M151.1525,-65.3873C140.7701,-57.2971 125.2246,-45.1837 111.9051,-34.8049"/>
<polygon fill="#191970" stroke="#191970" points="114.0049,-32.004 103.9656,-28.6183 109.7024,-37.5256 114.0049,-32.004"/>
</g>
</g>
</svg>
