<?xml version="1.0" encoding="UTF-8" standalone="no"?>
<!DOCTYPE svg PUBLIC "-//W3C//DTD SVG 1.1//EN"
 "http://www.w3.org/Graphics/SVG/1.1/DTD/svg11.dtd">
<!-- Generated by graphviz version 2.40.1 (20161225.0304)
 -->
<!-- Title: libnolimits/NL2/Coaster/Track/Section/Section.cpp Pages: 1 -->
<svg width="793pt" height="487pt"
 viewBox="0.00 0.00 793.09 487.00" xmlns="http://www.w3.org/2000/svg" xmlns:xlink="http://www.w3.org/1999/xlink">
<g id="graph0" class="graph" transform="scale(1 1) rotate(0) translate(4 483)">
<title>libnolimits/NL2/Coaster/Track/Section/Section.cpp</title>
<!-- Node0 -->
<g id="node1" class="node">
<title>Node0</title>
<polygon fill="#bfbfbf" stroke="#000000" points="264.6319,-450.5 264.6319,-478.5 399.211,-478.5 399.211,-450.5 264.6319,-450.5"/>
<text text-anchor="start" x="272.6319" y="-466.5" font-family="Helvetica,sans-Serif" font-size="10.00" fill="#000000">libnolimits/NL2/Coaster</text>
<text text-anchor="middle" x="331.9214" y="-456.5" font-family="Helvetica,sans-Serif" font-size="10.00" fill="#000000">/Track/Section/Section.cpp</text>
</g>
<!-- Node1 -->
<g id="node2" class="node">
<title>Node1</title>
<g id="a_node2"><a xlink:href="_n_l2_2_coaster_2_track_2_section_2_section_8h.html" target="_top" xlink:title="Section.h">
<polygon fill="none" stroke="#000000" points="258.0743,-120.5 258.0743,-138.5 315.7686,-138.5 315.7686,-120.5 258.0743,-120.5"/>
<text text-anchor="middle" x="286.9214" y="-126.5" font-family="Helvetica,sans-Serif" font-size="10.00" fill="#000000">Section.h</text>
</a>
</g>
</g>
<!-- Node0&#45;&gt;Node1 -->
<g id="edge1" class="edge">
<title>Node0&#45;&gt;Node1</title>
<path fill="none" stroke="#191970" d="M317.1259,-450.2992C308.0443,-440.8113 296.8622,-427.6131 289.9214,-414 278.4639,-391.5284 280.8547,-383.7368 275.9214,-359 271.0903,-334.7754 269.7038,-328.6373 267.9214,-304 263.8103,-247.1749 275.8373,-180.2809 282.6237,-148.3317"/>
<polygon fill="#191970" stroke="#191970" points="286.0427,-149.0802 284.7706,-138.5621 279.2058,-147.5778 286.0427,-149.0802"/>
</g>
<!-- Node18 -->
<g id="node5" class="node">
<title>Node18</title>
<g id="a_node5"><a xlink:href="_n_l2_2_coaster_2_track_2_section_2_lift_8h.html" target="_top" xlink:title="Lift.h">
<polygon fill="none" stroke="#000000" points="505.0816,-175.5 505.0816,-193.5 542.7613,-193.5 542.7613,-175.5 505.0816,-175.5"/>
<text text-anchor="middle" x="523.9214" y="-181.5" font-family="Helvetica,sans-Serif" font-size="10.00" fill="#000000">Lift.h</text>
</a>
</g>
</g>
<!-- Node0&#45;&gt;Node18 -->
<g id="edge4" class="edge">
<title>Node0&#45;&gt;Node18</title>
<path fill="none" stroke="#191970" d="M356.4502,-450.3867C386.5835,-432.1636 437.9937,-398.1054 472.9214,-359 511.3654,-315.9578 525.9662,-304.4617 541.9214,-249 546.3851,-233.484 540.7087,-215.8208 534.5803,-202.9063"/>
<polygon fill="#191970" stroke="#191970" points="537.4964,-200.9306 529.7535,-193.6988 531.2966,-204.1807 537.4964,-200.9306"/>
</g>
<!-- Node19 -->
<g id="node6" class="node">
<title>Node19</title>
<g id="a_node6"><a xlink:href="_n_l2_2_coaster_2_track_2_section_2_transport_8h.html" target="_top" xlink:title="Transport.h">
<polygon fill="none" stroke="#000000" points="15.5381,-175.5 15.5381,-193.5 82.3047,-193.5 82.3047,-175.5 15.5381,-175.5"/>
<text text-anchor="middle" x="48.9214" y="-181.5" font-family="Helvetica,sans-Serif" font-size="10.00" fill="#000000">Transport.h</text>
</a>
</g>
</g>
<!-- Node0&#45;&gt;Node19 -->
<g id="edge7" class="edge">
<title>Node0&#45;&gt;Node19</title>
<path fill="none" stroke="#191970" d="M264.3904,-453.6792C172.377,-436.9926 18.9214,-401.3857 18.9214,-349.5 18.9214,-349.5 18.9214,-349.5 18.9214,-294.5 18.9214,-261.3284 31.7765,-224.4498 40.6568,-202.9315"/>
<polygon fill="#191970" stroke="#191970" points="43.8973,-204.2554 44.6232,-193.6855 37.4642,-201.4957 43.8973,-204.2554"/>
</g>
<!-- Node20 -->
<g id="node7" class="node">
<title>Node20</title>
<g id="a_node7"><a xlink:href="_n_l2_2_coaster_2_track_2_section_2_brake_8h.html" target="_top" xlink:title="Brake.h">
<polygon fill="none" stroke="#000000" points="276.69,-285.5 276.69,-303.5 327.1529,-303.5 327.1529,-285.5 276.69,-285.5"/>
<text text-anchor="middle" x="301.9214" y="-291.5" font-family="Helvetica,sans-Serif" font-size="10.00" fill="#000000">Brake.h</text>
</a>
</g>
</g>
<!-- Node0&#45;&gt;Node20 -->
<g id="edge10" class="edge">
<title>Node0&#45;&gt;Node20</title>
<path fill="none" stroke="#191970" d="M322.6186,-450.2273C310.4479,-430.6173 289.7512,-393.8033 281.9214,-359 278.3478,-343.1155 284.5371,-325.4836 290.9486,-312.6749"/>
<polygon fill="#191970" stroke="#191970" points="294.2077,-314.0116 295.9559,-303.562 288.0728,-310.6406 294.2077,-314.0116"/>
</g>
<!-- Node22 -->
<g id="node9" class="node">
<title>Node22</title>
<g id="a_node9"><a xlink:href="_n_l2_2_coaster_2_track_2_section_2_station_8h.html" target="_top" xlink:title="Station.h">
<polygon fill="none" stroke="#000000" points="339.1851,-395.5 339.1851,-413.5 394.6577,-413.5 394.6577,-395.5 339.1851,-395.5"/>
<text text-anchor="middle" x="366.9214" y="-401.5" font-family="Helvetica,sans-Serif" font-size="10.00" fill="#000000">Station.h</text>
</a>
</g>
</g>
<!-- Node0&#45;&gt;Node22 -->
<g id="edge16" class="edge">
<title>Node0&#45;&gt;Node22</title>
<path fill="none" stroke="#191970" d="M340.2159,-450.2808C345.0852,-441.9336 351.2836,-431.3076 356.4829,-422.3946"/>
<polygon fill="#191970" stroke="#191970" points="359.6068,-423.9856 361.6223,-413.5842 353.5603,-420.4584 359.6068,-423.9856"/>
</g>
<!-- Node26 -->
<g id="node12" class="node">
<title>Node26</title>
<g id="a_node12"><a xlink:href="_storage_8h.html" target="_top" xlink:title="Storage.h">
<polygon fill="none" stroke="#000000" points="65.2393,-285.5 65.2393,-303.5 124.6035,-303.5 124.6035,-285.5 65.2393,-285.5"/>
<text text-anchor="middle" x="94.9214" y="-291.5" font-family="Helvetica,sans-Serif" font-size="10.00" fill="#000000">Storage.h</text>
</a>
</g>
</g>
<!-- Node0&#45;&gt;Node26 -->
<g id="edge25" class="edge">
<title>Node0&#45;&gt;Node26</title>
<path fill="none" stroke="#191970" d="M264.4826,-453.7618C234.2152,-446.3959 199.4365,-434.1578 172.9214,-414 137.5595,-387.1165 113.4697,-339.2719 102.2086,-313.0148"/>
<polygon fill="#191970" stroke="#191970" points="105.3348,-311.4147 98.2887,-303.5025 98.8628,-314.0818 105.3348,-311.4147"/>
</g>
<!-- Node27 -->
<g id="node13" class="node">
<title>Node27</title>
<g id="a_node13"><a xlink:href="_memory_file_8h.html" target="_top" xlink:title="../../../../File/MemoryFile.h">
<polygon fill="none" stroke="#000000" points="583.5225,-395.5 583.5225,-413.5 712.3203,-413.5 712.3203,-395.5 583.5225,-395.5"/>
<text text-anchor="middle" x="647.9214" y="-401.5" font-family="Helvetica,sans-Serif" font-size="10.00" fill="#000000">../../../../File/MemoryFile.h</text>
</a>
</g>
</g>
<!-- Node0&#45;&gt;Node27 -->
<g id="edge30" class="edge">
<title>Node0&#45;&gt;Node27</title>
<path fill="none" stroke="#191970" d="M399.3238,-451.7021C456.0291,-440.9352 536.2495,-425.7035 590.0788,-415.4828"/>
<polygon fill="#191970" stroke="#191970" points="590.9728,-418.8756 600.1444,-413.5716 589.667,-411.9985 590.9728,-418.8756"/>
</g>
<!-- Node11 -->
<g id="node15" class="node">
<title>Node11</title>
<polygon fill="none" stroke="#bfbfbf" points="730.7491,-395.5 730.7491,-413.5 785.0938,-413.5 785.0938,-395.5 730.7491,-395.5"/>
<text text-anchor="middle" x="757.9214" y="-401.5" font-family="Helvetica,sans-Serif" font-size="10.00" fill="#000000">iostream</text>
</g>
<!-- Node0&#45;&gt;Node11 -->
<g id="edge33" class="edge">
<title>Node0&#45;&gt;Node11</title>
<path fill="none" stroke="#191970" d="M399.436,-458.2646C475.2064,-450.6988 601.9118,-436.3471 720.5423,-413.8482"/>
<polygon fill="#191970" stroke="#191970" points="721.366,-417.254 730.5268,-411.9313 720.0462,-410.3795 721.366,-417.254"/>
</g>
<!-- Node2 -->
<g id="node3" class="node">
<title>Node2</title>
<g id="a_node3"><a xlink:href="_chunk_8h.html" target="_top" xlink:title="../../../../Stream\l/Chunk.h">
<polygon fill="none" stroke="#ff0000" points="341.1358,-55.5 341.1358,-83.5 422.7071,-83.5 422.7071,-55.5 341.1358,-55.5"/>
<text text-anchor="start" x="349.1358" y="-71.5" font-family="Helvetica,sans-Serif" font-size="10.00" fill="#000000">../../../../Stream</text>
<text text-anchor="middle" x="381.9214" y="-61.5" font-family="Helvetica,sans-Serif" font-size="10.00" fill="#000000">/Chunk.h</text>
</a>
</g>
</g>
<!-- Node1&#45;&gt;Node2 -->
<g id="edge2" class="edge">
<title>Node1&#45;&gt;Node2</title>
<path fill="none" stroke="#191970" d="M301.3499,-120.3873C314.401,-112.1445 334.0649,-99.7252 350.6992,-89.2193"/>
<polygon fill="#191970" stroke="#191970" points="352.9816,-91.9175 359.5675,-83.6183 349.2436,-85.999 352.9816,-91.9175"/>
</g>
<!-- Node3 -->
<g id="node4" class="node">
<title>Node3</title>
<g id="a_node4"><a xlink:href="_file_8h.html" target="_top" xlink:title="../File/File.h">
<polygon fill="none" stroke="#ff0000" points="447.0816,-.5 447.0816,-18.5 514.7613,-18.5 514.7613,-.5 447.0816,-.5"/>
<text text-anchor="middle" x="480.9214" y="-6.5" font-family="Helvetica,sans-Serif" font-size="10.00" fill="#000000">../File/File.h</text>
</a>
</g>
</g>
<!-- Node2&#45;&gt;Node3 -->
<g id="edge3" class="edge">
<title>Node2&#45;&gt;Node3</title>
<path fill="none" stroke="#191970" d="M405.1325,-55.4327C420.8027,-45.9356 441.4245,-33.4376 457.2005,-23.8763"/>
<polygon fill="#191970" stroke="#191970" points="459.1173,-26.8073 465.8552,-18.6311 455.4891,-20.8209 459.1173,-26.8073"/>
</g>
<!-- Node18&#45;&gt;Node1 -->
<g id="edge5" class="edge">
<title>Node18&#45;&gt;Node1</title>
<path fill="none" stroke="#191970" d="M504.9273,-180.0921C466.208,-171.1066 377.4686,-150.513 325.9373,-138.5543"/>
<polygon fill="#191970" stroke="#191970" points="326.6854,-135.135 316.153,-136.2837 325.1029,-141.9538 326.6854,-135.135"/>
</g>
<!-- Node18&#45;&gt;Node2 -->
<g id="edge6" class="edge">
<title>Node18&#45;&gt;Node2</title>
<path fill="none" stroke="#191970" d="M521.3796,-175.4252C517.14,-161.7744 507.4219,-135.8685 490.9214,-120 474.5052,-104.2126 452.2597,-92.7048 432.1456,-84.6983"/>
<polygon fill="#191970" stroke="#191970" points="433.3726,-81.4205 422.7811,-81.1547 430.8952,-87.9674 433.3726,-81.4205"/>
</g>
<!-- Node19&#45;&gt;Node1 -->
<g id="edge8" class="edge">
<title>Node19&#45;&gt;Node1</title>
<path fill="none" stroke="#191970" d="M82.5162,-176.7365C126.116,-166.6609 202.0439,-149.1146 248.0739,-138.4774"/>
<polygon fill="#191970" stroke="#191970" points="249.0226,-141.8505 257.9777,-136.1887 247.4464,-135.0302 249.0226,-141.8505"/>
</g>
<!-- Node19&#45;&gt;Node2 -->
<g id="edge9" class="edge">
<title>Node19&#45;&gt;Node2</title>
<path fill="none" stroke="#191970" d="M64.176,-175.3845C87.6682,-161.6804 134.4429,-135.706 176.9214,-120 228.0563,-101.0935 288.9726,-87.1095 331.0431,-78.7101"/>
<polygon fill="#191970" stroke="#191970" points="331.9102,-82.1068 341.0492,-76.7468 330.5623,-75.2378 331.9102,-82.1068"/>
</g>
<!-- Node20&#45;&gt;Node1 -->
<g id="edge11" class="edge">
<title>Node20&#45;&gt;Node1</title>
<path fill="none" stroke="#191970" d="M301.072,-285.1561C298.6896,-258.9504 291.9083,-184.3557 288.6762,-148.8021"/>
<polygon fill="#191970" stroke="#191970" points="292.1526,-148.3834 287.7615,-138.7414 285.1814,-149.0172 292.1526,-148.3834"/>
</g>
<!-- Node20&#45;&gt;Node2 -->
<g id="edge15" class="edge">
<title>Node20&#45;&gt;Node2</title>
<path fill="none" stroke="#191970" d="M305.1566,-285.4011C316.7006,-252.9336 356.1053,-142.1077 373.5246,-93.116"/>
<polygon fill="#191970" stroke="#191970" points="376.8377,-94.2454 376.8901,-83.6507 370.2422,-91.9003 376.8377,-94.2454"/>
</g>
<!-- Node21 -->
<g id="node8" class="node">
<title>Node21</title>
<g id="a_node8"><a xlink:href="_n_l2_2_coaster_2_track_2_section_2_transport_device_8h.html" target="_top" xlink:title="TransportDevice.h">
<polygon fill="none" stroke="#000000" points="123.2549,-230.5 123.2549,-248.5 220.5879,-248.5 220.5879,-230.5 123.2549,-230.5"/>
<text text-anchor="middle" x="171.9214" y="-236.5" font-family="Helvetica,sans-Serif" font-size="10.00" fill="#000000">TransportDevice.h</text>
</a>
</g>
</g>
<!-- Node20&#45;&gt;Node21 -->
<g id="edge12" class="edge">
<title>Node20&#45;&gt;Node21</title>
<path fill="none" stroke="#191970" d="M280.4546,-285.4179C259.2844,-276.4613 226.712,-262.6806 202.7716,-252.552"/>
<polygon fill="#191970" stroke="#191970" points="203.9936,-249.2687 193.4202,-248.5956 201.2661,-255.7155 203.9936,-249.2687"/>
</g>
<!-- Node21&#45;&gt;Node2 -->
<g id="edge14" class="edge">
<title>Node21&#45;&gt;Node2</title>
<path fill="none" stroke="#191970" d="M175.4492,-230.3089C184.3815,-208.1963 209.9843,-151.5284 248.9214,-120 272.6652,-100.7741 304.5155,-88.3373 331.0948,-80.6175"/>
<polygon fill="#191970" stroke="#191970" points="332.2868,-83.9195 340.9955,-77.8855 330.4248,-77.1716 332.2868,-83.9195"/>
</g>
<!-- Node21&#45;&gt;Node19 -->
<g id="edge13" class="edge">
<title>Node21&#45;&gt;Node19</title>
<path fill="none" stroke="#191970" d="M151.6105,-230.4179C131.6693,-221.5011 101.0355,-207.803 78.4129,-197.6873"/>
<polygon fill="#191970" stroke="#191970" points="79.8202,-194.4826 69.2625,-193.5956 76.9627,-200.8728 79.8202,-194.4826"/>
</g>
<!-- Node22&#45;&gt;Node1 -->
<g id="edge17" class="edge">
<title>Node22&#45;&gt;Node1</title>
<path fill="none" stroke="#191970" d="M371.6476,-395.3356C377.4922,-382.8497 386.1784,-359.7814 381.9214,-340 365.5753,-264.0434 319.5422,-182.4653 298.1318,-147.2982"/>
<polygon fill="#191970" stroke="#191970" points="301.0245,-145.3211 292.7911,-138.6532 295.0693,-149.0002 301.0245,-145.3211"/>
</g>
<!-- Node22&#45;&gt;Node2 -->
<g id="edge24" class="edge">
<title>Node22&#45;&gt;Node2</title>
<path fill="none" stroke="#191970" d="M378.4895,-395.258C398.8422,-377.87 438.9214,-338.0946 438.9214,-294.5 438.9214,-294.5 438.9214,-294.5 438.9214,-184.5 438.9214,-149.2874 417.2025,-113.7279 400.578,-91.667"/>
<polygon fill="#191970" stroke="#191970" points="403.2075,-89.3479 394.2896,-83.6277 397.6939,-93.6607 403.2075,-89.3479"/>
</g>
<!-- Node22&#45;&gt;Node21 -->
<g id="edge20" class="edge">
<title>Node22&#45;&gt;Node21</title>
<path fill="none" stroke="#191970" d="M345.4792,-395.4662C327.5405,-387.3547 301.7694,-374.3763 281.9214,-359 241.8181,-327.9317 203.755,-281.513 184.6704,-256.6628"/>
<polygon fill="#191970" stroke="#191970" points="187.356,-254.4117 178.5293,-248.5518 181.7752,-258.6371 187.356,-254.4117"/>
</g>
<!-- Node23 -->
<g id="node10" class="node">
<title>Node23</title>
<g id="a_node10"><a xlink:href="_wait_time_8h.html" target="_top" xlink:title="WaitTime.h">
<polygon fill="none" stroke="#ff0000" points="467.0069,-230.5 467.0069,-248.5 532.836,-248.5 532.836,-230.5 467.0069,-230.5"/>
<text text-anchor="middle" x="499.9214" y="-236.5" font-family="Helvetica,sans-Serif" font-size="10.00" fill="#000000">WaitTime.h</text>
</a>
</g>
</g>
<!-- Node22&#45;&gt;Node23 -->
<g id="edge18" class="edge">
<title>Node22&#45;&gt;Node23</title>
<path fill="none" stroke="#191970" d="M394.9906,-395.4877C413.6093,-388.2429 437.3862,-376.3788 452.9214,-359 479.065,-329.7539 491.4741,-284.2549 496.678,-258.663"/>
<polygon fill="#191970" stroke="#191970" points="500.1383,-259.1996 498.5361,-248.7266 493.2575,-257.9128 500.1383,-259.1996"/>
</g>
<!-- Node25 -->
<g id="node11" class="node">
<title>Node25</title>
<g id="a_node11"><a xlink:href="_brake_device_8h.html" target="_top" xlink:title="BrakeDevice.h">
<polygon fill="none" stroke="#000000" points="291.4068,-340.5 291.4068,-358.5 372.4361,-358.5 372.4361,-340.5 291.4068,-340.5"/>
<text text-anchor="middle" x="331.9214" y="-346.5" font-family="Helvetica,sans-Serif" font-size="10.00" fill="#000000">BrakeDevice.h</text>
</a>
</g>
</g>
<!-- Node22&#45;&gt;Node25 -->
<g id="edge21" class="edge">
<title>Node22&#45;&gt;Node25</title>
<path fill="none" stroke="#191970" d="M361.1419,-395.4179C356.3073,-387.8207 349.264,-376.7527 343.3038,-367.3866"/>
<polygon fill="#191970" stroke="#191970" points="346.1482,-365.337 337.8265,-358.7795 340.2425,-369.0952 346.1482,-365.337"/>
</g>
<!-- Node23&#45;&gt;Node2 -->
<g id="edge19" class="edge">
<title>Node23&#45;&gt;Node2</title>
<path fill="none" stroke="#191970" d="M498.1675,-230.2105C493.7558,-208.8359 480.5236,-155.2994 452.9214,-120 443.3068,-107.7043 429.9077,-97.116 417.337,-88.8564"/>
<polygon fill="#191970" stroke="#191970" points="419.1548,-85.8652 408.8232,-83.518 415.436,-91.7957 419.1548,-85.8652"/>
</g>
<!-- Node25&#45;&gt;Node2 -->
<g id="edge22" class="edge">
<title>Node25&#45;&gt;Node2</title>
<path fill="none" stroke="#191970" d="M334.0359,-340.3153C340.7089,-311.0664 361.607,-217.4144 373.9214,-139 376.2621,-124.0955 378.2148,-107.2916 379.605,-93.9408"/>
<polygon fill="#191970" stroke="#191970" points="383.121,-93.9552 380.6366,-83.6558 376.1559,-93.2566 383.121,-93.9552"/>
</g>
<!-- Node25&#45;&gt;Node20 -->
<g id="edge23" class="edge">
<title>Node25&#45;&gt;Node20</title>
<path fill="none" stroke="#191970" d="M326.9675,-340.4179C322.8668,-332.8998 316.9121,-321.9829 311.8377,-312.6799"/>
<polygon fill="#191970" stroke="#191970" points="314.8442,-310.8824 306.9829,-303.7795 308.6989,-314.2344 314.8442,-310.8824"/>
</g>
<!-- Node26&#45;&gt;Node1 -->
<g id="edge26" class="edge">
<title>Node26&#45;&gt;Node1</title>
<path fill="none" stroke="#191970" d="M95.5204,-285.1915C96.8247,-271.7017 100.9472,-246.5287 113.9214,-230 148.8181,-185.5427 209.2424,-156.9992 248.6467,-142.0998"/>
<polygon fill="#191970" stroke="#191970" points="249.9988,-145.332 258.1836,-138.6044 247.5899,-138.7595 249.9988,-145.332"/>
</g>
<!-- Node26&#45;&gt;Node2 -->
<g id="edge29" class="edge">
<title>Node26&#45;&gt;Node2</title>
<path fill="none" stroke="#191970" d="M79.1437,-285.4693C46.9892,-265.8823 -20.8287,-217.8066 6.9214,-175 42.337,-120.3688 236.591,-88.2383 330.7331,-75.6646"/>
<polygon fill="#191970" stroke="#191970" points="331.425,-79.1039 340.8848,-74.3328 330.5145,-72.1633 331.425,-79.1039"/>
</g>
<!-- Node26&#45;&gt;Node19 -->
<g id="edge27" class="edge">
<title>Node26&#45;&gt;Node19</title>
<path fill="none" stroke="#191970" d="M91.157,-285.4982C83.6431,-267.5302 66.6504,-226.8954 56.6597,-203.0046"/>
<polygon fill="#191970" stroke="#191970" points="59.825,-201.5016 52.7378,-193.6261 53.3669,-204.2023 59.825,-201.5016"/>
</g>
<!-- Node26&#45;&gt;Node21 -->
<g id="edge28" class="edge">
<title>Node26&#45;&gt;Node21</title>
<path fill="none" stroke="#191970" d="M107.6364,-285.4179C119.3397,-277.0584 136.9261,-264.4966 150.748,-254.6239"/>
<polygon fill="#191970" stroke="#191970" points="153.0845,-257.2561 159.1875,-248.5956 149.0158,-251.56 153.0845,-257.2561"/>
</g>
<!-- Node27&#45;&gt;Node3 -->
<g id="edge31" class="edge">
<title>Node27&#45;&gt;Node3</title>
<path fill="none" stroke="#191970" d="M640.6913,-395.4059C627.0611,-377.3161 598.9214,-335.0582 598.9214,-294.5 598.9214,-294.5 598.9214,-294.5 598.9214,-129.5 598.9214,-79.0231 545.1839,-42.0251 510.2368,-23.3012"/>
<polygon fill="#191970" stroke="#191970" points="511.4308,-19.9791 500.9385,-18.5087 508.2238,-26.2012 511.4308,-19.9791"/>
</g>
<!-- Node14 -->
<g id="node14" class="node">
<title>Node14</title>
<polygon fill="none" stroke="#bfbfbf" points="627.6949,-340.5 627.6949,-358.5 668.148,-358.5 668.148,-340.5 627.6949,-340.5"/>
<text text-anchor="middle" x="647.9214" y="-346.5" font-family="Helvetica,sans-Serif" font-size="10.00" fill="#000000">string</text>
</g>
<!-- Node27&#45;&gt;Node14 -->
<g id="edge32" class="edge">
<title>Node27&#45;&gt;Node14</title>
<path fill="none" stroke="#191970" d="M647.9214,-395.4179C647.9214,-388.2164 647.9214,-377.8962 647.9214,-368.8632"/>
<polygon fill="#191970" stroke="#191970" points="651.4215,-368.7794 647.9214,-358.7795 644.4215,-368.7795 651.4215,-368.7794"/>
</g>
</g>
</svg>
