<?xml version="1.0" encoding="UTF-8" standalone="no"?>
<!DOCTYPE svg PUBLIC "-//W3C//DTD SVG 1.1//EN"
 "http://www.w3.org/Graphics/SVG/1.1/DTD/svg11.dtd">
<!-- Generated by graphviz version 2.40.1 (20161225.0304)
 -->
<!-- Title: libnolimits/NL2/Info/Info.h Pages: 1 -->
<svg width="331pt" height="257pt"
 viewBox="0.00 0.00 331.43 257.00" xmlns="http://www.w3.org/2000/svg" xmlns:xlink="http://www.w3.org/1999/xlink">
<g id="graph0" class="graph" transform="scale(1 1) rotate(0) translate(4 253)">
<title>libnolimits/NL2/Info/Info.h</title>
<!-- Node0 -->
<g id="node1" class="node">
<title>Node0</title>
<polygon fill="#bfbfbf" stroke="#000000" points="102.9602,-220.5 102.9602,-248.5 203.4426,-248.5 203.4426,-220.5 102.9602,-220.5"/>
<text text-anchor="start" x="110.9602" y="-236.5" font-family="Helvetica,sans-Serif" font-size="10.00" fill="#000000">libnolimits/NL2/Info</text>
<text text-anchor="middle" x="153.2014" y="-226.5" font-family="Helvetica,sans-Serif" font-size="10.00" fill="#000000">/Info.h</text>
</g>
<!-- Node1 -->
<g id="node2" class="node">
<title>Node1</title>
<g id="a_node2"><a xlink:href="_chunk_8h.html" target="_top" xlink:title="../../Stream/Chunk.h">
<polygon fill="none" stroke="#000000" points="65.7385,-110.5 65.7385,-128.5 170.6643,-128.5 170.6643,-110.5 65.7385,-110.5"/>
<text text-anchor="middle" x="118.2014" y="-116.5" font-family="Helvetica,sans-Serif" font-size="10.00" fill="#000000">../../Stream/Chunk.h</text>
</a>
</g>
</g>
<!-- Node0&#45;&gt;Node1 -->
<g id="edge1" class="edge">
<title>Node0&#45;&gt;Node1</title>
<path fill="none" stroke="#191970" d="M119.3474,-220.4444C104.1658,-212.2256 87.7738,-200.2284 79.2014,-184 70.2602,-167.0734 84.273,-148.4297 97.9258,-135.5587"/>
<polygon fill="#191970" stroke="#191970" points="100.5331,-137.9276 105.7465,-128.7041 95.9192,-132.6633 100.5331,-137.9276"/>
</g>
<!-- Node17 -->
<g id="node7" class="node">
<title>Node17</title>
<g id="a_node7"><a xlink:href="_weather_8h.html" target="_top" xlink:title="Weather.h">
<polygon fill="none" stroke="#000000" points="88.4963,-165.5 88.4963,-183.5 149.9065,-183.5 149.9065,-165.5 88.4963,-165.5"/>
<text text-anchor="middle" x="119.2014" y="-171.5" font-family="Helvetica,sans-Serif" font-size="10.00" fill="#000000">Weather.h</text>
</a>
</g>
</g>
<!-- Node0&#45;&gt;Node17 -->
<g id="edge8" class="edge">
<title>Node0&#45;&gt;Node17</title>
<path fill="none" stroke="#191970" d="M145.1439,-220.2808C140.4138,-211.9336 134.3924,-201.3076 129.3417,-192.3946"/>
<polygon fill="#191970" stroke="#191970" points="132.3244,-190.5589 124.3491,-183.5842 126.2342,-194.01 132.3244,-190.5589"/>
</g>
<!-- Node18 -->
<g id="node8" class="node">
<title>Node18</title>
<g id="a_node8"><a xlink:href="_sky_8h.html" target="_top" xlink:title="Sky.h">
<polygon fill="none" stroke="#000000" points="168.0652,-165.5 168.0652,-183.5 208.3376,-183.5 208.3376,-165.5 168.0652,-165.5"/>
<text text-anchor="middle" x="188.2014" y="-171.5" font-family="Helvetica,sans-Serif" font-size="10.00" fill="#000000">Sky.h</text>
</a>
</g>
</g>
<!-- Node0&#45;&gt;Node18 -->
<g id="edge10" class="edge">
<title>Node0&#45;&gt;Node18</title>
<path fill="none" stroke="#191970" d="M161.4959,-220.2808C166.3652,-211.9336 172.5636,-201.3076 177.7629,-192.3946"/>
<polygon fill="#191970" stroke="#191970" points="180.8868,-193.9856 182.9023,-183.5842 174.8403,-190.4584 180.8868,-193.9856"/>
</g>
<!-- Node19 -->
<g id="node9" class="node">
<title>Node19</title>
<g id="a_node9"><a xlink:href="_n_l2_2_info_2_version_8h.html" target="_top" xlink:title="Version.h">
<polygon fill="none" stroke="#000000" points="226.3518,-165.5 226.3518,-183.5 284.051,-183.5 284.051,-165.5 226.3518,-165.5"/>
<text text-anchor="middle" x="255.2014" y="-171.5" font-family="Helvetica,sans-Serif" font-size="10.00" fill="#000000">Version.h</text>
</a>
</g>
</g>
<!-- Node0&#45;&gt;Node19 -->
<g id="edge13" class="edge">
<title>Node0&#45;&gt;Node19</title>
<path fill="none" stroke="#191970" d="M177.1159,-220.4327C193.2609,-210.9356 214.5076,-198.4376 230.7617,-188.8763"/>
<polygon fill="#191970" stroke="#191970" points="232.8338,-191.7181 239.6786,-183.6311 229.2847,-185.6845 232.8338,-191.7181"/>
</g>
<!-- Node2 -->
<g id="node3" class="node">
<title>Node2</title>
<g id="a_node3"><a xlink:href="_file_8h.html" target="_top" xlink:title="../File/File.h">
<polygon fill="none" stroke="#ff0000" points="83.3616,-55.5 83.3616,-73.5 151.0412,-73.5 151.0412,-55.5 83.3616,-55.5"/>
<text text-anchor="middle" x="117.2014" y="-61.5" font-family="Helvetica,sans-Serif" font-size="10.00" fill="#000000">../File/File.h</text>
</a>
</g>
</g>
<!-- Node1&#45;&gt;Node2 -->
<g id="edge2" class="edge">
<title>Node1&#45;&gt;Node2</title>
<path fill="none" stroke="#191970" d="M118.0363,-110.4179C117.9053,-103.2164 117.7177,-92.8962 117.5535,-83.8632"/>
<polygon fill="#191970" stroke="#191970" points="121.0514,-83.7141 117.3701,-73.7795 114.0526,-83.8415 121.0514,-83.7141"/>
</g>
<!-- Node6 -->
<g id="node4" class="node">
<title>Node6</title>
<polygon fill="none" stroke="#bfbfbf" points="39.0808,-.5 39.0808,-18.5 87.322,-18.5 87.322,-.5 39.0808,-.5"/>
<text text-anchor="middle" x="63.2014" y="-6.5" font-family="Helvetica,sans-Serif" font-size="10.00" fill="#000000">stdint.h</text>
</g>
<!-- Node1&#45;&gt;Node6 -->
<g id="edge6" class="edge">
<title>Node1&#45;&gt;Node6</title>
<path fill="none" stroke="#191970" d="M65.6502,-111.9209C42.7742,-105.7248 18.0676,-94.4641 4.2014,-74 -8.685,-54.9819 14.2974,-35.9027 35.2352,-23.4844"/>
<polygon fill="#191970" stroke="#191970" points="36.959,-26.5305 43.9728,-18.5896 33.5379,-20.4235 36.959,-26.5305"/>
</g>
<!-- Node7 -->
<g id="node5" class="node">
<title>Node7</title>
<g id="a_node5"><a xlink:href="_nolimits_8h.html" target="_top" xlink:title="../Nolimits.h">
<polygon fill="none" stroke="#ff0000" points="164.0857,-.5 164.0857,-18.5 232.3171,-18.5 232.3171,-.5 164.0857,-.5"/>
<text text-anchor="middle" x="198.2014" y="-6.5" font-family="Helvetica,sans-Serif" font-size="10.00" fill="#000000">../Nolimits.h</text>
</a>
</g>
</g>
<!-- Node1&#45;&gt;Node7 -->
<g id="edge5" class="edge">
<title>Node1&#45;&gt;Node7</title>
<path fill="none" stroke="#191970" d="M127.8428,-110.2583C136.7923,-101.4133 150.2009,-87.4623 160.2014,-74 171.1947,-59.2013 181.6718,-41.0002 188.8297,-27.7104"/>
<polygon fill="#191970" stroke="#191970" points="192.0427,-29.1208 193.6101,-18.6426 185.8505,-25.8564 192.0427,-29.1208"/>
</g>
<!-- Node16 -->
<g id="node6" class="node">
<title>Node16</title>
<polygon fill="none" stroke="#bfbfbf" points="13.1399,-55.5 13.1399,-73.5 65.2629,-73.5 65.2629,-55.5 13.1399,-55.5"/>
<text text-anchor="middle" x="39.2014" y="-61.5" font-family="Helvetica,sans-Serif" font-size="10.00" fill="#000000">ostream</text>
</g>
<!-- Node1&#45;&gt;Node16 -->
<g id="edge7" class="edge">
<title>Node1&#45;&gt;Node16</title>
<path fill="none" stroke="#191970" d="M105.1562,-110.4179C93.0345,-101.9788 74.7614,-89.257 60.5207,-79.3426"/>
<polygon fill="#191970" stroke="#191970" points="62.4728,-76.4369 52.266,-73.5956 58.4732,-82.1818 62.4728,-76.4369"/>
</g>
<!-- Node2&#45;&gt;Node6 -->
<g id="edge3" class="edge">
<title>Node2&#45;&gt;Node6</title>
<path fill="none" stroke="#191970" d="M108.2844,-55.4179C100.4368,-47.425 88.8174,-35.5903 79.3403,-25.9377"/>
<polygon fill="#191970" stroke="#191970" points="81.8156,-23.463 72.3121,-18.7795 76.8206,-28.3672 81.8156,-23.463"/>
</g>
<!-- Node2&#45;&gt;Node7 -->
<g id="edge4" class="edge">
<title>Node2&#45;&gt;Node7</title>
<path fill="none" stroke="#191970" d="M130.5769,-55.4179C143.0054,-46.9788 161.7411,-34.257 176.3424,-24.3426"/>
<polygon fill="#191970" stroke="#191970" points="178.4991,-27.1088 184.806,-18.5956 174.5668,-21.3176 178.4991,-27.1088"/>
</g>
<!-- Node17&#45;&gt;Node1 -->
<g id="edge9" class="edge">
<title>Node17&#45;&gt;Node1</title>
<path fill="none" stroke="#191970" d="M119.0363,-165.4179C118.9053,-158.2164 118.7177,-147.8962 118.5535,-138.8632"/>
<polygon fill="#191970" stroke="#191970" points="122.0514,-138.7141 118.3701,-128.7795 115.0526,-138.8415 122.0514,-138.7141"/>
</g>
<!-- Node18&#45;&gt;Node1 -->
<g id="edge12" class="edge">
<title>Node18&#45;&gt;Node1</title>
<path fill="none" stroke="#191970" d="M176.6423,-165.4179C166.1674,-157.1876 150.5082,-144.8839 138.035,-135.0836"/>
<polygon fill="#191970" stroke="#191970" points="140.0372,-132.2056 130.0116,-128.7795 135.7124,-137.7098 140.0372,-132.2056"/>
</g>
<!-- Node18&#45;&gt;Node7 -->
<g id="edge11" class="edge">
<title>Node18&#45;&gt;Node7</title>
<path fill="none" stroke="#191970" d="M188.7677,-165.1561C190.3559,-138.9504 194.8768,-64.3557 197.0316,-28.8021"/>
<polygon fill="#191970" stroke="#191970" points="200.5299,-28.9348 197.6413,-18.7414 193.5427,-28.5113 200.5299,-28.9348"/>
</g>
<!-- Node19&#45;&gt;Node1 -->
<g id="edge16" class="edge">
<title>Node19&#45;&gt;Node1</title>
<path fill="none" stroke="#191970" d="M232.5786,-165.4179C210.1694,-156.4215 175.6369,-142.5581 150.3769,-132.4172"/>
<polygon fill="#191970" stroke="#191970" points="151.4418,-129.0732 140.8578,-128.5956 148.8339,-135.5693 151.4418,-129.0732"/>
</g>
<!-- Node19&#45;&gt;Node7 -->
<g id="edge14" class="edge">
<title>Node19&#45;&gt;Node7</title>
<path fill="none" stroke="#191970" d="M251.9735,-165.1561C242.8815,-138.837 216.9281,-63.709 204.7107,-28.3426"/>
<polygon fill="#191970" stroke="#191970" points="207.9673,-27.0505 201.3939,-18.7414 201.351,-29.3361 207.9673,-27.0505"/>
</g>
<!-- Node13 -->
<g id="node10" class="node">
<title>Node13</title>
<polygon fill="none" stroke="#bfbfbf" points="282.9748,-110.5 282.9748,-128.5 323.428,-128.5 323.428,-110.5 282.9748,-110.5"/>
<text text-anchor="middle" x="303.2014" y="-116.5" font-family="Helvetica,sans-Serif" font-size="10.00" fill="#000000">string</text>
</g>
<!-- Node19&#45;&gt;Node13 -->
<g id="edge15" class="edge">
<title>Node19&#45;&gt;Node13</title>
<path fill="none" stroke="#191970" d="M263.1276,-165.4179C269.9651,-157.5833 280.0239,-146.0575 288.3531,-136.5137"/>
<polygon fill="#191970" stroke="#191970" points="291.1646,-138.6151 295.103,-128.7795 285.8906,-134.0123 291.1646,-138.6151"/>
</g>
</g>
</svg>
