<?xml version="1.0" encoding="UTF-8" standalone="no"?>
<!DOCTYPE svg PUBLIC "-//W3C//DTD SVG 1.1//EN"
 "http://www.w3.org/Graphics/SVG/1.1/DTD/svg11.dtd">
<!-- Generated by graphviz version 2.40.1 (20161225.0304)
 -->
<!-- Title: libnolimits/NL1/Info/Info.h Pages: 1 -->
<svg width="301pt" height="167pt"
 viewBox="0.00 0.00 301.46 167.00" xmlns="http://www.w3.org/2000/svg" xmlns:xlink="http://www.w3.org/1999/xlink">
<g id="graph0" class="graph" transform="scale(1 1) rotate(0) translate(4 163)">
<title>libnolimits/NL1/Info/Info.h</title>
<!-- Node17 -->
<g id="node1" class="node">
<title>Node17</title>
<polygon fill="#bfbfbf" stroke="#000000" points="61,-130.5 61,-158.5 161.4824,-158.5 161.4824,-130.5 61,-130.5"/>
<text text-anchor="start" x="69" y="-146.5" font-family="Helvetica,sans-Serif" font-size="10.00" fill="#000000">libnolimits/NL1/Info</text>
<text text-anchor="middle" x="111.2412" y="-136.5" font-family="Helvetica,sans-Serif" font-size="10.00" fill="#000000">/Info.h</text>
</g>
<!-- Node18 -->
<g id="node2" class="node">
<title>Node18</title>
<g id="a_node2"><a xlink:href="_n_l1_2_info_2_info_8cpp.html" target="_top" xlink:title="libnolimits/NL1/Info\l/Info.cpp">
<polygon fill="none" stroke="#000000" points="0,-65.5 0,-93.5 100.4824,-93.5 100.4824,-65.5 0,-65.5"/>
<text text-anchor="start" x="8" y="-81.5" font-family="Helvetica,sans-Serif" font-size="10.00" fill="#000000">libnolimits/NL1/Info</text>
<text text-anchor="middle" x="50.2412" y="-71.5" font-family="Helvetica,sans-Serif" font-size="10.00" fill="#000000">/Info.cpp</text>
</a>
</g>
</g>
<!-- Node17&#45;&gt;Node18 -->
<g id="edge1" class="edge">
<title>Node17&#45;&gt;Node18</title>
<path fill="none" stroke="#191970" d="M91.087,-123.0243C81.9986,-113.3398 71.5198,-102.1739 63.4515,-93.5765"/>
<polygon fill="#191970" stroke="#191970" points="88.6098,-125.4992 98.0051,-130.396 93.7141,-120.709 88.6098,-125.4992"/>
</g>
<!-- Node19 -->
<g id="node3" class="node">
<title>Node19</title>
<g id="a_node3"><a xlink:href="_n_l1_2_track_2_track_8h.html" target="_top" xlink:title="libnolimits/NL1/Track\l/Track.h">
<polygon fill="none" stroke="#000000" points="118.0229,-65.5 118.0229,-93.5 226.4595,-93.5 226.4595,-65.5 118.0229,-65.5"/>
<text text-anchor="start" x="126.0229" y="-81.5" font-family="Helvetica,sans-Serif" font-size="10.00" fill="#000000">libnolimits/NL1/Track</text>
<text text-anchor="middle" x="172.2412" y="-71.5" font-family="Helvetica,sans-Serif" font-size="10.00" fill="#000000">/Track.h</text>
</a>
</g>
</g>
<!-- Node17&#45;&gt;Node19 -->
<g id="edge2" class="edge">
<title>Node17&#45;&gt;Node19</title>
<path fill="none" stroke="#191970" d="M131.3954,-123.0243C140.4838,-113.3398 150.9626,-102.1739 159.031,-93.5765"/>
<polygon fill="#191970" stroke="#191970" points="128.7683,-120.709 124.4773,-130.396 133.8726,-125.4992 128.7683,-120.709"/>
</g>
<!-- Node20 -->
<g id="node4" class="node">
<title>Node20</title>
<g id="a_node4"><a xlink:href="_no_limits_track_8h.html" target="_top" xlink:title="libnolimits/NL1/NoLimits\lTrack.h">
<polygon fill="none" stroke="#ff0000" points="43.8916,-.5 43.8916,-28.5 166.5908,-28.5 166.5908,-.5 43.8916,-.5"/>
<text text-anchor="start" x="51.8916" y="-16.5" font-family="Helvetica,sans-Serif" font-size="10.00" fill="#000000">libnolimits/NL1/NoLimits</text>
<text text-anchor="middle" x="105.2412" y="-6.5" font-family="Helvetica,sans-Serif" font-size="10.00" fill="#000000">Track.h</text>
</a>
</g>
</g>
<!-- Node19&#45;&gt;Node20 -->
<g id="edge3" class="edge">
<title>Node19&#45;&gt;Node20</title>
<path fill="none" stroke="#191970" d="M150.4007,-58.3115C140.3504,-48.5612 128.7005,-37.259 119.7508,-28.5765"/>
<polygon fill="#191970" stroke="#191970" points="148.0887,-60.9449 157.7032,-65.396 152.9629,-55.9207 148.0887,-60.9449"/>
</g>
<!-- Node22 -->
<g id="node5" class="node">
<title>Node22</title>
<g id="a_node5"><a xlink:href="_n_l1_2_track_2_track_8cpp.html" target="_top" xlink:title="libnolimits/NL1/Track\l/Track.cpp">
<polygon fill="none" stroke="#000000" points="185.0229,-.5 185.0229,-28.5 293.4595,-28.5 293.4595,-.5 185.0229,-.5"/>
<text text-anchor="start" x="193.0229" y="-16.5" font-family="Helvetica,sans-Serif" font-size="10.00" fill="#000000">libnolimits/NL1/Track</text>
<text text-anchor="middle" x="239.2412" y="-6.5" font-family="Helvetica,sans-Serif" font-size="10.00" fill="#000000">/Track.cpp</text>
</a>
</g>
</g>
<!-- Node19&#45;&gt;Node22 -->
<g id="edge4" class="edge">
<title>Node19&#45;&gt;Node22</title>
<path fill="none" stroke="#191970" d="M194.0817,-58.3115C204.132,-48.5612 215.7819,-37.259 224.7316,-28.5765"/>
<polygon fill="#191970" stroke="#191970" points="191.5195,-55.9207 186.7792,-65.396 196.3937,-60.9449 191.5195,-55.9207"/>
</g>
</g>
</svg>
