<?xml version="1.0" encoding="UTF-8" standalone="no"?>
<!DOCTYPE svg PUBLIC "-//W3C//DTD SVG 1.1//EN"
 "http://www.w3.org/Graphics/SVG/1.1/DTD/svg11.dtd">
<!-- Generated by graphviz version 2.40.1 (20161225.0304)
 -->
<!-- Title: libnolimits/NL1/NoLimitsTrack.h Pages: 1 -->
<svg width="343pt" height="312pt"
 viewBox="0.00 0.00 343.42 312.00" xmlns="http://www.w3.org/2000/svg" xmlns:xlink="http://www.w3.org/1999/xlink">
<g id="graph0" class="graph" transform="scale(1 1) rotate(0) translate(4 308)">
<title>libnolimits/NL1/NoLimitsTrack.h</title>
<!-- Node0 -->
<g id="node1" class="node">
<title>Node0</title>
<polygon fill="#bfbfbf" stroke="#000000" points="22.949,-275.5 22.949,-303.5 145.6482,-303.5 145.6482,-275.5 22.949,-275.5"/>
<text text-anchor="start" x="30.949" y="-291.5" font-family="Helvetica,sans-Serif" font-size="10.00" fill="#000000">libnolimits/NL1/NoLimits</text>
<text text-anchor="middle" x="84.2986" y="-281.5" font-family="Helvetica,sans-Serif" font-size="10.00" fill="#000000">Track.h</text>
</g>
<!-- Node1 -->
<g id="node2" class="node">
<title>Node1</title>
<polygon fill="none" stroke="#bfbfbf" points="60.2371,-55.5 60.2371,-73.5 112.3602,-73.5 112.3602,-55.5 60.2371,-55.5"/>
<text text-anchor="middle" x="86.2986" y="-61.5" font-family="Helvetica,sans-Serif" font-size="10.00" fill="#000000">ostream</text>
</g>
<!-- Node0&#45;&gt;Node1 -->
<g id="edge1" class="edge">
<title>Node0&#45;&gt;Node1</title>
<path fill="none" stroke="#191970" d="M63.9266,-275.3761C35.0585,-253.4583 -12.5804,-209.1635 3.2986,-165 15.9497,-129.8144 46.8475,-98.1812 67.167,-80.173"/>
<polygon fill="#191970" stroke="#191970" points="69.589,-82.7064 74.8879,-73.5319 65.0242,-77.3995 69.589,-82.7064"/>
</g>
<!-- Node2 -->
<g id="node3" class="node">
<title>Node2</title>
<g id="a_node3"><a xlink:href="_chunk_8h.html" target="_top" xlink:title="../Stream/Chunk.h">
<polygon fill="none" stroke="#000000" points="208.0032,-110.5 208.0032,-128.5 304.594,-128.5 304.594,-110.5 208.0032,-110.5"/>
<text text-anchor="middle" x="256.2986" y="-116.5" font-family="Helvetica,sans-Serif" font-size="10.00" fill="#000000">../Stream/Chunk.h</text>
</a>
</g>
</g>
<!-- Node0&#45;&gt;Node2 -->
<g id="edge2" class="edge">
<title>Node0&#45;&gt;Node2</title>
<path fill="none" stroke="#191970" d="M145.7629,-279.034C198.4488,-266.436 271.0903,-239.5775 305.2986,-184 316.321,-166.0921 297.7491,-147.0983 280.3947,-134.397"/>
<polygon fill="#191970" stroke="#191970" points="282.3313,-131.4811 272.108,-128.6996 278.3654,-137.2493 282.3313,-131.4811"/>
</g>
<!-- Node17 -->
<g id="node7" class="node">
<title>Node17</title>
<g id="a_node7"><a xlink:href="_n_l1_2_info_2_version_8h.html" target="_top" xlink:title="Info/Version.h">
<polygon fill="none" stroke="#000000" points="12.72,-165.5 12.72,-183.5 89.8772,-183.5 89.8772,-165.5 12.72,-165.5"/>
<text text-anchor="middle" x="51.2986" y="-171.5" font-family="Helvetica,sans-Serif" font-size="10.00" fill="#000000">Info/Version.h</text>
</a>
</g>
</g>
<!-- Node0&#45;&gt;Node17 -->
<g id="edge9" class="edge">
<title>Node0&#45;&gt;Node17</title>
<path fill="none" stroke="#191970" d="M80.2522,-275.3987C74.3388,-254.7914 63.3233,-216.4041 56.7164,-193.38"/>
<polygon fill="#191970" stroke="#191970" points="60.0694,-192.3753 53.9468,-183.7286 53.3409,-194.3061 60.0694,-192.3753"/>
</g>
<!-- Node18 -->
<g id="node9" class="node">
<title>Node18</title>
<g id="a_node9"><a xlink:href="_n_l1_2_track_2_track_8h.html" target="_top" xlink:title="Track/Track.h">
<polygon fill="none" stroke="#000000" points="111.1058,-220.5 111.1058,-238.5 187.4915,-238.5 187.4915,-220.5 111.1058,-220.5"/>
<text text-anchor="middle" x="149.2986" y="-226.5" font-family="Helvetica,sans-Serif" font-size="10.00" fill="#000000">Track/Track.h</text>
</a>
</g>
</g>
<!-- Node0&#45;&gt;Node18 -->
<g id="edge14" class="edge">
<title>Node0&#45;&gt;Node18</title>
<path fill="none" stroke="#191970" d="M99.7027,-275.2808C109.419,-266.312 121.9852,-254.7124 132.0373,-245.4335"/>
<polygon fill="#191970" stroke="#191970" points="134.4834,-247.9388 139.4574,-238.5842 129.7354,-242.7952 134.4834,-247.9388"/>
</g>
<!-- Node2&#45;&gt;Node1 -->
<g id="edge8" class="edge">
<title>Node2&#45;&gt;Node1</title>
<path fill="none" stroke="#191970" d="M228.2266,-110.4179C199.2086,-101.0297 153.8086,-86.3414 122.1973,-76.1143"/>
<polygon fill="#191970" stroke="#191970" points="123.0485,-72.7111 112.4566,-72.9629 120.8937,-79.3712 123.0485,-72.7111"/>
</g>
<!-- Node3 -->
<g id="node4" class="node">
<title>Node3</title>
<g id="a_node4"><a xlink:href="_file_8h.html" target="_top" xlink:title="../File/File.h">
<polygon fill="none" stroke="#ff0000" points="246.4588,-55.5 246.4588,-73.5 314.1385,-73.5 314.1385,-55.5 246.4588,-55.5"/>
<text text-anchor="middle" x="280.2986" y="-61.5" font-family="Helvetica,sans-Serif" font-size="10.00" fill="#000000">../File/File.h</text>
</a>
</g>
</g>
<!-- Node2&#45;&gt;Node3 -->
<g id="edge3" class="edge">
<title>Node2&#45;&gt;Node3</title>
<path fill="none" stroke="#191970" d="M260.2617,-110.4179C263.5078,-102.9789 268.206,-92.2123 272.2372,-82.9742"/>
<polygon fill="#191970" stroke="#191970" points="275.4578,-84.3447 276.2494,-73.7795 269.042,-81.545 275.4578,-84.3447"/>
</g>
<!-- Node7 -->
<g id="node5" class="node">
<title>Node7</title>
<polygon fill="none" stroke="#bfbfbf" points="287.178,-.5 287.178,-18.5 335.4192,-18.5 335.4192,-.5 287.178,-.5"/>
<text text-anchor="middle" x="311.2986" y="-6.5" font-family="Helvetica,sans-Serif" font-size="10.00" fill="#000000">stdint.h</text>
</g>
<!-- Node2&#45;&gt;Node7 -->
<g id="edge7" class="edge">
<title>Node2&#45;&gt;Node7</title>
<path fill="none" stroke="#191970" d="M279.7583,-110.498C295.1839,-103.2009 314.1504,-91.271 323.2986,-74 330.861,-59.7231 326.3591,-41.4656 320.8403,-28.0217"/>
<polygon fill="#191970" stroke="#191970" points="323.9671,-26.4439 316.6048,-18.8249 317.6089,-29.3721 323.9671,-26.4439"/>
</g>
<!-- Node8 -->
<g id="node6" class="node">
<title>Node8</title>
<g id="a_node6"><a xlink:href="_nolimits_8h.html" target="_top" xlink:title="../Nolimits.h">
<polygon fill="none" stroke="#ff0000" points="146.1829,-.5 146.1829,-18.5 214.4144,-18.5 214.4144,-.5 146.1829,-.5"/>
<text text-anchor="middle" x="180.2986" y="-6.5" font-family="Helvetica,sans-Serif" font-size="10.00" fill="#000000">../Nolimits.h</text>
</a>
</g>
</g>
<!-- Node2&#45;&gt;Node8 -->
<g id="edge6" class="edge">
<title>Node2&#45;&gt;Node8</title>
<path fill="none" stroke="#191970" d="M250.0792,-110.4982C237.4979,-92.2885 208.8318,-50.798 192.4238,-27.0496"/>
<polygon fill="#191970" stroke="#191970" points="195.1679,-24.8639 186.604,-18.6261 189.4088,-28.843 195.1679,-24.8639"/>
</g>
<!-- Node3&#45;&gt;Node7 -->
<g id="edge4" class="edge">
<title>Node3&#45;&gt;Node7</title>
<path fill="none" stroke="#191970" d="M285.4177,-55.4179C289.6551,-47.8998 295.8083,-36.9829 301.0518,-27.6799"/>
<polygon fill="#191970" stroke="#191970" points="304.2072,-29.2096 306.0684,-18.7795 298.1092,-25.7724 304.2072,-29.2096"/>
</g>
<!-- Node3&#45;&gt;Node8 -->
<g id="edge5" class="edge">
<title>Node3&#45;&gt;Node8</title>
<path fill="none" stroke="#191970" d="M263.7857,-55.4179C248.0076,-46.7399 223.9958,-33.5334 205.7671,-23.5077"/>
<polygon fill="#191970" stroke="#191970" points="207.285,-20.3481 196.8361,-18.5956 203.9116,-26.4816 207.285,-20.3481"/>
</g>
<!-- Node17&#45;&gt;Node1 -->
<g id="edge13" class="edge">
<title>Node17&#45;&gt;Node1</title>
<path fill="none" stroke="#191970" d="M52.6699,-165.143C54.6797,-152.4388 58.8959,-129.1239 65.2986,-110 68.4013,-100.733 72.8243,-90.8383 76.8116,-82.6509"/>
<polygon fill="#191970" stroke="#191970" points="79.9639,-84.1727 81.3411,-73.6678 73.7135,-81.0211 79.9639,-84.1727"/>
</g>
<!-- Node17&#45;&gt;Node2 -->
<g id="edge11" class="edge">
<title>Node17&#45;&gt;Node2</title>
<path fill="none" stroke="#191970" d="M85.1502,-165.4179C120.122,-156.0352 174.8257,-141.3586 212.9423,-131.1322"/>
<polygon fill="#191970" stroke="#191970" points="213.986,-134.476 222.7375,-128.5042 212.1721,-127.7151 213.986,-134.476"/>
</g>
<!-- Node17&#45;&gt;Node8 -->
<g id="edge10" class="edge">
<title>Node17&#45;&gt;Node8</title>
<path fill="none" stroke="#191970" d="M48.0672,-165.3581C41.0857,-143.8348 27.0903,-89.2087 51.2986,-55 61.4308,-40.6823 102.8217,-27.7383 136.0235,-19.3499"/>
<polygon fill="#191970" stroke="#191970" points="137.1433,-22.679 146.0209,-16.8964 135.4749,-15.8808 137.1433,-22.679"/>
</g>
<!-- Node14 -->
<g id="node8" class="node">
<title>Node14</title>
<polygon fill="none" stroke="#bfbfbf" points="74.0721,-110.5 74.0721,-128.5 114.5252,-128.5 114.5252,-110.5 74.0721,-110.5"/>
<text text-anchor="middle" x="94.2986" y="-116.5" font-family="Helvetica,sans-Serif" font-size="10.00" fill="#000000">string</text>
</g>
<!-- Node17&#45;&gt;Node14 -->
<g id="edge12" class="edge">
<title>Node17&#45;&gt;Node14</title>
<path fill="none" stroke="#191970" d="M58.3992,-165.4179C64.4626,-157.6624 73.3537,-146.29 80.7704,-136.8035"/>
<polygon fill="#191970" stroke="#191970" points="83.6419,-138.8133 87.0438,-128.7795 78.1272,-134.5018 83.6419,-138.8133"/>
</g>
<!-- Node18&#45;&gt;Node2 -->
<g id="edge16" class="edge">
<title>Node18&#45;&gt;Node2</title>
<path fill="none" stroke="#191970" d="M187.561,-222.1902C224.4172,-214.2794 276.3021,-200.5498 288.2986,-184 299.215,-168.9403 286.6306,-149.5966 274.1765,-136.0367"/>
<polygon fill="#191970" stroke="#191970" points="276.5511,-133.46 267.0374,-128.7973 271.5669,-138.3751 276.5511,-133.46"/>
</g>
<!-- Node18&#45;&gt;Node8 -->
<g id="edge15" class="edge">
<title>Node18&#45;&gt;Node8</title>
<path fill="none" stroke="#191970" d="M110.9272,-222.8189C72.1479,-215.193 16.1617,-201.4819 3.2986,-184 -1.706,-177.1983 1.9688,-173.3391 3.2986,-165 11.3997,-114.2014 2.8495,-91.2985 39.2986,-55 53.1261,-41.2296 100.0966,-27.7985 136.0638,-19.1421"/>
<polygon fill="#191970" stroke="#191970" points="136.9483,-22.5296 145.88,-16.8308 135.3439,-15.7159 136.9483,-22.5296"/>
</g>
<!-- Node18&#45;&gt;Node14 -->
<g id="edge24" class="edge">
<title>Node18&#45;&gt;Node14</title>
<path fill="none" stroke="#191970" d="M144.7978,-220.4982C135.7734,-202.4496 115.3139,-161.5306 103.3908,-137.6843"/>
<polygon fill="#191970" stroke="#191970" points="106.4644,-136.0052 98.8617,-128.6261 100.2034,-139.1357 106.4644,-136.0052"/>
</g>
<!-- Node19 -->
<g id="node10" class="node">
<title>Node19</title>
<g id="a_node10"><a xlink:href="_n_l1_2_info_2_info_8h.html" target="_top" xlink:title="../Info/Info.h">
<polygon fill="none" stroke="#000000" points="145.8924,-165.5 145.8924,-183.5 214.7049,-183.5 214.7049,-165.5 145.8924,-165.5"/>
<text text-anchor="middle" x="180.2986" y="-171.5" font-family="Helvetica,sans-Serif" font-size="10.00" fill="#000000">../Info/Info.h</text>
</a>
</g>
</g>
<!-- Node18&#45;&gt;Node19 -->
<g id="edge17" class="edge">
<title>Node18&#45;&gt;Node19</title>
<path fill="none" stroke="#191970" d="M154.4177,-220.4179C158.6551,-212.8998 164.8083,-201.9829 170.0518,-192.6799"/>
<polygon fill="#191970" stroke="#191970" points="173.2072,-194.2096 175.0684,-183.7795 167.1092,-190.7724 173.2072,-194.2096"/>
</g>
<!-- Node20 -->
<g id="node11" class="node">
<title>Node20</title>
<g id="a_node11"><a xlink:href="_n_l1_2_track_2_train_8h.html" target="_top" xlink:title="Train.h">
<polygon fill="none" stroke="#ff0000" points="232.9202,-165.5 232.9202,-183.5 279.677,-183.5 279.677,-165.5 232.9202,-165.5"/>
<text text-anchor="middle" x="256.2986" y="-171.5" font-family="Helvetica,sans-Serif" font-size="10.00" fill="#000000">Train.h</text>
</a>
</g>
</g>
<!-- Node18&#45;&gt;Node20 -->
<g id="edge22" class="edge">
<title>Node18&#45;&gt;Node20</title>
<path fill="none" stroke="#191970" d="M166.9675,-220.4179C184.0049,-211.6603 210.0148,-198.2907 229.5826,-188.2326"/>
<polygon fill="#191970" stroke="#191970" points="231.3097,-191.2801 238.6035,-183.5956 228.1096,-185.0544 231.3097,-191.2801"/>
</g>
<!-- Node19&#45;&gt;Node1 -->
<g id="edge21" class="edge">
<title>Node19&#45;&gt;Node1</title>
<path fill="none" stroke="#191970" d="M172.6062,-165.4982C156.9074,-147.1273 120.9606,-105.0619 100.7604,-81.4233"/>
<polygon fill="#191970" stroke="#191970" points="103.2547,-78.9547 94.0973,-73.6261 97.9331,-83.5023 103.2547,-78.9547"/>
</g>
<!-- Node19&#45;&gt;Node2 -->
<g id="edge19" class="edge">
<title>Node19&#45;&gt;Node2</title>
<path fill="none" stroke="#191970" d="M192.8485,-165.4179C204.3998,-157.0584 221.7578,-144.4966 235.4001,-134.6239"/>
<polygon fill="#191970" stroke="#191970" points="237.6809,-137.2938 243.7301,-128.5956 233.577,-131.6229 237.6809,-137.2938"/>
</g>
<!-- Node19&#45;&gt;Node8 -->
<g id="edge18" class="edge">
<title>Node19&#45;&gt;Node8</title>
<path fill="none" stroke="#191970" d="M180.2986,-165.1561C180.2986,-138.9504 180.2986,-64.3557 180.2986,-28.8021"/>
<polygon fill="#191970" stroke="#191970" points="183.7987,-28.7414 180.2986,-18.7414 176.7987,-28.7414 183.7987,-28.7414"/>
</g>
<!-- Node19&#45;&gt;Node14 -->
<g id="edge20" class="edge">
<title>Node19&#45;&gt;Node14</title>
<path fill="none" stroke="#191970" d="M166.0975,-165.4179C152.7773,-156.8992 132.6336,-144.0166 117.0694,-134.0627"/>
<polygon fill="#191970" stroke="#191970" points="118.8311,-131.0348 108.5209,-128.5956 115.0597,-136.932 118.8311,-131.0348"/>
</g>
<!-- Node20&#45;&gt;Node2 -->
<g id="edge23" class="edge">
<title>Node20&#45;&gt;Node2</title>
<path fill="none" stroke="#191970" d="M256.2986,-165.4179C256.2986,-158.2164 256.2986,-147.8962 256.2986,-138.8632"/>
<polygon fill="#191970" stroke="#191970" points="259.7987,-138.7794 256.2986,-128.7795 252.7987,-138.7795 259.7987,-138.7794"/>
</g>
</g>
</svg>
