<?xml version="1.0" encoding="UTF-8" standalone="no"?>
<!DOCTYPE svg PUBLIC "-//W3C//DTD SVG 1.1//EN"
 "http://www.w3.org/Graphics/SVG/1.1/DTD/svg11.dtd">
<!-- Generated by graphviz version 2.40.1 (20161225.0304)
 -->
<!-- Title: libnolimits/NL1/NoLimitsTrack.h Pages: 1 -->
<svg width="595pt" height="312pt"
 viewBox="0.00 0.00 594.51 312.00" xmlns="http://www.w3.org/2000/svg" xmlns:xlink="http://www.w3.org/1999/xlink">
<g id="graph0" class="graph" transform="scale(1 1) rotate(0) translate(4 308)">
<title>libnolimits/NL1/NoLimitsTrack.h</title>
<!-- Node0 -->
<g id="node1" class="node">
<title>Node0</title>
<polygon fill="#bfbfbf" stroke="#000000" points="327.6097,-275.5 327.6097,-303.5 450.3089,-303.5 450.3089,-275.5 327.6097,-275.5"/>
<text text-anchor="start" x="335.6097" y="-291.5" font-family="Helvetica,sans-Serif" font-size="10.00" fill="#000000">libnolimits/NL1/NoLimits</text>
<text text-anchor="middle" x="388.9593" y="-281.5" font-family="Helvetica,sans-Serif" font-size="10.00" fill="#000000">Track.h</text>
</g>
<!-- Node1 -->
<g id="node2" class="node">
<title>Node1</title>
<polygon fill="none" stroke="#bfbfbf" points="423.8978,-55.5 423.8978,-73.5 476.0208,-73.5 476.0208,-55.5 423.8978,-55.5"/>
<text text-anchor="middle" x="449.9593" y="-61.5" font-family="Helvetica,sans-Serif" font-size="10.00" fill="#000000">ostream</text>
</g>
<!-- Node0&#45;&gt;Node1 -->
<g id="edge1" class="edge">
<title>Node0&#45;&gt;Node1</title>
<path fill="none" stroke="#191970" d="M430.8929,-275.4511C469.9,-259.8804 525.6856,-230.6198 550.9593,-184 574.2919,-140.9609 514.7131,-99.2939 477.3995,-78.3986"/>
<polygon fill="#191970" stroke="#191970" points="478.9153,-75.239 468.4567,-73.5455 475.5765,-81.3915 478.9153,-75.239"/>
</g>
<!-- Node2 -->
<g id="node3" class="node">
<title>Node2</title>
<g id="a_node3"><a xlink:href="_chunk_8h.html" target="_top" xlink:title="../Stream/Chunk.h">
<polygon fill="none" stroke="#000000" points="184.6639,-110.5 184.6639,-128.5 281.2547,-128.5 281.2547,-110.5 184.6639,-110.5"/>
<text text-anchor="middle" x="232.9593" y="-116.5" font-family="Helvetica,sans-Serif" font-size="10.00" fill="#000000">../Stream/Chunk.h</text>
</a>
</g>
</g>
<!-- Node0&#45;&gt;Node2 -->
<g id="edge2" class="edge">
<title>Node0&#45;&gt;Node2</title>
<path fill="none" stroke="#191970" d="M327.5097,-281.7002C229.0754,-267.8045 43.1035,-235.3138 3.9593,-184 -1.1624,-177.286 -1.3985,-171.5271 3.9593,-165 25.1103,-139.2331 113.6192,-127.7939 174.1971,-122.908"/>
<polygon fill="#191970" stroke="#191970" points="174.7088,-126.3792 184.4117,-122.1244 174.1732,-119.3997 174.7088,-126.3792"/>
</g>
<!-- Node17 -->
<g id="node7" class="node">
<title>Node17</title>
<g id="a_node7"><a xlink:href="_n_l1_2_info_2_version_8h.html" target="_top" xlink:title="Info/Version.h">
<polygon fill="none" stroke="#000000" points="464.3807,-165.5 464.3807,-183.5 541.5379,-183.5 541.5379,-165.5 464.3807,-165.5"/>
<text text-anchor="middle" x="502.9593" y="-171.5" font-family="Helvetica,sans-Serif" font-size="10.00" fill="#000000">Info/Version.h</text>
</a>
</g>
</g>
<!-- Node0&#45;&gt;Node17 -->
<g id="edge9" class="edge">
<title>Node0&#45;&gt;Node17</title>
<path fill="none" stroke="#191970" d="M402.938,-275.3987C424.1056,-254.0455 464.1977,-213.6017 486.6606,-190.9417"/>
<polygon fill="#191970" stroke="#191970" points="489.2564,-193.2946 493.8109,-183.7286 484.2851,-188.3665 489.2564,-193.2946"/>
</g>
<!-- Node18 -->
<g id="node9" class="node">
<title>Node18</title>
<g id="a_node9"><a xlink:href="_n_l1_2_track_2_track_8h.html" target="_top" xlink:title="Track/Track.h">
<polygon fill="none" stroke="#000000" points="236.7664,-220.5 236.7664,-238.5 313.1522,-238.5 313.1522,-220.5 236.7664,-220.5"/>
<text text-anchor="middle" x="274.9593" y="-226.5" font-family="Helvetica,sans-Serif" font-size="10.00" fill="#000000">Track/Track.h</text>
</a>
</g>
</g>
<!-- Node0&#45;&gt;Node18 -->
<g id="edge14" class="edge">
<title>Node0&#45;&gt;Node18</title>
<path fill="none" stroke="#191970" d="M362.2314,-275.4327C343.8497,-265.7581 319.551,-252.9693 301.2616,-243.3433"/>
<polygon fill="#191970" stroke="#191970" points="302.7877,-240.1914 292.3083,-238.6311 299.5274,-246.3858 302.7877,-240.1914"/>
</g>
<!-- Node2&#45;&gt;Node1 -->
<g id="edge8" class="edge">
<title>Node2&#45;&gt;Node1</title>
<path fill="none" stroke="#191970" d="M268.7925,-110.4179C308.8801,-100.2574 373.4611,-83.889 413.7152,-73.6863"/>
<polygon fill="#191970" stroke="#191970" points="414.8087,-77.0199 423.6422,-71.1702 413.0888,-70.2345 414.8087,-77.0199"/>
</g>
<!-- Node3 -->
<g id="node4" class="node">
<title>Node3</title>
<g id="a_node4"><a xlink:href="_file_8h.html" target="_top" xlink:title="../File/File.h">
<polygon fill="none" stroke="#ff0000" points="230.1195,-55.5 230.1195,-73.5 297.7992,-73.5 297.7992,-55.5 230.1195,-55.5"/>
<text text-anchor="middle" x="263.9593" y="-61.5" font-family="Helvetica,sans-Serif" font-size="10.00" fill="#000000">../File/File.h</text>
</a>
</g>
</g>
<!-- Node2&#45;&gt;Node3 -->
<g id="edge3" class="edge">
<title>Node2&#45;&gt;Node3</title>
<path fill="none" stroke="#191970" d="M238.0783,-110.4179C242.3158,-102.8998 248.469,-91.9829 253.7125,-82.6799"/>
<polygon fill="#191970" stroke="#191970" points="256.8679,-84.2096 258.7291,-73.7795 250.7699,-80.7724 256.8679,-84.2096"/>
</g>
<!-- Node7 -->
<g id="node5" class="node">
<title>Node7</title>
<polygon fill="none" stroke="#bfbfbf" points="208.8387,-.5 208.8387,-18.5 257.0799,-18.5 257.0799,-.5 208.8387,-.5"/>
<text text-anchor="middle" x="232.9593" y="-6.5" font-family="Helvetica,sans-Serif" font-size="10.00" fill="#000000">stdint.h</text>
</g>
<!-- Node2&#45;&gt;Node7 -->
<g id="edge7" class="edge">
<title>Node2&#45;&gt;Node7</title>
<path fill="none" stroke="#191970" d="M229.421,-110.3645C225.0203,-97.9114 218.3818,-74.8801 220.9593,-55 222.1133,-46.0996 224.4867,-36.459 226.8205,-28.3525"/>
<polygon fill="#191970" stroke="#191970" points="230.1731,-29.3576 229.7597,-18.7708 223.4809,-27.3047 230.1731,-29.3576"/>
</g>
<!-- Node8 -->
<g id="node6" class="node">
<title>Node8</title>
<g id="a_node6"><a xlink:href="_nolimits_8h.html" target="_top" xlink:title="../Nolimits.h">
<polygon fill="none" stroke="#ff0000" points="329.8436,-.5 329.8436,-18.5 398.075,-18.5 398.075,-.5 329.8436,-.5"/>
<text text-anchor="middle" x="363.9593" y="-6.5" font-family="Helvetica,sans-Serif" font-size="10.00" fill="#000000">../Nolimits.h</text>
</a>
</g>
</g>
<!-- Node2&#45;&gt;Node8 -->
<g id="edge6" class="edge">
<title>Node2&#45;&gt;Node8</title>
<path fill="none" stroke="#191970" d="M250.988,-110.378C266.6158,-102.0275 289.4139,-88.7532 306.9593,-74 323.8479,-59.7991 340.2171,-40.5221 351.0475,-26.749"/>
<polygon fill="#191970" stroke="#191970" points="353.9918,-28.6618 357.3146,-18.6015 348.4434,-24.3939 353.9918,-28.6618"/>
</g>
<!-- Node3&#45;&gt;Node7 -->
<g id="edge4" class="edge">
<title>Node3&#45;&gt;Node7</title>
<path fill="none" stroke="#191970" d="M258.8403,-55.4179C254.6028,-47.8998 248.4497,-36.9829 243.2061,-27.6799"/>
<polygon fill="#191970" stroke="#191970" points="246.1488,-25.7724 238.1896,-18.7795 240.0507,-29.2096 246.1488,-25.7724"/>
</g>
<!-- Node3&#45;&gt;Node8 -->
<g id="edge5" class="edge">
<title>Node3&#45;&gt;Node8</title>
<path fill="none" stroke="#191970" d="M280.4723,-55.4179C296.2504,-46.7399 320.2622,-33.5334 338.4908,-23.5077"/>
<polygon fill="#191970" stroke="#191970" points="340.3464,-26.4816 347.4218,-18.5956 336.9729,-20.3481 340.3464,-26.4816"/>
</g>
<!-- Node17&#45;&gt;Node1 -->
<g id="edge13" class="edge">
<title>Node17&#45;&gt;Node1</title>
<path fill="none" stroke="#191970" d="M500.2722,-165.4879C496.3371,-152.7853 488.4358,-129.0394 478.9593,-110 474.1677,-100.3731 467.842,-90.2307 462.3216,-81.971"/>
<polygon fill="#191970" stroke="#191970" points="465.1013,-79.836 456.5557,-73.5733 459.3306,-83.7983 465.1013,-79.836"/>
</g>
<!-- Node17&#45;&gt;Node2 -->
<g id="edge11" class="edge">
<title>Node17&#45;&gt;Node2</title>
<path fill="none" stroke="#191970" d="M464.2749,-166.6198C417.8364,-157.1602 339.6711,-141.2376 287.2159,-130.5523"/>
<polygon fill="#191970" stroke="#191970" points="287.907,-127.1212 277.4096,-128.5547 286.5097,-133.9804 287.907,-127.1212"/>
</g>
<!-- Node17&#45;&gt;Node8 -->
<g id="edge10" class="edge">
<title>Node17&#45;&gt;Node8</title>
<path fill="none" stroke="#191970" d="M504.5463,-165.3974C507.8125,-143.4812 512.817,-87.2165 484.9593,-55 465.6499,-32.6693 434.2379,-21.274 408.2585,-15.472"/>
<polygon fill="#191970" stroke="#191970" points="408.7365,-11.9979 398.2409,-13.4447 407.348,-18.8588 408.7365,-11.9979"/>
</g>
<!-- Node14 -->
<g id="node8" class="node">
<title>Node14</title>
<polygon fill="none" stroke="#bfbfbf" points="429.7328,-110.5 429.7328,-128.5 470.1859,-128.5 470.1859,-110.5 429.7328,-110.5"/>
<text text-anchor="middle" x="449.9593" y="-116.5" font-family="Helvetica,sans-Serif" font-size="10.00" fill="#000000">string</text>
</g>
<!-- Node17&#45;&gt;Node14 -->
<g id="edge12" class="edge">
<title>Node17&#45;&gt;Node14</title>
<path fill="none" stroke="#191970" d="M494.2074,-165.4179C486.5815,-157.5041 475.3264,-145.8243 466.0762,-136.2251"/>
<polygon fill="#191970" stroke="#191970" points="468.3606,-133.5516 458.9013,-128.7795 463.32,-138.4089 468.3606,-133.5516"/>
</g>
<!-- Node18&#45;&gt;Node2 -->
<g id="edge16" class="edge">
<title>Node18&#45;&gt;Node2</title>
<path fill="none" stroke="#191970" d="M236.6631,-228.6837C170.7596,-226.3815 40.2353,-217.5878 11.9593,-184 6.5209,-177.5399 6.6241,-171.5455 11.9593,-165 32.0966,-140.2944 115.9315,-128.6126 174.3469,-123.3799"/>
<polygon fill="#191970" stroke="#191970" points="174.9092,-126.8446 184.5748,-122.5056 174.313,-119.8701 174.9092,-126.8446"/>
</g>
<!-- Node18&#45;&gt;Node8 -->
<g id="edge15" class="edge">
<title>Node18&#45;&gt;Node8</title>
<path fill="none" stroke="#191970" d="M313.2814,-225.9188C385.4642,-218.7847 535.7389,-201.935 550.9593,-184 586.2226,-142.4474 630.6995,-176.5213 484.9593,-55 462.9164,-36.6201 432.7021,-25.2492 407.9808,-18.4712"/>
<polygon fill="#191970" stroke="#191970" points="408.6685,-15.0341 398.1112,-15.9248 406.9197,-21.8121 408.6685,-15.0341"/>
</g>
<!-- Node18&#45;&gt;Node14 -->
<g id="edge30" class="edge">
<title>Node18&#45;&gt;Node14</title>
<path fill="none" stroke="#191970" d="M313.2338,-225.3831C344.2768,-220.2839 387.557,-208.9664 416.9593,-184 430.8651,-172.1922 439.6063,-153.0618 444.5716,-138.6954"/>
<polygon fill="#191970" stroke="#191970" points="448.0099,-139.4271 447.6556,-128.8382 441.3293,-137.3369 448.0099,-139.4271"/>
</g>
<!-- Node19 -->
<g id="node10" class="node">
<title>Node19</title>
<g id="a_node10"><a xlink:href="_n_l1_2_info_2_info_8h.html" target="_top" xlink:title="../Info/Info.h">
<polygon fill="none" stroke="#000000" points="339.5531,-165.5 339.5531,-183.5 408.3656,-183.5 408.3656,-165.5 339.5531,-165.5"/>
<text text-anchor="middle" x="373.9593" y="-171.5" font-family="Helvetica,sans-Serif" font-size="10.00" fill="#000000">../Info/Info.h</text>
</a>
</g>
</g>
<!-- Node18&#45;&gt;Node19 -->
<g id="edge17" class="edge">
<title>Node18&#45;&gt;Node19</title>
<path fill="none" stroke="#191970" d="M291.3072,-220.4179C306.9275,-211.7399 330.6991,-198.5334 348.7455,-188.5077"/>
<polygon fill="#191970" stroke="#191970" points="350.5454,-191.5117 357.5872,-183.5956 347.1458,-185.3925 350.5454,-191.5117"/>
</g>
<!-- Node20 -->
<g id="node11" class="node">
<title>Node20</title>
<g id="a_node11"><a xlink:href="_n_l1_2_track_2_train_8h.html" target="_top" xlink:title="Train.h">
<polygon fill="none" stroke="#ff0000" points="20.5809,-165.5 20.5809,-183.5 67.3377,-183.5 67.3377,-165.5 20.5809,-165.5"/>
<text text-anchor="middle" x="43.9593" y="-171.5" font-family="Helvetica,sans-Serif" font-size="10.00" fill="#000000">Train.h</text>
</a>
</g>
</g>
<!-- Node18&#45;&gt;Node20 -->
<g id="edge22" class="edge">
<title>Node18&#45;&gt;Node20</title>
<path fill="none" stroke="#191970" d="M236.4814,-221.3079C198.5064,-213.0787 138.5818,-199.7084 77.2109,-183.9532"/>
<polygon fill="#191970" stroke="#191970" points="77.9097,-180.5188 67.352,-181.4045 76.1577,-187.296 77.9097,-180.5188"/>
</g>
<!-- Node23 -->
<g id="node12" class="node">
<title>Node23</title>
<g id="a_node12"><a xlink:href="_n_l1_2_track_2_vertex_8h.html" target="_top" xlink:title="Vertex.h">
<polygon fill="none" stroke="#000000" points="85.6121,-165.5 85.6121,-183.5 138.3065,-183.5 138.3065,-165.5 85.6121,-165.5"/>
<text text-anchor="middle" x="111.9593" y="-171.5" font-family="Helvetica,sans-Serif" font-size="10.00" fill="#000000">Vertex.h</text>
</a>
</g>
</g>
<!-- Node18&#45;&gt;Node23 -->
<g id="edge24" class="edge">
<title>Node18&#45;&gt;Node23</title>
<path fill="none" stroke="#191970" d="M248.0432,-220.4179C220.7467,-211.2074 178.3317,-196.8956 148.1149,-186.6997"/>
<polygon fill="#191970" stroke="#191970" points="148.9688,-183.294 138.3746,-183.4131 146.7307,-189.9266 148.9688,-183.294"/>
</g>
<!-- Node24 -->
<g id="node13" class="node">
<title>Node24</title>
<g id="a_node13"><a xlink:href="_n_l1_2_track_2_colors_8h.html" target="_top" xlink:title="Colors.h">
<polygon fill="none" stroke="#000000" points="156.3412,-165.5 156.3412,-183.5 209.5775,-183.5 209.5775,-165.5 156.3412,-165.5"/>
<text text-anchor="middle" x="182.9593" y="-171.5" font-family="Helvetica,sans-Serif" font-size="10.00" fill="#000000">Colors.h</text>
</a>
</g>
</g>
<!-- Node18&#45;&gt;Node24 -->
<g id="edge26" class="edge">
<title>Node18&#45;&gt;Node24</title>
<path fill="none" stroke="#191970" d="M259.7674,-220.4179C245.3847,-211.8195 223.5654,-198.7754 206.8533,-188.7844"/>
<polygon fill="#191970" stroke="#191970" points="208.5529,-185.7228 198.1738,-183.5956 204.961,-191.731 208.5529,-185.7228"/>
</g>
<!-- Node25 -->
<g id="node14" class="node">
<title>Node25</title>
<g id="a_node14"><a xlink:href="_n_l1_2_track_2_section_2_section_8h.html" target="_top" xlink:title="Section/Section.h">
<polygon fill="none" stroke="#000000" points="228.0457,-165.5 228.0457,-183.5 321.8729,-183.5 321.8729,-165.5 228.0457,-165.5"/>
<text text-anchor="middle" x="274.9593" y="-171.5" font-family="Helvetica,sans-Serif" font-size="10.00" fill="#000000">Section/Section.h</text>
</a>
</g>
</g>
<!-- Node18&#45;&gt;Node25 -->
<g id="edge28" class="edge">
<title>Node18&#45;&gt;Node25</title>
<path fill="none" stroke="#191970" d="M274.9593,-220.4179C274.9593,-213.2164 274.9593,-202.8962 274.9593,-193.8632"/>
<polygon fill="#191970" stroke="#191970" points="278.4594,-193.7794 274.9593,-183.7795 271.4594,-193.7795 278.4594,-193.7794"/>
</g>
<!-- Node19&#45;&gt;Node1 -->
<g id="edge21" class="edge">
<title>Node19&#45;&gt;Node1</title>
<path fill="none" stroke="#191970" d="M380.1787,-165.4982C392.76,-147.2885 421.4261,-105.798 437.8341,-82.0496"/>
<polygon fill="#191970" stroke="#191970" points="440.8492,-83.843 443.654,-73.6261 435.0901,-79.8639 440.8492,-83.843"/>
</g>
<!-- Node19&#45;&gt;Node2 -->
<g id="edge19" class="edge">
<title>Node19&#45;&gt;Node2</title>
<path fill="none" stroke="#191970" d="M350.676,-165.4179C327.5105,-156.3817 291.757,-142.4353 265.7297,-132.2828"/>
<polygon fill="#191970" stroke="#191970" points="266.8654,-128.969 256.2772,-128.5956 264.3216,-135.4904 266.8654,-128.969"/>
</g>
<!-- Node19&#45;&gt;Node8 -->
<g id="edge18" class="edge">
<title>Node19&#45;&gt;Node8</title>
<path fill="none" stroke="#191970" d="M373.393,-165.1561C371.8048,-138.9504 367.2839,-64.3557 365.1291,-28.8021"/>
<polygon fill="#191970" stroke="#191970" points="368.618,-28.5113 364.5194,-18.7414 361.6309,-28.9348 368.618,-28.5113"/>
</g>
<!-- Node19&#45;&gt;Node14 -->
<g id="edge20" class="edge">
<title>Node19&#45;&gt;Node14</title>
<path fill="none" stroke="#191970" d="M386.5092,-165.4179C398.0605,-157.0584 415.4185,-144.4966 429.0608,-134.6239"/>
<polygon fill="#191970" stroke="#191970" points="431.3416,-137.2938 437.3908,-128.5956 427.2377,-131.6229 431.3416,-137.2938"/>
</g>
<!-- Node20&#45;&gt;Node2 -->
<g id="edge23" class="edge">
<title>Node20&#45;&gt;Node2</title>
<path fill="none" stroke="#191970" d="M67.5142,-167.6454C98.6713,-158.5785 154.0761,-142.4554 192.1223,-131.3838"/>
<polygon fill="#191970" stroke="#191970" points="193.2526,-134.7001 201.8764,-128.5453 191.2967,-127.9789 193.2526,-134.7001"/>
</g>
<!-- Node23&#45;&gt;Node2 -->
<g id="edge25" class="edge">
<title>Node23&#45;&gt;Node2</title>
<path fill="none" stroke="#191970" d="M131.94,-165.4179C151.4694,-156.5409 181.4238,-142.9253 203.6488,-132.823"/>
<polygon fill="#191970" stroke="#191970" points="205.2936,-135.92 212.9489,-128.5956 202.3969,-129.5474 205.2936,-135.92"/>
</g>
<!-- Node24&#45;&gt;Node2 -->
<g id="edge27" class="edge">
<title>Node24&#45;&gt;Node2</title>
<path fill="none" stroke="#191970" d="M191.2158,-165.4179C198.4101,-157.5041 209.0281,-145.8243 217.7547,-136.2251"/>
<polygon fill="#191970" stroke="#191970" points="220.3865,-138.5332 224.5234,-128.7795 215.2069,-133.8245 220.3865,-138.5332"/>
</g>
<!-- Node25&#45;&gt;Node2 -->
<g id="edge29" class="edge">
<title>Node25&#45;&gt;Node2</title>
<path fill="none" stroke="#191970" d="M268.0239,-165.4179C262.1015,-157.6624 253.4171,-146.29 246.1729,-136.8035"/>
<polygon fill="#191970" stroke="#191970" points="248.8963,-134.6029 240.0454,-128.7795 243.3329,-138.8514 248.8963,-134.6029"/>
</g>
</g>
</svg>
