<?xml version="1.0" encoding="UTF-8" standalone="no"?>
<!DOCTYPE svg PUBLIC "-//W3C//DTD SVG 1.1//EN"
 "http://www.w3.org/Graphics/SVG/1.1/DTD/svg11.dtd">
<!-- Generated by graphviz version 2.40.1 (20161225.0304)
 -->
<!-- Title: libnolimits/NL1/NoLimitsTrack.cpp Pages: 1 -->
<svg width="447pt" height="257pt"
 viewBox="0.00 0.00 447.01 257.00" xmlns="http://www.w3.org/2000/svg" xmlns:xlink="http://www.w3.org/1999/xlink">
<g id="graph0" class="graph" transform="scale(1 1) rotate(0) translate(4 253)">
<title>libnolimits/NL1/NoLimitsTrack.cpp</title>
<!-- Node0 -->
<g id="node1" class="node">
<title>Node0</title>
<polygon fill="#bfbfbf" stroke="#000000" points="234.7119,-220.5 234.7119,-248.5 357.4111,-248.5 357.4111,-220.5 234.7119,-220.5"/>
<text text-anchor="start" x="242.7119" y="-236.5" font-family="Helvetica,sans-Serif" font-size="10.00" fill="#000000">libnolimits/NL1/NoLimits</text>
<text text-anchor="middle" x="296.0615" y="-226.5" font-family="Helvetica,sans-Serif" font-size="10.00" fill="#000000">Track.cpp</text>
</g>
<!-- Node1 -->
<g id="node2" class="node">
<title>Node1</title>
<g id="a_node2"><a xlink:href="_no_limits_track_8h.html" target="_top" xlink:title="NoLimitsTrack.h">
<polygon fill="none" stroke="#000000" points="49.1265,-165.5 49.1265,-183.5 136.9966,-183.5 136.9966,-165.5 49.1265,-165.5"/>
<text text-anchor="middle" x="93.0615" y="-171.5" font-family="Helvetica,sans-Serif" font-size="10.00" fill="#000000">NoLimitsTrack.h</text>
</a>
</g>
</g>
<!-- Node0&#45;&gt;Node1 -->
<g id="edge1" class="edge">
<title>Node0&#45;&gt;Node1</title>
<path fill="none" stroke="#191970" d="M248.467,-220.4327C213.5265,-210.1054 166.5798,-196.2295 133.4591,-186.4402"/>
<polygon fill="#191970" stroke="#191970" points="134.2347,-183.0198 123.6527,-183.5417 132.2505,-189.7327 134.2347,-183.0198"/>
</g>
<!-- Node27 -->
<g id="node9" class="node">
<title>Node27</title>
<g id="a_node9"><a xlink:href="_normal_file_8h.html" target="_top" xlink:title="../File/NormalFile.h">
<polygon fill="none" stroke="#000000" points="339.1084,-165.5 339.1084,-183.5 439.0146,-183.5 439.0146,-165.5 339.1084,-165.5"/>
<text text-anchor="middle" x="389.0615" y="-171.5" font-family="Helvetica,sans-Serif" font-size="10.00" fill="#000000">../File/NormalFile.h</text>
</a>
</g>
</g>
<!-- Node0&#45;&gt;Node27 -->
<g id="edge13" class="edge">
<title>Node0&#45;&gt;Node27</title>
<path fill="none" stroke="#191970" d="M318.1012,-220.2808C332.6912,-210.868 351.7724,-198.5575 366.4731,-189.0732"/>
<polygon fill="#191970" stroke="#191970" points="368.4755,-191.9465 374.981,-183.5842 364.6806,-186.0645 368.4755,-191.9465"/>
</g>
<!-- Node29 -->
<g id="node11" class="node">
<title>Node29</title>
<g id="a_node11"><a xlink:href="_memory_file_8h.html" target="_top" xlink:title="../File/MemoryFile.h">
<polygon fill="none" stroke="#000000" points="244.165,-110.5 244.165,-128.5 347.958,-128.5 347.958,-110.5 244.165,-110.5"/>
<text text-anchor="middle" x="296.0615" y="-116.5" font-family="Helvetica,sans-Serif" font-size="10.00" fill="#000000">../File/MemoryFile.h</text>
</a>
</g>
</g>
<!-- Node0&#45;&gt;Node29 -->
<g id="edge16" class="edge">
<title>Node0&#45;&gt;Node29</title>
<path fill="none" stroke="#191970" d="M296.0615,-220.3987C296.0615,-199.9779 296.0615,-162.0975 296.0615,-139.0089"/>
<polygon fill="#191970" stroke="#191970" points="299.5616,-138.7286 296.0615,-128.7286 292.5616,-138.7287 299.5616,-138.7286"/>
</g>
<!-- Node2 -->
<g id="node3" class="node">
<title>Node2</title>
<polygon fill="none" stroke="#bfbfbf" points="0,-.5 0,-18.5 52.123,-18.5 52.123,-.5 0,-.5"/>
<text text-anchor="middle" x="26.0615" y="-6.5" font-family="Helvetica,sans-Serif" font-size="10.00" fill="#000000">ostream</text>
</g>
<!-- Node1&#45;&gt;Node2 -->
<g id="edge2" class="edge">
<title>Node1&#45;&gt;Node2</title>
<path fill="none" stroke="#191970" d="M76.6386,-165.4277C64.0842,-157.5456 47.537,-144.9037 39.0615,-129 22.0309,-97.0431 22.1148,-53.5061 23.9367,-28.7691"/>
<polygon fill="#191970" stroke="#191970" points="27.4458,-28.8289 24.8721,-18.5515 20.475,-28.1908 27.4458,-28.8289"/>
</g>
<!-- Node3 -->
<g id="node4" class="node">
<title>Node3</title>
<g id="a_node4"><a xlink:href="_chunk_8h.html" target="_top" xlink:title="../Stream/Chunk.h">
<polygon fill="none" stroke="#ff0000" points="53.7661,-55.5 53.7661,-73.5 150.3569,-73.5 150.3569,-55.5 53.7661,-55.5"/>
<text text-anchor="middle" x="102.0615" y="-61.5" font-family="Helvetica,sans-Serif" font-size="10.00" fill="#000000">../Stream/Chunk.h</text>
</a>
</g>
</g>
<!-- Node1&#45;&gt;Node3 -->
<g id="edge3" class="edge">
<title>Node1&#45;&gt;Node3</title>
<path fill="none" stroke="#191970" d="M77.8939,-165.418C60.1915,-153.5653 34.5892,-131.7591 45.0615,-110 51.3008,-97.0361 63.2306,-86.6167 74.5702,-79.0369"/>
<polygon fill="#191970" stroke="#191970" points="76.749,-81.8051 83.4179,-73.5725 73.0706,-75.8494 76.749,-81.8051"/>
</g>
<!-- Node18 -->
<g id="node6" class="node">
<title>Node18</title>
<g id="a_node6"><a xlink:href="_n_l1_2_info_2_version_8h.html" target="_top" xlink:title="Info/Version.h">
<polygon fill="none" stroke="#ff0000" points="54.4829,-110.5 54.4829,-128.5 131.6401,-128.5 131.6401,-110.5 54.4829,-110.5"/>
<text text-anchor="middle" x="93.0615" y="-116.5" font-family="Helvetica,sans-Serif" font-size="10.00" fill="#000000">Info/Version.h</text>
</a>
</g>
</g>
<!-- Node1&#45;&gt;Node18 -->
<g id="edge6" class="edge">
<title>Node1&#45;&gt;Node18</title>
<path fill="none" stroke="#191970" d="M93.0615,-165.4179C93.0615,-158.2164 93.0615,-147.8962 93.0615,-138.8632"/>
<polygon fill="#191970" stroke="#191970" points="96.5616,-138.7794 93.0615,-128.7795 89.5616,-138.7795 96.5616,-138.7794"/>
</g>
<!-- Node19 -->
<g id="node8" class="node">
<title>Node19</title>
<g id="a_node8"><a xlink:href="_n_l1_2_track_2_track_8h.html" target="_top" xlink:title="Track/Track.h">
<polygon fill="none" stroke="#ff0000" points="149.8687,-110.5 149.8687,-128.5 226.2544,-128.5 226.2544,-110.5 149.8687,-110.5"/>
<text text-anchor="middle" x="188.0615" y="-116.5" font-family="Helvetica,sans-Serif" font-size="10.00" fill="#000000">Track/Track.h</text>
</a>
</g>
</g>
<!-- Node1&#45;&gt;Node19 -->
<g id="edge10" class="edge">
<title>Node1&#45;&gt;Node19</title>
<path fill="none" stroke="#191970" d="M108.7488,-165.4179C123.6005,-156.8195 146.1313,-143.7754 163.3884,-133.7844"/>
<polygon fill="#191970" stroke="#191970" points="165.4503,-136.635 172.3509,-128.5956 161.943,-130.577 165.4503,-136.635"/>
</g>
<!-- Node3&#45;&gt;Node2 -->
<g id="edge5" class="edge">
<title>Node3&#45;&gt;Node2</title>
<path fill="none" stroke="#191970" d="M89.5117,-55.4179C77.9604,-47.0584 60.6023,-34.4966 46.96,-24.6239"/>
<polygon fill="#191970" stroke="#191970" points="48.7832,-21.6229 38.63,-18.5956 44.6793,-27.2938 48.7832,-21.6229"/>
</g>
<!-- Node4 -->
<g id="node5" class="node">
<title>Node4</title>
<g id="a_node5"><a xlink:href="_file_8h.html" target="_top" xlink:title="../File/File.h">
<polygon fill="none" stroke="#ff0000" points="262.2217,-.5 262.2217,-18.5 329.9014,-18.5 329.9014,-.5 262.2217,-.5"/>
<text text-anchor="middle" x="296.0615" y="-6.5" font-family="Helvetica,sans-Serif" font-size="10.00" fill="#000000">../File/File.h</text>
</a>
</g>
</g>
<!-- Node3&#45;&gt;Node4 -->
<g id="edge4" class="edge">
<title>Node3&#45;&gt;Node4</title>
<path fill="none" stroke="#191970" d="M134.0967,-55.4179C167.0511,-46.0751 218.52,-31.4834 254.5703,-21.263"/>
<polygon fill="#191970" stroke="#191970" points="255.6351,-24.5991 264.3012,-18.5042 253.7257,-17.8645 255.6351,-24.5991"/>
</g>
<!-- Node18&#45;&gt;Node2 -->
<g id="edge9" class="edge">
<title>Node18&#45;&gt;Node2</title>
<path fill="none" stroke="#191970" d="M80.244,-110.4436C69.387,-102.1351 54.1736,-88.8856 45.0615,-74 36.5861,-60.1545 31.712,-42.3184 29.0277,-28.9128"/>
<polygon fill="#191970" stroke="#191970" points="32.4417,-28.1184 27.2569,-18.8789 25.5482,-29.3351 32.4417,-28.1184"/>
</g>
<!-- Node18&#45;&gt;Node3 -->
<g id="edge7" class="edge">
<title>Node18&#45;&gt;Node3</title>
<path fill="none" stroke="#191970" d="M94.5477,-110.4179C95.7261,-103.2164 97.4149,-92.8962 98.893,-83.8632"/>
<polygon fill="#191970" stroke="#191970" points="102.3822,-84.2134 100.5431,-73.7795 95.474,-83.083 102.3822,-84.2134"/>
</g>
<!-- Node15 -->
<g id="node7" class="node">
<title>Node15</title>
<polygon fill="none" stroke="#bfbfbf" points="168.835,-55.5 168.835,-73.5 209.2881,-73.5 209.2881,-55.5 168.835,-55.5"/>
<text text-anchor="middle" x="189.0615" y="-61.5" font-family="Helvetica,sans-Serif" font-size="10.00" fill="#000000">string</text>
</g>
<!-- Node18&#45;&gt;Node15 -->
<g id="edge8" class="edge">
<title>Node18&#45;&gt;Node15</title>
<path fill="none" stroke="#191970" d="M108.914,-110.4179C123.922,-101.8195 146.69,-88.7754 164.1287,-78.7844"/>
<polygon fill="#191970" stroke="#191970" points="166.2486,-81.6037 173.1855,-73.5956 162.7687,-75.5299 166.2486,-81.6037"/>
</g>
<!-- Node19&#45;&gt;Node3 -->
<g id="edge11" class="edge">
<title>Node19&#45;&gt;Node3</title>
<path fill="none" stroke="#191970" d="M173.8604,-110.4179C160.5402,-101.8992 140.3965,-89.0166 124.8323,-79.0627"/>
<polygon fill="#191970" stroke="#191970" points="126.594,-76.0348 116.2838,-73.5956 122.8225,-81.932 126.594,-76.0348"/>
</g>
<!-- Node19&#45;&gt;Node15 -->
<g id="edge12" class="edge">
<title>Node19&#45;&gt;Node15</title>
<path fill="none" stroke="#191970" d="M188.2267,-110.4179C188.3576,-103.2164 188.5452,-92.8962 188.7095,-83.8632"/>
<polygon fill="#191970" stroke="#191970" points="192.2103,-83.8415 188.8928,-73.7795 185.2115,-83.7141 192.2103,-83.8415"/>
</g>
<!-- Node27&#45;&gt;Node4 -->
<g id="edge14" class="edge">
<title>Node27&#45;&gt;Node4</title>
<path fill="none" stroke="#191970" d="M399.2684,-165.353C411.8779,-152.8868 430.5678,-129.8407 421.0615,-110 401.4106,-68.986 355.9555,-39.3986 325.6201,-23.3516"/>
<polygon fill="#191970" stroke="#191970" points="326.8518,-20.0507 316.354,-18.6199 323.6683,-26.2849 326.8518,-20.0507"/>
</g>
<!-- Node28 -->
<g id="node10" class="node">
<title>Node28</title>
<polygon fill="none" stroke="#bfbfbf" points="366.3301,-110.5 366.3301,-128.5 411.793,-128.5 411.793,-110.5 366.3301,-110.5"/>
<text text-anchor="middle" x="389.0615" y="-116.5" font-family="Helvetica,sans-Serif" font-size="10.00" fill="#000000">stdio.h</text>
</g>
<!-- Node27&#45;&gt;Node28 -->
<g id="edge15" class="edge">
<title>Node27&#45;&gt;Node28</title>
<path fill="none" stroke="#191970" d="M389.0615,-165.4179C389.0615,-158.2164 389.0615,-147.8962 389.0615,-138.8632"/>
<polygon fill="#191970" stroke="#191970" points="392.5616,-138.7794 389.0615,-128.7795 385.5616,-138.7795 392.5616,-138.7794"/>
</g>
<!-- Node29&#45;&gt;Node4 -->
<g id="edge17" class="edge">
<title>Node29&#45;&gt;Node4</title>
<path fill="none" stroke="#191970" d="M296.0615,-110.4982C296.0615,-92.6913 296.0615,-52.6225 296.0615,-28.6515"/>
<polygon fill="#191970" stroke="#191970" points="299.5616,-28.6261 296.0615,-18.6261 292.5616,-28.6262 299.5616,-28.6261"/>
</g>
<!-- Node29&#45;&gt;Node15 -->
<g id="edge18" class="edge">
<title>Node29&#45;&gt;Node15</title>
<path fill="none" stroke="#191970" d="M278.3926,-110.4179C261.3552,-101.6603 235.3453,-88.2907 215.7776,-78.2326"/>
<polygon fill="#191970" stroke="#191970" points="217.2506,-75.0544 206.7566,-73.5956 214.0504,-81.2801 217.2506,-75.0544"/>
</g>
</g>
</svg>
