<?xml version="1.0" encoding="UTF-8" standalone="no"?>
<!DOCTYPE svg PUBLIC "-//W3C//DTD SVG 1.1//EN"
 "http://www.w3.org/Graphics/SVG/1.1/DTD/svg11.dtd">
<!-- Generated by graphviz version 2.40.1 (20161225.0304)
 -->
<!-- Title: libnolimits/Nolimits.h Pages: 1 -->
<svg width="1144pt" height="277pt"
 viewBox="0.00 0.00 1143.56 277.00" xmlns="http://www.w3.org/2000/svg" xmlns:xlink="http://www.w3.org/1999/xlink">
<g id="graph0" class="graph" transform="scale(1 1) rotate(0) translate(4 273)">
<title>libnolimits/Nolimits.h</title>
<!-- Node9 -->
<g id="node1" class="node">
<title>Node9</title>
<polygon fill="#bfbfbf" stroke="#000000" points="478.7808,-250.5 478.7808,-268.5 585.3569,-268.5 585.3569,-250.5 478.7808,-250.5"/>
<text text-anchor="middle" x="532.0688" y="-256.5" font-family="Helvetica,sans-Serif" font-size="10.00" fill="#000000">libnolimits/Nolimits.h</text>
</g>
<!-- Node10 -->
<g id="node2" class="node">
<title>Node10</title>
<g id="a_node2"><a xlink:href="_file_8h.html" target="_top" xlink:title="libnolimits/File/File.h">
<polygon fill="none" stroke="#000000" points="230.0566,-195.5 230.0566,-213.5 336.0811,-213.5 336.0811,-195.5 230.0566,-195.5"/>
<text text-anchor="middle" x="283.0688" y="-201.5" font-family="Helvetica,sans-Serif" font-size="10.00" fill="#000000">libnolimits/File/File.h</text>
</a>
</g>
</g>
<!-- Node9&#45;&gt;Node10 -->
<g id="edge1" class="edge">
<title>Node9&#45;&gt;Node10</title>
<path fill="none" stroke="#191970" d="M481.3686,-248.3011C434.9106,-238.0393 366.9986,-223.0387 323.9296,-213.5255"/>
<polygon fill="#191970" stroke="#191970" points="480.7108,-251.7402 491.2304,-250.4795 482.2207,-244.9049 480.7108,-251.7402"/>
</g>
<!-- Node21 -->
<g id="node5" class="node">
<title>Node21</title>
<g id="a_node5"><a xlink:href="_chunk_8h.html" target="_top" xlink:title="libnolimits/Stream\l/Chunk.h">
<polygon fill="none" stroke="#ff0000" points="429.6133,-130.5 429.6133,-158.5 524.5244,-158.5 524.5244,-130.5 429.6133,-130.5"/>
<text text-anchor="start" x="437.6133" y="-146.5" font-family="Helvetica,sans-Serif" font-size="10.00" fill="#000000">libnolimits/Stream</text>
<text text-anchor="middle" x="477.0688" y="-136.5" font-family="Helvetica,sans-Serif" font-size="10.00" fill="#000000">/Chunk.h</text>
</a>
</g>
</g>
<!-- Node9&#45;&gt;Node21 -->
<g id="edge16" class="edge">
<title>Node9&#45;&gt;Node21</title>
<path fill="none" stroke="#191970" d="M523.3108,-241.1878C512.3572,-218.2848 493.8359,-179.5583 483.8819,-158.7455"/>
<polygon fill="#191970" stroke="#191970" points="520.281,-242.9649 527.7531,-250.4761 526.596,-239.9447 520.281,-242.9649"/>
</g>
<!-- Node22 -->
<g id="node6" class="node">
<title>Node22</title>
<g id="a_node6"><a xlink:href="_n_l1_2_info_2_info_8h.html" target="_top" xlink:title="libnolimits/NL1/Info\l/Info.h">
<polygon fill="none" stroke="#ff0000" points="307.8276,-65.5 307.8276,-93.5 408.3101,-93.5 408.3101,-65.5 307.8276,-65.5"/>
<text text-anchor="start" x="315.8276" y="-81.5" font-family="Helvetica,sans-Serif" font-size="10.00" fill="#000000">libnolimits/NL1/Info</text>
<text text-anchor="middle" x="358.0688" y="-71.5" font-family="Helvetica,sans-Serif" font-size="10.00" fill="#000000">/Info.h</text>
</a>
</g>
</g>
<!-- Node9&#45;&gt;Node22 -->
<g id="edge17" class="edge">
<title>Node9&#45;&gt;Node22</title>
<path fill="none" stroke="#191970" d="M512.8746,-243.8019C490.0203,-224.7394 451.1623,-191.1376 421.0688,-159 400.8468,-137.4044 380.0344,-109.9152 368.1153,-93.5682"/>
<polygon fill="#191970" stroke="#191970" points="510.8639,-246.6811 520.7986,-250.3626 515.3281,-241.2893 510.8639,-246.6811"/>
</g>
<!-- Node24 -->
<g id="node7" class="node">
<title>Node24</title>
<g id="a_node7"><a xlink:href="_n_l1_2_track_2_track_8h.html" target="_top" xlink:title="libnolimits/NL1/Track\l/Track.h">
<polygon fill="none" stroke="#ff0000" points="381.8506,-.5 381.8506,-28.5 490.2871,-28.5 490.2871,-.5 381.8506,-.5"/>
<text text-anchor="start" x="389.8506" y="-16.5" font-family="Helvetica,sans-Serif" font-size="10.00" fill="#000000">libnolimits/NL1/Track</text>
<text text-anchor="middle" x="436.0688" y="-6.5" font-family="Helvetica,sans-Serif" font-size="10.00" fill="#000000">/Track.h</text>
</a>
</g>
</g>
<!-- Node9&#45;&gt;Node24 -->
<g id="edge19" class="edge">
<title>Node9&#45;&gt;Node24</title>
<path fill="none" stroke="#191970" d="M595.5814,-250.1773C763.7805,-224.2179 1202.8103,-147.5633 1126.0688,-65 1104.5011,-41.796 649.7442,-22.5359 490.5352,-16.4817"/>
<polygon fill="#191970" stroke="#191970" points="594.9732,-246.7296 585.619,-251.7044 596.0339,-253.6488 594.9732,-246.7296"/>
</g>
<!-- Node26 -->
<g id="node8" class="node">
<title>Node26</title>
<g id="a_node8"><a xlink:href="_n_l1_2_info_2_version_8h.html" target="_top" xlink:title="libnolimits/NL1/Info\l/Version.h">
<polygon fill="none" stroke="#ff0000" points="189.8276,-65.5 189.8276,-93.5 290.3101,-93.5 290.3101,-65.5 189.8276,-65.5"/>
<text text-anchor="start" x="197.8276" y="-81.5" font-family="Helvetica,sans-Serif" font-size="10.00" fill="#000000">libnolimits/NL1/Info</text>
<text text-anchor="middle" x="240.0688" y="-71.5" font-family="Helvetica,sans-Serif" font-size="10.00" fill="#000000">/Version.h</text>
</a>
</g>
</g>
<!-- Node9&#45;&gt;Node26 -->
<g id="edge18" class="edge">
<title>Node9&#45;&gt;Node26</title>
<path fill="none" stroke="#191970" d="M507.5437,-245.3143C492.3491,-236.4498 472.4782,-224.7204 455.0688,-214 396.1756,-177.7345 382.8242,-166.4886 324.0688,-130 303.9761,-117.5219 280.9384,-103.7061 264.0774,-93.6839"/>
<polygon fill="#191970" stroke="#191970" points="505.9325,-248.4261 516.3364,-250.4288 509.4522,-242.3753 505.9325,-248.4261"/>
</g>
<!-- Node123 -->
<g id="node11" class="node">
<title>Node123</title>
<g id="a_node11"><a xlink:href="_sky_8h.html" target="_top" xlink:title="libnolimits/NL2/Info\l/Sky.h">
<polygon fill="none" stroke="#ff0000" points="463.8276,-65.5 463.8276,-93.5 564.3101,-93.5 564.3101,-65.5 463.8276,-65.5"/>
<text text-anchor="start" x="471.8276" y="-81.5" font-family="Helvetica,sans-Serif" font-size="10.00" fill="#000000">libnolimits/NL2/Info</text>
<text text-anchor="middle" x="514.0688" y="-71.5" font-family="Helvetica,sans-Serif" font-size="10.00" fill="#000000">/Sky.h</text>
</a>
</g>
</g>
<!-- Node9&#45;&gt;Node123 -->
<g id="edge24" class="edge">
<title>Node9&#45;&gt;Node123</title>
<path fill="none" stroke="#191970" d="M534.452,-240.1326C537.0814,-214.6442 540.0821,-168.5568 533.0688,-130 530.7555,-117.2817 525.415,-103.6006 520.9833,-93.6905"/>
<polygon fill="#191970" stroke="#191970" points="530.949,-239.9639 533.3074,-250.2929 537.905,-240.7476 530.949,-239.9639"/>
</g>
<!-- Node125 -->
<g id="node12" class="node">
<title>Node125</title>
<g id="a_node12"><a xlink:href="_n_l2_2_info_2_version_8h.html" target="_top" xlink:title="libnolimits/NL2/Info\l/Version.h">
<polygon fill="none" stroke="#ff0000" points="581.8276,-65.5 581.8276,-93.5 682.3101,-93.5 682.3101,-65.5 581.8276,-65.5"/>
<text text-anchor="start" x="589.8276" y="-81.5" font-family="Helvetica,sans-Serif" font-size="10.00" fill="#000000">libnolimits/NL2/Info</text>
<text text-anchor="middle" x="632.0688" y="-71.5" font-family="Helvetica,sans-Serif" font-size="10.00" fill="#000000">/Version.h</text>
</a>
</g>
</g>
<!-- Node9&#45;&gt;Node125 -->
<g id="edge25" class="edge">
<title>Node9&#45;&gt;Node125</title>
<path fill="none" stroke="#191970" d="M542.0998,-241.4443C562.0247,-205.5794 606.2161,-126.0349 624.2129,-93.6407"/>
<polygon fill="#191970" stroke="#191970" points="538.9623,-239.885 537.1653,-250.3263 545.0814,-243.2845 538.9623,-239.885"/>
</g>
<!-- Node150 -->
<g id="node14" class="node">
<title>Node150</title>
<g id="a_node14"><a xlink:href="_support_node_8h.html" target="_top" xlink:title="libnolimits/NL2/Coaster\l/Support/SupportNode.h">
<polygon fill="none" stroke="#000000" points="772.1431,-130.5 772.1431,-158.5 895.9946,-158.5 895.9946,-130.5 772.1431,-130.5"/>
<text text-anchor="start" x="780.1431" y="-146.5" font-family="Helvetica,sans-Serif" font-size="10.00" fill="#000000">libnolimits/NL2/Coaster</text>
<text text-anchor="middle" x="834.0688" y="-136.5" font-family="Helvetica,sans-Serif" font-size="10.00" fill="#000000">/Support/SupportNode.h</text>
</a>
</g>
</g>
<!-- Node9&#45;&gt;Node150 -->
<g id="edge20" class="edge">
<title>Node9&#45;&gt;Node150</title>
<path fill="none" stroke="#191970" d="M565.3583,-246.8236C622.2714,-225.1513 737.8609,-181.1355 797.1605,-158.5545"/>
<polygon fill="#191970" stroke="#191970" points="563.8661,-243.6465 555.7663,-250.4761 566.3572,-250.1883 563.8661,-243.6465"/>
</g>
<!-- Node11 -->
<g id="node3" class="node">
<title>Node11</title>
<g id="a_node3"><a xlink:href="_file_8cpp.html" target="_top" xlink:title="libnolimits/File/File.cpp">
<polygon fill="none" stroke="#000000" points="54.7759,-70.5 54.7759,-88.5 171.3618,-88.5 171.3618,-70.5 54.7759,-70.5"/>
<text text-anchor="middle" x="113.0688" y="-76.5" font-family="Helvetica,sans-Serif" font-size="10.00" fill="#000000">libnolimits/File/File.cpp</text>
</a>
</g>
</g>
<!-- Node10&#45;&gt;Node11 -->
<g id="edge2" class="edge">
<title>Node10&#45;&gt;Node11</title>
<path fill="none" stroke="#191970" d="M296.9278,-187.2461C308.1433,-171.0561 320.1114,-146.8723 307.0688,-130 302.2797,-123.8046 208.3146,-101.355 152.945,-88.5717"/>
<polygon fill="#191970" stroke="#191970" points="294.0847,-185.2041 290.9381,-195.3209 299.7068,-189.3745 294.0847,-185.2041"/>
</g>
<!-- Node12 -->
<g id="node4" class="node">
<title>Node12</title>
<g id="a_node4"><a xlink:href="_memory_file_8h.html" target="_top" xlink:title="libnolimits/File/MemoryFile.h">
<polygon fill="none" stroke="#ff0000" points="0,-135.5 0,-153.5 142.1377,-153.5 142.1377,-135.5 0,-135.5"/>
<text text-anchor="middle" x="71.0688" y="-141.5" font-family="Helvetica,sans-Serif" font-size="10.00" fill="#000000">libnolimits/File/MemoryFile.h</text>
</a>
</g>
</g>
<!-- Node10&#45;&gt;Node12 -->
<g id="edge3" class="edge">
<title>Node10&#45;&gt;Node12</title>
<path fill="none" stroke="#191970" d="M240.9924,-192.5916C200.3357,-181.085 139.6537,-163.9108 102.8755,-153.5019"/>
<polygon fill="#191970" stroke="#191970" points="240.2954,-196.0317 250.8706,-195.3873 242.2017,-189.2963 240.2954,-196.0317"/>
</g>
<!-- Node10&#45;&gt;Node21 -->
<g id="edge5" class="edge">
<title>Node10&#45;&gt;Node21</title>
<path fill="none" stroke="#191970" d="M322.3339,-192.3562C354.0128,-182.5586 398.6071,-168.7665 431.7892,-158.504"/>
<polygon fill="#191970" stroke="#191970" points="321.0526,-189.0888 312.5333,-195.3873 323.121,-195.7763 321.0526,-189.0888"/>
</g>
<!-- Node148 -->
<g id="node13" class="node">
<title>Node148</title>
<g id="a_node13"><a xlink:href="_normal_file_8h.html" target="_top" xlink:title="libnolimits/File/NormalFile.h">
<polygon fill="none" stroke="#ff0000" points="159.9434,-135.5 159.9434,-153.5 298.1943,-153.5 298.1943,-135.5 159.9434,-135.5"/>
<text text-anchor="middle" x="229.0688" y="-141.5" font-family="Helvetica,sans-Serif" font-size="10.00" fill="#000000">libnolimits/File/NormalFile.h</text>
</a>
</g>
</g>
<!-- Node10&#45;&gt;Node148 -->
<g id="edge15" class="edge">
<title>Node10&#45;&gt;Node148</title>
<path fill="none" stroke="#191970" d="M267.9293,-187.6783C258.0251,-176.6737 245.4637,-162.7165 237.3475,-153.6985"/>
<polygon fill="#191970" stroke="#191970" points="265.5762,-190.2957 274.8674,-195.3873 270.7793,-185.6129 265.5762,-190.2957"/>
</g>
<!-- Node12&#45;&gt;Node11 -->
<g id="edge4" class="edge">
<title>Node12&#45;&gt;Node11</title>
<path fill="none" stroke="#191970" d="M82.4061,-126.9542C90.3271,-114.6956 100.5935,-98.807 107.0065,-88.8821"/>
<polygon fill="#191970" stroke="#191970" points="79.3963,-125.1633 76.9088,-135.462 85.2757,-128.9624 79.3963,-125.1633"/>
</g>
<!-- Node21&#45;&gt;Node11 -->
<g id="edge6" class="edge">
<title>Node21&#45;&gt;Node11</title>
<path fill="none" stroke="#191970" d="M419.5472,-135.4049C359.8117,-125.7914 263.7084,-109.8534 181.0688,-94 172.2963,-92.3171 162.9135,-90.3955 154.0062,-88.5139"/>
<polygon fill="#191970" stroke="#191970" points="419.1115,-138.8796 429.5398,-137.0086 420.2208,-131.9681 419.1115,-138.8796"/>
</g>
<!-- Node21&#45;&gt;Node22 -->
<g id="edge7" class="edge">
<title>Node21&#45;&gt;Node22</title>
<path fill="none" stroke="#191970" d="M442.4215,-125.575C423.7023,-115.3502 400.9821,-102.94 383.8397,-93.5765"/>
<polygon fill="#191970" stroke="#191970" points="440.7937,-128.6739 451.2476,-130.396 444.1493,-122.5306 440.7937,-128.6739"/>
</g>
<!-- Node21&#45;&gt;Node24 -->
<g id="edge10" class="edge">
<title>Node21&#45;&gt;Node24</title>
<path fill="none" stroke="#191970" d="M465.8038,-120.9945C462.0569,-112.6017 458.0772,-102.9958 455.0688,-94 447.5979,-71.6594 441.8269,-44.8643 438.6925,-28.7852"/>
<polygon fill="#191970" stroke="#191970" points="462.6685,-122.5541 470.0231,-130.1805 469.0296,-119.6323 462.6685,-122.5541"/>
</g>
<!-- Node21&#45;&gt;Node26 -->
<g id="edge9" class="edge">
<title>Node21&#45;&gt;Node26</title>
<path fill="none" stroke="#191970" d="M419.6529,-128.753C380.2243,-117.9392 328.3781,-103.7198 290.5333,-93.3405"/>
<polygon fill="#191970" stroke="#191970" points="418.8238,-132.1548 429.3935,-131.4245 420.6753,-125.4041 418.8238,-132.1548"/>
</g>
<!-- Node87 -->
<g id="node9" class="node">
<title>Node87</title>
<g id="a_node9"><a xlink:href="_rail_connector_8h.html" target="_top" xlink:title="libnolimits/NL2/Coaster\l/Support/RailConnector.h">
<polygon fill="none" stroke="#ff0000" points="700.1997,-65.5 700.1997,-93.5 827.938,-93.5 827.938,-65.5 700.1997,-65.5"/>
<text text-anchor="start" x="708.1997" y="-81.5" font-family="Helvetica,sans-Serif" font-size="10.00" fill="#000000">libnolimits/NL2/Coaster</text>
<text text-anchor="middle" x="764.0688" y="-71.5" font-family="Helvetica,sans-Serif" font-size="10.00" fill="#000000">/Support/RailConnector.h</text>
</a>
</g>
</g>
<!-- Node21&#45;&gt;Node87 -->
<g id="edge11" class="edge">
<title>Node21&#45;&gt;Node87</title>
<path fill="none" stroke="#191970" d="M534.8109,-131.4225C583.3412,-120.4313 652.5387,-104.7594 702.1964,-93.5129"/>
<polygon fill="#191970" stroke="#191970" points="533.7631,-128.0711 524.7832,-133.6936 535.3094,-134.8982 533.7631,-128.0711"/>
</g>
<!-- Node96 -->
<g id="node10" class="node">
<title>Node96</title>
<g id="a_node10"><a xlink:href="_beam_8h.html" target="_top" xlink:title="libnolimits/NL2/Coaster\l/Support/Beam.h">
<polygon fill="none" stroke="#ff0000" points="845.6602,-65.5 845.6602,-93.5 964.4775,-93.5 964.4775,-65.5 845.6602,-65.5"/>
<text text-anchor="start" x="853.6602" y="-81.5" font-family="Helvetica,sans-Serif" font-size="10.00" fill="#000000">libnolimits/NL2/Coaster</text>
<text text-anchor="middle" x="905.0688" y="-71.5" font-family="Helvetica,sans-Serif" font-size="10.00" fill="#000000">/Support/Beam.h</text>
</a>
</g>
</g>
<!-- Node21&#45;&gt;Node96 -->
<g id="edge12" class="edge">
<title>Node21&#45;&gt;Node96</title>
<path fill="none" stroke="#191970" d="M534.8185,-137.6767C606.0905,-128.9619 730.8854,-112.7444 837.0688,-94 839.8029,-93.5174 842.5946,-93.0044 845.4114,-92.4705"/>
<polygon fill="#191970" stroke="#191970" points="534.2041,-134.2255 524.6999,-138.9074 535.0494,-141.1743 534.2041,-134.2255"/>
</g>
<!-- Node21&#45;&gt;Node123 -->
<g id="edge13" class="edge">
<title>Node21&#45;&gt;Node123</title>
<path fill="none" stroke="#191970" d="M490.1181,-121.5756C495.4319,-112.2406 501.4044,-101.7483 506.0561,-93.5765"/>
<polygon fill="#191970" stroke="#191970" points="487.0026,-119.9738 485.0973,-130.396 493.0861,-123.4368 487.0026,-119.9738"/>
</g>
<!-- Node21&#45;&gt;Node125 -->
<g id="edge14" class="edge">
<title>Node21&#45;&gt;Node125</title>
<path fill="none" stroke="#191970" d="M520.2147,-126.4066C544.9603,-116.0294 575.5644,-103.1954 598.5018,-93.5765"/>
<polygon fill="#191970" stroke="#191970" points="518.5699,-123.301 510.7015,-130.396 521.2771,-129.7563 518.5699,-123.301"/>
</g>
<!-- Node22&#45;&gt;Node24 -->
<g id="edge8" class="edge">
<title>Node22&#45;&gt;Node24</title>
<path fill="none" stroke="#191970" d="M382.809,-58.8832C394.6623,-49.0054 408.5537,-37.4293 419.177,-28.5765"/>
<polygon fill="#191970" stroke="#191970" points="380.4353,-56.3053 374.9937,-65.396 384.9166,-61.6829 380.4353,-56.3053"/>
</g>
<!-- Node150&#45;&gt;Node87 -->
<g id="edge21" class="edge">
<title>Node150&#45;&gt;Node87</title>
<path fill="none" stroke="#191970" d="M811.2504,-123.3115C800.7501,-113.5612 788.5786,-102.259 779.2282,-93.5765"/>
<polygon fill="#191970" stroke="#191970" points="809.1703,-126.1562 818.8799,-130.396 813.9335,-121.0266 809.1703,-126.1562"/>
</g>
<!-- Node150&#45;&gt;Node96 -->
<g id="edge22" class="edge">
<title>Node150&#45;&gt;Node96</title>
<path fill="none" stroke="#191970" d="M856.9005,-123.5978C867.6212,-113.7831 880.116,-102.3442 889.693,-93.5765"/>
<polygon fill="#191970" stroke="#191970" points="854.4873,-121.0618 849.4748,-130.396 859.2141,-126.225 854.4873,-121.0618"/>
</g>
<!-- Node151 -->
<g id="node15" class="node">
<title>Node151</title>
<g id="a_node15"><a xlink:href="_support_node_8cpp.html" target="_top" xlink:title="libnolimits/NL2/Coaster\l/Support/SupportNode.cpp">
<polygon fill="none" stroke="#000000" points="982.8623,-65.5 982.8623,-93.5 1117.2754,-93.5 1117.2754,-65.5 982.8623,-65.5"/>
<text text-anchor="start" x="990.8623" y="-81.5" font-family="Helvetica,sans-Serif" font-size="10.00" fill="#000000">libnolimits/NL2/Coaster</text>
<text text-anchor="middle" x="1050.0688" y="-71.5" font-family="Helvetica,sans-Serif" font-size="10.00" fill="#000000">/Support/SupportNode.cpp</text>
</a>
</g>
</g>
<!-- Node150&#45;&gt;Node151 -->
<g id="edge23" class="edge">
<title>Node150&#45;&gt;Node151</title>
<path fill="none" stroke="#191970" d="M890.2962,-127.5797C925.3787,-117.0225 970.0088,-103.5921 1003.1772,-93.6109"/>
<polygon fill="#191970" stroke="#191970" points="889.2389,-124.2428 880.6717,-130.476 891.2561,-130.9458 889.2389,-124.2428"/>
</g>
</g>
</svg>
