<?xml version="1.0" encoding="UTF-8" standalone="no"?>
<!DOCTYPE svg PUBLIC "-//W3C//DTD SVG 1.1//EN"
 "http://www.w3.org/Graphics/SVG/1.1/DTD/svg11.dtd">
<!-- Generated by graphviz version 2.40.1 (20161225.0304)
 -->
<!-- Title: libnolimits/Nolimits.h Pages: 1 -->
<svg width="924pt" height="212pt"
 viewBox="0.00 0.00 924.28 212.00" xmlns="http://www.w3.org/2000/svg" xmlns:xlink="http://www.w3.org/1999/xlink">
<g id="graph0" class="graph" transform="scale(1 1) rotate(0) translate(4 208)">
<title>libnolimits/Nolimits.h</title>
<!-- Node9 -->
<g id="node1" class="node">
<title>Node9</title>
<polygon fill="#bfbfbf" stroke="#000000" points="385.7808,-185.5 385.7808,-203.5 492.3569,-203.5 492.3569,-185.5 385.7808,-185.5"/>
<text text-anchor="middle" x="439.0688" y="-191.5" font-family="Helvetica,sans-Serif" font-size="10.00" fill="#000000">libnolimits/Nolimits.h</text>
</g>
<!-- Node10 -->
<g id="node2" class="node">
<title>Node10</title>
<g id="a_node2"><a xlink:href="_file_8h.html" target="_top" xlink:title="libnolimits/File/File.h">
<polygon fill="none" stroke="#000000" points="214.0566,-130.5 214.0566,-148.5 320.0811,-148.5 320.0811,-130.5 214.0566,-130.5"/>
<text text-anchor="middle" x="267.0688" y="-136.5" font-family="Helvetica,sans-Serif" font-size="10.00" fill="#000000">libnolimits/File/File.h</text>
</a>
</g>
</g>
<!-- Node9&#45;&gt;Node10 -->
<g id="edge1" class="edge">
<title>Node9&#45;&gt;Node10</title>
<path fill="none" stroke="#191970" d="M400.7766,-182.2554C368.8104,-172.0336 323.9797,-157.6983 295.2275,-148.5042"/>
<polygon fill="#191970" stroke="#191970" points="400.0756,-185.7058 410.6665,-185.4179 402.2077,-179.0383 400.0756,-185.7058"/>
</g>
<!-- Node19 -->
<g id="node5" class="node">
<title>Node19</title>
<g id="a_node5"><a xlink:href="_chunk_8h.html" target="_top" xlink:title="libnolimits/Stream\l/Chunk.h">
<polygon fill="none" stroke="#ff0000" points="391.6133,-65.5 391.6133,-93.5 486.5244,-93.5 486.5244,-65.5 391.6133,-65.5"/>
<text text-anchor="start" x="399.6133" y="-81.5" font-family="Helvetica,sans-Serif" font-size="10.00" fill="#000000">libnolimits/Stream</text>
<text text-anchor="middle" x="439.0688" y="-71.5" font-family="Helvetica,sans-Serif" font-size="10.00" fill="#000000">/Chunk.h</text>
</a>
</g>
</g>
<!-- Node9&#45;&gt;Node19 -->
<g id="edge12" class="edge">
<title>Node9&#45;&gt;Node19</title>
<path fill="none" stroke="#191970" d="M439.0688,-175.2507C439.0688,-152.2414 439.0688,-114.277 439.0688,-93.7455"/>
<polygon fill="#191970" stroke="#191970" points="435.5689,-175.4761 439.0688,-185.4761 442.5689,-175.4762 435.5689,-175.4761"/>
</g>
<!-- Node103 -->
<g id="node8" class="node">
<title>Node103</title>
<g id="a_node8"><a xlink:href="_sky_8h.html" target="_top" xlink:title="libnolimits/NL2/Info\l/Sky.h">
<polygon fill="none" stroke="#ff0000" points="270.8276,-.5 270.8276,-28.5 371.3101,-28.5 371.3101,-.5 270.8276,-.5"/>
<text text-anchor="start" x="278.8276" y="-16.5" font-family="Helvetica,sans-Serif" font-size="10.00" fill="#000000">libnolimits/NL2/Info</text>
<text text-anchor="middle" x="321.0688" y="-6.5" font-family="Helvetica,sans-Serif" font-size="10.00" fill="#000000">/Sky.h</text>
</a>
</g>
</g>
<!-- Node9&#45;&gt;Node103 -->
<g id="edge17" class="edge">
<title>Node9&#45;&gt;Node103</title>
<path fill="none" stroke="#191970" d="M427.5322,-176.9017C404.1672,-141.2601 351.6658,-61.1733 330.3389,-28.6407"/>
<polygon fill="#191970" stroke="#191970" points="424.6453,-178.882 433.055,-185.3263 430.4995,-175.0443 424.6453,-178.882"/>
</g>
<!-- Node105 -->
<g id="node9" class="node">
<title>Node105</title>
<g id="a_node9"><a xlink:href="_version_8h.html" target="_top" xlink:title="libnolimits/NL2/Info\l/Version.h">
<polygon fill="none" stroke="#ff0000" points="388.8276,-.5 388.8276,-28.5 489.3101,-28.5 489.3101,-.5 388.8276,-.5"/>
<text text-anchor="start" x="396.8276" y="-16.5" font-family="Helvetica,sans-Serif" font-size="10.00" fill="#000000">libnolimits/NL2/Info</text>
<text text-anchor="middle" x="439.0688" y="-6.5" font-family="Helvetica,sans-Serif" font-size="10.00" fill="#000000">/Version.h</text>
</a>
</g>
</g>
<!-- Node9&#45;&gt;Node105 -->
<g id="edge18" class="edge">
<title>Node9&#45;&gt;Node105</title>
<path fill="none" stroke="#191970" d="M452.341,-177.2234C466.1307,-158.0883 486.8249,-125.7317 495.0688,-94 498.3098,-81.5252 500.3067,-76.7766 495.0688,-65 488.3653,-49.9282 474.6947,-37.4592 462.5391,-28.6819"/>
<polygon fill="#191970" stroke="#191970" points="449.3535,-175.3762 446.2109,-185.4942 454.9773,-179.5444 449.3535,-175.3762"/>
</g>
<!-- Node130 -->
<g id="node11" class="node">
<title>Node130</title>
<g id="a_node11"><a xlink:href="_support_node_8h.html" target="_top" xlink:title="libnolimits/NL2/Coaster\l/Support/SupportNode.h">
<polygon fill="none" stroke="#000000" points="604.1431,-65.5 604.1431,-93.5 727.9946,-93.5 727.9946,-65.5 604.1431,-65.5"/>
<text text-anchor="start" x="612.1431" y="-81.5" font-family="Helvetica,sans-Serif" font-size="10.00" fill="#000000">libnolimits/NL2/Coaster</text>
<text text-anchor="middle" x="666.0688" y="-71.5" font-family="Helvetica,sans-Serif" font-size="10.00" fill="#000000">/Support/SupportNode.h</text>
</a>
</g>
</g>
<!-- Node9&#45;&gt;Node130 -->
<g id="edge13" class="edge">
<title>Node9&#45;&gt;Node130</title>
<path fill="none" stroke="#191970" d="M465.9785,-180.8674C509.3796,-158.88 594.3996,-115.8082 638.3265,-93.5545"/>
<polygon fill="#191970" stroke="#191970" points="464.22,-177.8347 456.8812,-185.4761 467.3835,-184.0791 464.22,-177.8347"/>
</g>
<!-- Node11 -->
<g id="node3" class="node">
<title>Node11</title>
<g id="a_node3"><a xlink:href="_file_8cpp.html" target="_top" xlink:title="libnolimits/File/File.cpp">
<polygon fill="none" stroke="#000000" points="111.7759,-5.5 111.7759,-23.5 228.3618,-23.5 228.3618,-5.5 111.7759,-5.5"/>
<text text-anchor="middle" x="170.0688" y="-11.5" font-family="Helvetica,sans-Serif" font-size="10.00" fill="#000000">libnolimits/File/File.cpp</text>
</a>
</g>
</g>
<!-- Node10&#45;&gt;Node11 -->
<g id="edge2" class="edge">
<title>Node10&#45;&gt;Node11</title>
<path fill="none" stroke="#191970" d="M231.6421,-126.3317C216.4377,-118.9939 199.749,-108.3848 189.0688,-94 173.0806,-72.4658 170.3439,-39.396 170.0065,-23.561"/>
<polygon fill="#191970" stroke="#191970" points="230.2952,-129.5637 240.8501,-130.4823 233.1718,-123.182 230.2952,-129.5637"/>
</g>
<!-- Node12 -->
<g id="node4" class="node">
<title>Node12</title>
<g id="a_node4"><a xlink:href="_memory_file_8h.html" target="_top" xlink:title="libnolimits/File/MemoryFile.h">
<polygon fill="none" stroke="#ff0000" points="0,-70.5 0,-88.5 142.1377,-88.5 142.1377,-70.5 0,-70.5"/>
<text text-anchor="middle" x="71.0688" y="-76.5" font-family="Helvetica,sans-Serif" font-size="10.00" fill="#000000">libnolimits/File/MemoryFile.h</text>
</a>
</g>
</g>
<!-- Node10&#45;&gt;Node12 -->
<g id="edge3" class="edge">
<title>Node10&#45;&gt;Node12</title>
<path fill="none" stroke="#191970" d="M227.6891,-127.445C190.1047,-115.9395 134.3334,-98.8667 100.475,-88.5019"/>
<polygon fill="#191970" stroke="#191970" points="226.7141,-130.8068 237.3007,-130.3873 228.7632,-124.1134 226.7141,-130.8068"/>
</g>
<!-- Node10&#45;&gt;Node19 -->
<g id="edge5" class="edge">
<title>Node10&#45;&gt;Node19</title>
<path fill="none" stroke="#191970" d="M302.9812,-126.9724C330.9928,-117.2009 369.8869,-103.6332 398.924,-93.504"/>
<polygon fill="#191970" stroke="#191970" points="301.4811,-123.7888 293.1919,-130.3873 303.7868,-130.3982 301.4811,-123.7888"/>
</g>
<!-- Node128 -->
<g id="node10" class="node">
<title>Node128</title>
<g id="a_node10"><a xlink:href="_normal_file_8h.html" target="_top" xlink:title="libnolimits/File/NormalFile.h">
<polygon fill="none" stroke="#ff0000" points="197.9434,-70.5 197.9434,-88.5 336.1943,-88.5 336.1943,-70.5 197.9434,-70.5"/>
<text text-anchor="middle" x="267.0688" y="-76.5" font-family="Helvetica,sans-Serif" font-size="10.00" fill="#000000">libnolimits/File/NormalFile.h</text>
</a>
</g>
</g>
<!-- Node10&#45;&gt;Node128 -->
<g id="edge11" class="edge">
<title>Node10&#45;&gt;Node128</title>
<path fill="none" stroke="#191970" d="M267.0688,-120.3734C267.0688,-109.7812 267.0688,-97.0976 267.0688,-88.6985"/>
<polygon fill="#191970" stroke="#191970" points="263.5689,-120.3873 267.0688,-130.3873 270.5689,-120.3873 263.5689,-120.3873"/>
</g>
<!-- Node12&#45;&gt;Node11 -->
<g id="edge4" class="edge">
<title>Node12&#45;&gt;Node11</title>
<path fill="none" stroke="#191970" d="M93.3,-64.9038C112.5415,-52.2705 139.7739,-34.3906 156.1011,-23.6708"/>
<polygon fill="#191970" stroke="#191970" points="91.2727,-62.0478 84.8344,-70.462 95.1146,-67.8993 91.2727,-62.0478"/>
</g>
<!-- Node19&#45;&gt;Node11 -->
<g id="edge6" class="edge">
<title>Node19&#45;&gt;Node11</title>
<path fill="none" stroke="#191970" d="M381.7361,-65.6464C329.1289,-52.9346 252.7188,-34.4712 207.5385,-23.554"/>
<polygon fill="#191970" stroke="#191970" points="381.0539,-69.0822 391.5963,-68.0289 382.6981,-62.278 381.0539,-69.0822"/>
</g>
<!-- Node75 -->
<g id="node6" class="node">
<title>Node75</title>
<g id="a_node6"><a xlink:href="_rail_node_8h.html" target="_top" xlink:title="libnolimits/NL2/Coaster\l/Support/RailNode.h">
<polygon fill="none" stroke="#ff0000" points="644.6602,-.5 644.6602,-28.5 763.4775,-28.5 763.4775,-.5 644.6602,-.5"/>
<text text-anchor="start" x="652.6602" y="-16.5" font-family="Helvetica,sans-Serif" font-size="10.00" fill="#000000">libnolimits/NL2/Coaster</text>
<text text-anchor="middle" x="704.0688" y="-6.5" font-family="Helvetica,sans-Serif" font-size="10.00" fill="#000000">/Support/RailNode.h</text>
</a>
</g>
</g>
<!-- Node19&#45;&gt;Node75 -->
<g id="edge7" class="edge">
<title>Node19&#45;&gt;Node75</title>
<path fill="none" stroke="#191970" d="M496.5301,-65.4057C540.9621,-54.5073 602.1888,-39.4894 646.6182,-28.5917"/>
<polygon fill="#191970" stroke="#191970" points="495.6299,-62.0227 486.7516,-67.8042 497.2975,-68.8212 495.6299,-62.0227"/>
</g>
<!-- Node84 -->
<g id="node7" class="node">
<title>Node84</title>
<g id="a_node7"><a xlink:href="_beam_8h.html" target="_top" xlink:title="libnolimits/NL2/Coaster\l/Support/Beam.h">
<polygon fill="none" stroke="#ff0000" points="507.6602,-.5 507.6602,-28.5 626.4775,-28.5 626.4775,-.5 507.6602,-.5"/>
<text text-anchor="start" x="515.6602" y="-16.5" font-family="Helvetica,sans-Serif" font-size="10.00" fill="#000000">libnolimits/NL2/Coaster</text>
<text text-anchor="middle" x="567.0688" y="-6.5" font-family="Helvetica,sans-Serif" font-size="10.00" fill="#000000">/Support/Beam.h</text>
</a>
</g>
</g>
<!-- Node19&#45;&gt;Node84 -->
<g id="edge8" class="edge">
<title>Node19&#45;&gt;Node84</title>
<path fill="none" stroke="#191970" d="M475.7885,-60.8533C496.0267,-50.5761 520.7424,-38.0252 539.349,-28.5765"/>
<polygon fill="#191970" stroke="#191970" points="474.1744,-57.7475 466.8429,-65.396 477.3439,-63.9888 474.1744,-57.7475"/>
</g>
<!-- Node19&#45;&gt;Node103 -->
<g id="edge9" class="edge">
<title>Node19&#45;&gt;Node103</title>
<path fill="none" stroke="#191970" d="M404.4593,-60.4354C385.9461,-50.2374 363.5443,-37.8975 346.6231,-28.5765"/>
<polygon fill="#191970" stroke="#191970" points="403.0168,-63.6367 413.4646,-65.396 406.3943,-57.5054 403.0168,-63.6367"/>
</g>
<!-- Node19&#45;&gt;Node105 -->
<g id="edge10" class="edge">
<title>Node19&#45;&gt;Node105</title>
<path fill="none" stroke="#191970" d="M439.0688,-55.1081C439.0688,-46.1539 439.0688,-36.3227 439.0688,-28.5765"/>
<polygon fill="#191970" stroke="#191970" points="435.5689,-55.3959 439.0688,-65.396 442.5689,-55.396 435.5689,-55.3959"/>
</g>
<!-- Node130&#45;&gt;Node75 -->
<g id="edge14" class="edge">
<title>Node130&#45;&gt;Node75</title>
<path fill="none" stroke="#191970" d="M679.4708,-56.5756C684.9282,-47.2406 691.0621,-36.7483 695.8395,-28.5765"/>
<polygon fill="#191970" stroke="#191970" points="676.3398,-54.9965 674.3143,-65.396 682.3828,-58.5294 676.3398,-54.9965"/>
</g>
<!-- Node130&#45;&gt;Node84 -->
<g id="edge15" class="edge">
<title>Node130&#45;&gt;Node84</title>
<path fill="none" stroke="#191970" d="M635.9632,-59.7337C620.6439,-49.6755 602.3809,-37.6847 588.5084,-28.5765"/>
<polygon fill="#191970" stroke="#191970" points="634.3071,-62.8333 644.5873,-65.396 638.149,-56.9818 634.3071,-62.8333"/>
</g>
<!-- Node131 -->
<g id="node12" class="node">
<title>Node131</title>
<g id="a_node12"><a xlink:href="_support_node_8cpp.html" target="_top" xlink:title="libnolimits/NL2/Coaster\l/Support/SupportNode.cpp">
<polygon fill="none" stroke="#000000" points="781.8623,-.5 781.8623,-28.5 916.2754,-28.5 916.2754,-.5 781.8623,-.5"/>
<text text-anchor="start" x="789.8623" y="-16.5" font-family="Helvetica,sans-Serif" font-size="10.00" fill="#000000">libnolimits/NL2/Coaster</text>
<text text-anchor="middle" x="849.0688" y="-6.5" font-family="Helvetica,sans-Serif" font-size="10.00" fill="#000000">/Support/SupportNode.cpp</text>
</a>
</g>
</g>
<!-- Node130&#45;&gt;Node131 -->
<g id="edge16" class="edge">
<title>Node130&#45;&gt;Node131</title>
<path fill="none" stroke="#191970" d="M715.4641,-61.9553C744.9427,-51.4847 781.8779,-38.3656 809.4381,-28.5765"/>
<polygon fill="#191970" stroke="#191970" points="714.0289,-58.7507 705.7771,-65.396 716.3718,-65.347 714.0289,-58.7507"/>
</g>
</g>
</svg>
