<?xml version="1.0" encoding="UTF-8" standalone="no"?>
<!DOCTYPE svg PUBLIC "-//W3C//DTD SVG 1.1//EN"
 "http://www.w3.org/Graphics/SVG/1.1/DTD/svg11.dtd">
<!-- Generated by graphviz version 2.40.1 (20161225.0304)
 -->
<!-- Title: libnolimits/File/NormalFile.h Pages: 1 -->
<svg width="566pt" height="92pt"
 viewBox="0.00 0.00 566.04 92.00" xmlns="http://www.w3.org/2000/svg" xmlns:xlink="http://www.w3.org/1999/xlink">
<g id="graph0" class="graph" transform="scale(1 1) rotate(0) translate(4 88)">
<title>libnolimits/File/NormalFile.h</title>
<!-- Node16 -->
<g id="node1" class="node">
<title>Node16</title>
<polygon fill="#bfbfbf" stroke="#000000" points="226.2808,-65.5 226.2808,-83.5 364.5317,-83.5 364.5317,-65.5 226.2808,-65.5"/>
<text text-anchor="middle" x="295.4063" y="-71.5" font-family="Helvetica,sans-Serif" font-size="10.00" fill="#000000">libnolimits/File/NormalFile.h</text>
</g>
<!-- Node17 -->
<g id="node2" class="node">
<title>Node17</title>
<g id="a_node2"><a xlink:href="_normal_file_8cpp.html" target="_top" xlink:title="libnolimits/File/NormalFile.cpp">
<polygon fill="none" stroke="#000000" points="0,-5.5 0,-23.5 148.8125,-23.5 148.8125,-5.5 0,-5.5"/>
<text text-anchor="middle" x="74.4063" y="-11.5" font-family="Helvetica,sans-Serif" font-size="10.00" fill="#000000">libnolimits/File/NormalFile.cpp</text>
</a>
</g>
</g>
<!-- Node16&#45;&gt;Node17 -->
<g id="edge1" class="edge">
<title>Node16&#45;&gt;Node17</title>
<path fill="none" stroke="#191970" d="M252.0811,-62.7375C209.6974,-51.2306 146.0652,-33.9549 107.5632,-23.5019"/>
<polygon fill="#191970" stroke="#191970" points="251.2734,-66.1449 261.8411,-65.3873 253.1075,-59.3894 251.2734,-66.1449"/>
</g>
<!-- Node18 -->
<g id="node3" class="node">
<title>Node18</title>
<g id="a_node3"><a xlink:href="_no_limits_track_8cpp.html" target="_top" xlink:title="libnolimits/NL1/NoLimits\lTrack.cpp">
<polygon fill="none" stroke="#000000" points="167.0566,-.5 167.0566,-28.5 289.7559,-28.5 289.7559,-.5 167.0566,-.5"/>
<text text-anchor="start" x="175.0566" y="-16.5" font-family="Helvetica,sans-Serif" font-size="10.00" fill="#000000">libnolimits/NL1/NoLimits</text>
<text text-anchor="middle" x="228.4063" y="-6.5" font-family="Helvetica,sans-Serif" font-size="10.00" fill="#000000">Track.cpp</text>
</a>
</g>
</g>
<!-- Node16&#45;&gt;Node18 -->
<g id="edge2" class="edge">
<title>Node16&#45;&gt;Node18</title>
<path fill="none" stroke="#191970" d="M277.5588,-58.5172C267.1677,-49.2117 254.1846,-37.5851 244.1717,-28.6183"/>
<polygon fill="#191970" stroke="#191970" points="275.4459,-61.3234 285.2304,-65.3873 280.1158,-56.1087 275.4459,-61.3234"/>
</g>
<!-- Node19 -->
<g id="node4" class="node">
<title>Node19</title>
<g id="a_node4"><a xlink:href="_n_l1_2_track_2_track_8cpp.html" target="_top" xlink:title="libnolimits/NL1/Track\l/Track.cpp">
<polygon fill="none" stroke="#000000" points="308.188,-.5 308.188,-28.5 416.6245,-28.5 416.6245,-.5 308.188,-.5"/>
<text text-anchor="start" x="316.188" y="-16.5" font-family="Helvetica,sans-Serif" font-size="10.00" fill="#000000">libnolimits/NL1/Track</text>
<text text-anchor="middle" x="362.4063" y="-6.5" font-family="Helvetica,sans-Serif" font-size="10.00" fill="#000000">/Track.cpp</text>
</a>
</g>
</g>
<!-- Node16&#45;&gt;Node19 -->
<g id="edge3" class="edge">
<title>Node16&#45;&gt;Node19</title>
<path fill="none" stroke="#191970" d="M313.2537,-58.5172C323.6448,-49.2117 336.6279,-37.5851 346.6408,-28.6183"/>
<polygon fill="#191970" stroke="#191970" points="310.6967,-56.1087 305.5821,-65.3873 315.3666,-61.3234 310.6967,-56.1087"/>
</g>
<!-- Node20 -->
<g id="node5" class="node">
<title>Node20</title>
<g id="a_node5"><a xlink:href="_park_8cpp.html" target="_top" xlink:title="libnolimits/NL2/Park.cpp">
<polygon fill="none" stroke="#000000" points="434.7734,-5.5 434.7734,-23.5 558.0391,-23.5 558.0391,-5.5 434.7734,-5.5"/>
<text text-anchor="middle" x="496.4063" y="-11.5" font-family="Helvetica,sans-Serif" font-size="10.00" fill="#000000">libnolimits/NL2/Park.cpp</text>
</a>
</g>
</g>
<!-- Node16&#45;&gt;Node20 -->
<g id="edge4" class="edge">
<title>Node16&#45;&gt;Node20</title>
<path fill="none" stroke="#191970" d="M335.7905,-62.445C374.3338,-50.9395 431.5278,-33.8667 466.25,-23.5019"/>
<polygon fill="#191970" stroke="#191970" points="334.5149,-59.1731 325.9338,-65.3873 336.5172,-65.8806 334.5149,-59.1731"/>
</g>
</g>
</svg>
