<?xml version="1.0" encoding="UTF-8" standalone="no"?>
<!DOCTYPE svg PUBLIC "-//W3C//DTD SVG 1.1//EN"
 "http://www.w3.org/Graphics/SVG/1.1/DTD/svg11.dtd">
<!-- Generated by graphviz version 2.40.1 (20161225.0304)
 -->
<!-- Title: libnolimits/File/NormalFile.cpp Pages: 1 -->
<svg width="157pt" height="137pt"
 viewBox="0.00 0.00 156.81 137.00" xmlns="http://www.w3.org/2000/svg" xmlns:xlink="http://www.w3.org/1999/xlink">
<g id="graph0" class="graph" transform="scale(1 1) rotate(0) translate(4 133)">
<title>libnolimits/File/NormalFile.cpp</title>
<!-- Node0 -->
<g id="node1" class="node">
<title>Node0</title>
<polygon fill="#bfbfbf" stroke="#000000" points="0,-110.5 0,-128.5 148.8125,-128.5 148.8125,-110.5 0,-110.5"/>
<text text-anchor="middle" x="74.4063" y="-116.5" font-family="Helvetica,sans-Serif" font-size="10.00" fill="#000000">libnolimits/File/NormalFile.cpp</text>
</g>
<!-- Node1 -->
<g id="node2" class="node">
<title>Node1</title>
<g id="a_node2"><a xlink:href="_normal_file_8h.html" target="_top" xlink:title="NormalFile.h">
<polygon fill="none" stroke="#000000" points="38.0664,-55.5 38.0664,-73.5 110.7461,-73.5 110.7461,-55.5 38.0664,-55.5"/>
<text text-anchor="middle" x="74.4063" y="-61.5" font-family="Helvetica,sans-Serif" font-size="10.00" fill="#000000">NormalFile.h</text>
</a>
</g>
</g>
<!-- Node0&#45;&gt;Node1 -->
<g id="edge1" class="edge">
<title>Node0&#45;&gt;Node1</title>
<path fill="none" stroke="#191970" d="M74.4063,-110.4179C74.4063,-103.2164 74.4063,-92.8962 74.4063,-83.8632"/>
<polygon fill="#191970" stroke="#191970" points="77.9063,-83.7794 74.4063,-73.7795 70.9063,-83.7795 77.9063,-83.7794"/>
</g>
<!-- Node2 -->
<g id="node3" class="node">
<title>Node2</title>
<g id="a_node3"><a xlink:href="_file_8h.html" target="_top" xlink:title="File.h">
<polygon fill="none" stroke="#ff0000" points="24.1797,-.5 24.1797,-18.5 64.6328,-18.5 64.6328,-.5 24.1797,-.5"/>
<text text-anchor="middle" x="44.4063" y="-6.5" font-family="Helvetica,sans-Serif" font-size="10.00" fill="#000000">File.h</text>
</a>
</g>
</g>
<!-- Node1&#45;&gt;Node2 -->
<g id="edge2" class="edge">
<title>Node1&#45;&gt;Node2</title>
<path fill="none" stroke="#191970" d="M69.4524,-55.4179C65.3516,-47.8998 59.3969,-36.9829 54.3225,-27.6799"/>
<polygon fill="#191970" stroke="#191970" points="57.329,-25.8824 49.4678,-18.7795 51.1837,-29.2344 57.329,-25.8824"/>
</g>
<!-- Node16 -->
<g id="node4" class="node">
<title>Node16</title>
<polygon fill="none" stroke="#bfbfbf" points="82.6748,-.5 82.6748,-18.5 128.1377,-18.5 128.1377,-.5 82.6748,-.5"/>
<text text-anchor="middle" x="105.4063" y="-6.5" font-family="Helvetica,sans-Serif" font-size="10.00" fill="#000000">stdio.h</text>
</g>
<!-- Node1&#45;&gt;Node16 -->
<g id="edge3" class="edge">
<title>Node1&#45;&gt;Node16</title>
<path fill="none" stroke="#191970" d="M79.5253,-55.4179C83.7627,-47.8998 89.9159,-36.9829 95.1594,-27.6799"/>
<polygon fill="#191970" stroke="#191970" points="98.3149,-29.2096 100.176,-18.7795 92.2168,-25.7724 98.3149,-29.2096"/>
</g>
</g>
</svg>
