<?xml version="1.0" encoding="UTF-8" standalone="no"?>
<!DOCTYPE svg PUBLIC "-//W3C//DTD SVG 1.1//EN"
 "http://www.w3.org/Graphics/SVG/1.1/DTD/svg11.dtd">
<!-- Generated by graphviz version 2.40.1 (20161225.0304)
 -->
<!-- Title: libnolimits/NL2/Park.h Pages: 1 -->
<svg width="1472pt" height="302pt"
 viewBox="0.00 0.00 1472.00 302.00" xmlns="http://www.w3.org/2000/svg" xmlns:xlink="http://www.w3.org/1999/xlink">
<g id="graph0" class="graph" transform="scale(1 1) rotate(0) translate(4 298)">
<title>libnolimits/NL2/Park.h</title>
<!-- Node0 -->
<g id="node1" class="node">
<title>Node0</title>
<polygon fill="#bfbfbf" stroke="#000000" points="493.6479,-275.5 493.6479,-293.5 606.3521,-293.5 606.3521,-275.5 493.6479,-275.5"/>
<text text-anchor="middle" x="550" y="-281.5" font-family="Helvetica,sans-Serif" font-size="10.00" fill="#000000">libnolimits/NL2/Park.h</text>
</g>
<!-- Node1 -->
<g id="node2" class="node">
<title>Node1</title>
<polygon fill="none" stroke="#bfbfbf" points="69.7734,-.5 69.7734,-18.5 110.2266,-18.5 110.2266,-.5 69.7734,-.5"/>
<text text-anchor="middle" x="90" y="-6.5" font-family="Helvetica,sans-Serif" font-size="10.00" fill="#000000">string</text>
</g>
<!-- Node0&#45;&gt;Node1 -->
<g id="edge1" class="edge">
<title>Node0&#45;&gt;Node1</title>
<path fill="none" stroke="#191970" d="M493.4687,-279.1103C353.1181,-264.9713 0,-224.4362 0,-174.5 0,-174.5 0,-174.5 0,-119.5 0,-77.6011 39.597,-42.8889 66.2616,-24.2637"/>
<polygon fill="#191970" stroke="#191970" points="68.3809,-27.0566 74.7327,-18.5769 64.4793,-21.2447 68.3809,-27.0566"/>
</g>
<!-- Node2 -->
<g id="node3" class="node">
<title>Node2</title>
<g id="a_node3"><a xlink:href="_uspk_8h.html" target="_top" xlink:title="Uspk.h">
<polygon fill="none" stroke="#000000" points="1378.4385,-220.5 1378.4385,-238.5 1425.5615,-238.5 1425.5615,-220.5 1378.4385,-220.5"/>
<text text-anchor="middle" x="1402" y="-226.5" font-family="Helvetica,sans-Serif" font-size="10.00" fill="#000000">Uspk.h</text>
</a>
</g>
</g>
<!-- Node0&#45;&gt;Node2 -->
<g id="edge2" class="edge">
<title>Node0&#45;&gt;Node2</title>
<path fill="none" stroke="#191970" d="M606.5619,-280.8487C769.7785,-270.3124 1238.2009,-240.0739 1368.1883,-231.6827"/>
<polygon fill="#191970" stroke="#191970" points="1368.5806,-235.1647 1378.3343,-231.0277 1368.1296,-228.1793 1368.5806,-235.1647"/>
</g>
<!-- Node3 -->
<g id="node4" class="node">
<title>Node3</title>
<g id="a_node4"><a xlink:href="_chunk_8h.html" target="_top" xlink:title="../Stream/Chunk.h">
<polygon fill="none" stroke="#ff0000" points="603.7046,-.5 603.7046,-18.5 700.2954,-18.5 700.2954,-.5 603.7046,-.5"/>
<text text-anchor="middle" x="652" y="-6.5" font-family="Helvetica,sans-Serif" font-size="10.00" fill="#000000">../Stream/Chunk.h</text>
</a>
</g>
</g>
<!-- Node0&#45;&gt;Node3 -->
<g id="edge65" class="edge">
<title>Node0&#45;&gt;Node3</title>
<path fill="none" stroke="#191970" d="M606.5425,-283.2084C796.3451,-278.6632 1400.7715,-262.4078 1435,-239 1460.9443,-221.2576 1464,-205.9309 1464,-174.5 1464,-174.5 1464,-174.5 1464,-119.5 1464,-43.4069 896.8195,-17.6705 710.5143,-11.2692"/>
<polygon fill="#191970" stroke="#191970" points="710.4749,-7.766 700.3626,-10.9267 710.2388,-14.762 710.4749,-7.766"/>
</g>
<!-- Node18 -->
<g id="node5" class="node">
<title>Node18</title>
<g id="a_node5"><a xlink:href="_scenery_8h.html" target="_top" xlink:title="Scenery/Scenery.h">
<polygon fill="none" stroke="#000000" points="1040.125,-220.5 1040.125,-238.5 1139.875,-238.5 1139.875,-220.5 1040.125,-220.5"/>
<text text-anchor="middle" x="1090" y="-226.5" font-family="Helvetica,sans-Serif" font-size="10.00" fill="#000000">Scenery/Scenery.h</text>
</a>
</g>
</g>
<!-- Node0&#45;&gt;Node18 -->
<g id="edge4" class="edge">
<title>Node0&#45;&gt;Node18</title>
<path fill="none" stroke="#191970" d="M606.5148,-278.7439C708.9876,-268.3068 924.5605,-246.3503 1029.7287,-235.6387"/>
<polygon fill="#191970" stroke="#191970" points="1030.2656,-239.1023 1039.8594,-234.6069 1029.5562,-232.1383 1030.2656,-239.1023"/>
</g>
<!-- Node19 -->
<g id="node6" class="node">
<title>Node19</title>
<polygon fill="none" stroke="#bfbfbf" points="718.3843,-110.5 718.3843,-128.5 761.6157,-128.5 761.6157,-110.5 718.3843,-110.5"/>
<text text-anchor="middle" x="740" y="-116.5" font-family="Helvetica,sans-Serif" font-size="10.00" fill="#000000">vector</text>
</g>
<!-- Node0&#45;&gt;Node19 -->
<g id="edge66" class="edge">
<title>Node0&#45;&gt;Node19</title>
<path fill="none" stroke="#191970" d="M548.432,-275.3255C545.2223,-253.2498 540.4282,-196.6576 569,-165 587.4834,-144.5203 664.198,-130.3814 708.3399,-123.7664"/>
<polygon fill="#191970" stroke="#191970" points="708.8891,-127.2234 718.2815,-122.3211 707.882,-120.2962 708.8891,-127.2234"/>
</g>
<!-- Node21 -->
<g id="node8" class="node">
<title>Node21</title>
<g id="a_node8"><a xlink:href="_n_l2_2_info_2_info_8h.html" target="_top" xlink:title="Info/Info.h">
<polygon fill="none" stroke="#000000" points="317.7612,-110.5 317.7612,-128.5 378.2388,-128.5 378.2388,-110.5 317.7612,-110.5"/>
<text text-anchor="middle" x="348" y="-116.5" font-family="Helvetica,sans-Serif" font-size="10.00" fill="#000000">Info/Info.h</text>
</a>
</g>
</g>
<!-- Node0&#45;&gt;Node21 -->
<g id="edge10" class="edge">
<title>Node0&#45;&gt;Node21</title>
<path fill="none" stroke="#191970" d="M493.5096,-278.9551C435.3773,-269.8997 347.6134,-246.145 306,-184 294.7935,-167.2644 311.3428,-147.8765 326.8489,-134.761"/>
<polygon fill="#191970" stroke="#191970" points="329.0532,-137.4798 334.7099,-128.5214 324.7013,-131.997 329.0532,-137.4798"/>
</g>
<!-- Node25 -->
<g id="node12" class="node">
<title>Node25</title>
<g id="a_node12"><a xlink:href="_terrain_8h.html" target="_top" xlink:title="Terrain/Terrain.h">
<polygon fill="none" stroke="#000000" points="127.8745,-165.5 127.8745,-183.5 216.1255,-183.5 216.1255,-165.5 127.8745,-165.5"/>
<text text-anchor="middle" x="172" y="-171.5" font-family="Helvetica,sans-Serif" font-size="10.00" fill="#000000">Terrain/Terrain.h</text>
</a>
</g>
</g>
<!-- Node0&#45;&gt;Node25 -->
<g id="edge19" class="edge">
<title>Node0&#45;&gt;Node25</title>
<path fill="none" stroke="#191970" d="M493.5887,-281.1098C414.2743,-275.5664 274.5026,-262.7272 230,-239 209.7514,-228.2042 193.059,-207.4089 182.8632,-192.3426"/>
<polygon fill="#191970" stroke="#191970" points="185.7423,-190.349 177.3806,-183.8426 179.8598,-194.1433 185.7423,-190.349"/>
</g>
<!-- Node26 -->
<g id="node13" class="node">
<title>Node26</title>
<polygon fill="none" stroke="#bfbfbf" points="264.2734,-110.5 264.2734,-128.5 299.7266,-128.5 299.7266,-110.5 264.2734,-110.5"/>
<text text-anchor="middle" x="282" y="-116.5" font-family="Helvetica,sans-Serif" font-size="10.00" fill="#000000">map</text>
</g>
<!-- Node0&#45;&gt;Node26 -->
<g id="edge67" class="edge">
<title>Node0&#45;&gt;Node26</title>
<path fill="none" stroke="#191970" d="M493.4755,-277.2227C439.3172,-269.407 362.2041,-255.8144 337,-239 302.769,-216.1634 289.4781,-166.2777 284.6078,-138.73"/>
<polygon fill="#191970" stroke="#191970" points="288.049,-138.0817 283.0416,-128.7449 281.1336,-139.1665 288.049,-138.0817"/>
</g>
<!-- Node35 -->
<g id="node16" class="node">
<title>Node35</title>
<g id="a_node16"><a xlink:href="_coaster_8h.html" target="_top" xlink:title="Coaster/Coaster.h">
<polygon fill="none" stroke="#000000" points="661.6997,-220.5 661.6997,-238.5 758.3003,-238.5 758.3003,-220.5 661.6997,-220.5"/>
<text text-anchor="middle" x="710" y="-226.5" font-family="Helvetica,sans-Serif" font-size="10.00" fill="#000000">Coaster/Coaster.h</text>
</a>
</g>
</g>
<!-- Node0&#45;&gt;Node35 -->
<g id="edge30" class="edge">
<title>Node0&#45;&gt;Node35</title>
<path fill="none" stroke="#191970" d="M576.4207,-275.4179C603.1351,-266.2348 644.6015,-251.9807 674.2447,-241.7909"/>
<polygon fill="#191970" stroke="#191970" points="675.4869,-245.065 683.8059,-238.5042 673.2113,-238.4452 675.4869,-245.065"/>
</g>
<!-- Node2&#45;&gt;Node3 -->
<g id="edge3" class="edge">
<title>Node2&#45;&gt;Node3</title>
<path fill="none" stroke="#191970" d="M1400.575,-220.3441C1398.325,-207.4706 1393.227,-183.5229 1384,-165 1370.2862,-137.4699 1367.1229,-127.743 1342,-110 1276.7891,-63.945 1249.2538,-70.8071 1171,-55 1084.2929,-37.4853 827.1053,-20.1732 710.5655,-12.9787"/>
<polygon fill="#191970" stroke="#191970" points="710.6022,-9.4744 700.4065,-12.3552 710.1733,-16.4613 710.6022,-9.4744"/>
</g>
<!-- Node18&#45;&gt;Node3 -->
<g id="edge5" class="edge">
<title>Node18&#45;&gt;Node3</title>
<path fill="none" stroke="#191970" d="M1140.0133,-224.8399C1216.2686,-217.2239 1354.3578,-201.2235 1369,-184 1374.4695,-177.5663 1373.6888,-172.0231 1369,-165 1298.1927,-58.9431 1227.6547,-86.1647 1104,-55 1031.005,-36.6031 815.5439,-20.3429 710.6718,-13.2622"/>
<polygon fill="#191970" stroke="#191970" points="710.7841,-9.7619 700.5725,-12.5856 710.3161,-16.7463 710.7841,-9.7619"/>
</g>
<!-- Node18&#45;&gt;Node19 -->
<g id="edge6" class="edge">
<title>Node18&#45;&gt;Node19</title>
<path fill="none" stroke="#191970" d="M1058.57,-220.4259C1027.5864,-211.4165 978.9264,-197.095 937,-184 878.3478,-165.6809 810.3001,-143.106 771.4804,-130.1013"/>
<polygon fill="#191970" stroke="#191970" points="772.3952,-126.7165 761.8013,-126.8541 770.1687,-133.353 772.3952,-126.7165"/>
</g>
<!-- Node20 -->
<g id="node7" class="node">
<title>Node20</title>
<g id="a_node7"><a xlink:href="_scene_object_instance_8h.html" target="_top" xlink:title="SceneObjectInstance.h">
<polygon fill="none" stroke="#000000" points="1240.3008,-165.5 1240.3008,-183.5 1359.6992,-183.5 1359.6992,-165.5 1240.3008,-165.5"/>
<text text-anchor="middle" x="1300" y="-171.5" font-family="Helvetica,sans-Serif" font-size="10.00" fill="#000000">SceneObjectInstance.h</text>
</a>
</g>
</g>
<!-- Node18&#45;&gt;Node20 -->
<g id="edge7" class="edge">
<title>Node18&#45;&gt;Node20</title>
<path fill="none" stroke="#191970" d="M1124.6772,-220.4179C1160.502,-211.0352 1216.5399,-196.3586 1255.5862,-186.1322"/>
<polygon fill="#191970" stroke="#191970" points="1256.8333,-189.4237 1265.6203,-183.5042 1255.0598,-182.6521 1256.8333,-189.4237"/>
</g>
<!-- Node20&#45;&gt;Node3 -->
<g id="edge8" class="edge">
<title>Node20&#45;&gt;Node3</title>
<path fill="none" stroke="#191970" d="M1286.5058,-165.3539C1251.7471,-142.3127 1155.5861,-81.8128 1066,-55 1000.9359,-35.5265 808.4378,-20.1324 710.5614,-13.3164"/>
<polygon fill="#191970" stroke="#191970" points="710.7525,-9.8213 700.5354,-12.6252 710.271,-16.8048 710.7525,-9.8213"/>
</g>
<!-- Node20&#45;&gt;Node19 -->
<g id="edge9" class="edge">
<title>Node20&#45;&gt;Node19</title>
<path fill="none" stroke="#191970" d="M1239.993,-169.0902C1118.3858,-158.1049 850.8323,-133.8156 809,-129 796.8595,-127.6024 783.5511,-125.8278 771.8889,-124.1915"/>
<polygon fill="#191970" stroke="#191970" points="772.1161,-120.6886 761.7223,-122.7426 771.1284,-127.6186 772.1161,-120.6886"/>
</g>
<!-- Node21&#45;&gt;Node3 -->
<g id="edge11" class="edge">
<title>Node21&#45;&gt;Node3</title>
<path fill="none" stroke="#191970" d="M367.0552,-110.374C402.0443,-93.6495 474.0548,-59.3925 486,-55 523.9984,-41.0272 568.2716,-29.1001 601.5349,-20.967"/>
<polygon fill="#191970" stroke="#191970" points="602.585,-24.3142 611.4854,-18.5667 600.9435,-17.5094 602.585,-24.3142"/>
</g>
<!-- Node22 -->
<g id="node9" class="node">
<title>Node22</title>
<g id="a_node9"><a xlink:href="_weather_8h.html" target="_top" xlink:title="Weather.h">
<polygon fill="none" stroke="#000000" points="314.2949,-55.5 314.2949,-73.5 375.7051,-73.5 375.7051,-55.5 314.2949,-55.5"/>
<text text-anchor="middle" x="345" y="-61.5" font-family="Helvetica,sans-Serif" font-size="10.00" fill="#000000">Weather.h</text>
</a>
</g>
</g>
<!-- Node21&#45;&gt;Node22 -->
<g id="edge12" class="edge">
<title>Node21&#45;&gt;Node22</title>
<path fill="none" stroke="#191970" d="M347.5046,-110.4179C347.1118,-103.2164 346.5489,-92.8962 346.0562,-83.8632"/>
<polygon fill="#191970" stroke="#191970" points="349.5457,-83.574 345.5062,-73.7795 342.5561,-83.9553 349.5457,-83.574"/>
</g>
<!-- Node23 -->
<g id="node10" class="node">
<title>Node23</title>
<g id="a_node10"><a xlink:href="_sky_8h.html" target="_top" xlink:title="Sky.h">
<polygon fill="none" stroke="#ff0000" points="393.8638,-55.5 393.8638,-73.5 434.1362,-73.5 434.1362,-55.5 393.8638,-55.5"/>
<text text-anchor="middle" x="414" y="-61.5" font-family="Helvetica,sans-Serif" font-size="10.00" fill="#000000">Sky.h</text>
</a>
</g>
</g>
<!-- Node21&#45;&gt;Node23 -->
<g id="edge14" class="edge">
<title>Node21&#45;&gt;Node23</title>
<path fill="none" stroke="#191970" d="M358.8986,-110.4179C368.6799,-102.2667 383.2558,-90.1201 394.9597,-80.3669"/>
<polygon fill="#191970" stroke="#191970" points="397.4231,-82.8701 402.8647,-73.7795 392.9418,-77.4926 397.4231,-82.8701"/>
</g>
<!-- Node24 -->
<g id="node11" class="node">
<title>Node24</title>
<g id="a_node11"><a xlink:href="_n_l2_2_info_2_version_8h.html" target="_top" xlink:title="Version.h">
<polygon fill="none" stroke="#ff0000" points="200.1504,-55.5 200.1504,-73.5 257.8496,-73.5 257.8496,-55.5 200.1504,-55.5"/>
<text text-anchor="middle" x="229" y="-61.5" font-family="Helvetica,sans-Serif" font-size="10.00" fill="#000000">Version.h</text>
</a>
</g>
</g>
<!-- Node21&#45;&gt;Node24 -->
<g id="edge16" class="edge">
<title>Node21&#45;&gt;Node24</title>
<path fill="none" stroke="#191970" d="M328.3496,-110.4179C309.143,-101.5409 279.6837,-87.9253 257.826,-77.823"/>
<polygon fill="#191970" stroke="#191970" points="259.2254,-74.614 248.6796,-73.5956 256.2886,-80.9682 259.2254,-74.614"/>
</g>
<!-- Node22&#45;&gt;Node3 -->
<g id="edge13" class="edge">
<title>Node22&#45;&gt;Node3</title>
<path fill="none" stroke="#191970" d="M375.9653,-56.9378C379.0123,-56.2563 382.0625,-55.5985 385,-55 456.4221,-40.4488 539.2436,-26.8372 593.4735,-18.3624"/>
<polygon fill="#191970" stroke="#191970" points="594.2483,-21.7841 603.5917,-16.789 593.1726,-14.8672 594.2483,-21.7841"/>
</g>
<!-- Node23&#45;&gt;Node3 -->
<g id="edge15" class="edge">
<title>Node23&#45;&gt;Node3</title>
<path fill="none" stroke="#191970" d="M434.4496,-58.5969C438.9044,-57.3639 443.6011,-56.1043 448,-55 498.8844,-42.2261 557.3607,-29.3681 598.6238,-20.5953"/>
<polygon fill="#191970" stroke="#191970" points="599.4077,-24.007 608.4655,-18.511 597.9573,-17.1589 599.4077,-24.007"/>
</g>
<!-- Node24&#45;&gt;Node1 -->
<g id="edge17" class="edge">
<title>Node24&#45;&gt;Node1</title>
<path fill="none" stroke="#191970" d="M206.047,-55.4179C182.3895,-46.057 145.415,-31.4268 119.5781,-21.2036"/>
<polygon fill="#191970" stroke="#191970" points="120.8585,-17.9462 110.2722,-17.5214 118.283,-24.4552 120.8585,-17.9462"/>
</g>
<!-- Node24&#45;&gt;Node3 -->
<g id="edge18" class="edge">
<title>Node24&#45;&gt;Node3</title>
<path fill="none" stroke="#191970" d="M258.0683,-57.6722C262.7131,-56.6985 267.4776,-55.7684 272,-55 385.0809,-35.7863 518.4502,-21.7954 593.324,-14.7205"/>
<polygon fill="#191970" stroke="#191970" points="593.8626,-18.1855 603.4926,-13.7683 593.2099,-11.2159 593.8626,-18.1855"/>
</g>
<!-- Node25&#45;&gt;Node1 -->
<g id="edge20" class="edge">
<title>Node25&#45;&gt;Node1</title>
<path fill="none" stroke="#191970" d="M154.1741,-165.4218C127.2078,-150.552 77.0638,-118.1799 57,-74 49.4193,-57.3077 61.1673,-38.7152 72.6921,-25.7969"/>
<polygon fill="#191970" stroke="#191970" points="75.2504,-28.186 79.6644,-18.5544 70.2075,-23.3313 75.2504,-28.186"/>
</g>
<!-- Node25&#45;&gt;Node3 -->
<g id="edge21" class="edge">
<title>Node25&#45;&gt;Node3</title>
<path fill="none" stroke="#191970" d="M178.8492,-165.3281C196.6797,-142.2263 247.1892,-81.596 305,-55 355.0579,-31.9707 508.3696,-18.7341 593.4957,-12.9741"/>
<polygon fill="#191970" stroke="#191970" points="593.7811,-16.463 603.5274,-12.3086 593.3176,-9.4783 593.7811,-16.463"/>
</g>
<!-- Node25&#45;&gt;Node19 -->
<g id="edge22" class="edge">
<title>Node25&#45;&gt;Node19</title>
<path fill="none" stroke="#191970" d="M216.57,-170.1842C327.1189,-159.4797 611.9096,-131.9031 707.8804,-122.6102"/>
<polygon fill="#191970" stroke="#191970" points="708.4982,-126.0668 718.1143,-121.6192 707.8235,-119.0994 708.4982,-126.0668"/>
</g>
<!-- Node25&#45;&gt;Node26 -->
<g id="edge23" class="edge">
<title>Node25&#45;&gt;Node26</title>
<path fill="none" stroke="#191970" d="M190.1643,-165.4179C207.8644,-156.5678 234.9843,-143.0078 255.17,-132.915"/>
<polygon fill="#191970" stroke="#191970" points="256.7947,-136.0158 264.1737,-128.4131 253.6642,-129.7548 256.7947,-136.0158"/>
</g>
<!-- Node27 -->
<g id="node14" class="node">
<title>Node27</title>
<g id="a_node14"><a xlink:href="_water_8h.html" target="_top" xlink:title="Water.h">
<polygon fill="none" stroke="#ff0000" points="131.9517,-55.5 131.9517,-73.5 182.0483,-73.5 182.0483,-55.5 131.9517,-55.5"/>
<text text-anchor="middle" x="157" y="-61.5" font-family="Helvetica,sans-Serif" font-size="10.00" fill="#000000">Water.h</text>
</a>
</g>
</g>
<!-- Node25&#45;&gt;Node27 -->
<g id="edge24" class="edge">
<title>Node25&#45;&gt;Node27</title>
<path fill="none" stroke="#191970" d="M170.7725,-165.4982C168.3443,-147.6913 162.8803,-107.6225 159.6116,-83.6515"/>
<polygon fill="#191970" stroke="#191970" points="163.0636,-83.0615 158.2445,-73.6261 156.1278,-84.0074 163.0636,-83.0615"/>
</g>
<!-- Node29 -->
<g id="node15" class="node">
<title>Node29</title>
<g id="a_node15"><a xlink:href="_layer_8h.html" target="_top" xlink:title="Layer.h">
<polygon fill="none" stroke="#ff0000" points="65.5962,-55.5 65.5962,-73.5 114.4038,-73.5 114.4038,-55.5 65.5962,-55.5"/>
<text text-anchor="middle" x="90" y="-61.5" font-family="Helvetica,sans-Serif" font-size="10.00" fill="#000000">Layer.h</text>
</a>
</g>
</g>
<!-- Node25&#45;&gt;Node29 -->
<g id="edge27" class="edge">
<title>Node25&#45;&gt;Node29</title>
<path fill="none" stroke="#191970" d="M165.2896,-165.4982C151.655,-147.2079 120.5118,-105.4304 102.8482,-81.7354"/>
<polygon fill="#191970" stroke="#191970" points="105.5859,-79.5518 96.8031,-73.6261 99.9737,-83.7355 105.5859,-79.5518"/>
</g>
<!-- Node27&#45;&gt;Node1 -->
<g id="edge25" class="edge">
<title>Node27&#45;&gt;Node1</title>
<path fill="none" stroke="#191970" d="M145.9363,-55.4179C136.0067,-47.2667 121.21,-35.1201 109.3288,-25.3669"/>
<polygon fill="#191970" stroke="#191970" points="111.2541,-22.4192 101.3041,-18.7795 106.8126,-27.8297 111.2541,-22.4192"/>
</g>
<!-- Node27&#45;&gt;Node3 -->
<g id="edge26" class="edge">
<title>Node27&#45;&gt;Node3</title>
<path fill="none" stroke="#191970" d="M182.1359,-56.9508C185.1061,-56.2153 188.1086,-55.5424 191,-55 334.135,-28.1513 505.4337,-16.5199 593.4374,-12.0114"/>
<polygon fill="#191970" stroke="#191970" points="593.6792,-15.5037 603.492,-11.5088 593.3297,-8.5125 593.6792,-15.5037"/>
</g>
<!-- Node29&#45;&gt;Node1 -->
<g id="edge28" class="edge">
<title>Node29&#45;&gt;Node1</title>
<path fill="none" stroke="#191970" d="M90,-55.4179C90,-48.2164 90,-37.8962 90,-28.8632"/>
<polygon fill="#191970" stroke="#191970" points="93.5001,-28.7794 90,-18.7795 86.5001,-28.7795 93.5001,-28.7794"/>
</g>
<!-- Node29&#45;&gt;Node3 -->
<g id="edge29" class="edge">
<title>Node29&#45;&gt;Node3</title>
<path fill="none" stroke="#191970" d="M114.7427,-56.8177C117.5104,-56.1257 120.3034,-55.4992 123,-55 291.9547,-23.7227 495.3326,-13.8704 593.4267,-10.8251"/>
<polygon fill="#191970" stroke="#191970" points="593.5481,-14.3231 603.4394,-10.5267 593.3395,-7.3262 593.5481,-14.3231"/>
</g>
<!-- Node35&#45;&gt;Node3 -->
<g id="edge32" class="edge">
<title>Node35&#45;&gt;Node3</title>
<path fill="none" stroke="#191970" d="M661.3872,-225.8935C577.7812,-219.1934 414.0429,-203.6995 397,-184 361.0589,-142.4565 545.8323,-55.699 621.1723,-22.6606"/>
<polygon fill="#191970" stroke="#191970" points="622.8565,-25.7448 630.6285,-18.5444 620.0626,-19.3265 622.8565,-25.7448"/>
</g>
<!-- Node35&#45;&gt;Node19 -->
<g id="edge31" class="edge">
<title>Node35&#45;&gt;Node19</title>
<path fill="none" stroke="#191970" d="M712.455,-220.4982C717.3334,-202.6108 728.3383,-162.2594 734.8653,-138.3271"/>
<polygon fill="#191970" stroke="#191970" points="738.2565,-139.1947 737.5111,-128.6261 731.5031,-137.3528 738.2565,-139.1947"/>
</g>
<!-- Node36 -->
<g id="node17" class="node">
<title>Node36</title>
<g id="a_node17"><a xlink:href="_n_l2_2_coaster_2_colors_8h.html" target="_top" xlink:title="Colors.h">
<polygon fill="none" stroke="#000000" points="461.3818,-110.5 461.3818,-128.5 514.6182,-128.5 514.6182,-110.5 461.3818,-110.5"/>
<text text-anchor="middle" x="488" y="-116.5" font-family="Helvetica,sans-Serif" font-size="10.00" fill="#000000">Colors.h</text>
</a>
</g>
</g>
<!-- Node35&#45;&gt;Node36 -->
<g id="edge33" class="edge">
<title>Node35&#45;&gt;Node36</title>
<path fill="none" stroke="#191970" d="M661.6474,-225.6679C580.3213,-218.7282 423.3782,-203.0213 407,-184 388.8216,-162.8881 422.3399,-143.6989 451.6236,-131.842"/>
<polygon fill="#191970" stroke="#191970" points="453.2382,-134.9708 461.3115,-128.1098 450.7217,-128.4387 453.2382,-134.9708"/>
</g>
<!-- Node37 -->
<g id="node18" class="node">
<title>Node37</title>
<g id="a_node18"><a xlink:href="_style_8h.html" target="_top" xlink:title="Style.h">
<polygon fill="none" stroke="#000000" points="537.7144,-110.5 537.7144,-128.5 584.2856,-128.5 584.2856,-110.5 537.7144,-110.5"/>
<text text-anchor="middle" x="561" y="-116.5" font-family="Helvetica,sans-Serif" font-size="10.00" fill="#000000">Style.h</text>
</a>
</g>
</g>
<!-- Node35&#45;&gt;Node37 -->
<g id="edge35" class="edge">
<title>Node35&#45;&gt;Node37</title>
<path fill="none" stroke="#191970" d="M661.6537,-225.4594C582.1155,-218.3181 430.8342,-202.4637 415,-184 409.5028,-177.5899 409.9954,-171.8017 415,-165 418.4523,-160.308 485.8081,-140.6597 527.8131,-128.7705"/>
<polygon fill="#191970" stroke="#191970" points="528.9614,-132.0833 537.6362,-126.0007 527.0616,-125.346 528.9614,-132.0833"/>
</g>
<!-- Node38 -->
<g id="node19" class="node">
<title>Node38</title>
<g id="a_node19"><a xlink:href="_mode_8h.html" target="_top" xlink:title="Mode.h">
<polygon fill="none" stroke="#ff0000" points="818.3228,-110.5 818.3228,-128.5 867.6772,-128.5 867.6772,-110.5 818.3228,-110.5"/>
<text text-anchor="middle" x="843" y="-116.5" font-family="Helvetica,sans-Serif" font-size="10.00" fill="#000000">Mode.h</text>
</a>
</g>
</g>
<!-- Node35&#45;&gt;Node38 -->
<g id="edge37" class="edge">
<title>Node35&#45;&gt;Node38</title>
<path fill="none" stroke="#191970" d="M757.2326,-220.4247C779.9028,-213.831 805.8065,-202.6667 823,-184 834.4066,-171.6161 839.3094,-152.8286 841.4158,-138.7192"/>
<polygon fill="#191970" stroke="#191970" points="844.9119,-138.9526 842.5764,-128.6184 837.9577,-138.1535 844.9119,-138.9526"/>
</g>
<!-- Node40 -->
<g id="node20" class="node">
<title>Node40</title>
<g id="a_node20"><a xlink:href="_n_l2_2_coaster_2_train_8h.html" target="_top" xlink:title="Train.h">
<polygon fill="none" stroke="#ff0000" points="767.6216,-165.5 767.6216,-183.5 814.3784,-183.5 814.3784,-165.5 767.6216,-165.5"/>
<text text-anchor="middle" x="791" y="-171.5" font-family="Helvetica,sans-Serif" font-size="10.00" fill="#000000">Train.h</text>
</a>
</g>
</g>
<!-- Node35&#45;&gt;Node40 -->
<g id="edge39" class="edge">
<title>Node35&#45;&gt;Node40</title>
<path fill="none" stroke="#191970" d="M723.3755,-220.4179C735.804,-211.9788 754.5397,-199.257 769.1409,-189.3426"/>
<polygon fill="#191970" stroke="#191970" points="771.2977,-192.1088 777.6046,-183.5956 767.3654,-186.3176 771.2977,-192.1088"/>
</g>
<!-- Node43 -->
<g id="node21" class="node">
<title>Node43</title>
<g id="a_node21"><a xlink:href="_n_l2_2_coaster_2_track_2_track_8h.html" target="_top" xlink:title="Track/Track.h">
<polygon fill="none" stroke="#000000" points="1021.8071,-110.5 1021.8071,-128.5 1098.1929,-128.5 1098.1929,-110.5 1021.8071,-110.5"/>
<text text-anchor="middle" x="1060" y="-116.5" font-family="Helvetica,sans-Serif" font-size="10.00" fill="#000000">Track/Track.h</text>
</a>
</g>
</g>
<!-- Node35&#45;&gt;Node43 -->
<g id="edge42" class="edge">
<title>Node35&#45;&gt;Node43</title>
<path fill="none" stroke="#191970" d="M758.5393,-228.5525C875.2531,-225.7733 1164.1211,-215.7272 1193,-184 1221.6254,-152.5512 1157.4621,-134.7904 1108.6427,-126.1742"/>
<polygon fill="#191970" stroke="#191970" points="1108.9381,-122.675 1098.497,-124.4728 1107.7804,-129.5786 1108.9381,-122.675"/>
</g>
<!-- Node44 -->
<g id="node22" class="node">
<title>Node44</title>
<g id="a_node22"><a xlink:href="_n_l2_2_coaster_2_track_2_section_2_section_8h.html" target="_top" xlink:title="Section/Section.h">
<polygon fill="none" stroke="#000000" points="872.0864,-55.5 872.0864,-73.5 965.9136,-73.5 965.9136,-55.5 872.0864,-55.5"/>
<text text-anchor="middle" x="919" y="-61.5" font-family="Helvetica,sans-Serif" font-size="10.00" fill="#000000">Section/Section.h</text>
</a>
</g>
</g>
<!-- Node35&#45;&gt;Node44 -->
<g id="edge46" class="edge">
<title>Node35&#45;&gt;Node44</title>
<path fill="none" stroke="#191970" d="M758.3222,-220.957C785.1027,-214.3465 817.7783,-203.0001 842,-184 876.6467,-156.8223 900.4011,-109.4823 911.6168,-83.2851"/>
<polygon fill="#191970" stroke="#191970" points="914.964,-84.3485 915.5343,-73.769 908.491,-81.6837 914.964,-84.3485"/>
</g>
<!-- Node45 -->
<g id="node23" class="node">
<title>Node45</title>
<g id="a_node23"><a xlink:href="_custom_track_8h.html" target="_top" xlink:title="Track/CustomTrack.h">
<polygon fill="none" stroke="#ff0000" points="945.5806,-165.5 945.5806,-183.5 1056.4194,-183.5 1056.4194,-165.5 945.5806,-165.5"/>
<text text-anchor="middle" x="1001" y="-171.5" font-family="Helvetica,sans-Serif" font-size="10.00" fill="#000000">Track/CustomTrack.h</text>
</a>
</g>
</g>
<!-- Node35&#45;&gt;Node45 -->
<g id="edge47" class="edge">
<title>Node35&#45;&gt;Node45</title>
<path fill="none" stroke="#191970" d="M757.7269,-220.4795C808.5779,-210.8684 889.0839,-195.6525 943.4191,-185.383"/>
<polygon fill="#191970" stroke="#191970" points="944.0711,-188.8218 953.2471,-183.5255 942.771,-181.9436 944.0711,-188.8218"/>
</g>
<!-- Node56 -->
<g id="node24" class="node">
<title>Node56</title>
<g id="a_node24"><a xlink:href="_special_track_8h.html" target="_top" xlink:title="Track/SpecialTrack.h">
<polygon fill="none" stroke="#ff0000" points="1074.4082,-165.5 1074.4082,-183.5 1183.5918,-183.5 1183.5918,-165.5 1074.4082,-165.5"/>
<text text-anchor="middle" x="1129" y="-171.5" font-family="Helvetica,sans-Serif" font-size="10.00" fill="#000000">Track/SpecialTrack.h</text>
</a>
</g>
</g>
<!-- Node35&#45;&gt;Node56 -->
<g id="edge52" class="edge">
<title>Node35&#45;&gt;Node56</title>
<path fill="none" stroke="#191970" d="M758.5616,-223.5863C825.0335,-215.4228 948.3572,-200.0329 1064.0984,-184.1021"/>
<polygon fill="#191970" stroke="#191970" points="1064.7701,-187.5426 1074.1975,-182.7079 1063.8128,-180.6084 1064.7701,-187.5426"/>
</g>
<!-- Node57 -->
<g id="node25" class="node">
<title>Node57</title>
<g id="a_node25"><a xlink:href="_support_8h.html" target="_top" xlink:title="Support/Support.h">
<polygon fill="none" stroke="#ff0000" points="424.4165,-165.5 424.4165,-183.5 521.5835,-183.5 521.5835,-165.5 424.4165,-165.5"/>
<text text-anchor="middle" x="473" y="-171.5" font-family="Helvetica,sans-Serif" font-size="10.00" fill="#000000">Support/Support.h</text>
</a>
</g>
</g>
<!-- Node35&#45;&gt;Node57 -->
<g id="edge56" class="edge">
<title>Node35&#45;&gt;Node57</title>
<path fill="none" stroke="#191970" d="M671.1297,-220.4795C630.3163,-211.008 566.0475,-196.0933 521.8372,-185.8335"/>
<polygon fill="#191970" stroke="#191970" points="522.4239,-182.3767 511.8916,-183.5255 520.8415,-189.1955 522.4239,-182.3767"/>
</g>
<!-- Node68 -->
<g id="node26" class="node">
<title>Node68</title>
<g id="a_node26"><a xlink:href="_script_8h.html" target="_top" xlink:title="Script.h">
<polygon fill="none" stroke="#ff0000" points="578.0493,-165.5 578.0493,-183.5 627.9507,-183.5 627.9507,-165.5 578.0493,-165.5"/>
<text text-anchor="middle" x="603" y="-171.5" font-family="Helvetica,sans-Serif" font-size="10.00" fill="#000000">Script.h</text>
</a>
</g>
</g>
<!-- Node35&#45;&gt;Node68 -->
<g id="edge59" class="edge">
<title>Node35&#45;&gt;Node68</title>
<path fill="none" stroke="#191970" d="M692.3311,-220.4179C675.2937,-211.6603 649.2838,-198.2907 629.7161,-188.2326"/>
<polygon fill="#191970" stroke="#191970" points="631.1891,-185.0544 620.6951,-183.5956 627.9889,-191.2801 631.1891,-185.0544"/>
</g>
<!-- Node70 -->
<g id="node27" class="node">
<title>Node70</title>
<g id="a_node27"><a xlink:href="_file_script_8h.html" target="_top" xlink:title="FileScript.h">
<polygon fill="none" stroke="#000000" points="645.9927,-165.5 645.9927,-183.5 712.0073,-183.5 712.0073,-165.5 645.9927,-165.5"/>
<text text-anchor="middle" x="679" y="-171.5" font-family="Helvetica,sans-Serif" font-size="10.00" fill="#000000">FileScript.h</text>
</a>
</g>
</g>
<!-- Node35&#45;&gt;Node70 -->
<g id="edge62" class="edge">
<title>Node35&#45;&gt;Node70</title>
<path fill="none" stroke="#191970" d="M704.881,-220.4179C700.6435,-212.8998 694.4903,-201.9829 689.2468,-192.6799"/>
<polygon fill="#191970" stroke="#191970" points="692.1895,-190.7724 684.2302,-183.7795 686.0914,-194.2096 692.1895,-190.7724"/>
</g>
<!-- Node36&#45;&gt;Node3 -->
<g id="edge34" class="edge">
<title>Node36&#45;&gt;Node3</title>
<path fill="none" stroke="#191970" d="M501.0076,-110.4228C519.0847,-97.8427 552.869,-74.4576 582,-55 597.571,-44.5996 615.2528,-33.109 628.9496,-24.2772"/>
<polygon fill="#191970" stroke="#191970" points="631.2048,-26.9881 637.7205,-18.6336 627.4171,-21.1014 631.2048,-26.9881"/>
</g>
<!-- Node37&#45;&gt;Node3 -->
<g id="edge36" class="edge">
<title>Node37&#45;&gt;Node3</title>
<path fill="none" stroke="#191970" d="M565.4867,-110.1557C572.0239,-97.0585 585.0319,-72.8467 600,-55 609.2744,-43.9419 621.3168,-33.2281 631.477,-24.9774"/>
<polygon fill="#191970" stroke="#191970" points="633.7846,-27.6149 639.4667,-18.6726 629.4483,-22.1197 633.7846,-27.6149"/>
</g>
<!-- Node38&#45;&gt;Node3 -->
<g id="edge38" class="edge">
<title>Node38&#45;&gt;Node3</title>
<path fill="none" stroke="#191970" d="M839.828,-110.1026C834.5982,-96.0303 822.8305,-69.5815 804,-55 777.0948,-34.1657 740.761,-22.8437 710.3637,-16.705"/>
<polygon fill="#191970" stroke="#191970" points="710.779,-13.2219 700.3048,-14.8157 709.4868,-20.1016 710.779,-13.2219"/>
</g>
<!-- Node40&#45;&gt;Node3 -->
<g id="edge40" class="edge">
<title>Node40&#45;&gt;Node3</title>
<path fill="none" stroke="#191970" d="M789.84,-165.4728C787.8075,-152.3336 782.6545,-127.5929 771,-110 746.1521,-72.491 703.336,-41.2862 676.404,-24.0352"/>
<polygon fill="#191970" stroke="#191970" points="677.9304,-20.8618 667.5958,-18.5278 674.2193,-26.7971 677.9304,-20.8618"/>
</g>
<!-- Node40&#45;&gt;Node19 -->
<g id="edge41" class="edge">
<title>Node40&#45;&gt;Node19</title>
<path fill="none" stroke="#191970" d="M782.5784,-165.4179C775.2402,-157.5041 764.4098,-145.8243 755.5087,-136.2251"/>
<polygon fill="#191970" stroke="#191970" points="757.9705,-133.7324 748.6046,-128.7795 752.8376,-138.492 757.9705,-133.7324"/>
</g>
<!-- Node43&#45;&gt;Node3 -->
<g id="edge43" class="edge">
<title>Node43&#45;&gt;Node3</title>
<path fill="none" stroke="#191970" d="M1055.4561,-110.1281C1047.8582,-95.5846 1031.1021,-67.9133 1008,-55 958.299,-27.2187 798.1161,-15.9141 710.5337,-11.7198"/>
<polygon fill="#191970" stroke="#191970" points="710.6345,-8.2208 700.4833,-11.2544 710.3107,-15.2133 710.6345,-8.2208"/>
</g>
<!-- Node43&#45;&gt;Node44 -->
<g id="edge44" class="edge">
<title>Node43&#45;&gt;Node44</title>
<path fill="none" stroke="#191970" d="M1036.7167,-110.4179C1013.5512,-101.3817 977.7977,-87.4353 951.7704,-77.2828"/>
<polygon fill="#191970" stroke="#191970" points="952.9061,-73.969 942.3179,-73.5956 950.3623,-80.4904 952.9061,-73.969"/>
</g>
<!-- Node44&#45;&gt;Node3 -->
<g id="edge45" class="edge">
<title>Node44&#45;&gt;Node3</title>
<path fill="none" stroke="#191970" d="M875.2094,-55.4795C828.8426,-45.9282 755.6044,-30.8417 705.7656,-20.5753"/>
<polygon fill="#191970" stroke="#191970" points="706.3151,-17.1151 695.8146,-18.5255 704.9027,-23.9711 706.3151,-17.1151"/>
</g>
<!-- Node45&#45;&gt;Node3 -->
<g id="edge49" class="edge">
<title>Node45&#45;&gt;Node3</title>
<path fill="none" stroke="#191970" d="M1002.1467,-165.359C1004.4059,-142.8552 1006.7432,-84.4685 975,-55 955.9621,-37.3263 798.2849,-21.6135 710.4847,-14.1299"/>
<polygon fill="#191970" stroke="#191970" points="710.6558,-10.632 700.3972,-13.28 710.0681,-17.6072 710.6558,-10.632"/>
</g>
<!-- Node45&#45;&gt;Node19 -->
<g id="edge48" class="edge">
<title>Node45&#45;&gt;Node19</title>
<path fill="none" stroke="#191970" d="M958.1934,-165.4795C905.7577,-154.4298 818.1657,-135.9717 771.5061,-126.1392"/>
<polygon fill="#191970" stroke="#191970" points="772.1615,-122.7005 761.6547,-124.0633 770.7181,-129.5501 772.1615,-122.7005"/>
</g>
<!-- Node45&#45;&gt;Node43 -->
<g id="edge50" class="edge">
<title>Node45&#45;&gt;Node43</title>
<path fill="none" stroke="#191970" d="M1010.7427,-165.4179C1019.4017,-157.3458 1032.264,-145.3556 1042.6736,-135.6517"/>
<polygon fill="#191970" stroke="#191970" points="1045.1176,-138.1584 1050.0457,-128.7795 1040.3444,-133.0381 1045.1176,-138.1584"/>
</g>
<!-- Node45&#45;&gt;Node44 -->
<g id="edge51" class="edge">
<title>Node45&#45;&gt;Node44</title>
<path fill="none" stroke="#191970" d="M994.2896,-165.4982C980.655,-147.2079 949.5118,-105.4304 931.8482,-81.7354"/>
<polygon fill="#191970" stroke="#191970" points="934.5859,-79.5518 925.8031,-73.6261 928.9737,-83.7355 934.5859,-79.5518"/>
</g>
<!-- Node56&#45;&gt;Node3 -->
<g id="edge54" class="edge">
<title>Node56&#45;&gt;Node3</title>
<path fill="none" stroke="#191970" d="M1127.6526,-165.3705C1125.3278,-152.1039 1119.5497,-127.206 1107,-110 1082.8522,-76.8927 1071.07,-70.162 1033,-55 975.7921,-32.216 802.51,-18.6103 710.6393,-12.8088"/>
<polygon fill="#191970" stroke="#191970" points="710.589,-9.299 700.3914,-12.1727 710.1553,-16.2856 710.589,-9.299"/>
</g>
<!-- Node56&#45;&gt;Node19 -->
<g id="edge53" class="edge">
<title>Node56&#45;&gt;Node19</title>
<path fill="none" stroke="#191970" d="M1074.1916,-166.334C1071.0823,-165.8802 1068.0018,-165.4329 1065,-165 1008.6811,-156.8779 842.3878,-133.7299 772.0241,-123.949"/>
<polygon fill="#191970" stroke="#191970" points="772.3607,-120.4622 761.9741,-122.5522 771.397,-127.3956 772.3607,-120.4622"/>
</g>
<!-- Node56&#45;&gt;Node43 -->
<g id="edge55" class="edge">
<title>Node56&#45;&gt;Node43</title>
<path fill="none" stroke="#191970" d="M1117.6061,-165.4179C1107.2808,-157.1876 1091.8453,-144.8839 1079.5503,-135.0836"/>
<polygon fill="#191970" stroke="#191970" points="1081.6429,-132.2757 1071.6415,-128.7795 1077.2796,-137.7495 1081.6429,-132.2757"/>
</g>
<!-- Node57&#45;&gt;Node3 -->
<g id="edge57" class="edge">
<title>Node57&#45;&gt;Node3</title>
<path fill="none" stroke="#191970" d="M519.4984,-165.4988C543.7539,-158.8297 572.5474,-147.5741 593,-129 608.9347,-114.5289 632.8731,-57.9676 644.7635,-28.1432"/>
<polygon fill="#191970" stroke="#191970" points="648.0266,-29.4089 648.4339,-18.8219 641.5134,-26.8441 648.0266,-29.4089"/>
</g>
<!-- Node57&#45;&gt;Node19 -->
<g id="edge58" class="edge">
<title>Node57&#45;&gt;Node19</title>
<path fill="none" stroke="#191970" d="M516.7906,-165.4795C570.5693,-154.4014 660.4971,-135.877 708.136,-126.0637"/>
<polygon fill="#191970" stroke="#191970" points="709.097,-129.4393 718.1852,-123.9937 707.6847,-122.5833 709.097,-129.4393"/>
</g>
<!-- Node68&#45;&gt;Node3 -->
<g id="edge60" class="edge">
<title>Node68&#45;&gt;Node3</title>
<path fill="none" stroke="#191970" d="M609.0373,-165.4821C614.7352,-156.5728 623.1127,-142.3759 628,-129 640.4759,-94.8551 647.0154,-52.7227 649.9677,-28.6996"/>
<polygon fill="#191970" stroke="#191970" points="653.4462,-29.0862 651.1097,-18.7522 646.4919,-28.2877 653.4462,-29.0862"/>
</g>
<!-- Node68&#45;&gt;Node19 -->
<g id="edge61" class="edge">
<title>Node68&#45;&gt;Node19</title>
<path fill="none" stroke="#191970" d="M625.6228,-165.4179C648.3004,-156.3137 683.3933,-142.2253 708.728,-132.0544"/>
<polygon fill="#191970" stroke="#191970" points="710.2733,-135.2057 718.2494,-128.232 707.6653,-128.7096 710.2733,-135.2057"/>
</g>
<!-- Node70&#45;&gt;Node3 -->
<g id="edge63" class="edge">
<title>Node70&#45;&gt;Node3</title>
<path fill="none" stroke="#191970" d="M678.6014,-165.4144C677.5916,-145.3216 674.3901,-95.6728 666,-55 664.1656,-46.1076 661.3274,-36.4681 658.6848,-28.3603"/>
<polygon fill="#191970" stroke="#191970" points="661.9585,-27.1158 655.4243,-18.7759 655.3314,-29.3703 661.9585,-27.1158"/>
</g>
<!-- Node70&#45;&gt;Node19 -->
<g id="edge64" class="edge">
<title>Node70&#45;&gt;Node19</title>
<path fill="none" stroke="#191970" d="M689.0729,-165.4179C698.0255,-157.3458 711.3238,-145.3556 722.0863,-135.6517"/>
<polygon fill="#191970" stroke="#191970" points="724.6251,-138.0753 729.7082,-128.7795 719.9376,-132.8764 724.6251,-138.0753"/>
</g>
</g>
</svg>
