<?xml version="1.0" encoding="UTF-8" standalone="no"?>
<!DOCTYPE svg PUBLIC "-//W3C//DTD SVG 1.1//EN"
 "http://www.w3.org/Graphics/SVG/1.1/DTD/svg11.dtd">
<!-- Generated by graphviz version 2.40.1 (20161225.0304)
 -->
<!-- Title: libnolimits/NL2/Coaster/Track/Parameter4D.cpp Pages: 1 -->
<svg width="133pt" height="147pt"
 viewBox="0.00 0.00 132.56 147.00" xmlns="http://www.w3.org/2000/svg" xmlns:xlink="http://www.w3.org/1999/xlink">
<g id="graph0" class="graph" transform="scale(1 1) rotate(0) translate(4 143)">
<title>libnolimits/NL2/Coaster/Track/Parameter4D.cpp</title>
<!-- Node0 -->
<g id="node1" class="node">
<title>Node0</title>
<polygon fill="#bfbfbf" stroke="#000000" points="0,-110.5 0,-138.5 124.5596,-138.5 124.5596,-110.5 0,-110.5"/>
<text text-anchor="start" x="8" y="-126.5" font-family="Helvetica,sans-Serif" font-size="10.00" fill="#000000">libnolimits/NL2/Coaster</text>
<text text-anchor="middle" x="62.2798" y="-116.5" font-family="Helvetica,sans-Serif" font-size="10.00" fill="#000000">/Track/Parameter4D.cpp</text>
</g>
<!-- Node1 -->
<g id="node2" class="node">
<title>Node1</title>
<g id="a_node2"><a xlink:href="_parameter4_d_8h.html" target="_top" xlink:title="Parameter4D.h">
<polygon fill="none" stroke="#000000" points="20.376,-55.5 20.376,-73.5 104.1836,-73.5 104.1836,-55.5 20.376,-55.5"/>
<text text-anchor="middle" x="62.2798" y="-61.5" font-family="Helvetica,sans-Serif" font-size="10.00" fill="#000000">Parameter4D.h</text>
</a>
</g>
</g>
<!-- Node0&#45;&gt;Node1 -->
<g id="edge1" class="edge">
<title>Node0&#45;&gt;Node1</title>
<path fill="none" stroke="#191970" d="M62.2798,-110.2808C62.2798,-102.3776 62.2798,-92.4316 62.2798,-83.8308"/>
<polygon fill="#191970" stroke="#191970" points="65.7799,-83.5842 62.2798,-73.5842 58.7799,-83.5842 65.7799,-83.5842"/>
</g>
<!-- Node2 -->
<g id="node3" class="node">
<title>Node2</title>
<g id="a_node3"><a xlink:href="_chunk_8h.html" target="_top" xlink:title="../../../Stream/Chunk.h">
<polygon fill="none" stroke="#ff0000" points="5.6494,-.5 5.6494,-18.5 118.9102,-18.5 118.9102,-.5 5.6494,-.5"/>
<text text-anchor="middle" x="62.2798" y="-6.5" font-family="Helvetica,sans-Serif" font-size="10.00" fill="#000000">../../../Stream/Chunk.h</text>
</a>
</g>
</g>
<!-- Node1&#45;&gt;Node2 -->
<g id="edge2" class="edge">
<title>Node1&#45;&gt;Node2</title>
<path fill="none" stroke="#191970" d="M62.2798,-55.4179C62.2798,-48.2164 62.2798,-37.8962 62.2798,-28.8632"/>
<polygon fill="#191970" stroke="#191970" points="65.7799,-28.7794 62.2798,-18.7795 58.7799,-28.7795 65.7799,-28.7794"/>
</g>
</g>
</svg>
