<?xml version="1.0" encoding="UTF-8" standalone="no"?>
<!DOCTYPE svg PUBLIC "-//W3C//DTD SVG 1.1//EN"
 "http://www.w3.org/Graphics/SVG/1.1/DTD/svg11.dtd">
<!-- Generated by graphviz version 2.40.1 (20161225.0304)
 -->
<!-- Title: libnolimits/NL2/Park.cpp Pages: 1 -->
<svg width="848pt" height="247pt"
 viewBox="0.00 0.00 848.46 247.00" xmlns="http://www.w3.org/2000/svg" xmlns:xlink="http://www.w3.org/1999/xlink">
<g id="graph0" class="graph" transform="scale(1 1) rotate(0) translate(4 243)">
<title>libnolimits/NL2/Park.cpp</title>
<!-- Node0 -->
<g id="node1" class="node">
<title>Node0</title>
<polygon fill="#bfbfbf" stroke="#000000" points="550.9287,-220.5 550.9287,-238.5 674.1943,-238.5 674.1943,-220.5 550.9287,-220.5"/>
<text text-anchor="middle" x="612.5615" y="-226.5" font-family="Helvetica,sans-Serif" font-size="10.00" fill="#000000">libnolimits/NL2/Park.cpp</text>
</g>
<!-- Node1 -->
<g id="node2" class="node">
<title>Node1</title>
<g id="a_node2"><a xlink:href="_park_8h.html" target="_top" xlink:title="Park.h">
<polygon fill="none" stroke="#000000" points="363.1108,-165.5 363.1108,-183.5 408.0122,-183.5 408.0122,-165.5 363.1108,-165.5"/>
<text text-anchor="middle" x="385.5615" y="-171.5" font-family="Helvetica,sans-Serif" font-size="10.00" fill="#000000">Park.h</text>
</a>
</g>
</g>
<!-- Node0&#45;&gt;Node1 -->
<g id="edge1" class="edge">
<title>Node0&#45;&gt;Node1</title>
<path fill="none" stroke="#191970" d="M575.3313,-220.4795C531.6169,-209.8879 459.8086,-192.4894 418.1893,-182.4054"/>
<polygon fill="#191970" stroke="#191970" points="418.837,-178.9611 408.294,-180.0079 417.1886,-185.7643 418.837,-178.9611"/>
</g>
<!-- Node13 -->
<g id="node13" class="node">
<title>Node13</title>
<polygon fill="none" stroke="#bfbfbf" points="538.3892,-165.5 538.3892,-183.5 592.7339,-183.5 592.7339,-165.5 538.3892,-165.5"/>
<text text-anchor="middle" x="565.5615" y="-171.5" font-family="Helvetica,sans-Serif" font-size="10.00" fill="#000000">iostream</text>
</g>
<!-- Node0&#45;&gt;Node13 -->
<g id="edge22" class="edge">
<title>Node0&#45;&gt;Node13</title>
<path fill="none" stroke="#191970" d="M604.8004,-220.4179C598.1054,-212.5833 588.2561,-201.0575 580.1005,-191.5137"/>
<polygon fill="#191970" stroke="#191970" points="582.6486,-189.108 573.4912,-183.7795 577.327,-193.6556 582.6486,-189.108"/>
</g>
<!-- Node67 -->
<g id="node14" class="node">
<title>Node67</title>
<g id="a_node14"><a xlink:href="_normal_file_8h.html" target="_top" xlink:title="../File/NormalFile.h">
<polygon fill="none" stroke="#000000" points="610.6084,-165.5 610.6084,-183.5 710.5146,-183.5 710.5146,-165.5 610.6084,-165.5"/>
<text text-anchor="middle" x="660.5615" y="-171.5" font-family="Helvetica,sans-Serif" font-size="10.00" fill="#000000">../File/NormalFile.h</text>
</a>
</g>
</g>
<!-- Node0&#45;&gt;Node67 -->
<g id="edge23" class="edge">
<title>Node0&#45;&gt;Node67</title>
<path fill="none" stroke="#191970" d="M620.4877,-220.4179C627.3252,-212.5833 637.384,-201.0575 645.7132,-191.5137"/>
<polygon fill="#191970" stroke="#191970" points="648.5247,-193.6151 652.4631,-183.7795 643.2507,-189.0123 648.5247,-193.6151"/>
</g>
<!-- Node69 -->
<g id="node16" class="node">
<title>Node69</title>
<g id="a_node16"><a xlink:href="_memory_file_8h.html" target="_top" xlink:title="../File/MemoryFile.h">
<polygon fill="none" stroke="#000000" points="736.665,-110.5 736.665,-128.5 840.458,-128.5 840.458,-110.5 736.665,-110.5"/>
<text text-anchor="middle" x="788.5615" y="-116.5" font-family="Helvetica,sans-Serif" font-size="10.00" fill="#000000">../File/MemoryFile.h</text>
</a>
</g>
</g>
<!-- Node0&#45;&gt;Node69 -->
<g id="edge26" class="edge">
<title>Node0&#45;&gt;Node69</title>
<path fill="none" stroke="#191970" d="M641.1683,-220.4207C663.5306,-212.6131 694.8593,-200.0744 719.5615,-184 740.2423,-170.5425 760.4496,-150.6218 773.5954,-136.4849"/>
<polygon fill="#191970" stroke="#191970" points="776.3333,-138.6763 780.4697,-128.9222 771.1534,-133.9679 776.3333,-138.6763"/>
</g>
<!-- Node2 -->
<g id="node3" class="node">
<title>Node2</title>
<polygon fill="none" stroke="#bfbfbf" points="576.335,-55.5 576.335,-73.5 616.7881,-73.5 616.7881,-55.5 576.335,-55.5"/>
<text text-anchor="middle" x="596.5615" y="-61.5" font-family="Helvetica,sans-Serif" font-size="10.00" fill="#000000">string</text>
</g>
<!-- Node1&#45;&gt;Node2 -->
<g id="edge2" class="edge">
<title>Node1&#45;&gt;Node2</title>
<path fill="none" stroke="#191970" d="M408.1915,-171.217C450.9328,-164.6312 541.4146,-148.7345 565.5615,-129 579.6669,-117.4721 587.7839,-97.9905 592.1451,-83.4479"/>
<polygon fill="#191970" stroke="#191970" points="595.602,-84.0666 594.7849,-73.5033 588.8363,-82.2705 595.602,-84.0666"/>
</g>
<!-- Node3 -->
<g id="node4" class="node">
<title>Node3</title>
<g id="a_node4"><a xlink:href="_uspk_8h.html" target="_top" xlink:title="Uspk.h">
<polygon fill="none" stroke="#000000" points="0,-110.5 0,-128.5 47.123,-128.5 47.123,-110.5 0,-110.5"/>
<text text-anchor="middle" x="23.5615" y="-116.5" font-family="Helvetica,sans-Serif" font-size="10.00" fill="#000000">Uspk.h</text>
</a>
</g>
</g>
<!-- Node1&#45;&gt;Node3 -->
<g id="edge3" class="edge">
<title>Node1&#45;&gt;Node3</title>
<path fill="none" stroke="#191970" d="M363.0361,-172.165C310.1282,-166.5004 173.9088,-150.8688 61.5615,-129 60.1014,-128.7158 58.6133,-128.4108 57.1127,-128.0906"/>
<polygon fill="#191970" stroke="#191970" points="57.7212,-124.6394 47.192,-125.8172 56.1575,-131.4625 57.7212,-124.6394"/>
</g>
<!-- Node4 -->
<g id="node5" class="node">
<title>Node4</title>
<g id="a_node5"><a xlink:href="_chunk_8h.html" target="_top" xlink:title="../Stream/Chunk.h">
<polygon fill="none" stroke="#ff0000" points="182.2661,-55.5 182.2661,-73.5 278.8569,-73.5 278.8569,-55.5 182.2661,-55.5"/>
<text text-anchor="middle" x="230.5615" y="-61.5" font-family="Helvetica,sans-Serif" font-size="10.00" fill="#000000">../Stream/Chunk.h</text>
</a>
</g>
</g>
<!-- Node1&#45;&gt;Node4 -->
<g id="edge19" class="edge">
<title>Node1&#45;&gt;Node4</title>
<path fill="none" stroke="#191970" d="M362.9097,-172.6365C297.5322,-167.031 112.0582,-149.4449 94.5615,-129 68.1502,-98.1381 123.955,-80.9743 171.8702,-72.2521"/>
<polygon fill="#191970" stroke="#191970" points="172.6819,-75.6639 181.9426,-70.5171 171.4936,-68.7655 172.6819,-75.6639"/>
</g>
<!-- Node18 -->
<g id="node7" class="node">
<title>Node18</title>
<g id="a_node7"><a xlink:href="_scenery_8h.html" target="_top" xlink:title="Scenery/Scenery.h">
<polygon fill="none" stroke="#ff0000" points="296.6865,-110.5 296.6865,-128.5 396.4365,-128.5 396.4365,-110.5 296.6865,-110.5"/>
<text text-anchor="middle" x="346.5615" y="-116.5" font-family="Helvetica,sans-Serif" font-size="10.00" fill="#000000">Scenery/Scenery.h</text>
</a>
</g>
</g>
<!-- Node1&#45;&gt;Node18 -->
<g id="edge6" class="edge">
<title>Node1&#45;&gt;Node18</title>
<path fill="none" stroke="#191970" d="M379.1215,-165.4179C373.6782,-157.7415 365.7224,-146.5217 359.0376,-137.0945"/>
<polygon fill="#191970" stroke="#191970" points="361.7809,-134.9123 353.1415,-128.7795 356.0708,-138.9613 361.7809,-134.9123"/>
</g>
<!-- Node19 -->
<g id="node8" class="node">
<title>Node19</title>
<polygon fill="none" stroke="#bfbfbf" points="363.9458,-55.5 363.9458,-73.5 407.1772,-73.5 407.1772,-55.5 363.9458,-55.5"/>
<text text-anchor="middle" x="385.5615" y="-61.5" font-family="Helvetica,sans-Serif" font-size="10.00" fill="#000000">vector</text>
</g>
<!-- Node1&#45;&gt;Node19 -->
<g id="edge20" class="edge">
<title>Node1&#45;&gt;Node19</title>
<path fill="none" stroke="#191970" d="M390.878,-165.4673C395.7971,-156.547 402.7586,-142.3422 405.5615,-129 408.9089,-113.0663 402.7388,-95.4386 396.3922,-82.644"/>
<polygon fill="#191970" stroke="#191970" points="399.2955,-80.6564 391.443,-73.5437 393.1461,-84.0008 399.2955,-80.6564"/>
</g>
<!-- Node21 -->
<g id="node9" class="node">
<title>Node21</title>
<g id="a_node9"><a xlink:href="_info_8h.html" target="_top" xlink:title="Info/Info.h">
<polygon fill="none" stroke="#ff0000" points="103.3228,-110.5 103.3228,-128.5 163.8003,-128.5 163.8003,-110.5 103.3228,-110.5"/>
<text text-anchor="middle" x="133.5615" y="-116.5" font-family="Helvetica,sans-Serif" font-size="10.00" fill="#000000">Info/Info.h</text>
</a>
</g>
</g>
<!-- Node1&#45;&gt;Node21 -->
<g id="edge9" class="edge">
<title>Node1&#45;&gt;Node21</title>
<path fill="none" stroke="#191970" d="M362.9357,-169.8127C325.7975,-162.0829 249.3505,-146.0204 174.2274,-129.1119"/>
<polygon fill="#191970" stroke="#191970" points="174.6458,-125.6184 164.1205,-126.83 173.1041,-132.4465 174.6458,-125.6184"/>
</g>
<!-- Node25 -->
<g id="node10" class="node">
<title>Node25</title>
<g id="a_node10"><a xlink:href="_terrain_8h.html" target="_top" xlink:title="Terrain/Terrain.h">
<polygon fill="none" stroke="#ff0000" points="452.436,-110.5 452.436,-128.5 540.687,-128.5 540.687,-110.5 452.436,-110.5"/>
<text text-anchor="middle" x="496.5615" y="-116.5" font-family="Helvetica,sans-Serif" font-size="10.00" fill="#000000">Terrain/Terrain.h</text>
</a>
</g>
</g>
<!-- Node1&#45;&gt;Node25 -->
<g id="edge11" class="edge">
<title>Node1&#45;&gt;Node25</title>
<path fill="none" stroke="#191970" d="M403.8909,-165.4179C421.6456,-156.6205 448.793,-143.1691 469.1231,-133.0956"/>
<polygon fill="#191970" stroke="#191970" points="470.7985,-136.1716 478.2049,-128.5956 467.6906,-129.8994 470.7985,-136.1716"/>
</g>
<!-- Node26 -->
<g id="node11" class="node">
<title>Node26</title>
<polygon fill="none" stroke="#bfbfbf" points="500.835,-55.5 500.835,-73.5 536.2881,-73.5 536.2881,-55.5 500.835,-55.5"/>
<text text-anchor="middle" x="518.5615" y="-61.5" font-family="Helvetica,sans-Serif" font-size="10.00" fill="#000000">map</text>
</g>
<!-- Node1&#45;&gt;Node26 -->
<g id="edge21" class="edge">
<title>Node1&#45;&gt;Node26</title>
<path fill="none" stroke="#191970" d="M408.2867,-171.5794C449.1626,-165.8093 532.4378,-151.5213 549.5615,-129 560.7506,-114.284 548.4597,-94.8844 536.2036,-81.2175"/>
<polygon fill="#191970" stroke="#191970" points="538.6266,-78.6878 529.1692,-73.9118 533.584,-83.543 538.6266,-78.6878"/>
</g>
<!-- Node35 -->
<g id="node12" class="node">
<title>Node35</title>
<g id="a_node12"><a xlink:href="_coaster_8h.html" target="_top" xlink:title="Coaster/Coaster.h">
<polygon fill="none" stroke="#ff0000" points="182.2612,-110.5 182.2612,-128.5 278.8618,-128.5 278.8618,-110.5 182.2612,-110.5"/>
<text text-anchor="middle" x="230.5615" y="-116.5" font-family="Helvetica,sans-Serif" font-size="10.00" fill="#000000">Coaster/Coaster.h</text>
</a>
</g>
</g>
<!-- Node1&#45;&gt;Node35 -->
<g id="edge16" class="edge">
<title>Node1&#45;&gt;Node35</title>
<path fill="none" stroke="#191970" d="M363.0232,-166.5025C337.4507,-157.4284 295.4292,-142.5176 265.5777,-131.9251"/>
<polygon fill="#191970" stroke="#191970" points="266.5568,-128.5588 255.9621,-128.5131 264.2159,-135.1558 266.5568,-128.5588"/>
</g>
<!-- Node3&#45;&gt;Node4 -->
<g id="edge4" class="edge">
<title>Node3&#45;&gt;Node4</title>
<path fill="none" stroke="#191970" d="M47.3071,-113.1908C81.2254,-104.1787 144.1392,-87.4625 186.6734,-76.1611"/>
<polygon fill="#191970" stroke="#191970" points="187.7189,-79.5048 196.4848,-73.5542 185.9213,-72.7396 187.7189,-79.5048"/>
</g>
<!-- Node5 -->
<g id="node6" class="node">
<title>Node5</title>
<g id="a_node6"><a xlink:href="_file_8h.html" target="_top" xlink:title="../File/File.h">
<polygon fill="none" stroke="#ff0000" points="610.7217,-.5 610.7217,-18.5 678.4014,-18.5 678.4014,-.5 610.7217,-.5"/>
<text text-anchor="middle" x="644.5615" y="-6.5" font-family="Helvetica,sans-Serif" font-size="10.00" fill="#000000">../File/File.h</text>
</a>
</g>
</g>
<!-- Node4&#45;&gt;Node5 -->
<g id="edge5" class="edge">
<title>Node4&#45;&gt;Node5</title>
<path fill="none" stroke="#191970" d="M278.8628,-58.0832C360.0057,-47.3033 522.4568,-25.7216 600.5951,-15.341"/>
<polygon fill="#191970" stroke="#191970" points="601.143,-18.799 610.5949,-14.0125 600.2211,-11.86 601.143,-18.799"/>
</g>
<!-- Node18&#45;&gt;Node4 -->
<g id="edge7" class="edge">
<title>Node18&#45;&gt;Node4</title>
<path fill="none" stroke="#191970" d="M327.4065,-110.4179C308.7681,-101.5807 280.2249,-88.0473 258.9479,-77.9591"/>
<polygon fill="#191970" stroke="#191970" points="260.2803,-74.7174 249.745,-73.5956 257.2813,-81.0424 260.2803,-74.7174"/>
</g>
<!-- Node18&#45;&gt;Node19 -->
<g id="edge8" class="edge">
<title>Node18&#45;&gt;Node19</title>
<path fill="none" stroke="#191970" d="M353.0016,-110.4179C358.4448,-102.7415 366.4007,-91.5217 373.0854,-82.0945"/>
<polygon fill="#191970" stroke="#191970" points="376.0523,-83.9613 378.9815,-73.7795 370.3421,-79.9123 376.0523,-83.9613"/>
</g>
<!-- Node21&#45;&gt;Node4 -->
<g id="edge10" class="edge">
<title>Node21&#45;&gt;Node4</title>
<path fill="none" stroke="#191970" d="M149.5791,-110.4179C164.7434,-101.8195 187.7486,-88.7754 205.369,-78.7844"/>
<polygon fill="#191970" stroke="#191970" points="207.5476,-81.5727 214.5202,-73.5956 204.0948,-75.4834 207.5476,-81.5727"/>
</g>
<!-- Node25&#45;&gt;Node2 -->
<g id="edge12" class="edge">
<title>Node25&#45;&gt;Node2</title>
<path fill="none" stroke="#191970" d="M513.0745,-110.4179C528.8526,-101.7399 552.8644,-88.5334 571.093,-78.5077"/>
<polygon fill="#191970" stroke="#191970" points="572.9486,-81.4816 580.024,-73.5956 569.5751,-75.3481 572.9486,-81.4816"/>
</g>
<!-- Node25&#45;&gt;Node4 -->
<g id="edge13" class="edge">
<title>Node25&#45;&gt;Node4</title>
<path fill="none" stroke="#191970" d="M452.9349,-110.4795C406.7418,-100.9282 333.7779,-85.8417 284.1258,-75.5753"/>
<polygon fill="#191970" stroke="#191970" points="284.7136,-72.1229 274.212,-73.5255 283.2961,-78.9779 284.7136,-72.1229"/>
</g>
<!-- Node25&#45;&gt;Node19 -->
<g id="edge14" class="edge">
<title>Node25&#45;&gt;Node19</title>
<path fill="none" stroke="#191970" d="M478.2321,-110.4179C460.4774,-101.6205 433.3301,-88.1691 412.9999,-78.0956"/>
<polygon fill="#191970" stroke="#191970" points="414.4325,-74.8994 403.9181,-73.5956 411.3246,-81.1716 414.4325,-74.8994"/>
</g>
<!-- Node25&#45;&gt;Node26 -->
<g id="edge15" class="edge">
<title>Node25&#45;&gt;Node26</title>
<path fill="none" stroke="#191970" d="M500.1944,-110.4179C503.1383,-103.0581 507.3851,-92.441 511.0537,-83.2695"/>
<polygon fill="#191970" stroke="#191970" points="514.3854,-84.3641 514.8497,-73.7795 507.8861,-81.7643 514.3854,-84.3641"/>
</g>
<!-- Node35&#45;&gt;Node4 -->
<g id="edge18" class="edge">
<title>Node35&#45;&gt;Node4</title>
<path fill="none" stroke="#191970" d="M230.5615,-110.4179C230.5615,-103.2164 230.5615,-92.8962 230.5615,-83.8632"/>
<polygon fill="#191970" stroke="#191970" points="234.0616,-83.7794 230.5615,-73.7795 227.0616,-83.7795 234.0616,-83.7794"/>
</g>
<!-- Node35&#45;&gt;Node19 -->
<g id="edge17" class="edge">
<title>Node35&#45;&gt;Node19</title>
<path fill="none" stroke="#191970" d="M256.1566,-110.4179C283.0773,-100.8654 325.4623,-85.8255 354.3324,-75.5813"/>
<polygon fill="#191970" stroke="#191970" points="355.6792,-78.8173 363.933,-72.1746 353.3383,-72.2203 355.6792,-78.8173"/>
</g>
<!-- Node67&#45;&gt;Node5 -->
<g id="edge24" class="edge">
<title>Node67&#45;&gt;Node5</title>
<path fill="none" stroke="#191970" d="M659.6555,-165.1561C657.1143,-138.9504 649.8809,-64.3557 646.4332,-28.8021"/>
<polygon fill="#191970" stroke="#191970" points="649.9066,-28.3569 645.4577,-18.7414 642.9393,-29.0325 649.9066,-28.3569"/>
</g>
<!-- Node68 -->
<g id="node15" class="node">
<title>Node68</title>
<polygon fill="none" stroke="#bfbfbf" points="672.8301,-110.5 672.8301,-128.5 718.293,-128.5 718.293,-110.5 672.8301,-110.5"/>
<text text-anchor="middle" x="695.5615" y="-116.5" font-family="Helvetica,sans-Serif" font-size="10.00" fill="#000000">stdio.h</text>
</g>
<!-- Node67&#45;&gt;Node68 -->
<g id="edge25" class="edge">
<title>Node67&#45;&gt;Node68</title>
<path fill="none" stroke="#191970" d="M666.3411,-165.4179C671.1756,-157.8207 678.2189,-146.7527 684.1791,-137.3866"/>
<polygon fill="#191970" stroke="#191970" points="687.2404,-139.0952 689.6564,-128.7795 681.3348,-135.337 687.2404,-139.0952"/>
</g>
<!-- Node69&#45;&gt;Node2 -->
<g id="edge28" class="edge">
<title>Node69&#45;&gt;Node2</title>
<path fill="none" stroke="#191970" d="M756.8566,-110.4179C720.6976,-100.0598 662.0158,-83.2499 626.5767,-73.0981"/>
<polygon fill="#191970" stroke="#191970" points="627.3826,-69.6882 616.8054,-70.299 625.4548,-76.4176 627.3826,-69.6882"/>
</g>
<!-- Node69&#45;&gt;Node5 -->
<g id="edge27" class="edge">
<title>Node69&#45;&gt;Node5</title>
<path fill="none" stroke="#191970" d="M776.7774,-110.4982C752.2008,-91.7244 695.2305,-48.2055 664.7152,-24.8952"/>
<polygon fill="#191970" stroke="#191970" points="666.5799,-21.9152 656.5085,-18.6261 662.3305,-27.4779 666.5799,-21.9152"/>
</g>
</g>
</svg>
