<?xml version="1.0" encoding="UTF-8" standalone="no"?>
<!DOCTYPE svg PUBLIC "-//W3C//DTD SVG 1.1//EN"
 "http://www.w3.org/Graphics/SVG/1.1/DTD/svg11.dtd">
<!-- Generated by graphviz version 2.40.1 (20161225.0304)
 -->
<!-- Title: libnolimits/NL2/Coaster/Track/Parameter4D.h Pages: 1 -->
<svg width="339pt" height="167pt"
 viewBox="0.00 0.00 338.69 167.00" xmlns="http://www.w3.org/2000/svg" xmlns:xlink="http://www.w3.org/1999/xlink">
<g id="graph0" class="graph" transform="scale(1 1) rotate(0) translate(4 163)">
<title>libnolimits/NL2/Coaster/Track/Parameter4D.h</title>
<!-- Node17 -->
<g id="node1" class="node">
<title>Node17</title>
<polygon fill="#bfbfbf" stroke="#000000" points="139,-130.5 139,-158.5 257.8174,-158.5 257.8174,-130.5 139,-130.5"/>
<text text-anchor="start" x="147" y="-146.5" font-family="Helvetica,sans-Serif" font-size="10.00" fill="#000000">libnolimits/NL2/Coaster</text>
<text text-anchor="middle" x="198.4087" y="-136.5" font-family="Helvetica,sans-Serif" font-size="10.00" fill="#000000">/Track/Parameter4D.h</text>
</g>
<!-- Node18 -->
<g id="node2" class="node">
<title>Node18</title>
<g id="a_node2"><a xlink:href="_custom_track_8h.html" target="_top" xlink:title="libnolimits/NL2/Coaster\l/Track/CustomTrack.h">
<polygon fill="none" stroke="#000000" points="69,-65.5 69,-93.5 187.8174,-93.5 187.8174,-65.5 69,-65.5"/>
<text text-anchor="start" x="77" y="-81.5" font-family="Helvetica,sans-Serif" font-size="10.00" fill="#000000">libnolimits/NL2/Coaster</text>
<text text-anchor="middle" x="128.4087" y="-71.5" font-family="Helvetica,sans-Serif" font-size="10.00" fill="#000000">/Track/CustomTrack.h</text>
</a>
</g>
</g>
<!-- Node17&#45;&gt;Node18 -->
<g id="edge1" class="edge">
<title>Node17&#45;&gt;Node18</title>
<path fill="none" stroke="#191970" d="M175.5903,-123.3115C165.09,-113.5612 152.9184,-102.259 143.568,-93.5765"/>
<polygon fill="#191970" stroke="#191970" points="173.5102,-126.1562 183.2197,-130.396 178.2734,-121.0266 173.5102,-126.1562"/>
</g>
<!-- Node24 -->
<g id="node5" class="node">
<title>Node24</title>
<g id="a_node5"><a xlink:href="_parameter4_d_8cpp.html" target="_top" xlink:title="libnolimits/NL2/Coaster\l/Track/Parameter4D.cpp">
<polygon fill="none" stroke="#000000" points="206.1289,-65.5 206.1289,-93.5 330.6885,-93.5 330.6885,-65.5 206.1289,-65.5"/>
<text text-anchor="start" x="214.1289" y="-81.5" font-family="Helvetica,sans-Serif" font-size="10.00" fill="#000000">libnolimits/NL2/Coaster</text>
<text text-anchor="middle" x="268.4087" y="-71.5" font-family="Helvetica,sans-Serif" font-size="10.00" fill="#000000">/Track/Parameter4D.cpp</text>
</a>
</g>
</g>
<!-- Node17&#45;&gt;Node24 -->
<g id="edge4" class="edge">
<title>Node17&#45;&gt;Node24</title>
<path fill="none" stroke="#191970" d="M221.2271,-123.3115C231.7274,-113.5612 243.8989,-102.259 253.2494,-93.5765"/>
<polygon fill="#191970" stroke="#191970" points="218.544,-121.0266 213.5976,-130.396 223.3072,-126.1562 218.544,-121.0266"/>
</g>
<!-- Node19 -->
<g id="node3" class="node">
<title>Node19</title>
<g id="a_node3"><a xlink:href="_coaster_8h.html" target="_top" xlink:title="libnolimits/NL2/Coaster\l/Coaster.h">
<polygon fill="none" stroke="#ff0000" points="0,-.5 0,-28.5 118.8174,-28.5 118.8174,-.5 0,-.5"/>
<text text-anchor="start" x="8" y="-16.5" font-family="Helvetica,sans-Serif" font-size="10.00" fill="#000000">libnolimits/NL2/Coaster</text>
<text text-anchor="middle" x="59.4087" y="-6.5" font-family="Helvetica,sans-Serif" font-size="10.00" fill="#000000">/Coaster.h</text>
</a>
</g>
</g>
<!-- Node18&#45;&gt;Node19 -->
<g id="edge2" class="edge">
<title>Node18&#45;&gt;Node19</title>
<path fill="none" stroke="#191970" d="M105.9163,-58.3115C95.566,-48.5612 83.5683,-37.259 74.3514,-28.5765"/>
<polygon fill="#191970" stroke="#191970" points="103.7579,-61.0866 113.4367,-65.396 108.5577,-55.9914 103.7579,-61.0866"/>
</g>
<!-- Node23 -->
<g id="node4" class="node">
<title>Node23</title>
<g id="a_node4"><a xlink:href="_custom_track_8cpp.html" target="_top" xlink:title="libnolimits/NL2/Coaster\l/Track/CustomTrack.cpp">
<polygon fill="none" stroke="#000000" points="136.3193,-.5 136.3193,-28.5 260.498,-28.5 260.498,-.5 136.3193,-.5"/>
<text text-anchor="start" x="144.3193" y="-16.5" font-family="Helvetica,sans-Serif" font-size="10.00" fill="#000000">libnolimits/NL2/Coaster</text>
<text text-anchor="middle" x="198.4087" y="-6.5" font-family="Helvetica,sans-Serif" font-size="10.00" fill="#000000">/Track/CustomTrack.cpp</text>
</a>
</g>
</g>
<!-- Node18&#45;&gt;Node23 -->
<g id="edge3" class="edge">
<title>Node18&#45;&gt;Node23</title>
<path fill="none" stroke="#191970" d="M151.2271,-58.3115C161.7274,-48.5612 173.8989,-37.259 183.2494,-28.5765"/>
<polygon fill="#191970" stroke="#191970" points="148.544,-56.0266 143.5976,-65.396 153.3072,-61.1562 148.544,-56.0266"/>
</g>
</g>
</svg>
