<?xml version="1.0" encoding="UTF-8" standalone="no"?>
<!DOCTYPE svg PUBLIC "-//W3C//DTD SVG 1.1//EN"
 "http://www.w3.org/Graphics/SVG/1.1/DTD/svg11.dtd">
<!-- Generated by graphviz version 2.40.1 (20161225.0304)
 -->
<!-- Title: libnolimits/NL2/Coaster/Support/RailConnector.h Pages: 1 -->
<svg width="312pt" height="257pt"
 viewBox="0.00 0.00 311.74 257.00" xmlns="http://www.w3.org/2000/svg" xmlns:xlink="http://www.w3.org/1999/xlink">
<g id="graph0" class="graph" transform="scale(1 1) rotate(0) translate(4 253)">
<title>libnolimits/NL2/Coaster/Support/RailConnector.h</title>
<!-- Node0 -->
<g id="node1" class="node">
<title>Node0</title>
<polygon fill="#bfbfbf" stroke="#000000" points="127.2515,-220.5 127.2515,-248.5 254.9897,-248.5 254.9897,-220.5 127.2515,-220.5"/>
<text text-anchor="start" x="135.2515" y="-236.5" font-family="Helvetica,sans-Serif" font-size="10.00" fill="#000000">libnolimits/NL2/Coaster</text>
<text text-anchor="middle" x="191.1206" y="-226.5" font-family="Helvetica,sans-Serif" font-size="10.00" fill="#000000">/Support/RailConnector.h</text>
</g>
<!-- Node1 -->
<g id="node2" class="node">
<title>Node1</title>
<g id="a_node2"><a xlink:href="_chunk_8h.html" target="_top" xlink:title="../../../Stream/Chunk.h">
<polygon fill="none" stroke="#000000" points="36.4902,-110.5 36.4902,-128.5 149.751,-128.5 149.751,-110.5 36.4902,-110.5"/>
<text text-anchor="middle" x="93.1206" y="-116.5" font-family="Helvetica,sans-Serif" font-size="10.00" fill="#000000">../../../Stream/Chunk.h</text>
</a>
</g>
</g>
<!-- Node0&#45;&gt;Node1 -->
<g id="edge1" class="edge">
<title>Node0&#45;&gt;Node1</title>
<path fill="none" stroke="#191970" d="M136.8715,-220.4763C118.4629,-212.8442 99.8546,-201.2919 89.1206,-184 80.7164,-170.4613 82.8689,-152.0914 86.4512,-138.4185"/>
<polygon fill="#191970" stroke="#191970" points="89.8635,-139.2291 89.4562,-128.6421 83.1725,-137.1724 89.8635,-139.2291"/>
</g>
<!-- Node17 -->
<g id="node7" class="node">
<title>Node17</title>
<g id="a_node7"><a xlink:href="_support_node_8h.html" target="_top" xlink:title="SupportNode.h">
<polygon fill="none" stroke="#000000" points="190.4854,-110.5 190.4854,-128.5 273.7559,-128.5 273.7559,-110.5 190.4854,-110.5"/>
<text text-anchor="middle" x="232.1206" y="-116.5" font-family="Helvetica,sans-Serif" font-size="10.00" fill="#000000">SupportNode.h</text>
</a>
</g>
</g>
<!-- Node0&#45;&gt;Node17 -->
<g id="edge8" class="edge">
<title>Node0&#45;&gt;Node17</title>
<path fill="none" stroke="#191970" d="M197.9604,-220.1086C202.5712,-210.1089 208.6119,-196.4032 213.1206,-184 218.6044,-168.9145 223.6786,-151.4268 227.2013,-138.4693"/>
<polygon fill="#191970" stroke="#191970" points="230.5843,-139.3662 229.7703,-128.8027 223.8192,-137.5682 230.5843,-139.3662"/>
</g>
<!-- Node18 -->
<g id="node8" class="node">
<title>Node18</title>
<g id="a_node8"><a xlink:href="_support_parameter_8h.html" target="_top" xlink:title="SupportParameter.h">
<polygon fill="none" stroke="#000000" points="98.3696,-165.5 98.3696,-183.5 203.8716,-183.5 203.8716,-165.5 98.3696,-165.5"/>
<text text-anchor="middle" x="151.1206" y="-171.5" font-family="Helvetica,sans-Serif" font-size="10.00" fill="#000000">SupportParameter.h</text>
</a>
</g>
</g>
<!-- Node0&#45;&gt;Node18 -->
<g id="edge10" class="edge">
<title>Node0&#45;&gt;Node18</title>
<path fill="none" stroke="#191970" d="M181.6412,-220.2808C176.0171,-211.8448 168.8415,-201.0813 162.8611,-192.1107"/>
<polygon fill="#191970" stroke="#191970" points="165.636,-189.9632 157.1767,-183.5842 159.8116,-193.8462 165.636,-189.9632"/>
</g>
<!-- Node19 -->
<g id="node9" class="node">
<title>Node19</title>
<polygon fill="none" stroke="#bfbfbf" points="260.5049,-165.5 260.5049,-183.5 303.7363,-183.5 303.7363,-165.5 260.5049,-165.5"/>
<text text-anchor="middle" x="282.1206" y="-171.5" font-family="Helvetica,sans-Serif" font-size="10.00" fill="#000000">vector</text>
</g>
<!-- Node0&#45;&gt;Node19 -->
<g id="edge12" class="edge">
<title>Node0&#45;&gt;Node19</title>
<path fill="none" stroke="#191970" d="M212.6863,-220.2808C226.8278,-210.9568 245.2815,-198.7895 259.6097,-189.3423"/>
<polygon fill="#191970" stroke="#191970" points="261.9209,-192.0108 268.3429,-183.5842 258.0677,-186.1668 261.9209,-192.0108"/>
</g>
<!-- Node2 -->
<g id="node3" class="node">
<title>Node2</title>
<g id="a_node3"><a xlink:href="_file_8h.html" target="_top" xlink:title="../File/File.h">
<polygon fill="none" stroke="#ff0000" points="28.2808,-55.5 28.2808,-73.5 95.9604,-73.5 95.9604,-55.5 28.2808,-55.5"/>
<text text-anchor="middle" x="62.1206" y="-61.5" font-family="Helvetica,sans-Serif" font-size="10.00" fill="#000000">../File/File.h</text>
</a>
</g>
</g>
<!-- Node1&#45;&gt;Node2 -->
<g id="edge2" class="edge">
<title>Node1&#45;&gt;Node2</title>
<path fill="none" stroke="#191970" d="M88.0016,-110.4179C83.7641,-102.8998 77.611,-91.9829 72.3674,-82.6799"/>
<polygon fill="#191970" stroke="#191970" points="75.3101,-80.7724 67.3508,-73.7795 69.212,-84.2096 75.3101,-80.7724"/>
</g>
<!-- Node6 -->
<g id="node4" class="node">
<title>Node6</title>
<polygon fill="none" stroke="#bfbfbf" points="0,-.5 0,-18.5 48.2412,-18.5 48.2412,-.5 0,-.5"/>
<text text-anchor="middle" x="24.1206" y="-6.5" font-family="Helvetica,sans-Serif" font-size="10.00" fill="#000000">stdint.h</text>
</g>
<!-- Node1&#45;&gt;Node6 -->
<g id="edge6" class="edge">
<title>Node1&#45;&gt;Node6</title>
<path fill="none" stroke="#191970" d="M65.4392,-110.3671C48.7948,-103.2793 28.982,-91.6398 19.1206,-74 11.3364,-60.0759 13.7288,-41.7482 17.4017,-28.1894"/>
<polygon fill="#191970" stroke="#191970" points="20.7835,-29.1026 20.4519,-18.513 14.1073,-26.9981 20.7835,-29.1026"/>
</g>
<!-- Node7 -->
<g id="node5" class="node">
<title>Node7</title>
<g id="a_node5"><a xlink:href="_nolimits_8h.html" target="_top" xlink:title="../Nolimits.h">
<polygon fill="none" stroke="#ff0000" points="90.0049,-.5 90.0049,-18.5 158.2363,-18.5 158.2363,-.5 90.0049,-.5"/>
<text text-anchor="middle" x="124.1206" y="-6.5" font-family="Helvetica,sans-Serif" font-size="10.00" fill="#000000">../Nolimits.h</text>
</a>
</g>
</g>
<!-- Node1&#45;&gt;Node7 -->
<g id="edge5" class="edge">
<title>Node1&#45;&gt;Node7</title>
<path fill="none" stroke="#191970" d="M95.6575,-110.4982C100.6985,-92.6108 112.0702,-52.2594 118.8148,-28.3271"/>
<polygon fill="#191970" stroke="#191970" points="122.2049,-29.2006 121.5487,-18.6261 115.4673,-27.3018 122.2049,-29.2006"/>
</g>
<!-- Node16 -->
<g id="node6" class="node">
<title>Node16</title>
<polygon fill="none" stroke="#bfbfbf" points="152.0591,-55.5 152.0591,-73.5 204.1821,-73.5 204.1821,-55.5 152.0591,-55.5"/>
<text text-anchor="middle" x="178.1206" y="-61.5" font-family="Helvetica,sans-Serif" font-size="10.00" fill="#000000">ostream</text>
</g>
<!-- Node1&#45;&gt;Node16 -->
<g id="edge7" class="edge">
<title>Node1&#45;&gt;Node16</title>
<path fill="none" stroke="#191970" d="M107.1566,-110.4179C120.3219,-101.8992 140.2314,-89.0166 155.6146,-79.0627"/>
<polygon fill="#191970" stroke="#191970" points="157.5694,-81.9667 164.0637,-73.5956 153.7666,-76.0897 157.5694,-81.9667"/>
</g>
<!-- Node2&#45;&gt;Node6 -->
<g id="edge3" class="edge">
<title>Node2&#45;&gt;Node6</title>
<path fill="none" stroke="#191970" d="M55.8457,-55.4179C50.542,-47.7415 42.7902,-36.5217 36.2768,-27.0945"/>
<polygon fill="#191970" stroke="#191970" points="39.0958,-25.0173 30.5319,-18.7795 33.3367,-28.9963 39.0958,-25.0173"/>
</g>
<!-- Node2&#45;&gt;Node7 -->
<g id="edge4" class="edge">
<title>Node2&#45;&gt;Node7</title>
<path fill="none" stroke="#191970" d="M72.3586,-55.4179C81.458,-47.3458 94.9743,-35.3556 105.9133,-25.6517"/>
<polygon fill="#191970" stroke="#191970" points="108.502,-28.0339 113.6601,-18.7795 103.8567,-22.7974 108.502,-28.0339"/>
</g>
<!-- Node17&#45;&gt;Node7 -->
<g id="edge9" class="edge">
<title>Node17&#45;&gt;Node7</title>
<path fill="none" stroke="#191970" d="M231.6377,-110.0978C230.4779,-96.4915 226.5337,-71.1746 213.1206,-55 200.8048,-40.1486 182.3999,-29.6151 165.5177,-22.4502"/>
<polygon fill="#191970" stroke="#191970" points="166.3977,-19.0346 155.8112,-18.6137 163.8246,-25.5446 166.3977,-19.0346"/>
</g>
<!-- Node18&#45;&gt;Node1 -->
<g id="edge11" class="edge">
<title>Node18&#45;&gt;Node1</title>
<path fill="none" stroke="#191970" d="M141.5431,-165.4179C133.1142,-157.425 120.6341,-145.5903 110.455,-135.9377"/>
<polygon fill="#191970" stroke="#191970" points="112.5708,-133.1207 102.9062,-128.7795 107.7541,-138.2001 112.5708,-133.1207"/>
</g>
</g>
</svg>
