<?xml version="1.0" encoding="UTF-8" standalone="no"?>
<!DOCTYPE svg PUBLIC "-//W3C//DTD SVG 1.1//EN"
 "http://www.w3.org/Graphics/SVG/1.1/DTD/svg11.dtd">
<!-- Generated by graphviz version 2.40.1 (20161225.0304)
 -->
<!-- Title: libnolimits/NL2/Coaster/Support/RailNode.h Pages: 1 -->
<svg width="254pt" height="257pt"
 viewBox="0.00 0.00 253.74 257.00" xmlns="http://www.w3.org/2000/svg" xmlns:xlink="http://www.w3.org/1999/xlink">
<g id="graph0" class="graph" transform="scale(1 1) rotate(0) translate(4 253)">
<title>libnolimits/NL2/Coaster/Support/RailNode.h</title>
<!-- Node0 -->
<g id="node1" class="node">
<title>Node0</title>
<polygon fill="#bfbfbf" stroke="#000000" points="73.7119,-220.5 73.7119,-248.5 192.5293,-248.5 192.5293,-220.5 73.7119,-220.5"/>
<text text-anchor="start" x="81.7119" y="-236.5" font-family="Helvetica,sans-Serif" font-size="10.00" fill="#000000">libnolimits/NL2/Coaster</text>
<text text-anchor="middle" x="133.1206" y="-226.5" font-family="Helvetica,sans-Serif" font-size="10.00" fill="#000000">/Support/RailNode.h</text>
</g>
<!-- Node1 -->
<g id="node2" class="node">
<title>Node1</title>
<g id="a_node2"><a xlink:href="_chunk_8h.html" target="_top" xlink:title="../../../Stream/Chunk.h">
<polygon fill="none" stroke="#000000" points="1.4902,-110.5 1.4902,-128.5 114.751,-128.5 114.751,-110.5 1.4902,-110.5"/>
<text text-anchor="middle" x="58.1206" y="-116.5" font-family="Helvetica,sans-Serif" font-size="10.00" fill="#000000">../../../Stream/Chunk.h</text>
</a>
</g>
</g>
<!-- Node0&#45;&gt;Node1 -->
<g id="edge1" class="edge">
<title>Node0&#45;&gt;Node1</title>
<path fill="none" stroke="#191970" d="M78.8715,-220.4763C60.4629,-212.8442 41.8546,-201.2919 31.1206,-184 21.7722,-168.9401 31.8717,-150.0762 42.2753,-136.6471"/>
<polygon fill="#191970" stroke="#191970" points="45.1989,-138.6085 48.9546,-128.7017 39.8406,-134.1042 45.1989,-138.6085"/>
</g>
<!-- Node16 -->
<g id="node6" class="node">
<title>Node16</title>
<g id="a_node6"><a xlink:href="_support_node_8h.html" target="_top" xlink:title="SupportNode.h">
<polygon fill="none" stroke="#000000" points="132.4854,-110.5 132.4854,-128.5 215.7559,-128.5 215.7559,-110.5 132.4854,-110.5"/>
<text text-anchor="middle" x="174.1206" y="-116.5" font-family="Helvetica,sans-Serif" font-size="10.00" fill="#000000">SupportNode.h</text>
</a>
</g>
</g>
<!-- Node0&#45;&gt;Node16 -->
<g id="edge7" class="edge">
<title>Node0&#45;&gt;Node16</title>
<path fill="none" stroke="#191970" d="M139.9604,-220.1086C144.5712,-210.1089 150.6119,-196.4032 155.1206,-184 160.6044,-168.9145 165.6786,-151.4268 169.2013,-138.4693"/>
<polygon fill="#191970" stroke="#191970" points="172.5843,-139.3662 171.7703,-128.8027 165.8192,-137.5682 172.5843,-139.3662"/>
</g>
<!-- Node17 -->
<g id="node7" class="node">
<title>Node17</title>
<g id="a_node7"><a xlink:href="_support_parameter_8h.html" target="_top" xlink:title="SupportParameter.h">
<polygon fill="none" stroke="#000000" points="40.3696,-165.5 40.3696,-183.5 145.8716,-183.5 145.8716,-165.5 40.3696,-165.5"/>
<text text-anchor="middle" x="93.1206" y="-171.5" font-family="Helvetica,sans-Serif" font-size="10.00" fill="#000000">SupportParameter.h</text>
</a>
</g>
</g>
<!-- Node0&#45;&gt;Node17 -->
<g id="edge9" class="edge">
<title>Node0&#45;&gt;Node17</title>
<path fill="none" stroke="#191970" d="M123.6412,-220.2808C118.0171,-211.8448 110.8415,-201.0813 104.8611,-192.1107"/>
<polygon fill="#191970" stroke="#191970" points="107.636,-189.9632 99.1767,-183.5842 101.8116,-193.8462 107.636,-189.9632"/>
</g>
<!-- Node18 -->
<g id="node8" class="node">
<title>Node18</title>
<polygon fill="none" stroke="#bfbfbf" points="202.5049,-165.5 202.5049,-183.5 245.7363,-183.5 245.7363,-165.5 202.5049,-165.5"/>
<text text-anchor="middle" x="224.1206" y="-171.5" font-family="Helvetica,sans-Serif" font-size="10.00" fill="#000000">vector</text>
</g>
<!-- Node0&#45;&gt;Node18 -->
<g id="edge11" class="edge">
<title>Node0&#45;&gt;Node18</title>
<path fill="none" stroke="#191970" d="M154.6863,-220.2808C168.8278,-210.9568 187.2815,-198.7895 201.6097,-189.3423"/>
<polygon fill="#191970" stroke="#191970" points="203.9209,-192.0108 210.3429,-183.5842 200.0677,-186.1668 203.9209,-192.0108"/>
</g>
<!-- Node2 -->
<g id="node3" class="node">
<title>Node2</title>
<g id="a_node3"><a xlink:href="_file_8h.html" target="_top" xlink:title="../File/File.h">
<polygon fill="none" stroke="#ff0000" points="28.2808,-55.5 28.2808,-73.5 95.9604,-73.5 95.9604,-55.5 28.2808,-55.5"/>
<text text-anchor="middle" x="62.1206" y="-61.5" font-family="Helvetica,sans-Serif" font-size="10.00" fill="#000000">../File/File.h</text>
</a>
</g>
</g>
<!-- Node1&#45;&gt;Node2 -->
<g id="edge2" class="edge">
<title>Node1&#45;&gt;Node2</title>
<path fill="none" stroke="#191970" d="M58.7811,-110.4179C59.3049,-103.2164 60.0554,-92.8962 60.7124,-83.8632"/>
<polygon fill="#191970" stroke="#191970" points="64.2111,-84.007 61.4457,-73.7795 57.2295,-83.4992 64.2111,-84.007"/>
</g>
<!-- Node6 -->
<g id="node4" class="node">
<title>Node6</title>
<polygon fill="none" stroke="#bfbfbf" points="0,-.5 0,-18.5 48.2412,-18.5 48.2412,-.5 0,-.5"/>
<text text-anchor="middle" x="24.1206" y="-6.5" font-family="Helvetica,sans-Serif" font-size="10.00" fill="#000000">stdint.h</text>
</g>
<!-- Node1&#45;&gt;Node6 -->
<g id="edge5" class="edge">
<title>Node1&#45;&gt;Node6</title>
<path fill="none" stroke="#191970" d="M46.7572,-110.4169C37.3275,-102.0914 24.6072,-88.8318 19.1206,-74 13.7017,-59.3513 15.6454,-41.5847 18.5519,-28.41"/>
<polygon fill="#191970" stroke="#191970" points="21.9756,-29.1495 21.0792,-18.5926 15.1966,-27.4043 21.9756,-29.1495"/>
</g>
<!-- Node7 -->
<g id="node5" class="node">
<title>Node7</title>
<g id="a_node5"><a xlink:href="_nolimits_8h.html" target="_top" xlink:title="../Nolimits.h">
<polygon fill="none" stroke="#ff0000" points="90.0049,-.5 90.0049,-18.5 158.2363,-18.5 158.2363,-.5 90.0049,-.5"/>
<text text-anchor="middle" x="124.1206" y="-6.5" font-family="Helvetica,sans-Serif" font-size="10.00" fill="#000000">../Nolimits.h</text>
</a>
</g>
</g>
<!-- Node1&#45;&gt;Node7 -->
<g id="edge6" class="edge">
<title>Node1&#45;&gt;Node7</title>
<path fill="none" stroke="#191970" d="M70.6648,-110.3865C81.2915,-102.0414 96.1855,-88.7702 105.1206,-74 113.5231,-60.1101 118.4035,-42.2779 121.1088,-28.885"/>
<polygon fill="#191970" stroke="#191970" points="124.5859,-29.3228 122.8993,-18.8631 117.695,-28.0917 124.5859,-29.3228"/>
</g>
<!-- Node2&#45;&gt;Node6 -->
<g id="edge3" class="edge">
<title>Node2&#45;&gt;Node6</title>
<path fill="none" stroke="#191970" d="M55.8457,-55.4179C50.542,-47.7415 42.7902,-36.5217 36.2768,-27.0945"/>
<polygon fill="#191970" stroke="#191970" points="39.0958,-25.0173 30.5319,-18.7795 33.3367,-28.9963 39.0958,-25.0173"/>
</g>
<!-- Node2&#45;&gt;Node7 -->
<g id="edge4" class="edge">
<title>Node2&#45;&gt;Node7</title>
<path fill="none" stroke="#191970" d="M72.3586,-55.4179C81.458,-47.3458 94.9743,-35.3556 105.9133,-25.6517"/>
<polygon fill="#191970" stroke="#191970" points="108.502,-28.0339 113.6601,-18.7795 103.8567,-22.7974 108.502,-28.0339"/>
</g>
<!-- Node16&#45;&gt;Node7 -->
<g id="edge8" class="edge">
<title>Node16&#45;&gt;Node7</title>
<path fill="none" stroke="#191970" d="M170.0289,-110.4982C161.8616,-92.5302 143.3913,-51.8954 132.5318,-28.0046"/>
<polygon fill="#191970" stroke="#191970" points="135.5932,-26.2815 128.2689,-18.6261 129.2207,-29.1781 135.5932,-26.2815"/>
</g>
<!-- Node17&#45;&gt;Node1 -->
<g id="edge10" class="edge">
<title>Node17&#45;&gt;Node1</title>
<path fill="none" stroke="#191970" d="M87.3411,-165.4179C82.5065,-157.8207 75.4632,-146.7527 69.503,-137.3866"/>
<polygon fill="#191970" stroke="#191970" points="72.3473,-135.337 64.0257,-128.7795 66.4417,-139.0952 72.3473,-135.337"/>
</g>
</g>
</svg>
