<?xml version="1.0" encoding="UTF-8" standalone="no"?>
<!DOCTYPE svg PUBLIC "-//W3C//DTD SVG 1.1//EN"
 "http://www.w3.org/Graphics/SVG/1.1/DTD/svg11.dtd">
<!-- Generated by graphviz version 2.40.1 (20161225.0304)
 -->
<!-- Title: libnolimits/NL2/Coaster/Support/BeamConnection/RailConnectorConnection.cpp Pages: 1 -->
<svg width="160pt" height="157pt"
 viewBox="0.00 0.00 159.63 157.00" xmlns="http://www.w3.org/2000/svg" xmlns:xlink="http://www.w3.org/1999/xlink">
<g id="graph0" class="graph" transform="scale(1 1) rotate(0) translate(4 153)">
<title>libnolimits/NL2/Coaster/Support/BeamConnection/RailConnectorConnection.cpp</title>
<!-- Node0 -->
<g id="node1" class="node">
<title>Node0</title>
<polygon fill="#bfbfbf" stroke="#000000" points="0,-110.5 0,-148.5 151.6348,-148.5 151.6348,-110.5 0,-110.5"/>
<text text-anchor="start" x="8" y="-136.5" font-family="Helvetica,sans-Serif" font-size="10.00" fill="#000000">libnolimits/NL2/Coaster</text>
<text text-anchor="start" x="8" y="-126.5" font-family="Helvetica,sans-Serif" font-size="10.00" fill="#000000">/Support/BeamConnection</text>
<text text-anchor="middle" x="75.8174" y="-116.5" font-family="Helvetica,sans-Serif" font-size="10.00" fill="#000000">/RailConnectorConnection.cpp</text>
</g>
<!-- Node1 -->
<g id="node2" class="node">
<title>Node1</title>
<g id="a_node2"><a xlink:href="_rail_connector_connection_8h.html" target="_top" xlink:title="RailConnectorConnection.h">
<polygon fill="none" stroke="#000000" points="6.6699,-55.5 6.6699,-73.5 144.9648,-73.5 144.9648,-55.5 6.6699,-55.5"/>
<text text-anchor="middle" x="75.8174" y="-61.5" font-family="Helvetica,sans-Serif" font-size="10.00" fill="#000000">RailConnectorConnection.h</text>
</a>
</g>
</g>
<!-- Node0&#45;&gt;Node1 -->
<g id="edge1" class="edge">
<title>Node0&#45;&gt;Node1</title>
<path fill="none" stroke="#191970" d="M75.8174,-110.3494C75.8174,-102.0079 75.8174,-92.2463 75.8174,-83.879"/>
<polygon fill="#191970" stroke="#191970" points="79.3175,-83.5978 75.8174,-73.5978 72.3175,-83.5979 79.3175,-83.5978"/>
</g>
<!-- Node2 -->
<g id="node3" class="node">
<title>Node2</title>
<g id="a_node3"><a xlink:href="_beam_connection_8h.html" target="_top" xlink:title="BeamConnection.h">
<polygon fill="none" stroke="#ff0000" points="25.2905,-.5 25.2905,-18.5 126.3442,-18.5 126.3442,-.5 25.2905,-.5"/>
<text text-anchor="middle" x="75.8174" y="-6.5" font-family="Helvetica,sans-Serif" font-size="10.00" fill="#000000">BeamConnection.h</text>
</a>
</g>
</g>
<!-- Node1&#45;&gt;Node2 -->
<g id="edge2" class="edge">
<title>Node1&#45;&gt;Node2</title>
<path fill="none" stroke="#191970" d="M75.8174,-55.4179C75.8174,-48.2164 75.8174,-37.8962 75.8174,-28.8632"/>
<polygon fill="#191970" stroke="#191970" points="79.3175,-28.7794 75.8174,-18.7795 72.3175,-28.7795 79.3175,-28.7794"/>
</g>
</g>
</svg>
