<?xml version="1.0" encoding="UTF-8" standalone="no"?>
<!DOCTYPE svg PUBLIC "-//W3C//DTD SVG 1.1//EN"
 "http://www.w3.org/Graphics/SVG/1.1/DTD/svg11.dtd">
<!-- Generated by graphviz version 2.40.1 (20161225.0304)
 -->
<!-- Title: libnolimits/NL2/Coaster/Support/RailNode.cpp Pages: 1 -->
<svg width="289pt" height="202pt"
 viewBox="0.00 0.00 288.52 202.00" xmlns="http://www.w3.org/2000/svg" xmlns:xlink="http://www.w3.org/1999/xlink">
<g id="graph0" class="graph" transform="scale(1 1) rotate(0) translate(4 198)">
<title>libnolimits/NL2/Coaster/Support/RailNode.cpp</title>
<!-- Node0 -->
<g id="node1" class="node">
<title>Node0</title>
<polygon fill="#bfbfbf" stroke="#000000" points="51.5004,-165.5 51.5004,-193.5 170.3178,-193.5 170.3178,-165.5 51.5004,-165.5"/>
<text text-anchor="start" x="59.5004" y="-181.5" font-family="Helvetica,sans-Serif" font-size="10.00" fill="#000000">libnolimits/NL2/Coaster</text>
<text text-anchor="middle" x="110.9091" y="-171.5" font-family="Helvetica,sans-Serif" font-size="10.00" fill="#000000">/Support/RailNode.cpp</text>
</g>
<!-- Node1 -->
<g id="node2" class="node">
<title>Node1</title>
<g id="a_node2"><a xlink:href="_rail_node_8h.html" target="_top" xlink:title="RailNode.h">
<polygon fill="none" stroke="#000000" points="78.1728,-110.5 78.1728,-128.5 143.6454,-128.5 143.6454,-110.5 78.1728,-110.5"/>
<text text-anchor="middle" x="110.9091" y="-116.5" font-family="Helvetica,sans-Serif" font-size="10.00" fill="#000000">RailNode.h</text>
</a>
</g>
</g>
<!-- Node0&#45;&gt;Node1 -->
<g id="edge1" class="edge">
<title>Node0&#45;&gt;Node1</title>
<path fill="none" stroke="#191970" d="M110.9091,-165.2808C110.9091,-157.3776 110.9091,-147.4316 110.9091,-138.8308"/>
<polygon fill="#191970" stroke="#191970" points="114.4092,-138.5842 110.9091,-128.5842 107.4092,-138.5842 114.4092,-138.5842"/>
</g>
<!-- Node2 -->
<g id="node3" class="node">
<title>Node2</title>
<g id="a_node3"><a xlink:href="_chunk_8h.html" target="_top" xlink:title="../../../Stream/Chunk.h">
<polygon fill="none" stroke="#ff0000" points="19.2787,-.5 19.2787,-18.5 132.5395,-18.5 132.5395,-.5 19.2787,-.5"/>
<text text-anchor="middle" x="75.9091" y="-6.5" font-family="Helvetica,sans-Serif" font-size="10.00" fill="#000000">../../../Stream/Chunk.h</text>
</a>
</g>
</g>
<!-- Node1&#45;&gt;Node2 -->
<g id="edge2" class="edge">
<title>Node1&#45;&gt;Node2</title>
<path fill="none" stroke="#191970" d="M78.1369,-115.2388C53.13,-110.0785 20.2791,-98.7497 3.9091,-74 -9.9649,-53.0241 17.0757,-34.504 41.8843,-22.7522"/>
<polygon fill="#191970" stroke="#191970" points="43.4937,-25.8665 51.1932,-18.5886 40.6356,-19.4766 43.4937,-25.8665"/>
</g>
<!-- Node17 -->
<g id="node4" class="node">
<title>Node17</title>
<g id="a_node4"><a xlink:href="_support_node_8h.html" target="_top" xlink:title="SupportNode.h">
<polygon fill="none" stroke="#ff0000" points="13.2738,-55.5 13.2738,-73.5 96.5443,-73.5 96.5443,-55.5 13.2738,-55.5"/>
<text text-anchor="middle" x="54.9091" y="-61.5" font-family="Helvetica,sans-Serif" font-size="10.00" fill="#000000">SupportNode.h</text>
</a>
</g>
</g>
<!-- Node1&#45;&gt;Node17 -->
<g id="edge3" class="edge">
<title>Node1&#45;&gt;Node17</title>
<path fill="none" stroke="#191970" d="M101.6618,-110.4179C93.5236,-102.425 81.4738,-90.5903 71.6457,-80.9377"/>
<polygon fill="#191970" stroke="#191970" points="73.9443,-78.2895 64.3573,-73.7795 69.0393,-83.2836 73.9443,-78.2895"/>
</g>
<!-- Node18 -->
<g id="node5" class="node">
<title>Node18</title>
<g id="a_node5"><a xlink:href="_support_parameter_8h.html" target="_top" xlink:title="SupportParameter.h">
<polygon fill="none" stroke="#000000" points="114.1581,-55.5 114.1581,-73.5 219.6601,-73.5 219.6601,-55.5 114.1581,-55.5"/>
<text text-anchor="middle" x="166.9091" y="-61.5" font-family="Helvetica,sans-Serif" font-size="10.00" fill="#000000">SupportParameter.h</text>
</a>
</g>
</g>
<!-- Node1&#45;&gt;Node18 -->
<g id="edge4" class="edge">
<title>Node1&#45;&gt;Node18</title>
<path fill="none" stroke="#191970" d="M120.1563,-110.4179C128.2945,-102.425 140.3444,-90.5903 150.1725,-80.9377"/>
<polygon fill="#191970" stroke="#191970" points="152.7789,-83.2836 157.4609,-73.7795 147.8739,-78.2895 152.7789,-83.2836"/>
</g>
<!-- Node19 -->
<g id="node6" class="node">
<title>Node19</title>
<polygon fill="none" stroke="#bfbfbf" points="237.2934,-55.5 237.2934,-73.5 280.5248,-73.5 280.5248,-55.5 237.2934,-55.5"/>
<text text-anchor="middle" x="258.9091" y="-61.5" font-family="Helvetica,sans-Serif" font-size="10.00" fill="#000000">vector</text>
</g>
<!-- Node1&#45;&gt;Node19 -->
<g id="edge6" class="edge">
<title>Node1&#45;&gt;Node19</title>
<path fill="none" stroke="#191970" d="M135.3483,-110.4179C160.5022,-101.0701 199.7958,-86.4678 227.3002,-76.2466"/>
<polygon fill="#191970" stroke="#191970" points="228.6975,-79.4612 236.8519,-72.6969 226.259,-72.8997 228.6975,-79.4612"/>
</g>
<!-- Node18&#45;&gt;Node2 -->
<g id="edge5" class="edge">
<title>Node18&#45;&gt;Node2</title>
<path fill="none" stroke="#191970" d="M151.8823,-55.4179C137.656,-46.8195 116.0738,-33.7754 99.5433,-23.7844"/>
<polygon fill="#191970" stroke="#191970" points="101.3269,-20.7729 90.9582,-18.5956 97.7061,-26.7637 101.3269,-20.7729"/>
</g>
</g>
</svg>
