<?xml version="1.0" encoding="UTF-8" standalone="no"?>
<!DOCTYPE svg PUBLIC "-//W3C//DTD SVG 1.1//EN"
 "http://www.w3.org/Graphics/SVG/1.1/DTD/svg11.dtd">
<!-- Generated by graphviz version 2.40.1 (20161225.0304)
 -->
<!-- Title: libnolimits/NL2/Coaster/Support/RailConnector.h Pages: 1 -->
<svg width="353pt" height="167pt"
 viewBox="0.00 0.00 352.56 167.00" xmlns="http://www.w3.org/2000/svg" xmlns:xlink="http://www.w3.org/1999/xlink">
<g id="graph0" class="graph" transform="scale(1 1) rotate(0) translate(4 163)">
<title>libnolimits/NL2/Coaster/Support/RailConnector.h</title>
<!-- Node19 -->
<g id="node1" class="node">
<title>Node19</title>
<polygon fill="#bfbfbf" stroke="#000000" points="137.5396,-130.5 137.5396,-158.5 265.2778,-158.5 265.2778,-130.5 137.5396,-130.5"/>
<text text-anchor="start" x="145.5396" y="-146.5" font-family="Helvetica,sans-Serif" font-size="10.00" fill="#000000">libnolimits/NL2/Coaster</text>
<text text-anchor="middle" x="201.4087" y="-136.5" font-family="Helvetica,sans-Serif" font-size="10.00" fill="#000000">/Support/RailConnector.h</text>
</g>
<!-- Node20 -->
<g id="node2" class="node">
<title>Node20</title>
<g id="a_node2"><a xlink:href="_custom_track_8h.html" target="_top" xlink:title="libnolimits/NL2/Coaster\l/Track/CustomTrack.h">
<polygon fill="none" stroke="#000000" points="69,-65.5 69,-93.5 187.8174,-93.5 187.8174,-65.5 69,-65.5"/>
<text text-anchor="start" x="77" y="-81.5" font-family="Helvetica,sans-Serif" font-size="10.00" fill="#000000">libnolimits/NL2/Coaster</text>
<text text-anchor="middle" x="128.4087" y="-71.5" font-family="Helvetica,sans-Serif" font-size="10.00" fill="#000000">/Track/CustomTrack.h</text>
</a>
</g>
</g>
<!-- Node19&#45;&gt;Node20 -->
<g id="edge1" class="edge">
<title>Node19&#45;&gt;Node20</title>
<path fill="none" stroke="#191970" d="M177.9339,-123.5978C166.9112,-113.7831 154.0645,-102.3442 144.2177,-93.5765"/>
<polygon fill="#191970" stroke="#191970" points="175.7728,-126.3599 185.5688,-130.396 180.4278,-121.132 175.7728,-126.3599"/>
</g>
<!-- Node26 -->
<g id="node5" class="node">
<title>Node26</title>
<g id="a_node5"><a xlink:href="_rail_connector_8cpp.html" target="_top" xlink:title="libnolimits/NL2/Coaster\l/Support/RailConnector.cpp">
<polygon fill="none" stroke="#000000" points="206.2588,-65.5 206.2588,-93.5 344.5586,-93.5 344.5586,-65.5 206.2588,-65.5"/>
<text text-anchor="start" x="214.2588" y="-81.5" font-family="Helvetica,sans-Serif" font-size="10.00" fill="#000000">libnolimits/NL2/Coaster</text>
<text text-anchor="middle" x="275.4087" y="-71.5" font-family="Helvetica,sans-Serif" font-size="10.00" fill="#000000">/Support/RailConnector.cpp</text>
</a>
</g>
</g>
<!-- Node19&#45;&gt;Node26 -->
<g id="edge4" class="edge">
<title>Node19&#45;&gt;Node26</title>
<path fill="none" stroke="#191970" d="M225.2051,-123.5978C236.3787,-113.7831 249.4015,-102.3442 259.3831,-93.5765"/>
<polygon fill="#191970" stroke="#191970" points="222.669,-121.1669 217.4656,-130.396 227.2886,-126.4261 222.669,-121.1669"/>
</g>
<!-- Node21 -->
<g id="node3" class="node">
<title>Node21</title>
<g id="a_node3"><a xlink:href="_coaster_8h.html" target="_top" xlink:title="libnolimits/NL2/Coaster\l/Coaster.h">
<polygon fill="none" stroke="#ff0000" points="0,-.5 0,-28.5 118.8174,-28.5 118.8174,-.5 0,-.5"/>
<text text-anchor="start" x="8" y="-16.5" font-family="Helvetica,sans-Serif" font-size="10.00" fill="#000000">libnolimits/NL2/Coaster</text>
<text text-anchor="middle" x="59.4087" y="-6.5" font-family="Helvetica,sans-Serif" font-size="10.00" fill="#000000">/Coaster.h</text>
</a>
</g>
</g>
<!-- Node20&#45;&gt;Node21 -->
<g id="edge2" class="edge">
<title>Node20&#45;&gt;Node21</title>
<path fill="none" stroke="#191970" d="M105.9163,-58.3115C95.566,-48.5612 83.5683,-37.259 74.3514,-28.5765"/>
<polygon fill="#191970" stroke="#191970" points="103.7579,-61.0866 113.4367,-65.396 108.5577,-55.9914 103.7579,-61.0866"/>
</g>
<!-- Node25 -->
<g id="node4" class="node">
<title>Node25</title>
<g id="a_node4"><a xlink:href="_custom_track_8cpp.html" target="_top" xlink:title="libnolimits/NL2/Coaster\l/Track/CustomTrack.cpp">
<polygon fill="none" stroke="#000000" points="136.3193,-.5 136.3193,-28.5 260.498,-28.5 260.498,-.5 136.3193,-.5"/>
<text text-anchor="start" x="144.3193" y="-16.5" font-family="Helvetica,sans-Serif" font-size="10.00" fill="#000000">libnolimits/NL2/Coaster</text>
<text text-anchor="middle" x="198.4087" y="-6.5" font-family="Helvetica,sans-Serif" font-size="10.00" fill="#000000">/Track/CustomTrack.cpp</text>
</a>
</g>
</g>
<!-- Node20&#45;&gt;Node25 -->
<g id="edge3" class="edge">
<title>Node20&#45;&gt;Node25</title>
<path fill="none" stroke="#191970" d="M151.2271,-58.3115C161.7274,-48.5612 173.8989,-37.259 183.2494,-28.5765"/>
<polygon fill="#191970" stroke="#191970" points="148.544,-56.0266 143.5976,-65.396 153.3072,-61.1562 148.544,-56.0266"/>
</g>
</g>
</svg>
