<?xml version="1.0" encoding="UTF-8" standalone="no"?>
<!DOCTYPE svg PUBLIC "-//W3C//DTD SVG 1.1//EN"
 "http://www.w3.org/Graphics/SVG/1.1/DTD/svg11.dtd">
<!-- Generated by graphviz version 2.40.1 (20161225.0304)
 -->
<!-- Title: libnolimits/NL2/Coaster/ResourceFile.cpp Pages: 1 -->
<svg width="175pt" height="147pt"
 viewBox="0.00 0.00 174.64 147.00" xmlns="http://www.w3.org/2000/svg" xmlns:xlink="http://www.w3.org/1999/xlink">
<g id="graph0" class="graph" transform="scale(1 1) rotate(0) translate(4 143)">
<title>libnolimits/NL2/Coaster/ResourceFile.cpp</title>
<!-- Node0 -->
<g id="node1" class="node">
<title>Node0</title>
<polygon fill="#bfbfbf" stroke="#000000" points="36.0542,-110.5 36.0542,-138.5 154.8716,-138.5 154.8716,-110.5 36.0542,-110.5"/>
<text text-anchor="start" x="44.0542" y="-126.5" font-family="Helvetica,sans-Serif" font-size="10.00" fill="#000000">libnolimits/NL2/Coaster</text>
<text text-anchor="middle" x="95.4629" y="-116.5" font-family="Helvetica,sans-Serif" font-size="10.00" fill="#000000">/ResourceFile.cpp</text>
</g>
<!-- Node1 -->
<g id="node2" class="node">
<title>Node1</title>
<g id="a_node2"><a xlink:href="_resource_file_8h.html" target="_top" xlink:title="ResourceFile.h">
<polygon fill="none" stroke="#000000" points="10.8374,-55.5 10.8374,-73.5 94.0884,-73.5 94.0884,-55.5 10.8374,-55.5"/>
<text text-anchor="middle" x="52.4629" y="-61.5" font-family="Helvetica,sans-Serif" font-size="10.00" fill="#000000">ResourceFile.h</text>
</a>
</g>
</g>
<!-- Node0&#45;&gt;Node1 -->
<g id="edge1" class="edge">
<title>Node0&#45;&gt;Node1</title>
<path fill="none" stroke="#191970" d="M85.2725,-110.2808C79.163,-101.756 71.3502,-90.8545 64.8813,-81.8281"/>
<polygon fill="#191970" stroke="#191970" points="67.6433,-79.6735 58.9732,-73.5842 61.9536,-83.7512 67.6433,-79.6735"/>
</g>
<!-- Node11 -->
<g id="node4" class="node">
<title>Node11</title>
<polygon fill="none" stroke="#bfbfbf" points="112.2905,-55.5 112.2905,-73.5 166.6353,-73.5 166.6353,-55.5 112.2905,-55.5"/>
<text text-anchor="middle" x="139.4629" y="-61.5" font-family="Helvetica,sans-Serif" font-size="10.00" fill="#000000">iostream</text>
</g>
<!-- Node0&#45;&gt;Node11 -->
<g id="edge3" class="edge">
<title>Node0&#45;&gt;Node11</title>
<path fill="none" stroke="#191970" d="M105.8903,-110.2808C112.1418,-101.756 120.1363,-90.8545 126.7556,-81.8281"/>
<polygon fill="#191970" stroke="#191970" points="129.7099,-83.718 132.8012,-73.5842 124.0651,-79.5785 129.7099,-83.718"/>
</g>
<!-- Node2 -->
<g id="node3" class="node">
<title>Node2</title>
<g id="a_node3"><a xlink:href="_chunk_8h.html" target="_top" xlink:title="../../Stream/Chunk.h">
<polygon fill="none" stroke="#ff0000" points="0,-.5 0,-18.5 104.9258,-18.5 104.9258,-.5 0,-.5"/>
<text text-anchor="middle" x="52.4629" y="-6.5" font-family="Helvetica,sans-Serif" font-size="10.00" fill="#000000">../../Stream/Chunk.h</text>
</a>
</g>
</g>
<!-- Node1&#45;&gt;Node2 -->
<g id="edge2" class="edge">
<title>Node1&#45;&gt;Node2</title>
<path fill="none" stroke="#191970" d="M52.4629,-55.4179C52.4629,-48.2164 52.4629,-37.8962 52.4629,-28.8632"/>
<polygon fill="#191970" stroke="#191970" points="55.963,-28.7794 52.4629,-18.7795 48.963,-28.7795 55.963,-28.7794"/>
</g>
</g>
</svg>
