<?xml version="1.0" encoding="UTF-8" standalone="no"?>
<!DOCTYPE svg PUBLIC "-//W3C//DTD SVG 1.1//EN"
 "http://www.w3.org/Graphics/SVG/1.1/DTD/svg11.dtd">
<!-- Generated by graphviz version 2.40.1 (20161225.0304)
 -->
<!-- Title: libnolimits/NL2/Scenery/Scenery.h Pages: 1 -->
<svg width="205pt" height="257pt"
 viewBox="0.00 0.00 204.74 257.00" xmlns="http://www.w3.org/2000/svg" xmlns:xlink="http://www.w3.org/1999/xlink">
<g id="graph0" class="graph" transform="scale(1 1) rotate(0) translate(4 253)">
<title>libnolimits/NL2/Scenery/Scenery.h</title>
<!-- Node0 -->
<g id="node1" class="node">
<title>Node0</title>
<polygon fill="#bfbfbf" stroke="#000000" points="47.877,-220.5 47.877,-248.5 168.3643,-248.5 168.3643,-220.5 47.877,-220.5"/>
<text text-anchor="start" x="55.877" y="-236.5" font-family="Helvetica,sans-Serif" font-size="10.00" fill="#000000">libnolimits/NL2/Scenery</text>
<text text-anchor="middle" x="108.1206" y="-226.5" font-family="Helvetica,sans-Serif" font-size="10.00" fill="#000000">/Scenery.h</text>
</g>
<!-- Node1 -->
<g id="node2" class="node">
<title>Node1</title>
<g id="a_node2"><a xlink:href="_chunk_8h.html" target="_top" xlink:title="../../Stream/Chunk.h">
<polygon fill="none" stroke="#000000" points="9.6577,-110.5 9.6577,-128.5 114.5835,-128.5 114.5835,-110.5 9.6577,-110.5"/>
<text text-anchor="middle" x="62.1206" y="-116.5" font-family="Helvetica,sans-Serif" font-size="10.00" fill="#000000">../../Stream/Chunk.h</text>
</a>
</g>
</g>
<!-- Node0&#45;&gt;Node1 -->
<g id="edge1" class="edge">
<title>Node0&#45;&gt;Node1</title>
<path fill="none" stroke="#191970" d="M77.2143,-220.3364C62.845,-211.9753 47.1802,-199.8862 39.1206,-184 31.3415,-168.6666 39.6925,-150.0724 48.4313,-136.7955"/>
<polygon fill="#191970" stroke="#191970" points="51.3568,-138.7221 54.3497,-128.5588 45.6721,-134.6374 51.3568,-138.7221"/>
</g>
<!-- Node16 -->
<g id="node6" class="node">
<title>Node16</title>
<polygon fill="none" stroke="#bfbfbf" points="153.5049,-110.5 153.5049,-128.5 196.7363,-128.5 196.7363,-110.5 153.5049,-110.5"/>
<text text-anchor="middle" x="175.1206" y="-116.5" font-family="Helvetica,sans-Serif" font-size="10.00" fill="#000000">vector</text>
</g>
<!-- Node0&#45;&gt;Node16 -->
<g id="edge7" class="edge">
<title>Node0&#45;&gt;Node16</title>
<path fill="none" stroke="#191970" d="M139.0269,-220.3364C153.3962,-211.9753 169.061,-199.8862 177.1206,-184 184.1694,-170.1062 182.97,-152.2743 180.4036,-138.8825"/>
<polygon fill="#191970" stroke="#191970" points="183.748,-137.8112 178.0772,-128.8617 176.9293,-139.3942 183.748,-137.8112"/>
</g>
<!-- Node17 -->
<g id="node7" class="node">
<title>Node17</title>
<g id="a_node7"><a xlink:href="_scene_object_instance_8h.html" target="_top" xlink:title="SceneObjectInstance.h">
<polygon fill="none" stroke="#000000" points="48.4214,-165.5 48.4214,-183.5 167.8198,-183.5 167.8198,-165.5 48.4214,-165.5"/>
<text text-anchor="middle" x="108.1206" y="-171.5" font-family="Helvetica,sans-Serif" font-size="10.00" fill="#000000">SceneObjectInstance.h</text>
</a>
</g>
</g>
<!-- Node0&#45;&gt;Node17 -->
<g id="edge8" class="edge">
<title>Node0&#45;&gt;Node17</title>
<path fill="none" stroke="#191970" d="M108.1206,-220.2808C108.1206,-212.3776 108.1206,-202.4316 108.1206,-193.8308"/>
<polygon fill="#191970" stroke="#191970" points="111.6207,-193.5842 108.1206,-183.5842 104.6207,-193.5842 111.6207,-193.5842"/>
</g>
<!-- Node2 -->
<g id="node3" class="node">
<title>Node2</title>
<g id="a_node3"><a xlink:href="_file_8h.html" target="_top" xlink:title="../File/File.h">
<polygon fill="none" stroke="#ff0000" points="28.2808,-55.5 28.2808,-73.5 95.9604,-73.5 95.9604,-55.5 28.2808,-55.5"/>
<text text-anchor="middle" x="62.1206" y="-61.5" font-family="Helvetica,sans-Serif" font-size="10.00" fill="#000000">../File/File.h</text>
</a>
</g>
</g>
<!-- Node1&#45;&gt;Node2 -->
<g id="edge2" class="edge">
<title>Node1&#45;&gt;Node2</title>
<path fill="none" stroke="#191970" d="M62.1206,-110.4179C62.1206,-103.2164 62.1206,-92.8962 62.1206,-83.8632"/>
<polygon fill="#191970" stroke="#191970" points="65.6207,-83.7794 62.1206,-73.7795 58.6207,-83.7795 65.6207,-83.7794"/>
</g>
<!-- Node6 -->
<g id="node4" class="node">
<title>Node6</title>
<polygon fill="none" stroke="#bfbfbf" points="0,-.5 0,-18.5 48.2412,-18.5 48.2412,-.5 0,-.5"/>
<text text-anchor="middle" x="24.1206" y="-6.5" font-family="Helvetica,sans-Serif" font-size="10.00" fill="#000000">stdint.h</text>
</g>
<!-- Node1&#45;&gt;Node6 -->
<g id="edge5" class="edge">
<title>Node1&#45;&gt;Node6</title>
<path fill="none" stroke="#191970" d="M49.2082,-110.3491C38.8735,-102.1662 25.1462,-89.1487 19.1206,-74 13.3479,-59.4871 15.3222,-41.7087 18.3304,-28.495"/>
<polygon fill="#191970" stroke="#191970" points="21.7633,-29.2048 20.9531,-18.641 14.9987,-27.4044 21.7633,-29.2048"/>
</g>
<!-- Node7 -->
<g id="node5" class="node">
<title>Node7</title>
<g id="a_node5"><a xlink:href="_nolimits_8h.html" target="_top" xlink:title="../Nolimits.h">
<polygon fill="none" stroke="#ff0000" points="78.0049,-.5 78.0049,-18.5 146.2363,-18.5 146.2363,-.5 78.0049,-.5"/>
<text text-anchor="middle" x="112.1206" y="-6.5" font-family="Helvetica,sans-Serif" font-size="10.00" fill="#000000">../Nolimits.h</text>
</a>
</g>
</g>
<!-- Node1&#45;&gt;Node7 -->
<g id="edge6" class="edge">
<title>Node1&#45;&gt;Node7</title>
<path fill="none" stroke="#191970" d="M74.2152,-110.4994C84.3337,-102.2267 98.1942,-88.9984 105.1206,-74 111.622,-59.9218 113.1552,-42.3317 113.1836,-29.0784"/>
<polygon fill="#191970" stroke="#191970" points="116.6735,-28.6484 112.9081,-18.7453 109.6759,-28.835 116.6735,-28.6484"/>
</g>
<!-- Node2&#45;&gt;Node6 -->
<g id="edge3" class="edge">
<title>Node2&#45;&gt;Node6</title>
<path fill="none" stroke="#191970" d="M55.8457,-55.4179C50.542,-47.7415 42.7902,-36.5217 36.2768,-27.0945"/>
<polygon fill="#191970" stroke="#191970" points="39.0958,-25.0173 30.5319,-18.7795 33.3367,-28.9963 39.0958,-25.0173"/>
</g>
<!-- Node2&#45;&gt;Node7 -->
<g id="edge4" class="edge">
<title>Node2&#45;&gt;Node7</title>
<path fill="none" stroke="#191970" d="M70.3771,-55.4179C77.5714,-47.5041 88.1894,-35.8243 96.916,-26.2251"/>
<polygon fill="#191970" stroke="#191970" points="99.5478,-28.5332 103.6847,-18.7795 94.3682,-23.8245 99.5478,-28.5332"/>
</g>
<!-- Node17&#45;&gt;Node1 -->
<g id="edge9" class="edge">
<title>Node17&#45;&gt;Node1</title>
<path fill="none" stroke="#191970" d="M100.5246,-165.4179C93.9721,-157.5833 84.3324,-146.0575 76.3502,-136.5137"/>
<polygon fill="#191970" stroke="#191970" points="78.982,-134.2048 69.8816,-128.7795 73.6124,-138.6957 78.982,-134.2048"/>
</g>
<!-- Node17&#45;&gt;Node16 -->
<g id="edge10" class="edge">
<title>Node17&#45;&gt;Node16</title>
<path fill="none" stroke="#191970" d="M119.1843,-165.4179C129.1139,-157.2667 143.9106,-145.1201 155.7918,-135.3669"/>
<polygon fill="#191970" stroke="#191970" points="158.308,-137.8297 163.8165,-128.7795 153.8665,-132.4192 158.308,-137.8297"/>
</g>
</g>
</svg>
