<?xml version="1.0" encoding="UTF-8" standalone="no"?>
<!DOCTYPE svg PUBLIC "-//W3C//DTD SVG 1.1//EN"
 "http://www.w3.org/Graphics/SVG/1.1/DTD/svg11.dtd">
<!-- Generated by graphviz version 2.40.1 (20161225.0304)
 -->
<!-- Title: libnolimits/NL2/Scenery/SceneObjectInstance.cpp Pages: 1 -->
<svg width="239pt" height="147pt"
 viewBox="0.00 0.00 238.64 147.00" xmlns="http://www.w3.org/2000/svg" xmlns:xlink="http://www.w3.org/1999/xlink">
<g id="graph0" class="graph" transform="scale(1 1) rotate(0) translate(4 143)">
<title>libnolimits/NL2/Scenery/SceneObjectInstance.cpp</title>
<!-- Node0 -->
<g id="node1" class="node">
<title>Node0</title>
<polygon fill="#bfbfbf" stroke="#000000" points="84.0938,-110.5 84.0938,-138.5 216.832,-138.5 216.832,-110.5 84.0938,-110.5"/>
<text text-anchor="start" x="92.0938" y="-126.5" font-family="Helvetica,sans-Serif" font-size="10.00" fill="#000000">libnolimits/NL2/Scenery</text>
<text text-anchor="middle" x="150.4629" y="-116.5" font-family="Helvetica,sans-Serif" font-size="10.00" fill="#000000">/SceneObjectInstance.cpp</text>
</g>
<!-- Node1 -->
<g id="node2" class="node">
<title>Node1</title>
<g id="a_node2"><a xlink:href="_scene_object_instance_8h.html" target="_top" xlink:title="SceneObjectInstance.h">
<polygon fill="none" stroke="#000000" points="38.7637,-55.5 38.7637,-73.5 158.1621,-73.5 158.1621,-55.5 38.7637,-55.5"/>
<text text-anchor="middle" x="98.4629" y="-61.5" font-family="Helvetica,sans-Serif" font-size="10.00" fill="#000000">SceneObjectInstance.h</text>
</a>
</g>
</g>
<!-- Node0&#45;&gt;Node1 -->
<g id="edge1" class="edge">
<title>Node0&#45;&gt;Node1</title>
<path fill="none" stroke="#191970" d="M138.1396,-110.2808C130.5975,-101.5784 120.9089,-90.3992 112.9938,-81.2664"/>
<polygon fill="#191970" stroke="#191970" points="115.5301,-78.8488 106.3359,-73.5842 110.2403,-83.4334 115.5301,-78.8488"/>
</g>
<!-- Node11 -->
<g id="node5" class="node">
<title>Node11</title>
<polygon fill="none" stroke="#bfbfbf" points="176.2905,-55.5 176.2905,-73.5 230.6353,-73.5 230.6353,-55.5 176.2905,-55.5"/>
<text text-anchor="middle" x="203.4629" y="-61.5" font-family="Helvetica,sans-Serif" font-size="10.00" fill="#000000">iostream</text>
</g>
<!-- Node0&#45;&gt;Node11 -->
<g id="edge4" class="edge">
<title>Node0&#45;&gt;Node11</title>
<path fill="none" stroke="#191970" d="M163.0232,-110.2808C170.7103,-101.5784 180.5853,-90.3992 188.6526,-81.2664"/>
<polygon fill="#191970" stroke="#191970" points="191.4413,-83.3961 195.4385,-73.5842 186.195,-78.7618 191.4413,-83.3961"/>
</g>
<!-- Node2 -->
<g id="node3" class="node">
<title>Node2</title>
<g id="a_node3"><a xlink:href="_chunk_8h.html" target="_top" xlink:title="../../Stream/Chunk.h">
<polygon fill="none" stroke="#ff0000" points="0,-.5 0,-18.5 104.9258,-18.5 104.9258,-.5 0,-.5"/>
<text text-anchor="middle" x="52.4629" y="-6.5" font-family="Helvetica,sans-Serif" font-size="10.00" fill="#000000">../../Stream/Chunk.h</text>
</a>
</g>
</g>
<!-- Node1&#45;&gt;Node2 -->
<g id="edge2" class="edge">
<title>Node1&#45;&gt;Node2</title>
<path fill="none" stroke="#191970" d="M90.8669,-55.4179C84.3143,-47.5833 74.6746,-36.0575 66.6925,-26.5137"/>
<polygon fill="#191970" stroke="#191970" points="69.3243,-24.2048 60.2239,-18.7795 63.9547,-28.6957 69.3243,-24.2048"/>
</g>
<!-- Node17 -->
<g id="node4" class="node">
<title>Node17</title>
<polygon fill="none" stroke="#bfbfbf" points="122.8472,-.5 122.8472,-18.5 166.0786,-18.5 166.0786,-.5 122.8472,-.5"/>
<text text-anchor="middle" x="144.4629" y="-6.5" font-family="Helvetica,sans-Serif" font-size="10.00" fill="#000000">vector</text>
</g>
<!-- Node1&#45;&gt;Node17 -->
<g id="edge3" class="edge">
<title>Node1&#45;&gt;Node17</title>
<path fill="none" stroke="#191970" d="M106.0589,-55.4179C112.6114,-47.5833 122.2511,-36.0575 130.2333,-26.5137"/>
<polygon fill="#191970" stroke="#191970" points="132.9711,-28.6957 136.7019,-18.7795 127.6015,-24.2048 132.9711,-28.6957"/>
</g>
</g>
</svg>
