<?xml version="1.0" encoding="UTF-8" standalone="no"?>
<!DOCTYPE svg PUBLIC "-//W3C//DTD SVG 1.1//EN"
 "http://www.w3.org/Graphics/SVG/1.1/DTD/svg11.dtd">
<!-- Generated by graphviz version 2.40.1 (20161225.0304)
 -->
<!-- Title: libnolimits/NL2/Scenery/SceneObjectInstance.h Pages: 1 -->
<svg width="343pt" height="167pt"
 viewBox="0.00 0.00 342.72 167.00" xmlns="http://www.w3.org/2000/svg" xmlns:xlink="http://www.w3.org/1999/xlink">
<g id="graph0" class="graph" transform="scale(1 1) rotate(0) translate(4 163)">
<title>libnolimits/NL2/Scenery/SceneObjectInstance.h</title>
<!-- Node18 -->
<g id="node1" class="node">
<title>Node18</title>
<polygon fill="#bfbfbf" stroke="#000000" points="134.2637,-130.5 134.2637,-158.5 256.4404,-158.5 256.4404,-130.5 134.2637,-130.5"/>
<text text-anchor="start" x="142.2637" y="-146.5" font-family="Helvetica,sans-Serif" font-size="10.00" fill="#000000">libnolimits/NL2/Scenery</text>
<text text-anchor="middle" x="195.3521" y="-136.5" font-family="Helvetica,sans-Serif" font-size="10.00" fill="#000000">/SceneObjectInstance.h</text>
</g>
<!-- Node19 -->
<g id="node2" class="node">
<title>Node19</title>
<g id="a_node2"><a xlink:href="_scenery_8h.html" target="_top" xlink:title="libnolimits/NL2/Scenery\l/Scenery.h">
<polygon fill="none" stroke="#000000" points="63.1084,-65.5 63.1084,-93.5 183.5957,-93.5 183.5957,-65.5 63.1084,-65.5"/>
<text text-anchor="start" x="71.1084" y="-81.5" font-family="Helvetica,sans-Serif" font-size="10.00" fill="#000000">libnolimits/NL2/Scenery</text>
<text text-anchor="middle" x="123.3521" y="-71.5" font-family="Helvetica,sans-Serif" font-size="10.00" fill="#000000">/Scenery.h</text>
</a>
</g>
</g>
<!-- Node18&#45;&gt;Node19 -->
<g id="edge1" class="edge">
<title>Node18&#45;&gt;Node19</title>
<path fill="none" stroke="#191970" d="M172.1988,-123.5978C161.3271,-113.7831 148.6564,-102.3442 138.9445,-93.5765"/>
<polygon fill="#191970" stroke="#191970" points="169.961,-126.2929 179.7291,-130.396 174.6518,-121.097 169.961,-126.2929"/>
</g>
<!-- Node23 -->
<g id="node5" class="node">
<title>Node23</title>
<g id="a_node5"><a xlink:href="_scene_object_instance_8cpp.html" target="_top" xlink:title="libnolimits/NL2/Scenery\l/SceneObjectInstance.cpp">
<polygon fill="none" stroke="#000000" points="201.9829,-65.5 201.9829,-93.5 334.7212,-93.5 334.7212,-65.5 201.9829,-65.5"/>
<text text-anchor="start" x="209.9829" y="-81.5" font-family="Helvetica,sans-Serif" font-size="10.00" fill="#000000">libnolimits/NL2/Scenery</text>
<text text-anchor="middle" x="268.3521" y="-71.5" font-family="Helvetica,sans-Serif" font-size="10.00" fill="#000000">/SceneObjectInstance.cpp</text>
</a>
</g>
</g>
<!-- Node18&#45;&gt;Node23 -->
<g id="edge4" class="edge">
<title>Node18&#45;&gt;Node23</title>
<path fill="none" stroke="#191970" d="M218.8268,-123.5978C229.8495,-113.7831 242.6963,-102.3442 252.5431,-93.5765"/>
<polygon fill="#191970" stroke="#191970" points="216.3329,-121.132 211.192,-130.396 220.9879,-126.3599 216.3329,-121.132"/>
</g>
<!-- Node20 -->
<g id="node3" class="node">
<title>Node20</title>
<g id="a_node3"><a xlink:href="_park_8h.html" target="_top" xlink:title="libnolimits/NL2/Park.h">
<polygon fill="none" stroke="#ff0000" points="0,-5.5 0,-23.5 112.7041,-23.5 112.7041,-5.5 0,-5.5"/>
<text text-anchor="middle" x="56.3521" y="-11.5" font-family="Helvetica,sans-Serif" font-size="10.00" fill="#000000">libnolimits/NL2/Park.h</text>
</a>
</g>
</g>
<!-- Node19&#45;&gt;Node20 -->
<g id="edge2" class="edge">
<title>Node19&#45;&gt;Node20</title>
<path fill="none" stroke="#191970" d="M101.6249,-58.4214C89.4782,-46.6373 74.9657,-32.558 65.7056,-23.5743"/>
<polygon fill="#191970" stroke="#191970" points="99.1995,-60.9449 108.814,-65.396 104.0737,-55.9207 99.1995,-60.9449"/>
</g>
<!-- Node22 -->
<g id="node4" class="node">
<title>Node22</title>
<g id="a_node4"><a xlink:href="_scenery_8cpp.html" target="_top" xlink:title="libnolimits/NL2/Scenery\l/Scenery.cpp">
<polygon fill="none" stroke="#000000" points="131.1084,-.5 131.1084,-28.5 251.5957,-28.5 251.5957,-.5 131.1084,-.5"/>
<text text-anchor="start" x="139.1084" y="-16.5" font-family="Helvetica,sans-Serif" font-size="10.00" fill="#000000">libnolimits/NL2/Scenery</text>
<text text-anchor="middle" x="191.3521" y="-6.5" font-family="Helvetica,sans-Serif" font-size="10.00" fill="#000000">/Scenery.cpp</text>
</a>
</g>
</g>
<!-- Node19&#45;&gt;Node22 -->
<g id="edge3" class="edge">
<title>Node19&#45;&gt;Node22</title>
<path fill="none" stroke="#191970" d="M145.5185,-58.3115C155.7188,-48.5612 167.5426,-37.259 176.6259,-28.5765"/>
<polygon fill="#191970" stroke="#191970" points="142.9173,-55.9561 138.107,-65.396 147.7542,-61.0162 142.9173,-55.9561"/>
</g>
</g>
</svg>
