<?xml version="1.0" encoding="UTF-8" standalone="no"?>
<!DOCTYPE svg PUBLIC "-//W3C//DTD SVG 1.1//EN"
 "http://www.w3.org/Graphics/SVG/1.1/DTD/svg11.dtd">
<!-- Generated by graphviz version 2.40.1 (20161225.0304)
 -->
<!-- Title: libnolimits/NL2/Scenery/Scenery.h Pages: 1 -->
<svg width="265pt" height="157pt"
 viewBox="0.00 0.00 264.88 157.00" xmlns="http://www.w3.org/2000/svg" xmlns:xlink="http://www.w3.org/1999/xlink">
<g id="graph0" class="graph" transform="scale(1 1) rotate(0) translate(4 153)">
<title>libnolimits/NL2/Scenery/Scenery.h</title>
<!-- Node18 -->
<g id="node1" class="node">
<title>Node18</title>
<polygon fill="#bfbfbf" stroke="#000000" points="68.3892,-120.5 68.3892,-148.5 188.8765,-148.5 188.8765,-120.5 68.3892,-120.5"/>
<text text-anchor="start" x="76.3892" y="-136.5" font-family="Helvetica,sans-Serif" font-size="10.00" fill="#000000">libnolimits/NL2/Scenery</text>
<text text-anchor="middle" x="128.6328" y="-126.5" font-family="Helvetica,sans-Serif" font-size="10.00" fill="#000000">/Scenery.h</text>
</g>
<!-- Node19 -->
<g id="node2" class="node">
<title>Node19</title>
<g id="a_node2"><a xlink:href="_park_8h.html" target="_top" xlink:title="libnolimits/NL2/Park.h">
<polygon fill="none" stroke="#000000" points="5.2808,-60.5 5.2808,-78.5 117.9849,-78.5 117.9849,-60.5 5.2808,-60.5"/>
<text text-anchor="middle" x="61.6328" y="-66.5" font-family="Helvetica,sans-Serif" font-size="10.00" fill="#000000">libnolimits/NL2/Park.h</text>
</a>
</g>
</g>
<!-- Node18&#45;&gt;Node19 -->
<g id="edge1" class="edge">
<title>Node18&#45;&gt;Node19</title>
<path fill="none" stroke="#191970" d="M106.9056,-113.4214C94.759,-101.6373 80.2464,-87.558 70.9863,-78.5743"/>
<polygon fill="#191970" stroke="#191970" points="104.4803,-115.9449 114.0948,-120.396 109.3545,-110.9207 104.4803,-115.9449"/>
</g>
<!-- Node21 -->
<g id="node4" class="node">
<title>Node21</title>
<g id="a_node4"><a xlink:href="_scenery_8cpp.html" target="_top" xlink:title="libnolimits/NL2/Scenery\l/Scenery.cpp">
<polygon fill="none" stroke="#000000" points="136.3892,-55.5 136.3892,-83.5 256.8765,-83.5 256.8765,-55.5 136.3892,-55.5"/>
<text text-anchor="start" x="144.3892" y="-71.5" font-family="Helvetica,sans-Serif" font-size="10.00" fill="#000000">libnolimits/NL2/Scenery</text>
<text text-anchor="middle" x="196.6328" y="-61.5" font-family="Helvetica,sans-Serif" font-size="10.00" fill="#000000">/Scenery.cpp</text>
</a>
</g>
</g>
<!-- Node18&#45;&gt;Node21 -->
<g id="edge3" class="edge">
<title>Node18&#45;&gt;Node21</title>
<path fill="none" stroke="#191970" d="M150.7993,-113.3115C160.9996,-103.5612 172.8233,-92.259 181.9066,-83.5765"/>
<polygon fill="#191970" stroke="#191970" points="148.1981,-110.9561 143.3878,-120.396 153.035,-116.0162 148.1981,-110.9561"/>
</g>
<!-- Node20 -->
<g id="node3" class="node">
<title>Node20</title>
<g id="a_node3"><a xlink:href="_park_8cpp.html" target="_top" xlink:title="libnolimits/NL2/Park.cpp">
<polygon fill="none" stroke="#000000" points="0,-.5 0,-18.5 123.2656,-18.5 123.2656,-.5 0,-.5"/>
<text text-anchor="middle" x="61.6328" y="-6.5" font-family="Helvetica,sans-Serif" font-size="10.00" fill="#000000">libnolimits/NL2/Park.cpp</text>
</a>
</g>
</g>
<!-- Node19&#45;&gt;Node20 -->
<g id="edge2" class="edge">
<title>Node19&#45;&gt;Node20</title>
<path fill="none" stroke="#191970" d="M61.6328,-50.3734C61.6328,-39.7812 61.6328,-27.0976 61.6328,-18.6985"/>
<polygon fill="#191970" stroke="#191970" points="58.1329,-50.3873 61.6328,-60.3873 65.1329,-50.3873 58.1329,-50.3873"/>
</g>
</g>
</svg>
