<?xml version="1.0" encoding="UTF-8" standalone="no"?>
<!DOCTYPE svg PUBLIC "-//W3C//DTD SVG 1.1//EN"
 "http://www.w3.org/Graphics/SVG/1.1/DTD/svg11.dtd">
<!-- Generated by graphviz version 2.40.1 (20161225.0304)
 -->
<!-- Title: libnolimits/NL2/Scenery/Scenery.cpp Pages: 1 -->
<svg width="209pt" height="202pt"
 viewBox="0.00 0.00 208.64 202.00" xmlns="http://www.w3.org/2000/svg" xmlns:xlink="http://www.w3.org/1999/xlink">
<g id="graph0" class="graph" transform="scale(1 1) rotate(0) translate(4 198)">
<title>libnolimits/NL2/Scenery/Scenery.cpp</title>
<!-- Node0 -->
<g id="node1" class="node">
<title>Node0</title>
<polygon fill="#bfbfbf" stroke="#000000" points="75.2192,-165.5 75.2192,-193.5 195.7065,-193.5 195.7065,-165.5 75.2192,-165.5"/>
<text text-anchor="start" x="83.2192" y="-181.5" font-family="Helvetica,sans-Serif" font-size="10.00" fill="#000000">libnolimits/NL2/Scenery</text>
<text text-anchor="middle" x="135.4629" y="-171.5" font-family="Helvetica,sans-Serif" font-size="10.00" fill="#000000">/Scenery.cpp</text>
</g>
<!-- Node1 -->
<g id="node2" class="node">
<title>Node1</title>
<g id="a_node2"><a xlink:href="_scenery_8h.html" target="_top" xlink:title="Scenery.h">
<polygon fill="none" stroke="#000000" points="68.3193,-110.5 68.3193,-128.5 128.6064,-128.5 128.6064,-110.5 68.3193,-110.5"/>
<text text-anchor="middle" x="98.4629" y="-116.5" font-family="Helvetica,sans-Serif" font-size="10.00" fill="#000000">Scenery.h</text>
</a>
</g>
</g>
<!-- Node0&#45;&gt;Node1 -->
<g id="edge1" class="edge">
<title>Node0&#45;&gt;Node1</title>
<path fill="none" stroke="#191970" d="M126.6944,-165.2808C121.4922,-156.8448 114.8547,-146.0813 109.3228,-137.1107"/>
<polygon fill="#191970" stroke="#191970" points="112.2928,-135.2588 104.0648,-128.5842 106.3346,-138.933 112.2928,-135.2588"/>
</g>
<!-- Node11 -->
<g id="node6" class="node">
<title>Node11</title>
<polygon fill="none" stroke="#bfbfbf" points="146.2905,-110.5 146.2905,-128.5 200.6353,-128.5 200.6353,-110.5 146.2905,-110.5"/>
<text text-anchor="middle" x="173.4629" y="-116.5" font-family="Helvetica,sans-Serif" font-size="10.00" fill="#000000">iostream</text>
</g>
<!-- Node0&#45;&gt;Node11 -->
<g id="edge7" class="edge">
<title>Node0&#45;&gt;Node11</title>
<path fill="none" stroke="#191970" d="M144.4684,-165.2808C149.8112,-156.8448 156.6281,-146.0813 162.3094,-137.1107"/>
<polygon fill="#191970" stroke="#191970" points="165.3159,-138.9051 167.7096,-128.5842 159.4021,-135.1597 165.3159,-138.9051"/>
</g>
<!-- Node2 -->
<g id="node3" class="node">
<title>Node2</title>
<g id="a_node3"><a xlink:href="_chunk_8h.html" target="_top" xlink:title="../../Stream/Chunk.h">
<polygon fill="none" stroke="#ff0000" points="0,-.5 0,-18.5 104.9258,-18.5 104.9258,-.5 0,-.5"/>
<text text-anchor="middle" x="52.4629" y="-6.5" font-family="Helvetica,sans-Serif" font-size="10.00" fill="#000000">../../Stream/Chunk.h</text>
</a>
</g>
</g>
<!-- Node1&#45;&gt;Node2 -->
<g id="edge2" class="edge">
<title>Node1&#45;&gt;Node2</title>
<path fill="none" stroke="#191970" d="M73.6369,-110.3658C57.8882,-103.1227 38.7825,-91.3089 29.4629,-74 21.3117,-58.8611 29.7111,-40.2416 38.5623,-26.906"/>
<polygon fill="#191970" stroke="#191970" points="41.5294,-28.7763 44.5644,-18.6254 35.8617,-24.668 41.5294,-28.7763"/>
</g>
<!-- Node17 -->
<g id="node4" class="node">
<title>Node17</title>
<polygon fill="none" stroke="#bfbfbf" points="143.8472,-.5 143.8472,-18.5 187.0786,-18.5 187.0786,-.5 143.8472,-.5"/>
<text text-anchor="middle" x="165.4629" y="-6.5" font-family="Helvetica,sans-Serif" font-size="10.00" fill="#000000">vector</text>
</g>
<!-- Node1&#45;&gt;Node17 -->
<g id="edge3" class="edge">
<title>Node1&#45;&gt;Node17</title>
<path fill="none" stroke="#191970" d="M123.2889,-110.3658C139.0375,-103.1227 158.1433,-91.3089 167.4629,-74 174.8488,-60.2824 173.6203,-42.4353 170.9569,-28.9929"/>
<polygon fill="#191970" stroke="#191970" points="174.2775,-27.8312 168.5397,-18.9245 167.4709,-29.4653 174.2775,-27.8312"/>
</g>
<!-- Node18 -->
<g id="node5" class="node">
<title>Node18</title>
<g id="a_node5"><a xlink:href="_scene_object_instance_8h.html" target="_top" xlink:title="SceneObjectInstance.h">
<polygon fill="none" stroke="#000000" points="38.7637,-55.5 38.7637,-73.5 158.1621,-73.5 158.1621,-55.5 38.7637,-55.5"/>
<text text-anchor="middle" x="98.4629" y="-61.5" font-family="Helvetica,sans-Serif" font-size="10.00" fill="#000000">SceneObjectInstance.h</text>
</a>
</g>
</g>
<!-- Node1&#45;&gt;Node18 -->
<g id="edge4" class="edge">
<title>Node1&#45;&gt;Node18</title>
<path fill="none" stroke="#191970" d="M98.4629,-110.4179C98.4629,-103.2164 98.4629,-92.8962 98.4629,-83.8632"/>
<polygon fill="#191970" stroke="#191970" points="101.963,-83.7794 98.4629,-73.7795 94.963,-83.7795 101.963,-83.7794"/>
</g>
<!-- Node18&#45;&gt;Node2 -->
<g id="edge5" class="edge">
<title>Node18&#45;&gt;Node2</title>
<path fill="none" stroke="#191970" d="M90.8669,-55.4179C84.3143,-47.5833 74.6746,-36.0575 66.6925,-26.5137"/>
<polygon fill="#191970" stroke="#191970" points="69.3243,-24.2048 60.2239,-18.7795 63.9547,-28.6957 69.3243,-24.2048"/>
</g>
<!-- Node18&#45;&gt;Node17 -->
<g id="edge6" class="edge">
<title>Node18&#45;&gt;Node17</title>
<path fill="none" stroke="#191970" d="M109.5266,-55.4179C119.4562,-47.2667 134.2529,-35.1201 146.1341,-25.3669"/>
<polygon fill="#191970" stroke="#191970" points="148.6503,-27.8297 154.1588,-18.7795 144.2088,-22.4192 148.6503,-27.8297"/>
</g>
</g>
</svg>
