<?xml version="1.0" encoding="UTF-8" standalone="no"?>
<!DOCTYPE svg PUBLIC "-//W3C//DTD SVG 1.1//EN"
 "http://www.w3.org/Graphics/SVG/1.1/DTD/svg11.dtd">
<!-- Generated by graphviz version 2.40.1 (20161225.0304)
 -->
<!-- Title: libnolimits/NL2/Scenery/SceneObjectInstance.h Pages: 1 -->
<svg width="184pt" height="202pt"
 viewBox="0.00 0.00 183.74 202.00" xmlns="http://www.w3.org/2000/svg" xmlns:xlink="http://www.w3.org/1999/xlink">
<g id="graph0" class="graph" transform="scale(1 1) rotate(0) translate(4 198)">
<title>libnolimits/NL2/Scenery/SceneObjectInstance.h</title>
<!-- Node0 -->
<g id="node1" class="node">
<title>Node0</title>
<polygon fill="#bfbfbf" stroke="#000000" points="47.0322,-165.5 47.0322,-193.5 169.209,-193.5 169.209,-165.5 47.0322,-165.5"/>
<text text-anchor="start" x="55.0322" y="-181.5" font-family="Helvetica,sans-Serif" font-size="10.00" fill="#000000">libnolimits/NL2/Scenery</text>
<text text-anchor="middle" x="108.1206" y="-171.5" font-family="Helvetica,sans-Serif" font-size="10.00" fill="#000000">/SceneObjectInstance.h</text>
</g>
<!-- Node1 -->
<g id="node2" class="node">
<title>Node1</title>
<g id="a_node2"><a xlink:href="_chunk_8h.html" target="_top" xlink:title="../../Stream/Chunk.h">
<polygon fill="none" stroke="#000000" points="9.6577,-110.5 9.6577,-128.5 114.5835,-128.5 114.5835,-110.5 9.6577,-110.5"/>
<text text-anchor="middle" x="62.1206" y="-116.5" font-family="Helvetica,sans-Serif" font-size="10.00" fill="#000000">../../Stream/Chunk.h</text>
</a>
</g>
</g>
<!-- Node0&#45;&gt;Node1 -->
<g id="edge1" class="edge">
<title>Node0&#45;&gt;Node1</title>
<path fill="none" stroke="#191970" d="M97.2192,-165.2808C90.6154,-156.6672 82.1514,-145.6271 75.1897,-136.5466"/>
<polygon fill="#191970" stroke="#191970" points="77.9471,-134.3907 69.0852,-128.5842 72.3919,-138.6498 77.9471,-134.3907"/>
</g>
<!-- Node16 -->
<g id="node6" class="node">
<title>Node16</title>
<polygon fill="none" stroke="#bfbfbf" points="132.5049,-110.5 132.5049,-128.5 175.7363,-128.5 175.7363,-110.5 132.5049,-110.5"/>
<text text-anchor="middle" x="154.1206" y="-116.5" font-family="Helvetica,sans-Serif" font-size="10.00" fill="#000000">vector</text>
</g>
<!-- Node0&#45;&gt;Node16 -->
<g id="edge7" class="edge">
<title>Node0&#45;&gt;Node16</title>
<path fill="none" stroke="#191970" d="M119.022,-165.2808C125.6258,-156.6672 134.0898,-145.6271 141.0515,-136.5466"/>
<polygon fill="#191970" stroke="#191970" points="143.8493,-138.6498 147.1561,-128.5842 138.2941,-134.3907 143.8493,-138.6498"/>
</g>
<!-- Node2 -->
<g id="node3" class="node">
<title>Node2</title>
<g id="a_node3"><a xlink:href="_file_8h.html" target="_top" xlink:title="../File/File.h">
<polygon fill="none" stroke="#ff0000" points="28.2808,-55.5 28.2808,-73.5 95.9604,-73.5 95.9604,-55.5 28.2808,-55.5"/>
<text text-anchor="middle" x="62.1206" y="-61.5" font-family="Helvetica,sans-Serif" font-size="10.00" fill="#000000">../File/File.h</text>
</a>
</g>
</g>
<!-- Node1&#45;&gt;Node2 -->
<g id="edge2" class="edge">
<title>Node1&#45;&gt;Node2</title>
<path fill="none" stroke="#191970" d="M62.1206,-110.4179C62.1206,-103.2164 62.1206,-92.8962 62.1206,-83.8632"/>
<polygon fill="#191970" stroke="#191970" points="65.6207,-83.7794 62.1206,-73.7795 58.6207,-83.7795 65.6207,-83.7794"/>
</g>
<!-- Node6 -->
<g id="node4" class="node">
<title>Node6</title>
<polygon fill="none" stroke="#bfbfbf" points="0,-.5 0,-18.5 48.2412,-18.5 48.2412,-.5 0,-.5"/>
<text text-anchor="middle" x="24.1206" y="-6.5" font-family="Helvetica,sans-Serif" font-size="10.00" fill="#000000">stdint.h</text>
</g>
<!-- Node1&#45;&gt;Node6 -->
<g id="edge5" class="edge">
<title>Node1&#45;&gt;Node6</title>
<path fill="none" stroke="#191970" d="M49.2082,-110.3491C38.8735,-102.1662 25.1462,-89.1487 19.1206,-74 13.3479,-59.4871 15.3222,-41.7087 18.3304,-28.495"/>
<polygon fill="#191970" stroke="#191970" points="21.7633,-29.2048 20.9531,-18.641 14.9987,-27.4044 21.7633,-29.2048"/>
</g>
<!-- Node7 -->
<g id="node5" class="node">
<title>Node7</title>
<g id="a_node5"><a xlink:href="_nolimits_8h.html" target="_top" xlink:title="../Nolimits.h">
<polygon fill="none" stroke="#ff0000" points="78.0049,-.5 78.0049,-18.5 146.2363,-18.5 146.2363,-.5 78.0049,-.5"/>
<text text-anchor="middle" x="112.1206" y="-6.5" font-family="Helvetica,sans-Serif" font-size="10.00" fill="#000000">../Nolimits.h</text>
</a>
</g>
</g>
<!-- Node1&#45;&gt;Node7 -->
<g id="edge6" class="edge">
<title>Node1&#45;&gt;Node7</title>
<path fill="none" stroke="#191970" d="M74.2152,-110.4994C84.3337,-102.2267 98.1942,-88.9984 105.1206,-74 111.622,-59.9218 113.1552,-42.3317 113.1836,-29.0784"/>
<polygon fill="#191970" stroke="#191970" points="116.6735,-28.6484 112.9081,-18.7453 109.6759,-28.835 116.6735,-28.6484"/>
</g>
<!-- Node2&#45;&gt;Node6 -->
<g id="edge3" class="edge">
<title>Node2&#45;&gt;Node6</title>
<path fill="none" stroke="#191970" d="M55.8457,-55.4179C50.542,-47.7415 42.7902,-36.5217 36.2768,-27.0945"/>
<polygon fill="#191970" stroke="#191970" points="39.0958,-25.0173 30.5319,-18.7795 33.3367,-28.9963 39.0958,-25.0173"/>
</g>
<!-- Node2&#45;&gt;Node7 -->
<g id="edge4" class="edge">
<title>Node2&#45;&gt;Node7</title>
<path fill="none" stroke="#191970" d="M70.3771,-55.4179C77.5714,-47.5041 88.1894,-35.8243 96.916,-26.2251"/>
<polygon fill="#191970" stroke="#191970" points="99.5478,-28.5332 103.6847,-18.7795 94.3682,-23.8245 99.5478,-28.5332"/>
</g>
</g>
</svg>
