<?xml version="1.0" encoding="UTF-8" standalone="no"?>
<!DOCTYPE svg PUBLIC "-//W3C//DTD SVG 1.1//EN"
 "http://www.w3.org/Graphics/SVG/1.1/DTD/svg11.dtd">
<!-- Generated by graphviz version 2.40.1 (20161225.0304)
 -->
<!-- Title: libnolimits/NL2/Coaster/Script.cpp Pages: 1 -->
<svg width="168pt" height="202pt"
 viewBox="0.00 0.00 168.09 202.00" xmlns="http://www.w3.org/2000/svg" xmlns:xlink="http://www.w3.org/1999/xlink">
<g id="graph0" class="graph" transform="scale(1 1) rotate(0) translate(4 198)">
<title>libnolimits/NL2/Coaster/Script.cpp</title>
<!-- Node0 -->
<g id="node1" class="node">
<title>Node0</title>
<polygon fill="#bfbfbf" stroke="#000000" points="13.0542,-165.5 13.0542,-193.5 131.8716,-193.5 131.8716,-165.5 13.0542,-165.5"/>
<text text-anchor="start" x="21.0542" y="-181.5" font-family="Helvetica,sans-Serif" font-size="10.00" fill="#000000">libnolimits/NL2/Coaster</text>
<text text-anchor="middle" x="72.4629" y="-171.5" font-family="Helvetica,sans-Serif" font-size="10.00" fill="#000000">/Script.cpp</text>
</g>
<!-- Node1 -->
<g id="node2" class="node">
<title>Node1</title>
<g id="a_node2"><a xlink:href="_script_8h.html" target="_top" xlink:title="Script.h">
<polygon fill="none" stroke="#000000" points="12.5122,-110.5 12.5122,-128.5 62.4136,-128.5 62.4136,-110.5 12.5122,-110.5"/>
<text text-anchor="middle" x="37.4629" y="-116.5" font-family="Helvetica,sans-Serif" font-size="10.00" fill="#000000">Script.h</text>
</a>
</g>
</g>
<!-- Node0&#45;&gt;Node1 -->
<g id="edge1" class="edge">
<title>Node0&#45;&gt;Node1</title>
<path fill="none" stroke="#191970" d="M64.1684,-165.2808C59.2991,-156.9336 53.1007,-146.3076 47.9014,-137.3946"/>
<polygon fill="#191970" stroke="#191970" points="50.824,-135.4584 42.762,-128.5842 44.7775,-138.9856 50.824,-135.4584"/>
</g>
<!-- Node11 -->
<g id="node6" class="node">
<title>Node11</title>
<polygon fill="none" stroke="#bfbfbf" points="80.2905,-110.5 80.2905,-128.5 134.6353,-128.5 134.6353,-110.5 80.2905,-110.5"/>
<text text-anchor="middle" x="107.4629" y="-116.5" font-family="Helvetica,sans-Serif" font-size="10.00" fill="#000000">iostream</text>
</g>
<!-- Node0&#45;&gt;Node11 -->
<g id="edge6" class="edge">
<title>Node0&#45;&gt;Node11</title>
<path fill="none" stroke="#191970" d="M80.7574,-165.2808C85.6266,-156.9336 91.8251,-146.3076 97.0244,-137.3946"/>
<polygon fill="#191970" stroke="#191970" points="100.1483,-138.9856 102.1638,-128.5842 94.1018,-135.4584 100.1483,-138.9856"/>
</g>
<!-- Node2 -->
<g id="node3" class="node">
<title>Node2</title>
<g id="a_node3"><a xlink:href="_chunk_8h.html" target="_top" xlink:title="../../Stream/Chunk.h">
<polygon fill="none" stroke="#ff0000" points="0,-.5 0,-18.5 104.9258,-18.5 104.9258,-.5 0,-.5"/>
<text text-anchor="middle" x="52.4629" y="-6.5" font-family="Helvetica,sans-Serif" font-size="10.00" fill="#000000">../../Stream/Chunk.h</text>
</a>
</g>
</g>
<!-- Node1&#45;&gt;Node2 -->
<g id="edge2" class="edge">
<title>Node1&#45;&gt;Node2</title>
<path fill="none" stroke="#191970" d="M27.8052,-110.4521C15.8508,-98.0982 -1.9602,-75.179 6.4629,-55 11.4159,-43.1341 21.1366,-32.7826 30.3711,-24.9636"/>
<polygon fill="#191970" stroke="#191970" points="32.5419,-27.7091 38.2289,-18.7699 28.2086,-22.2115 32.5419,-27.7091"/>
</g>
<!-- Node17 -->
<g id="node4" class="node">
<title>Node17</title>
<polygon fill="none" stroke="#bfbfbf" points="15.8472,-55.5 15.8472,-73.5 59.0786,-73.5 59.0786,-55.5 15.8472,-55.5"/>
<text text-anchor="middle" x="37.4629" y="-61.5" font-family="Helvetica,sans-Serif" font-size="10.00" fill="#000000">vector</text>
</g>
<!-- Node1&#45;&gt;Node17 -->
<g id="edge3" class="edge">
<title>Node1&#45;&gt;Node17</title>
<path fill="none" stroke="#191970" d="M37.4629,-110.4179C37.4629,-103.2164 37.4629,-92.8962 37.4629,-83.8632"/>
<polygon fill="#191970" stroke="#191970" points="40.963,-83.7794 37.4629,-73.7795 33.963,-83.7795 40.963,-83.7794"/>
</g>
<!-- Node18 -->
<g id="node5" class="node">
<title>Node18</title>
<g id="a_node5"><a xlink:href="_resource_file_8h.html" target="_top" xlink:title="ResourceFile.h">
<polygon fill="none" stroke="#000000" points="76.8374,-55.5 76.8374,-73.5 160.0884,-73.5 160.0884,-55.5 76.8374,-55.5"/>
<text text-anchor="middle" x="118.4629" y="-61.5" font-family="Helvetica,sans-Serif" font-size="10.00" fill="#000000">ResourceFile.h</text>
</a>
</g>
</g>
<!-- Node1&#45;&gt;Node18 -->
<g id="edge4" class="edge">
<title>Node1&#45;&gt;Node18</title>
<path fill="none" stroke="#191970" d="M50.8384,-110.4179C63.2669,-101.9788 82.0026,-89.257 96.6038,-79.3426"/>
<polygon fill="#191970" stroke="#191970" points="98.7606,-82.1088 105.0675,-73.5956 94.8283,-76.3176 98.7606,-82.1088"/>
</g>
<!-- Node18&#45;&gt;Node2 -->
<g id="edge5" class="edge">
<title>Node18&#45;&gt;Node2</title>
<path fill="none" stroke="#191970" d="M107.5643,-55.4179C97.7829,-47.2667 83.2071,-35.1201 71.5032,-25.3669"/>
<polygon fill="#191970" stroke="#191970" points="73.5211,-22.4926 63.5982,-18.7795 69.0398,-27.8701 73.5211,-22.4926"/>
</g>
</g>
</svg>
