<?xml version="1.0" encoding="UTF-8" standalone="no"?>
<!DOCTYPE svg PUBLIC "-//W3C//DTD SVG 1.1//EN"
 "http://www.w3.org/Graphics/SVG/1.1/DTD/svg11.dtd">
<!-- Generated by graphviz version 2.40.1 (20161225.0304)
 -->
<!-- Title: libnolimits/NL2/Coaster/Script.h Pages: 1 -->
<svg width="190pt" height="257pt"
 viewBox="0.00 0.00 190.03 257.00" xmlns="http://www.w3.org/2000/svg" xmlns:xlink="http://www.w3.org/1999/xlink">
<g id="graph0" class="graph" transform="scale(1 1) rotate(0) translate(4 253)">
<title>libnolimits/NL2/Coaster/Script.h</title>
<!-- Node0 -->
<g id="node1" class="node">
<title>Node0</title>
<polygon fill="#bfbfbf" stroke="#000000" points="0,-220.5 0,-248.5 118.8174,-248.5 118.8174,-220.5 0,-220.5"/>
<text text-anchor="start" x="8" y="-236.5" font-family="Helvetica,sans-Serif" font-size="10.00" fill="#000000">libnolimits/NL2/Coaster</text>
<text text-anchor="middle" x="59.4087" y="-226.5" font-family="Helvetica,sans-Serif" font-size="10.00" fill="#000000">/Script.h</text>
</g>
<!-- Node1 -->
<g id="node2" class="node">
<title>Node1</title>
<g id="a_node2"><a xlink:href="_chunk_8h.html" target="_top" xlink:title="../../Stream/Chunk.h">
<polygon fill="none" stroke="#000000" points="21.9458,-110.5 21.9458,-128.5 126.8716,-128.5 126.8716,-110.5 21.9458,-110.5"/>
<text text-anchor="middle" x="74.4087" y="-116.5" font-family="Helvetica,sans-Serif" font-size="10.00" fill="#000000">../../Stream/Chunk.h</text>
</a>
</g>
</g>
<!-- Node0&#45;&gt;Node1 -->
<g id="edge1" class="edge">
<title>Node0&#45;&gt;Node1</title>
<path fill="none" stroke="#191970" d="M45.9442,-220.4768C34.235,-206.5009 20.3167,-184.3858 28.4087,-165 33.3617,-153.1341 43.0824,-142.7826 52.3169,-134.9636"/>
<polygon fill="#191970" stroke="#191970" points="54.4877,-137.7091 60.1747,-128.7699 50.1544,-132.2115 54.4877,-137.7091"/>
</g>
<!-- Node16 -->
<g id="node6" class="node">
<title>Node16</title>
<polygon fill="none" stroke="#bfbfbf" points="37.793,-165.5 37.793,-183.5 81.0244,-183.5 81.0244,-165.5 37.793,-165.5"/>
<text text-anchor="middle" x="59.4087" y="-171.5" font-family="Helvetica,sans-Serif" font-size="10.00" fill="#000000">vector</text>
</g>
<!-- Node0&#45;&gt;Node16 -->
<g id="edge7" class="edge">
<title>Node0&#45;&gt;Node16</title>
<path fill="none" stroke="#191970" d="M59.4087,-220.2808C59.4087,-212.3776 59.4087,-202.4316 59.4087,-193.8308"/>
<polygon fill="#191970" stroke="#191970" points="62.9088,-193.5842 59.4087,-183.5842 55.9088,-193.5842 62.9088,-193.5842"/>
</g>
<!-- Node17 -->
<g id="node7" class="node">
<title>Node17</title>
<g id="a_node7"><a xlink:href="_resource_file_8h.html" target="_top" xlink:title="ResourceFile.h">
<polygon fill="none" stroke="#000000" points="98.7832,-165.5 98.7832,-183.5 182.0342,-183.5 182.0342,-165.5 98.7832,-165.5"/>
<text text-anchor="middle" x="140.4087" y="-171.5" font-family="Helvetica,sans-Serif" font-size="10.00" fill="#000000">ResourceFile.h</text>
</a>
</g>
</g>
<!-- Node0&#45;&gt;Node17 -->
<g id="edge8" class="edge">
<title>Node0&#45;&gt;Node17</title>
<path fill="none" stroke="#191970" d="M78.6046,-220.2808C91.0722,-211.0456 107.3053,-199.021 120.0062,-189.613"/>
<polygon fill="#191970" stroke="#191970" points="122.1928,-192.349 128.145,-183.5842 118.0261,-186.724 122.1928,-192.349"/>
</g>
<!-- Node2 -->
<g id="node3" class="node">
<title>Node2</title>
<g id="a_node3"><a xlink:href="_file_8h.html" target="_top" xlink:title="../File/File.h">
<polygon fill="none" stroke="#ff0000" points="40.5688,-55.5 40.5688,-73.5 108.2485,-73.5 108.2485,-55.5 40.5688,-55.5"/>
<text text-anchor="middle" x="74.4087" y="-61.5" font-family="Helvetica,sans-Serif" font-size="10.00" fill="#000000">../File/File.h</text>
</a>
</g>
</g>
<!-- Node1&#45;&gt;Node2 -->
<g id="edge2" class="edge">
<title>Node1&#45;&gt;Node2</title>
<path fill="none" stroke="#191970" d="M74.4087,-110.4179C74.4087,-103.2164 74.4087,-92.8962 74.4087,-83.8632"/>
<polygon fill="#191970" stroke="#191970" points="77.9088,-83.7794 74.4087,-73.7795 70.9088,-83.7795 77.9088,-83.7794"/>
</g>
<!-- Node6 -->
<g id="node4" class="node">
<title>Node6</title>
<polygon fill="none" stroke="#bfbfbf" points="12.2881,-.5 12.2881,-18.5 60.5293,-18.5 60.5293,-.5 12.2881,-.5"/>
<text text-anchor="middle" x="36.4087" y="-6.5" font-family="Helvetica,sans-Serif" font-size="10.00" fill="#000000">stdint.h</text>
</g>
<!-- Node1&#45;&gt;Node6 -->
<g id="edge5" class="edge">
<title>Node1&#45;&gt;Node6</title>
<path fill="none" stroke="#191970" d="M61.4963,-110.3491C51.1615,-102.1662 37.4343,-89.1487 31.4087,-74 25.636,-59.4871 27.6103,-41.7087 30.6185,-28.495"/>
<polygon fill="#191970" stroke="#191970" points="34.0513,-29.2048 33.2411,-18.641 27.2868,-27.4044 34.0513,-29.2048"/>
</g>
<!-- Node7 -->
<g id="node5" class="node">
<title>Node7</title>
<g id="a_node5"><a xlink:href="_nolimits_8h.html" target="_top" xlink:title="../Nolimits.h">
<polygon fill="none" stroke="#ff0000" points="90.293,-.5 90.293,-18.5 158.5244,-18.5 158.5244,-.5 90.293,-.5"/>
<text text-anchor="middle" x="124.4087" y="-6.5" font-family="Helvetica,sans-Serif" font-size="10.00" fill="#000000">../Nolimits.h</text>
</a>
</g>
</g>
<!-- Node1&#45;&gt;Node7 -->
<g id="edge6" class="edge">
<title>Node1&#45;&gt;Node7</title>
<path fill="none" stroke="#191970" d="M86.5033,-110.4994C96.6218,-102.2267 110.4823,-88.9984 117.4087,-74 123.9101,-59.9218 125.4433,-42.3317 125.4717,-29.0784"/>
<polygon fill="#191970" stroke="#191970" points="128.9615,-28.6484 125.1962,-18.7453 121.964,-28.835 128.9615,-28.6484"/>
</g>
<!-- Node2&#45;&gt;Node6 -->
<g id="edge3" class="edge">
<title>Node2&#45;&gt;Node6</title>
<path fill="none" stroke="#191970" d="M68.1338,-55.4179C62.8301,-47.7415 55.0782,-36.5217 48.5649,-27.0945"/>
<polygon fill="#191970" stroke="#191970" points="51.3839,-25.0173 42.82,-18.7795 45.6248,-28.9963 51.3839,-25.0173"/>
</g>
<!-- Node2&#45;&gt;Node7 -->
<g id="edge4" class="edge">
<title>Node2&#45;&gt;Node7</title>
<path fill="none" stroke="#191970" d="M82.6652,-55.4179C89.8595,-47.5041 100.4775,-35.8243 109.2041,-26.2251"/>
<polygon fill="#191970" stroke="#191970" points="111.8359,-28.5332 115.9728,-18.7795 106.6563,-23.8245 111.8359,-28.5332"/>
</g>
<!-- Node17&#45;&gt;Node1 -->
<g id="edge9" class="edge">
<title>Node17&#45;&gt;Node1</title>
<path fill="none" stroke="#191970" d="M129.5101,-165.4179C119.7287,-157.2667 105.1529,-145.1201 93.449,-135.3669"/>
<polygon fill="#191970" stroke="#191970" points="95.4669,-132.4926 85.544,-128.7795 90.9856,-137.8701 95.4669,-132.4926"/>
</g>
</g>
</svg>
