<?xml version="1.0" encoding="UTF-8" standalone="no"?>
<!DOCTYPE svg PUBLIC "-//W3C//DTD SVG 1.1//EN"
 "http://www.w3.org/Graphics/SVG/1.1/DTD/svg11.dtd">
<!-- Generated by graphviz version 2.40.1 (20161225.0304)
 -->
<!-- Title: libnolimits/NL2/Coaster/Track/Section/Section.h Pages: 1 -->
<svg width="154pt" height="212pt"
 viewBox="0.00 0.00 154.24 212.00" xmlns="http://www.w3.org/2000/svg" xmlns:xlink="http://www.w3.org/1999/xlink">
<g id="graph0" class="graph" transform="scale(1 1) rotate(0) translate(4 208)">
<title>libnolimits/NL2/Coaster/Track/Section/Section.h</title>
<!-- Node0 -->
<g id="node1" class="node">
<title>Node0</title>
<polygon fill="#bfbfbf" stroke="#000000" points=".1118,-175.5 .1118,-203.5 124.1294,-203.5 124.1294,-175.5 .1118,-175.5"/>
<text text-anchor="start" x="8.1118" y="-191.5" font-family="Helvetica,sans-Serif" font-size="10.00" fill="#000000">libnolimits/NL2/Coaster</text>
<text text-anchor="middle" x="62.1206" y="-181.5" font-family="Helvetica,sans-Serif" font-size="10.00" fill="#000000">/Track/Section/Section.h</text>
</g>
<!-- Node1 -->
<g id="node2" class="node">
<title>Node1</title>
<g id="a_node2"><a xlink:href="_chunk_8h.html" target="_top" xlink:title="../../../../Stream\l/Chunk.h">
<polygon fill="none" stroke="#000000" points="21.335,-110.5 21.335,-138.5 102.9063,-138.5 102.9063,-110.5 21.335,-110.5"/>
<text text-anchor="start" x="29.335" y="-126.5" font-family="Helvetica,sans-Serif" font-size="10.00" fill="#000000">../../../../Stream</text>
<text text-anchor="middle" x="62.1206" y="-116.5" font-family="Helvetica,sans-Serif" font-size="10.00" fill="#000000">/Chunk.h</text>
</a>
</g>
</g>
<!-- Node0&#45;&gt;Node1 -->
<g id="edge1" class="edge">
<title>Node0&#45;&gt;Node1</title>
<path fill="none" stroke="#191970" d="M62.1206,-175.396C62.1206,-167.6448 62.1206,-157.8122 62.1206,-148.8601"/>
<polygon fill="#191970" stroke="#191970" points="65.6207,-148.5765 62.1206,-138.5765 58.6207,-148.5765 65.6207,-148.5765"/>
</g>
<!-- Node2 -->
<g id="node3" class="node">
<title>Node2</title>
<g id="a_node3"><a xlink:href="_file_8h.html" target="_top" xlink:title="../File/File.h">
<polygon fill="none" stroke="#ff0000" points="28.2808,-55.5 28.2808,-73.5 95.9604,-73.5 95.9604,-55.5 28.2808,-55.5"/>
<text text-anchor="middle" x="62.1206" y="-61.5" font-family="Helvetica,sans-Serif" font-size="10.00" fill="#000000">../File/File.h</text>
</a>
</g>
</g>
<!-- Node1&#45;&gt;Node2 -->
<g id="edge2" class="edge">
<title>Node1&#45;&gt;Node2</title>
<path fill="none" stroke="#191970" d="M62.1206,-110.2808C62.1206,-102.3776 62.1206,-92.4316 62.1206,-83.8308"/>
<polygon fill="#191970" stroke="#191970" points="65.6207,-83.5842 62.1206,-73.5842 58.6207,-83.5842 65.6207,-83.5842"/>
</g>
<!-- Node6 -->
<g id="node4" class="node">
<title>Node6</title>
<polygon fill="none" stroke="#bfbfbf" points="0,-.5 0,-18.5 48.2412,-18.5 48.2412,-.5 0,-.5"/>
<text text-anchor="middle" x="24.1206" y="-6.5" font-family="Helvetica,sans-Serif" font-size="10.00" fill="#000000">stdint.h</text>
</g>
<!-- Node1&#45;&gt;Node6 -->
<g id="edge5" class="edge">
<title>Node1&#45;&gt;Node6</title>
<path fill="none" stroke="#191970" d="M45.3235,-110.4733C35.6391,-101.245 24.3708,-88.2644 19.1206,-74 13.7257,-59.3425 15.6673,-41.5766 18.5669,-28.4045"/>
<polygon fill="#191970" stroke="#191970" points="21.99,-29.1458 21.0877,-18.5895 15.21,-27.4044 21.99,-29.1458"/>
</g>
<!-- Node7 -->
<g id="node5" class="node">
<title>Node7</title>
<g id="a_node5"><a xlink:href="_nolimits_8h.html" target="_top" xlink:title="../Nolimits.h">
<polygon fill="none" stroke="#ff0000" points="78.0049,-.5 78.0049,-18.5 146.2363,-18.5 146.2363,-.5 78.0049,-.5"/>
<text text-anchor="middle" x="112.1206" y="-6.5" font-family="Helvetica,sans-Serif" font-size="10.00" fill="#000000">../Nolimits.h</text>
</a>
</g>
</g>
<!-- Node1&#45;&gt;Node7 -->
<g id="edge6" class="edge">
<title>Node1&#45;&gt;Node7</title>
<path fill="none" stroke="#191970" d="M78.3807,-110.259C87.8629,-100.95 99.1074,-87.9599 105.1206,-74 111.2553,-59.7582 112.8162,-42.1804 112.9485,-28.9735"/>
<polygon fill="#191970" stroke="#191970" points="116.4433,-28.6263 112.7761,-18.6864 109.4442,-28.7436 116.4433,-28.6263"/>
</g>
<!-- Node2&#45;&gt;Node6 -->
<g id="edge3" class="edge">
<title>Node2&#45;&gt;Node6</title>
<path fill="none" stroke="#191970" d="M55.8457,-55.4179C50.542,-47.7415 42.7902,-36.5217 36.2768,-27.0945"/>
<polygon fill="#191970" stroke="#191970" points="39.0958,-25.0173 30.5319,-18.7795 33.3367,-28.9963 39.0958,-25.0173"/>
</g>
<!-- Node2&#45;&gt;Node7 -->
<g id="edge4" class="edge">
<title>Node2&#45;&gt;Node7</title>
<path fill="none" stroke="#191970" d="M70.3771,-55.4179C77.5714,-47.5041 88.1894,-35.8243 96.916,-26.2251"/>
<polygon fill="#191970" stroke="#191970" points="99.5478,-28.5332 103.6847,-18.7795 94.3682,-23.8245 99.5478,-28.5332"/>
</g>
</g>
</svg>
