<?xml version="1.0" encoding="UTF-8" standalone="no"?>
<!DOCTYPE svg PUBLIC "-//W3C//DTD SVG 1.1//EN"
 "http://www.w3.org/Graphics/SVG/1.1/DTD/svg11.dtd">
<!-- Generated by graphviz version 2.40.1 (20161225.0304)
 -->
<!-- Title: libnolimits/NL2/Coaster/Track/Segment.h Pages: 1 -->
<svg width="266pt" height="147pt"
 viewBox="0.00 0.00 266.24 147.00" xmlns="http://www.w3.org/2000/svg" xmlns:xlink="http://www.w3.org/1999/xlink">
<g id="graph0" class="graph" transform="scale(1 1) rotate(0) translate(4 143)">
<title>libnolimits/NL2/Coaster/Track/Segment.h</title>
<!-- Node0 -->
<g id="node1" class="node">
<title>Node0</title>
<polygon fill="#bfbfbf" stroke="#000000" points="30.377,-110.5 30.377,-138.5 149.1943,-138.5 149.1943,-110.5 30.377,-110.5"/>
<text text-anchor="start" x="38.377" y="-126.5" font-family="Helvetica,sans-Serif" font-size="10.00" fill="#000000">libnolimits/NL2/Coaster</text>
<text text-anchor="middle" x="89.7856" y="-116.5" font-family="Helvetica,sans-Serif" font-size="10.00" fill="#000000">/Track/Segment.h</text>
</g>
<!-- Node1 -->
<g id="node2" class="node">
<title>Node1</title>
<g id="a_node2"><a xlink:href="_colors_8h.html" target="_top" xlink:title="../Colors.h">
<polygon fill="none" stroke="#000000" points="0,-55.5 0,-73.5 61.5713,-73.5 61.5713,-55.5 0,-55.5"/>
<text text-anchor="middle" x="30.7856" y="-61.5" font-family="Helvetica,sans-Serif" font-size="10.00" fill="#000000">../Colors.h</text>
</a>
</g>
</g>
<!-- Node0&#45;&gt;Node1 -->
<g id="edge1" class="edge">
<title>Node0&#45;&gt;Node1</title>
<path fill="none" stroke="#191970" d="M75.8035,-110.2808C67.1587,-101.4896 56.0286,-90.1708 46.9983,-80.9875"/>
<polygon fill="#191970" stroke="#191970" points="49.2255,-78.2605 39.7184,-73.5842 44.2343,-83.1685 49.2255,-78.2605"/>
</g>
<!-- Node2 -->
<g id="node3" class="node">
<title>Node2</title>
<g id="a_node3"><a xlink:href="_chunk_8h.html" target="_top" xlink:title="../../Stream/Chunk.h">
<polygon fill="none" stroke="#ff0000" points="37.3228,-.5 37.3228,-18.5 142.2485,-18.5 142.2485,-.5 37.3228,-.5"/>
<text text-anchor="middle" x="89.7856" y="-6.5" font-family="Helvetica,sans-Serif" font-size="10.00" fill="#000000">../../Stream/Chunk.h</text>
</a>
</g>
</g>
<!-- Node0&#45;&gt;Node2 -->
<g id="edge5" class="edge">
<title>Node0&#45;&gt;Node2</title>
<path fill="none" stroke="#191970" d="M89.7856,-110.3987C89.7856,-89.9779 89.7856,-52.0975 89.7856,-29.0089"/>
<polygon fill="#191970" stroke="#191970" points="93.2857,-28.7286 89.7856,-18.7286 86.2857,-28.7287 93.2857,-28.7286"/>
</g>
<!-- Node17 -->
<g id="node4" class="node">
<title>Node17</title>
<g id="a_node4"><a xlink:href="_wooden_support_generator_8h.html" target="_top" xlink:title="WoodenSupportGenerator.h">
<polygon fill="none" stroke="#000000" points="117.3296,-55.5 117.3296,-73.5 258.2417,-73.5 258.2417,-55.5 117.3296,-55.5"/>
<text text-anchor="middle" x="187.7856" y="-61.5" font-family="Helvetica,sans-Serif" font-size="10.00" fill="#000000">WoodenSupportGenerator.h</text>
</a>
</g>
</g>
<!-- Node0&#45;&gt;Node17 -->
<g id="edge3" class="edge">
<title>Node0&#45;&gt;Node17</title>
<path fill="none" stroke="#191970" d="M113.0103,-110.2808C128.3846,-100.868 148.4917,-88.5575 163.9828,-79.0732"/>
<polygon fill="#191970" stroke="#191970" points="166.2472,-81.7908 172.9481,-73.5842 162.5921,-75.8208 166.2472,-81.7908"/>
</g>
<!-- Node1&#45;&gt;Node2 -->
<g id="edge2" class="edge">
<title>Node1&#45;&gt;Node2</title>
<path fill="none" stroke="#191970" d="M40.5283,-55.4179C49.1874,-47.3458 62.0496,-35.3556 72.4593,-25.6517"/>
<polygon fill="#191970" stroke="#191970" points="74.9032,-28.1584 79.8313,-18.7795 70.13,-23.0381 74.9032,-28.1584"/>
</g>
<!-- Node17&#45;&gt;Node2 -->
<g id="edge4" class="edge">
<title>Node17&#45;&gt;Node2</title>
<path fill="none" stroke="#191970" d="M171.6029,-55.4179C156.1404,-46.7399 132.6089,-33.5334 114.7448,-23.5077"/>
<polygon fill="#191970" stroke="#191970" points="116.4259,-20.4377 105.9924,-18.5956 112.9999,-26.542 116.4259,-20.4377"/>
</g>
</g>
</svg>
