<?xml version="1.0" encoding="UTF-8" standalone="no"?>
<!DOCTYPE svg PUBLIC "-//W3C//DTD SVG 1.1//EN"
 "http://www.w3.org/Graphics/SVG/1.1/DTD/svg11.dtd">
<!-- Generated by graphviz version 2.40.1 (20161225.0304)
 -->
<!-- Title: libnolimits/NL1/Track/Section/SegmentsChunk.cpp Pages: 1 -->
<svg width="564pt" height="257pt"
 viewBox="0.00 0.00 564.07 257.00" xmlns="http://www.w3.org/2000/svg" xmlns:xlink="http://www.w3.org/1999/xlink">
<g id="graph0" class="graph" transform="scale(1 1) rotate(0) translate(4 253)">
<title>libnolimits/NL1/Track/Section/SegmentsChunk.cpp</title>
<!-- Node0 -->
<g id="node1" class="node">
<title>Node0</title>
<polygon fill="#bfbfbf" stroke="#000000" points="356.0627,-220.5 356.0627,-248.5 503.8058,-248.5 503.8058,-220.5 356.0627,-220.5"/>
<text text-anchor="start" x="364.0627" y="-236.5" font-family="Helvetica,sans-Serif" font-size="10.00" fill="#000000">libnolimits/NL1/Track</text>
<text text-anchor="middle" x="429.9343" y="-226.5" font-family="Helvetica,sans-Serif" font-size="10.00" fill="#000000">/Section/SegmentsChunk.cpp</text>
</g>
<!-- Node1 -->
<g id="node2" class="node">
<title>Node1</title>
<g id="a_node2"><a xlink:href="_segments_chunk_8h.html" target="_top" xlink:title="SegmentsChunk.h">
<polygon fill="none" stroke="#000000" points="457.799,-165.5 457.799,-183.5 556.0695,-183.5 556.0695,-165.5 457.799,-165.5"/>
<text text-anchor="middle" x="506.9343" y="-171.5" font-family="Helvetica,sans-Serif" font-size="10.00" fill="#000000">SegmentsChunk.h</text>
</a>
</g>
</g>
<!-- Node0&#45;&gt;Node1 -->
<g id="edge1" class="edge">
<title>Node0&#45;&gt;Node1</title>
<path fill="none" stroke="#191970" d="M448.1822,-220.2808C459.9202,-211.1344 475.1692,-199.252 487.1901,-189.8851"/>
<polygon fill="#191970" stroke="#191970" points="489.5395,-192.4915 495.2762,-183.5842 485.2369,-186.9699 489.5395,-192.4915"/>
</g>
<!-- Node18 -->
<g id="node5" class="node">
<title>Node18</title>
<g id="a_node5"><a xlink:href="_n_l1_2_track_2_track_8h.html" target="_top" xlink:title="../Track.h">
<polygon fill="none" stroke="#000000" points="202.28,-165.5 202.28,-183.5 259.5886,-183.5 259.5886,-165.5 202.28,-165.5"/>
<text text-anchor="middle" x="230.9343" y="-171.5" font-family="Helvetica,sans-Serif" font-size="10.00" fill="#000000">../Track.h</text>
</a>
</g>
</g>
<!-- Node0&#45;&gt;Node18 -->
<g id="edge4" class="edge">
<title>Node0&#45;&gt;Node18</title>
<path fill="none" stroke="#191970" d="M383.2776,-220.4327C348.6091,-209.9798 301.8831,-195.8916 269.3576,-186.0849"/>
<polygon fill="#191970" stroke="#191970" points="270.3331,-182.7235 259.7485,-183.1877 268.3124,-189.4255 270.3331,-182.7235"/>
</g>
<!-- Node25 -->
<g id="node11" class="node">
<title>Node25</title>
<g id="a_node11"><a xlink:href="_n_l1_2_track_2_section_2_section_8h.html" target="_top" xlink:title="Section/Section.h">
<polygon fill="none" stroke="#000000" points="385.0207,-110.5 385.0207,-128.5 478.8478,-128.5 478.8478,-110.5 385.0207,-110.5"/>
<text text-anchor="middle" x="431.9343" y="-116.5" font-family="Helvetica,sans-Serif" font-size="10.00" fill="#000000">Section/Section.h</text>
</a>
</g>
</g>
<!-- Node0&#45;&gt;Node25 -->
<g id="edge20" class="edge">
<title>Node0&#45;&gt;Node25</title>
<path fill="none" stroke="#191970" d="M430.1795,-220.3987C430.5347,-199.9779 431.1934,-162.0975 431.595,-139.0089"/>
<polygon fill="#191970" stroke="#191970" points="435.0993,-138.788 431.7738,-128.7286 428.1003,-138.6662 435.0993,-138.788"/>
</g>
<!-- Node2 -->
<g id="node3" class="node">
<title>Node2</title>
<g id="a_node3"><a xlink:href="_chunk_8h.html" target="_top" xlink:title="../../../Stream/Chunk.h">
<polygon fill="none" stroke="#ff0000" points="209.3039,-55.5 209.3039,-73.5 322.5646,-73.5 322.5646,-55.5 209.3039,-55.5"/>
<text text-anchor="middle" x="265.9343" y="-61.5" font-family="Helvetica,sans-Serif" font-size="10.00" fill="#000000">../../../Stream/Chunk.h</text>
</a>
</g>
</g>
<!-- Node1&#45;&gt;Node2 -->
<g id="edge2" class="edge">
<title>Node1&#45;&gt;Node2</title>
<path fill="none" stroke="#191970" d="M507.0106,-165.0513C506.5811,-150.9119 503.5773,-124.3767 487.9343,-110 465.5948,-89.4689 389.5876,-77.161 332.6913,-70.6203"/>
<polygon fill="#191970" stroke="#191970" points="332.9913,-67.1321 322.6654,-69.504 332.2166,-74.0892 332.9913,-67.1321"/>
</g>
<!-- Node8 -->
<g id="node4" class="node">
<title>Node8</title>
<g id="a_node4"><a xlink:href="_nolimits_8h.html" target="_top" xlink:title="../Nolimits.h">
<polygon fill="none" stroke="#ff0000" points="52.8185,-.5 52.8185,-18.5 121.05,-18.5 121.05,-.5 52.8185,-.5"/>
<text text-anchor="middle" x="86.9343" y="-6.5" font-family="Helvetica,sans-Serif" font-size="10.00" fill="#000000">../Nolimits.h</text>
</a>
</g>
</g>
<!-- Node2&#45;&gt;Node8 -->
<g id="edge3" class="edge">
<title>Node2&#45;&gt;Node8</title>
<path fill="none" stroke="#191970" d="M236.3761,-55.4179C206.2295,-46.155 159.2908,-31.7325 126.0734,-21.526"/>
<polygon fill="#191970" stroke="#191970" points="126.8258,-18.0958 116.2389,-18.5042 124.7698,-24.787 126.8258,-18.0958"/>
</g>
<!-- Node18&#45;&gt;Node2 -->
<g id="edge6" class="edge">
<title>Node18&#45;&gt;Node2</title>
<path fill="none" stroke="#191970" d="M259.6974,-171.0277C285.0889,-166.2718 320.6733,-155.0966 337.9343,-129 351.8082,-108.0241 324.7677,-89.504 299.9591,-77.7522"/>
<polygon fill="#191970" stroke="#191970" points="301.2077,-74.4766 290.6501,-73.5886 298.3496,-80.8665 301.2077,-74.4766"/>
</g>
<!-- Node18&#45;&gt;Node8 -->
<g id="edge5" class="edge">
<title>Node18&#45;&gt;Node8</title>
<path fill="none" stroke="#191970" d="M202.0888,-171.1239C153.3899,-164.9094 57.6519,-150.3149 31.9343,-129 5.3135,-106.9366 -9.3692,-84.9341 7.9343,-55 16.5272,-40.1346 32.0241,-29.6973 47.0304,-22.6047"/>
<polygon fill="#191970" stroke="#191970" points="48.4611,-25.7992 56.2445,-18.611 45.6773,-19.3766 48.4611,-25.7992"/>
</g>
<!-- Node19 -->
<g id="node6" class="node">
<title>Node19</title>
<g id="a_node6"><a xlink:href="_n_l1_2_info_2_info_8h.html" target="_top" xlink:title="../Info/Info.h">
<polygon fill="none" stroke="#ff0000" points="52.528,-110.5 52.528,-128.5 121.3405,-128.5 121.3405,-110.5 52.528,-110.5"/>
<text text-anchor="middle" x="86.9343" y="-116.5" font-family="Helvetica,sans-Serif" font-size="10.00" fill="#000000">../Info/Info.h</text>
</a>
</g>
</g>
<!-- Node18&#45;&gt;Node19 -->
<g id="edge7" class="edge">
<title>Node18&#45;&gt;Node19</title>
<path fill="none" stroke="#191970" d="M207.1556,-165.4179C183.4972,-156.3817 146.983,-142.4353 120.4019,-132.2828"/>
<polygon fill="#191970" stroke="#191970" points="121.3389,-128.8941 110.7483,-128.5956 118.8412,-135.4334 121.3389,-128.8941"/>
</g>
<!-- Node14 -->
<g id="node7" class="node">
<title>Node14</title>
<polygon fill="none" stroke="#bfbfbf" points="16.7077,-55.5 16.7077,-73.5 57.1608,-73.5 57.1608,-55.5 16.7077,-55.5"/>
<text text-anchor="middle" x="36.9343" y="-61.5" font-family="Helvetica,sans-Serif" font-size="10.00" fill="#000000">string</text>
</g>
<!-- Node18&#45;&gt;Node14 -->
<g id="edge19" class="edge">
<title>Node18&#45;&gt;Node14</title>
<path fill="none" stroke="#191970" d="M201.9925,-171.4838C154.8205,-165.9378 64.5365,-152.4846 43.9343,-129 33.2669,-116.8402 32.3649,-98.0254 33.629,-83.8488"/>
<polygon fill="#191970" stroke="#191970" points="37.1312,-84.06 34.962,-73.6896 30.1907,-83.1493 37.1312,-84.06"/>
</g>
<!-- Node20 -->
<g id="node8" class="node">
<title>Node20</title>
<g id="a_node8"><a xlink:href="_n_l1_2_track_2_train_8h.html" target="_top" xlink:title="Train.h">
<polygon fill="none" stroke="#ff0000" points="139.5558,-110.5 139.5558,-128.5 186.3127,-128.5 186.3127,-110.5 139.5558,-110.5"/>
<text text-anchor="middle" x="162.9343" y="-116.5" font-family="Helvetica,sans-Serif" font-size="10.00" fill="#000000">Train.h</text>
</a>
</g>
</g>
<!-- Node18&#45;&gt;Node20 -->
<g id="edge11" class="edge">
<title>Node18&#45;&gt;Node20</title>
<path fill="none" stroke="#191970" d="M219.7054,-165.4179C209.5298,-157.1876 194.318,-144.8839 182.2012,-135.0836"/>
<polygon fill="#191970" stroke="#191970" points="184.3832,-132.3469 174.407,-128.7795 179.9811,-137.7895 184.3832,-132.3469"/>
</g>
<!-- Node23 -->
<g id="node9" class="node">
<title>Node23</title>
<g id="a_node9"><a xlink:href="_n_l1_2_track_2_vertex_8h.html" target="_top" xlink:title="Vertex.h">
<polygon fill="none" stroke="#000000" points="204.5871,-110.5 204.5871,-128.5 257.2814,-128.5 257.2814,-110.5 204.5871,-110.5"/>
<text text-anchor="middle" x="230.9343" y="-116.5" font-family="Helvetica,sans-Serif" font-size="10.00" fill="#000000">Vertex.h</text>
</a>
</g>
</g>
<!-- Node18&#45;&gt;Node23 -->
<g id="edge13" class="edge">
<title>Node18&#45;&gt;Node23</title>
<path fill="none" stroke="#191970" d="M230.9343,-165.4179C230.9343,-158.2164 230.9343,-147.8962 230.9343,-138.8632"/>
<polygon fill="#191970" stroke="#191970" points="234.4344,-138.7794 230.9343,-128.7795 227.4344,-138.7795 234.4344,-138.7794"/>
</g>
<!-- Node24 -->
<g id="node10" class="node">
<title>Node24</title>
<g id="a_node10"><a xlink:href="_n_l1_2_track_2_colors_8h.html" target="_top" xlink:title="Colors.h">
<polygon fill="none" stroke="#000000" points="275.3161,-110.5 275.3161,-128.5 328.5524,-128.5 328.5524,-110.5 275.3161,-110.5"/>
<text text-anchor="middle" x="301.9343" y="-116.5" font-family="Helvetica,sans-Serif" font-size="10.00" fill="#000000">Colors.h</text>
</a>
</g>
</g>
<!-- Node18&#45;&gt;Node24 -->
<g id="edge15" class="edge">
<title>Node18&#45;&gt;Node24</title>
<path fill="none" stroke="#191970" d="M242.6585,-165.4179C253.283,-157.1876 269.166,-144.8839 281.8173,-135.0836"/>
<polygon fill="#191970" stroke="#191970" points="284.1932,-137.6704 289.9553,-128.7795 279.9064,-132.1365 284.1932,-137.6704"/>
</g>
<!-- Node18&#45;&gt;Node25 -->
<g id="edge17" class="edge">
<title>Node18&#45;&gt;Node25</title>
<path fill="none" stroke="#191970" d="M259.7327,-166.6198C293.5129,-157.3765 349.8441,-141.9625 388.8346,-131.2934"/>
<polygon fill="#191970" stroke="#191970" points="390.1219,-134.5699 398.8435,-128.5547 388.2743,-127.8182 390.1219,-134.5699"/>
</g>
<!-- Node19&#45;&gt;Node2 -->
<g id="edge9" class="edge">
<title>Node19&#45;&gt;Node2</title>
<path fill="none" stroke="#191970" d="M116.4925,-110.4179C146.639,-101.155 193.5777,-86.7325 226.7951,-76.526"/>
<polygon fill="#191970" stroke="#191970" points="228.0987,-79.787 236.6297,-73.5042 226.0427,-73.0958 228.0987,-79.787"/>
</g>
<!-- Node19&#45;&gt;Node8 -->
<g id="edge8" class="edge">
<title>Node19&#45;&gt;Node8</title>
<path fill="none" stroke="#191970" d="M86.9343,-110.4982C86.9343,-92.6913 86.9343,-52.6225 86.9343,-28.6515"/>
<polygon fill="#191970" stroke="#191970" points="90.4344,-28.6261 86.9343,-18.6261 83.4344,-28.6262 90.4344,-28.6261"/>
</g>
<!-- Node19&#45;&gt;Node14 -->
<g id="edge10" class="edge">
<title>Node19&#45;&gt;Node14</title>
<path fill="none" stroke="#191970" d="M78.6778,-110.4179C71.4835,-102.5041 60.8655,-90.8243 52.1389,-81.2251"/>
<polygon fill="#191970" stroke="#191970" points="54.6867,-78.8245 45.3701,-73.7795 49.5071,-83.5332 54.6867,-78.8245"/>
</g>
<!-- Node20&#45;&gt;Node2 -->
<g id="edge12" class="edge">
<title>Node20&#45;&gt;Node2</title>
<path fill="none" stroke="#191970" d="M179.9426,-110.4179C196.2686,-101.7001 221.1533,-88.4122 239.9597,-78.3699"/>
<polygon fill="#191970" stroke="#191970" points="241.7281,-81.3934 248.9006,-73.5956 238.4308,-75.2186 241.7281,-81.3934"/>
</g>
<!-- Node23&#45;&gt;Node2 -->
<g id="edge14" class="edge">
<title>Node23&#45;&gt;Node2</title>
<path fill="none" stroke="#191970" d="M236.7138,-110.4179C241.5484,-102.8207 248.5917,-91.7527 254.5519,-82.3866"/>
<polygon fill="#191970" stroke="#191970" points="257.6132,-84.0952 260.0292,-73.7795 251.7075,-80.337 257.6132,-84.0952"/>
</g>
<!-- Node24&#45;&gt;Node2 -->
<g id="edge16" class="edge">
<title>Node24&#45;&gt;Node2</title>
<path fill="none" stroke="#191970" d="M295.9896,-110.4179C291.0169,-102.8207 283.7724,-91.7527 277.6419,-82.3866"/>
<polygon fill="#191970" stroke="#191970" points="280.4132,-80.2297 272.0081,-73.7795 274.5563,-84.0633 280.4132,-80.2297"/>
</g>
<!-- Node25&#45;&gt;Node2 -->
<g id="edge18" class="edge">
<title>Node25&#45;&gt;Node2</title>
<path fill="none" stroke="#191970" d="M404.5227,-110.4179C376.6861,-101.1949 333.4108,-86.8567 302.63,-76.6582"/>
<polygon fill="#191970" stroke="#191970" points="303.704,-73.327 293.1106,-73.5042 301.5023,-79.9718 303.704,-73.327"/>
</g>
</g>
</svg>
