<?xml version="1.0" encoding="UTF-8" standalone="no"?>
<!DOCTYPE svg PUBLIC "-//W3C//DTD SVG 1.1//EN"
 "http://www.w3.org/Graphics/SVG/1.1/DTD/svg11.dtd">
<!-- Generated by graphviz version 2.40.1 (20161225.0304)
 -->
<!-- Title: libnolimits/NL1/Track/Section/SegmentsChunk.h Pages: 1 -->
<svg width="282pt" height="102pt"
 viewBox="0.00 0.00 282.09 102.00" xmlns="http://www.w3.org/2000/svg" xmlns:xlink="http://www.w3.org/1999/xlink">
<g id="graph0" class="graph" transform="scale(1 1) rotate(0) translate(4 98)">
<title>libnolimits/NL1/Track/Section/SegmentsChunk.h</title>
<!-- Node17 -->
<g id="node1" class="node">
<title>Node17</title>
<polygon fill="#bfbfbf" stroke="#000000" points="78.2808,-65.5 78.2808,-93.5 215.4624,-93.5 215.4624,-65.5 78.2808,-65.5"/>
<text text-anchor="start" x="86.2808" y="-81.5" font-family="Helvetica,sans-Serif" font-size="10.00" fill="#000000">libnolimits/NL1/Track</text>
<text text-anchor="middle" x="146.8716" y="-71.5" font-family="Helvetica,sans-Serif" font-size="10.00" fill="#000000">/Section/SegmentsChunk.h</text>
</g>
<!-- Node18 -->
<g id="node2" class="node">
<title>Node18</title>
<g id="a_node2"><a xlink:href="_segments_chunk_8cpp.html" target="_top" xlink:title="libnolimits/NL1/Track\l/Section/SegmentsChunk.cpp">
<polygon fill="none" stroke="#000000" points="0,-.5 0,-28.5 147.7432,-28.5 147.7432,-.5 0,-.5"/>
<text text-anchor="start" x="8" y="-16.5" font-family="Helvetica,sans-Serif" font-size="10.00" fill="#000000">libnolimits/NL1/Track</text>
<text text-anchor="middle" x="73.8716" y="-6.5" font-family="Helvetica,sans-Serif" font-size="10.00" fill="#000000">/Section/SegmentsChunk.cpp</text>
</a>
</g>
</g>
<!-- Node17&#45;&gt;Node18 -->
<g id="edge1" class="edge">
<title>Node17&#45;&gt;Node18</title>
<path fill="none" stroke="#191970" d="M123.3968,-58.5978C112.3741,-48.7831 99.5273,-37.3442 89.6806,-28.5765"/>
<polygon fill="#191970" stroke="#191970" points="121.2357,-61.3599 131.0317,-65.396 125.8907,-56.132 121.2357,-61.3599"/>
</g>
<!-- Node19 -->
<g id="node3" class="node">
<title>Node19</title>
<g id="a_node3"><a xlink:href="_n_l1_2_track_2_track_8cpp.html" target="_top" xlink:title="libnolimits/NL1/Track\l/Track.cpp">
<polygon fill="none" stroke="#000000" points="165.6533,-.5 165.6533,-28.5 274.0898,-28.5 274.0898,-.5 165.6533,-.5"/>
<text text-anchor="start" x="173.6533" y="-16.5" font-family="Helvetica,sans-Serif" font-size="10.00" fill="#000000">libnolimits/NL1/Track</text>
<text text-anchor="middle" x="219.8716" y="-6.5" font-family="Helvetica,sans-Serif" font-size="10.00" fill="#000000">/Track.cpp</text>
</a>
</g>
</g>
<!-- Node17&#45;&gt;Node19 -->
<g id="edge2" class="edge">
<title>Node17&#45;&gt;Node19</title>
<path fill="none" stroke="#191970" d="M170.3464,-58.5978C181.3691,-48.7831 194.2158,-37.3442 204.0626,-28.5765"/>
<polygon fill="#191970" stroke="#191970" points="167.8525,-56.132 162.7115,-65.396 172.5075,-61.3599 167.8525,-56.132"/>
</g>
</g>
</svg>
