<?xml version="1.0" encoding="UTF-8" standalone="no"?>
<!DOCTYPE svg PUBLIC "-//W3C//DTD SVG 1.1//EN"
 "http://www.w3.org/Graphics/SVG/1.1/DTD/svg11.dtd">
<!-- Generated by graphviz version 2.40.1 (20161225.0304)
 -->
<!-- Title: libnolimits/NL2/Coaster/Track/Segment.cpp Pages: 1 -->
<svg width="266pt" height="202pt"
 viewBox="0.00 0.00 266.24 202.00" xmlns="http://www.w3.org/2000/svg" xmlns:xlink="http://www.w3.org/1999/xlink">
<g id="graph0" class="graph" transform="scale(1 1) rotate(0) translate(4 198)">
<title>libnolimits/NL2/Coaster/Track/Segment.cpp</title>
<!-- Node0 -->
<g id="node1" class="node">
<title>Node0</title>
<polygon fill="#bfbfbf" stroke="#000000" points="30.377,-165.5 30.377,-193.5 149.1943,-193.5 149.1943,-165.5 30.377,-165.5"/>
<text text-anchor="start" x="38.377" y="-181.5" font-family="Helvetica,sans-Serif" font-size="10.00" fill="#000000">libnolimits/NL2/Coaster</text>
<text text-anchor="middle" x="89.7856" y="-171.5" font-family="Helvetica,sans-Serif" font-size="10.00" fill="#000000">/Track/Segment.cpp</text>
</g>
<!-- Node1 -->
<g id="node2" class="node">
<title>Node1</title>
<g id="a_node2"><a xlink:href="_segment_8h.html" target="_top" xlink:title="Segment.h">
<polygon fill="none" stroke="#000000" points="57.6035,-110.5 57.6035,-128.5 121.9678,-128.5 121.9678,-110.5 57.6035,-110.5"/>
<text text-anchor="middle" x="89.7856" y="-116.5" font-family="Helvetica,sans-Serif" font-size="10.00" fill="#000000">Segment.h</text>
</a>
</g>
</g>
<!-- Node0&#45;&gt;Node1 -->
<g id="edge1" class="edge">
<title>Node0&#45;&gt;Node1</title>
<path fill="none" stroke="#191970" d="M89.7856,-165.2808C89.7856,-157.3776 89.7856,-147.4316 89.7856,-138.8308"/>
<polygon fill="#191970" stroke="#191970" points="93.2857,-138.5842 89.7856,-128.5842 86.2857,-138.5842 93.2857,-138.5842"/>
</g>
<!-- Node2 -->
<g id="node3" class="node">
<title>Node2</title>
<g id="a_node3"><a xlink:href="_colors_8h.html" target="_top" xlink:title="../Colors.h">
<polygon fill="none" stroke="#000000" points="0,-55.5 0,-73.5 61.5713,-73.5 61.5713,-55.5 0,-55.5"/>
<text text-anchor="middle" x="30.7856" y="-61.5" font-family="Helvetica,sans-Serif" font-size="10.00" fill="#000000">../Colors.h</text>
</a>
</g>
</g>
<!-- Node1&#45;&gt;Node2 -->
<g id="edge2" class="edge">
<title>Node1&#45;&gt;Node2</title>
<path fill="none" stroke="#191970" d="M80.043,-110.4179C71.3839,-102.3458 58.5217,-90.3556 48.112,-80.6517"/>
<polygon fill="#191970" stroke="#191970" points="50.4412,-78.0381 40.74,-73.7795 45.6681,-83.1584 50.4412,-78.0381"/>
</g>
<!-- Node3 -->
<g id="node4" class="node">
<title>Node3</title>
<g id="a_node4"><a xlink:href="_chunk_8h.html" target="_top" xlink:title="../../Stream/Chunk.h">
<polygon fill="none" stroke="#ff0000" points="37.3228,-.5 37.3228,-18.5 142.2485,-18.5 142.2485,-.5 37.3228,-.5"/>
<text text-anchor="middle" x="89.7856" y="-6.5" font-family="Helvetica,sans-Serif" font-size="10.00" fill="#000000">../../Stream/Chunk.h</text>
</a>
</g>
</g>
<!-- Node1&#45;&gt;Node3 -->
<g id="edge6" class="edge">
<title>Node1&#45;&gt;Node3</title>
<path fill="none" stroke="#191970" d="M89.7856,-110.4982C89.7856,-92.6913 89.7856,-52.6225 89.7856,-28.6515"/>
<polygon fill="#191970" stroke="#191970" points="93.2857,-28.6261 89.7856,-18.6261 86.2857,-28.6262 93.2857,-28.6261"/>
</g>
<!-- Node19 -->
<g id="node5" class="node">
<title>Node19</title>
<g id="a_node5"><a xlink:href="_wooden_support_generator_8h.html" target="_top" xlink:title="WoodenSupportGenerator.h">
<polygon fill="none" stroke="#000000" points="117.3296,-55.5 117.3296,-73.5 258.2417,-73.5 258.2417,-55.5 117.3296,-55.5"/>
<text text-anchor="middle" x="187.7856" y="-61.5" font-family="Helvetica,sans-Serif" font-size="10.00" fill="#000000">WoodenSupportGenerator.h</text>
</a>
</g>
</g>
<!-- Node1&#45;&gt;Node19 -->
<g id="edge4" class="edge">
<title>Node1&#45;&gt;Node19</title>
<path fill="none" stroke="#191970" d="M105.9684,-110.4179C121.4309,-101.7399 144.9624,-88.5334 162.8265,-78.5077"/>
<polygon fill="#191970" stroke="#191970" points="164.5714,-81.542 171.5789,-73.5956 161.1454,-75.4377 164.5714,-81.542"/>
</g>
<!-- Node2&#45;&gt;Node3 -->
<g id="edge3" class="edge">
<title>Node2&#45;&gt;Node3</title>
<path fill="none" stroke="#191970" d="M40.5283,-55.4179C49.1874,-47.3458 62.0496,-35.3556 72.4593,-25.6517"/>
<polygon fill="#191970" stroke="#191970" points="74.9032,-28.1584 79.8313,-18.7795 70.13,-23.0381 74.9032,-28.1584"/>
</g>
<!-- Node19&#45;&gt;Node3 -->
<g id="edge5" class="edge">
<title>Node19&#45;&gt;Node3</title>
<path fill="none" stroke="#191970" d="M171.6029,-55.4179C156.1404,-46.7399 132.6089,-33.5334 114.7448,-23.5077"/>
<polygon fill="#191970" stroke="#191970" points="116.4259,-20.4377 105.9924,-18.5956 112.9999,-26.542 116.4259,-20.4377"/>
</g>
</g>
</svg>
