<?xml version="1.0" encoding="UTF-8" standalone="no"?>
<!DOCTYPE svg PUBLIC "-//W3C//DTD SVG 1.1//EN"
 "http://www.w3.org/Graphics/SVG/1.1/DTD/svg11.dtd">
<!-- Generated by graphviz version 2.40.1 (20161225.0304)
 -->
<!-- Title: libnolimits/NL2/Coaster/Track/Separator.h Pages: 1 -->
<svg width="416pt" height="212pt"
 viewBox="0.00 0.00 416.37 212.00" xmlns="http://www.w3.org/2000/svg" xmlns:xlink="http://www.w3.org/1999/xlink">
<g id="graph0" class="graph" transform="scale(1 1) rotate(0) translate(4 208)">
<title>libnolimits/NL2/Coaster/Track/Separator.h</title>
<!-- Node0 -->
<g id="node1" class="node">
<title>Node0</title>
<polygon fill="#bfbfbf" stroke="#000000" points="62.5049,-175.5 62.5049,-203.5 181.3223,-203.5 181.3223,-175.5 62.5049,-175.5"/>
<text text-anchor="start" x="70.5049" y="-191.5" font-family="Helvetica,sans-Serif" font-size="10.00" fill="#000000">libnolimits/NL2/Coaster</text>
<text text-anchor="middle" x="121.9136" y="-181.5" font-family="Helvetica,sans-Serif" font-size="10.00" fill="#000000">/Track/Separator.h</text>
</g>
<!-- Node1 -->
<g id="node2" class="node">
<title>Node1</title>
<g id="a_node2"><a xlink:href="_n_l2_2_coaster_2_track_2_section_2_section_8h.html" target="_top" xlink:title="Section/Section.h">
<polygon fill="none" stroke="#000000" points="0,-120.5 0,-138.5 93.8271,-138.5 93.8271,-120.5 0,-120.5"/>
<text text-anchor="middle" x="46.9136" y="-126.5" font-family="Helvetica,sans-Serif" font-size="10.00" fill="#000000">Section/Section.h</text>
</a>
</g>
</g>
<!-- Node0&#45;&gt;Node1 -->
<g id="edge1" class="edge">
<title>Node0&#45;&gt;Node1</title>
<path fill="none" stroke="#191970" d="M104.1396,-175.2808C92.7065,-166.1344 77.8536,-154.252 66.1449,-144.8851"/>
<polygon fill="#191970" stroke="#191970" points="68.264,-142.0981 58.2688,-138.5842 63.8911,-147.5642 68.264,-142.0981"/>
</g>
<!-- Node2 -->
<g id="node3" class="node">
<title>Node2</title>
<g id="a_node3"><a xlink:href="_chunk_8h.html" target="_top" xlink:title="../../../../Stream\l/Chunk.h">
<polygon fill="none" stroke="#ff0000" points="119.1279,-.5 119.1279,-28.5 200.6992,-28.5 200.6992,-.5 119.1279,-.5"/>
<text text-anchor="start" x="127.1279" y="-16.5" font-family="Helvetica,sans-Serif" font-size="10.00" fill="#000000">../../../../Stream</text>
<text text-anchor="middle" x="159.9136" y="-6.5" font-family="Helvetica,sans-Serif" font-size="10.00" fill="#000000">/Chunk.h</text>
</a>
</g>
</g>
<!-- Node0&#45;&gt;Node2 -->
<g id="edge9" class="edge">
<title>Node0&#45;&gt;Node2</title>
<path fill="none" stroke="#191970" d="M124.959,-175.4748C131.435,-145.6515 146.6377,-75.6389 154.6925,-38.5444"/>
<polygon fill="#191970" stroke="#191970" points="158.1518,-39.1069 156.8536,-28.592 151.3113,-37.6215 158.1518,-39.1069"/>
</g>
<!-- Node18 -->
<g id="node4" class="node">
<title>Node18</title>
<g id="a_node4"><a xlink:href="_segment_8h.html" target="_top" xlink:title="Segment.h">
<polygon fill="none" stroke="#000000" points="168.7314,-120.5 168.7314,-138.5 233.0957,-138.5 233.0957,-120.5 168.7314,-120.5"/>
<text text-anchor="middle" x="200.9136" y="-126.5" font-family="Helvetica,sans-Serif" font-size="10.00" fill="#000000">Segment.h</text>
</a>
</g>
</g>
<!-- Node0&#45;&gt;Node18 -->
<g id="edge3" class="edge">
<title>Node0&#45;&gt;Node18</title>
<path fill="none" stroke="#191970" d="M140.6355,-175.2808C152.6783,-166.1344 168.3234,-154.252 180.6565,-144.8851"/>
<polygon fill="#191970" stroke="#191970" points="183.1061,-147.4198 188.9527,-138.5842 178.8722,-141.8452 183.1061,-147.4198"/>
</g>
<!-- Node1&#45;&gt;Node2 -->
<g id="edge2" class="edge">
<title>Node1&#45;&gt;Node2</title>
<path fill="none" stroke="#191970" d="M55.4794,-120.1968C67.173,-107.5536 88.86,-84.3077 107.9136,-65 117.4435,-55.3429 128.1693,-44.8631 137.3935,-35.9664"/>
<polygon fill="#191970" stroke="#191970" points="139.9431,-38.3704 144.7294,-28.9182 135.0934,-33.3226 139.9431,-38.3704"/>
</g>
<!-- Node18&#45;&gt;Node2 -->
<g id="edge8" class="edge">
<title>Node18&#45;&gt;Node2</title>
<path fill="none" stroke="#191970" d="M195.8491,-120.3087C191.0192,-111.2707 183.7793,-96.9813 178.9136,-84 173.3708,-69.2124 168.674,-52.1071 165.3369,-38.5665"/>
<polygon fill="#191970" stroke="#191970" points="168.6814,-37.5023 162.9618,-28.584 161.8715,-39.1226 168.6814,-37.5023"/>
</g>
<!-- Node19 -->
<g id="node5" class="node">
<title>Node19</title>
<g id="a_node5"><a xlink:href="_n_l2_2_coaster_2_colors_8h.html" target="_top" xlink:title="../Colors.h">
<polygon fill="none" stroke="#000000" points="188.1279,-65.5 188.1279,-83.5 249.6992,-83.5 249.6992,-65.5 188.1279,-65.5"/>
<text text-anchor="middle" x="218.9136" y="-71.5" font-family="Helvetica,sans-Serif" font-size="10.00" fill="#000000">../Colors.h</text>
</a>
</g>
</g>
<!-- Node18&#45;&gt;Node19 -->
<g id="edge4" class="edge">
<title>Node18&#45;&gt;Node19</title>
<path fill="none" stroke="#191970" d="M203.8859,-120.4179C206.2687,-113.1372 209.6946,-102.669 212.6738,-93.5659"/>
<polygon fill="#191970" stroke="#191970" points="216.0926,-94.3721 215.8767,-83.7795 209.4398,-92.1948 216.0926,-94.3721"/>
</g>
<!-- Node20 -->
<g id="node6" class="node">
<title>Node20</title>
<g id="a_node6"><a xlink:href="_wooden_support_generator_8h.html" target="_top" xlink:title="WoodenSupportGenerator.h">
<polygon fill="none" stroke="#000000" points="267.4575,-65.5 267.4575,-83.5 408.3696,-83.5 408.3696,-65.5 267.4575,-65.5"/>
<text text-anchor="middle" x="337.9136" y="-71.5" font-family="Helvetica,sans-Serif" font-size="10.00" fill="#000000">WoodenSupportGenerator.h</text>
</a>
</g>
</g>
<!-- Node18&#45;&gt;Node20 -->
<g id="edge6" class="edge">
<title>Node18&#45;&gt;Node20</title>
<path fill="none" stroke="#191970" d="M223.5363,-120.4179C245.9456,-111.4215 280.478,-97.5581 305.7381,-87.4172"/>
<polygon fill="#191970" stroke="#191970" points="307.2811,-90.5693 315.2572,-83.5956 304.6731,-84.0732 307.2811,-90.5693"/>
</g>
<!-- Node19&#45;&gt;Node2 -->
<g id="edge5" class="edge">
<title>Node19&#45;&gt;Node2</title>
<path fill="none" stroke="#191970" d="M209.9527,-65.3873C202.349,-57.6546 191.131,-46.2465 181.2427,-36.1906"/>
<polygon fill="#191970" stroke="#191970" points="183.5291,-33.5239 174.0221,-28.8477 178.5379,-38.4319 183.5291,-33.5239"/>
</g>
<!-- Node20&#45;&gt;Node2 -->
<g id="edge7" class="edge">
<title>Node20&#45;&gt;Node2</title>
<path fill="none" stroke="#191970" d="M310.8792,-65.3873C284.3497,-56.4447 243.2371,-42.5866 210.6109,-31.589"/>
<polygon fill="#191970" stroke="#191970" points="211.3777,-28.154 200.7835,-28.2764 209.1417,-34.7873 211.3777,-28.154"/>
</g>
</g>
</svg>
