<?xml version="1.0" encoding="UTF-8" standalone="no"?>
<!DOCTYPE svg PUBLIC "-//W3C//DTD SVG 1.1//EN"
 "http://www.w3.org/Graphics/SVG/1.1/DTD/svg11.dtd">
<!-- Generated by graphviz version 2.40.1 (20161225.0304)
 -->
<!-- Title: libnolimits/NL2/Coaster/Track/Separator.cpp Pages: 1 -->
<svg width="222pt" height="212pt"
 viewBox="0.00 0.00 222.10 212.00" xmlns="http://www.w3.org/2000/svg" xmlns:xlink="http://www.w3.org/1999/xlink">
<g id="graph0" class="graph" transform="scale(1 1) rotate(0) translate(4 208)">
<title>libnolimits/NL2/Coaster/Track/Separator.cpp</title>
<!-- Node0 -->
<g id="node1" class="node">
<title>Node0</title>
<polygon fill="#bfbfbf" stroke="#000000" points="62.5049,-175.5 62.5049,-203.5 181.3223,-203.5 181.3223,-175.5 62.5049,-175.5"/>
<text text-anchor="start" x="70.5049" y="-191.5" font-family="Helvetica,sans-Serif" font-size="10.00" fill="#000000">libnolimits/NL2/Coaster</text>
<text text-anchor="middle" x="121.9136" y="-181.5" font-family="Helvetica,sans-Serif" font-size="10.00" fill="#000000">/Track/Separator.cpp</text>
</g>
<!-- Node1 -->
<g id="node2" class="node">
<title>Node1</title>
<g id="a_node2"><a xlink:href="_separator_8h.html" target="_top" xlink:title="Separator.h">
<polygon fill="none" stroke="#000000" points="88.0591,-120.5 88.0591,-138.5 155.7681,-138.5 155.7681,-120.5 88.0591,-120.5"/>
<text text-anchor="middle" x="121.9136" y="-126.5" font-family="Helvetica,sans-Serif" font-size="10.00" fill="#000000">Separator.h</text>
</a>
</g>
</g>
<!-- Node0&#45;&gt;Node1 -->
<g id="edge1" class="edge">
<title>Node0&#45;&gt;Node1</title>
<path fill="none" stroke="#191970" d="M121.9136,-175.2808C121.9136,-167.3776 121.9136,-157.4316 121.9136,-148.8308"/>
<polygon fill="#191970" stroke="#191970" points="125.4137,-148.5842 121.9136,-138.5842 118.4137,-148.5842 125.4137,-148.5842"/>
</g>
<!-- Node2 -->
<g id="node3" class="node">
<title>Node2</title>
<g id="a_node3"><a xlink:href="_section_8h.html" target="_top" xlink:title="Section/Section.h">
<polygon fill="none" stroke="#000000" points="0,-65.5 0,-83.5 93.8271,-83.5 93.8271,-65.5 0,-65.5"/>
<text text-anchor="middle" x="46.9136" y="-71.5" font-family="Helvetica,sans-Serif" font-size="10.00" fill="#000000">Section/Section.h</text>
</a>
</g>
</g>
<!-- Node1&#45;&gt;Node2 -->
<g id="edge2" class="edge">
<title>Node1&#45;&gt;Node2</title>
<path fill="none" stroke="#191970" d="M109.5288,-120.4179C98.1295,-112.0584 80.9999,-99.4966 67.5371,-89.6239"/>
<polygon fill="#191970" stroke="#191970" points="69.4506,-86.6869 59.3167,-83.5956 65.311,-92.3317 69.4506,-86.6869"/>
</g>
<!-- Node3 -->
<g id="node4" class="node">
<title>Node3</title>
<g id="a_node4"><a xlink:href="_chunk_8h.html" target="_top" xlink:title="../../../../Stream\l/Chunk.h">
<polygon fill="none" stroke="#ff0000" points="81.1279,-.5 81.1279,-28.5 162.6992,-28.5 162.6992,-.5 81.1279,-.5"/>
<text text-anchor="start" x="89.1279" y="-16.5" font-family="Helvetica,sans-Serif" font-size="10.00" fill="#000000">../../../../Stream</text>
<text text-anchor="middle" x="121.9136" y="-6.5" font-family="Helvetica,sans-Serif" font-size="10.00" fill="#000000">/Chunk.h</text>
</a>
</g>
</g>
<!-- Node1&#45;&gt;Node3 -->
<g id="edge6" class="edge">
<title>Node1&#45;&gt;Node3</title>
<path fill="none" stroke="#191970" d="M121.9136,-120.4761C121.9136,-103.0557 121.9136,-64.265 121.9136,-38.7612"/>
<polygon fill="#191970" stroke="#191970" points="125.4137,-38.7455 121.9136,-28.7455 118.4137,-38.7455 125.4137,-38.7455"/>
</g>
<!-- Node19 -->
<g id="node5" class="node">
<title>Node19</title>
<g id="a_node5"><a xlink:href="_segment_8h.html" target="_top" xlink:title="Segment.h">
<polygon fill="none" stroke="#ff0000" points="149.7314,-65.5 149.7314,-83.5 214.0957,-83.5 214.0957,-65.5 149.7314,-65.5"/>
<text text-anchor="middle" x="181.9136" y="-71.5" font-family="Helvetica,sans-Serif" font-size="10.00" fill="#000000">Segment.h</text>
</a>
</g>
</g>
<!-- Node1&#45;&gt;Node19 -->
<g id="edge4" class="edge">
<title>Node1&#45;&gt;Node19</title>
<path fill="none" stroke="#191970" d="M131.8214,-120.4179C140.6272,-112.3458 153.7075,-100.3556 164.2936,-90.6517"/>
<polygon fill="#191970" stroke="#191970" points="166.784,-93.1168 171.7905,-83.7795 162.0539,-87.9567 166.784,-93.1168"/>
</g>
<!-- Node2&#45;&gt;Node3 -->
<g id="edge3" class="edge">
<title>Node2&#45;&gt;Node3</title>
<path fill="none" stroke="#191970" d="M58.3045,-65.3873C68.3218,-57.3734 83.2737,-45.4119 96.1647,-35.0991"/>
<polygon fill="#191970" stroke="#191970" points="98.6435,-37.5983 104.2657,-28.6183 94.2706,-32.1322 98.6435,-37.5983"/>
</g>
<!-- Node19&#45;&gt;Node3 -->
<g id="edge5" class="edge">
<title>Node19&#45;&gt;Node3</title>
<path fill="none" stroke="#191970" d="M172.8009,-65.3873C165.0682,-57.6546 153.6601,-46.2465 143.6042,-36.1906"/>
<polygon fill="#191970" stroke="#191970" points="145.8072,-33.4439 136.2612,-28.8477 140.8574,-38.3936 145.8072,-33.4439"/>
</g>
</g>
</svg>
