<?xml version="1.0" encoding="UTF-8" standalone="no"?>
<!DOCTYPE svg PUBLIC "-//W3C//DTD SVG 1.1//EN"
 "http://www.w3.org/Graphics/SVG/1.1/DTD/svg11.dtd">
<!-- Generated by graphviz version 2.40.1 (20161225.0304)
 -->
<!-- Title: libnolimits/NL2/Coaster/Track/Separator.h Pages: 1 -->
<svg width="333pt" height="167pt"
 viewBox="0.00 0.00 332.82 167.00" xmlns="http://www.w3.org/2000/svg" xmlns:xlink="http://www.w3.org/1999/xlink">
<g id="graph0" class="graph" transform="scale(1 1) rotate(0) translate(4 163)">
<title>libnolimits/NL2/Coaster/Track/Separator.h</title>
<!-- Node21 -->
<g id="node1" class="node">
<title>Node21</title>
<polygon fill="#bfbfbf" stroke="#000000" points="137,-130.5 137,-158.5 255.8174,-158.5 255.8174,-130.5 137,-130.5"/>
<text text-anchor="start" x="145" y="-146.5" font-family="Helvetica,sans-Serif" font-size="10.00" fill="#000000">libnolimits/NL2/Coaster</text>
<text text-anchor="middle" x="196.4087" y="-136.5" font-family="Helvetica,sans-Serif" font-size="10.00" fill="#000000">/Track/Separator.h</text>
</g>
<!-- Node22 -->
<g id="node2" class="node">
<title>Node22</title>
<g id="a_node2"><a xlink:href="_custom_track_8h.html" target="_top" xlink:title="libnolimits/NL2/Coaster\l/Track/CustomTrack.h">
<polygon fill="none" stroke="#000000" points="69,-65.5 69,-93.5 187.8174,-93.5 187.8174,-65.5 69,-65.5"/>
<text text-anchor="start" x="77" y="-81.5" font-family="Helvetica,sans-Serif" font-size="10.00" fill="#000000">libnolimits/NL2/Coaster</text>
<text text-anchor="middle" x="128.4087" y="-71.5" font-family="Helvetica,sans-Serif" font-size="10.00" fill="#000000">/Track/CustomTrack.h</text>
</a>
</g>
</g>
<!-- Node21&#45;&gt;Node22 -->
<g id="edge1" class="edge">
<title>Node21&#45;&gt;Node22</title>
<path fill="none" stroke="#191970" d="M174.2422,-123.3115C164.0419,-113.5612 152.2182,-102.259 143.1349,-93.5765"/>
<polygon fill="#191970" stroke="#191970" points="172.0065,-126.0162 181.6537,-130.396 176.8434,-120.9561 172.0065,-126.0162"/>
</g>
<!-- Node28 -->
<g id="node5" class="node">
<title>Node28</title>
<g id="a_node5"><a xlink:href="_separator_8cpp.html" target="_top" xlink:title="libnolimits/NL2/Coaster\l/Track/Separator.cpp">
<polygon fill="none" stroke="#000000" points="206,-65.5 206,-93.5 324.8174,-93.5 324.8174,-65.5 206,-65.5"/>
<text text-anchor="start" x="214" y="-81.5" font-family="Helvetica,sans-Serif" font-size="10.00" fill="#000000">libnolimits/NL2/Coaster</text>
<text text-anchor="middle" x="265.4087" y="-71.5" font-family="Helvetica,sans-Serif" font-size="10.00" fill="#000000">/Track/Separator.cpp</text>
</a>
</g>
</g>
<!-- Node21&#45;&gt;Node28 -->
<g id="edge4" class="edge">
<title>Node21&#45;&gt;Node28</title>
<path fill="none" stroke="#191970" d="M218.9011,-123.3115C229.2514,-113.5612 241.2491,-102.259 250.4659,-93.5765"/>
<polygon fill="#191970" stroke="#191970" points="216.2597,-120.9914 211.3807,-130.396 221.0595,-126.0866 216.2597,-120.9914"/>
</g>
<!-- Node23 -->
<g id="node3" class="node">
<title>Node23</title>
<g id="a_node3"><a xlink:href="_coaster_8h.html" target="_top" xlink:title="libnolimits/NL2/Coaster\l/Coaster.h">
<polygon fill="none" stroke="#ff0000" points="0,-.5 0,-28.5 118.8174,-28.5 118.8174,-.5 0,-.5"/>
<text text-anchor="start" x="8" y="-16.5" font-family="Helvetica,sans-Serif" font-size="10.00" fill="#000000">libnolimits/NL2/Coaster</text>
<text text-anchor="middle" x="59.4087" y="-6.5" font-family="Helvetica,sans-Serif" font-size="10.00" fill="#000000">/Coaster.h</text>
</a>
</g>
</g>
<!-- Node22&#45;&gt;Node23 -->
<g id="edge2" class="edge">
<title>Node22&#45;&gt;Node23</title>
<path fill="none" stroke="#191970" d="M105.9163,-58.3115C95.566,-48.5612 83.5683,-37.259 74.3514,-28.5765"/>
<polygon fill="#191970" stroke="#191970" points="103.7579,-61.0866 113.4367,-65.396 108.5577,-55.9914 103.7579,-61.0866"/>
</g>
<!-- Node27 -->
<g id="node4" class="node">
<title>Node27</title>
<g id="a_node4"><a xlink:href="_custom_track_8cpp.html" target="_top" xlink:title="libnolimits/NL2/Coaster\l/Track/CustomTrack.cpp">
<polygon fill="none" stroke="#000000" points="136.3193,-.5 136.3193,-28.5 260.498,-28.5 260.498,-.5 136.3193,-.5"/>
<text text-anchor="start" x="144.3193" y="-16.5" font-family="Helvetica,sans-Serif" font-size="10.00" fill="#000000">libnolimits/NL2/Coaster</text>
<text text-anchor="middle" x="198.4087" y="-6.5" font-family="Helvetica,sans-Serif" font-size="10.00" fill="#000000">/Track/CustomTrack.cpp</text>
</a>
</g>
</g>
<!-- Node22&#45;&gt;Node27 -->
<g id="edge3" class="edge">
<title>Node22&#45;&gt;Node27</title>
<path fill="none" stroke="#191970" d="M151.2271,-58.3115C161.7274,-48.5612 173.8989,-37.259 183.2494,-28.5765"/>
<polygon fill="#191970" stroke="#191970" points="148.544,-56.0266 143.5976,-65.396 153.3072,-61.1562 148.544,-56.0266"/>
</g>
</g>
</svg>
