<?xml version="1.0" encoding="UTF-8" standalone="no"?>
<!DOCTYPE svg PUBLIC "-//W3C//DTD SVG 1.1//EN"
 "http://www.w3.org/Graphics/SVG/1.1/DTD/svg11.dtd">
<!-- Generated by graphviz version 2.40.1 (20161225.0304)
 -->
<!-- Title: libnolimits/NL2/Info/Sky.cpp Pages: 1 -->
<svg width="139pt" height="202pt"
 viewBox="0.00 0.00 138.75 202.00" xmlns="http://www.w3.org/2000/svg" xmlns:xlink="http://www.w3.org/1999/xlink">
<g id="graph0" class="graph" transform="scale(1 1) rotate(0) translate(4 198)">
<title>libnolimits/NL2/Info/Sky.cpp</title>
<!-- Node0 -->
<g id="node1" class="node">
<title>Node0</title>
<polygon fill="#bfbfbf" stroke="#000000" points="20.042,-165.5 20.042,-193.5 120.5244,-193.5 120.5244,-165.5 20.042,-165.5"/>
<text text-anchor="start" x="28.042" y="-181.5" font-family="Helvetica,sans-Serif" font-size="10.00" fill="#000000">libnolimits/NL2/Info</text>
<text text-anchor="middle" x="70.2832" y="-171.5" font-family="Helvetica,sans-Serif" font-size="10.00" fill="#000000">/Sky.cpp</text>
</g>
<!-- Node1 -->
<g id="node2" class="node">
<title>Node1</title>
<g id="a_node2"><a xlink:href="_sky_8h.html" target="_top" xlink:title="Sky.h">
<polygon fill="none" stroke="#000000" points="18.147,-110.5 18.147,-128.5 58.4194,-128.5 58.4194,-110.5 18.147,-110.5"/>
<text text-anchor="middle" x="38.2832" y="-116.5" font-family="Helvetica,sans-Serif" font-size="10.00" fill="#000000">Sky.h</text>
</a>
</g>
</g>
<!-- Node0&#45;&gt;Node1 -->
<g id="edge1" class="edge">
<title>Node0&#45;&gt;Node1</title>
<path fill="none" stroke="#191970" d="M62.6996,-165.2808C58.2951,-157.0224 52.7011,-146.5335 47.979,-137.6796"/>
<polygon fill="#191970" stroke="#191970" points="50.9223,-135.7607 43.1281,-128.5842 44.7458,-139.0548 50.9223,-135.7607"/>
</g>
<!-- Node5 -->
<g id="node5" class="node">
<title>Node5</title>
<polygon fill="none" stroke="#bfbfbf" points="76.1108,-110.5 76.1108,-128.5 130.4556,-128.5 130.4556,-110.5 76.1108,-110.5"/>
<text text-anchor="middle" x="103.2832" y="-116.5" font-family="Helvetica,sans-Serif" font-size="10.00" fill="#000000">iostream</text>
</g>
<!-- Node0&#45;&gt;Node5 -->
<g id="edge5" class="edge">
<title>Node0&#45;&gt;Node5</title>
<path fill="none" stroke="#191970" d="M78.1037,-165.2808C82.6947,-156.9336 88.539,-146.3076 93.4412,-137.3946"/>
<polygon fill="#191970" stroke="#191970" points="96.5344,-139.0331 98.2869,-128.5842 90.4009,-135.6596 96.5344,-139.0331"/>
</g>
<!-- Node2 -->
<g id="node3" class="node">
<title>Node2</title>
<g id="a_node3"><a xlink:href="_nolimits_8h.html" target="_top" xlink:title="../../Nolimits.h">
<polygon fill="none" stroke="#ff0000" points="0,-.5 0,-18.5 76.5664,-18.5 76.5664,-.5 0,-.5"/>
<text text-anchor="middle" x="38.2832" y="-6.5" font-family="Helvetica,sans-Serif" font-size="10.00" fill="#000000">../../Nolimits.h</text>
</a>
</g>
</g>
<!-- Node1&#45;&gt;Node2 -->
<g id="edge2" class="edge">
<title>Node1&#45;&gt;Node2</title>
<path fill="none" stroke="#191970" d="M32.5064,-110.1639C27.3559,-101.2522 20.1947,-87.2561 17.2832,-74 13.74,-57.868 20.3821,-40.0528 27.1128,-27.2405"/>
<polygon fill="#191970" stroke="#191970" points="30.1702,-28.9446 32.11,-18.5288 24.0983,-25.4616 30.1702,-28.9446"/>
</g>
<!-- Node11 -->
<g id="node4" class="node">
<title>Node11</title>
<g id="a_node4"><a xlink:href="_chunk_8h.html" target="_top" xlink:title="../../Stream/Chunk.h">
<polygon fill="none" stroke="#ff0000" points="25.8203,-55.5 25.8203,-73.5 130.7461,-73.5 130.7461,-55.5 25.8203,-55.5"/>
<text text-anchor="middle" x="78.2832" y="-61.5" font-family="Helvetica,sans-Serif" font-size="10.00" fill="#000000">../../Stream/Chunk.h</text>
</a>
</g>
</g>
<!-- Node1&#45;&gt;Node11 -->
<g id="edge3" class="edge">
<title>Node1&#45;&gt;Node11</title>
<path fill="none" stroke="#191970" d="M44.8884,-110.4179C50.4712,-102.7415 58.6311,-91.5217 65.4872,-82.0945"/>
<polygon fill="#191970" stroke="#191970" points="68.4833,-83.9255 71.5345,-73.7795 62.8222,-79.8082 68.4833,-83.9255"/>
</g>
<!-- Node11&#45;&gt;Node2 -->
<g id="edge4" class="edge">
<title>Node11&#45;&gt;Node2</title>
<path fill="none" stroke="#191970" d="M71.678,-55.4179C66.0952,-47.7415 57.9354,-36.5217 51.0792,-27.0945"/>
<polygon fill="#191970" stroke="#191970" points="53.7442,-24.8082 45.0319,-18.7795 48.0831,-28.9255 53.7442,-24.8082"/>
</g>
</g>
</svg>
