<?xml version="1.0" encoding="UTF-8" standalone="no"?>
<!DOCTYPE svg PUBLIC "-//W3C//DTD SVG 1.1//EN"
 "http://www.w3.org/Graphics/SVG/1.1/DTD/svg11.dtd">
<!-- Generated by graphviz version 2.40.1 (20161225.0304)
 -->
<!-- Title: libnolimits/NL2/Info/Sky.h Pages: 1 -->
<svg width="303pt" height="257pt"
 viewBox="0.00 0.00 303.41 257.00" xmlns="http://www.w3.org/2000/svg" xmlns:xlink="http://www.w3.org/1999/xlink">
<g id="graph0" class="graph" transform="scale(1 1) rotate(0) translate(4 253)">
<title>libnolimits/NL2/Info/Sky.h</title>
<!-- Node0 -->
<g id="node1" class="node">
<title>Node0</title>
<polygon fill="#bfbfbf" stroke="#000000" points="53.1084,-220.5 53.1084,-248.5 153.5908,-248.5 153.5908,-220.5 53.1084,-220.5"/>
<text text-anchor="start" x="61.1084" y="-236.5" font-family="Helvetica,sans-Serif" font-size="10.00" fill="#000000">libnolimits/NL2/Info</text>
<text text-anchor="middle" x="103.3496" y="-226.5" font-family="Helvetica,sans-Serif" font-size="10.00" fill="#000000">/Sky.h</text>
</g>
<!-- Node1 -->
<g id="node2" class="node">
<title>Node1</title>
<g id="a_node2"><a xlink:href="_nolimits_8h.html" target="_top" xlink:title="../../Nolimits.h">
<polygon fill="none" stroke="#000000" points="53.0664,-55.5 53.0664,-73.5 129.6328,-73.5 129.6328,-55.5 53.0664,-55.5"/>
<text text-anchor="middle" x="91.3496" y="-61.5" font-family="Helvetica,sans-Serif" font-size="10.00" fill="#000000">../../Nolimits.h</text>
</a>
</g>
</g>
<!-- Node0&#45;&gt;Node1 -->
<g id="edge1" class="edge">
<title>Node0&#45;&gt;Node1</title>
<path fill="none" stroke="#191970" d="M99.4811,-220.4802C96.9052,-210.417 93.7464,-196.4842 92.3496,-184 88.4045,-148.739 89.284,-107.2602 90.3027,-83.6068"/>
<polygon fill="#191970" stroke="#191970" points="93.8027,-83.6908 90.7935,-73.5323 86.811,-83.3502 93.8027,-83.6908"/>
</g>
<!-- Node10 -->
<g id="node5" class="node">
<title>Node10</title>
<g id="a_node5"><a xlink:href="_chunk_8h.html" target="_top" xlink:title="../../Stream/Chunk.h">
<polygon fill="none" stroke="#000000" points="100.8867,-165.5 100.8867,-183.5 205.8125,-183.5 205.8125,-165.5 100.8867,-165.5"/>
<text text-anchor="middle" x="153.3496" y="-171.5" font-family="Helvetica,sans-Serif" font-size="10.00" fill="#000000">../../Stream/Chunk.h</text>
</a>
</g>
</g>
<!-- Node0&#45;&gt;Node10 -->
<g id="edge4" class="edge">
<title>Node0&#45;&gt;Node10</title>
<path fill="none" stroke="#191970" d="M115.1989,-220.2808C122.377,-211.6672 131.577,-200.6271 139.1441,-191.5466"/>
<polygon fill="#191970" stroke="#191970" points="142.0664,-193.5071 145.7795,-183.5842 136.6888,-189.0258 142.0664,-193.5071"/>
</g>
<!-- Node2 -->
<g id="node3" class="node">
<title>Node2</title>
<polygon fill="none" stroke="#bfbfbf" points="0,-.5 0,-18.5 92.6992,-18.5 92.6992,-.5 0,-.5"/>
<text text-anchor="middle" x="46.3496" y="-6.5" font-family="Helvetica,sans-Serif" font-size="10.00" fill="#000000">glm/common.hpp</text>
</g>
<!-- Node1&#45;&gt;Node2 -->
<g id="edge2" class="edge">
<title>Node1&#45;&gt;Node2</title>
<path fill="none" stroke="#191970" d="M83.9188,-55.4179C77.5734,-47.6624 68.2687,-36.29 60.507,-26.8035"/>
<polygon fill="#191970" stroke="#191970" points="62.9832,-24.3027 53.9419,-18.7795 57.5654,-28.7354 62.9832,-24.3027"/>
</g>
<!-- Node3 -->
<g id="node4" class="node">
<title>Node3</title>
<g id="a_node4"><a xlink:href="_helper_8h.html" target="_top" xlink:title="Helper.h">
<polygon fill="none" stroke="#ff0000" points="110.7241,-.5 110.7241,-18.5 163.9751,-18.5 163.9751,-.5 110.7241,-.5"/>
<text text-anchor="middle" x="137.3496" y="-6.5" font-family="Helvetica,sans-Serif" font-size="10.00" fill="#000000">Helper.h</text>
</a>
</g>
</g>
<!-- Node1&#45;&gt;Node3 -->
<g id="edge3" class="edge">
<title>Node1&#45;&gt;Node3</title>
<path fill="none" stroke="#191970" d="M98.9456,-55.4179C105.4982,-47.5833 115.1379,-36.0575 123.12,-26.5137"/>
<polygon fill="#191970" stroke="#191970" points="125.8578,-28.6957 129.5886,-18.7795 120.4882,-24.2048 125.8578,-28.6957"/>
</g>
<!-- Node10&#45;&gt;Node1 -->
<g id="edge8" class="edge">
<title>Node10&#45;&gt;Node1</title>
<path fill="none" stroke="#191970" d="M142.2837,-165.497C132.5587,-157.0283 118.6927,-143.5103 110.3496,-129 102.2579,-114.9268 97.3507,-97.1104 94.556,-83.7702"/>
<polygon fill="#191970" stroke="#191970" points="97.9687,-82.9792 92.6817,-73.7978 91.0891,-84.2722 97.9687,-82.9792"/>
</g>
<!-- Node11 -->
<g id="node6" class="node">
<title>Node11</title>
<g id="a_node6"><a xlink:href="_file_8h.html" target="_top" xlink:title="../File/File.h">
<polygon fill="none" stroke="#ff0000" points="119.5098,-110.5 119.5098,-128.5 187.1895,-128.5 187.1895,-110.5 119.5098,-110.5"/>
<text text-anchor="middle" x="153.3496" y="-116.5" font-family="Helvetica,sans-Serif" font-size="10.00" fill="#000000">../File/File.h</text>
</a>
</g>
</g>
<!-- Node10&#45;&gt;Node11 -->
<g id="edge5" class="edge">
<title>Node10&#45;&gt;Node11</title>
<path fill="none" stroke="#191970" d="M153.3496,-165.4179C153.3496,-158.2164 153.3496,-147.8962 153.3496,-138.8632"/>
<polygon fill="#191970" stroke="#191970" points="156.8497,-138.7794 153.3496,-128.7795 149.8497,-138.7795 156.8497,-138.7794"/>
</g>
<!-- Node15 -->
<g id="node7" class="node">
<title>Node15</title>
<polygon fill="none" stroke="#bfbfbf" points="169.229,-55.5 169.229,-73.5 217.4702,-73.5 217.4702,-55.5 169.229,-55.5"/>
<text text-anchor="middle" x="193.3496" y="-61.5" font-family="Helvetica,sans-Serif" font-size="10.00" fill="#000000">stdint.h</text>
</g>
<!-- Node10&#45;&gt;Node15 -->
<g id="edge9" class="edge">
<title>Node10&#45;&gt;Node15</title>
<path fill="none" stroke="#191970" d="M166.262,-165.3491C176.5968,-157.1662 190.324,-144.1487 196.3496,-129 202.1113,-114.5149 200.7281,-96.7341 198.2622,-83.5124"/>
<polygon fill="#191970" stroke="#191970" points="201.6566,-82.6527 196.0694,-73.6509 194.8235,-84.1723 201.6566,-82.6527"/>
</g>
<!-- Node16 -->
<g id="node8" class="node">
<title>Node16</title>
<polygon fill="none" stroke="#bfbfbf" points="243.2881,-110.5 243.2881,-128.5 295.4111,-128.5 295.4111,-110.5 243.2881,-110.5"/>
<text text-anchor="middle" x="269.3496" y="-116.5" font-family="Helvetica,sans-Serif" font-size="10.00" fill="#000000">ostream</text>
</g>
<!-- Node10&#45;&gt;Node16 -->
<g id="edge10" class="edge">
<title>Node10&#45;&gt;Node16</title>
<path fill="none" stroke="#191970" d="M172.5047,-165.4179C191.1431,-156.5807 219.6863,-143.0473 240.9632,-132.9591"/>
<polygon fill="#191970" stroke="#191970" points="242.6298,-136.0424 250.1661,-128.5956 239.6308,-129.7174 242.6298,-136.0424"/>
</g>
<!-- Node11&#45;&gt;Node1 -->
<g id="edge7" class="edge">
<title>Node11&#45;&gt;Node1</title>
<path fill="none" stroke="#191970" d="M143.1116,-110.4179C134.0122,-102.3458 120.4959,-90.3556 109.557,-80.6517"/>
<polygon fill="#191970" stroke="#191970" points="111.6135,-77.7974 101.8101,-73.7795 106.9682,-83.0339 111.6135,-77.7974"/>
</g>
<!-- Node11&#45;&gt;Node15 -->
<g id="edge6" class="edge">
<title>Node11&#45;&gt;Node15</title>
<path fill="none" stroke="#191970" d="M159.9548,-110.4179C165.5376,-102.7415 173.6975,-91.5217 180.5536,-82.0945"/>
<polygon fill="#191970" stroke="#191970" points="183.5497,-83.9255 186.6009,-73.7795 177.8886,-79.8082 183.5497,-83.9255"/>
</g>
</g>
</svg>
