<?xml version="1.0" encoding="UTF-8" standalone="no"?>
<!DOCTYPE svg PUBLIC "-//W3C//DTD SVG 1.1//EN"
 "http://www.w3.org/Graphics/SVG/1.1/DTD/svg11.dtd">
<!-- Generated by graphviz version 2.40.1 (20161225.0304)
 -->
<!-- Title: libnolimits/NL2/Coaster/Track/SpecialTrack.h Pages: 1 -->
<svg width="516pt" height="312pt"
 viewBox="0.00 0.00 516.07 312.00" xmlns="http://www.w3.org/2000/svg" xmlns:xlink="http://www.w3.org/1999/xlink">
<g id="graph0" class="graph" transform="scale(1 1) rotate(0) translate(4 308)">
<title>libnolimits/NL2/Coaster/Track/SpecialTrack.h</title>
<!-- Node0 -->
<g id="node1" class="node">
<title>Node0</title>
<polygon fill="#bfbfbf" stroke="#000000" points="38.207,-275.5 38.207,-303.5 157.0244,-303.5 157.0244,-275.5 38.207,-275.5"/>
<text text-anchor="start" x="46.207" y="-291.5" font-family="Helvetica,sans-Serif" font-size="10.00" fill="#000000">libnolimits/NL2/Coaster</text>
<text text-anchor="middle" x="97.6157" y="-281.5" font-family="Helvetica,sans-Serif" font-size="10.00" fill="#000000">/Track/SpecialTrack.h</text>
</g>
<!-- Node1 -->
<g id="node2" class="node">
<title>Node1</title>
<polygon fill="none" stroke="#bfbfbf" points="0,-220.5 0,-238.5 43.2314,-238.5 43.2314,-220.5 0,-220.5"/>
<text text-anchor="middle" x="21.6157" y="-226.5" font-family="Helvetica,sans-Serif" font-size="10.00" fill="#000000">vector</text>
</g>
<!-- Node0&#45;&gt;Node1 -->
<g id="edge1" class="edge">
<title>Node0&#45;&gt;Node1</title>
<path fill="none" stroke="#191970" d="M79.6048,-275.2808C68.0193,-266.1344 52.9683,-254.252 41.1035,-244.8851"/>
<polygon fill="#191970" stroke="#191970" points="43.14,-242.0336 33.1224,-238.5842 38.8024,-247.5278 43.14,-242.0336"/>
</g>
<!-- Node2 -->
<g id="node3" class="node">
<title>Node2</title>
<g id="a_node3"><a xlink:href="_chunk_8h.html" target="_top" xlink:title="../../../Stream/Chunk.h">
<polygon fill="none" stroke="#000000" points="164.9854,-110.5 164.9854,-128.5 278.2461,-128.5 278.2461,-110.5 164.9854,-110.5"/>
<text text-anchor="middle" x="221.6157" y="-116.5" font-family="Helvetica,sans-Serif" font-size="10.00" fill="#000000">../../../Stream/Chunk.h</text>
</a>
</g>
</g>
<!-- Node0&#45;&gt;Node2 -->
<g id="edge2" class="edge">
<title>Node0&#45;&gt;Node2</title>
<path fill="none" stroke="#191970" d="M95.1317,-275.4051C93.482,-265.3065 91.4684,-251.3623 90.6157,-239 88.2066,-204.0733 92.3223,-189.2058 117.6157,-165 133.7674,-149.5429 156.0255,-138.8504 175.8069,-131.7349"/>
<polygon fill="#191970" stroke="#191970" points="176.9337,-135.0486 185.2812,-128.524 174.6869,-128.419 176.9337,-135.0486"/>
</g>
<!-- Node17 -->
<g id="node7" class="node">
<title>Node17</title>
<g id="a_node7"><a xlink:href="_track_8h.html" target="_top" xlink:title="Track.h">
<polygon fill="none" stroke="#000000" points="99.1289,-220.5 99.1289,-238.5 148.1025,-238.5 148.1025,-220.5 99.1289,-220.5"/>
<text text-anchor="middle" x="123.6157" y="-226.5" font-family="Helvetica,sans-Serif" font-size="10.00" fill="#000000">Track.h</text>
</a>
</g>
</g>
<!-- Node0&#45;&gt;Node17 -->
<g id="edge8" class="edge">
<title>Node0&#45;&gt;Node17</title>
<path fill="none" stroke="#191970" d="M103.7774,-275.2808C107.3175,-267.1112 111.8036,-256.7588 115.6139,-247.9658"/>
<polygon fill="#191970" stroke="#191970" points="118.9146,-249.1514 119.6792,-238.5842 112.4917,-246.3681 118.9146,-249.1514"/>
</g>
<!-- Node19 -->
<g id="node9" class="node">
<title>Node19</title>
<g id="a_node9"><a xlink:href="_segment_8h.html" target="_top" xlink:title="Segment.h">
<polygon fill="none" stroke="#000000" points="256.4336,-220.5 256.4336,-238.5 320.7979,-238.5 320.7979,-220.5 256.4336,-220.5"/>
<text text-anchor="middle" x="288.6157" y="-226.5" font-family="Helvetica,sans-Serif" font-size="10.00" fill="#000000">Segment.h</text>
</a>
</g>
</g>
<!-- Node0&#45;&gt;Node19 -->
<g id="edge12" class="edge">
<title>Node0&#45;&gt;Node19</title>
<path fill="none" stroke="#191970" d="M142.3967,-275.4327C175.1302,-265.1499 219.0628,-251.3491 250.2025,-241.567"/>
<polygon fill="#191970" stroke="#191970" points="251.3415,-244.8779 259.8329,-238.5417 249.2436,-238.1996 251.3415,-244.8779"/>
</g>
<!-- Node3 -->
<g id="node4" class="node">
<title>Node3</title>
<g id="a_node4"><a xlink:href="_file_8h.html" target="_top" xlink:title="../File/File.h">
<polygon fill="none" stroke="#ff0000" points="187.7759,-55.5 187.7759,-73.5 255.4556,-73.5 255.4556,-55.5 187.7759,-55.5"/>
<text text-anchor="middle" x="221.6157" y="-61.5" font-family="Helvetica,sans-Serif" font-size="10.00" fill="#000000">../File/File.h</text>
</a>
</g>
</g>
<!-- Node2&#45;&gt;Node3 -->
<g id="edge3" class="edge">
<title>Node2&#45;&gt;Node3</title>
<path fill="none" stroke="#191970" d="M221.6157,-110.4179C221.6157,-103.2164 221.6157,-92.8962 221.6157,-83.8632"/>
<polygon fill="#191970" stroke="#191970" points="225.1158,-83.7794 221.6157,-73.7795 218.1158,-83.7795 225.1158,-83.7794"/>
</g>
<!-- Node7 -->
<g id="node5" class="node">
<title>Node7</title>
<polygon fill="none" stroke="#bfbfbf" points="159.4951,-.5 159.4951,-18.5 207.7363,-18.5 207.7363,-.5 159.4951,-.5"/>
<text text-anchor="middle" x="183.6157" y="-6.5" font-family="Helvetica,sans-Serif" font-size="10.00" fill="#000000">stdint.h</text>
</g>
<!-- Node2&#45;&gt;Node7 -->
<g id="edge6" class="edge">
<title>Node2&#45;&gt;Node7</title>
<path fill="none" stroke="#191970" d="M208.7034,-110.3491C198.3686,-102.1662 184.6413,-89.1487 178.6157,-74 172.843,-59.4871 174.8173,-41.7087 177.8255,-28.495"/>
<polygon fill="#191970" stroke="#191970" points="181.2584,-29.2048 180.4482,-18.641 174.4939,-27.4044 181.2584,-29.2048"/>
</g>
<!-- Node8 -->
<g id="node6" class="node">
<title>Node8</title>
<g id="a_node6"><a xlink:href="_nolimits_8h.html" target="_top" xlink:title="../Nolimits.h">
<polygon fill="none" stroke="#ff0000" points="237.5,-.5 237.5,-18.5 305.7314,-18.5 305.7314,-.5 237.5,-.5"/>
<text text-anchor="middle" x="271.6157" y="-6.5" font-family="Helvetica,sans-Serif" font-size="10.00" fill="#000000">../Nolimits.h</text>
</a>
</g>
</g>
<!-- Node2&#45;&gt;Node8 -->
<g id="edge7" class="edge">
<title>Node2&#45;&gt;Node8</title>
<path fill="none" stroke="#191970" d="M233.7103,-110.4994C243.8289,-102.2267 257.6893,-88.9984 264.6157,-74 271.1172,-59.9218 272.6504,-42.3317 272.6787,-29.0784"/>
<polygon fill="#191970" stroke="#191970" points="276.1686,-28.6484 272.4033,-18.7453 269.1711,-28.835 276.1686,-28.6484"/>
</g>
<!-- Node3&#45;&gt;Node7 -->
<g id="edge4" class="edge">
<title>Node3&#45;&gt;Node7</title>
<path fill="none" stroke="#191970" d="M215.3408,-55.4179C210.0371,-47.7415 202.2853,-36.5217 195.7719,-27.0945"/>
<polygon fill="#191970" stroke="#191970" points="198.5909,-25.0173 190.027,-18.7795 192.8318,-28.9963 198.5909,-25.0173"/>
</g>
<!-- Node3&#45;&gt;Node8 -->
<g id="edge5" class="edge">
<title>Node3&#45;&gt;Node8</title>
<path fill="none" stroke="#191970" d="M229.8722,-55.4179C237.0665,-47.5041 247.6845,-35.8243 256.4111,-26.2251"/>
<polygon fill="#191970" stroke="#191970" points="259.0429,-28.5332 263.1799,-18.7795 253.8633,-23.8245 259.0429,-28.5332"/>
</g>
<!-- Node17&#45;&gt;Node2 -->
<g id="edge9" class="edge">
<title>Node17&#45;&gt;Node2</title>
<path fill="none" stroke="#191970" d="M121.673,-220.2433C119.4,-206.818 117.2577,-181.7246 128.6157,-165 139.0833,-149.5866 156.3215,-139.1954 173.1311,-132.2865"/>
<polygon fill="#191970" stroke="#191970" points="174.7929,-135.4012 182.9244,-128.6094 172.3322,-128.8479 174.7929,-135.4012"/>
</g>
<!-- Node18 -->
<g id="node8" class="node">
<title>Node18</title>
<g id="a_node8"><a xlink:href="_section_8h.html" target="_top" xlink:title="Section/Section.h">
<polygon fill="none" stroke="#000000" points="137.7021,-165.5 137.7021,-183.5 231.5293,-183.5 231.5293,-165.5 137.7021,-165.5"/>
<text text-anchor="middle" x="184.6157" y="-171.5" font-family="Helvetica,sans-Serif" font-size="10.00" fill="#000000">Section/Section.h</text>
</a>
</g>
</g>
<!-- Node17&#45;&gt;Node18 -->
<g id="edge10" class="edge">
<title>Node17&#45;&gt;Node18</title>
<path fill="none" stroke="#191970" d="M133.6886,-220.4179C142.6412,-212.3458 155.9395,-200.3556 166.702,-190.6517"/>
<polygon fill="#191970" stroke="#191970" points="169.2408,-193.0753 174.324,-183.7795 164.5533,-187.8764 169.2408,-193.0753"/>
</g>
<!-- Node18&#45;&gt;Node2 -->
<g id="edge11" class="edge">
<title>Node18&#45;&gt;Node2</title>
<path fill="none" stroke="#191970" d="M190.7255,-165.4179C195.8896,-157.7415 203.4375,-146.5217 209.7794,-137.0945"/>
<polygon fill="#191970" stroke="#191970" points="212.6954,-139.0303 215.3732,-128.7795 206.8873,-135.1231 212.6954,-139.0303"/>
</g>
<!-- Node19&#45;&gt;Node2 -->
<g id="edge17" class="edge">
<title>Node19&#45;&gt;Node2</title>
<path fill="none" stroke="#191970" d="M283.1328,-220.4982C272.0905,-202.369 246.9933,-161.1647 232.4977,-137.3659"/>
<polygon fill="#191970" stroke="#191970" points="235.3655,-135.346 227.1744,-128.6261 229.3872,-138.9873 235.3655,-135.346"/>
</g>
<!-- Node20 -->
<g id="node10" class="node">
<title>Node20</title>
<g id="a_node10"><a xlink:href="_colors_8h.html" target="_top" xlink:title="../Colors.h">
<polygon fill="none" stroke="#000000" points="287.8301,-165.5 287.8301,-183.5 349.4014,-183.5 349.4014,-165.5 287.8301,-165.5"/>
<text text-anchor="middle" x="318.6157" y="-171.5" font-family="Helvetica,sans-Serif" font-size="10.00" fill="#000000">../Colors.h</text>
</a>
</g>
</g>
<!-- Node19&#45;&gt;Node20 -->
<g id="edge13" class="edge">
<title>Node19&#45;&gt;Node20</title>
<path fill="none" stroke="#191970" d="M293.5696,-220.4179C297.6704,-212.8998 303.6251,-201.9829 308.6994,-192.6799"/>
<polygon fill="#191970" stroke="#191970" points="311.8383,-194.2344 313.5542,-183.7795 305.693,-190.8824 311.8383,-194.2344"/>
</g>
<!-- Node21 -->
<g id="node11" class="node">
<title>Node21</title>
<g id="a_node11"><a xlink:href="_wooden_support_generator_8h.html" target="_top" xlink:title="WoodenSupportGenerator.h">
<polygon fill="none" stroke="#000000" points="367.1597,-165.5 367.1597,-183.5 508.0718,-183.5 508.0718,-165.5 367.1597,-165.5"/>
<text text-anchor="middle" x="437.6157" y="-171.5" font-family="Helvetica,sans-Serif" font-size="10.00" fill="#000000">WoodenSupportGenerator.h</text>
</a>
</g>
</g>
<!-- Node19&#45;&gt;Node21 -->
<g id="edge15" class="edge">
<title>Node19&#45;&gt;Node21</title>
<path fill="none" stroke="#191970" d="M313.22,-220.4179C337.8078,-211.3419 375.8151,-197.3123 403.3489,-187.1488"/>
<polygon fill="#191970" stroke="#191970" points="404.8056,-190.342 412.9749,-183.5956 402.3815,-183.7751 404.8056,-190.342"/>
</g>
<!-- Node20&#45;&gt;Node2 -->
<g id="edge14" class="edge">
<title>Node20&#45;&gt;Node2</title>
<path fill="none" stroke="#191970" d="M302.5981,-165.4179C287.4338,-156.8195 264.4287,-143.7754 246.8082,-133.7844"/>
<polygon fill="#191970" stroke="#191970" points="248.0824,-130.4834 237.6571,-128.5956 244.6297,-136.5727 248.0824,-130.4834"/>
</g>
<!-- Node21&#45;&gt;Node2 -->
<g id="edge16" class="edge">
<title>Node21&#45;&gt;Node2</title>
<path fill="none" stroke="#191970" d="M401.9477,-165.4179C364.9426,-155.9953 306.9695,-141.2336 266.7868,-131.0019"/>
<polygon fill="#191970" stroke="#191970" points="267.5322,-127.5801 256.9777,-128.5042 265.8048,-134.3636 267.5322,-127.5801"/>
</g>
</g>
</svg>
