<?xml version="1.0" encoding="UTF-8" standalone="no"?>
<!DOCTYPE svg PUBLIC "-//W3C//DTD SVG 1.1//EN"
 "http://www.w3.org/Graphics/SVG/1.1/DTD/svg11.dtd">
<!-- Generated by graphviz version 2.40.1 (20161225.0304)
 -->
<!-- Title: libnolimits/NL2/Coaster/Track/SpecialTrack.cpp Pages: 1 -->
<svg width="443pt" height="367pt"
 viewBox="0.00 0.00 443.09 367.00" xmlns="http://www.w3.org/2000/svg" xmlns:xlink="http://www.w3.org/1999/xlink">
<g id="graph0" class="graph" transform="scale(1 1) rotate(0) translate(4 363)">
<title>libnolimits/NL2/Coaster/Track/SpecialTrack.cpp</title>
<!-- Node0 -->
<g id="node1" class="node">
<title>Node0</title>
<polygon fill="#bfbfbf" stroke="#000000" points="124.6519,-330.5 124.6519,-358.5 247.1753,-358.5 247.1753,-330.5 124.6519,-330.5"/>
<text text-anchor="start" x="132.6519" y="-346.5" font-family="Helvetica,sans-Serif" font-size="10.00" fill="#000000">libnolimits/NL2/Coaster</text>
<text text-anchor="middle" x="185.9136" y="-336.5" font-family="Helvetica,sans-Serif" font-size="10.00" fill="#000000">/Track/SpecialTrack.cpp</text>
</g>
<!-- Node1 -->
<g id="node2" class="node">
<title>Node1</title>
<g id="a_node2"><a xlink:href="_special_track_8h.html" target="_top" xlink:title="SpecialTrack.h">
<polygon fill="none" stroke="#000000" points="96.0278,-220.5 96.0278,-238.5 177.7993,-238.5 177.7993,-220.5 96.0278,-220.5"/>
<text text-anchor="middle" x="136.9136" y="-226.5" font-family="Helvetica,sans-Serif" font-size="10.00" fill="#000000">SpecialTrack.h</text>
</a>
</g>
</g>
<!-- Node0&#45;&gt;Node1 -->
<g id="edge1" class="edge">
<title>Node0&#45;&gt;Node1</title>
<path fill="none" stroke="#191970" d="M166.7971,-330.4212C156.1444,-321.3524 143.8594,-308.5572 137.9136,-294 132.0837,-279.7265 132.235,-262.1511 133.6204,-248.9532"/>
<polygon fill="#191970" stroke="#191970" points="137.1388,-249.0591 135.0362,-238.6749 130.2043,-248.1037 137.1388,-249.0591"/>
</g>
<!-- Node23 -->
<g id="node9" class="node">
<title>Node23</title>
<g id="a_node9"><a xlink:href="_switch_track_8h.html" target="_top" xlink:title="SwitchTrack.h">
<polygon fill="none" stroke="#000000" points="146.7002,-275.5 146.7002,-293.5 225.127,-293.5 225.127,-275.5 146.7002,-275.5"/>
<text text-anchor="middle" x="185.9136" y="-281.5" font-family="Helvetica,sans-Serif" font-size="10.00" fill="#000000">SwitchTrack.h</text>
</a>
</g>
</g>
<!-- Node0&#45;&gt;Node23 -->
<g id="edge11" class="edge">
<title>Node0&#45;&gt;Node23</title>
<path fill="none" stroke="#191970" d="M185.9136,-330.2808C185.9136,-322.3776 185.9136,-312.4316 185.9136,-303.8308"/>
<polygon fill="#191970" stroke="#191970" points="189.4137,-303.5842 185.9136,-293.5842 182.4137,-303.5842 189.4137,-303.5842"/>
</g>
<!-- Node24 -->
<g id="node10" class="node">
<title>Node24</title>
<g id="a_node10"><a xlink:href="_transfer_table_8h.html" target="_top" xlink:title="TransferTable.h">
<polygon fill="none" stroke="#000000" points="5.3579,-275.5 5.3579,-293.5 90.4692,-293.5 90.4692,-275.5 5.3579,-275.5"/>
<text text-anchor="middle" x="47.9136" y="-281.5" font-family="Helvetica,sans-Serif" font-size="10.00" fill="#000000">TransferTable.h</text>
</a>
</g>
</g>
<!-- Node0&#45;&gt;Node24 -->
<g id="edge15" class="edge">
<title>Node0&#45;&gt;Node24</title>
<path fill="none" stroke="#191970" d="M153.5587,-330.4327C130.7968,-320.5362 100.5399,-307.381 78.2414,-297.686"/>
<polygon fill="#191970" stroke="#191970" points="79.4813,-294.4086 68.915,-293.6311 76.6902,-300.8281 79.4813,-294.4086"/>
</g>
<!-- Node25 -->
<g id="node11" class="node">
<title>Node25</title>
<g id="a_node11"><a xlink:href="_memory_file_8h.html" target="_top" xlink:title="../../../File/MemoryFile.h">
<polygon fill="none" stroke="#000000" points="242.6821,-275.5 242.6821,-293.5 363.145,-293.5 363.145,-275.5 242.6821,-275.5"/>
<text text-anchor="middle" x="302.9136" y="-281.5" font-family="Helvetica,sans-Serif" font-size="10.00" fill="#000000">../../../File/MemoryFile.h</text>
</a>
</g>
</g>
<!-- Node0&#45;&gt;Node25 -->
<g id="edge20" class="edge">
<title>Node0&#45;&gt;Node25</title>
<path fill="none" stroke="#191970" d="M213.3449,-330.4327C232.2968,-320.7137 257.3774,-307.8519 276.1771,-298.211"/>
<polygon fill="#191970" stroke="#191970" points="277.8069,-301.3086 285.108,-293.6311 274.6127,-295.0799 277.8069,-301.3086"/>
</g>
<!-- Node12 -->
<g id="node13" class="node">
<title>Node12</title>
<polygon fill="none" stroke="#bfbfbf" points="380.7412,-275.5 380.7412,-293.5 435.0859,-293.5 435.0859,-275.5 380.7412,-275.5"/>
<text text-anchor="middle" x="407.9136" y="-281.5" font-family="Helvetica,sans-Serif" font-size="10.00" fill="#000000">iostream</text>
</g>
<!-- Node0&#45;&gt;Node12 -->
<g id="edge23" class="edge">
<title>Node0&#45;&gt;Node12</title>
<path fill="none" stroke="#191970" d="M237.9627,-330.4327C278.7287,-319.4148 334.4393,-304.3579 370.7899,-294.5334"/>
<polygon fill="#191970" stroke="#191970" points="371.7603,-297.8968 380.5007,-291.9089 369.9339,-291.1393 371.7603,-297.8968"/>
</g>
<!-- Node2 -->
<g id="node3" class="node">
<title>Node2</title>
<polygon fill="none" stroke="#bfbfbf" points="22.2979,-165.5 22.2979,-183.5 65.5293,-183.5 65.5293,-165.5 22.2979,-165.5"/>
<text text-anchor="middle" x="43.9136" y="-171.5" font-family="Helvetica,sans-Serif" font-size="10.00" fill="#000000">vector</text>
</g>
<!-- Node1&#45;&gt;Node2 -->
<g id="edge2" class="edge">
<title>Node1&#45;&gt;Node2</title>
<path fill="none" stroke="#191970" d="M121.5565,-220.4179C107.0175,-211.8195 84.961,-198.7754 68.0672,-188.7844"/>
<polygon fill="#191970" stroke="#191970" points="69.6825,-185.6735 59.2934,-183.5956 66.1192,-191.6987 69.6825,-185.6735"/>
</g>
<!-- Node3 -->
<g id="node4" class="node">
<title>Node3</title>
<g id="a_node4"><a xlink:href="_chunk_8h.html" target="_top" xlink:title="../../../Stream/Chunk.h">
<polygon fill="none" stroke="#ff0000" points="103.2832,-55.5 103.2832,-73.5 216.5439,-73.5 216.5439,-55.5 103.2832,-55.5"/>
<text text-anchor="middle" x="159.9136" y="-61.5" font-family="Helvetica,sans-Serif" font-size="10.00" fill="#000000">../../../Stream/Chunk.h</text>
</a>
</g>
</g>
<!-- Node1&#45;&gt;Node3 -->
<g id="edge3" class="edge">
<title>Node1&#45;&gt;Node3</title>
<path fill="none" stroke="#191970" d="M138.2161,-220.1561C141.869,-193.9504 152.267,-119.3557 157.223,-83.8021"/>
<polygon fill="#191970" stroke="#191970" points="160.7112,-84.1289 158.6254,-73.7414 153.7782,-83.1624 160.7112,-84.1289"/>
</g>
<!-- Node18 -->
<g id="node6" class="node">
<title>Node18</title>
<g id="a_node6"><a xlink:href="_track_8h.html" target="_top" xlink:title="Track.h">
<polygon fill="none" stroke="#000000" points="83.4268,-165.5 83.4268,-183.5 132.4004,-183.5 132.4004,-165.5 83.4268,-165.5"/>
<text text-anchor="middle" x="107.9136" y="-171.5" font-family="Helvetica,sans-Serif" font-size="10.00" fill="#000000">Track.h</text>
</a>
</g>
</g>
<!-- Node1&#45;&gt;Node18 -->
<g id="edge5" class="edge">
<title>Node1&#45;&gt;Node18</title>
<path fill="none" stroke="#191970" d="M132.1248,-220.4179C128.1607,-212.8998 122.4045,-201.9829 117.4993,-192.6799"/>
<polygon fill="#191970" stroke="#191970" points="120.5665,-190.9927 112.8064,-183.7795 114.3745,-194.2576 120.5665,-190.9927"/>
</g>
<!-- Node20 -->
<g id="node8" class="node">
<title>Node20</title>
<g id="a_node8"><a xlink:href="_segment_8h.html" target="_top" xlink:title="Segment.h">
<polygon fill="none" stroke="#ff0000" points="187.7314,-165.5 187.7314,-183.5 252.0957,-183.5 252.0957,-165.5 187.7314,-165.5"/>
<text text-anchor="middle" x="219.9136" y="-171.5" font-family="Helvetica,sans-Serif" font-size="10.00" fill="#000000">Segment.h</text>
</a>
</g>
</g>
<!-- Node1&#45;&gt;Node20 -->
<g id="edge9" class="edge">
<title>Node1&#45;&gt;Node20</title>
<path fill="none" stroke="#191970" d="M150.6193,-220.4179C163.3547,-211.9788 182.5531,-199.257 197.5148,-189.3426"/>
<polygon fill="#191970" stroke="#191970" points="199.7849,-192.037 206.1875,-183.5956 195.9182,-186.2019 199.7849,-192.037"/>
</g>
<!-- Node4 -->
<g id="node5" class="node">
<title>Node4</title>
<g id="a_node5"><a xlink:href="_file_8h.html" target="_top" xlink:title="../File/File.h">
<polygon fill="none" stroke="#ff0000" points="186.0737,-.5 186.0737,-18.5 253.7534,-18.5 253.7534,-.5 186.0737,-.5"/>
<text text-anchor="middle" x="219.9136" y="-6.5" font-family="Helvetica,sans-Serif" font-size="10.00" fill="#000000">../File/File.h</text>
</a>
</g>
</g>
<!-- Node3&#45;&gt;Node4 -->
<g id="edge4" class="edge">
<title>Node3&#45;&gt;Node4</title>
<path fill="none" stroke="#191970" d="M169.8214,-55.4179C178.6272,-47.3458 191.7075,-35.3556 202.2936,-25.6517"/>
<polygon fill="#191970" stroke="#191970" points="204.784,-28.1168 209.7905,-18.7795 200.0539,-22.9567 204.784,-28.1168"/>
</g>
<!-- Node18&#45;&gt;Node3 -->
<g id="edge6" class="edge">
<title>Node18&#45;&gt;Node3</title>
<path fill="none" stroke="#191970" d="M112.169,-165.4982C120.701,-147.4496 140.0446,-106.5306 151.3174,-82.6843"/>
<polygon fill="#191970" stroke="#191970" points="154.4898,-84.1627 155.5994,-73.6261 148.1613,-81.171 154.4898,-84.1627"/>
</g>
<!-- Node19 -->
<g id="node7" class="node">
<title>Node19</title>
<g id="a_node7"><a xlink:href="_section_8h.html" target="_top" xlink:title="Section/Section.h">
<polygon fill="none" stroke="#000000" points="0,-110.5 0,-128.5 93.8271,-128.5 93.8271,-110.5 0,-110.5"/>
<text text-anchor="middle" x="46.9136" y="-116.5" font-family="Helvetica,sans-Serif" font-size="10.00" fill="#000000">Section/Section.h</text>
</a>
</g>
</g>
<!-- Node18&#45;&gt;Node19 -->
<g id="edge7" class="edge">
<title>Node18&#45;&gt;Node19</title>
<path fill="none" stroke="#191970" d="M97.8407,-165.4179C88.8881,-157.3458 75.5898,-145.3556 64.8273,-135.6517"/>
<polygon fill="#191970" stroke="#191970" points="66.976,-132.8764 57.2053,-128.7795 62.2885,-138.0753 66.976,-132.8764"/>
</g>
<!-- Node19&#45;&gt;Node3 -->
<g id="edge8" class="edge">
<title>Node19&#45;&gt;Node3</title>
<path fill="none" stroke="#191970" d="M65.5732,-110.4179C83.6478,-101.6205 111.2843,-88.1691 131.9808,-78.0956"/>
<polygon fill="#191970" stroke="#191970" points="133.7664,-81.1191 141.2262,-73.5956 130.7029,-74.825 133.7664,-81.1191"/>
</g>
<!-- Node20&#45;&gt;Node3 -->
<g id="edge10" class="edge">
<title>Node20&#45;&gt;Node3</title>
<path fill="none" stroke="#191970" d="M215.0035,-165.4982C205.1588,-147.4496 182.8393,-106.5306 169.8323,-82.6843"/>
<polygon fill="#191970" stroke="#191970" points="172.7527,-80.7291 164.8915,-73.6261 166.6074,-84.0811 172.7527,-80.7291"/>
</g>
<!-- Node23&#45;&gt;Node1 -->
<g id="edge13" class="edge">
<title>Node23&#45;&gt;Node1</title>
<path fill="none" stroke="#191970" d="M177.8222,-275.4179C170.8423,-267.5833 160.5739,-256.0575 152.0712,-246.5137"/>
<polygon fill="#191970" stroke="#191970" points="154.4461,-243.9178 145.1807,-238.7795 149.2195,-248.5743 154.4461,-243.9178"/>
</g>
<!-- Node23&#45;&gt;Node2 -->
<g id="edge12" class="edge">
<title>Node23&#45;&gt;Node2</title>
<path fill="none" stroke="#191970" d="M155.3079,-275.375C134.3764,-268.0215 106.908,-256.0748 86.9136,-239 71.9252,-226.2003 60.0131,-206.9361 52.5628,-192.7929"/>
<polygon fill="#191970" stroke="#191970" points="55.5506,-190.9425 47.9462,-183.5652 49.2904,-194.0745 55.5506,-190.9425"/>
</g>
<!-- Node23&#45;&gt;Node20 -->
<g id="edge14" class="edge">
<title>Node23&#45;&gt;Node20</title>
<path fill="none" stroke="#191970" d="M195.524,-275.4497C203.793,-266.9492 215.124,-253.4111 219.9136,-239 224.7758,-224.3705 224.4084,-206.822 223.03,-193.725"/>
<polygon fill="#191970" stroke="#191970" points="226.4631,-192.9925 221.6644,-183.5468 219.5253,-193.9234 226.4631,-192.9925"/>
</g>
<!-- Node24&#45;&gt;Node1 -->
<g id="edge17" class="edge">
<title>Node24&#45;&gt;Node1</title>
<path fill="none" stroke="#191970" d="M62.6101,-275.4179C76.3949,-266.8992 97.2413,-254.0166 113.3484,-244.0627"/>
<polygon fill="#191970" stroke="#191970" points="115.5284,-246.83 122.1952,-238.5956 111.8485,-240.8753 115.5284,-246.83"/>
</g>
<!-- Node24&#45;&gt;Node2 -->
<g id="edge16" class="edge">
<title>Node24&#45;&gt;Node2</title>
<path fill="none" stroke="#191970" d="M47.5862,-275.4982C46.9387,-257.6913 45.4817,-217.6225 44.61,-193.6515"/>
<polygon fill="#191970" stroke="#191970" points="48.1066,-193.4923 44.2454,-183.6261 41.1112,-193.7468 48.1066,-193.4923"/>
</g>
<!-- Node24&#45;&gt;Node19 -->
<g id="edge18" class="edge">
<title>Node24&#45;&gt;Node19</title>
<path fill="none" stroke="#191970" d="M41.4628,-275.4369C28.0207,-255.389 -.6546,-205.8243 12.9136,-165 16.4684,-154.3043 23.6264,-144.0894 30.4616,-136.058"/>
<polygon fill="#191970" stroke="#191970" points="33.1545,-138.2992 37.3031,-128.5503 27.9805,-133.5843 33.1545,-138.2992"/>
</g>
<!-- Node24&#45;&gt;Node20 -->
<g id="edge19" class="edge">
<title>Node24&#45;&gt;Node20</title>
<path fill="none" stroke="#191970" d="M90.7027,-279.2251C120.5717,-273.6183 159.7916,-262.1765 186.9136,-239 200.7823,-227.1488 209.5285,-208.0241 214.505,-193.6709"/>
<polygon fill="#191970" stroke="#191970" points="217.9402,-194.4138 217.5982,-183.8245 211.262,-192.3159 217.9402,-194.4138"/>
</g>
<!-- Node25&#45;&gt;Node4 -->
<g id="edge21" class="edge">
<title>Node25&#45;&gt;Node4</title>
<path fill="none" stroke="#191970" d="M299.9936,-275.4847C294.2234,-256.8424 281.9136,-212.6066 281.9136,-174.5 281.9136,-174.5 281.9136,-174.5 281.9136,-119.5 281.9136,-82.3143 254.6921,-46.1119 236.3238,-25.9163"/>
<polygon fill="#191970" stroke="#191970" points="238.7436,-23.3812 229.33,-18.5196 233.6573,-28.1905 238.7436,-23.3812"/>
</g>
<!-- Node15 -->
<g id="node12" class="node">
<title>Node15</title>
<polygon fill="none" stroke="#bfbfbf" points="309.687,-220.5 309.687,-238.5 350.1401,-238.5 350.1401,-220.5 309.687,-220.5"/>
<text text-anchor="middle" x="329.9136" y="-226.5" font-family="Helvetica,sans-Serif" font-size="10.00" fill="#000000">string</text>
</g>
<!-- Node25&#45;&gt;Node15 -->
<g id="edge22" class="edge">
<title>Node25&#45;&gt;Node15</title>
<path fill="none" stroke="#191970" d="M307.3721,-275.4179C311.0239,-267.9789 316.3093,-257.2123 320.8444,-247.9742"/>
<polygon fill="#191970" stroke="#191970" points="324.0933,-249.2985 325.3582,-238.7795 317.8096,-246.2138 324.0933,-249.2985"/>
</g>
</g>
</svg>
