<?xml version="1.0" encoding="UTF-8" standalone="no"?>
<!DOCTYPE svg PUBLIC "-//W3C//DTD SVG 1.1//EN"
 "http://www.w3.org/Graphics/SVG/1.1/DTD/svg11.dtd">
<!-- Generated by graphviz version 2.40.1 (20161225.0304)
 -->
<!-- Title: libnolimits/NL2/Coaster/Track/Section/Station.h Pages: 1 -->
<svg width="320pt" height="377pt"
 viewBox="0.00 0.00 320.00 377.00" xmlns="http://www.w3.org/2000/svg" xmlns:xlink="http://www.w3.org/1999/xlink">
<g id="graph0" class="graph" transform="scale(1 1) rotate(0) translate(4 373)">
<title>libnolimits/NL2/Coaster/Track/Section/Station.h</title>
<!-- Node0 -->
<g id="node1" class="node">
<title>Node0</title>
<polygon fill="#bfbfbf" stroke="#000000" points="82.1021,-340.5 82.1021,-368.5 203.8979,-368.5 203.8979,-340.5 82.1021,-340.5"/>
<text text-anchor="start" x="90.1021" y="-356.5" font-family="Helvetica,sans-Serif" font-size="10.00" fill="#000000">libnolimits/NL2/Coaster</text>
<text text-anchor="middle" x="143" y="-346.5" font-family="Helvetica,sans-Serif" font-size="10.00" fill="#000000">/Track/Section/Station.h</text>
</g>
<!-- Node1 -->
<g id="node2" class="node">
<title>Node1</title>
<g id="a_node2"><a xlink:href="_section_8h.html" target="_top" xlink:title="Section.h">
<polygon fill="none" stroke="#000000" points="167.1528,-65.5 167.1528,-83.5 224.8472,-83.5 224.8472,-65.5 167.1528,-65.5"/>
<text text-anchor="middle" x="196" y="-71.5" font-family="Helvetica,sans-Serif" font-size="10.00" fill="#000000">Section.h</text>
</a>
</g>
</g>
<!-- Node0&#45;&gt;Node1 -->
<g id="edge1" class="edge">
<title>Node0&#45;&gt;Node1</title>
<path fill="none" stroke="#191970" d="M154.9342,-340.2985C171.1101,-319.5551 198,-279.1148 198,-239.5 198,-239.5 198,-239.5 198,-184.5 198,-152.7665 197.1576,-115.892 196.5663,-93.9151"/>
<polygon fill="#191970" stroke="#191970" points="200.0568,-93.5237 196.2781,-83.6256 193.0595,-93.7197 200.0568,-93.5237"/>
</g>
<!-- Node2 -->
<g id="node3" class="node">
<title>Node2</title>
<g id="a_node3"><a xlink:href="_chunk_8h.html" target="_top" xlink:title="../../../../Stream\l/Chunk.h">
<polygon fill="none" stroke="#ff0000" points="96.2144,-.5 96.2144,-28.5 177.7856,-28.5 177.7856,-.5 96.2144,-.5"/>
<text text-anchor="start" x="104.2144" y="-16.5" font-family="Helvetica,sans-Serif" font-size="10.00" fill="#000000">../../../../Stream</text>
<text text-anchor="middle" x="137" y="-6.5" font-family="Helvetica,sans-Serif" font-size="10.00" fill="#000000">/Chunk.h</text>
</a>
</g>
</g>
<!-- Node0&#45;&gt;Node2 -->
<g id="edge17" class="edge">
<title>Node0&#45;&gt;Node2</title>
<path fill="none" stroke="#191970" d="M99.7072,-340.4019C57.6186,-323.653 0,-291.27 0,-239.5 0,-239.5 0,-239.5 0,-129.5 0,-82.3519 48.1887,-50.6785 87.4067,-32.7084"/>
<polygon fill="#191970" stroke="#191970" points="88.8913,-35.879 96.6365,-28.6497 86.0735,-29.4712 88.8913,-35.879"/>
</g>
<!-- Node18 -->
<g id="node4" class="node">
<title>Node18</title>
<g id="a_node4"><a xlink:href="_wait_time_8h.html" target="_top" xlink:title="WaitTime.h">
<polygon fill="none" stroke="#000000" points="49.0854,-285.5 49.0854,-303.5 114.9146,-303.5 114.9146,-285.5 49.0854,-285.5"/>
<text text-anchor="middle" x="82" y="-291.5" font-family="Helvetica,sans-Serif" font-size="10.00" fill="#000000">WaitTime.h</text>
</a>
</g>
</g>
<!-- Node0&#45;&gt;Node18 -->
<g id="edge3" class="edge">
<title>Node0&#45;&gt;Node18</title>
<path fill="none" stroke="#191970" d="M128.5439,-340.2808C119.5158,-331.4008 107.8659,-319.9419 98.48,-310.7098"/>
<polygon fill="#191970" stroke="#191970" points="100.8192,-308.1014 91.2356,-303.5842 95.9105,-313.0919 100.8192,-308.1014"/>
</g>
<!-- Node20 -->
<g id="node6" class="node">
<title>Node20</title>
<g id="a_node6"><a xlink:href="_transport_device_8h.html" target="_top" xlink:title="TransportDevice.h">
<polygon fill="none" stroke="#000000" points="72.3335,-175.5 72.3335,-193.5 169.6665,-193.5 169.6665,-175.5 72.3335,-175.5"/>
<text text-anchor="middle" x="121" y="-181.5" font-family="Helvetica,sans-Serif" font-size="10.00" fill="#000000">TransportDevice.h</text>
</a>
</g>
</g>
<!-- Node0&#45;&gt;Node20 -->
<g id="edge6" class="edge">
<title>Node0&#45;&gt;Node20</title>
<path fill="none" stroke="#191970" d="M141.1621,-340.2983C137.2282,-309.8994 127.9871,-238.4909 123.5137,-203.9244"/>
<polygon fill="#191970" stroke="#191970" points="126.9486,-203.1947 122.194,-193.7266 120.0065,-204.0932 126.9486,-203.1947"/>
</g>
<!-- Node22 -->
<g id="node8" class="node">
<title>Node22</title>
<g id="a_node8"><a xlink:href="_brake_device_8h.html" target="_top" xlink:title="BrakeDevice.h">
<polygon fill="none" stroke="#000000" points="226.4854,-285.5 226.4854,-303.5 307.5146,-303.5 307.5146,-285.5 226.4854,-285.5"/>
<text text-anchor="middle" x="267" y="-291.5" font-family="Helvetica,sans-Serif" font-size="10.00" fill="#000000">BrakeDevice.h</text>
</a>
</g>
</g>
<!-- Node0&#45;&gt;Node22 -->
<g id="edge11" class="edge">
<title>Node0&#45;&gt;Node22</title>
<path fill="none" stroke="#191970" d="M172.0725,-340.4327C192.25,-330.6693 218.9823,-317.7344 238.9364,-308.0792"/>
<polygon fill="#191970" stroke="#191970" points="240.652,-311.1373 248.1291,-303.6311 237.6031,-304.8362 240.652,-311.1373"/>
</g>
<!-- Node1&#45;&gt;Node2 -->
<g id="edge2" class="edge">
<title>Node1&#45;&gt;Node2</title>
<path fill="none" stroke="#191970" d="M187.0392,-65.3873C179.4354,-57.6546 168.2174,-46.2465 158.3291,-36.1906"/>
<polygon fill="#191970" stroke="#191970" points="160.6156,-33.5239 151.1085,-28.8477 155.6244,-38.4319 160.6156,-33.5239"/>
</g>
<!-- Node18&#45;&gt;Node2 -->
<g id="edge5" class="edge">
<title>Node18&#45;&gt;Node2</title>
<path fill="none" stroke="#191970" d="M75.5076,-285.2906C63.2683,-266.9986 38,-224.4026 38,-184.5 38,-184.5 38,-184.5 38,-129.5 38,-88.1971 75.1316,-54.3515 103.914,-34.3205"/>
<polygon fill="#191970" stroke="#191970" points="106.1648,-37.0257 112.5281,-28.5545 102.271,-31.2086 106.1648,-37.0257"/>
</g>
<!-- Node19 -->
<g id="node5" class="node">
<title>Node19</title>
<polygon fill="none" stroke="#bfbfbf" points="66.3843,-230.5 66.3843,-248.5 109.6157,-248.5 109.6157,-230.5 66.3843,-230.5"/>
<text text-anchor="middle" x="88" y="-236.5" font-family="Helvetica,sans-Serif" font-size="10.00" fill="#000000">vector</text>
</g>
<!-- Node18&#45;&gt;Node19 -->
<g id="edge4" class="edge">
<title>Node18&#45;&gt;Node19</title>
<path fill="none" stroke="#191970" d="M82.9908,-285.4179C83.7764,-278.2164 84.9022,-267.8962 85.8877,-258.8632"/>
<polygon fill="#191970" stroke="#191970" points="89.3825,-259.1001 86.9877,-248.7795 82.4238,-258.3409 89.3825,-259.1001"/>
</g>
<!-- Node20&#45;&gt;Node2 -->
<g id="edge10" class="edge">
<title>Node20&#45;&gt;Node2</title>
<path fill="none" stroke="#191970" d="M113.8652,-175.3751C107.5008,-166.6126 98.6429,-152.7175 95,-139 92.8326,-130.8384 93.4099,-128.2934 95,-120 100.6723,-90.4157 114.5363,-58.562 124.7923,-37.6879"/>
<polygon fill="#191970" stroke="#191970" points="127.9725,-39.1544 129.3467,-28.6491 121.7213,-36.0046 127.9725,-39.1544"/>
</g>
<!-- Node21 -->
<g id="node7" class="node">
<title>Node21</title>
<g id="a_node7"><a xlink:href="_transport_8h.html" target="_top" xlink:title="Transport.h">
<polygon fill="none" stroke="#000000" points="103.6167,-120.5 103.6167,-138.5 170.3833,-138.5 170.3833,-120.5 103.6167,-120.5"/>
<text text-anchor="middle" x="137" y="-126.5" font-family="Helvetica,sans-Serif" font-size="10.00" fill="#000000">Transport.h</text>
</a>
</g>
</g>
<!-- Node20&#45;&gt;Node21 -->
<g id="edge7" class="edge">
<title>Node20&#45;&gt;Node21</title>
<path fill="none" stroke="#191970" d="M123.6421,-175.4179C125.7601,-168.1372 128.8054,-157.669 131.4536,-148.5659"/>
<polygon fill="#191970" stroke="#191970" points="134.8678,-149.3591 134.3005,-138.7795 128.1465,-147.4037 134.8678,-149.3591"/>
</g>
<!-- Node21&#45;&gt;Node1 -->
<g id="edge8" class="edge">
<title>Node21&#45;&gt;Node1</title>
<path fill="none" stroke="#191970" d="M146.7427,-120.4179C155.4017,-112.3458 168.264,-100.3556 178.6736,-90.6517"/>
<polygon fill="#191970" stroke="#191970" points="181.1176,-93.1584 186.0457,-83.7795 176.3444,-88.0381 181.1176,-93.1584"/>
</g>
<!-- Node21&#45;&gt;Node2 -->
<g id="edge9" class="edge">
<title>Node21&#45;&gt;Node2</title>
<path fill="none" stroke="#191970" d="M137,-120.4761C137,-103.0557 137,-64.265 137,-38.7612"/>
<polygon fill="#191970" stroke="#191970" points="140.5001,-38.7455 137,-28.7455 133.5001,-38.7455 140.5001,-38.7455"/>
</g>
<!-- Node22&#45;&gt;Node2 -->
<g id="edge12" class="edge">
<title>Node22&#45;&gt;Node2</title>
<path fill="none" stroke="#191970" d="M273.6399,-285.3128C286.1574,-267.0598 312,-224.5289 312,-184.5 312,-184.5 312,-184.5 312,-129.5 312,-69.5603 239.4124,-39.1272 187.7357,-25.056"/>
<polygon fill="#191970" stroke="#191970" points="188.5884,-21.6615 178.0297,-22.5358 186.8291,-28.4368 188.5884,-21.6615"/>
</g>
<!-- Node23 -->
<g id="node9" class="node">
<title>Node23</title>
<g id="a_node9"><a xlink:href="_brake_8h.html" target="_top" xlink:title="Brake.h">
<polygon fill="none" stroke="#000000" points="229.7686,-230.5 229.7686,-248.5 280.2314,-248.5 280.2314,-230.5 229.7686,-230.5"/>
<text text-anchor="middle" x="255" y="-236.5" font-family="Helvetica,sans-Serif" font-size="10.00" fill="#000000">Brake.h</text>
</a>
</g>
</g>
<!-- Node22&#45;&gt;Node23 -->
<g id="edge13" class="edge">
<title>Node22&#45;&gt;Node23</title>
<path fill="none" stroke="#191970" d="M265.0184,-285.4179C263.4299,-278.1372 261.146,-267.669 259.1598,-258.5659"/>
<polygon fill="#191970" stroke="#191970" points="262.5759,-257.8035 257.0246,-248.7795 255.7368,-259.2957 262.5759,-257.8035"/>
</g>
<!-- Node23&#45;&gt;Node1 -->
<g id="edge14" class="edge">
<title>Node23&#45;&gt;Node1</title>
<path fill="none" stroke="#191970" d="M251.6589,-230.1561C242.2478,-203.837 215.3838,-128.709 202.7376,-93.3426"/>
<polygon fill="#191970" stroke="#191970" points="205.9672,-91.9791 199.3045,-83.7414 199.3759,-94.336 205.9672,-91.9791"/>
</g>
<!-- Node23&#45;&gt;Node2 -->
<g id="edge16" class="edge">
<title>Node23&#45;&gt;Node2</title>
<path fill="none" stroke="#191970" d="M256.6721,-230.4811C261.2788,-202.7994 271.461,-117.7385 234,-65 222.6825,-49.0669 204.7831,-37.7822 187.4249,-29.9837"/>
<polygon fill="#191970" stroke="#191970" points="188.4591,-26.6228 177.8824,-26.0025 185.7638,-33.0831 188.4591,-26.6228"/>
</g>
<!-- Node23&#45;&gt;Node20 -->
<g id="edge15" class="edge">
<title>Node23&#45;&gt;Node20</title>
<path fill="none" stroke="#191970" d="M232.8726,-230.4179C210.9541,-221.4215 177.1778,-207.5581 152.4709,-197.4172"/>
<polygon fill="#191970" stroke="#191970" points="153.7403,-194.1549 143.1602,-193.5956 151.0823,-200.6306 153.7403,-194.1549"/>
</g>
</g>
</svg>
