<?xml version="1.0" encoding="UTF-8" standalone="no"?>
<!DOCTYPE svg PUBLIC "-//W3C//DTD SVG 1.1//EN"
 "http://www.w3.org/Graphics/SVG/1.1/DTD/svg11.dtd">
<!-- Generated by graphviz version 2.40.1 (20161225.0304)
 -->
<!-- Title: libnolimits/NL2/Coaster/Track/Section/Station.cpp Pages: 1 -->
<svg width="402pt" height="212pt"
 viewBox="0.00 0.00 402.36 212.00" xmlns="http://www.w3.org/2000/svg" xmlns:xlink="http://www.w3.org/1999/xlink">
<g id="graph0" class="graph" transform="scale(1 1) rotate(0) translate(4 208)">
<title>libnolimits/NL2/Coaster/Track/Section/Station.cpp</title>
<!-- Node0 -->
<g id="node1" class="node">
<title>Node0</title>
<polygon fill="#bfbfbf" stroke="#000000" points="116.6685,-175.5 116.6685,-203.5 249.0259,-203.5 249.0259,-175.5 116.6685,-175.5"/>
<text text-anchor="start" x="124.6685" y="-191.5" font-family="Helvetica,sans-Serif" font-size="10.00" fill="#000000">libnolimits/NL2/Coaster</text>
<text text-anchor="middle" x="182.8472" y="-181.5" font-family="Helvetica,sans-Serif" font-size="10.00" fill="#000000">/Track/Section/Station.cpp</text>
</g>
<!-- Node1 -->
<g id="node2" class="node">
<title>Node1</title>
<g id="a_node2"><a xlink:href="_station_8h.html" target="_top" xlink:title="Station.h">
<polygon fill="none" stroke="#000000" points="119.1108,-120.5 119.1108,-138.5 174.5835,-138.5 174.5835,-120.5 119.1108,-120.5"/>
<text text-anchor="middle" x="146.8472" y="-126.5" font-family="Helvetica,sans-Serif" font-size="10.00" fill="#000000">Station.h</text>
</a>
</g>
</g>
<!-- Node0&#45;&gt;Node1 -->
<g id="edge1" class="edge">
<title>Node0&#45;&gt;Node1</title>
<path fill="none" stroke="#191970" d="M174.3157,-175.2808C169.3073,-166.9336 162.9318,-156.3076 157.5839,-147.3946"/>
<polygon fill="#191970" stroke="#191970" points="160.4439,-145.3584 152.2977,-138.5842 154.4415,-148.9599 160.4439,-145.3584"/>
</g>
<!-- Node12 -->
<g id="node8" class="node">
<title>Node12</title>
<polygon fill="none" stroke="#bfbfbf" points="192.6748,-120.5 192.6748,-138.5 247.0195,-138.5 247.0195,-120.5 192.6748,-120.5"/>
<text text-anchor="middle" x="219.8472" y="-126.5" font-family="Helvetica,sans-Serif" font-size="10.00" fill="#000000">iostream</text>
</g>
<!-- Node0&#45;&gt;Node12 -->
<g id="edge11" class="edge">
<title>Node0&#45;&gt;Node12</title>
<path fill="none" stroke="#191970" d="M191.6157,-175.2808C196.8179,-166.8448 203.4554,-156.0813 208.9872,-147.1107"/>
<polygon fill="#191970" stroke="#191970" points="211.9754,-148.933 214.2453,-138.5842 206.0172,-145.2588 211.9754,-148.933"/>
</g>
<!-- Node2 -->
<g id="node3" class="node">
<title>Node2</title>
<g id="a_node3"><a xlink:href="_section_8h.html" target="_top" xlink:title="Section.h">
<polygon fill="none" stroke="#000000" points="0,-65.5 0,-83.5 57.6943,-83.5 57.6943,-65.5 0,-65.5"/>
<text text-anchor="middle" x="28.8472" y="-71.5" font-family="Helvetica,sans-Serif" font-size="10.00" fill="#000000">Section.h</text>
</a>
</g>
</g>
<!-- Node1&#45;&gt;Node2 -->
<g id="edge2" class="edge">
<title>Node1&#45;&gt;Node2</title>
<path fill="none" stroke="#191970" d="M127.3619,-120.4179C108.3167,-111.5409 79.105,-97.9253 57.431,-87.823"/>
<polygon fill="#191970" stroke="#191970" points="58.9039,-84.648 48.3614,-83.5956 55.9466,-90.9927 58.9039,-84.648"/>
</g>
<!-- Node3 -->
<g id="node4" class="node">
<title>Node3</title>
<g id="a_node4"><a xlink:href="_chunk_8h.html" target="_top" xlink:title="../../../../Stream\l/Chunk.h">
<polygon fill="none" stroke="#ff0000" points="106.0615,-.5 106.0615,-28.5 187.6328,-28.5 187.6328,-.5 106.0615,-.5"/>
<text text-anchor="start" x="114.0615" y="-16.5" font-family="Helvetica,sans-Serif" font-size="10.00" fill="#000000">../../../../Stream</text>
<text text-anchor="middle" x="146.8472" y="-6.5" font-family="Helvetica,sans-Serif" font-size="10.00" fill="#000000">/Chunk.h</text>
</a>
</g>
</g>
<!-- Node1&#45;&gt;Node3 -->
<g id="edge10" class="edge">
<title>Node1&#45;&gt;Node3</title>
<path fill="none" stroke="#191970" d="M133.9867,-120.4121C118.9316,-108.5533 96.988,-86.7405 104.8472,-65 108.7251,-54.2726 115.9852,-44.2181 123.3921,-35.9485"/>
<polygon fill="#191970" stroke="#191970" points="126.0398,-38.2442 130.4331,-28.6031 120.9865,-33.4003 126.0398,-38.2442"/>
</g>
<!-- Node19 -->
<g id="node5" class="node">
<title>Node19</title>
<g id="a_node5"><a xlink:href="_wait_time_8h.html" target="_top" xlink:title="WaitTime.h">
<polygon fill="none" stroke="#ff0000" points="113.9326,-65.5 113.9326,-83.5 179.7617,-83.5 179.7617,-65.5 113.9326,-65.5"/>
<text text-anchor="middle" x="146.8472" y="-71.5" font-family="Helvetica,sans-Serif" font-size="10.00" fill="#000000">WaitTime.h</text>
</a>
</g>
</g>
<!-- Node1&#45;&gt;Node19 -->
<g id="edge4" class="edge">
<title>Node1&#45;&gt;Node19</title>
<path fill="none" stroke="#191970" d="M146.8472,-120.4179C146.8472,-113.2164 146.8472,-102.8962 146.8472,-93.8632"/>
<polygon fill="#191970" stroke="#191970" points="150.3473,-93.7794 146.8472,-83.7795 143.3473,-93.7795 150.3473,-93.7794"/>
</g>
<!-- Node21 -->
<g id="node6" class="node">
<title>Node21</title>
<g id="a_node6"><a xlink:href="_transport_device_8h.html" target="_top" xlink:title="TransportDevice.h">
<polygon fill="none" stroke="#ff0000" points="198.1807,-65.5 198.1807,-83.5 295.5137,-83.5 295.5137,-65.5 198.1807,-65.5"/>
<text text-anchor="middle" x="246.8472" y="-71.5" font-family="Helvetica,sans-Serif" font-size="10.00" fill="#000000">TransportDevice.h</text>
</a>
</g>
</g>
<!-- Node1&#45;&gt;Node21 -->
<g id="edge6" class="edge">
<title>Node1&#45;&gt;Node21</title>
<path fill="none" stroke="#191970" d="M163.3601,-120.4179C179.1382,-111.7399 203.15,-98.5334 221.3787,-88.5077"/>
<polygon fill="#191970" stroke="#191970" points="223.2342,-91.4816 230.3097,-83.5956 219.8608,-85.3481 223.2342,-91.4816"/>
</g>
<!-- Node23 -->
<g id="node7" class="node">
<title>Node23</title>
<g id="a_node7"><a xlink:href="_brake_device_8h.html" target="_top" xlink:title="BrakeDevice.h">
<polygon fill="none" stroke="#ff0000" points="313.3325,-65.5 313.3325,-83.5 394.3618,-83.5 394.3618,-65.5 313.3325,-65.5"/>
<text text-anchor="middle" x="353.8472" y="-71.5" font-family="Helvetica,sans-Serif" font-size="10.00" fill="#000000">BrakeDevice.h</text>
</a>
</g>
</g>
<!-- Node1&#45;&gt;Node23 -->
<g id="edge8" class="edge">
<title>Node1&#45;&gt;Node23</title>
<path fill="none" stroke="#191970" d="M174.7641,-122.0825C209.529,-112.8454 269.3096,-96.9617 310.1612,-86.1074"/>
<polygon fill="#191970" stroke="#191970" points="311.0896,-89.4822 319.8555,-83.5316 309.292,-82.7169 311.0896,-89.4822"/>
</g>
<!-- Node2&#45;&gt;Node3 -->
<g id="edge3" class="edge">
<title>Node2&#45;&gt;Node3</title>
<path fill="none" stroke="#191970" d="M46.7688,-65.3873C63.5051,-56.8773 88.9961,-43.9158 110.0623,-33.2042"/>
<polygon fill="#191970" stroke="#191970" points="111.7537,-36.2707 119.0812,-28.6183 108.581,-30.031 111.7537,-36.2707"/>
</g>
<!-- Node19&#45;&gt;Node3 -->
<g id="edge5" class="edge">
<title>Node19&#45;&gt;Node3</title>
<path fill="none" stroke="#191970" d="M146.8472,-65.3873C146.8472,-58.3369 146.8472,-48.2311 146.8472,-38.8806"/>
<polygon fill="#191970" stroke="#191970" points="150.3473,-38.8476 146.8472,-28.8477 143.3473,-38.8477 150.3473,-38.8476"/>
</g>
<!-- Node21&#45;&gt;Node3 -->
<g id="edge7" class="edge">
<title>Node21&#45;&gt;Node3</title>
<path fill="none" stroke="#191970" d="M231.6593,-65.3873C217.7941,-57.0681 196.8385,-44.4948 179.2271,-33.928"/>
<polygon fill="#191970" stroke="#191970" points="180.7533,-30.7621 170.3776,-28.6183 177.1518,-36.7645 180.7533,-30.7621"/>
</g>
<!-- Node23&#45;&gt;Node3 -->
<g id="edge9" class="edge">
<title>Node23&#45;&gt;Node3</title>
<path fill="none" stroke="#191970" d="M322.4083,-65.3873C289.2521,-55.7768 236.509,-40.4889 197.4785,-29.1758"/>
<polygon fill="#191970" stroke="#191970" points="198.4503,-25.8134 187.8713,-26.391 196.5015,-32.5367 198.4503,-25.8134"/>
</g>
</g>
</svg>
