<?xml version="1.0" encoding="UTF-8" standalone="no"?>
<!DOCTYPE svg PUBLIC "-//W3C//DTD SVG 1.1//EN"
 "http://www.w3.org/Graphics/SVG/1.1/DTD/svg11.dtd">
<!-- Generated by graphviz version 2.40.1 (20161225.0304)
 -->
<!-- Title: libnolimits/NL2/Coaster/Track/Section/Storage.h Pages: 1 -->
<svg width="296pt" height="102pt"
 viewBox="0.00 0.00 296.41 102.00" xmlns="http://www.w3.org/2000/svg" xmlns:xlink="http://www.w3.org/1999/xlink">
<g id="graph0" class="graph" transform="scale(1 1) rotate(0) translate(4 98)">
<title>libnolimits/NL2/Coaster/Track/Section/Storage.h</title>
<!-- Node20 -->
<g id="node1" class="node">
<title>Node20</title>
<polygon fill="#bfbfbf" stroke="#000000" points="80.4458,-65.5 80.4458,-93.5 206.1333,-93.5 206.1333,-65.5 80.4458,-65.5"/>
<text text-anchor="start" x="88.4458" y="-81.5" font-family="Helvetica,sans-Serif" font-size="10.00" fill="#000000">libnolimits/NL2/Coaster</text>
<text text-anchor="middle" x="143.2896" y="-71.5" font-family="Helvetica,sans-Serif" font-size="10.00" fill="#000000">/Track/Section/Storage.h</text>
</g>
<!-- Node21 -->
<g id="node2" class="node">
<title>Node21</title>
<g id="a_node2"><a xlink:href="_n_l2_2_coaster_2_track_2_section_2_section_8cpp.html" target="_top" xlink:title="libnolimits/NL2/Coaster\l/Track/Section/Section.cpp">
<polygon fill="none" stroke="#000000" points="0,-.5 0,-28.5 134.5791,-28.5 134.5791,-.5 0,-.5"/>
<text text-anchor="start" x="8" y="-16.5" font-family="Helvetica,sans-Serif" font-size="10.00" fill="#000000">libnolimits/NL2/Coaster</text>
<text text-anchor="middle" x="67.2896" y="-6.5" font-family="Helvetica,sans-Serif" font-size="10.00" fill="#000000">/Track/Section/Section.cpp</text>
</a>
</g>
</g>
<!-- Node20&#45;&gt;Node21 -->
<g id="edge1" class="edge">
<title>Node20&#45;&gt;Node21</title>
<path fill="none" stroke="#191970" d="M119.1837,-58.8832C107.6344,-49.0054 94.0992,-37.4293 83.7482,-28.5765"/>
<polygon fill="#191970" stroke="#191970" points="116.9241,-61.5561 126.7987,-65.396 121.4739,-56.2364 116.9241,-61.5561"/>
</g>
<!-- Node22 -->
<g id="node3" class="node">
<title>Node22</title>
<g id="a_node3"><a xlink:href="_storage_8cpp.html" target="_top" xlink:title="libnolimits/NL2/Coaster\l/Track/Section/Storage.cpp">
<polygon fill="none" stroke="#000000" points="152.165,-.5 152.165,-28.5 288.4141,-28.5 288.4141,-.5 152.165,-.5"/>
<text text-anchor="start" x="160.165" y="-16.5" font-family="Helvetica,sans-Serif" font-size="10.00" fill="#000000">libnolimits/NL2/Coaster</text>
<text text-anchor="middle" x="220.2896" y="-6.5" font-family="Helvetica,sans-Serif" font-size="10.00" fill="#000000">/Track/Section/Storage.cpp</text>
</a>
</g>
</g>
<!-- Node20&#45;&gt;Node22 -->
<g id="edge2" class="edge">
<title>Node20&#45;&gt;Node22</title>
<path fill="none" stroke="#191970" d="M167.7125,-58.8832C179.4139,-49.0054 193.1272,-37.4293 203.6143,-28.5765"/>
<polygon fill="#191970" stroke="#191970" points="165.3811,-56.2709 159.9974,-65.396 169.8965,-61.6199 165.3811,-56.2709"/>
</g>
</g>
</svg>
