<?xml version="1.0" encoding="UTF-8" standalone="no"?>
<!DOCTYPE svg PUBLIC "-//W3C//DTD SVG 1.1//EN"
 "http://www.w3.org/Graphics/SVG/1.1/DTD/svg11.dtd">
<!-- Generated by graphviz version 2.40.1 (20161225.0304)
 -->
<!-- Title: libnolimits/NL2/Coaster/Track/Section/Storage.cpp Pages: 1 -->
<svg width="200pt" height="322pt"
 viewBox="0.00 0.00 200.36 322.00" xmlns="http://www.w3.org/2000/svg" xmlns:xlink="http://www.w3.org/1999/xlink">
<g id="graph0" class="graph" transform="scale(1 1) rotate(0) translate(4 318)">
<title>libnolimits/NL2/Coaster/Track/Section/Storage.cpp</title>
<!-- Node0 -->
<g id="node1" class="node">
<title>Node0</title>
<polygon fill="#bfbfbf" stroke="#000000" points="16.5713,-285.5 16.5713,-313.5 152.8204,-313.5 152.8204,-285.5 16.5713,-285.5"/>
<text text-anchor="start" x="24.5713" y="-301.5" font-family="Helvetica,sans-Serif" font-size="10.00" fill="#000000">libnolimits/NL2/Coaster</text>
<text text-anchor="middle" x="84.6958" y="-291.5" font-family="Helvetica,sans-Serif" font-size="10.00" fill="#000000">/Track/Section/Storage.cpp</text>
</g>
<!-- Node1 -->
<g id="node2" class="node">
<title>Node1</title>
<g id="a_node2"><a xlink:href="_storage_8h.html" target="_top" xlink:title="Storage.h">
<polygon fill="none" stroke="#000000" points="18.0137,-230.5 18.0137,-248.5 77.378,-248.5 77.378,-230.5 18.0137,-230.5"/>
<text text-anchor="middle" x="47.6958" y="-236.5" font-family="Helvetica,sans-Serif" font-size="10.00" fill="#000000">Storage.h</text>
</a>
</g>
</g>
<!-- Node0&#45;&gt;Node1 -->
<g id="edge1" class="edge">
<title>Node0&#45;&gt;Node1</title>
<path fill="none" stroke="#191970" d="M75.9274,-285.2808C70.7251,-276.8448 64.0876,-266.0813 58.5558,-257.1107"/>
<polygon fill="#191970" stroke="#191970" points="61.5258,-255.2588 53.2978,-248.5842 55.5676,-258.933 61.5258,-255.2588"/>
</g>
<!-- Node12 -->
<g id="node7" class="node">
<title>Node12</title>
<polygon fill="none" stroke="#bfbfbf" points="95.5235,-230.5 95.5235,-248.5 149.8682,-248.5 149.8682,-230.5 95.5235,-230.5"/>
<text text-anchor="middle" x="122.6958" y="-236.5" font-family="Helvetica,sans-Serif" font-size="10.00" fill="#000000">iostream</text>
</g>
<!-- Node0&#45;&gt;Node12 -->
<g id="edge11" class="edge">
<title>Node0&#45;&gt;Node12</title>
<path fill="none" stroke="#191970" d="M93.7013,-285.2808C99.0442,-276.8448 105.861,-266.0813 111.5424,-257.1107"/>
<polygon fill="#191970" stroke="#191970" points="114.5488,-258.9051 116.9425,-248.5842 108.6351,-255.1597 114.5488,-258.9051"/>
</g>
<!-- Node2 -->
<g id="node3" class="node">
<title>Node2</title>
<g id="a_node3"><a xlink:href="_n_l2_2_coaster_2_track_2_section_2_section_8h.html" target="_top" xlink:title="Section.h">
<polygon fill="none" stroke="#000000" points="18.8487,-65.5 18.8487,-83.5 76.543,-83.5 76.543,-65.5 18.8487,-65.5"/>
<text text-anchor="middle" x="47.6958" y="-71.5" font-family="Helvetica,sans-Serif" font-size="10.00" fill="#000000">Section.h</text>
</a>
</g>
</g>
<!-- Node1&#45;&gt;Node2 -->
<g id="edge2" class="edge">
<title>Node1&#45;&gt;Node2</title>
<path fill="none" stroke="#191970" d="M47.6958,-230.1561C47.6958,-203.9504 47.6958,-129.3557 47.6958,-93.8021"/>
<polygon fill="#191970" stroke="#191970" points="51.1959,-93.7414 47.6958,-83.7414 44.1959,-93.7414 51.1959,-93.7414"/>
</g>
<!-- Node3 -->
<g id="node4" class="node">
<title>Node3</title>
<g id="a_node4"><a xlink:href="_chunk_8h.html" target="_top" xlink:title="../../../../Stream\l/Chunk.h">
<polygon fill="none" stroke="#ff0000" points="34.9102,-.5 34.9102,-28.5 116.4815,-28.5 116.4815,-.5 34.9102,-.5"/>
<text text-anchor="start" x="42.9102" y="-16.5" font-family="Helvetica,sans-Serif" font-size="10.00" fill="#000000">../../../../Stream</text>
<text text-anchor="middle" x="75.6958" y="-6.5" font-family="Helvetica,sans-Serif" font-size="10.00" fill="#000000">/Chunk.h</text>
</a>
</g>
</g>
<!-- Node1&#45;&gt;Node3 -->
<g id="edge10" class="edge">
<title>Node1&#45;&gt;Node3</title>
<path fill="none" stroke="#191970" d="M41.6627,-230.2767C24.9029,-203.4022 -19.1419,-123.3763 9.6958,-65 15.9082,-52.4243 26.9206,-42.1171 38.1913,-34.169"/>
<polygon fill="#191970" stroke="#191970" points="40.3291,-36.9531 46.7852,-28.5525 36.4995,-31.0935 40.3291,-36.9531"/>
</g>
<!-- Node19 -->
<g id="node5" class="node">
<title>Node19</title>
<g id="a_node5"><a xlink:href="_n_l2_2_coaster_2_track_2_section_2_transport_8h.html" target="_top" xlink:title="Transport.h">
<polygon fill="none" stroke="#000000" points="56.3125,-120.5 56.3125,-138.5 123.0791,-138.5 123.0791,-120.5 56.3125,-120.5"/>
<text text-anchor="middle" x="89.6958" y="-126.5" font-family="Helvetica,sans-Serif" font-size="10.00" fill="#000000">Transport.h</text>
</a>
</g>
</g>
<!-- Node1&#45;&gt;Node19 -->
<g id="edge4" class="edge">
<title>Node1&#45;&gt;Node19</title>
<path fill="none" stroke="#191970" d="M51.1329,-230.4982C57.9934,-212.5302 73.5085,-171.8954 82.6304,-148.0046"/>
<polygon fill="#191970" stroke="#191970" points="85.914,-149.2168 86.2113,-138.6261 79.3745,-146.7199 85.914,-149.2168"/>
</g>
<!-- Node20 -->
<g id="node6" class="node">
<title>Node20</title>
<g id="a_node6"><a xlink:href="_n_l2_2_coaster_2_track_2_section_2_transport_device_8h.html" target="_top" xlink:title="TransportDevice.h">
<polygon fill="none" stroke="#000000" points="95.0293,-175.5 95.0293,-193.5 192.3623,-193.5 192.3623,-175.5 95.0293,-175.5"/>
<text text-anchor="middle" x="143.6958" y="-181.5" font-family="Helvetica,sans-Serif" font-size="10.00" fill="#000000">TransportDevice.h</text>
</a>
</g>
</g>
<!-- Node1&#45;&gt;Node20 -->
<g id="edge7" class="edge">
<title>Node1&#45;&gt;Node20</title>
<path fill="none" stroke="#191970" d="M63.5483,-230.4179C78.5563,-221.8195 101.3243,-208.7754 118.763,-198.7844"/>
<polygon fill="#191970" stroke="#191970" points="120.8829,-201.6037 127.8198,-193.5956 117.4031,-195.5299 120.8829,-201.6037"/>
</g>
<!-- Node2&#45;&gt;Node3 -->
<g id="edge3" class="edge">
<title>Node2&#45;&gt;Node3</title>
<path fill="none" stroke="#191970" d="M51.9484,-65.3873C55.3447,-58.1095 60.2604,-47.5759 64.7394,-37.9782"/>
<polygon fill="#191970" stroke="#191970" points="67.943,-39.3896 69.0003,-28.8477 61.5997,-36.4294 67.943,-39.3896"/>
</g>
<!-- Node19&#45;&gt;Node2 -->
<g id="edge5" class="edge">
<title>Node19&#45;&gt;Node2</title>
<path fill="none" stroke="#191970" d="M82.7604,-120.4179C76.838,-112.6624 68.1537,-101.29 60.9094,-91.8035"/>
<polygon fill="#191970" stroke="#191970" points="63.6328,-89.6029 54.782,-83.7795 58.0695,-93.8514 63.6328,-89.6029"/>
</g>
<!-- Node19&#45;&gt;Node3 -->
<g id="edge6" class="edge">
<title>Node19&#45;&gt;Node3</title>
<path fill="none" stroke="#191970" d="M89.5107,-120.2774C89.1706,-107.7256 88.2304,-84.5829 85.6958,-65 84.5666,-56.2748 82.8272,-46.7929 81.1138,-38.4263"/>
<polygon fill="#191970" stroke="#191970" points="84.5192,-37.6131 79.0055,-28.566 77.6739,-39.0768 84.5192,-37.6131"/>
</g>
<!-- Node20&#45;&gt;Node3 -->
<g id="edge9" class="edge">
<title>Node20&#45;&gt;Node3</title>
<path fill="none" stroke="#191970" d="M142.8489,-175.0849C141.4983,-162.3149 138.3048,-138.9258 131.6958,-120 121.2025,-89.9508 103.1607,-58.0086 90.3944,-37.246"/>
<polygon fill="#191970" stroke="#191970" points="93.218,-35.1602 84.9461,-28.54 87.2842,-38.8737 93.218,-35.1602"/>
</g>
<!-- Node20&#45;&gt;Node19 -->
<g id="edge8" class="edge">
<title>Node20&#45;&gt;Node19</title>
<path fill="none" stroke="#191970" d="M134.7788,-175.4179C126.9313,-167.425 115.3118,-155.5903 105.8347,-145.9377"/>
<polygon fill="#191970" stroke="#191970" points="108.31,-143.463 98.8066,-138.7795 103.315,-148.3672 108.31,-143.463"/>
</g>
</g>
</svg>
