<?xml version="1.0" encoding="UTF-8" standalone="no"?>
<!DOCTYPE svg PUBLIC "-//W3C//DTD SVG 1.1//EN"
 "http://www.w3.org/Graphics/SVG/1.1/DTD/svg11.dtd">
<!-- Generated by graphviz version 2.40.1 (20161225.0304)
 -->
<!-- Title: libnolimits/NL2/Coaster/Track/Section/Storage.h Pages: 1 -->
<svg width="216pt" height="267pt"
 viewBox="0.00 0.00 215.51 267.00" xmlns="http://www.w3.org/2000/svg" xmlns:xlink="http://www.w3.org/1999/xlink">
<g id="graph0" class="graph" transform="scale(1 1) rotate(0) translate(4 263)">
<title>libnolimits/NL2/Coaster/Track/Section/Storage.h</title>
<!-- Node0 -->
<g id="node1" class="node">
<title>Node0</title>
<polygon fill="#bfbfbf" stroke="#000000" points="0,-230.5 0,-258.5 125.6875,-258.5 125.6875,-230.5 0,-230.5"/>
<text text-anchor="start" x="8" y="-246.5" font-family="Helvetica,sans-Serif" font-size="10.00" fill="#000000">libnolimits/NL2/Coaster</text>
<text text-anchor="middle" x="62.8438" y="-236.5" font-family="Helvetica,sans-Serif" font-size="10.00" fill="#000000">/Track/Section/Storage.h</text>
</g>
<!-- Node1 -->
<g id="node2" class="node">
<title>Node1</title>
<g id="a_node2"><a xlink:href="_section_8h.html" target="_top" xlink:title="Section.h">
<polygon fill="none" stroke="#000000" points="33.9966,-65.5 33.9966,-83.5 91.6909,-83.5 91.6909,-65.5 33.9966,-65.5"/>
<text text-anchor="middle" x="62.8438" y="-71.5" font-family="Helvetica,sans-Serif" font-size="10.00" fill="#000000">Section.h</text>
</a>
</g>
</g>
<!-- Node0&#45;&gt;Node1 -->
<g id="edge1" class="edge">
<title>Node0&#45;&gt;Node1</title>
<path fill="none" stroke="#191970" d="M62.8438,-230.2983C62.8438,-199.8994 62.8438,-128.4909 62.8438,-93.9244"/>
<polygon fill="#191970" stroke="#191970" points="66.3438,-93.7266 62.8438,-83.7266 59.3438,-93.7267 66.3438,-93.7266"/>
</g>
<!-- Node2 -->
<g id="node3" class="node">
<title>Node2</title>
<g id="a_node3"><a xlink:href="_chunk_8h.html" target="_top" xlink:title="../../../../Stream\l/Chunk.h">
<polygon fill="none" stroke="#ff0000" points="50.0581,-.5 50.0581,-28.5 131.6294,-28.5 131.6294,-.5 50.0581,-.5"/>
<text text-anchor="start" x="58.0581" y="-16.5" font-family="Helvetica,sans-Serif" font-size="10.00" fill="#000000">../../../../Stream</text>
<text text-anchor="middle" x="90.8438" y="-6.5" font-family="Helvetica,sans-Serif" font-size="10.00" fill="#000000">/Chunk.h</text>
</a>
</g>
</g>
<!-- Node0&#45;&gt;Node2 -->
<g id="edge9" class="edge">
<title>Node0&#45;&gt;Node2</title>
<path fill="none" stroke="#191970" d="M53.8555,-230.2188C35.3035,-198.7736 -3.2315,-121.8328 24.8438,-65 31.0561,-52.4243 42.0685,-42.1171 53.3392,-34.169"/>
<polygon fill="#191970" stroke="#191970" points="55.477,-36.9531 61.9331,-28.5525 51.6474,-31.0935 55.477,-36.9531"/>
</g>
<!-- Node18 -->
<g id="node4" class="node">
<title>Node18</title>
<g id="a_node4"><a xlink:href="_transport_8h.html" target="_top" xlink:title="Transport.h">
<polygon fill="none" stroke="#000000" points="71.4604,-120.5 71.4604,-138.5 138.2271,-138.5 138.2271,-120.5 71.4604,-120.5"/>
<text text-anchor="middle" x="104.8438" y="-126.5" font-family="Helvetica,sans-Serif" font-size="10.00" fill="#000000">Transport.h</text>
</a>
</g>
</g>
<!-- Node0&#45;&gt;Node18 -->
<g id="edge3" class="edge">
<title>Node0&#45;&gt;Node18</title>
<path fill="none" stroke="#191970" d="M67.9938,-230.3987C75.5199,-209.7914 89.5396,-171.4041 97.9484,-148.38"/>
<polygon fill="#191970" stroke="#191970" points="101.3303,-149.3225 101.4733,-138.7286 94.7551,-146.9211 101.3303,-149.3225"/>
</g>
<!-- Node19 -->
<g id="node5" class="node">
<title>Node19</title>
<g id="a_node5"><a xlink:href="_transport_device_8h.html" target="_top" xlink:title="TransportDevice.h">
<polygon fill="none" stroke="#000000" points="110.1772,-175.5 110.1772,-193.5 207.5103,-193.5 207.5103,-175.5 110.1772,-175.5"/>
<text text-anchor="middle" x="158.8438" y="-181.5" font-family="Helvetica,sans-Serif" font-size="10.00" fill="#000000">TransportDevice.h</text>
</a>
</g>
</g>
<!-- Node0&#45;&gt;Node19 -->
<g id="edge6" class="edge">
<title>Node0&#45;&gt;Node19</title>
<path fill="none" stroke="#191970" d="M85.5944,-230.2808C100.655,-220.868 120.3517,-208.5575 135.5267,-199.0732"/>
<polygon fill="#191970" stroke="#191970" points="137.6841,-201.8522 144.309,-193.5842 133.974,-195.9162 137.6841,-201.8522"/>
</g>
<!-- Node1&#45;&gt;Node2 -->
<g id="edge2" class="edge">
<title>Node1&#45;&gt;Node2</title>
<path fill="none" stroke="#191970" d="M67.0963,-65.3873C70.4926,-58.1095 75.4083,-47.5759 79.8873,-37.9782"/>
<polygon fill="#191970" stroke="#191970" points="83.0909,-39.3896 84.1482,-28.8477 76.7476,-36.4294 83.0909,-39.3896"/>
</g>
<!-- Node18&#45;&gt;Node1 -->
<g id="edge4" class="edge">
<title>Node18&#45;&gt;Node1</title>
<path fill="none" stroke="#191970" d="M97.9083,-120.4179C91.9859,-112.6624 83.3016,-101.29 76.0573,-91.8035"/>
<polygon fill="#191970" stroke="#191970" points="78.7807,-89.6029 69.9299,-83.7795 73.2174,-93.8514 78.7807,-89.6029"/>
</g>
<!-- Node18&#45;&gt;Node2 -->
<g id="edge5" class="edge">
<title>Node18&#45;&gt;Node2</title>
<path fill="none" stroke="#191970" d="M104.6586,-120.2774C104.3185,-107.7256 103.3783,-84.5829 100.8438,-65 99.7145,-56.2748 97.9751,-46.7929 96.2618,-38.4263"/>
<polygon fill="#191970" stroke="#191970" points="99.6671,-37.6131 94.1534,-28.566 92.8218,-39.0768 99.6671,-37.6131"/>
</g>
<!-- Node19&#45;&gt;Node2 -->
<g id="edge8" class="edge">
<title>Node19&#45;&gt;Node2</title>
<path fill="none" stroke="#191970" d="M157.9968,-175.0849C156.6462,-162.3149 153.4527,-138.9258 146.8438,-120 136.3504,-89.9508 118.3086,-58.0086 105.5423,-37.246"/>
<polygon fill="#191970" stroke="#191970" points="108.3659,-35.1602 100.0941,-28.54 102.4321,-38.8737 108.3659,-35.1602"/>
</g>
<!-- Node19&#45;&gt;Node18 -->
<g id="edge7" class="edge">
<title>Node19&#45;&gt;Node18</title>
<path fill="none" stroke="#191970" d="M149.9267,-175.4179C142.0792,-167.425 130.4597,-155.5903 120.9826,-145.9377"/>
<polygon fill="#191970" stroke="#191970" points="123.4579,-143.463 113.9545,-138.7795 118.4629,-148.3672 123.4579,-143.463"/>
</g>
</g>
</svg>
