<?xml version="1.0" encoding="UTF-8" standalone="no"?>
<!DOCTYPE svg PUBLIC "-//W3C//DTD SVG 1.1//EN"
 "http://www.w3.org/Graphics/SVG/1.1/DTD/svg11.dtd">
<!-- Generated by graphviz version 2.40.1 (20161225.0304)
 -->
<!-- Title: libnolimits/NL2/Coaster/Style.cpp Pages: 1 -->
<svg width="156pt" height="147pt"
 viewBox="0.00 0.00 155.64 147.00" xmlns="http://www.w3.org/2000/svg" xmlns:xlink="http://www.w3.org/1999/xlink">
<g id="graph0" class="graph" transform="scale(1 1) rotate(0) translate(4 143)">
<title>libnolimits/NL2/Coaster/Style.cpp</title>
<!-- Node0 -->
<g id="node1" class="node">
<title>Node0</title>
<polygon fill="#bfbfbf" stroke="#000000" points="27.0542,-110.5 27.0542,-138.5 145.8716,-138.5 145.8716,-110.5 27.0542,-110.5"/>
<text text-anchor="start" x="35.0542" y="-126.5" font-family="Helvetica,sans-Serif" font-size="10.00" fill="#000000">libnolimits/NL2/Coaster</text>
<text text-anchor="middle" x="86.4629" y="-116.5" font-family="Helvetica,sans-Serif" font-size="10.00" fill="#000000">/Style.cpp</text>
</g>
<!-- Node1 -->
<g id="node2" class="node">
<title>Node1</title>
<g id="a_node2"><a xlink:href="_style_8h.html" target="_top" xlink:title="Style.h">
<polygon fill="none" stroke="#000000" points="29.1772,-55.5 29.1772,-73.5 75.7485,-73.5 75.7485,-55.5 29.1772,-55.5"/>
<text text-anchor="middle" x="52.4629" y="-61.5" font-family="Helvetica,sans-Serif" font-size="10.00" fill="#000000">Style.h</text>
</a>
</g>
</g>
<!-- Node0&#45;&gt;Node1 -->
<g id="edge1" class="edge">
<title>Node0&#45;&gt;Node1</title>
<path fill="none" stroke="#191970" d="M78.4054,-110.2808C73.6752,-101.9336 67.6539,-91.3076 62.6032,-82.3946"/>
<polygon fill="#191970" stroke="#191970" points="65.5859,-80.5589 57.6106,-73.5842 59.4957,-84.01 65.5859,-80.5589"/>
</g>
<!-- Node11 -->
<g id="node4" class="node">
<title>Node11</title>
<polygon fill="none" stroke="#bfbfbf" points="93.2905,-55.5 93.2905,-73.5 147.6353,-73.5 147.6353,-55.5 93.2905,-55.5"/>
<text text-anchor="middle" x="120.4629" y="-61.5" font-family="Helvetica,sans-Serif" font-size="10.00" fill="#000000">iostream</text>
</g>
<!-- Node0&#45;&gt;Node11 -->
<g id="edge3" class="edge">
<title>Node0&#45;&gt;Node11</title>
<path fill="none" stroke="#191970" d="M94.5204,-110.2808C99.2505,-101.9336 105.2719,-91.3076 110.3226,-82.3946"/>
<polygon fill="#191970" stroke="#191970" points="113.4301,-84.01 115.3152,-73.5842 107.3399,-80.5589 113.4301,-84.01"/>
</g>
<!-- Node2 -->
<g id="node3" class="node">
<title>Node2</title>
<g id="a_node3"><a xlink:href="_chunk_8h.html" target="_top" xlink:title="../../Stream/Chunk.h">
<polygon fill="none" stroke="#ff0000" points="0,-.5 0,-18.5 104.9258,-18.5 104.9258,-.5 0,-.5"/>
<text text-anchor="middle" x="52.4629" y="-6.5" font-family="Helvetica,sans-Serif" font-size="10.00" fill="#000000">../../Stream/Chunk.h</text>
</a>
</g>
</g>
<!-- Node1&#45;&gt;Node2 -->
<g id="edge2" class="edge">
<title>Node1&#45;&gt;Node2</title>
<path fill="none" stroke="#191970" d="M52.4629,-55.4179C52.4629,-48.2164 52.4629,-37.8962 52.4629,-28.8632"/>
<polygon fill="#191970" stroke="#191970" points="55.963,-28.7794 52.4629,-18.7795 48.963,-28.7795 55.963,-28.7794"/>
</g>
</g>
</svg>
