<?xml version="1.0" encoding="UTF-8" standalone="no"?>
<!DOCTYPE svg PUBLIC "-//W3C//DTD SVG 1.1//EN"
 "http://www.w3.org/Graphics/SVG/1.1/DTD/svg11.dtd">
<!-- Generated by graphviz version 2.40.1 (20161225.0304)
 -->
<!-- Title: libnolimits/NL2/Coaster/Support/Support.h Pages: 1 -->
<svg width="500pt" height="367pt"
 viewBox="0.00 0.00 499.62 367.00" xmlns="http://www.w3.org/2000/svg" xmlns:xlink="http://www.w3.org/1999/xlink">
<g id="graph0" class="graph" transform="scale(1 1) rotate(0) translate(4 363)">
<title>libnolimits/NL2/Coaster/Support/Support.h</title>
<!-- Node0 -->
<g id="node1" class="node">
<title>Node0</title>
<polygon fill="#bfbfbf" stroke="#000000" points="41.5781,-330.5 41.5781,-358.5 160.3955,-358.5 160.3955,-330.5 41.5781,-330.5"/>
<text text-anchor="start" x="49.5781" y="-346.5" font-family="Helvetica,sans-Serif" font-size="10.00" fill="#000000">libnolimits/NL2/Coaster</text>
<text text-anchor="middle" x="100.9868" y="-336.5" font-family="Helvetica,sans-Serif" font-size="10.00" fill="#000000">/Support/Support.h</text>
</g>
<!-- Node1 -->
<g id="node2" class="node">
<title>Node1</title>
<g id="a_node2"><a xlink:href="_chunk_8h.html" target="_top" xlink:title="../../../Stream/Chunk.h">
<polygon fill="none" stroke="#000000" points="106.3564,-110.5 106.3564,-128.5 219.6171,-128.5 219.6171,-110.5 106.3564,-110.5"/>
<text text-anchor="middle" x="162.9868" y="-116.5" font-family="Helvetica,sans-Serif" font-size="10.00" fill="#000000">../../../Stream/Chunk.h</text>
</a>
</g>
</g>
<!-- Node0&#45;&gt;Node1 -->
<g id="edge1" class="edge">
<title>Node0&#45;&gt;Node1</title>
<path fill="none" stroke="#191970" d="M75.7137,-330.3237C41.0451,-308.8451 -14.9399,-265.6931 3.9868,-220 23.6133,-172.6173 78.9997,-145.5474 118.8834,-131.7"/>
<polygon fill="#191970" stroke="#191970" points="120.0155,-135.0121 128.4041,-128.5405 117.8106,-128.3684 120.0155,-135.0121"/>
</g>
<!-- Node16 -->
<g id="node6" class="node">
<title>Node16</title>
<g id="a_node6"><a xlink:href="_footer_8h.html" target="_top" xlink:title="Footer.h">
<polygon fill="none" stroke="#000000" points="12.6396,-220.5 12.6396,-238.5 65.3339,-238.5 65.3339,-220.5 12.6396,-220.5"/>
<text text-anchor="middle" x="38.9868" y="-226.5" font-family="Helvetica,sans-Serif" font-size="10.00" fill="#000000">Footer.h</text>
</a>
</g>
</g>
<!-- Node0&#45;&gt;Node16 -->
<g id="edge7" class="edge">
<title>Node0&#45;&gt;Node16</title>
<path fill="none" stroke="#191970" d="M85.9999,-330.2708C76.7663,-320.7716 65.329,-307.5714 57.9868,-294 50.2622,-279.7219 45.3233,-261.9232 42.423,-248.642"/>
<polygon fill="#191970" stroke="#191970" points="45.834,-247.8495 40.4498,-238.7247 38.9685,-249.2155 45.834,-247.8495"/>
</g>
<!-- Node17 -->
<g id="node7" class="node">
<title>Node17</title>
<g id="a_node7"><a xlink:href="_free_node_8h.html" target="_top" xlink:title="FreeNode.h">
<polygon fill="none" stroke="#000000" points="66.583,-275.5 66.583,-293.5 135.3906,-293.5 135.3906,-275.5 66.583,-275.5"/>
<text text-anchor="middle" x="100.9868" y="-281.5" font-family="Helvetica,sans-Serif" font-size="10.00" fill="#000000">FreeNode.h</text>
</a>
</g>
</g>
<!-- Node0&#45;&gt;Node17 -->
<g id="edge9" class="edge">
<title>Node0&#45;&gt;Node17</title>
<path fill="none" stroke="#191970" d="M100.9868,-330.2808C100.9868,-322.3776 100.9868,-312.4316 100.9868,-303.8308"/>
<polygon fill="#191970" stroke="#191970" points="104.4869,-303.5842 100.9868,-293.5842 97.4869,-303.5842 104.4869,-303.5842"/>
</g>
<!-- Node18 -->
<g id="node8" class="node">
<title>Node18</title>
<g id="a_node8"><a xlink:href="_beam_8h.html" target="_top" xlink:title="Beam.h">
<polygon fill="none" stroke="#000000" points="211.7553,-275.5 211.7553,-293.5 262.2182,-293.5 262.2182,-275.5 211.7553,-275.5"/>
<text text-anchor="middle" x="236.9868" y="-281.5" font-family="Helvetica,sans-Serif" font-size="10.00" fill="#000000">Beam.h</text>
</a>
</g>
</g>
<!-- Node0&#45;&gt;Node18 -->
<g id="edge11" class="edge">
<title>Node0&#45;&gt;Node18</title>
<path fill="none" stroke="#191970" d="M132.8727,-330.4327C155.3047,-320.5362 185.1231,-307.381 207.0984,-297.686"/>
<polygon fill="#191970" stroke="#191970" points="208.5533,-300.8697 216.2897,-293.6311 205.7277,-294.4653 208.5533,-300.8697"/>
</g>
<!-- Node23 -->
<g id="node13" class="node">
<title>Node23</title>
<polygon fill="none" stroke="#bfbfbf" points="358.371,-220.5 358.371,-238.5 401.6025,-238.5 401.6025,-220.5 358.371,-220.5"/>
<text text-anchor="middle" x="379.9868" y="-226.5" font-family="Helvetica,sans-Serif" font-size="10.00" fill="#000000">vector</text>
</g>
<!-- Node0&#45;&gt;Node23 -->
<g id="edge23" class="edge">
<title>Node0&#45;&gt;Node23</title>
<path fill="none" stroke="#191970" d="M160.4731,-330.6635C193.6944,-321.9943 235.4322,-309.5183 270.9868,-294 303.0798,-279.9925 337.4245,-258.4526 358.8004,-244.1722"/>
<polygon fill="#191970" stroke="#191970" points="360.8031,-247.0431 367.1231,-238.5396 356.8797,-241.2459 360.8031,-247.0431"/>
</g>
<!-- Node2 -->
<g id="node3" class="node">
<title>Node2</title>
<g id="a_node3"><a xlink:href="_file_8h.html" target="_top" xlink:title="../File/File.h">
<polygon fill="none" stroke="#ff0000" points="160.1469,-55.5 160.1469,-73.5 227.8266,-73.5 227.8266,-55.5 160.1469,-55.5"/>
<text text-anchor="middle" x="193.9868" y="-61.5" font-family="Helvetica,sans-Serif" font-size="10.00" fill="#000000">../File/File.h</text>
</a>
</g>
</g>
<!-- Node1&#45;&gt;Node2 -->
<g id="edge2" class="edge">
<title>Node1&#45;&gt;Node2</title>
<path fill="none" stroke="#191970" d="M168.1058,-110.4179C172.3432,-102.8998 178.4964,-91.9829 183.7399,-82.6799"/>
<polygon fill="#191970" stroke="#191970" points="186.8954,-84.2096 188.7565,-73.7795 180.7973,-80.7724 186.8954,-84.2096"/>
</g>
<!-- Node6 -->
<g id="node4" class="node">
<title>Node6</title>
<polygon fill="none" stroke="#bfbfbf" points="131.8662,-.5 131.8662,-18.5 180.1074,-18.5 180.1074,-.5 131.8662,-.5"/>
<text text-anchor="middle" x="155.9868" y="-6.5" font-family="Helvetica,sans-Serif" font-size="10.00" fill="#000000">stdint.h</text>
</g>
<!-- Node1&#45;&gt;Node6 -->
<g id="edge5" class="edge">
<title>Node1&#45;&gt;Node6</title>
<path fill="none" stroke="#191970" d="M159.7871,-110.2292C156.8284,-101.1323 152.6464,-86.8005 150.9868,-74 149.021,-58.838 150.5595,-41.5633 152.4314,-28.7098"/>
<polygon fill="#191970" stroke="#191970" points="155.9055,-29.1534 154.0825,-18.7165 148.9991,-28.0122 155.9055,-29.1534"/>
</g>
<!-- Node7 -->
<g id="node5" class="node">
<title>Node7</title>
<g id="a_node5"><a xlink:href="_nolimits_8h.html" target="_top" xlink:title="../Nolimits.h">
<polygon fill="none" stroke="#ff0000" points="221.871,-.5 221.871,-18.5 290.1025,-18.5 290.1025,-.5 221.871,-.5"/>
<text text-anchor="middle" x="255.9868" y="-6.5" font-family="Helvetica,sans-Serif" font-size="10.00" fill="#000000">../Nolimits.h</text>
</a>
</g>
</g>
<!-- Node1&#45;&gt;Node7 -->
<g id="edge6" class="edge">
<title>Node1&#45;&gt;Node7</title>
<path fill="none" stroke="#191970" d="M186.5479,-110.429C202.9305,-102.9775 224.0669,-90.89 236.9868,-74 246.9606,-60.9612 251.7101,-42.7845 253.9653,-29.049"/>
<polygon fill="#191970" stroke="#191970" points="257.4839,-29.1402 255.3329,-18.766 250.545,-28.2172 257.4839,-29.1402"/>
</g>
<!-- Node2&#45;&gt;Node6 -->
<g id="edge3" class="edge">
<title>Node2&#45;&gt;Node6</title>
<path fill="none" stroke="#191970" d="M187.7118,-55.4179C182.4082,-47.7415 174.6563,-36.5217 168.1429,-27.0945"/>
<polygon fill="#191970" stroke="#191970" points="170.9619,-25.0173 162.398,-18.7795 165.2028,-28.9963 170.9619,-25.0173"/>
</g>
<!-- Node2&#45;&gt;Node7 -->
<g id="edge4" class="edge">
<title>Node2&#45;&gt;Node7</title>
<path fill="none" stroke="#191970" d="M204.2248,-55.4179C213.3242,-47.3458 226.8404,-35.3556 237.7794,-25.6517"/>
<polygon fill="#191970" stroke="#191970" points="240.3682,-28.0339 245.5263,-18.7795 235.7228,-22.7974 240.3682,-28.0339"/>
</g>
<!-- Node16&#45;&gt;Node1 -->
<g id="edge8" class="edge">
<title>Node16&#45;&gt;Node1</title>
<path fill="none" stroke="#191970" d="M42.9073,-220.1235C48.9658,-206.5491 61.7311,-181.2716 78.9868,-165 93.5119,-151.3032 112.9498,-140.4271 129.4687,-132.7475"/>
<polygon fill="#191970" stroke="#191970" points="131.0836,-135.8598 138.7983,-128.598 128.2389,-129.4639 131.0836,-135.8598"/>
</g>
<!-- Node17&#45;&gt;Node1 -->
<g id="edge10" class="edge">
<title>Node17&#45;&gt;Node1</title>
<path fill="none" stroke="#191970" d="M100.27,-275.2266C99.0576,-254.3323 98.3273,-202.4748 116.9868,-165 122.7367,-153.4521 132.5852,-143.1083 141.6977,-135.2123"/>
<polygon fill="#191970" stroke="#191970" points="144.1727,-137.7107 149.7208,-128.6847 139.755,-132.2808 144.1727,-137.7107"/>
</g>
<!-- Node18&#45;&gt;Node1 -->
<g id="edge12" class="edge">
<title>Node18&#45;&gt;Node1</title>
<path fill="none" stroke="#191970" d="M224.4457,-275.4422C203.8607,-259.6625 163.8108,-224.8806 149.9868,-184 144.905,-168.9721 149.1624,-151.2675 154.1219,-138.2128"/>
<polygon fill="#191970" stroke="#191970" points="157.3979,-139.4526 158.0848,-128.8801 150.9547,-136.7166 157.3979,-139.4526"/>
</g>
<!-- Node19 -->
<g id="node9" class="node">
<title>Node19</title>
<g id="a_node9"><a xlink:href="_beam_node_8h.html" target="_top" xlink:title="BeamNode.h">
<polygon fill="none" stroke="#000000" points="158.8022,-165.5 158.8022,-183.5 233.1713,-183.5 233.1713,-165.5 158.8022,-165.5"/>
<text text-anchor="middle" x="195.9868" y="-171.5" font-family="Helvetica,sans-Serif" font-size="10.00" fill="#000000">BeamNode.h</text>
</a>
</g>
</g>
<!-- Node18&#45;&gt;Node19 -->
<g id="edge13" class="edge">
<title>Node18&#45;&gt;Node19</title>
<path fill="none" stroke="#191970" d="M227.0904,-275.4651C218.5231,-266.975 206.6448,-253.4434 200.9868,-239 195.3468,-224.6026 194.3269,-207.0366 194.5891,-193.8738"/>
<polygon fill="#191970" stroke="#191970" points="198.097,-193.7822 195.0656,-183.6304 191.1046,-193.4569 198.097,-193.7822"/>
</g>
<!-- Node20 -->
<g id="node10" class="node">
<title>Node20</title>
<g id="a_node10"><a xlink:href="_flange_8h.html" target="_top" xlink:title="Flange.h">
<polygon fill="none" stroke="#000000" points="209.5288,-220.5 209.5288,-238.5 264.4448,-238.5 264.4448,-220.5 209.5288,-220.5"/>
<text text-anchor="middle" x="236.9868" y="-226.5" font-family="Helvetica,sans-Serif" font-size="10.00" fill="#000000">Flange.h</text>
</a>
</g>
</g>
<!-- Node18&#45;&gt;Node20 -->
<g id="edge15" class="edge">
<title>Node18&#45;&gt;Node20</title>
<path fill="none" stroke="#191970" d="M236.9868,-275.4179C236.9868,-268.2164 236.9868,-257.8962 236.9868,-248.8632"/>
<polygon fill="#191970" stroke="#191970" points="240.4869,-248.7794 236.9868,-238.7795 233.4869,-248.7795 240.4869,-248.7794"/>
</g>
<!-- Node21 -->
<g id="node11" class="node">
<title>Node21</title>
<g id="a_node11"><a xlink:href="_beam_connection_8h.html" target="_top" xlink:title="BeamConnection.h">
<polygon fill="none" stroke="#000000" points="289.4599,-165.5 289.4599,-183.5 390.5136,-183.5 390.5136,-165.5 289.4599,-165.5"/>
<text text-anchor="middle" x="339.9868" y="-171.5" font-family="Helvetica,sans-Serif" font-size="10.00" fill="#000000">BeamConnection.h</text>
</a>
</g>
</g>
<!-- Node18&#45;&gt;Node21 -->
<g id="edge18" class="edge">
<title>Node18&#45;&gt;Node21</title>
<path fill="none" stroke="#191970" d="M245.4157,-275.4982C262.693,-257.0467 302.352,-214.6924 324.4306,-191.1134"/>
<polygon fill="#191970" stroke="#191970" points="327.1612,-193.3179 331.4414,-183.6261 322.0515,-188.5334 327.1612,-193.3179"/>
</g>
<!-- Node22 -->
<g id="node12" class="node">
<title>Node22</title>
<g id="a_node12"><a xlink:href="_support_node_8h.html" target="_top" xlink:title="SupportNode.h">
<polygon fill="none" stroke="#000000" points="408.3515,-165.5 408.3515,-183.5 491.622,-183.5 491.622,-165.5 408.3515,-165.5"/>
<text text-anchor="middle" x="449.9868" y="-171.5" font-family="Helvetica,sans-Serif" font-size="10.00" fill="#000000">SupportNode.h</text>
</a>
</g>
</g>
<!-- Node18&#45;&gt;Node22 -->
<g id="edge20" class="edge">
<title>Node18&#45;&gt;Node22</title>
<path fill="none" stroke="#191970" d="M251.5844,-275.4694C272.7192,-262.539 313.2299,-238.2933 348.9868,-220 371.9401,-208.2571 398.5514,-196.3352 418.6947,-187.6423"/>
<polygon fill="#191970" stroke="#191970" points="420.2046,-190.8032 428.0193,-183.6491 417.4489,-184.3684 420.2046,-190.8032"/>
</g>
<!-- Node18&#45;&gt;Node23 -->
<g id="edge22" class="edge">
<title>Node18&#45;&gt;Node23</title>
<path fill="none" stroke="#191970" d="M260.6003,-275.4179C284.6572,-266.1652 322.0994,-251.7644 348.631,-241.5599"/>
<polygon fill="#191970" stroke="#191970" points="350.1377,-244.7304 358.2147,-237.8739 347.6248,-238.197 350.1377,-244.7304"/>
</g>
<!-- Node19&#45;&gt;Node1 -->
<g id="edge14" class="edge">
<title>Node19&#45;&gt;Node1</title>
<path fill="none" stroke="#191970" d="M190.5375,-165.4179C185.9792,-157.8207 179.3384,-146.7527 173.7187,-137.3866"/>
<polygon fill="#191970" stroke="#191970" points="176.7007,-135.5536 168.5544,-128.7795 170.6982,-139.1552 176.7007,-135.5536"/>
</g>
<!-- Node20&#45;&gt;Node1 -->
<g id="edge16" class="edge">
<title>Node20&#45;&gt;Node1</title>
<path fill="none" stroke="#191970" d="M240.7223,-220.449C245.5221,-207.2802 252.1043,-182.5029 241.9868,-165 233.3938,-150.1346 217.897,-139.6973 202.8906,-132.6047"/>
<polygon fill="#191970" stroke="#191970" points="204.2437,-129.3766 193.6766,-128.611 201.4599,-135.7992 204.2437,-129.3766"/>
</g>
<!-- Node20&#45;&gt;Node19 -->
<g id="edge17" class="edge">
<title>Node20&#45;&gt;Node19</title>
<path fill="none" stroke="#191970" d="M230.2164,-220.4179C224.4351,-212.6624 215.9575,-201.29 208.8857,-191.8035"/>
<polygon fill="#191970" stroke="#191970" points="211.687,-189.7051 202.9042,-183.7795 206.0747,-193.8888 211.687,-189.7051"/>
</g>
<!-- Node21&#45;&gt;Node1 -->
<g id="edge19" class="edge">
<title>Node21&#45;&gt;Node1</title>
<path fill="none" stroke="#191970" d="M310.7588,-165.4179C280.9491,-156.155 234.5349,-141.7325 201.6886,-131.526"/>
<polygon fill="#191970" stroke="#191970" points="202.5521,-128.1293 191.9639,-128.5042 200.4749,-134.814 202.5521,-128.1293"/>
</g>
<!-- Node22&#45;&gt;Node7 -->
<g id="edge21" class="edge">
<title>Node22&#45;&gt;Node7</title>
<path fill="none" stroke="#191970" d="M439.2801,-165.3939C407.6886,-138.5247 314.5797,-59.3342 274.5862,-25.3191"/>
<polygon fill="#191970" stroke="#191970" points="276.7845,-22.5941 266.8994,-18.7814 272.2493,-27.9263 276.7845,-22.5941"/>
</g>
</g>
</svg>
