<?xml version="1.0" encoding="UTF-8" standalone="no"?>
<!DOCTYPE svg PUBLIC "-//W3C//DTD SVG 1.1//EN"
 "http://www.w3.org/Graphics/SVG/1.1/DTD/svg11.dtd">
<!-- Generated by graphviz version 2.40.1 (20161225.0304)
 -->
<!-- Title: libnolimits/NL2/Coaster/Support/SupportNode.h Pages: 1 -->
<svg width="172pt" height="147pt"
 viewBox="0.00 0.00 171.98 147.00" xmlns="http://www.w3.org/2000/svg" xmlns:xlink="http://www.w3.org/1999/xlink">
<g id="graph0" class="graph" transform="scale(1 1) rotate(0) translate(4 143)">
<title>libnolimits/NL2/Coaster/Support/SupportNode.h</title>
<!-- Node0 -->
<g id="node1" class="node">
<title>Node0</title>
<polygon fill="#bfbfbf" stroke="#000000" points="29.4238,-110.5 29.4238,-138.5 153.2754,-138.5 153.2754,-110.5 29.4238,-110.5"/>
<text text-anchor="start" x="37.4238" y="-126.5" font-family="Helvetica,sans-Serif" font-size="10.00" fill="#000000">libnolimits/NL2/Coaster</text>
<text text-anchor="middle" x="91.3496" y="-116.5" font-family="Helvetica,sans-Serif" font-size="10.00" fill="#000000">/Support/SupportNode.h</text>
</g>
<!-- Node1 -->
<g id="node2" class="node">
<title>Node1</title>
<g id="a_node2"><a xlink:href="_nolimits_8h.html" target="_top" xlink:title="../../../Nolimits.h">
<polygon fill="none" stroke="#000000" points="48.8989,-55.5 48.8989,-73.5 133.8003,-73.5 133.8003,-55.5 48.8989,-55.5"/>
<text text-anchor="middle" x="91.3496" y="-61.5" font-family="Helvetica,sans-Serif" font-size="10.00" fill="#000000">../../../Nolimits.h</text>
</a>
</g>
</g>
<!-- Node0&#45;&gt;Node1 -->
<g id="edge1" class="edge">
<title>Node0&#45;&gt;Node1</title>
<path fill="none" stroke="#191970" d="M91.3496,-110.2808C91.3496,-102.3776 91.3496,-92.4316 91.3496,-83.8308"/>
<polygon fill="#191970" stroke="#191970" points="94.8497,-83.5842 91.3496,-73.5842 87.8497,-83.5842 94.8497,-83.5842"/>
</g>
<!-- Node2 -->
<g id="node3" class="node">
<title>Node2</title>
<polygon fill="none" stroke="#bfbfbf" points="0,-.5 0,-18.5 92.6992,-18.5 92.6992,-.5 0,-.5"/>
<text text-anchor="middle" x="46.3496" y="-6.5" font-family="Helvetica,sans-Serif" font-size="10.00" fill="#000000">glm/common.hpp</text>
</g>
<!-- Node1&#45;&gt;Node2 -->
<g id="edge2" class="edge">
<title>Node1&#45;&gt;Node2</title>
<path fill="none" stroke="#191970" d="M83.9188,-55.4179C77.5734,-47.6624 68.2687,-36.29 60.507,-26.8035"/>
<polygon fill="#191970" stroke="#191970" points="62.9832,-24.3027 53.9419,-18.7795 57.5654,-28.7354 62.9832,-24.3027"/>
</g>
<!-- Node3 -->
<g id="node4" class="node">
<title>Node3</title>
<g id="a_node4"><a xlink:href="_helper_8h.html" target="_top" xlink:title="Helper.h">
<polygon fill="none" stroke="#ff0000" points="110.7241,-.5 110.7241,-18.5 163.9751,-18.5 163.9751,-.5 110.7241,-.5"/>
<text text-anchor="middle" x="137.3496" y="-6.5" font-family="Helvetica,sans-Serif" font-size="10.00" fill="#000000">Helper.h</text>
</a>
</g>
</g>
<!-- Node1&#45;&gt;Node3 -->
<g id="edge3" class="edge">
<title>Node1&#45;&gt;Node3</title>
<path fill="none" stroke="#191970" d="M98.9456,-55.4179C105.4982,-47.5833 115.1379,-36.0575 123.12,-26.5137"/>
<polygon fill="#191970" stroke="#191970" points="125.8578,-28.6957 129.5886,-18.7795 120.4882,-24.2048 125.8578,-28.6957"/>
</g>
</g>
</svg>
