<?xml version="1.0" encoding="UTF-8" standalone="no"?>
<!DOCTYPE svg PUBLIC "-//W3C//DTD SVG 1.1//EN"
 "http://www.w3.org/Graphics/SVG/1.1/DTD/svg11.dtd">
<!-- Generated by graphviz version 2.40.1 (20161225.0304)
 -->
<!-- Title: libnolimits/NL2/Coaster/Support/SupportParameter.h Pages: 1 -->
<svg width="379pt" height="167pt"
 viewBox="0.00 0.00 378.73 167.00" xmlns="http://www.w3.org/2000/svg" xmlns:xlink="http://www.w3.org/1999/xlink">
<g id="graph0" class="graph" transform="scale(1 1) rotate(0) translate(4 163)">
<title>libnolimits/NL2/Coaster/Support/SupportParameter.h</title>
<!-- Node16 -->
<g id="node1" class="node">
<title>Node16</title>
<polygon fill="#bfbfbf" stroke="#000000" points="139.3672,-130.5 139.3672,-158.5 285.4502,-158.5 285.4502,-130.5 139.3672,-130.5"/>
<text text-anchor="start" x="147.3672" y="-146.5" font-family="Helvetica,sans-Serif" font-size="10.00" fill="#000000">libnolimits/NL2/Coaster</text>
<text text-anchor="middle" x="212.4087" y="-136.5" font-family="Helvetica,sans-Serif" font-size="10.00" fill="#000000">/Support/SupportParameter.h</text>
</g>
<!-- Node17 -->
<g id="node2" class="node">
<title>Node17</title>
<g id="a_node2"><a xlink:href="_rail_connector_8h.html" target="_top" xlink:title="libnolimits/NL2/Coaster\l/Support/RailConnector.h">
<polygon fill="none" stroke="#000000" points="68.5396,-65.5 68.5396,-93.5 196.2778,-93.5 196.2778,-65.5 68.5396,-65.5"/>
<text text-anchor="start" x="76.5396" y="-81.5" font-family="Helvetica,sans-Serif" font-size="10.00" fill="#000000">libnolimits/NL2/Coaster</text>
<text text-anchor="middle" x="132.4087" y="-71.5" font-family="Helvetica,sans-Serif" font-size="10.00" fill="#000000">/Support/RailConnector.h</text>
</a>
</g>
</g>
<!-- Node16&#45;&gt;Node17 -->
<g id="edge1" class="edge">
<title>Node16&#45;&gt;Node17</title>
<path fill="none" stroke="#191970" d="M187.0342,-123.8832C174.8769,-114.0054 160.6294,-102.4293 149.7336,-93.5765"/>
<polygon fill="#191970" stroke="#191970" points="185.0816,-126.8064 195.0499,-130.396 189.4958,-121.3736 185.0816,-126.8064"/>
</g>
<!-- Node25 -->
<g id="node5" class="node">
<title>Node25</title>
<g id="a_node5"><a xlink:href="_support_parameter_8cpp.html" target="_top" xlink:title="libnolimits/NL2/Coaster\l/Support/SupportParameter.cpp">
<polygon fill="none" stroke="#000000" points="214.0864,-65.5 214.0864,-93.5 370.731,-93.5 370.731,-65.5 214.0864,-65.5"/>
<text text-anchor="start" x="222.0864" y="-81.5" font-family="Helvetica,sans-Serif" font-size="10.00" fill="#000000">libnolimits/NL2/Coaster</text>
<text text-anchor="middle" x="292.4087" y="-71.5" font-family="Helvetica,sans-Serif" font-size="10.00" fill="#000000">/Support/SupportParameter.cpp</text>
</a>
</g>
</g>
<!-- Node16&#45;&gt;Node25 -->
<g id="edge4" class="edge">
<title>Node16&#45;&gt;Node25</title>
<path fill="none" stroke="#191970" d="M237.7832,-123.8832C249.9405,-114.0054 264.188,-102.4293 275.0838,-93.5765"/>
<polygon fill="#191970" stroke="#191970" points="235.3216,-121.3736 229.7675,-130.396 239.7357,-126.8064 235.3216,-121.3736"/>
</g>
<!-- Node18 -->
<g id="node3" class="node">
<title>Node18</title>
<g id="a_node3"><a xlink:href="_custom_track_8h.html" target="_top" xlink:title="libnolimits/NL2/Coaster\l/Track/CustomTrack.h">
<polygon fill="none" stroke="#ff0000" points="0,-.5 0,-28.5 118.8174,-28.5 118.8174,-.5 0,-.5"/>
<text text-anchor="start" x="8" y="-16.5" font-family="Helvetica,sans-Serif" font-size="10.00" fill="#000000">libnolimits/NL2/Coaster</text>
<text text-anchor="middle" x="59.4087" y="-6.5" font-family="Helvetica,sans-Serif" font-size="10.00" fill="#000000">/Track/CustomTrack.h</text>
</a>
</g>
</g>
<!-- Node17&#45;&gt;Node18 -->
<g id="edge2" class="edge">
<title>Node17&#45;&gt;Node18</title>
<path fill="none" stroke="#191970" d="M108.9339,-58.5978C97.9112,-48.7831 85.0645,-37.3442 75.2177,-28.5765"/>
<polygon fill="#191970" stroke="#191970" points="106.7728,-61.3599 116.5688,-65.396 111.4278,-56.132 106.7728,-61.3599"/>
</g>
<!-- Node24 -->
<g id="node4" class="node">
<title>Node24</title>
<g id="a_node4"><a xlink:href="_rail_connector_8cpp.html" target="_top" xlink:title="libnolimits/NL2/Coaster\l/Support/RailConnector.cpp">
<polygon fill="none" stroke="#000000" points="137.2588,-.5 137.2588,-28.5 275.5586,-28.5 275.5586,-.5 137.2588,-.5"/>
<text text-anchor="start" x="145.2588" y="-16.5" font-family="Helvetica,sans-Serif" font-size="10.00" fill="#000000">libnolimits/NL2/Coaster</text>
<text text-anchor="middle" x="206.4087" y="-6.5" font-family="Helvetica,sans-Serif" font-size="10.00" fill="#000000">/Support/RailConnector.cpp</text>
</a>
</g>
</g>
<!-- Node17&#45;&gt;Node24 -->
<g id="edge3" class="edge">
<title>Node17&#45;&gt;Node24</title>
<path fill="none" stroke="#191970" d="M156.2051,-58.5978C167.3787,-48.7831 180.4015,-37.3442 190.3831,-28.5765"/>
<polygon fill="#191970" stroke="#191970" points="153.669,-56.1669 148.4656,-65.396 158.2886,-61.4261 153.669,-56.1669"/>
</g>
</g>
</svg>
