<?xml version="1.0" encoding="UTF-8" standalone="no"?>
<!DOCTYPE svg PUBLIC "-//W3C//DTD SVG 1.1//EN"
 "http://www.w3.org/Graphics/SVG/1.1/DTD/svg11.dtd">
<!-- Generated by graphviz version 2.40.1 (20161225.0304)
 -->
<!-- Title: libnolimits/NL2/Coaster/Support/SupportParameter.h Pages: 1 -->
<svg width="370pt" height="167pt"
 viewBox="0.00 0.00 369.73 167.00" xmlns="http://www.w3.org/2000/svg" xmlns:xlink="http://www.w3.org/1999/xlink">
<g id="graph0" class="graph" transform="scale(1 1) rotate(0) translate(4 163)">
<title>libnolimits/NL2/Coaster/Support/SupportParameter.h</title>
<!-- Node16 -->
<g id="node1" class="node">
<title>Node16</title>
<polygon fill="#bfbfbf" stroke="#000000" points="132.3672,-130.5 132.3672,-158.5 278.4502,-158.5 278.4502,-130.5 132.3672,-130.5"/>
<text text-anchor="start" x="140.3672" y="-146.5" font-family="Helvetica,sans-Serif" font-size="10.00" fill="#000000">libnolimits/NL2/Coaster</text>
<text text-anchor="middle" x="205.4087" y="-136.5" font-family="Helvetica,sans-Serif" font-size="10.00" fill="#000000">/Support/SupportParameter.h</text>
</g>
<!-- Node17 -->
<g id="node2" class="node">
<title>Node17</title>
<g id="a_node2"><a xlink:href="_rail_node_8h.html" target="_top" xlink:title="libnolimits/NL2/Coaster\l/Support/RailNode.h">
<polygon fill="none" stroke="#000000" points="68,-65.5 68,-93.5 186.8174,-93.5 186.8174,-65.5 68,-65.5"/>
<text text-anchor="start" x="76" y="-81.5" font-family="Helvetica,sans-Serif" font-size="10.00" fill="#000000">libnolimits/NL2/Coaster</text>
<text text-anchor="middle" x="127.4087" y="-71.5" font-family="Helvetica,sans-Serif" font-size="10.00" fill="#000000">/Support/RailNode.h</text>
</a>
</g>
</g>
<!-- Node16&#45;&gt;Node17 -->
<g id="edge1" class="edge">
<title>Node16&#45;&gt;Node17</title>
<path fill="none" stroke="#191970" d="M180.6685,-123.8832C168.8152,-114.0054 154.9238,-102.4293 144.3005,-93.5765"/>
<polygon fill="#191970" stroke="#191970" points="178.561,-126.6829 188.4839,-130.396 183.0423,-121.3053 178.561,-126.6829"/>
</g>
<!-- Node25 -->
<g id="node5" class="node">
<title>Node25</title>
<g id="a_node5"><a xlink:href="_support_parameter_8cpp.html" target="_top" xlink:title="libnolimits/NL2/Coaster\l/Support/SupportParameter.cpp">
<polygon fill="none" stroke="#000000" points="205.0864,-65.5 205.0864,-93.5 361.731,-93.5 361.731,-65.5 205.0864,-65.5"/>
<text text-anchor="start" x="213.0864" y="-81.5" font-family="Helvetica,sans-Serif" font-size="10.00" fill="#000000">libnolimits/NL2/Coaster</text>
<text text-anchor="middle" x="283.4087" y="-71.5" font-family="Helvetica,sans-Serif" font-size="10.00" fill="#000000">/Support/SupportParameter.cpp</text>
</a>
</g>
</g>
<!-- Node16&#45;&gt;Node25 -->
<g id="edge4" class="edge">
<title>Node16&#45;&gt;Node25</title>
<path fill="none" stroke="#191970" d="M230.1489,-123.8832C242.0022,-114.0054 255.8935,-102.4293 266.5169,-93.5765"/>
<polygon fill="#191970" stroke="#191970" points="227.7751,-121.3053 222.3335,-130.396 232.2564,-126.6829 227.7751,-121.3053"/>
</g>
<!-- Node18 -->
<g id="node3" class="node">
<title>Node18</title>
<g id="a_node3"><a xlink:href="_custom_track_8h.html" target="_top" xlink:title="libnolimits/NL2/Coaster\l/Track/CustomTrack.h">
<polygon fill="none" stroke="#ff0000" points="0,-.5 0,-28.5 118.8174,-28.5 118.8174,-.5 0,-.5"/>
<text text-anchor="start" x="8" y="-16.5" font-family="Helvetica,sans-Serif" font-size="10.00" fill="#000000">libnolimits/NL2/Coaster</text>
<text text-anchor="middle" x="59.4087" y="-6.5" font-family="Helvetica,sans-Serif" font-size="10.00" fill="#000000">/Track/CustomTrack.h</text>
</a>
</g>
</g>
<!-- Node17&#45;&gt;Node18 -->
<g id="edge2" class="edge">
<title>Node17&#45;&gt;Node18</title>
<path fill="none" stroke="#191970" d="M105.2422,-58.3115C95.0419,-48.5612 83.2182,-37.259 74.1349,-28.5765"/>
<polygon fill="#191970" stroke="#191970" points="103.0065,-61.0162 112.6537,-65.396 107.8434,-55.9561 103.0065,-61.0162"/>
</g>
<!-- Node24 -->
<g id="node4" class="node">
<title>Node24</title>
<g id="a_node4"><a xlink:href="_rail_node_8cpp.html" target="_top" xlink:title="libnolimits/NL2/Coaster\l/Support/RailNode.cpp">
<polygon fill="none" stroke="#000000" points="137,-.5 137,-28.5 255.8174,-28.5 255.8174,-.5 137,-.5"/>
<text text-anchor="start" x="145" y="-16.5" font-family="Helvetica,sans-Serif" font-size="10.00" fill="#000000">libnolimits/NL2/Coaster</text>
<text text-anchor="middle" x="196.4087" y="-6.5" font-family="Helvetica,sans-Serif" font-size="10.00" fill="#000000">/Support/RailNode.cpp</text>
</a>
</g>
</g>
<!-- Node17&#45;&gt;Node24 -->
<g id="edge3" class="edge">
<title>Node17&#45;&gt;Node24</title>
<path fill="none" stroke="#191970" d="M149.9011,-58.3115C160.2514,-48.5612 172.2491,-37.259 181.4659,-28.5765"/>
<polygon fill="#191970" stroke="#191970" points="147.2597,-55.9914 142.3807,-65.396 152.0595,-61.0866 147.2597,-55.9914"/>
</g>
</g>
</svg>
