<?xml version="1.0" encoding="UTF-8" standalone="no"?>
<!DOCTYPE svg PUBLIC "-//W3C//DTD SVG 1.1//EN"
 "http://www.w3.org/Graphics/SVG/1.1/DTD/svg11.dtd">
<!-- Generated by graphviz version 2.40.1 (20161225.0304)
 -->
<!-- Title: libnolimits/NL2/Coaster/Support/Support.h Pages: 1 -->
<svg width="1223pt" height="377pt"
 viewBox="0.00 0.00 1222.69 377.00" xmlns="http://www.w3.org/2000/svg" xmlns:xlink="http://www.w3.org/1999/xlink">
<g id="graph0" class="graph" transform="scale(1 1) rotate(0) translate(4 373)">
<title>libnolimits/NL2/Coaster/Support/Support.h</title>
<!-- Node0 -->
<g id="node1" class="node">
<title>Node0</title>
<polygon fill="#bfbfbf" stroke="#000000" points="50.6686,-340.5 50.6686,-368.5 169.486,-368.5 169.486,-340.5 50.6686,-340.5"/>
<text text-anchor="start" x="58.6686" y="-356.5" font-family="Helvetica,sans-Serif" font-size="10.00" fill="#000000">libnolimits/NL2/Coaster</text>
<text text-anchor="middle" x="110.0773" y="-346.5" font-family="Helvetica,sans-Serif" font-size="10.00" fill="#000000">/Support/Support.h</text>
</g>
<!-- Node1 -->
<g id="node2" class="node">
<title>Node1</title>
<g id="a_node2"><a xlink:href="_chunk_8h.html" target="_top" xlink:title="../../../Stream/Chunk.h">
<polygon fill="none" stroke="#000000" points="115.4469,-110.5 115.4469,-128.5 228.7077,-128.5 228.7077,-110.5 115.4469,-110.5"/>
<text text-anchor="middle" x="172.0773" y="-116.5" font-family="Helvetica,sans-Serif" font-size="10.00" fill="#000000">../../../Stream/Chunk.h</text>
</a>
</g>
</g>
<!-- Node0&#45;&gt;Node1 -->
<g id="edge1" class="edge">
<title>Node0&#45;&gt;Node1</title>
<path fill="none" stroke="#191970" d="M92.6643,-340.4762C54.0831,-307.7217 -31.7572,-224.4641 13.0773,-165 24.5813,-149.7422 67.1067,-138.0502 105.2847,-130.3409"/>
<polygon fill="#191970" stroke="#191970" points="106.2453,-133.7196 115.3903,-128.3698 104.9052,-126.849 106.2453,-133.7196"/>
</g>
<!-- Node16 -->
<g id="node6" class="node">
<title>Node16</title>
<g id="a_node6"><a xlink:href="_footer_8h.html" target="_top" xlink:title="Footer.h">
<polygon fill="none" stroke="#000000" points="21.7301,-165.5 21.7301,-183.5 74.4245,-183.5 74.4245,-165.5 21.7301,-165.5"/>
<text text-anchor="middle" x="48.0773" y="-171.5" font-family="Helvetica,sans-Serif" font-size="10.00" fill="#000000">Footer.h</text>
</a>
</g>
</g>
<!-- Node0&#45;&gt;Node16 -->
<g id="edge7" class="edge">
<title>Node0&#45;&gt;Node16</title>
<path fill="none" stroke="#191970" d="M94.0011,-340.1777C84.588,-330.8382 73.3517,-317.8445 67.0773,-304 50.5721,-267.5814 47.7801,-220.0454 47.6476,-193.8809"/>
<polygon fill="#191970" stroke="#191970" points="51.1482,-193.8021 47.7276,-183.7746 44.1484,-193.7465 51.1482,-193.8021"/>
</g>
<!-- Node17 -->
<g id="node7" class="node">
<title>Node17</title>
<g id="a_node7"><a xlink:href="_free_node_8h.html" target="_top" xlink:title="FreeNode.h">
<polygon fill="none" stroke="#000000" points="75.6735,-285.5 75.6735,-303.5 144.4811,-303.5 144.4811,-285.5 75.6735,-285.5"/>
<text text-anchor="middle" x="110.0773" y="-291.5" font-family="Helvetica,sans-Serif" font-size="10.00" fill="#000000">FreeNode.h</text>
</a>
</g>
</g>
<!-- Node0&#45;&gt;Node17 -->
<g id="edge9" class="edge">
<title>Node0&#45;&gt;Node17</title>
<path fill="none" stroke="#191970" d="M110.0773,-340.2808C110.0773,-332.3776 110.0773,-322.4316 110.0773,-313.8308"/>
<polygon fill="#191970" stroke="#191970" points="113.5774,-313.5842 110.0773,-303.5842 106.5774,-313.5842 113.5774,-313.5842"/>
</g>
<!-- Node18 -->
<g id="node8" class="node">
<title>Node18</title>
<g id="a_node8"><a xlink:href="_beam_8h.html" target="_top" xlink:title="Beam.h">
<polygon fill="none" stroke="#000000" points="392.8459,-285.5 392.8459,-303.5 443.3087,-303.5 443.3087,-285.5 392.8459,-285.5"/>
<text text-anchor="middle" x="418.0773" y="-291.5" font-family="Helvetica,sans-Serif" font-size="10.00" fill="#000000">Beam.h</text>
</a>
</g>
</g>
<!-- Node0&#45;&gt;Node18 -->
<g id="edge11" class="edge">
<title>Node0&#45;&gt;Node18</title>
<path fill="none" stroke="#191970" d="M169.828,-342.8603C233.0017,-330.5537 330.557,-311.5494 382.5673,-301.4175"/>
<polygon fill="#191970" stroke="#191970" points="383.4959,-304.8025 392.6421,-299.4549 382.1574,-297.9317 383.4959,-304.8025"/>
</g>
<!-- Node27 -->
<g id="node17" class="node">
<title>Node27</title>
<polygon fill="none" stroke="#bfbfbf" points="1171.4616,-225.5 1171.4616,-243.5 1214.693,-243.5 1214.693,-225.5 1171.4616,-225.5"/>
<text text-anchor="middle" x="1193.0773" y="-231.5" font-family="Helvetica,sans-Serif" font-size="10.00" fill="#000000">vector</text>
</g>
<!-- Node0&#45;&gt;Node27 -->
<g id="edge31" class="edge">
<title>Node0&#45;&gt;Node27</title>
<path fill="none" stroke="#191970" d="M169.7108,-350.7124C362.4588,-338.1221 967.1671,-295.8089 1157.0773,-249 1159.3957,-248.4286 1161.762,-247.7375 1164.1187,-246.9708"/>
<polygon fill="#191970" stroke="#191970" points="1165.4113,-250.2249 1173.6037,-243.5067 1163.0099,-243.6497 1165.4113,-250.2249"/>
</g>
<!-- Node2 -->
<g id="node3" class="node">
<title>Node2</title>
<g id="a_node3"><a xlink:href="_file_8h.html" target="_top" xlink:title="../File/File.h">
<polygon fill="none" stroke="#ff0000" points="156.2375,-55.5 156.2375,-73.5 223.9171,-73.5 223.9171,-55.5 156.2375,-55.5"/>
<text text-anchor="middle" x="190.0773" y="-61.5" font-family="Helvetica,sans-Serif" font-size="10.00" fill="#000000">../File/File.h</text>
</a>
</g>
</g>
<!-- Node1&#45;&gt;Node2 -->
<g id="edge2" class="edge">
<title>Node1&#45;&gt;Node2</title>
<path fill="none" stroke="#191970" d="M175.0496,-110.4179C177.4324,-103.1372 180.8584,-92.669 183.8376,-83.5659"/>
<polygon fill="#191970" stroke="#191970" points="187.2563,-84.3721 187.0404,-73.7795 180.6035,-82.1948 187.2563,-84.3721"/>
</g>
<!-- Node6 -->
<g id="node4" class="node">
<title>Node6</title>
<polygon fill="none" stroke="#bfbfbf" points="127.9567,-.5 127.9567,-18.5 176.1979,-18.5 176.1979,-.5 127.9567,-.5"/>
<text text-anchor="middle" x="152.0773" y="-6.5" font-family="Helvetica,sans-Serif" font-size="10.00" fill="#000000">stdint.h</text>
</g>
<!-- Node1&#45;&gt;Node6 -->
<g id="edge5" class="edge">
<title>Node1&#45;&gt;Node6</title>
<path fill="none" stroke="#191970" d="M165.2134,-110.3302C159.0913,-101.5359 150.5724,-87.6192 147.0773,-74 143.2768,-59.191 144.9318,-41.8939 147.315,-28.942"/>
<polygon fill="#191970" stroke="#191970" points="150.8045,-29.3617 149.4781,-18.8502 143.96,-27.8946 150.8045,-29.3617"/>
</g>
<!-- Node7 -->
<g id="node5" class="node">
<title>Node7</title>
<g id="a_node5"><a xlink:href="_nolimits_8h.html" target="_top" xlink:title="../Nolimits.h">
<polygon fill="none" stroke="#ff0000" points="217.9616,-.5 217.9616,-18.5 286.193,-18.5 286.193,-.5 217.9616,-.5"/>
<text text-anchor="middle" x="252.0773" y="-6.5" font-family="Helvetica,sans-Serif" font-size="10.00" fill="#000000">../Nolimits.h</text>
</a>
</g>
</g>
<!-- Node1&#45;&gt;Node7 -->
<g id="edge6" class="edge">
<title>Node1&#45;&gt;Node7</title>
<path fill="none" stroke="#191970" d="M189.8007,-110.4468C203.514,-102.5754 221.9801,-89.9388 233.0773,-74 242.4573,-60.5277 247.2653,-42.3937 249.6939,-28.7848"/>
<polygon fill="#191970" stroke="#191970" points="253.1965,-29.0285 251.2224,-18.6192 246.2743,-27.9876 253.1965,-29.0285"/>
</g>
<!-- Node2&#45;&gt;Node6 -->
<g id="edge3" class="edge">
<title>Node2&#45;&gt;Node6</title>
<path fill="none" stroke="#191970" d="M183.8024,-55.4179C178.4987,-47.7415 170.7468,-36.5217 164.2335,-27.0945"/>
<polygon fill="#191970" stroke="#191970" points="167.0525,-25.0173 158.4886,-18.7795 161.2934,-28.9963 167.0525,-25.0173"/>
</g>
<!-- Node2&#45;&gt;Node7 -->
<g id="edge4" class="edge">
<title>Node2&#45;&gt;Node7</title>
<path fill="none" stroke="#191970" d="M200.3153,-55.4179C209.4147,-47.3458 222.931,-35.3556 233.8699,-25.6517"/>
<polygon fill="#191970" stroke="#191970" points="236.4587,-28.0339 241.6168,-18.7795 231.8134,-22.7974 236.4587,-28.0339"/>
</g>
<!-- Node16&#45;&gt;Node1 -->
<g id="edge8" class="edge">
<title>Node16&#45;&gt;Node1</title>
<path fill="none" stroke="#191970" d="M68.5534,-165.4179C88.6567,-156.5011 119.5395,-142.803 142.346,-132.6873"/>
<polygon fill="#191970" stroke="#191970" points="143.8488,-135.8496 151.5708,-128.5956 141.0105,-129.4508 143.8488,-135.8496"/>
</g>
<!-- Node17&#45;&gt;Node1 -->
<g id="edge10" class="edge">
<title>Node17&#45;&gt;Node1</title>
<path fill="none" stroke="#191970" d="M109.242,-285.4531C107.6161,-263.5178 105.7896,-206.2697 126.0773,-165 131.7684,-153.423 141.6109,-143.0762 150.7346,-135.1858"/>
<polygon fill="#191970" stroke="#191970" points="153.2113,-137.6835 158.7719,-128.6651 148.801,-132.2475 153.2113,-137.6835"/>
</g>
<!-- Node18&#45;&gt;Node1 -->
<g id="edge12" class="edge">
<title>Node18&#45;&gt;Node1</title>
<path fill="none" stroke="#191970" d="M392.4564,-292.5589C338.7003,-288.0097 216.5058,-275.0222 185.0773,-249 154.9755,-224.0763 153.6567,-203.7031 159.0773,-165 160.3291,-156.0618 162.9006,-146.4158 165.4286,-138.3156"/>
<polygon fill="#191970" stroke="#191970" points="168.7762,-139.3405 168.6121,-128.7469 162.1341,-137.1306 168.7762,-139.3405"/>
</g>
<!-- Node19 -->
<g id="node9" class="node">
<title>Node19</title>
<g id="a_node9"><a xlink:href="_beam_node_8h.html" target="_top" xlink:title="BeamNode.h">
<polygon fill="none" stroke="#000000" points="167.8927,-165.5 167.8927,-183.5 242.2619,-183.5 242.2619,-165.5 167.8927,-165.5"/>
<text text-anchor="middle" x="205.0773" y="-171.5" font-family="Helvetica,sans-Serif" font-size="10.00" fill="#000000">BeamNode.h</text>
</a>
</g>
</g>
<!-- Node18&#45;&gt;Node19 -->
<g id="edge13" class="edge">
<title>Node18&#45;&gt;Node19</title>
<path fill="none" stroke="#191970" d="M392.5589,-293.1553C339.7838,-289.7849 221.5174,-278.9844 197.0773,-249 184.5373,-233.6153 189.787,-210.1051 196.0753,-193.6201"/>
<polygon fill="#191970" stroke="#191970" points="199.4915,-194.5301 200.1811,-183.9577 193.049,-191.7925 199.4915,-194.5301"/>
</g>
<!-- Node20 -->
<g id="node10" class="node">
<title>Node20</title>
<g id="a_node10"><a xlink:href="_flange_8h.html" target="_top" xlink:title="Flange.h">
<polygon fill="none" stroke="#000000" points="205.6193,-225.5 205.6193,-243.5 260.5353,-243.5 260.5353,-225.5 205.6193,-225.5"/>
<text text-anchor="middle" x="233.0773" y="-231.5" font-family="Helvetica,sans-Serif" font-size="10.00" fill="#000000">Flange.h</text>
</a>
</g>
</g>
<!-- Node18&#45;&gt;Node20 -->
<g id="edge15" class="edge">
<title>Node18&#45;&gt;Node20</title>
<path fill="none" stroke="#191970" d="M392.7612,-286.7852C363.9354,-277.935 315.4735,-262.8557 274.0773,-249 271.9831,-248.2991 269.8322,-247.569 267.6649,-246.8256"/>
<polygon fill="#191970" stroke="#191970" points="268.7777,-243.5071 258.1829,-243.5302 266.4797,-250.1191 268.7777,-243.5071"/>
</g>
<!-- Node21 -->
<g id="node11" class="node">
<title>Node21</title>
<g id="a_node11"><a xlink:href="_beam_connection_8h.html" target="_top" xlink:title="BeamConnection/BeamConnection.h">
<polygon fill="none" stroke="#000000" points="437.8044,-165.5 437.8044,-183.5 618.3502,-183.5 618.3502,-165.5 437.8044,-165.5"/>
<text text-anchor="middle" x="528.0773" y="-171.5" font-family="Helvetica,sans-Serif" font-size="10.00" fill="#000000">BeamConnection/BeamConnection.h</text>
</a>
</g>
</g>
<!-- Node18&#45;&gt;Node21 -->
<g id="edge18" class="edge">
<title>Node18&#45;&gt;Node21</title>
<path fill="none" stroke="#191970" d="M392.5827,-288.5976C351.9088,-278.0163 279.5834,-253.7311 307.0773,-220 322.71,-200.8209 376.7304,-189.4906 427.4453,-182.9331"/>
<polygon fill="#191970" stroke="#191970" points="428.0377,-186.3866 437.5319,-181.6844 427.1776,-179.4396 428.0377,-186.3866"/>
</g>
<!-- Node22 -->
<g id="node12" class="node">
<title>Node22</title>
<g id="a_node12"><a xlink:href="_beam_node_connection_8h.html" target="_top" xlink:title="BeamConnection/BeamNodeConnection.h">
<polygon fill="none" stroke="#000000" points="315.8512,-225.5 315.8512,-243.5 520.3034,-243.5 520.3034,-225.5 315.8512,-225.5"/>
<text text-anchor="middle" x="418.0773" y="-231.5" font-family="Helvetica,sans-Serif" font-size="10.00" fill="#000000">BeamConnection/BeamNodeConnection.h</text>
</a>
</g>
</g>
<!-- Node18&#45;&gt;Node22 -->
<g id="edge20" class="edge">
<title>Node18&#45;&gt;Node22</title>
<path fill="none" stroke="#191970" d="M418.0773,-285.3873C418.0773,-277.0174 418.0773,-264.3414 418.0773,-253.735"/>
<polygon fill="#191970" stroke="#191970" points="421.5774,-253.6984 418.0773,-243.6985 414.5774,-253.6985 421.5774,-253.6984"/>
</g>
<!-- Node23 -->
<g id="node13" class="node">
<title>Node23</title>
<g id="a_node13"><a xlink:href="_free_node_connection_8h.html" target="_top" xlink:title="BeamConnection/FreeNodeConnection.h">
<polygon fill="none" stroke="#000000" points="538.632,-225.5 538.632,-243.5 737.5226,-243.5 737.5226,-225.5 538.632,-225.5"/>
<text text-anchor="middle" x="638.0773" y="-231.5" font-family="Helvetica,sans-Serif" font-size="10.00" fill="#000000">BeamConnection/FreeNodeConnection.h</text>
</a>
</g>
</g>
<!-- Node18&#45;&gt;Node23 -->
<g id="edge22" class="edge">
<title>Node18&#45;&gt;Node23</title>
<path fill="none" stroke="#191970" d="M443.3141,-287.6172C480.3541,-277.5154 549.9291,-258.5404 595.1129,-246.2176"/>
<polygon fill="#191970" stroke="#191970" points="596.1948,-249.5504 604.9215,-243.5425 594.3529,-242.7971 596.1948,-249.5504"/>
</g>
<!-- Node24 -->
<g id="node14" class="node">
<title>Node24</title>
<g id="a_node14"><a xlink:href="_footer_connection_8h.html" target="_top" xlink:title="BeamConnection/FooterConnection.h">
<polygon fill="none" stroke="#000000" points="755.4152,-225.5 755.4152,-243.5 938.7394,-243.5 938.7394,-225.5 755.4152,-225.5"/>
<text text-anchor="middle" x="847.0773" y="-231.5" font-family="Helvetica,sans-Serif" font-size="10.00" fill="#000000">BeamConnection/FooterConnection.h</text>
</a>
</g>
</g>
<!-- Node18&#45;&gt;Node24 -->
<g id="edge24" class="edge">
<title>Node18&#45;&gt;Node24</title>
<path fill="none" stroke="#191970" d="M443.6008,-291.0014C498.793,-283.4268 633.3648,-264.9084 746.0773,-249 755.3204,-247.6954 765.0377,-246.3135 774.6424,-244.9415"/>
<polygon fill="#191970" stroke="#191970" points="775.1826,-248.3999 784.586,-243.5188 774.1911,-241.4705 775.1826,-248.3999"/>
</g>
<!-- Node25 -->
<g id="node15" class="node">
<title>Node25</title>
<g id="a_node15"><a xlink:href="_rail_connector_connection_8h.html" target="_top" xlink:title="BeamConnection/RailConnector\lConnection.h">
<polygon fill="none" stroke="#000000" points="956.6491,-220.5 956.6491,-248.5 1115.5055,-248.5 1115.5055,-220.5 956.6491,-220.5"/>
<text text-anchor="start" x="964.6491" y="-236.5" font-family="Helvetica,sans-Serif" font-size="10.00" fill="#000000">BeamConnection/RailConnector</text>
<text text-anchor="middle" x="1036.0773" y="-226.5" font-family="Helvetica,sans-Serif" font-size="10.00" fill="#000000">Connection.h</text>
</a>
</g>
</g>
<!-- Node18&#45;&gt;Node25 -->
<g id="edge26" class="edge">
<title>Node18&#45;&gt;Node25</title>
<path fill="none" stroke="#191970" d="M443.5259,-293.0191C518.7818,-288.4914 746.9733,-273.695 946.4167,-249.1493"/>
<polygon fill="#191970" stroke="#191970" points="946.9999,-252.6038 956.4922,-247.8978 946.137,-245.6572 946.9999,-252.6038"/>
</g>
<!-- Node26 -->
<g id="node16" class="node">
<title>Node26</title>
<g id="a_node16"><a xlink:href="_support_node_8h.html" target="_top" xlink:title="SupportNode.h">
<polygon fill="none" stroke="#000000" points="273.442,-110.5 273.442,-128.5 356.7126,-128.5 356.7126,-110.5 273.442,-110.5"/>
<text text-anchor="middle" x="315.0773" y="-116.5" font-family="Helvetica,sans-Serif" font-size="10.00" fill="#000000">SupportNode.h</text>
</a>
</g>
</g>
<!-- Node18&#45;&gt;Node26 -->
<g id="edge28" class="edge">
<title>Node18&#45;&gt;Node26</title>
<path fill="none" stroke="#191970" d="M443.5022,-293.826C567.1105,-290.4288 1100.3181,-274.3397 1124.0773,-249 1132.8932,-239.5977 1132.6109,-229.6593 1124.0773,-220 1073.7143,-162.9934 537.4098,-130.8572 366.8473,-122.0228"/>
<polygon fill="#191970" stroke="#191970" points="367.0257,-118.5275 356.8595,-121.5106 366.6671,-125.5183 367.0257,-118.5275"/>
</g>
<!-- Node18&#45;&gt;Node27 -->
<g id="edge30" class="edge">
<title>Node18&#45;&gt;Node27</title>
<path fill="none" stroke="#191970" d="M443.6281,-294.0245C557.2011,-291.7428 1016.8068,-280.6907 1157.0773,-249 1159.5501,-248.4413 1162.0737,-247.7337 1164.5797,-246.9329"/>
<polygon fill="#191970" stroke="#191970" points="1165.8125,-250.2089 1174.0133,-243.5009 1163.4193,-243.6307 1165.8125,-250.2089"/>
</g>
<!-- Node19&#45;&gt;Node1 -->
<g id="edge14" class="edge">
<title>Node19&#45;&gt;Node1</title>
<path fill="none" stroke="#191970" d="M199.628,-165.4179C195.0697,-157.8207 188.4289,-146.7527 182.8093,-137.3866"/>
<polygon fill="#191970" stroke="#191970" points="185.7912,-135.5536 177.645,-128.7795 179.7887,-139.1552 185.7912,-135.5536"/>
</g>
<!-- Node20&#45;&gt;Node1 -->
<g id="edge16" class="edge">
<title>Node20&#45;&gt;Node1</title>
<path fill="none" stroke="#191970" d="M239.5656,-225.3587C248.5428,-211.4816 262.4299,-184.6395 251.0773,-165 242.4843,-150.1346 226.9875,-139.6973 211.9812,-132.6047"/>
<polygon fill="#191970" stroke="#191970" points="213.3342,-129.3766 202.7671,-128.611 210.5504,-135.7992 213.3342,-129.3766"/>
</g>
<!-- Node20&#45;&gt;Node19 -->
<g id="edge17" class="edge">
<title>Node20&#45;&gt;Node19</title>
<path fill="none" stroke="#191970" d="M228.8247,-225.3873C224.8365,-216.8412 218.7533,-203.8057 213.7423,-193.0679"/>
<polygon fill="#191970" stroke="#191970" points="216.7705,-191.2802 209.3699,-183.6985 210.4272,-194.2404 216.7705,-191.2802"/>
</g>
<!-- Node21&#45;&gt;Node1 -->
<g id="edge19" class="edge">
<title>Node21&#45;&gt;Node1</title>
<path fill="none" stroke="#191970" d="M469.6898,-165.4795C406.272,-155.6818 305.1526,-140.0594 238.6837,-129.7903"/>
<polygon fill="#191970" stroke="#191970" points="239.1481,-126.3206 228.7309,-128.2527 238.0793,-133.2385 239.1481,-126.3206"/>
</g>
<!-- Node22&#45;&gt;Node21 -->
<g id="edge21" class="edge">
<title>Node22&#45;&gt;Node21</title>
<path fill="none" stroke="#191970" d="M434.7839,-225.3873C452.8173,-215.5509 481.7543,-199.7671 502.622,-188.3847"/>
<polygon fill="#191970" stroke="#191970" points="504.4709,-191.3631 511.5739,-183.5019 501.1189,-185.2178 504.4709,-191.3631"/>
</g>
<!-- Node23&#45;&gt;Node21 -->
<g id="edge23" class="edge">
<title>Node23&#45;&gt;Node21</title>
<path fill="none" stroke="#191970" d="M621.3707,-225.3873C603.3373,-215.5509 574.4003,-199.7671 553.5326,-188.3847"/>
<polygon fill="#191970" stroke="#191970" points="555.0357,-185.2178 544.5807,-183.5019 551.6837,-191.3631 555.0357,-185.2178"/>
</g>
<!-- Node24&#45;&gt;Node21 -->
<g id="edge25" class="edge">
<title>Node24&#45;&gt;Node21</title>
<path fill="none" stroke="#191970" d="M798.9744,-225.4524C741.9276,-214.7226 646.9076,-196.8505 585.9081,-185.3773"/>
<polygon fill="#191970" stroke="#191970" points="586.5239,-181.9318 576.0492,-183.5229 585.2299,-188.8112 586.5239,-181.9318"/>
</g>
<!-- Node25&#45;&gt;Node21 -->
<g id="edge27" class="edge">
<title>Node25&#45;&gt;Node21</title>
<path fill="none" stroke="#191970" d="M956.4817,-221.182C953.647,-220.7723 950.8388,-220.3768 948.0773,-220 839.1405,-205.136 713.7689,-192.0782 628.5637,-183.808"/>
<polygon fill="#191970" stroke="#191970" points="628.6661,-180.3017 618.3757,-182.8234 627.9926,-187.2692 628.6661,-180.3017"/>
</g>
<!-- Node26&#45;&gt;Node7 -->
<g id="edge29" class="edge">
<title>Node26&#45;&gt;Node7</title>
<path fill="none" stroke="#191970" d="M309.9217,-110.4982C299.5387,-92.369 275.9398,-51.1647 262.3096,-27.3659"/>
<polygon fill="#191970" stroke="#191970" points="265.3112,-25.5643 257.3041,-18.6261 259.2369,-29.0432 265.3112,-25.5643"/>
</g>
</g>
</svg>
