<?xml version="1.0" encoding="UTF-8" standalone="no"?>
<!DOCTYPE svg PUBLIC "-//W3C//DTD SVG 1.1//EN"
 "http://www.w3.org/Graphics/SVG/1.1/DTD/svg11.dtd">
<!-- Generated by graphviz version 2.40.1 (20161225.0304)
 -->
<!-- Title: libnolimits/NL2/Coaster/Support/SupportNode.h Pages: 1 -->
<svg width="574pt" height="167pt"
 viewBox="0.00 0.00 573.62 167.00" xmlns="http://www.w3.org/2000/svg" xmlns:xlink="http://www.w3.org/1999/xlink">
<g id="graph0" class="graph" transform="scale(1 1) rotate(0) translate(4 163)">
<title>libnolimits/NL2/Coaster/Support/SupportNode.h</title>
<!-- Node10 -->
<g id="node1" class="node">
<title>Node10</title>
<polygon fill="#bfbfbf" stroke="#000000" points="291.4829,-130.5 291.4829,-158.5 415.3345,-158.5 415.3345,-130.5 291.4829,-130.5"/>
<text text-anchor="start" x="299.4829" y="-146.5" font-family="Helvetica,sans-Serif" font-size="10.00" fill="#000000">libnolimits/NL2/Coaster</text>
<text text-anchor="middle" x="353.4087" y="-136.5" font-family="Helvetica,sans-Serif" font-size="10.00" fill="#000000">/Support/SupportNode.h</text>
</g>
<!-- Node11 -->
<g id="node2" class="node">
<title>Node11</title>
<g id="a_node2"><a xlink:href="_rail_connector_8h.html" target="_top" xlink:title="libnolimits/NL2/Coaster\l/Support/RailConnector.h">
<polygon fill="none" stroke="#000000" points="142.5396,-65.5 142.5396,-93.5 270.2778,-93.5 270.2778,-65.5 142.5396,-65.5"/>
<text text-anchor="start" x="150.5396" y="-81.5" font-family="Helvetica,sans-Serif" font-size="10.00" fill="#000000">libnolimits/NL2/Coaster</text>
<text text-anchor="middle" x="206.4087" y="-71.5" font-family="Helvetica,sans-Serif" font-size="10.00" fill="#000000">/Support/RailConnector.h</text>
</a>
</g>
</g>
<!-- Node10&#45;&gt;Node11 -->
<g id="edge1" class="edge">
<title>Node10&#45;&gt;Node11</title>
<path fill="none" stroke="#191970" d="M312.1779,-126.2687C288.7646,-115.9159 259.9005,-103.1528 238.2433,-93.5765"/>
<polygon fill="#191970" stroke="#191970" points="310.9506,-129.5529 321.5119,-130.396 313.7815,-123.1508 310.9506,-129.5529"/>
</g>
<!-- Node19 -->
<g id="node5" class="node">
<title>Node19</title>
<g id="a_node5"><a xlink:href="_beam_8h.html" target="_top" xlink:title="libnolimits/NL2/Coaster\l/Support/Beam.h">
<polygon fill="none" stroke="#000000" points="294,-65.5 294,-93.5 412.8174,-93.5 412.8174,-65.5 294,-65.5"/>
<text text-anchor="start" x="302" y="-81.5" font-family="Helvetica,sans-Serif" font-size="10.00" fill="#000000">libnolimits/NL2/Coaster</text>
<text text-anchor="middle" x="353.4087" y="-71.5" font-family="Helvetica,sans-Serif" font-size="10.00" fill="#000000">/Support/Beam.h</text>
</a>
</g>
</g>
<!-- Node10&#45;&gt;Node19 -->
<g id="edge4" class="edge">
<title>Node10&#45;&gt;Node19</title>
<path fill="none" stroke="#191970" d="M353.4087,-120.1081C353.4087,-111.1539 353.4087,-101.3227 353.4087,-93.5765"/>
<polygon fill="#191970" stroke="#191970" points="349.9088,-120.3959 353.4087,-130.396 356.9088,-120.396 349.9088,-120.3959"/>
</g>
<!-- Node23 -->
<g id="node8" class="node">
<title>Node23</title>
<g id="a_node8"><a xlink:href="_support_node_8cpp.html" target="_top" xlink:title="libnolimits/NL2/Coaster\l/Support/SupportNode.cpp">
<polygon fill="none" stroke="#000000" points="431.2021,-65.5 431.2021,-93.5 565.6152,-93.5 565.6152,-65.5 431.2021,-65.5"/>
<text text-anchor="start" x="439.2021" y="-81.5" font-family="Helvetica,sans-Serif" font-size="10.00" fill="#000000">libnolimits/NL2/Coaster</text>
<text text-anchor="middle" x="498.4087" y="-71.5" font-family="Helvetica,sans-Serif" font-size="10.00" fill="#000000">/Support/SupportNode.cpp</text>
</a>
</g>
</g>
<!-- Node10&#45;&gt;Node23 -->
<g id="edge7" class="edge">
<title>Node10&#45;&gt;Node23</title>
<path fill="none" stroke="#191970" d="M394.0785,-126.2687C417.1733,-115.9159 445.6447,-103.1528 467.0073,-93.5765"/>
<polygon fill="#191970" stroke="#191970" points="392.5649,-123.1116 384.8715,-130.396 395.4283,-129.4991 392.5649,-123.1116"/>
</g>
<!-- Node12 -->
<g id="node3" class="node">
<title>Node12</title>
<g id="a_node3"><a xlink:href="_custom_track_8h.html" target="_top" xlink:title="libnolimits/NL2/Coaster\l/Track/CustomTrack.h">
<polygon fill="none" stroke="#ff0000" points="0,-.5 0,-28.5 118.8174,-28.5 118.8174,-.5 0,-.5"/>
<text text-anchor="start" x="8" y="-16.5" font-family="Helvetica,sans-Serif" font-size="10.00" fill="#000000">libnolimits/NL2/Coaster</text>
<text text-anchor="middle" x="59.4087" y="-6.5" font-family="Helvetica,sans-Serif" font-size="10.00" fill="#000000">/Track/CustomTrack.h</text>
</a>
</g>
</g>
<!-- Node11&#45;&gt;Node12 -->
<g id="edge2" class="edge">
<title>Node11&#45;&gt;Node12</title>
<path fill="none" stroke="#191970" d="M165.1779,-61.2687C141.7646,-50.9159 112.9005,-38.1528 91.2433,-28.5765"/>
<polygon fill="#191970" stroke="#191970" points="163.9506,-64.5529 174.5119,-65.396 166.7815,-58.1508 163.9506,-64.5529"/>
</g>
<!-- Node18 -->
<g id="node4" class="node">
<title>Node18</title>
<g id="a_node4"><a xlink:href="_rail_connector_8cpp.html" target="_top" xlink:title="libnolimits/NL2/Coaster\l/Support/RailConnector.cpp">
<polygon fill="none" stroke="#000000" points="137.2588,-.5 137.2588,-28.5 275.5586,-28.5 275.5586,-.5 137.2588,-.5"/>
<text text-anchor="start" x="145.2588" y="-16.5" font-family="Helvetica,sans-Serif" font-size="10.00" fill="#000000">libnolimits/NL2/Coaster</text>
<text text-anchor="middle" x="206.4087" y="-6.5" font-family="Helvetica,sans-Serif" font-size="10.00" fill="#000000">/Support/RailConnector.cpp</text>
</a>
</g>
</g>
<!-- Node11&#45;&gt;Node18 -->
<g id="edge3" class="edge">
<title>Node11&#45;&gt;Node18</title>
<path fill="none" stroke="#191970" d="M206.4087,-55.1081C206.4087,-46.1539 206.4087,-36.3227 206.4087,-28.5765"/>
<polygon fill="#191970" stroke="#191970" points="202.9088,-55.3959 206.4087,-65.396 209.9088,-55.396 202.9088,-55.3959"/>
</g>
<!-- Node20 -->
<g id="node6" class="node">
<title>Node20</title>
<g id="a_node6"><a xlink:href="_support_8h.html" target="_top" xlink:title="libnolimits/NL2/Coaster\l/Support/Support.h">
<polygon fill="none" stroke="#ff0000" points="294,-.5 294,-28.5 412.8174,-28.5 412.8174,-.5 294,-.5"/>
<text text-anchor="start" x="302" y="-16.5" font-family="Helvetica,sans-Serif" font-size="10.00" fill="#000000">libnolimits/NL2/Coaster</text>
<text text-anchor="middle" x="353.4087" y="-6.5" font-family="Helvetica,sans-Serif" font-size="10.00" fill="#000000">/Support/Support.h</text>
</a>
</g>
</g>
<!-- Node19&#45;&gt;Node20 -->
<g id="edge5" class="edge">
<title>Node19&#45;&gt;Node20</title>
<path fill="none" stroke="#191970" d="M353.4087,-55.1081C353.4087,-46.1539 353.4087,-36.3227 353.4087,-28.5765"/>
<polygon fill="#191970" stroke="#191970" points="349.9088,-55.3959 353.4087,-65.396 356.9088,-55.396 349.9088,-55.3959"/>
</g>
<!-- Node22 -->
<g id="node7" class="node">
<title>Node22</title>
<g id="a_node7"><a xlink:href="_beam_8cpp.html" target="_top" xlink:title="libnolimits/NL2/Coaster\l/Support/Beam.cpp">
<polygon fill="none" stroke="#000000" points="431,-.5 431,-28.5 549.8174,-28.5 549.8174,-.5 431,-.5"/>
<text text-anchor="start" x="439" y="-16.5" font-family="Helvetica,sans-Serif" font-size="10.00" fill="#000000">libnolimits/NL2/Coaster</text>
<text text-anchor="middle" x="490.4087" y="-6.5" font-family="Helvetica,sans-Serif" font-size="10.00" fill="#000000">/Support/Beam.cpp</text>
</a>
</g>
</g>
<!-- Node19&#45;&gt;Node22 -->
<g id="edge6" class="edge">
<title>Node19&#45;&gt;Node22</title>
<path fill="none" stroke="#191970" d="M392.4177,-60.9921C414.1329,-50.6892 440.7352,-38.0677 460.7397,-28.5765"/>
<polygon fill="#191970" stroke="#191970" points="390.67,-57.9472 383.1357,-65.396 393.6707,-64.2715 390.67,-57.9472"/>
</g>
</g>
</svg>
