<?xml version="1.0" encoding="UTF-8" standalone="no"?>
<!DOCTYPE svg PUBLIC "-//W3C//DTD SVG 1.1//EN"
 "http://www.w3.org/Graphics/SVG/1.1/DTD/svg11.dtd">
<!-- Generated by graphviz version 2.40.1 (20161225.0304)
 -->
<!-- Title: libnolimits/NL2/Coaster/Support/SupportParameter.h Pages: 1 -->
<svg width="165pt" height="202pt"
 viewBox="0.00 0.00 165.16 202.00" xmlns="http://www.w3.org/2000/svg" xmlns:xlink="http://www.w3.org/1999/xlink">
<g id="graph0" class="graph" transform="scale(1 1) rotate(0) translate(4 198)">
<title>libnolimits/NL2/Coaster/Support/SupportParameter.h</title>
<!-- Node0 -->
<g id="node1" class="node">
<title>Node0</title>
<polygon fill="#bfbfbf" stroke="#000000" points="0,-165.5 0,-193.5 146.083,-193.5 146.083,-165.5 0,-165.5"/>
<text text-anchor="start" x="8" y="-181.5" font-family="Helvetica,sans-Serif" font-size="10.00" fill="#000000">libnolimits/NL2/Coaster</text>
<text text-anchor="middle" x="73.0415" y="-171.5" font-family="Helvetica,sans-Serif" font-size="10.00" fill="#000000">/Support/SupportParameter.h</text>
</g>
<!-- Node1 -->
<g id="node2" class="node">
<title>Node1</title>
<g id="a_node2"><a xlink:href="_chunk_8h.html" target="_top" xlink:title="../../../Stream/Chunk.h">
<polygon fill="none" stroke="#000000" points="16.4111,-110.5 16.4111,-128.5 129.6719,-128.5 129.6719,-110.5 16.4111,-110.5"/>
<text text-anchor="middle" x="73.0415" y="-116.5" font-family="Helvetica,sans-Serif" font-size="10.00" fill="#000000">../../../Stream/Chunk.h</text>
</a>
</g>
</g>
<!-- Node0&#45;&gt;Node1 -->
<g id="edge1" class="edge">
<title>Node0&#45;&gt;Node1</title>
<path fill="none" stroke="#191970" d="M73.0415,-165.2808C73.0415,-157.3776 73.0415,-147.4316 73.0415,-138.8308"/>
<polygon fill="#191970" stroke="#191970" points="76.5416,-138.5842 73.0415,-128.5842 69.5416,-138.5842 76.5416,-138.5842"/>
</g>
<!-- Node2 -->
<g id="node3" class="node">
<title>Node2</title>
<g id="a_node3"><a xlink:href="_file_8h.html" target="_top" xlink:title="../File/File.h">
<polygon fill="none" stroke="#ff0000" points="39.2017,-55.5 39.2017,-73.5 106.8813,-73.5 106.8813,-55.5 39.2017,-55.5"/>
<text text-anchor="middle" x="73.0415" y="-61.5" font-family="Helvetica,sans-Serif" font-size="10.00" fill="#000000">../File/File.h</text>
</a>
</g>
</g>
<!-- Node1&#45;&gt;Node2 -->
<g id="edge2" class="edge">
<title>Node1&#45;&gt;Node2</title>
<path fill="none" stroke="#191970" d="M73.0415,-110.4179C73.0415,-103.2164 73.0415,-92.8962 73.0415,-83.8632"/>
<polygon fill="#191970" stroke="#191970" points="76.5416,-83.7794 73.0415,-73.7795 69.5416,-83.7795 76.5416,-83.7794"/>
</g>
<!-- Node6 -->
<g id="node4" class="node">
<title>Node6</title>
<polygon fill="none" stroke="#bfbfbf" points="10.9209,-.5 10.9209,-18.5 59.1621,-18.5 59.1621,-.5 10.9209,-.5"/>
<text text-anchor="middle" x="35.0415" y="-6.5" font-family="Helvetica,sans-Serif" font-size="10.00" fill="#000000">stdint.h</text>
</g>
<!-- Node1&#45;&gt;Node6 -->
<g id="edge5" class="edge">
<title>Node1&#45;&gt;Node6</title>
<path fill="none" stroke="#191970" d="M60.1291,-110.3491C49.7944,-102.1662 36.0671,-89.1487 30.0415,-74 24.2688,-59.4871 26.2431,-41.7087 29.2513,-28.495"/>
<polygon fill="#191970" stroke="#191970" points="32.6841,-29.2048 31.874,-18.641 25.9196,-27.4044 32.6841,-29.2048"/>
</g>
<!-- Node7 -->
<g id="node5" class="node">
<title>Node7</title>
<g id="a_node5"><a xlink:href="_nolimits_8h.html" target="_top" xlink:title="../Nolimits.h">
<polygon fill="none" stroke="#ff0000" points="88.9258,-.5 88.9258,-18.5 157.1572,-18.5 157.1572,-.5 88.9258,-.5"/>
<text text-anchor="middle" x="123.0415" y="-6.5" font-family="Helvetica,sans-Serif" font-size="10.00" fill="#000000">../Nolimits.h</text>
</a>
</g>
</g>
<!-- Node1&#45;&gt;Node7 -->
<g id="edge6" class="edge">
<title>Node1&#45;&gt;Node7</title>
<path fill="none" stroke="#191970" d="M85.1361,-110.4994C95.2546,-102.2267 109.1151,-88.9984 116.0415,-74 122.5429,-59.9218 124.0761,-42.3317 124.1045,-29.0784"/>
<polygon fill="#191970" stroke="#191970" points="127.5944,-28.6484 123.829,-18.7453 120.5968,-28.835 127.5944,-28.6484"/>
</g>
<!-- Node2&#45;&gt;Node6 -->
<g id="edge3" class="edge">
<title>Node2&#45;&gt;Node6</title>
<path fill="none" stroke="#191970" d="M66.7666,-55.4179C61.4629,-47.7415 53.711,-36.5217 47.1977,-27.0945"/>
<polygon fill="#191970" stroke="#191970" points="50.0167,-25.0173 41.4528,-18.7795 44.2576,-28.9963 50.0167,-25.0173"/>
</g>
<!-- Node2&#45;&gt;Node7 -->
<g id="edge4" class="edge">
<title>Node2&#45;&gt;Node7</title>
<path fill="none" stroke="#191970" d="M81.298,-55.4179C88.4923,-47.5041 99.1103,-35.8243 107.8369,-26.2251"/>
<polygon fill="#191970" stroke="#191970" points="110.4687,-28.5332 114.6056,-18.7795 105.2891,-23.8245 110.4687,-28.5332"/>
</g>
</g>
</svg>
