<?xml version="1.0" encoding="UTF-8" standalone="no"?>
<!DOCTYPE svg PUBLIC "-//W3C//DTD SVG 1.1//EN"
 "http://www.w3.org/Graphics/SVG/1.1/DTD/svg11.dtd">
<!-- Generated by graphviz version 2.40.1 (20161225.0304)
 -->
<!-- Title: libnolimits/NL2/Coaster/Support/SupportNode.h Pages: 1 -->
<svg width="554pt" height="167pt"
 viewBox="0.00 0.00 553.62 167.00" xmlns="http://www.w3.org/2000/svg" xmlns:xlink="http://www.w3.org/1999/xlink">
<g id="graph0" class="graph" transform="scale(1 1) rotate(0) translate(4 163)">
<title>libnolimits/NL2/Coaster/Support/SupportNode.h</title>
<!-- Node10 -->
<g id="node1" class="node">
<title>Node10</title>
<polygon fill="#bfbfbf" stroke="#000000" points="271.4829,-130.5 271.4829,-158.5 395.3345,-158.5 395.3345,-130.5 271.4829,-130.5"/>
<text text-anchor="start" x="279.4829" y="-146.5" font-family="Helvetica,sans-Serif" font-size="10.00" fill="#000000">libnolimits/NL2/Coaster</text>
<text text-anchor="middle" x="333.4087" y="-136.5" font-family="Helvetica,sans-Serif" font-size="10.00" fill="#000000">/Support/SupportNode.h</text>
</g>
<!-- Node11 -->
<g id="node2" class="node">
<title>Node11</title>
<g id="a_node2"><a xlink:href="_rail_node_8h.html" target="_top" xlink:title="libnolimits/NL2/Coaster\l/Support/RailNode.h">
<polygon fill="none" stroke="#000000" points="137,-65.5 137,-93.5 255.8174,-93.5 255.8174,-65.5 137,-65.5"/>
<text text-anchor="start" x="145" y="-81.5" font-family="Helvetica,sans-Serif" font-size="10.00" fill="#000000">libnolimits/NL2/Coaster</text>
<text text-anchor="middle" x="196.4087" y="-71.5" font-family="Helvetica,sans-Serif" font-size="10.00" fill="#000000">/Support/RailNode.h</text>
</a>
</g>
</g>
<!-- Node10&#45;&gt;Node11 -->
<g id="edge1" class="edge">
<title>Node10&#45;&gt;Node11</title>
<path fill="none" stroke="#191970" d="M294.3996,-125.9921C272.6844,-115.6892 246.0822,-103.0677 226.0776,-93.5765"/>
<polygon fill="#191970" stroke="#191970" points="293.1467,-129.2715 303.6817,-130.396 296.1473,-122.9472 293.1467,-129.2715"/>
</g>
<!-- Node19 -->
<g id="node5" class="node">
<title>Node19</title>
<g id="a_node5"><a xlink:href="_beam_8h.html" target="_top" xlink:title="libnolimits/NL2/Coaster\l/Support/Beam.h">
<polygon fill="none" stroke="#000000" points="274,-65.5 274,-93.5 392.8174,-93.5 392.8174,-65.5 274,-65.5"/>
<text text-anchor="start" x="282" y="-81.5" font-family="Helvetica,sans-Serif" font-size="10.00" fill="#000000">libnolimits/NL2/Coaster</text>
<text text-anchor="middle" x="333.4087" y="-71.5" font-family="Helvetica,sans-Serif" font-size="10.00" fill="#000000">/Support/Beam.h</text>
</a>
</g>
</g>
<!-- Node10&#45;&gt;Node19 -->
<g id="edge4" class="edge">
<title>Node10&#45;&gt;Node19</title>
<path fill="none" stroke="#191970" d="M333.4087,-120.1081C333.4087,-111.1539 333.4087,-101.3227 333.4087,-93.5765"/>
<polygon fill="#191970" stroke="#191970" points="329.9088,-120.3959 333.4087,-130.396 336.9088,-120.396 329.9088,-120.3959"/>
</g>
<!-- Node23 -->
<g id="node8" class="node">
<title>Node23</title>
<g id="a_node8"><a xlink:href="_support_node_8cpp.html" target="_top" xlink:title="libnolimits/NL2/Coaster\l/Support/SupportNode.cpp">
<polygon fill="none" stroke="#000000" points="411.2021,-65.5 411.2021,-93.5 545.6152,-93.5 545.6152,-65.5 411.2021,-65.5"/>
<text text-anchor="start" x="419.2021" y="-81.5" font-family="Helvetica,sans-Serif" font-size="10.00" fill="#000000">libnolimits/NL2/Coaster</text>
<text text-anchor="middle" x="478.4087" y="-71.5" font-family="Helvetica,sans-Serif" font-size="10.00" fill="#000000">/Support/SupportNode.cpp</text>
</a>
</g>
</g>
<!-- Node10&#45;&gt;Node23 -->
<g id="edge7" class="edge">
<title>Node10&#45;&gt;Node23</title>
<path fill="none" stroke="#191970" d="M374.0785,-126.2687C397.1733,-115.9159 425.6447,-103.1528 447.0073,-93.5765"/>
<polygon fill="#191970" stroke="#191970" points="372.5649,-123.1116 364.8715,-130.396 375.4283,-129.4991 372.5649,-123.1116"/>
</g>
<!-- Node12 -->
<g id="node3" class="node">
<title>Node12</title>
<g id="a_node3"><a xlink:href="_custom_track_8h.html" target="_top" xlink:title="libnolimits/NL2/Coaster\l/Track/CustomTrack.h">
<polygon fill="none" stroke="#ff0000" points="0,-.5 0,-28.5 118.8174,-28.5 118.8174,-.5 0,-.5"/>
<text text-anchor="start" x="8" y="-16.5" font-family="Helvetica,sans-Serif" font-size="10.00" fill="#000000">libnolimits/NL2/Coaster</text>
<text text-anchor="middle" x="59.4087" y="-6.5" font-family="Helvetica,sans-Serif" font-size="10.00" fill="#000000">/Track/CustomTrack.h</text>
</a>
</g>
</g>
<!-- Node11&#45;&gt;Node12 -->
<g id="edge2" class="edge">
<title>Node11&#45;&gt;Node12</title>
<path fill="none" stroke="#191970" d="M157.3996,-60.9921C135.6844,-50.6892 109.0822,-38.0677 89.0776,-28.5765"/>
<polygon fill="#191970" stroke="#191970" points="156.1467,-64.2715 166.6817,-65.396 159.1473,-57.9472 156.1467,-64.2715"/>
</g>
<!-- Node18 -->
<g id="node4" class="node">
<title>Node18</title>
<g id="a_node4"><a xlink:href="_rail_node_8cpp.html" target="_top" xlink:title="libnolimits/NL2/Coaster\l/Support/RailNode.cpp">
<polygon fill="none" stroke="#000000" points="137,-.5 137,-28.5 255.8174,-28.5 255.8174,-.5 137,-.5"/>
<text text-anchor="start" x="145" y="-16.5" font-family="Helvetica,sans-Serif" font-size="10.00" fill="#000000">libnolimits/NL2/Coaster</text>
<text text-anchor="middle" x="196.4087" y="-6.5" font-family="Helvetica,sans-Serif" font-size="10.00" fill="#000000">/Support/RailNode.cpp</text>
</a>
</g>
</g>
<!-- Node11&#45;&gt;Node18 -->
<g id="edge3" class="edge">
<title>Node11&#45;&gt;Node18</title>
<path fill="none" stroke="#191970" d="M196.4087,-55.1081C196.4087,-46.1539 196.4087,-36.3227 196.4087,-28.5765"/>
<polygon fill="#191970" stroke="#191970" points="192.9088,-55.3959 196.4087,-65.396 199.9088,-55.396 192.9088,-55.3959"/>
</g>
<!-- Node20 -->
<g id="node6" class="node">
<title>Node20</title>
<g id="a_node6"><a xlink:href="_support_8h.html" target="_top" xlink:title="libnolimits/NL2/Coaster\l/Support/Support.h">
<polygon fill="none" stroke="#ff0000" points="274,-.5 274,-28.5 392.8174,-28.5 392.8174,-.5 274,-.5"/>
<text text-anchor="start" x="282" y="-16.5" font-family="Helvetica,sans-Serif" font-size="10.00" fill="#000000">libnolimits/NL2/Coaster</text>
<text text-anchor="middle" x="333.4087" y="-6.5" font-family="Helvetica,sans-Serif" font-size="10.00" fill="#000000">/Support/Support.h</text>
</a>
</g>
</g>
<!-- Node19&#45;&gt;Node20 -->
<g id="edge5" class="edge">
<title>Node19&#45;&gt;Node20</title>
<path fill="none" stroke="#191970" d="M333.4087,-55.1081C333.4087,-46.1539 333.4087,-36.3227 333.4087,-28.5765"/>
<polygon fill="#191970" stroke="#191970" points="329.9088,-55.3959 333.4087,-65.396 336.9088,-55.396 329.9088,-55.3959"/>
</g>
<!-- Node22 -->
<g id="node7" class="node">
<title>Node22</title>
<g id="a_node7"><a xlink:href="_beam_8cpp.html" target="_top" xlink:title="libnolimits/NL2/Coaster\l/Support/Beam.cpp">
<polygon fill="none" stroke="#000000" points="411,-.5 411,-28.5 529.8174,-28.5 529.8174,-.5 411,-.5"/>
<text text-anchor="start" x="419" y="-16.5" font-family="Helvetica,sans-Serif" font-size="10.00" fill="#000000">libnolimits/NL2/Coaster</text>
<text text-anchor="middle" x="470.4087" y="-6.5" font-family="Helvetica,sans-Serif" font-size="10.00" fill="#000000">/Support/Beam.cpp</text>
</a>
</g>
</g>
<!-- Node19&#45;&gt;Node22 -->
<g id="edge6" class="edge">
<title>Node19&#45;&gt;Node22</title>
<path fill="none" stroke="#191970" d="M372.4177,-60.9921C394.1329,-50.6892 420.7352,-38.0677 440.7397,-28.5765"/>
<polygon fill="#191970" stroke="#191970" points="370.67,-57.9472 363.1357,-65.396 373.6707,-64.2715 370.67,-57.9472"/>
</g>
</g>
</svg>
