<?xml version="1.0" encoding="UTF-8" standalone="no"?>
<!DOCTYPE svg PUBLIC "-//W3C//DTD SVG 1.1//EN"
 "http://www.w3.org/Graphics/SVG/1.1/DTD/svg11.dtd">
<!-- Generated by graphviz version 2.40.1 (20161225.0304)
 -->
<!-- Title: libnolimits/NL2/Coaster/Support/SupportNode.cpp Pages: 1 -->
<svg width="142pt" height="147pt"
 viewBox="0.00 0.00 142.41 147.00" xmlns="http://www.w3.org/2000/svg" xmlns:xlink="http://www.w3.org/1999/xlink">
<g id="graph0" class="graph" transform="scale(1 1) rotate(0) translate(4 143)">
<title>libnolimits/NL2/Coaster/Support/SupportNode.cpp</title>
<!-- Node0 -->
<g id="node1" class="node">
<title>Node0</title>
<polygon fill="#bfbfbf" stroke="#000000" points="0,-110.5 0,-138.5 134.4131,-138.5 134.4131,-110.5 0,-110.5"/>
<text text-anchor="start" x="8" y="-126.5" font-family="Helvetica,sans-Serif" font-size="10.00" fill="#000000">libnolimits/NL2/Coaster</text>
<text text-anchor="middle" x="67.2065" y="-116.5" font-family="Helvetica,sans-Serif" font-size="10.00" fill="#000000">/Support/SupportNode.cpp</text>
</g>
<!-- Node1 -->
<g id="node2" class="node">
<title>Node1</title>
<g id="a_node2"><a xlink:href="_support_node_8h.html" target="_top" xlink:title="SupportNode.h">
<polygon fill="none" stroke="#000000" points="25.5713,-55.5 25.5713,-73.5 108.8418,-73.5 108.8418,-55.5 25.5713,-55.5"/>
<text text-anchor="middle" x="67.2065" y="-61.5" font-family="Helvetica,sans-Serif" font-size="10.00" fill="#000000">SupportNode.h</text>
</a>
</g>
</g>
<!-- Node0&#45;&gt;Node1 -->
<g id="edge1" class="edge">
<title>Node0&#45;&gt;Node1</title>
<path fill="none" stroke="#191970" d="M67.2065,-110.2808C67.2065,-102.3776 67.2065,-92.4316 67.2065,-83.8308"/>
<polygon fill="#191970" stroke="#191970" points="70.7066,-83.5842 67.2065,-73.5842 63.7066,-83.5842 70.7066,-83.5842"/>
</g>
<!-- Node2 -->
<g id="node3" class="node">
<title>Node2</title>
<g id="a_node3"><a xlink:href="_nolimits_8h.html" target="_top" xlink:title="../../../Nolimits.h">
<polygon fill="none" stroke="#ff0000" points="24.7559,-.5 24.7559,-18.5 109.6572,-18.5 109.6572,-.5 24.7559,-.5"/>
<text text-anchor="middle" x="67.2065" y="-6.5" font-family="Helvetica,sans-Serif" font-size="10.00" fill="#000000">../../../Nolimits.h</text>
</a>
</g>
</g>
<!-- Node1&#45;&gt;Node2 -->
<g id="edge2" class="edge">
<title>Node1&#45;&gt;Node2</title>
<path fill="none" stroke="#191970" d="M67.2065,-55.4179C67.2065,-48.2164 67.2065,-37.8962 67.2065,-28.8632"/>
<polygon fill="#191970" stroke="#191970" points="70.7066,-28.7794 67.2065,-18.7795 63.7066,-28.7795 70.7066,-28.7794"/>
</g>
</g>
</svg>
