<?xml version="1.0" encoding="UTF-8" standalone="no"?>
<!DOCTYPE svg PUBLIC "-//W3C//DTD SVG 1.1//EN"
 "http://www.w3.org/Graphics/SVG/1.1/DTD/svg11.dtd">
<!-- Generated by graphviz version 2.40.1 (20161225.0304)
 -->
<!-- Title: libnolimits/NL2/Coaster/Support/Support.cpp Pages: 1 -->
<svg width="365pt" height="257pt"
 viewBox="0.00 0.00 364.60 257.00" xmlns="http://www.w3.org/2000/svg" xmlns:xlink="http://www.w3.org/1999/xlink">
<g id="graph0" class="graph" transform="scale(1 1) rotate(0) translate(4 253)">
<title>libnolimits/NL2/Coaster/Support/Support.cpp</title>
<!-- Node0 -->
<g id="node1" class="node">
<title>Node0</title>
<polygon fill="#bfbfbf" stroke="#000000" points="144.9696,-220.5 144.9696,-248.5 263.787,-248.5 263.787,-220.5 144.9696,-220.5"/>
<text text-anchor="start" x="152.9696" y="-236.5" font-family="Helvetica,sans-Serif" font-size="10.00" fill="#000000">libnolimits/NL2/Coaster</text>
<text text-anchor="middle" x="204.3783" y="-226.5" font-family="Helvetica,sans-Serif" font-size="10.00" fill="#000000">/Support/Support.cpp</text>
</g>
<!-- Node1 -->
<g id="node2" class="node">
<title>Node1</title>
<g id="a_node2"><a xlink:href="_support_8h.html" target="_top" xlink:title="Support.h">
<polygon fill="none" stroke="#000000" points="120.6962,-165.5 120.6962,-183.5 180.0604,-183.5 180.0604,-165.5 120.6962,-165.5"/>
<text text-anchor="middle" x="150.3783" y="-171.5" font-family="Helvetica,sans-Serif" font-size="10.00" fill="#000000">Support.h</text>
</a>
</g>
</g>
<!-- Node0&#45;&gt;Node1 -->
<g id="edge1" class="edge">
<title>Node0&#45;&gt;Node1</title>
<path fill="none" stroke="#191970" d="M191.5811,-220.2808C183.7488,-211.5784 173.6876,-200.3992 165.4681,-191.2664"/>
<polygon fill="#191970" stroke="#191970" points="167.8453,-188.6758 158.5541,-183.5842 162.6422,-193.3585 167.8453,-188.6758"/>
</g>
<!-- Node30 -->
<g id="node9" class="node">
<title>Node30</title>
<g id="a_node9"><a xlink:href="_memory_file_8h.html" target="_top" xlink:title="../../../File/MemoryFile.h">
<polygon fill="none" stroke="#000000" points="228.1469,-165.5 228.1469,-183.5 348.6098,-183.5 348.6098,-165.5 228.1469,-165.5"/>
<text text-anchor="middle" x="288.3783" y="-171.5" font-family="Helvetica,sans-Serif" font-size="10.00" fill="#000000">../../../File/MemoryFile.h</text>
</a>
</g>
</g>
<!-- Node0&#45;&gt;Node30 -->
<g id="edge12" class="edge">
<title>Node0&#45;&gt;Node30</title>
<path fill="none" stroke="#191970" d="M224.2851,-220.2808C237.2145,-211.0456 254.0489,-199.021 267.2201,-189.613"/>
<polygon fill="#191970" stroke="#191970" points="269.5574,-192.2447 275.6604,-183.5842 265.4887,-186.5485 269.5574,-192.2447"/>
</g>
<!-- Node2 -->
<g id="node3" class="node">
<title>Node2</title>
<g id="a_node3"><a xlink:href="_chunk_8h.html" target="_top" xlink:title="../../../Stream/Chunk.h">
<polygon fill="none" stroke="#ff0000" points="62.7479,-55.5 62.7479,-73.5 176.0087,-73.5 176.0087,-55.5 62.7479,-55.5"/>
<text text-anchor="middle" x="119.3783" y="-61.5" font-family="Helvetica,sans-Serif" font-size="10.00" fill="#000000">../../../Stream/Chunk.h</text>
</a>
</g>
</g>
<!-- Node1&#45;&gt;Node2 -->
<g id="edge2" class="edge">
<title>Node1&#45;&gt;Node2</title>
<path fill="none" stroke="#191970" d="M120.4471,-169.368C82.1423,-162.1201 19.081,-147.6613 5.3783,-129 -13.7099,-103.0043 23.3414,-86.0156 60.1874,-76.0327"/>
<polygon fill="#191970" stroke="#191970" points="61.1965,-79.3875 70.0201,-73.5229 59.4652,-72.6049 61.1965,-79.3875"/>
</g>
<!-- Node18 -->
<g id="node5" class="node">
<title>Node18</title>
<g id="a_node5"><a xlink:href="_footer_8h.html" target="_top" xlink:title="Footer.h">
<polygon fill="none" stroke="#000000" points="14.0311,-110.5 14.0311,-128.5 66.7255,-128.5 66.7255,-110.5 14.0311,-110.5"/>
<text text-anchor="middle" x="40.3783" y="-116.5" font-family="Helvetica,sans-Serif" font-size="10.00" fill="#000000">Footer.h</text>
</a>
</g>
</g>
<!-- Node1&#45;&gt;Node18 -->
<g id="edge4" class="edge">
<title>Node1&#45;&gt;Node18</title>
<path fill="none" stroke="#191970" d="M132.214,-165.4179C114.6193,-156.6205 87.7165,-143.1691 67.5695,-133.0956"/>
<polygon fill="#191970" stroke="#191970" points="69.0791,-129.9373 58.5696,-128.5956 65.9486,-136.1983 69.0791,-129.9373"/>
</g>
<!-- Node19 -->
<g id="node6" class="node">
<title>Node19</title>
<g id="a_node6"><a xlink:href="_free_node_8h.html" target="_top" xlink:title="FreeNode.h">
<polygon fill="none" stroke="#000000" points="84.9745,-110.5 84.9745,-128.5 153.7821,-128.5 153.7821,-110.5 84.9745,-110.5"/>
<text text-anchor="middle" x="119.3783" y="-116.5" font-family="Helvetica,sans-Serif" font-size="10.00" fill="#000000">FreeNode.h</text>
</a>
</g>
</g>
<!-- Node1&#45;&gt;Node19 -->
<g id="edge6" class="edge">
<title>Node1&#45;&gt;Node19</title>
<path fill="none" stroke="#191970" d="M145.2593,-165.4179C141.0218,-157.8998 134.8687,-146.9829 129.6251,-137.6799"/>
<polygon fill="#191970" stroke="#191970" points="132.5678,-135.7724 124.6085,-128.7795 126.4697,-139.2096 132.5678,-135.7724"/>
</g>
<!-- Node20 -->
<g id="node7" class="node">
<title>Node20</title>
<g id="a_node7"><a xlink:href="_beam_8h.html" target="_top" xlink:title="Beam.h">
<polygon fill="none" stroke="#ff0000" points="172.1469,-110.5 172.1469,-128.5 222.6098,-128.5 222.6098,-110.5 172.1469,-110.5"/>
<text text-anchor="middle" x="197.3783" y="-116.5" font-family="Helvetica,sans-Serif" font-size="10.00" fill="#000000">Beam.h</text>
</a>
</g>
</g>
<!-- Node1&#45;&gt;Node20 -->
<g id="edge8" class="edge">
<title>Node1&#45;&gt;Node20</title>
<path fill="none" stroke="#191970" d="M158.1394,-165.4179C164.8344,-157.5833 174.6837,-146.0575 182.8393,-136.5137"/>
<polygon fill="#191970" stroke="#191970" points="185.6128,-138.6556 189.4486,-128.7795 180.2912,-134.108 185.6128,-138.6556"/>
</g>
<!-- Node29 -->
<g id="node8" class="node">
<title>Node29</title>
<polygon fill="none" stroke="#bfbfbf" points="205.7626,-55.5 205.7626,-73.5 248.994,-73.5 248.994,-55.5 205.7626,-55.5"/>
<text text-anchor="middle" x="227.3783" y="-61.5" font-family="Helvetica,sans-Serif" font-size="10.00" fill="#000000">vector</text>
</g>
<!-- Node1&#45;&gt;Node29 -->
<g id="edge11" class="edge">
<title>Node1&#45;&gt;Node29</title>
<path fill="none" stroke="#191970" d="M180.1882,-166.2095C198.4561,-159.4182 220.38,-147.7927 231.3783,-129 239.4271,-115.247 237.3135,-96.9006 233.8364,-83.2911"/>
<polygon fill="#191970" stroke="#191970" points="237.1468,-82.1449 230.9236,-73.5704 230.4414,-84.1542 237.1468,-82.1449"/>
</g>
<!-- Node3 -->
<g id="node4" class="node">
<title>Node3</title>
<g id="a_node4"><a xlink:href="_file_8h.html" target="_top" xlink:title="../File/File.h">
<polygon fill="none" stroke="#ff0000" points="169.5385,-.5 169.5385,-18.5 237.2181,-18.5 237.2181,-.5 169.5385,-.5"/>
<text text-anchor="middle" x="203.3783" y="-6.5" font-family="Helvetica,sans-Serif" font-size="10.00" fill="#000000">../File/File.h</text>
</a>
</g>
</g>
<!-- Node2&#45;&gt;Node3 -->
<g id="edge3" class="edge">
<title>Node2&#45;&gt;Node3</title>
<path fill="none" stroke="#191970" d="M133.2492,-55.4179C146.138,-46.9788 165.5677,-34.257 180.7097,-24.3426"/>
<polygon fill="#191970" stroke="#191970" points="183.0379,-27.0017 189.4868,-18.5956 179.2033,-21.1454 183.0379,-27.0017"/>
</g>
<!-- Node18&#45;&gt;Node2 -->
<g id="edge5" class="edge">
<title>Node18&#45;&gt;Node2</title>
<path fill="none" stroke="#191970" d="M53.4235,-110.4179C65.5452,-101.9788 83.8183,-89.257 98.059,-79.3426"/>
<polygon fill="#191970" stroke="#191970" points="100.1065,-82.1818 106.3137,-73.5956 96.1069,-76.4369 100.1065,-82.1818"/>
</g>
<!-- Node19&#45;&gt;Node2 -->
<g id="edge7" class="edge">
<title>Node19&#45;&gt;Node2</title>
<path fill="none" stroke="#191970" d="M119.3783,-110.4179C119.3783,-103.2164 119.3783,-92.8962 119.3783,-83.8632"/>
<polygon fill="#191970" stroke="#191970" points="122.8784,-83.7794 119.3783,-73.7795 115.8784,-83.7795 122.8784,-83.7794"/>
</g>
<!-- Node20&#45;&gt;Node2 -->
<g id="edge9" class="edge">
<title>Node20&#45;&gt;Node2</title>
<path fill="none" stroke="#191970" d="M184.4982,-110.4179C172.6429,-102.0584 154.8281,-89.4966 140.8268,-79.6239"/>
<polygon fill="#191970" stroke="#191970" points="142.4671,-76.498 132.2776,-73.5956 138.4332,-82.2188 142.4671,-76.498"/>
</g>
<!-- Node20&#45;&gt;Node29 -->
<g id="edge10" class="edge">
<title>Node20&#45;&gt;Node29</title>
<path fill="none" stroke="#191970" d="M202.3322,-110.4179C206.433,-102.8998 212.3876,-91.9829 217.462,-82.6799"/>
<polygon fill="#191970" stroke="#191970" points="220.6008,-84.2344 222.3168,-73.7795 214.4556,-80.8824 220.6008,-84.2344"/>
</g>
<!-- Node30&#45;&gt;Node3 -->
<g id="edge13" class="edge">
<title>Node30&#45;&gt;Node3</title>
<path fill="none" stroke="#191970" d="M287.9957,-165.3578C286.7295,-144.293 281.3185,-91.3631 258.3783,-55 250.6044,-42.6773 238.3704,-32.0764 227.4127,-24.2149"/>
<polygon fill="#191970" stroke="#191970" points="229.2492,-21.2315 219.008,-18.5169 225.3211,-27.0255 229.2492,-21.2315"/>
</g>
<!-- Node14 -->
<g id="node10" class="node">
<title>Node14</title>
<polygon fill="none" stroke="#bfbfbf" points="316.1517,-110.5 316.1517,-128.5 356.6049,-128.5 356.6049,-110.5 316.1517,-110.5"/>
<text text-anchor="middle" x="336.3783" y="-116.5" font-family="Helvetica,sans-Serif" font-size="10.00" fill="#000000">string</text>
</g>
<!-- Node30&#45;&gt;Node14 -->
<g id="edge14" class="edge">
<title>Node30&#45;&gt;Node14</title>
<path fill="none" stroke="#191970" d="M296.3045,-165.4179C303.142,-157.5833 313.2008,-146.0575 321.53,-136.5137"/>
<polygon fill="#191970" stroke="#191970" points="324.3415,-138.6151 328.2799,-128.7795 319.0675,-134.0123 324.3415,-138.6151"/>
</g>
</g>
</svg>
