<?xml version="1.0" encoding="UTF-8" standalone="no"?>
<!DOCTYPE svg PUBLIC "-//W3C//DTD SVG 1.1//EN"
 "http://www.w3.org/Graphics/SVG/1.1/DTD/svg11.dtd">
<!-- Generated by graphviz version 2.40.1 (20161225.0304)
 -->
<!-- Title: libnolimits/NL2/Coaster/Track/SwitchTrack.h Pages: 1 -->
<svg width="268pt" height="102pt"
 viewBox="0.00 0.00 267.85 102.00" xmlns="http://www.w3.org/2000/svg" xmlns:xlink="http://www.w3.org/1999/xlink">
<g id="graph0" class="graph" transform="scale(1 1) rotate(0) translate(4 98)">
<title>libnolimits/NL2/Coaster/Track/SwitchTrack.h</title>
<!-- Node24 -->
<g id="node1" class="node">
<title>Node24</title>
<polygon fill="#bfbfbf" stroke="#000000" points="70.853,-65.5 70.853,-93.5 189.6704,-93.5 189.6704,-65.5 70.853,-65.5"/>
<text text-anchor="start" x="78.853" y="-81.5" font-family="Helvetica,sans-Serif" font-size="10.00" fill="#000000">libnolimits/NL2/Coaster</text>
<text text-anchor="middle" x="130.2617" y="-71.5" font-family="Helvetica,sans-Serif" font-size="10.00" fill="#000000">/Track/SwitchTrack.h</text>
</g>
<!-- Node25 -->
<g id="node2" class="node">
<title>Node25</title>
<g id="a_node2"><a xlink:href="_special_track_8cpp.html" target="_top" xlink:title="libnolimits/NL2/Coaster\l/Track/SpecialTrack.cpp">
<polygon fill="none" stroke="#000000" points="0,-.5 0,-28.5 122.5234,-28.5 122.5234,-.5 0,-.5"/>
<text text-anchor="start" x="8" y="-16.5" font-family="Helvetica,sans-Serif" font-size="10.00" fill="#000000">libnolimits/NL2/Coaster</text>
<text text-anchor="middle" x="61.2617" y="-6.5" font-family="Helvetica,sans-Serif" font-size="10.00" fill="#000000">/Track/SpecialTrack.cpp</text>
</a>
</g>
</g>
<!-- Node24&#45;&gt;Node25 -->
<g id="edge1" class="edge">
<title>Node24&#45;&gt;Node25</title>
<path fill="none" stroke="#191970" d="M107.7693,-58.3115C97.419,-48.5612 85.4213,-37.259 76.2045,-28.5765"/>
<polygon fill="#191970" stroke="#191970" points="105.6109,-61.0866 115.2897,-65.396 110.4108,-55.9914 105.6109,-61.0866"/>
</g>
<!-- Node26 -->
<g id="node3" class="node">
<title>Node26</title>
<g id="a_node3"><a xlink:href="_switch_track_8cpp.html" target="_top" xlink:title="libnolimits/NL2/Coaster\l/Track/SwitchTrack.cpp">
<polygon fill="none" stroke="#000000" points="140.6724,-.5 140.6724,-28.5 259.8511,-28.5 259.8511,-.5 140.6724,-.5"/>
<text text-anchor="start" x="148.6724" y="-16.5" font-family="Helvetica,sans-Serif" font-size="10.00" fill="#000000">libnolimits/NL2/Coaster</text>
<text text-anchor="middle" x="200.2617" y="-6.5" font-family="Helvetica,sans-Serif" font-size="10.00" fill="#000000">/Track/SwitchTrack.cpp</text>
</a>
</g>
</g>
<!-- Node24&#45;&gt;Node26 -->
<g id="edge2" class="edge">
<title>Node24&#45;&gt;Node26</title>
<path fill="none" stroke="#191970" d="M153.0801,-58.3115C163.5804,-48.5612 175.752,-37.259 185.1024,-28.5765"/>
<polygon fill="#191970" stroke="#191970" points="150.397,-56.0266 145.4507,-65.396 155.1602,-61.1562 150.397,-56.0266"/>
</g>
</g>
</svg>
