<?xml version="1.0" encoding="UTF-8" standalone="no"?>
<!DOCTYPE svg PUBLIC "-//W3C//DTD SVG 1.1//EN"
 "http://www.w3.org/Graphics/SVG/1.1/DTD/svg11.dtd">
<!-- Generated by graphviz version 2.40.1 (20161225.0304)
 -->
<!-- Title: libnolimits/NL2/Coaster/Track/SwitchTrack.h Pages: 1 -->
<svg width="239pt" height="202pt"
 viewBox="0.00 0.00 238.80 202.00" xmlns="http://www.w3.org/2000/svg" xmlns:xlink="http://www.w3.org/1999/xlink">
<g id="graph0" class="graph" transform="scale(1 1) rotate(0) translate(4 198)">
<title>libnolimits/NL2/Coaster/Track/SwitchTrack.h</title>
<!-- Node0 -->
<g id="node1" class="node">
<title>Node0</title>
<polygon fill="#bfbfbf" stroke="#000000" points="55.207,-165.5 55.207,-193.5 174.0244,-193.5 174.0244,-165.5 55.207,-165.5"/>
<text text-anchor="start" x="63.207" y="-181.5" font-family="Helvetica,sans-Serif" font-size="10.00" fill="#000000">libnolimits/NL2/Coaster</text>
<text text-anchor="middle" x="114.6157" y="-171.5" font-family="Helvetica,sans-Serif" font-size="10.00" fill="#000000">/Track/SwitchTrack.h</text>
</g>
<!-- Node1 -->
<g id="node2" class="node">
<title>Node1</title>
<polygon fill="none" stroke="#bfbfbf" points="0,-55.5 0,-73.5 43.2314,-73.5 43.2314,-55.5 0,-55.5"/>
<text text-anchor="middle" x="21.6157" y="-61.5" font-family="Helvetica,sans-Serif" font-size="10.00" fill="#000000">vector</text>
</g>
<!-- Node0&#45;&gt;Node1 -->
<g id="edge1" class="edge">
<title>Node0&#45;&gt;Node1</title>
<path fill="none" stroke="#191970" d="M98.9474,-165.1851C88.6698,-155.4423 75.2213,-142.0025 64.6157,-129 52.4316,-114.0621 40.4205,-95.6482 32.2031,-82.3244"/>
<polygon fill="#191970" stroke="#191970" points="35.1186,-80.382 26.9419,-73.6446 29.1325,-84.0105 35.1186,-80.382"/>
</g>
<!-- Node2 -->
<g id="node3" class="node">
<title>Node2</title>
<g id="a_node3"><a xlink:href="_special_track_8h.html" target="_top" xlink:title="SpecialTrack.h">
<polygon fill="none" stroke="#000000" points="73.73,-110.5 73.73,-128.5 155.5015,-128.5 155.5015,-110.5 73.73,-110.5"/>
<text text-anchor="middle" x="114.6157" y="-116.5" font-family="Helvetica,sans-Serif" font-size="10.00" fill="#000000">SpecialTrack.h</text>
</a>
</g>
</g>
<!-- Node0&#45;&gt;Node2 -->
<g id="edge2" class="edge">
<title>Node0&#45;&gt;Node2</title>
<path fill="none" stroke="#191970" d="M114.6157,-165.2808C114.6157,-157.3776 114.6157,-147.4316 114.6157,-138.8308"/>
<polygon fill="#191970" stroke="#191970" points="118.1158,-138.5842 114.6157,-128.5842 111.1158,-138.5842 118.1158,-138.5842"/>
</g>
<!-- Node21 -->
<g id="node6" class="node">
<title>Node21</title>
<g id="a_node6"><a xlink:href="_segment_8h.html" target="_top" xlink:title="Segment.h">
<polygon fill="none" stroke="#ff0000" points="166.4336,-55.5 166.4336,-73.5 230.7979,-73.5 230.7979,-55.5 166.4336,-55.5"/>
<text text-anchor="middle" x="198.6157" y="-61.5" font-family="Helvetica,sans-Serif" font-size="10.00" fill="#000000">Segment.h</text>
</a>
</g>
</g>
<!-- Node0&#45;&gt;Node21 -->
<g id="edge9" class="edge">
<title>Node0&#45;&gt;Node21</title>
<path fill="none" stroke="#191970" d="M131.1978,-165.1074C141.5977,-155.5431 154.8387,-142.3317 164.6157,-129 175.2341,-114.5211 184.5237,-96.2854 190.6972,-82.9011"/>
<polygon fill="#191970" stroke="#191970" points="193.9,-84.3125 194.7811,-73.7543 187.5082,-81.4586 193.9,-84.3125"/>
</g>
<!-- Node2&#45;&gt;Node1 -->
<g id="edge3" class="edge">
<title>Node2&#45;&gt;Node1</title>
<path fill="none" stroke="#191970" d="M99.2587,-110.4179C84.7197,-101.8195 62.6632,-88.7754 45.7694,-78.7844"/>
<polygon fill="#191970" stroke="#191970" points="47.3847,-75.6735 36.9956,-73.5956 43.8214,-81.6987 47.3847,-75.6735"/>
</g>
<!-- Node3 -->
<g id="node4" class="node">
<title>Node3</title>
<g id="a_node4"><a xlink:href="_chunk_8h.html" target="_top" xlink:title="../../../Stream/Chunk.h">
<polygon fill="none" stroke="#ff0000" points="66.9854,-.5 66.9854,-18.5 180.2461,-18.5 180.2461,-.5 66.9854,-.5"/>
<text text-anchor="middle" x="123.6157" y="-6.5" font-family="Helvetica,sans-Serif" font-size="10.00" fill="#000000">../../../Stream/Chunk.h</text>
</a>
</g>
</g>
<!-- Node2&#45;&gt;Node3 -->
<g id="edge4" class="edge">
<title>Node2&#45;&gt;Node3</title>
<path fill="none" stroke="#191970" d="M107.148,-110.4002C97.9033,-97.9875 84.1259,-75.002 90.6157,-55 94.0579,-44.3911 101.0045,-34.1855 107.6402,-26.1379"/>
<polygon fill="#191970" stroke="#191970" points="110.2933,-28.4211 114.2827,-18.606 105.0433,-23.791 110.2933,-28.4211"/>
</g>
<!-- Node19 -->
<g id="node5" class="node">
<title>Node19</title>
<g id="a_node5"><a xlink:href="_n_l2_2_coaster_2_track_2_track_8h.html" target="_top" xlink:title="Track.h">
<polygon fill="none" stroke="#ff0000" points="99.1289,-55.5 99.1289,-73.5 148.1025,-73.5 148.1025,-55.5 99.1289,-55.5"/>
<text text-anchor="middle" x="123.6157" y="-61.5" font-family="Helvetica,sans-Serif" font-size="10.00" fill="#000000">Track.h</text>
</a>
</g>
</g>
<!-- Node2&#45;&gt;Node19 -->
<g id="edge5" class="edge">
<title>Node2&#45;&gt;Node19</title>
<path fill="none" stroke="#191970" d="M116.1019,-110.4179C117.2803,-103.2164 118.9691,-92.8962 120.4472,-83.8632"/>
<polygon fill="#191970" stroke="#191970" points="123.9364,-84.2134 122.0973,-73.7795 117.0282,-83.083 123.9364,-84.2134"/>
</g>
<!-- Node2&#45;&gt;Node21 -->
<g id="edge7" class="edge">
<title>Node2&#45;&gt;Node21</title>
<path fill="none" stroke="#191970" d="M128.4866,-110.4179C141.3754,-101.9788 160.8051,-89.257 175.9471,-79.3426"/>
<polygon fill="#191970" stroke="#191970" points="178.2753,-82.0017 184.7242,-73.5956 174.4408,-76.1454 178.2753,-82.0017"/>
</g>
<!-- Node19&#45;&gt;Node3 -->
<g id="edge6" class="edge">
<title>Node19&#45;&gt;Node3</title>
<path fill="none" stroke="#191970" d="M123.6157,-55.4179C123.6157,-48.2164 123.6157,-37.8962 123.6157,-28.8632"/>
<polygon fill="#191970" stroke="#191970" points="127.1158,-28.7794 123.6157,-18.7795 120.1158,-28.7795 127.1158,-28.7794"/>
</g>
<!-- Node21&#45;&gt;Node3 -->
<g id="edge8" class="edge">
<title>Node21&#45;&gt;Node3</title>
<path fill="none" stroke="#191970" d="M186.231,-55.4179C174.8317,-47.0584 157.702,-34.4966 144.2392,-24.6239"/>
<polygon fill="#191970" stroke="#191970" points="146.1527,-21.6869 136.0188,-18.5956 142.0131,-27.3317 146.1527,-21.6869"/>
</g>
</g>
</svg>
