<?xml version="1.0" encoding="UTF-8" standalone="no"?>
<!DOCTYPE svg PUBLIC "-//W3C//DTD SVG 1.1//EN"
 "http://www.w3.org/Graphics/SVG/1.1/DTD/svg11.dtd">
<!-- Generated by graphviz version 2.40.1 (20161225.0304)
 -->
<!-- Title: libnolimits/NL2/Coaster/Track/SwitchTrack.cpp Pages: 1 -->
<svg width="177pt" height="202pt"
 viewBox="0.00 0.00 176.79 202.00" xmlns="http://www.w3.org/2000/svg" xmlns:xlink="http://www.w3.org/1999/xlink">
<g id="graph0" class="graph" transform="scale(1 1) rotate(0) translate(4 198)">
<title>libnolimits/NL2/Coaster/Track/SwitchTrack.cpp</title>
<!-- Node0 -->
<g id="node1" class="node">
<title>Node0</title>
<polygon fill="#bfbfbf" stroke="#000000" points="40.0264,-165.5 40.0264,-193.5 159.2051,-193.5 159.2051,-165.5 40.0264,-165.5"/>
<text text-anchor="start" x="48.0264" y="-181.5" font-family="Helvetica,sans-Serif" font-size="10.00" fill="#000000">libnolimits/NL2/Coaster</text>
<text text-anchor="middle" x="99.6157" y="-171.5" font-family="Helvetica,sans-Serif" font-size="10.00" fill="#000000">/Track/SwitchTrack.cpp</text>
</g>
<!-- Node1 -->
<g id="node2" class="node">
<title>Node1</title>
<g id="a_node2"><a xlink:href="_switch_track_8h.html" target="_top" xlink:title="SwitchTrack.h">
<polygon fill="none" stroke="#000000" points="18.4023,-110.5 18.4023,-128.5 96.8291,-128.5 96.8291,-110.5 18.4023,-110.5"/>
<text text-anchor="middle" x="57.6157" y="-116.5" font-family="Helvetica,sans-Serif" font-size="10.00" fill="#000000">SwitchTrack.h</text>
</a>
</g>
</g>
<!-- Node0&#45;&gt;Node1 -->
<g id="edge1" class="edge">
<title>Node0&#45;&gt;Node1</title>
<path fill="none" stroke="#191970" d="M89.6623,-165.2808C83.6949,-156.756 76.0638,-145.8545 69.7454,-136.8281"/>
<polygon fill="#191970" stroke="#191970" points="72.5766,-134.7694 63.9747,-128.5842 66.842,-138.7837 72.5766,-134.7694"/>
</g>
<!-- Node13 -->
<g id="node6" class="node">
<title>Node13</title>
<polygon fill="none" stroke="#bfbfbf" points="114.4434,-110.5 114.4434,-128.5 168.7881,-128.5 168.7881,-110.5 114.4434,-110.5"/>
<text text-anchor="middle" x="141.6157" y="-116.5" font-family="Helvetica,sans-Serif" font-size="10.00" fill="#000000">iostream</text>
</g>
<!-- Node0&#45;&gt;Node13 -->
<g id="edge7" class="edge">
<title>Node0&#45;&gt;Node13</title>
<path fill="none" stroke="#191970" d="M109.5691,-165.2808C115.5365,-156.756 123.1676,-145.8545 129.4861,-136.8281"/>
<polygon fill="#191970" stroke="#191970" points="132.3894,-138.7837 135.2568,-128.5842 126.6548,-134.7694 132.3894,-138.7837"/>
</g>
<!-- Node2 -->
<g id="node3" class="node">
<title>Node2</title>
<polygon fill="none" stroke="#bfbfbf" points="0,-.5 0,-18.5 43.2314,-18.5 43.2314,-.5 0,-.5"/>
<text text-anchor="middle" x="21.6157" y="-6.5" font-family="Helvetica,sans-Serif" font-size="10.00" fill="#000000">vector</text>
</g>
<!-- Node1&#45;&gt;Node2 -->
<g id="edge2" class="edge">
<title>Node1&#45;&gt;Node2</title>
<path fill="none" stroke="#191970" d="M41.692,-110.1981C29.8326,-102.2677 14.5441,-89.6725 7.6157,-74 1.0441,-59.1344 6.0528,-40.9406 11.8266,-27.6705"/>
<polygon fill="#191970" stroke="#191970" points="15.0015,-29.1447 16.2119,-18.6192 8.7019,-26.0925 15.0015,-29.1447"/>
</g>
<!-- Node3 -->
<g id="node4" class="node">
<title>Node3</title>
<g id="a_node4"><a xlink:href="_special_track_8h.html" target="_top" xlink:title="SpecialTrack.h">
<polygon fill="none" stroke="#ff0000" points="16.73,-55.5 16.73,-73.5 98.5015,-73.5 98.5015,-55.5 16.73,-55.5"/>
<text text-anchor="middle" x="57.6157" y="-61.5" font-family="Helvetica,sans-Serif" font-size="10.00" fill="#000000">SpecialTrack.h</text>
</a>
</g>
</g>
<!-- Node1&#45;&gt;Node3 -->
<g id="edge3" class="edge">
<title>Node1&#45;&gt;Node3</title>
<path fill="none" stroke="#191970" d="M57.6157,-110.4179C57.6157,-103.2164 57.6157,-92.8962 57.6157,-83.8632"/>
<polygon fill="#191970" stroke="#191970" points="61.1158,-83.7794 57.6157,-73.7795 54.1158,-83.7795 61.1158,-83.7794"/>
</g>
<!-- Node21 -->
<g id="node5" class="node">
<title>Node21</title>
<g id="a_node5"><a xlink:href="_segment_8h.html" target="_top" xlink:title="Segment.h">
<polygon fill="none" stroke="#ff0000" points="77.4336,-.5 77.4336,-18.5 141.7979,-18.5 141.7979,-.5 77.4336,-.5"/>
<text text-anchor="middle" x="109.6157" y="-6.5" font-family="Helvetica,sans-Serif" font-size="10.00" fill="#000000">Segment.h</text>
</a>
</g>
</g>
<!-- Node1&#45;&gt;Node21 -->
<g id="edge6" class="edge">
<title>Node1&#45;&gt;Node21</title>
<path fill="none" stroke="#191970" d="M72.923,-110.4622C84.7714,-102.5188 100.347,-89.7764 107.6157,-74 114.135,-59.85 114.1618,-42.0403 112.8259,-28.7222"/>
<polygon fill="#191970" stroke="#191970" points="116.2898,-28.2186 111.4959,-18.7704 109.3515,-29.1459 116.2898,-28.2186"/>
</g>
<!-- Node3&#45;&gt;Node2 -->
<g id="edge4" class="edge">
<title>Node3&#45;&gt;Node2</title>
<path fill="none" stroke="#191970" d="M51.6711,-55.4179C46.6983,-47.8207 39.4538,-36.7527 33.3233,-27.3866"/>
<polygon fill="#191970" stroke="#191970" points="36.0946,-25.2297 27.6895,-18.7795 30.2377,-29.0633 36.0946,-25.2297"/>
</g>
<!-- Node3&#45;&gt;Node21 -->
<g id="edge5" class="edge">
<title>Node3&#45;&gt;Node21</title>
<path fill="none" stroke="#191970" d="M66.2025,-55.4179C73.6846,-47.5041 84.7273,-35.8243 93.8029,-26.2251"/>
<polygon fill="#191970" stroke="#191970" points="96.5155,-28.4505 100.8424,-18.7795 91.429,-23.6414 96.5155,-28.4505"/>
</g>
</g>
</svg>
