<?xml version="1.0" encoding="UTF-8" standalone="no"?>
<!DOCTYPE svg PUBLIC "-//W3C//DTD SVG 1.1//EN"
 "http://www.w3.org/Graphics/SVG/1.1/DTD/svg11.dtd">
<!-- Generated by graphviz version 2.40.1 (20161225.0304)
 -->
<!-- Title: libnolimits/NL2/Terrain/Terrain.cpp Pages: 1 -->
<svg width="439pt" height="257pt"
 viewBox="0.00 0.00 438.63 257.00" xmlns="http://www.w3.org/2000/svg" xmlns:xlink="http://www.w3.org/1999/xlink">
<g id="graph0" class="graph" transform="scale(1 1) rotate(0) translate(4 253)">
<title>libnolimits/NL2/Terrain/Terrain.cpp</title>
<!-- Node0 -->
<g id="node1" class="node">
<title>Node0</title>
<polygon fill="#bfbfbf" stroke="#000000" points="233.8794,-220.5 233.8794,-248.5 348.2485,-248.5 348.2485,-220.5 233.8794,-220.5"/>
<text text-anchor="start" x="241.8794" y="-236.5" font-family="Helvetica,sans-Serif" font-size="10.00" fill="#000000">libnolimits/NL2/Terrain</text>
<text text-anchor="middle" x="291.064" y="-226.5" font-family="Helvetica,sans-Serif" font-size="10.00" fill="#000000">/Terrain.cpp</text>
</g>
<!-- Node1 -->
<g id="node2" class="node">
<title>Node1</title>
<g id="a_node2"><a xlink:href="_terrain_8h.html" target="_top" xlink:title="Terrain.h">
<polygon fill="none" stroke="#000000" points="227.6108,-165.5 227.6108,-183.5 282.5171,-183.5 282.5171,-165.5 227.6108,-165.5"/>
<text text-anchor="middle" x="255.064" y="-171.5" font-family="Helvetica,sans-Serif" font-size="10.00" fill="#000000">Terrain.h</text>
</a>
</g>
</g>
<!-- Node0&#45;&gt;Node1 -->
<g id="edge1" class="edge">
<title>Node0&#45;&gt;Node1</title>
<path fill="none" stroke="#191970" d="M282.5325,-220.2808C277.5241,-211.9336 271.1486,-201.3076 265.8007,-192.3946"/>
<polygon fill="#191970" stroke="#191970" points="268.6607,-190.3584 260.5145,-183.5842 262.6583,-193.9599 268.6607,-190.3584"/>
</g>
<!-- Node28 -->
<g id="node10" class="node">
<title>Node28</title>
<g id="a_node10"><a xlink:href="_memory_file_8h.html" target="_top" xlink:title="../../File/MemoryFile.h">
<polygon fill="none" stroke="#000000" points="0,-110.5 0,-128.5 112.1279,-128.5 112.1279,-110.5 0,-110.5"/>
<text text-anchor="middle" x="56.064" y="-116.5" font-family="Helvetica,sans-Serif" font-size="10.00" fill="#000000">../../File/MemoryFile.h</text>
</a>
</g>
</g>
<!-- Node0&#45;&gt;Node28 -->
<g id="edge13" class="edge">
<title>Node0&#45;&gt;Node28</title>
<path fill="none" stroke="#191970" d="M262.2484,-220.3987C216.689,-198.1038 128.6019,-154.9973 83.7542,-133.0506"/>
<polygon fill="#191970" stroke="#191970" points="85.135,-129.8297 74.6144,-128.5779 82.0581,-136.1172 85.135,-129.8297"/>
</g>
<!-- Node12 -->
<g id="node11" class="node">
<title>Node12</title>
<polygon fill="none" stroke="#bfbfbf" points="300.8916,-165.5 300.8916,-183.5 355.2363,-183.5 355.2363,-165.5 300.8916,-165.5"/>
<text text-anchor="middle" x="328.064" y="-171.5" font-family="Helvetica,sans-Serif" font-size="10.00" fill="#000000">iostream</text>
</g>
<!-- Node0&#45;&gt;Node12 -->
<g id="edge16" class="edge">
<title>Node0&#45;&gt;Node12</title>
<path fill="none" stroke="#191970" d="M299.8324,-220.2808C305.0347,-211.8448 311.6722,-201.0813 317.204,-192.1107"/>
<polygon fill="#191970" stroke="#191970" points="320.1922,-193.933 322.462,-183.5842 314.234,-190.2588 320.1922,-193.933"/>
</g>
<!-- Node29 -->
<g id="node12" class="node">
<title>Node29</title>
<polygon fill="none" stroke="#bfbfbf" points="373.5,-165.5 373.5,-183.5 430.6279,-183.5 430.6279,-165.5 373.5,-165.5"/>
<text text-anchor="middle" x="402.064" y="-171.5" font-family="Helvetica,sans-Serif" font-size="10.00" fill="#000000">algorithm</text>
</g>
<!-- Node0&#45;&gt;Node29 -->
<g id="edge17" class="edge">
<title>Node0&#45;&gt;Node29</title>
<path fill="none" stroke="#191970" d="M317.0885,-220.4327C334.8223,-210.8468 358.2121,-198.2037 375.9623,-188.609"/>
<polygon fill="#191970" stroke="#191970" points="378.0388,-191.4653 385.1715,-183.6311 374.7101,-185.3073 378.0388,-191.4653"/>
</g>
<!-- Node2 -->
<g id="node3" class="node">
<title>Node2</title>
<polygon fill="none" stroke="#bfbfbf" points="241.8374,-55.5 241.8374,-73.5 282.2905,-73.5 282.2905,-55.5 241.8374,-55.5"/>
<text text-anchor="middle" x="262.064" y="-61.5" font-family="Helvetica,sans-Serif" font-size="10.00" fill="#000000">string</text>
</g>
<!-- Node1&#45;&gt;Node2 -->
<g id="edge2" class="edge">
<title>Node1&#45;&gt;Node2</title>
<path fill="none" stroke="#191970" d="M255.6368,-165.4982C256.77,-147.6913 259.3198,-107.6225 260.8452,-83.6515"/>
<polygon fill="#191970" stroke="#191970" points="264.341,-83.8283 261.4832,-73.6261 257.3551,-83.3836 264.341,-83.8283"/>
</g>
<!-- Node3 -->
<g id="node4" class="node">
<title>Node3</title>
<g id="a_node4"><a xlink:href="_chunk_8h.html" target="_top" xlink:title="../../Stream/Chunk.h">
<polygon fill="none" stroke="#ff0000" points="314.6011,-55.5 314.6011,-73.5 419.5269,-73.5 419.5269,-55.5 314.6011,-55.5"/>
<text text-anchor="middle" x="367.064" y="-61.5" font-family="Helvetica,sans-Serif" font-size="10.00" fill="#000000">../../Stream/Chunk.h</text>
</a>
</g>
</g>
<!-- Node1&#45;&gt;Node3 -->
<g id="edge3" class="edge">
<title>Node1&#45;&gt;Node3</title>
<path fill="none" stroke="#191970" d="M282.6094,-167.2203C325.6139,-155.7271 404.222,-134.1507 408.064,-129 420.0891,-112.8783 403.5001,-93.2352 387.966,-79.8929"/>
<polygon fill="#191970" stroke="#191970" points="390.0762,-77.0983 380.096,-73.542 385.6802,-82.5458 390.0762,-77.0983"/>
</g>
<!-- Node18 -->
<g id="node6" class="node">
<title>Node18</title>
<polygon fill="none" stroke="#bfbfbf" points="130.4482,-110.5 130.4482,-128.5 173.6797,-128.5 173.6797,-110.5 130.4482,-110.5"/>
<text text-anchor="middle" x="152.064" y="-116.5" font-family="Helvetica,sans-Serif" font-size="10.00" fill="#000000">vector</text>
</g>
<!-- Node1&#45;&gt;Node18 -->
<g id="edge5" class="edge">
<title>Node1&#45;&gt;Node18</title>
<path fill="none" stroke="#191970" d="M238.0556,-165.4179C221.7296,-156.7001 196.845,-143.4122 178.0385,-133.3699"/>
<polygon fill="#191970" stroke="#191970" points="179.5674,-130.2186 169.0976,-128.5956 176.2701,-136.3934 179.5674,-130.2186"/>
</g>
<!-- Node19 -->
<g id="node7" class="node">
<title>Node19</title>
<polygon fill="none" stroke="#bfbfbf" points="191.3374,-110.5 191.3374,-128.5 226.7905,-128.5 226.7905,-110.5 191.3374,-110.5"/>
<text text-anchor="middle" x="209.064" y="-116.5" font-family="Helvetica,sans-Serif" font-size="10.00" fill="#000000">map</text>
</g>
<!-- Node1&#45;&gt;Node19 -->
<g id="edge6" class="edge">
<title>Node1&#45;&gt;Node19</title>
<path fill="none" stroke="#191970" d="M247.468,-165.4179C240.9154,-157.5833 231.2757,-146.0575 223.2936,-136.5137"/>
<polygon fill="#191970" stroke="#191970" points="225.9253,-134.2048 216.825,-128.7795 220.5558,-138.6957 225.9253,-134.2048"/>
</g>
<!-- Node20 -->
<g id="node8" class="node">
<title>Node20</title>
<g id="a_node8"><a xlink:href="_water_8h.html" target="_top" xlink:title="Water.h">
<polygon fill="none" stroke="#ff0000" points="349.0156,-110.5 349.0156,-128.5 399.1123,-128.5 399.1123,-110.5 349.0156,-110.5"/>
<text text-anchor="middle" x="374.064" y="-116.5" font-family="Helvetica,sans-Serif" font-size="10.00" fill="#000000">Water.h</text>
</a>
</g>
</g>
<!-- Node1&#45;&gt;Node20 -->
<g id="edge7" class="edge">
<title>Node1&#45;&gt;Node20</title>
<path fill="none" stroke="#191970" d="M274.7144,-165.4179C293.921,-156.5409 323.3802,-142.9253 345.2379,-132.823"/>
<polygon fill="#191970" stroke="#191970" points="346.7754,-135.9682 354.3843,-128.5956 343.8386,-129.614 346.7754,-135.9682"/>
</g>
<!-- Node22 -->
<g id="node9" class="node">
<title>Node22</title>
<g id="a_node9"><a xlink:href="_layer_8h.html" target="_top" xlink:title="Layer.h">
<polygon fill="none" stroke="#ff0000" points="282.6602,-110.5 282.6602,-128.5 331.4678,-128.5 331.4678,-110.5 282.6602,-110.5"/>
<text text-anchor="middle" x="307.064" y="-116.5" font-family="Helvetica,sans-Serif" font-size="10.00" fill="#000000">Layer.h</text>
</a>
</g>
</g>
<!-- Node1&#45;&gt;Node22 -->
<g id="edge10" class="edge">
<title>Node1&#45;&gt;Node22</title>
<path fill="none" stroke="#191970" d="M263.6507,-165.4179C271.1328,-157.5041 282.1755,-145.8243 291.2511,-136.2251"/>
<polygon fill="#191970" stroke="#191970" points="293.9638,-138.4505 298.2907,-128.7795 288.8772,-133.6414 293.9638,-138.4505"/>
</g>
<!-- Node4 -->
<g id="node5" class="node">
<title>Node4</title>
<g id="a_node5"><a xlink:href="_file_8h.html" target="_top" xlink:title="../File/File.h">
<polygon fill="none" stroke="#ff0000" points="174.2241,-.5 174.2241,-18.5 241.9038,-18.5 241.9038,-.5 174.2241,-.5"/>
<text text-anchor="middle" x="208.064" y="-6.5" font-family="Helvetica,sans-Serif" font-size="10.00" fill="#000000">../File/File.h</text>
</a>
</g>
</g>
<!-- Node3&#45;&gt;Node4 -->
<g id="edge4" class="edge">
<title>Node3&#45;&gt;Node4</title>
<path fill="none" stroke="#191970" d="M340.8083,-55.4179C314.261,-46.2348 273.0537,-31.9807 243.5958,-21.7909"/>
<polygon fill="#191970" stroke="#191970" points="244.6891,-18.4656 234.0943,-18.5042 242.4007,-25.081 244.6891,-18.4656"/>
</g>
<!-- Node20&#45;&gt;Node2 -->
<g id="edge8" class="edge">
<title>Node20&#45;&gt;Node2</title>
<path fill="none" stroke="#191970" d="M355.5694,-110.4179C337.6548,-101.6205 310.2629,-88.1691 289.7496,-78.0956"/>
<polygon fill="#191970" stroke="#191970" points="291.1049,-74.8619 280.586,-73.5956 288.0193,-81.1452 291.1049,-74.8619"/>
</g>
<!-- Node20&#45;&gt;Node3 -->
<g id="edge9" class="edge">
<title>Node20&#45;&gt;Node3</title>
<path fill="none" stroke="#191970" d="M372.9081,-110.4179C371.9915,-103.2164 370.678,-92.8962 369.5284,-83.8632"/>
<polygon fill="#191970" stroke="#191970" points="372.9796,-83.2575 368.245,-73.7795 366.0356,-84.1414 372.9796,-83.2575"/>
</g>
<!-- Node22&#45;&gt;Node2 -->
<g id="edge11" class="edge">
<title>Node22&#45;&gt;Node2</title>
<path fill="none" stroke="#191970" d="M299.6331,-110.4179C293.2877,-102.6624 283.9831,-91.29 276.2214,-81.8035"/>
<polygon fill="#191970" stroke="#191970" points="278.6975,-79.3027 269.6562,-73.7795 273.2798,-83.7354 278.6975,-79.3027"/>
</g>
<!-- Node22&#45;&gt;Node3 -->
<g id="edge12" class="edge">
<title>Node22&#45;&gt;Node3</title>
<path fill="none" stroke="#191970" d="M316.9717,-110.4179C325.7776,-102.3458 338.8578,-90.3556 349.4439,-80.6517"/>
<polygon fill="#191970" stroke="#191970" points="351.9344,-83.1168 356.9409,-73.7795 347.2043,-77.9567 351.9344,-83.1168"/>
</g>
<!-- Node28&#45;&gt;Node2 -->
<g id="edge15" class="edge">
<title>Node28&#45;&gt;Node2</title>
<path fill="none" stroke="#191970" d="M90.0807,-110.4179C129.5651,-99.8759 194.0802,-82.651 231.8615,-72.5638"/>
<polygon fill="#191970" stroke="#191970" points="233.0071,-75.8806 241.7658,-69.9194 231.2014,-69.1175 233.0071,-75.8806"/>
</g>
<!-- Node28&#45;&gt;Node4 -->
<g id="edge14" class="edge">
<title>Node28&#45;&gt;Node4</title>
<path fill="none" stroke="#191970" d="M68.5028,-110.4982C94.5561,-91.6439 155.0968,-47.8315 187.2038,-24.5962"/>
<polygon fill="#191970" stroke="#191970" points="189.4041,-27.3243 195.4533,-18.6261 185.3002,-21.6535 189.4041,-27.3243"/>
</g>
</g>
</svg>
