<?xml version="1.0" encoding="UTF-8" standalone="no"?>
<!DOCTYPE svg PUBLIC "-//W3C//DTD SVG 1.1//EN"
 "http://www.w3.org/Graphics/SVG/1.1/DTD/svg11.dtd">
<!-- Generated by graphviz version 2.40.1 (20161225.0304)
 -->
<!-- Title: libnolimits/NL2/Terrain/TerrainMap.h Pages: 1 -->
<svg width="400pt" height="232pt"
 viewBox="0.00 0.00 399.85 232.00" xmlns="http://www.w3.org/2000/svg" xmlns:xlink="http://www.w3.org/1999/xlink">
<g id="graph0" class="graph" transform="scale(1 1) rotate(0) translate(4 228)">
<title>libnolimits/NL2/Terrain/TerrainMap.h</title>
<!-- Node1 -->
<g id="node1" class="node">
<title>Node1</title>
<polygon fill="#bfbfbf" stroke="#000000" points="79.4856,-195.5 79.4856,-223.5 193.8548,-223.5 193.8548,-195.5 79.4856,-195.5"/>
<text text-anchor="start" x="87.4856" y="-211.5" font-family="Helvetica,sans-Serif" font-size="10.00" fill="#000000">libnolimits/NL2/Terrain</text>
<text text-anchor="middle" x="136.6702" y="-201.5" font-family="Helvetica,sans-Serif" font-size="10.00" fill="#000000">/TerrainMap.h</text>
</g>
<!-- Node2 -->
<g id="node2" class="node">
<title>Node2</title>
<g id="a_node2"><a xlink:href="_water_8h.html" target="_top" xlink:title="libnolimits/NL2/Terrain\l/Water.h">
<polygon fill="none" stroke="#000000" points="13.4856,-130.5 13.4856,-158.5 127.8548,-158.5 127.8548,-130.5 13.4856,-130.5"/>
<text text-anchor="start" x="21.4856" y="-146.5" font-family="Helvetica,sans-Serif" font-size="10.00" fill="#000000">libnolimits/NL2/Terrain</text>
<text text-anchor="middle" x="70.6702" y="-136.5" font-family="Helvetica,sans-Serif" font-size="10.00" fill="#000000">/Water.h</text>
</a>
</g>
</g>
<!-- Node1&#45;&gt;Node2 -->
<g id="edge1" class="edge">
<title>Node1&#45;&gt;Node2</title>
<path fill="none" stroke="#191970" d="M115.1557,-188.3115C105.2554,-178.5612 93.7794,-167.259 84.9633,-158.5765"/>
<polygon fill="#191970" stroke="#191970" points="112.7684,-190.8728 122.3492,-195.396 117.6803,-185.8853 112.7684,-190.8728"/>
</g>
<!-- Node8 -->
<g id="node5" class="node">
<title>Node8</title>
<g id="a_node5"><a xlink:href="_bump_map_8h.html" target="_top" xlink:title="libnolimits/NL2/Terrain\l/BumpMap.h">
<polygon fill="none" stroke="#000000" points="145.4856,-130.5 145.4856,-158.5 259.8548,-158.5 259.8548,-130.5 145.4856,-130.5"/>
<text text-anchor="start" x="153.4856" y="-146.5" font-family="Helvetica,sans-Serif" font-size="10.00" fill="#000000">libnolimits/NL2/Terrain</text>
<text text-anchor="middle" x="202.6702" y="-136.5" font-family="Helvetica,sans-Serif" font-size="10.00" fill="#000000">/BumpMap.h</text>
</a>
</g>
</g>
<!-- Node1&#45;&gt;Node8 -->
<g id="edge4" class="edge">
<title>Node1&#45;&gt;Node8</title>
<path fill="none" stroke="#191970" d="M158.1847,-188.3115C168.085,-178.5612 179.561,-167.259 188.3771,-158.5765"/>
<polygon fill="#191970" stroke="#191970" points="155.6602,-185.8853 150.9912,-195.396 160.572,-190.8728 155.6602,-185.8853"/>
</g>
<!-- Node3 -->
<g id="node3" class="node">
<title>Node3</title>
<g id="a_node3"><a xlink:href="_terrain_8h.html" target="_top" xlink:title="libnolimits/NL2/Terrain\l/Terrain.h">
<polygon fill="none" stroke="#ff0000" points="36.4856,-.5 36.4856,-28.5 150.8548,-28.5 150.8548,-.5 36.4856,-.5"/>
<text text-anchor="start" x="44.4856" y="-16.5" font-family="Helvetica,sans-Serif" font-size="10.00" fill="#000000">libnolimits/NL2/Terrain</text>
<text text-anchor="middle" x="93.6702" y="-6.5" font-family="Helvetica,sans-Serif" font-size="10.00" fill="#000000">/Terrain.h</text>
</a>
</g>
</g>
<!-- Node2&#45;&gt;Node3 -->
<g id="edge2" class="edge">
<title>Node2&#45;&gt;Node3</title>
<path fill="none" stroke="#191970" d="M33.1656,-124.831C21.8949,-116.8829 10.8826,-106.5757 4.6702,-94 -1.0383,-82.4442 -1.8159,-76.1379 4.6702,-65 14.5045,-48.1128 32.3196,-36.4141 49.4413,-28.563"/>
<polygon fill="#191970" stroke="#191970" points="31.4739,-127.9065 41.7595,-130.4475 35.3035,-122.0469 31.4739,-127.9065"/>
</g>
<!-- Node7 -->
<g id="node4" class="node">
<title>Node7</title>
<g id="a_node4"><a xlink:href="_water_8cpp.html" target="_top" xlink:title="libnolimits/NL2/Terrain\l/Water.cpp">
<polygon fill="none" stroke="#000000" points="13.4856,-65.5 13.4856,-93.5 127.8548,-93.5 127.8548,-65.5 13.4856,-65.5"/>
<text text-anchor="start" x="21.4856" y="-81.5" font-family="Helvetica,sans-Serif" font-size="10.00" fill="#000000">libnolimits/NL2/Terrain</text>
<text text-anchor="middle" x="70.6702" y="-71.5" font-family="Helvetica,sans-Serif" font-size="10.00" fill="#000000">/Water.cpp</text>
</a>
</g>
</g>
<!-- Node2&#45;&gt;Node7 -->
<g id="edge3" class="edge">
<title>Node2&#45;&gt;Node7</title>
<path fill="none" stroke="#191970" d="M70.6702,-120.1081C70.6702,-111.1539 70.6702,-101.3227 70.6702,-93.5765"/>
<polygon fill="#191970" stroke="#191970" points="67.1703,-120.3959 70.6702,-130.396 74.1703,-120.396 67.1703,-120.3959"/>
</g>
<!-- Node9 -->
<g id="node6" class="node">
<title>Node9</title>
<g id="a_node6"><a xlink:href="_layer_8h.html" target="_top" xlink:title="libnolimits/NL2/Terrain\l/Layer.h">
<polygon fill="none" stroke="#ff0000" points="145.4856,-65.5 145.4856,-93.5 259.8548,-93.5 259.8548,-65.5 145.4856,-65.5"/>
<text text-anchor="start" x="153.4856" y="-81.5" font-family="Helvetica,sans-Serif" font-size="10.00" fill="#000000">libnolimits/NL2/Terrain</text>
<text text-anchor="middle" x="202.6702" y="-71.5" font-family="Helvetica,sans-Serif" font-size="10.00" fill="#000000">/Layer.h</text>
</a>
</g>
</g>
<!-- Node8&#45;&gt;Node9 -->
<g id="edge5" class="edge">
<title>Node8&#45;&gt;Node9</title>
<path fill="none" stroke="#191970" d="M202.6702,-120.1081C202.6702,-111.1539 202.6702,-101.3227 202.6702,-93.5765"/>
<polygon fill="#191970" stroke="#191970" points="199.1703,-120.3959 202.6702,-130.396 206.1703,-120.396 199.1703,-120.3959"/>
</g>
<!-- Node11 -->
<g id="node7" class="node">
<title>Node11</title>
<g id="a_node7"><a xlink:href="_bump_map_8cpp.html" target="_top" xlink:title="libnolimits/NL2/Terrain\l/BumpMap.cpp">
<polygon fill="none" stroke="#000000" points="277.4856,-65.5 277.4856,-93.5 391.8548,-93.5 391.8548,-65.5 277.4856,-65.5"/>
<text text-anchor="start" x="285.4856" y="-81.5" font-family="Helvetica,sans-Serif" font-size="10.00" fill="#000000">libnolimits/NL2/Terrain</text>
<text text-anchor="middle" x="334.6702" y="-71.5" font-family="Helvetica,sans-Serif" font-size="10.00" fill="#000000">/BumpMap.cpp</text>
</a>
</g>
</g>
<!-- Node8&#45;&gt;Node11 -->
<g id="edge7" class="edge">
<title>Node8&#45;&gt;Node11</title>
<path fill="none" stroke="#191970" d="M240.5373,-125.8533C261.408,-115.5761 286.8961,-103.0252 306.0841,-93.5765"/>
<polygon fill="#191970" stroke="#191970" points="238.7373,-122.8383 231.3122,-130.396 241.8298,-129.1182 238.7373,-122.8383"/>
</g>
<!-- Node9&#45;&gt;Node3 -->
<g id="edge6" class="edge">
<title>Node9&#45;&gt;Node3</title>
<path fill="none" stroke="#191970" d="M169.9956,-60.0151C153.0332,-49.8999 132.6919,-37.7698 117.2754,-28.5765"/>
<polygon fill="#191970" stroke="#191970" points="168.6374,-63.2802 179.0188,-65.396 172.2227,-57.2681 168.6374,-63.2802"/>
</g>
</g>
</svg>
