<?xml version="1.0" encoding="UTF-8" standalone="no"?>
<!DOCTYPE svg PUBLIC "-//W3C//DTD SVG 1.1//EN"
 "http://www.w3.org/Graphics/SVG/1.1/DTD/svg11.dtd">
<!-- Generated by graphviz version 2.40.1 (20161225.0304)
 -->
<!-- Title: libnolimits/NL2/Terrain/Terrain.h Pages: 1 -->
<svg width="717pt" height="312pt"
 viewBox="0.00 0.00 716.60 312.00" xmlns="http://www.w3.org/2000/svg" xmlns:xlink="http://www.w3.org/1999/xlink">
<g id="graph0" class="graph" transform="scale(1 1) rotate(0) translate(4 308)">
<title>libnolimits/NL2/Terrain/Terrain.h</title>
<!-- Node0 -->
<g id="node1" class="node">
<title>Node0</title>
<polygon fill="#bfbfbf" stroke="#000000" points="433.6924,-275.5 433.6924,-303.5 548.0615,-303.5 548.0615,-275.5 433.6924,-275.5"/>
<text text-anchor="start" x="441.6924" y="-291.5" font-family="Helvetica,sans-Serif" font-size="10.00" fill="#000000">libnolimits/NL2/Terrain</text>
<text text-anchor="middle" x="490.8769" y="-281.5" font-family="Helvetica,sans-Serif" font-size="10.00" fill="#000000">/Terrain.h</text>
</g>
<!-- Node1 -->
<g id="node2" class="node">
<title>Node1</title>
<polygon fill="none" stroke="#bfbfbf" points="158.6504,-110.5 158.6504,-128.5 199.1035,-128.5 199.1035,-110.5 158.6504,-110.5"/>
<text text-anchor="middle" x="178.8769" y="-116.5" font-family="Helvetica,sans-Serif" font-size="10.00" fill="#000000">string</text>
</g>
<!-- Node0&#45;&gt;Node1 -->
<g id="edge1" class="edge">
<title>Node0&#45;&gt;Node1</title>
<path fill="none" stroke="#191970" d="M433.5129,-286.0065C316.32,-277.5266 56.0579,-251.3665 3.8769,-184 -1.2942,-177.324 -1.2886,-171.6803 3.8769,-165 12.7809,-153.485 100.6411,-134.7722 148.3759,-125.3355"/>
<polygon fill="#191970" stroke="#191970" points="149.3249,-128.7162 158.4664,-123.3607 147.9803,-121.8466 149.3249,-128.7162"/>
</g>
<!-- Node2 -->
<g id="node3" class="node">
<title>Node2</title>
<g id="a_node3"><a xlink:href="_chunk_8h.html" target="_top" xlink:title="../../Stream/Chunk.h">
<polygon fill="none" stroke="#000000" points="307.414,-110.5 307.414,-128.5 412.3398,-128.5 412.3398,-110.5 307.414,-110.5"/>
<text text-anchor="middle" x="359.8769" y="-116.5" font-family="Helvetica,sans-Serif" font-size="10.00" fill="#000000">../../Stream/Chunk.h</text>
</a>
</g>
</g>
<!-- Node0&#45;&gt;Node2 -->
<g id="edge2" class="edge">
<title>Node0&#45;&gt;Node2</title>
<path fill="none" stroke="#191970" d="M505.8713,-275.1747C529.7563,-250.6183 571.1006,-199.7757 543.8769,-165 528.9005,-145.8691 469.9814,-133.6696 422.7962,-126.7704"/>
<polygon fill="#191970" stroke="#191970" points="423.0116,-123.2662 412.6211,-125.3366 422.0349,-130.1978 423.0116,-123.2662"/>
</g>
<!-- Node16 -->
<g id="node7" class="node">
<title>Node16</title>
<polygon fill="none" stroke="#bfbfbf" points="612.2612,-220.5 612.2612,-238.5 655.4926,-238.5 655.4926,-220.5 612.2612,-220.5"/>
<text text-anchor="middle" x="633.8769" y="-226.5" font-family="Helvetica,sans-Serif" font-size="10.00" fill="#000000">vector</text>
</g>
<!-- Node0&#45;&gt;Node16 -->
<g id="edge8" class="edge">
<title>Node0&#45;&gt;Node16</title>
<path fill="none" stroke="#191970" d="M524.4041,-275.4327C548.0964,-265.4918 579.6252,-252.263 602.7606,-242.5558"/>
<polygon fill="#191970" stroke="#191970" points="604.2475,-245.7276 612.1146,-238.6311 601.5392,-239.2727 604.2475,-245.7276"/>
</g>
<!-- Node17 -->
<g id="node8" class="node">
<title>Node17</title>
<polygon fill="none" stroke="#bfbfbf" points="673.1504,-220.5 673.1504,-238.5 708.6035,-238.5 708.6035,-220.5 673.1504,-220.5"/>
<text text-anchor="middle" x="690.8769" y="-226.5" font-family="Helvetica,sans-Serif" font-size="10.00" fill="#000000">map</text>
</g>
<!-- Node0&#45;&gt;Node17 -->
<g id="edge9" class="edge">
<title>Node0&#45;&gt;Node17</title>
<path fill="none" stroke="#191970" d="M542.5497,-275.4942C575.0042,-266.4712 617.9148,-254.1313 663.3085,-239.3846"/>
<polygon fill="#191970" stroke="#191970" points="664.6154,-242.6396 673.0299,-236.2017 662.4372,-235.9871 664.6154,-242.6396"/>
</g>
<!-- Node18 -->
<g id="node9" class="node">
<title>Node18</title>
<g id="a_node9"><a xlink:href="_water_8h.html" target="_top" xlink:title="Water.h">
<polygon fill="none" stroke="#000000" points="12.8286,-165.5 12.8286,-183.5 62.9253,-183.5 62.9253,-165.5 12.8286,-165.5"/>
<text text-anchor="middle" x="37.8769" y="-171.5" font-family="Helvetica,sans-Serif" font-size="10.00" fill="#000000">Water.h</text>
</a>
</g>
</g>
<!-- Node0&#45;&gt;Node18 -->
<g id="edge10" class="edge">
<title>Node0&#45;&gt;Node18</title>
<path fill="none" stroke="#191970" d="M433.4878,-275.5472C354.5541,-256.2458 207.8288,-219.9728 72.8083,-184.2023"/>
<polygon fill="#191970" stroke="#191970" points="73.6714,-180.8103 63.1081,-181.6279 71.8757,-187.576 73.6714,-180.8103"/>
</g>
<!-- Node20 -->
<g id="node11" class="node">
<title>Node20</title>
<g id="a_node11"><a xlink:href="_layer_8h.html" target="_top" xlink:title="Layer.h">
<polygon fill="none" stroke="#000000" points="335.4731,-220.5 335.4731,-238.5 384.2807,-238.5 384.2807,-220.5 335.4731,-220.5"/>
<text text-anchor="middle" x="359.8769" y="-226.5" font-family="Helvetica,sans-Serif" font-size="10.00" fill="#000000">Layer.h</text>
</a>
</g>
</g>
<!-- Node0&#45;&gt;Node20 -->
<g id="edge14" class="edge">
<title>Node0&#45;&gt;Node20</title>
<path fill="none" stroke="#191970" d="M460.1632,-275.4327C438.6528,-265.5806 410.0913,-252.4989 388.9516,-242.8167"/>
<polygon fill="#191970" stroke="#191970" points="390.3623,-239.6132 379.8131,-238.6311 387.4473,-245.9774 390.3623,-239.6132"/>
</g>
<!-- Node3 -->
<g id="node4" class="node">
<title>Node3</title>
<g id="a_node4"><a xlink:href="_file_8h.html" target="_top" xlink:title="../File/File.h">
<polygon fill="none" stroke="#ff0000" points="326.0371,-55.5 326.0371,-73.5 393.7168,-73.5 393.7168,-55.5 326.0371,-55.5"/>
<text text-anchor="middle" x="359.8769" y="-61.5" font-family="Helvetica,sans-Serif" font-size="10.00" fill="#000000">../File/File.h</text>
</a>
</g>
</g>
<!-- Node2&#45;&gt;Node3 -->
<g id="edge3" class="edge">
<title>Node2&#45;&gt;Node3</title>
<path fill="none" stroke="#191970" d="M359.8769,-110.4179C359.8769,-103.2164 359.8769,-92.8962 359.8769,-83.8632"/>
<polygon fill="#191970" stroke="#191970" points="363.377,-83.7794 359.8769,-73.7795 356.377,-83.7795 363.377,-83.7794"/>
</g>
<!-- Node7 -->
<g id="node5" class="node">
<title>Node7</title>
<polygon fill="none" stroke="#bfbfbf" points="297.7563,-.5 297.7563,-18.5 345.9975,-18.5 345.9975,-.5 297.7563,-.5"/>
<text text-anchor="middle" x="321.8769" y="-6.5" font-family="Helvetica,sans-Serif" font-size="10.00" fill="#000000">stdint.h</text>
</g>
<!-- Node2&#45;&gt;Node7 -->
<g id="edge6" class="edge">
<title>Node2&#45;&gt;Node7</title>
<path fill="none" stroke="#191970" d="M346.9646,-110.3491C336.6298,-102.1662 322.9026,-89.1487 316.8769,-74 311.1042,-59.4871 313.0785,-41.7087 316.0867,-28.495"/>
<polygon fill="#191970" stroke="#191970" points="319.5196,-29.2048 318.7094,-18.641 312.7551,-27.4044 319.5196,-29.2048"/>
</g>
<!-- Node8 -->
<g id="node6" class="node">
<title>Node8</title>
<g id="a_node6"><a xlink:href="_nolimits_8h.html" target="_top" xlink:title="../Nolimits.h">
<polygon fill="none" stroke="#ff0000" points="375.7612,-.5 375.7612,-18.5 443.9926,-18.5 443.9926,-.5 375.7612,-.5"/>
<text text-anchor="middle" x="409.8769" y="-6.5" font-family="Helvetica,sans-Serif" font-size="10.00" fill="#000000">../Nolimits.h</text>
</a>
</g>
</g>
<!-- Node2&#45;&gt;Node8 -->
<g id="edge7" class="edge">
<title>Node2&#45;&gt;Node8</title>
<path fill="none" stroke="#191970" d="M371.9715,-110.4994C382.0901,-102.2267 395.9505,-88.9984 402.8769,-74 409.3784,-59.9218 410.9116,-42.3317 410.9399,-29.0784"/>
<polygon fill="#191970" stroke="#191970" points="414.4298,-28.6484 410.6645,-18.7453 407.4323,-28.835 414.4298,-28.6484"/>
</g>
<!-- Node3&#45;&gt;Node7 -->
<g id="edge4" class="edge">
<title>Node3&#45;&gt;Node7</title>
<path fill="none" stroke="#191970" d="M353.602,-55.4179C348.2983,-47.7415 340.5465,-36.5217 334.0331,-27.0945"/>
<polygon fill="#191970" stroke="#191970" points="336.8521,-25.0173 328.2882,-18.7795 331.093,-28.9963 336.8521,-25.0173"/>
</g>
<!-- Node3&#45;&gt;Node8 -->
<g id="edge5" class="edge">
<title>Node3&#45;&gt;Node8</title>
<path fill="none" stroke="#191970" d="M368.1334,-55.4179C375.3277,-47.5041 385.9457,-35.8243 394.6723,-26.2251"/>
<polygon fill="#191970" stroke="#191970" points="397.3041,-28.5332 401.4411,-18.7795 392.1245,-23.8245 397.3041,-28.5332"/>
</g>
<!-- Node18&#45;&gt;Node1 -->
<g id="edge11" class="edge">
<title>Node18&#45;&gt;Node1</title>
<path fill="none" stroke="#191970" d="M61.1602,-165.4179C85.1581,-156.057 122.6646,-141.4268 148.8732,-131.2036"/>
<polygon fill="#191970" stroke="#191970" points="150.2686,-134.4162 158.313,-127.5214 147.7248,-127.8948 150.2686,-134.4162"/>
</g>
<!-- Node18&#45;&gt;Node2 -->
<g id="edge12" class="edge">
<title>Node18&#45;&gt;Node2</title>
<path fill="none" stroke="#191970" d="M63.0466,-167.1173C66.0107,-166.3519 69.0025,-165.6264 71.8769,-165 148.7457,-148.2478 238.4294,-135.0661 297.0361,-127.294"/>
<polygon fill="#191970" stroke="#191970" points="297.7879,-130.7254 307.247,-125.953 296.8764,-123.785 297.7879,-130.7254"/>
</g>
<!-- Node19 -->
<g id="node10" class="node">
<title>Node19</title>
<g id="a_node10"><a xlink:href="_terrain_map_8h.html" target="_top" xlink:title="TerrainMap.h">
<polygon fill="none" stroke="#000000" points="33.6972,-110.5 33.6972,-128.5 108.0566,-128.5 108.0566,-110.5 33.6972,-110.5"/>
<text text-anchor="middle" x="70.8769" y="-116.5" font-family="Helvetica,sans-Serif" font-size="10.00" fill="#000000">TerrainMap.h</text>
</a>
</g>
</g>
<!-- Node18&#45;&gt;Node19 -->
<g id="edge13" class="edge">
<title>Node18&#45;&gt;Node19</title>
<path fill="none" stroke="#191970" d="M43.3262,-165.4179C47.8845,-157.8207 54.5253,-146.7527 60.145,-137.3866"/>
<polygon fill="#191970" stroke="#191970" points="63.1655,-139.1552 65.3092,-128.7795 57.163,-135.5536 63.1655,-139.1552"/>
</g>
<!-- Node20&#45;&gt;Node1 -->
<g id="edge15" class="edge">
<title>Node20&#45;&gt;Node1</title>
<path fill="none" stroke="#191970" d="M335.1505,-225.5481C294.7949,-218.6235 217.313,-203.1915 197.8769,-184 185.9479,-172.221 181.4234,-153.3598 179.75,-139.069"/>
<polygon fill="#191970" stroke="#191970" points="183.2159,-138.5008 178.9322,-128.8106 176.238,-139.0571 183.2159,-138.5008"/>
</g>
<!-- Node20&#45;&gt;Node2 -->
<g id="edge31" class="edge">
<title>Node20&#45;&gt;Node2</title>
<path fill="none" stroke="#191970" d="M384.3298,-226.4644C426.3895,-220.6859 509.5916,-206.6249 526.8769,-184 557.5563,-143.8436 481.8982,-128.6776 422.6035,-122.9564"/>
<polygon fill="#191970" stroke="#191970" points="422.7722,-119.4576 412.5007,-122.0553 422.1502,-126.4299 422.7722,-119.4576"/>
</g>
<!-- Node21 -->
<g id="node12" class="node">
<title>Node21</title>
<g id="a_node12"><a xlink:href="_base_map_8h.html" target="_top" xlink:title="BaseMap.h">
<polygon fill="none" stroke="#000000" points="365.584,-165.5 365.584,-183.5 432.1699,-183.5 432.1699,-165.5 365.584,-165.5"/>
<text text-anchor="middle" x="398.8769" y="-171.5" font-family="Helvetica,sans-Serif" font-size="10.00" fill="#000000">BaseMap.h</text>
</a>
</g>
</g>
<!-- Node20&#45;&gt;Node21 -->
<g id="edge16" class="edge">
<title>Node20&#45;&gt;Node21</title>
<path fill="none" stroke="#191970" d="M366.317,-220.4179C371.7602,-212.7415 379.7161,-201.5217 386.4008,-192.0945"/>
<polygon fill="#191970" stroke="#191970" points="389.3677,-193.9613 392.2969,-183.7795 383.6575,-189.9123 389.3677,-193.9613"/>
</g>
<!-- Node22 -->
<g id="node13" class="node">
<title>Node22</title>
<g id="a_node13"><a xlink:href="_detail_map_8h.html" target="_top" xlink:title="DetailMap.h">
<polygon fill="none" stroke="#000000" points="207.1972,-165.5 207.1972,-183.5 276.5566,-183.5 276.5566,-165.5 207.1972,-165.5"/>
<text text-anchor="middle" x="241.8769" y="-171.5" font-family="Helvetica,sans-Serif" font-size="10.00" fill="#000000">DetailMap.h</text>
</a>
</g>
</g>
<!-- Node20&#45;&gt;Node22 -->
<g id="edge19" class="edge">
<title>Node20&#45;&gt;Node22</title>
<path fill="none" stroke="#191970" d="M340.3916,-220.4179C321.3465,-211.5409 292.1347,-197.9253 270.4607,-187.823"/>
<polygon fill="#191970" stroke="#191970" points="271.9336,-184.648 261.3912,-183.5956 268.9763,-190.9927 271.9336,-184.648"/>
</g>
<!-- Node23 -->
<g id="node14" class="node">
<title>Node23</title>
<g id="a_node14"><a xlink:href="_bump_map_8h.html" target="_top" xlink:title="BumpMap.h">
<polygon fill="none" stroke="#000000" points="80.9189,-165.5 80.9189,-183.5 150.8349,-183.5 150.8349,-165.5 80.9189,-165.5"/>
<text text-anchor="middle" x="115.8769" y="-171.5" font-family="Helvetica,sans-Serif" font-size="10.00" fill="#000000">BumpMap.h</text>
</a>
</g>
</g>
<!-- Node20&#45;&gt;Node23 -->
<g id="edge22" class="edge">
<title>Node20&#45;&gt;Node23</title>
<path fill="none" stroke="#191970" d="M335.1381,-223.9236C294.248,-214.7066 211.9928,-196.1655 160.6741,-184.5977"/>
<polygon fill="#191970" stroke="#191970" points="161.3692,-181.1667 150.8443,-182.382 159.8299,-187.9953 161.3692,-181.1667"/>
</g>
<!-- Node24 -->
<g id="node15" class="node">
<title>Node24</title>
<g id="a_node15"><a xlink:href="_auto_paint_8h.html" target="_top" xlink:title="AutoPaint.h">
<polygon fill="none" stroke="#000000" points="450.0249,-165.5 450.0249,-183.5 517.729,-183.5 517.729,-165.5 450.0249,-165.5"/>
<text text-anchor="middle" x="483.8769" y="-171.5" font-family="Helvetica,sans-Serif" font-size="10.00" fill="#000000">AutoPaint.h</text>
</a>
</g>
</g>
<!-- Node20&#45;&gt;Node24 -->
<g id="edge26" class="edge">
<title>Node20&#45;&gt;Node24</title>
<path fill="none" stroke="#191970" d="M380.353,-220.4179C400.4563,-211.5011 431.3391,-197.803 454.1457,-187.6873"/>
<polygon fill="#191970" stroke="#191970" points="455.6484,-190.8496 463.3704,-183.5956 452.8102,-184.4508 455.6484,-190.8496"/>
</g>
<!-- Node25 -->
<g id="node16" class="node">
<title>Node25</title>
<g id="a_node16"><a xlink:href="_extras_8h.html" target="_top" xlink:title="Extras.h">
<polygon fill="none" stroke="#000000" points="294.5371,-165.5 294.5371,-183.5 347.2168,-183.5 347.2168,-165.5 294.5371,-165.5"/>
<text text-anchor="middle" x="320.8769" y="-171.5" font-family="Helvetica,sans-Serif" font-size="10.00" fill="#000000">Extras.h</text>
</a>
</g>
</g>
<!-- Node20&#45;&gt;Node25 -->
<g id="edge28" class="edge">
<title>Node20&#45;&gt;Node25</title>
<path fill="none" stroke="#191970" d="M353.4369,-220.4179C347.9936,-212.7415 340.0378,-201.5217 333.353,-192.0945"/>
<polygon fill="#191970" stroke="#191970" points="336.0963,-189.9123 327.4569,-183.7795 330.3862,-193.9613 336.0963,-189.9123"/>
</g>
<!-- Node21&#45;&gt;Node1 -->
<g id="edge17" class="edge">
<title>Node21&#45;&gt;Node1</title>
<path fill="none" stroke="#191970" d="M365.4637,-166.1467C323.0017,-155.5312 250.3134,-137.3591 209.3203,-127.1108"/>
<polygon fill="#191970" stroke="#191970" points="209.9268,-123.6548 199.3764,-124.6249 208.229,-130.4458 209.9268,-123.6548"/>
</g>
<!-- Node21&#45;&gt;Node2 -->
<g id="edge18" class="edge">
<title>Node21&#45;&gt;Node2</title>
<path fill="none" stroke="#191970" d="M392.4369,-165.4179C386.9936,-157.7415 379.0378,-146.5217 372.353,-137.0945"/>
<polygon fill="#191970" stroke="#191970" points="375.0963,-134.9123 366.4569,-128.7795 369.3862,-138.9613 375.0963,-134.9123"/>
</g>
<!-- Node22&#45;&gt;Node1 -->
<g id="edge20" class="edge">
<title>Node22&#45;&gt;Node1</title>
<path fill="none" stroke="#191970" d="M231.4738,-165.4179C222.137,-157.2667 208.2236,-145.1201 197.0518,-135.3669"/>
<polygon fill="#191970" stroke="#191970" points="199.3411,-132.7194 189.5061,-128.7795 194.7375,-137.9927 199.3411,-132.7194"/>
</g>
<!-- Node22&#45;&gt;Node2 -->
<g id="edge21" class="edge">
<title>Node22&#45;&gt;Node2</title>
<path fill="none" stroke="#191970" d="M261.3622,-165.4179C280.4074,-156.5409 309.6191,-142.9253 331.2931,-132.823"/>
<polygon fill="#191970" stroke="#191970" points="332.7775,-135.9927 340.3627,-128.5956 329.8202,-129.648 332.7775,-135.9927"/>
</g>
<!-- Node23&#45;&gt;Node1 -->
<g id="edge23" class="edge">
<title>Node23&#45;&gt;Node1</title>
<path fill="none" stroke="#191970" d="M126.2801,-165.4179C135.6169,-157.2667 149.5302,-145.1201 160.7021,-135.3669"/>
<polygon fill="#191970" stroke="#191970" points="163.0163,-137.9927 168.2477,-128.7795 158.4127,-132.7194 163.0163,-137.9927"/>
</g>
<!-- Node23&#45;&gt;Node2 -->
<g id="edge25" class="edge">
<title>Node23&#45;&gt;Node2</title>
<path fill="none" stroke="#191970" d="M150.8362,-166.6198C192.4538,-157.2388 262.2682,-141.502 309.6576,-130.8199"/>
<polygon fill="#191970" stroke="#191970" points="310.7214,-134.168 319.707,-128.5547 309.1821,-127.3394 310.7214,-134.168"/>
</g>
<!-- Node23&#45;&gt;Node19 -->
<g id="edge24" class="edge">
<title>Node23&#45;&gt;Node19</title>
<path fill="none" stroke="#191970" d="M108.4461,-165.4179C102.1007,-157.6624 92.796,-146.29 85.0343,-136.8035"/>
<polygon fill="#191970" stroke="#191970" points="87.5105,-134.3027 78.4692,-128.7795 82.0928,-138.7354 87.5105,-134.3027"/>
</g>
<!-- Node24&#45;&gt;Node2 -->
<g id="edge27" class="edge">
<title>Node24&#45;&gt;Node2</title>
<path fill="none" stroke="#191970" d="M463.4008,-165.4179C443.2975,-156.5011 412.4147,-142.803 389.6082,-132.6873"/>
<polygon fill="#191970" stroke="#191970" points="390.9437,-129.4508 380.3834,-128.5956 388.1055,-135.8496 390.9437,-129.4508"/>
</g>
<!-- Node25&#45;&gt;Node1 -->
<g id="edge29" class="edge">
<title>Node25&#45;&gt;Node1</title>
<path fill="none" stroke="#191970" d="M297.4285,-165.4179C273.1208,-156.0029 235.0508,-141.2575 208.6369,-131.0267"/>
<polygon fill="#191970" stroke="#191970" points="209.7263,-127.6954 199.1372,-127.3473 207.198,-134.2229 209.7263,-127.6954"/>
</g>
<!-- Node25&#45;&gt;Node2 -->
<g id="edge30" class="edge">
<title>Node25&#45;&gt;Node2</title>
<path fill="none" stroke="#191970" d="M327.317,-165.4179C332.7602,-157.7415 340.7161,-146.5217 347.4008,-137.0945"/>
<polygon fill="#191970" stroke="#191970" points="350.3677,-138.9613 353.2969,-128.7795 344.6575,-134.9123 350.3677,-138.9613"/>
</g>
</g>
</svg>
