<?xml version="1.0" encoding="UTF-8" standalone="no"?>
<!DOCTYPE svg PUBLIC "-//W3C//DTD SVG 1.1//EN"
 "http://www.w3.org/Graphics/SVG/1.1/DTD/svg11.dtd">
<!-- Generated by graphviz version 2.40.1 (20161225.0304)
 -->
<!-- Title: libnolimits/NL2/Terrain/Terrain.h Pages: 1 -->
<svg width="259pt" height="157pt"
 viewBox="0.00 0.00 258.82 157.00" xmlns="http://www.w3.org/2000/svg" xmlns:xlink="http://www.w3.org/1999/xlink">
<g id="graph0" class="graph" transform="scale(1 1) rotate(0) translate(4 153)">
<title>libnolimits/NL2/Terrain/Terrain.h</title>
<!-- Node27 -->
<g id="node1" class="node">
<title>Node27</title>
<polygon fill="#bfbfbf" stroke="#000000" points="70.4482,-120.5 70.4482,-148.5 184.8174,-148.5 184.8174,-120.5 70.4482,-120.5"/>
<text text-anchor="start" x="78.4482" y="-136.5" font-family="Helvetica,sans-Serif" font-size="10.00" fill="#000000">libnolimits/NL2/Terrain</text>
<text text-anchor="middle" x="127.6328" y="-126.5" font-family="Helvetica,sans-Serif" font-size="10.00" fill="#000000">/Terrain.h</text>
</g>
<!-- Node28 -->
<g id="node2" class="node">
<title>Node28</title>
<g id="a_node2"><a xlink:href="_park_8h.html" target="_top" xlink:title="libnolimits/NL2/Park.h">
<polygon fill="none" stroke="#000000" points="5.2808,-60.5 5.2808,-78.5 117.9849,-78.5 117.9849,-60.5 5.2808,-60.5"/>
<text text-anchor="middle" x="61.6328" y="-66.5" font-family="Helvetica,sans-Serif" font-size="10.00" fill="#000000">libnolimits/NL2/Park.h</text>
</a>
</g>
</g>
<!-- Node27&#45;&gt;Node28 -->
<g id="edge1" class="edge">
<title>Node27&#45;&gt;Node28</title>
<path fill="none" stroke="#191970" d="M105.8907,-113.0873C93.9953,-101.3721 79.8826,-87.4732 70.8467,-78.5743"/>
<polygon fill="#191970" stroke="#191970" points="103.731,-115.8728 113.3118,-120.396 108.6429,-110.8854 103.731,-115.8728"/>
</g>
<!-- Node30 -->
<g id="node4" class="node">
<title>Node30</title>
<g id="a_node4"><a xlink:href="_terrain_8cpp.html" target="_top" xlink:title="libnolimits/NL2/Terrain\l/Terrain.cpp">
<polygon fill="none" stroke="#000000" points="136.4482,-55.5 136.4482,-83.5 250.8174,-83.5 250.8174,-55.5 136.4482,-55.5"/>
<text text-anchor="start" x="144.4482" y="-71.5" font-family="Helvetica,sans-Serif" font-size="10.00" fill="#000000">libnolimits/NL2/Terrain</text>
<text text-anchor="middle" x="193.6328" y="-61.5" font-family="Helvetica,sans-Serif" font-size="10.00" fill="#000000">/Terrain.cpp</text>
</a>
</g>
</g>
<!-- Node27&#45;&gt;Node30 -->
<g id="edge3" class="edge">
<title>Node27&#45;&gt;Node30</title>
<path fill="none" stroke="#191970" d="M149.1473,-113.3115C159.0476,-103.5612 170.5236,-92.259 179.3397,-83.5765"/>
<polygon fill="#191970" stroke="#191970" points="146.6228,-110.8853 141.9538,-120.396 151.5346,-115.8728 146.6228,-110.8853"/>
</g>
<!-- Node29 -->
<g id="node3" class="node">
<title>Node29</title>
<g id="a_node3"><a xlink:href="_park_8cpp.html" target="_top" xlink:title="libnolimits/NL2/Park.cpp">
<polygon fill="none" stroke="#000000" points="0,-.5 0,-18.5 123.2656,-18.5 123.2656,-.5 0,-.5"/>
<text text-anchor="middle" x="61.6328" y="-6.5" font-family="Helvetica,sans-Serif" font-size="10.00" fill="#000000">libnolimits/NL2/Park.cpp</text>
</a>
</g>
</g>
<!-- Node28&#45;&gt;Node29 -->
<g id="edge2" class="edge">
<title>Node28&#45;&gt;Node29</title>
<path fill="none" stroke="#191970" d="M61.6328,-50.3734C61.6328,-39.7812 61.6328,-27.0976 61.6328,-18.6985"/>
<polygon fill="#191970" stroke="#191970" points="58.1329,-50.3873 61.6328,-60.3873 65.1329,-50.3873 58.1329,-50.3873"/>
</g>
</g>
</svg>
