<?xml version="1.0" encoding="UTF-8" standalone="no"?>
<!DOCTYPE svg PUBLIC "-//W3C//DTD SVG 1.1//EN"
 "http://www.w3.org/Graphics/SVG/1.1/DTD/svg11.dtd">
<!-- Generated by graphviz version 2.40.1 (20161225.0304)
 -->
<!-- Title: libnolimits/NL2/Coaster/Track/TransferTable.h Pages: 1 -->
<svg width="280pt" height="257pt"
 viewBox="0.00 0.00 279.80 257.00" xmlns="http://www.w3.org/2000/svg" xmlns:xlink="http://www.w3.org/1999/xlink">
<g id="graph0" class="graph" transform="scale(1 1) rotate(0) translate(4 253)">
<title>libnolimits/NL2/Coaster/Track/TransferTable.h</title>
<!-- Node0 -->
<g id="node1" class="node">
<title>Node0</title>
<polygon fill="#bfbfbf" stroke="#000000" points="85.207,-220.5 85.207,-248.5 204.0244,-248.5 204.0244,-220.5 85.207,-220.5"/>
<text text-anchor="start" x="93.207" y="-236.5" font-family="Helvetica,sans-Serif" font-size="10.00" fill="#000000">libnolimits/NL2/Coaster</text>
<text text-anchor="middle" x="144.6157" y="-226.5" font-family="Helvetica,sans-Serif" font-size="10.00" fill="#000000">/Track/TransferTable.h</text>
</g>
<!-- Node1 -->
<g id="node2" class="node">
<title>Node1</title>
<polygon fill="none" stroke="#bfbfbf" points="0,-110.5 0,-128.5 43.2314,-128.5 43.2314,-110.5 0,-110.5"/>
<text text-anchor="middle" x="21.6157" y="-116.5" font-family="Helvetica,sans-Serif" font-size="10.00" fill="#000000">vector</text>
</g>
<!-- Node0&#45;&gt;Node1 -->
<g id="edge1" class="edge">
<title>Node0&#45;&gt;Node1</title>
<path fill="none" stroke="#191970" d="M113.3747,-220.3717C96.3814,-211.6113 75.7953,-199.1411 60.6157,-184 47.1963,-170.6146 36.4773,-151.7279 29.6988,-137.8502"/>
<polygon fill="#191970" stroke="#191970" points="32.8703,-136.3696 25.4773,-128.7806 26.5241,-139.3236 32.8703,-136.3696"/>
</g>
<!-- Node2 -->
<g id="node3" class="node">
<title>Node2</title>
<g id="a_node3"><a xlink:href="_special_track_8h.html" target="_top" xlink:title="SpecialTrack.h">
<polygon fill="none" stroke="#000000" points="69.73,-165.5 69.73,-183.5 151.5015,-183.5 151.5015,-165.5 69.73,-165.5"/>
<text text-anchor="middle" x="110.6157" y="-171.5" font-family="Helvetica,sans-Serif" font-size="10.00" fill="#000000">SpecialTrack.h</text>
</a>
</g>
</g>
<!-- Node0&#45;&gt;Node2 -->
<g id="edge2" class="edge">
<title>Node0&#45;&gt;Node2</title>
<path fill="none" stroke="#191970" d="M136.5582,-220.2808C131.8281,-211.9336 125.8067,-201.3076 120.756,-192.3946"/>
<polygon fill="#191970" stroke="#191970" points="123.7387,-190.5589 115.7634,-183.5842 117.6485,-194.01 123.7387,-190.5589"/>
</g>
<!-- Node20 -->
<g id="node6" class="node">
<title>Node20</title>
<g id="a_node6"><a xlink:href="_n_l2_2_coaster_2_track_2_section_2_section_8h.html" target="_top" xlink:title="Section/Section.h">
<polygon fill="none" stroke="#000000" points="137.7021,-55.5 137.7021,-73.5 231.5293,-73.5 231.5293,-55.5 137.7021,-55.5"/>
<text text-anchor="middle" x="184.6157" y="-61.5" font-family="Helvetica,sans-Serif" font-size="10.00" fill="#000000">Section/Section.h</text>
</a>
</g>
</g>
<!-- Node0&#45;&gt;Node20 -->
<g id="edge11" class="edge">
<title>Node0&#45;&gt;Node20</title>
<path fill="none" stroke="#191970" d="M149.5126,-220.4698C152.9153,-210.4017 157.3989,-196.4673 160.6157,-184 169.6569,-148.9593 177.3289,-107.4066 181.4262,-83.6796"/>
<polygon fill="#191970" stroke="#191970" points="184.9193,-84.015 183.1408,-73.5705 178.0178,-82.8444 184.9193,-84.015"/>
</g>
<!-- Node21 -->
<g id="node7" class="node">
<title>Node21</title>
<g id="a_node7"><a xlink:href="_segment_8h.html" target="_top" xlink:title="Segment.h">
<polygon fill="none" stroke="#ff0000" points="207.4336,-110.5 207.4336,-128.5 271.7979,-128.5 271.7979,-110.5 207.4336,-110.5"/>
<text text-anchor="middle" x="239.6157" y="-116.5" font-family="Helvetica,sans-Serif" font-size="10.00" fill="#000000">Segment.h</text>
</a>
</g>
</g>
<!-- Node0&#45;&gt;Node21 -->
<g id="edge12" class="edge">
<title>Node0&#45;&gt;Node21</title>
<path fill="none" stroke="#191970" d="M159.37,-220.4565C169.4255,-210.612 182.8209,-196.949 193.6157,-184 206.2304,-168.868 219.1293,-150.4772 228.0454,-137.2114"/>
<polygon fill="#191970" stroke="#191970" points="231.1615,-138.8455 233.7728,-128.5774 225.3282,-134.9759 231.1615,-138.8455"/>
</g>
<!-- Node2&#45;&gt;Node1 -->
<g id="edge3" class="edge">
<title>Node2&#45;&gt;Node1</title>
<path fill="none" stroke="#191970" d="M95.9192,-165.4179C82.1343,-156.8992 61.288,-144.0166 45.1809,-134.0627"/>
<polygon fill="#191970" stroke="#191970" points="46.6808,-130.8753 36.3341,-128.5956 43.0009,-136.83 46.6808,-130.8753"/>
</g>
<!-- Node3 -->
<g id="node4" class="node">
<title>Node3</title>
<g id="a_node4"><a xlink:href="_chunk_8h.html" target="_top" xlink:title="../../../Stream/Chunk.h">
<polygon fill="none" stroke="#ff0000" points="89.9854,-.5 89.9854,-18.5 203.2461,-18.5 203.2461,-.5 89.9854,-.5"/>
<text text-anchor="middle" x="146.6157" y="-6.5" font-family="Helvetica,sans-Serif" font-size="10.00" fill="#000000">../../../Stream/Chunk.h</text>
</a>
</g>
</g>
<!-- Node2&#45;&gt;Node3 -->
<g id="edge4" class="edge">
<title>Node2&#45;&gt;Node3</title>
<path fill="none" stroke="#191970" d="M104.457,-165.3912C96.826,-152.9682 85.4272,-129.9711 90.6157,-110 98.8597,-78.2683 119.5539,-45.9117 133.3436,-26.7766"/>
<polygon fill="#191970" stroke="#191970" points="136.331,-28.6238 139.4737,-18.5058 130.7073,-24.4556 136.331,-28.6238"/>
</g>
<!-- Node19 -->
<g id="node5" class="node">
<title>Node19</title>
<g id="a_node5"><a xlink:href="_n_l2_2_coaster_2_track_2_track_8h.html" target="_top" xlink:title="Track.h">
<polygon fill="none" stroke="#000000" points="99.1289,-110.5 99.1289,-128.5 148.1025,-128.5 148.1025,-110.5 99.1289,-110.5"/>
<text text-anchor="middle" x="123.6157" y="-116.5" font-family="Helvetica,sans-Serif" font-size="10.00" fill="#000000">Track.h</text>
</a>
</g>
</g>
<!-- Node2&#45;&gt;Node19 -->
<g id="edge5" class="edge">
<title>Node2&#45;&gt;Node19</title>
<path fill="none" stroke="#191970" d="M112.7624,-165.4179C114.4833,-158.1372 116.9576,-147.669 119.1092,-138.5659"/>
<polygon fill="#191970" stroke="#191970" points="122.5282,-139.3164 121.4224,-128.7795 115.7159,-137.7062 122.5282,-139.3164"/>
</g>
<!-- Node2&#45;&gt;Node21 -->
<g id="edge9" class="edge">
<title>Node2&#45;&gt;Node21</title>
<path fill="none" stroke="#191970" d="M131.9174,-165.4179C152.9247,-156.4613 185.2466,-142.6806 209.0029,-132.552"/>
<polygon fill="#191970" stroke="#191970" points="210.4562,-135.7372 218.2823,-128.5956 207.7108,-129.2981 210.4562,-135.7372"/>
</g>
<!-- Node19&#45;&gt;Node3 -->
<g id="edge6" class="edge">
<title>Node19&#45;&gt;Node3</title>
<path fill="none" stroke="#191970" d="M123.4718,-110.1829C123.4715,-97.5239 124.1662,-74.2602 128.6157,-55 130.74,-45.8048 134.4104,-36.0217 137.8849,-27.8926"/>
<polygon fill="#191970" stroke="#191970" points="141.1328,-29.2041 142.0501,-18.649 134.7508,-26.3283 141.1328,-29.2041"/>
</g>
<!-- Node19&#45;&gt;Node20 -->
<g id="edge7" class="edge">
<title>Node19&#45;&gt;Node20</title>
<path fill="none" stroke="#191970" d="M133.6886,-110.4179C142.6412,-102.3458 155.9395,-90.3556 166.702,-80.6517"/>
<polygon fill="#191970" stroke="#191970" points="169.2408,-83.0753 174.324,-73.7795 164.5533,-77.8764 169.2408,-83.0753"/>
</g>
<!-- Node20&#45;&gt;Node3 -->
<g id="edge8" class="edge">
<title>Node20&#45;&gt;Node3</title>
<path fill="none" stroke="#191970" d="M178.3408,-55.4179C173.0371,-47.7415 165.2853,-36.5217 158.7719,-27.0945"/>
<polygon fill="#191970" stroke="#191970" points="161.5909,-25.0173 153.027,-18.7795 155.8318,-28.9963 161.5909,-25.0173"/>
</g>
<!-- Node21&#45;&gt;Node3 -->
<g id="edge10" class="edge">
<title>Node21&#45;&gt;Node3</title>
<path fill="none" stroke="#191970" d="M242.659,-110.3371C246.4792,-97.0288 251.3237,-72.0796 240.6157,-55 230.8744,-39.4622 214.1562,-29.0996 197.4953,-22.2483"/>
<polygon fill="#191970" stroke="#191970" points="198.3379,-18.8269 187.7454,-18.6075 195.8891,-25.3846 198.3379,-18.8269"/>
</g>
</g>
</svg>
