<?xml version="1.0" encoding="UTF-8" standalone="no"?>
<!DOCTYPE svg PUBLIC "-//W3C//DTD SVG 1.1//EN"
 "http://www.w3.org/Graphics/SVG/1.1/DTD/svg11.dtd">
<!-- Generated by graphviz version 2.40.1 (20161225.0304)
 -->
<!-- Title: libnolimits/NL2/Coaster/Train.cpp Pages: 1 -->
<svg width="237pt" height="257pt"
 viewBox="0.00 0.00 236.64 257.00" xmlns="http://www.w3.org/2000/svg" xmlns:xlink="http://www.w3.org/1999/xlink">
<g id="graph0" class="graph" transform="scale(1 1) rotate(0) translate(4 253)">
<title>libnolimits/NL2/Coaster/Train.cpp</title>
<!-- Node0 -->
<g id="node1" class="node">
<title>Node0</title>
<polygon fill="#bfbfbf" stroke="#000000" points="107.0542,-220.5 107.0542,-248.5 225.8716,-248.5 225.8716,-220.5 107.0542,-220.5"/>
<text text-anchor="start" x="115.0542" y="-236.5" font-family="Helvetica,sans-Serif" font-size="10.00" fill="#000000">libnolimits/NL2/Coaster</text>
<text text-anchor="middle" x="166.4629" y="-226.5" font-family="Helvetica,sans-Serif" font-size="10.00" fill="#000000">/Train.cpp</text>
</g>
<!-- Node1 -->
<g id="node2" class="node">
<title>Node1</title>
<g id="a_node2"><a xlink:href="_train_8h.html" target="_top" xlink:title="Train.h">
<polygon fill="none" stroke="#000000" points="109.0845,-165.5 109.0845,-183.5 155.8413,-183.5 155.8413,-165.5 109.0845,-165.5"/>
<text text-anchor="middle" x="132.4629" y="-171.5" font-family="Helvetica,sans-Serif" font-size="10.00" fill="#000000">Train.h</text>
</a>
</g>
</g>
<!-- Node0&#45;&gt;Node1 -->
<g id="edge1" class="edge">
<title>Node0&#45;&gt;Node1</title>
<path fill="none" stroke="#191970" d="M158.4054,-220.2808C153.6752,-211.9336 147.6539,-201.3076 142.6032,-192.3946"/>
<polygon fill="#191970" stroke="#191970" points="145.5859,-190.5589 137.6106,-183.5842 139.4957,-194.01 145.5859,-190.5589"/>
</g>
<!-- Node11 -->
<g id="node7" class="node">
<title>Node11</title>
<polygon fill="none" stroke="#bfbfbf" points="174.2905,-165.5 174.2905,-183.5 228.6353,-183.5 228.6353,-165.5 174.2905,-165.5"/>
<text text-anchor="middle" x="201.4629" y="-171.5" font-family="Helvetica,sans-Serif" font-size="10.00" fill="#000000">iostream</text>
</g>
<!-- Node0&#45;&gt;Node11 -->
<g id="edge11" class="edge">
<title>Node0&#45;&gt;Node11</title>
<path fill="none" stroke="#191970" d="M174.7574,-220.2808C179.6266,-211.9336 185.8251,-201.3076 191.0244,-192.3946"/>
<polygon fill="#191970" stroke="#191970" points="194.1483,-193.9856 196.1638,-183.5842 188.1018,-190.4584 194.1483,-193.9856"/>
</g>
<!-- Node2 -->
<g id="node3" class="node">
<title>Node2</title>
<g id="a_node3"><a xlink:href="_chunk_8h.html" target="_top" xlink:title="../../Stream/Chunk.h">
<polygon fill="none" stroke="#ff0000" points="0,-.5 0,-18.5 104.9258,-18.5 104.9258,-.5 0,-.5"/>
<text text-anchor="middle" x="52.4629" y="-6.5" font-family="Helvetica,sans-Serif" font-size="10.00" fill="#000000">../../Stream/Chunk.h</text>
</a>
</g>
</g>
<!-- Node1&#45;&gt;Node2 -->
<g id="edge2" class="edge">
<title>Node1&#45;&gt;Node2</title>
<path fill="none" stroke="#191970" d="M111.2811,-165.4335C96.4555,-157.9191 77.5609,-145.752 67.4629,-129 48.6476,-97.7864 48.5002,-53.6785 50.3223,-28.7057"/>
<polygon fill="#191970" stroke="#191970" points="53.8126,-28.9705 51.238,-18.6933 46.8417,-28.3329 53.8126,-28.9705"/>
</g>
<!-- Node17 -->
<g id="node4" class="node">
<title>Node17</title>
<g id="a_node4"><a xlink:href="_individual_color_8h.html" target="_top" xlink:title="IndividualColor.h">
<polygon fill="none" stroke="#000000" points="118.4927,-55.5 118.4927,-73.5 208.4331,-73.5 208.4331,-55.5 118.4927,-55.5"/>
<text text-anchor="middle" x="163.4629" y="-61.5" font-family="Helvetica,sans-Serif" font-size="10.00" fill="#000000">IndividualColor.h</text>
</a>
</g>
</g>
<!-- Node1&#45;&gt;Node17 -->
<g id="edge3" class="edge">
<title>Node1&#45;&gt;Node17</title>
<path fill="none" stroke="#191970" d="M134.9998,-165.4982C140.0408,-147.6108 151.4125,-107.2594 158.1571,-83.3271"/>
<polygon fill="#191970" stroke="#191970" points="161.5472,-84.2006 160.891,-73.6261 154.8096,-82.3018 161.5472,-84.2006"/>
</g>
<!-- Node18 -->
<g id="node5" class="node">
<title>Node18</title>
<polygon fill="none" stroke="#bfbfbf" points="141.8472,-.5 141.8472,-18.5 185.0786,-18.5 185.0786,-.5 141.8472,-.5"/>
<text text-anchor="middle" x="163.4629" y="-6.5" font-family="Helvetica,sans-Serif" font-size="10.00" fill="#000000">vector</text>
</g>
<!-- Node1&#45;&gt;Node18 -->
<g id="edge10" class="edge">
<title>Node1&#45;&gt;Node18</title>
<path fill="none" stroke="#191970" d="M144.4568,-165.2779C164.1874,-149.2561 202.7692,-114.1269 217.4629,-74 220.3665,-66.0705 221.0238,-62.6569 217.4629,-55 211.5481,-42.2818 200.134,-31.8434 189.3177,-24.1874"/>
<polygon fill="#191970" stroke="#191970" points="191.1683,-21.2155 180.8878,-18.6536 187.3268,-27.0673 191.1683,-21.2155"/>
</g>
<!-- Node19 -->
<g id="node6" class="node">
<title>Node19</title>
<g id="a_node6"><a xlink:href="_car_8h.html" target="_top" xlink:title="Car.h">
<polygon fill="none" stroke="#000000" points="76.5098,-110.5 76.5098,-128.5 116.416,-128.5 116.416,-110.5 76.5098,-110.5"/>
<text text-anchor="middle" x="96.4629" y="-116.5" font-family="Helvetica,sans-Serif" font-size="10.00" fill="#000000">Car.h</text>
</a>
</g>
</g>
<!-- Node1&#45;&gt;Node19 -->
<g id="edge6" class="edge">
<title>Node1&#45;&gt;Node19</title>
<path fill="none" stroke="#191970" d="M126.5182,-165.4179C121.5455,-157.8207 114.301,-146.7527 108.1705,-137.3866"/>
<polygon fill="#191970" stroke="#191970" points="110.9418,-135.2297 102.5367,-128.7795 105.0849,-139.0633 110.9418,-135.2297"/>
</g>
<!-- Node17&#45;&gt;Node2 -->
<g id="edge4" class="edge">
<title>Node17&#45;&gt;Node2</title>
<path fill="none" stroke="#191970" d="M145.1335,-55.4179C127.3788,-46.6205 100.2314,-33.1691 79.9013,-23.0956"/>
<polygon fill="#191970" stroke="#191970" points="81.3338,-19.8994 70.8195,-18.5956 78.2259,-26.1716 81.3338,-19.8994"/>
</g>
<!-- Node17&#45;&gt;Node18 -->
<g id="edge5" class="edge">
<title>Node17&#45;&gt;Node18</title>
<path fill="none" stroke="#191970" d="M163.4629,-55.4179C163.4629,-48.2164 163.4629,-37.8962 163.4629,-28.8632"/>
<polygon fill="#191970" stroke="#191970" points="166.963,-28.7794 163.4629,-18.7795 159.963,-28.7795 166.963,-28.7794"/>
</g>
<!-- Node19&#45;&gt;Node2 -->
<g id="edge7" class="edge">
<title>Node19&#45;&gt;Node2</title>
<path fill="none" stroke="#191970" d="M92.1661,-110.1562C88.0032,-101.0052 81.5853,-86.6345 76.4629,-74 70.2903,-58.7752 63.8247,-41.2978 59.1616,-28.3797"/>
<polygon fill="#191970" stroke="#191970" points="62.3802,-26.9857 55.7146,-18.7504 55.7897,-29.345 62.3802,-26.9857"/>
</g>
<!-- Node19&#45;&gt;Node17 -->
<g id="edge8" class="edge">
<title>Node19&#45;&gt;Node17</title>
<path fill="none" stroke="#191970" d="M107.5266,-110.4179C117.4562,-102.2667 132.2529,-90.1201 144.1341,-80.3669"/>
<polygon fill="#191970" stroke="#191970" points="146.6503,-82.8297 152.1588,-73.7795 142.2088,-77.4192 146.6503,-82.8297"/>
</g>
<!-- Node19&#45;&gt;Node18 -->
<g id="edge9" class="edge">
<title>Node19&#45;&gt;Node18</title>
<path fill="none" stroke="#191970" d="M96.4492,-110.4988C96.8141,-97.3919 98.9841,-72.6911 109.4629,-55 116.759,-42.6821 128.6357,-32.1341 139.3956,-24.3045"/>
<polygon fill="#191970" stroke="#191970" points="141.4086,-27.1681 147.6766,-18.6262 137.4499,-21.3949 141.4086,-27.1681"/>
</g>
</g>
</svg>
