<?xml version="1.0" encoding="UTF-8" standalone="no"?>
<!DOCTYPE svg PUBLIC "-//W3C//DTD SVG 1.1//EN"
 "http://www.w3.org/Graphics/SVG/1.1/DTD/svg11.dtd">
<!-- Generated by graphviz version 2.40.1 (20161225.0304)
 -->
<!-- Title: libnolimits/NL2/Coaster/Track/Section/Transport.cpp Pages: 1 -->
<svg width="176pt" height="212pt"
 viewBox="0.00 0.00 175.67 212.00" xmlns="http://www.w3.org/2000/svg" xmlns:xlink="http://www.w3.org/1999/xlink">
<g id="graph0" class="graph" transform="scale(1 1) rotate(0) translate(4 208)">
<title>libnolimits/NL2/Coaster/Track/Section/Transport.cpp</title>
<!-- Node0 -->
<g id="node1" class="node">
<title>Node0</title>
<polygon fill="#bfbfbf" stroke="#000000" points="24.0215,-175.5 24.0215,-203.5 167.6729,-203.5 167.6729,-175.5 24.0215,-175.5"/>
<text text-anchor="start" x="32.0215" y="-191.5" font-family="Helvetica,sans-Serif" font-size="10.00" fill="#000000">libnolimits/NL2/Coaster</text>
<text text-anchor="middle" x="95.8472" y="-181.5" font-family="Helvetica,sans-Serif" font-size="10.00" fill="#000000">/Track/Section/Transport.cpp</text>
</g>
<!-- Node1 -->
<g id="node2" class="node">
<title>Node1</title>
<g id="a_node2"><a xlink:href="_transport_8h.html" target="_top" xlink:title="Transport.h">
<polygon fill="none" stroke="#000000" points="23.4639,-120.5 23.4639,-138.5 90.2305,-138.5 90.2305,-120.5 23.4639,-120.5"/>
<text text-anchor="middle" x="56.8472" y="-126.5" font-family="Helvetica,sans-Serif" font-size="10.00" fill="#000000">Transport.h</text>
</a>
</g>
</g>
<!-- Node0&#45;&gt;Node1 -->
<g id="edge1" class="edge">
<title>Node0&#45;&gt;Node1</title>
<path fill="none" stroke="#191970" d="M86.6047,-175.2808C81.1213,-166.8448 74.125,-156.0813 68.2942,-147.1107"/>
<polygon fill="#191970" stroke="#191970" points="71.1364,-145.0612 62.7519,-138.5842 65.2673,-148.8761 71.1364,-145.0612"/>
</g>
<!-- Node12 -->
<g id="node5" class="node">
<title>Node12</title>
<polygon fill="none" stroke="#bfbfbf" points="108.6748,-120.5 108.6748,-138.5 163.0195,-138.5 163.0195,-120.5 108.6748,-120.5"/>
<text text-anchor="middle" x="135.8472" y="-126.5" font-family="Helvetica,sans-Serif" font-size="10.00" fill="#000000">iostream</text>
</g>
<!-- Node0&#45;&gt;Node12 -->
<g id="edge5" class="edge">
<title>Node0&#45;&gt;Node12</title>
<path fill="none" stroke="#191970" d="M105.3266,-175.2808C110.9507,-166.8448 118.1263,-156.0813 124.1067,-147.1107"/>
<polygon fill="#191970" stroke="#191970" points="127.1562,-148.8462 129.791,-138.5842 121.3318,-144.9632 127.1562,-148.8462"/>
</g>
<!-- Node2 -->
<g id="node3" class="node">
<title>Node2</title>
<g id="a_node3"><a xlink:href="_section_8h.html" target="_top" xlink:title="Section.h">
<polygon fill="none" stroke="#000000" points="0,-65.5 0,-83.5 57.6943,-83.5 57.6943,-65.5 0,-65.5"/>
<text text-anchor="middle" x="28.8472" y="-71.5" font-family="Helvetica,sans-Serif" font-size="10.00" fill="#000000">Section.h</text>
</a>
</g>
</g>
<!-- Node1&#45;&gt;Node2 -->
<g id="edge2" class="edge">
<title>Node1&#45;&gt;Node2</title>
<path fill="none" stroke="#191970" d="M52.2235,-120.4179C48.4365,-112.9789 42.9553,-102.2123 38.2522,-92.9742"/>
<polygon fill="#191970" stroke="#191970" points="41.2272,-91.1032 33.5713,-83.7795 34.9891,-94.279 41.2272,-91.1032"/>
</g>
<!-- Node3 -->
<g id="node4" class="node">
<title>Node3</title>
<g id="a_node4"><a xlink:href="_chunk_8h.html" target="_top" xlink:title="../../../../Stream\l/Chunk.h">
<polygon fill="none" stroke="#ff0000" points="16.0615,-.5 16.0615,-28.5 97.6328,-28.5 97.6328,-.5 16.0615,-.5"/>
<text text-anchor="start" x="24.0615" y="-16.5" font-family="Helvetica,sans-Serif" font-size="10.00" fill="#000000">../../../../Stream</text>
<text text-anchor="middle" x="56.8472" y="-6.5" font-family="Helvetica,sans-Serif" font-size="10.00" fill="#000000">/Chunk.h</text>
</a>
</g>
</g>
<!-- Node1&#45;&gt;Node3 -->
<g id="edge4" class="edge">
<title>Node1&#45;&gt;Node3</title>
<path fill="none" stroke="#191970" d="M59.515,-120.1868C61.9817,-111.0585 65.4676,-96.7041 66.8472,-84 68.4983,-68.7954 66.1292,-51.8013 63.2839,-38.4235"/>
<polygon fill="#191970" stroke="#191970" points="66.6638,-37.5066 60.9675,-28.5734 59.8497,-39.1091 66.6638,-37.5066"/>
</g>
<!-- Node2&#45;&gt;Node3 -->
<g id="edge3" class="edge">
<title>Node2&#45;&gt;Node3</title>
<path fill="none" stroke="#191970" d="M33.0998,-65.3873C36.4961,-58.1095 41.4117,-47.5759 45.8907,-37.9782"/>
<polygon fill="#191970" stroke="#191970" points="49.0943,-39.3896 50.1516,-28.8477 42.751,-36.4294 49.0943,-39.3896"/>
</g>
</g>
</svg>
