<?xml version="1.0" encoding="UTF-8" standalone="no"?>
<!DOCTYPE svg PUBLIC "-//W3C//DTD SVG 1.1//EN"
 "http://www.w3.org/Graphics/SVG/1.1/DTD/svg11.dtd">
<!-- Generated by graphviz version 2.40.1 (20161225.0304)
 -->
<!-- Title: libnolimits/NL2/Coaster/Track/TransferTable.h Pages: 1 -->
<svg width="274pt" height="102pt"
 viewBox="0.00 0.00 274.19 102.00" xmlns="http://www.w3.org/2000/svg" xmlns:xlink="http://www.w3.org/1999/xlink">
<g id="graph0" class="graph" transform="scale(1 1) rotate(0) translate(4 98)">
<title>libnolimits/NL2/Coaster/Track/TransferTable.h</title>
<!-- Node23 -->
<g id="node1" class="node">
<title>Node23</title>
<polygon fill="#bfbfbf" stroke="#000000" points="72.853,-65.5 72.853,-93.5 191.6704,-93.5 191.6704,-65.5 72.853,-65.5"/>
<text text-anchor="start" x="80.853" y="-81.5" font-family="Helvetica,sans-Serif" font-size="10.00" fill="#000000">libnolimits/NL2/Coaster</text>
<text text-anchor="middle" x="132.2617" y="-71.5" font-family="Helvetica,sans-Serif" font-size="10.00" fill="#000000">/Track/TransferTable.h</text>
</g>
<!-- Node24 -->
<g id="node2" class="node">
<title>Node24</title>
<g id="a_node2"><a xlink:href="_special_track_8cpp.html" target="_top" xlink:title="libnolimits/NL2/Coaster\l/Track/SpecialTrack.cpp">
<polygon fill="none" stroke="#000000" points="0,-.5 0,-28.5 122.5234,-28.5 122.5234,-.5 0,-.5"/>
<text text-anchor="start" x="8" y="-16.5" font-family="Helvetica,sans-Serif" font-size="10.00" fill="#000000">libnolimits/NL2/Coaster</text>
<text text-anchor="middle" x="61.2617" y="-6.5" font-family="Helvetica,sans-Serif" font-size="10.00" fill="#000000">/Track/SpecialTrack.cpp</text>
</a>
</g>
</g>
<!-- Node23&#45;&gt;Node24 -->
<g id="edge1" class="edge">
<title>Node23&#45;&gt;Node24</title>
<path fill="none" stroke="#191970" d="M109.4301,-58.5978C98.7094,-48.7831 86.2146,-37.3442 76.6376,-28.5765"/>
<polygon fill="#191970" stroke="#191970" points="107.1165,-61.225 116.8558,-65.396 111.8433,-56.0618 107.1165,-61.225"/>
</g>
<!-- Node25 -->
<g id="node3" class="node">
<title>Node25</title>
<g id="a_node3"><a xlink:href="_transfer_table_8cpp.html" target="_top" xlink:title="libnolimits/NL2/Coaster\l/Track/TransferTable.cpp">
<polygon fill="none" stroke="#000000" points="140.3301,-.5 140.3301,-28.5 266.1934,-28.5 266.1934,-.5 140.3301,-.5"/>
<text text-anchor="start" x="148.3301" y="-16.5" font-family="Helvetica,sans-Serif" font-size="10.00" fill="#000000">libnolimits/NL2/Coaster</text>
<text text-anchor="middle" x="203.2617" y="-6.5" font-family="Helvetica,sans-Serif" font-size="10.00" fill="#000000">/Track/TransferTable.cpp</text>
</a>
</g>
</g>
<!-- Node23&#45;&gt;Node25 -->
<g id="edge2" class="edge">
<title>Node23&#45;&gt;Node25</title>
<path fill="none" stroke="#191970" d="M155.0934,-58.5978C165.8141,-48.7831 178.3089,-37.3442 187.8858,-28.5765"/>
<polygon fill="#191970" stroke="#191970" points="152.6801,-56.0618 147.6677,-65.396 157.4069,-61.225 152.6801,-56.0618"/>
</g>
</g>
</svg>
