<?xml version="1.0" encoding="UTF-8" standalone="no"?>
<!DOCTYPE svg PUBLIC "-//W3C//DTD SVG 1.1//EN"
 "http://www.w3.org/Graphics/SVG/1.1/DTD/svg11.dtd">
<!-- Generated by graphviz version 2.40.1 (20161225.0304)
 -->
<!-- Title: libnolimits/NL2/Coaster/Track/Section/TransportDevice.cpp Pages: 1 -->
<svg width="205pt" height="212pt"
 viewBox="0.00 0.00 205.49 212.00" xmlns="http://www.w3.org/2000/svg" xmlns:xlink="http://www.w3.org/1999/xlink">
<g id="graph0" class="graph" transform="scale(1 1) rotate(0) translate(4 208)">
<title>libnolimits/NL2/Coaster/Track/Section/TransportDevice.cpp</title>
<!-- Node0 -->
<g id="node1" class="node">
<title>Node0</title>
<polygon fill="#bfbfbf" stroke="#000000" points="23.2744,-175.5 23.2744,-203.5 197.4922,-203.5 197.4922,-175.5 23.2744,-175.5"/>
<text text-anchor="start" x="31.2744" y="-191.5" font-family="Helvetica,sans-Serif" font-size="10.00" fill="#000000">libnolimits/NL2/Coaster</text>
<text text-anchor="middle" x="110.3833" y="-181.5" font-family="Helvetica,sans-Serif" font-size="10.00" fill="#000000">/Track/Section/TransportDevice.cpp</text>
</g>
<!-- Node1 -->
<g id="node2" class="node">
<title>Node1</title>
<g id="a_node2"><a xlink:href="_transport_device_8h.html" target="_top" xlink:title="TransportDevice.h">
<polygon fill="none" stroke="#000000" points="14.7168,-120.5 14.7168,-138.5 112.0498,-138.5 112.0498,-120.5 14.7168,-120.5"/>
<text text-anchor="middle" x="63.3833" y="-126.5" font-family="Helvetica,sans-Serif" font-size="10.00" fill="#000000">TransportDevice.h</text>
</a>
</g>
</g>
<!-- Node0&#45;&gt;Node1 -->
<g id="edge1" class="edge">
<title>Node0&#45;&gt;Node1</title>
<path fill="none" stroke="#191970" d="M99.245,-175.2808C92.4976,-166.6672 83.8495,-155.6271 76.7365,-146.5466"/>
<polygon fill="#191970" stroke="#191970" points="79.4212,-144.2982 70.4992,-138.5842 73.9106,-148.6148 79.4212,-144.2982"/>
</g>
<!-- Node13 -->
<g id="node5" class="node">
<title>Node13</title>
<polygon fill="none" stroke="#bfbfbf" points="130.2109,-120.5 130.2109,-138.5 184.5557,-138.5 184.5557,-120.5 130.2109,-120.5"/>
<text text-anchor="middle" x="157.3833" y="-126.5" font-family="Helvetica,sans-Serif" font-size="10.00" fill="#000000">iostream</text>
</g>
<!-- Node0&#45;&gt;Node13 -->
<g id="edge5" class="edge">
<title>Node0&#45;&gt;Node13</title>
<path fill="none" stroke="#191970" d="M121.5216,-175.2808C128.269,-166.6672 136.9171,-155.6271 144.0301,-146.5466"/>
<polygon fill="#191970" stroke="#191970" points="146.856,-148.6148 150.2674,-138.5842 141.3454,-144.2982 146.856,-148.6148"/>
</g>
<!-- Node2 -->
<g id="node3" class="node">
<title>Node2</title>
<g id="a_node3"><a xlink:href="_transport_8h.html" target="_top" xlink:title="Transport.h">
<polygon fill="none" stroke="#ff0000" points="0,-65.5 0,-83.5 66.7666,-83.5 66.7666,-65.5 0,-65.5"/>
<text text-anchor="middle" x="33.3833" y="-71.5" font-family="Helvetica,sans-Serif" font-size="10.00" fill="#000000">Transport.h</text>
</a>
</g>
</g>
<!-- Node1&#45;&gt;Node2 -->
<g id="edge2" class="edge">
<title>Node1&#45;&gt;Node2</title>
<path fill="none" stroke="#191970" d="M58.4294,-120.4179C54.3287,-112.8998 48.374,-101.9829 43.2996,-92.6799"/>
<polygon fill="#191970" stroke="#191970" points="46.306,-90.8824 38.4448,-83.7795 40.1608,-94.2344 46.306,-90.8824"/>
</g>
<!-- Node4 -->
<g id="node4" class="node">
<title>Node4</title>
<g id="a_node4"><a xlink:href="_chunk_8h.html" target="_top" xlink:title="../../../../Stream\l/Chunk.h">
<polygon fill="none" stroke="#ff0000" points="22.5977,-.5 22.5977,-28.5 104.1689,-28.5 104.1689,-.5 22.5977,-.5"/>
<text text-anchor="start" x="30.5977" y="-16.5" font-family="Helvetica,sans-Serif" font-size="10.00" fill="#000000">../../../../Stream</text>
<text text-anchor="middle" x="63.3833" y="-6.5" font-family="Helvetica,sans-Serif" font-size="10.00" fill="#000000">/Chunk.h</text>
</a>
</g>
</g>
<!-- Node1&#45;&gt;Node4 -->
<g id="edge4" class="edge">
<title>Node1&#45;&gt;Node4</title>
<path fill="none" stroke="#191970" d="M66.5829,-120.2292C69.5416,-111.1323 73.7237,-96.8005 75.3833,-84 77.3585,-68.7654 74.5155,-51.7707 71.1025,-38.4001"/>
<polygon fill="#191970" stroke="#191970" points="74.4092,-37.2303 68.3244,-28.557 67.6724,-39.1318 74.4092,-37.2303"/>
</g>
<!-- Node2&#45;&gt;Node4 -->
<g id="edge3" class="edge">
<title>Node2&#45;&gt;Node4</title>
<path fill="none" stroke="#191970" d="M37.9397,-65.3873C41.5786,-58.1095 46.8453,-47.5759 51.6442,-37.9782"/>
<polygon fill="#191970" stroke="#191970" points="54.8678,-39.3572 56.2095,-28.8477 48.6068,-36.2267 54.8678,-39.3572"/>
</g>
</g>
</svg>
