<?xml version="1.0" encoding="UTF-8" standalone="no"?>
<!DOCTYPE svg PUBLIC "-//W3C//DTD SVG 1.1//EN"
 "http://www.w3.org/Graphics/SVG/1.1/DTD/svg11.dtd">
<!-- Generated by graphviz version 2.40.1 (20161225.0304)
 -->
<!-- Title: libnolimits/NL2/Coaster/Train.h Pages: 1 -->
<svg width="238pt" height="312pt"
 viewBox="0.00 0.00 237.60 312.00" xmlns="http://www.w3.org/2000/svg" xmlns:xlink="http://www.w3.org/1999/xlink">
<g id="graph0" class="graph" transform="scale(1 1) rotate(0) translate(4 308)">
<title>libnolimits/NL2/Coaster/Train.h</title>
<!-- Node0 -->
<g id="node1" class="node">
<title>Node0</title>
<polygon fill="#bfbfbf" stroke="#000000" points="82.7119,-275.5 82.7119,-303.5 201.5293,-303.5 201.5293,-275.5 82.7119,-275.5"/>
<text text-anchor="start" x="90.7119" y="-291.5" font-family="Helvetica,sans-Serif" font-size="10.00" fill="#000000">libnolimits/NL2/Coaster</text>
<text text-anchor="middle" x="142.1206" y="-281.5" font-family="Helvetica,sans-Serif" font-size="10.00" fill="#000000">/Train.h</text>
</g>
<!-- Node1 -->
<g id="node2" class="node">
<title>Node1</title>
<g id="a_node2"><a xlink:href="_chunk_8h.html" target="_top" xlink:title="../../Stream/Chunk.h">
<polygon fill="none" stroke="#000000" points="9.6577,-110.5 9.6577,-128.5 114.5835,-128.5 114.5835,-110.5 9.6577,-110.5"/>
<text text-anchor="middle" x="62.1206" y="-116.5" font-family="Helvetica,sans-Serif" font-size="10.00" fill="#000000">../../Stream/Chunk.h</text>
</a>
</g>
</g>
<!-- Node0&#45;&gt;Node1 -->
<g id="edge1" class="edge">
<title>Node0&#45;&gt;Node1</title>
<path fill="none" stroke="#191970" d="M115.0906,-275.3491C101.4122,-266.7285 85.888,-254.399 77.1206,-239 59.1692,-207.4704 58.6617,-163.7814 60.1981,-138.9022"/>
<polygon fill="#191970" stroke="#191970" points="63.712,-138.8673 61.0207,-128.62 56.7343,-138.309 63.712,-138.8673"/>
</g>
<!-- Node16 -->
<g id="node6" class="node">
<title>Node16</title>
<g id="a_node6"><a xlink:href="_individual_color_8h.html" target="_top" xlink:title="IndividualColor.h">
<polygon fill="none" stroke="#000000" points="128.1504,-165.5 128.1504,-183.5 218.0908,-183.5 218.0908,-165.5 128.1504,-165.5"/>
<text text-anchor="middle" x="173.1206" y="-171.5" font-family="Helvetica,sans-Serif" font-size="10.00" fill="#000000">IndividualColor.h</text>
</a>
</g>
</g>
<!-- Node0&#45;&gt;Node16 -->
<g id="edge7" class="edge">
<title>Node0&#45;&gt;Node16</title>
<path fill="none" stroke="#191970" d="M145.9218,-275.3987C151.4517,-254.8847 161.7312,-216.7512 167.9467,-193.6935"/>
<polygon fill="#191970" stroke="#191970" points="171.4094,-194.295 170.6329,-183.7286 164.6507,-192.473 171.4094,-194.295"/>
</g>
<!-- Node17 -->
<g id="node7" class="node">
<title>Node17</title>
<polygon fill="none" stroke="#bfbfbf" points="151.5049,-110.5 151.5049,-128.5 194.7363,-128.5 194.7363,-110.5 151.5049,-110.5"/>
<text text-anchor="middle" x="173.1206" y="-116.5" font-family="Helvetica,sans-Serif" font-size="10.00" fill="#000000">vector</text>
</g>
<!-- Node0&#45;&gt;Node17 -->
<g id="edge14" class="edge">
<title>Node0&#45;&gt;Node17</title>
<path fill="none" stroke="#191970" d="M159.223,-275.2011C179.9189,-256.662 213.6633,-222.1525 227.1206,-184 229.9295,-176.0364 230.6815,-172.6569 227.1206,-165 221.2058,-152.2818 209.7917,-141.8434 198.9754,-134.1874"/>
<polygon fill="#191970" stroke="#191970" points="200.826,-131.2155 190.5455,-128.6536 196.9845,-137.0673 200.826,-131.2155"/>
</g>
<!-- Node18 -->
<g id="node8" class="node">
<title>Node18</title>
<g id="a_node8"><a xlink:href="_car_8h.html" target="_top" xlink:title="Car.h">
<polygon fill="none" stroke="#000000" points="86.1675,-220.5 86.1675,-238.5 126.0737,-238.5 126.0737,-220.5 86.1675,-220.5"/>
<text text-anchor="middle" x="106.1206" y="-226.5" font-family="Helvetica,sans-Serif" font-size="10.00" fill="#000000">Car.h</text>
</a>
</g>
</g>
<!-- Node0&#45;&gt;Node18 -->
<g id="edge10" class="edge">
<title>Node0&#45;&gt;Node18</title>
<path fill="none" stroke="#191970" d="M133.5891,-275.2808C128.5807,-266.9336 122.2052,-256.3076 116.8574,-247.3946"/>
<polygon fill="#191970" stroke="#191970" points="119.7174,-245.3584 111.5711,-238.5842 113.7149,-248.9599 119.7174,-245.3584"/>
</g>
<!-- Node2 -->
<g id="node3" class="node">
<title>Node2</title>
<g id="a_node3"><a xlink:href="_file_8h.html" target="_top" xlink:title="../File/File.h">
<polygon fill="none" stroke="#ff0000" points="28.2808,-55.5 28.2808,-73.5 95.9604,-73.5 95.9604,-55.5 28.2808,-55.5"/>
<text text-anchor="middle" x="62.1206" y="-61.5" font-family="Helvetica,sans-Serif" font-size="10.00" fill="#000000">../File/File.h</text>
</a>
</g>
</g>
<!-- Node1&#45;&gt;Node2 -->
<g id="edge2" class="edge">
<title>Node1&#45;&gt;Node2</title>
<path fill="none" stroke="#191970" d="M62.1206,-110.4179C62.1206,-103.2164 62.1206,-92.8962 62.1206,-83.8632"/>
<polygon fill="#191970" stroke="#191970" points="65.6207,-83.7794 62.1206,-73.7795 58.6207,-83.7795 65.6207,-83.7794"/>
</g>
<!-- Node6 -->
<g id="node4" class="node">
<title>Node6</title>
<polygon fill="none" stroke="#bfbfbf" points="0,-.5 0,-18.5 48.2412,-18.5 48.2412,-.5 0,-.5"/>
<text text-anchor="middle" x="24.1206" y="-6.5" font-family="Helvetica,sans-Serif" font-size="10.00" fill="#000000">stdint.h</text>
</g>
<!-- Node1&#45;&gt;Node6 -->
<g id="edge5" class="edge">
<title>Node1&#45;&gt;Node6</title>
<path fill="none" stroke="#191970" d="M49.2082,-110.3491C38.8735,-102.1662 25.1462,-89.1487 19.1206,-74 13.3479,-59.4871 15.3222,-41.7087 18.3304,-28.495"/>
<polygon fill="#191970" stroke="#191970" points="21.7633,-29.2048 20.9531,-18.641 14.9987,-27.4044 21.7633,-29.2048"/>
</g>
<!-- Node7 -->
<g id="node5" class="node">
<title>Node7</title>
<g id="a_node5"><a xlink:href="_nolimits_8h.html" target="_top" xlink:title="../Nolimits.h">
<polygon fill="none" stroke="#ff0000" points="78.0049,-.5 78.0049,-18.5 146.2363,-18.5 146.2363,-.5 78.0049,-.5"/>
<text text-anchor="middle" x="112.1206" y="-6.5" font-family="Helvetica,sans-Serif" font-size="10.00" fill="#000000">../Nolimits.h</text>
</a>
</g>
</g>
<!-- Node1&#45;&gt;Node7 -->
<g id="edge6" class="edge">
<title>Node1&#45;&gt;Node7</title>
<path fill="none" stroke="#191970" d="M74.2152,-110.4994C84.3337,-102.2267 98.1942,-88.9984 105.1206,-74 111.622,-59.9218 113.1552,-42.3317 113.1836,-29.0784"/>
<polygon fill="#191970" stroke="#191970" points="116.6735,-28.6484 112.9081,-18.7453 109.6759,-28.835 116.6735,-28.6484"/>
</g>
<!-- Node2&#45;&gt;Node6 -->
<g id="edge3" class="edge">
<title>Node2&#45;&gt;Node6</title>
<path fill="none" stroke="#191970" d="M55.8457,-55.4179C50.542,-47.7415 42.7902,-36.5217 36.2768,-27.0945"/>
<polygon fill="#191970" stroke="#191970" points="39.0958,-25.0173 30.5319,-18.7795 33.3367,-28.9963 39.0958,-25.0173"/>
</g>
<!-- Node2&#45;&gt;Node7 -->
<g id="edge4" class="edge">
<title>Node2&#45;&gt;Node7</title>
<path fill="none" stroke="#191970" d="M70.3771,-55.4179C77.5714,-47.5041 88.1894,-35.8243 96.916,-26.2251"/>
<polygon fill="#191970" stroke="#191970" points="99.5478,-28.5332 103.6847,-18.7795 94.3682,-23.8245 99.5478,-28.5332"/>
</g>
<!-- Node16&#45;&gt;Node1 -->
<g id="edge8" class="edge">
<title>Node16&#45;&gt;Node1</title>
<path fill="none" stroke="#191970" d="M154.7912,-165.4179C137.0365,-156.6205 109.8892,-143.1691 89.559,-133.0956"/>
<polygon fill="#191970" stroke="#191970" points="90.9916,-129.8994 80.4772,-128.5956 87.8836,-136.1716 90.9916,-129.8994"/>
</g>
<!-- Node16&#45;&gt;Node17 -->
<g id="edge9" class="edge">
<title>Node16&#45;&gt;Node17</title>
<path fill="none" stroke="#191970" d="M173.1206,-165.4179C173.1206,-158.2164 173.1206,-147.8962 173.1206,-138.8632"/>
<polygon fill="#191970" stroke="#191970" points="176.6207,-138.7794 173.1206,-128.7795 169.6207,-138.7795 176.6207,-138.7794"/>
</g>
<!-- Node18&#45;&gt;Node1 -->
<g id="edge11" class="edge">
<title>Node18&#45;&gt;Node1</title>
<path fill="none" stroke="#191970" d="M101.8239,-220.1562C97.6609,-211.0052 91.243,-196.6345 86.1206,-184 79.948,-168.7752 73.4825,-151.2978 68.8194,-138.3797"/>
<polygon fill="#191970" stroke="#191970" points="72.0379,-136.9857 65.3723,-128.7504 65.4475,-139.345 72.0379,-136.9857"/>
</g>
<!-- Node18&#45;&gt;Node16 -->
<g id="edge12" class="edge">
<title>Node18&#45;&gt;Node16</title>
<path fill="none" stroke="#191970" d="M117.1843,-220.4179C127.1139,-212.2667 141.9106,-200.1201 153.7918,-190.3669"/>
<polygon fill="#191970" stroke="#191970" points="156.308,-192.8297 161.8165,-183.7795 151.8665,-187.4192 156.308,-192.8297"/>
</g>
<!-- Node18&#45;&gt;Node17 -->
<g id="edge13" class="edge">
<title>Node18&#45;&gt;Node17</title>
<path fill="none" stroke="#191970" d="M106.1069,-220.4988C106.4718,-207.3919 108.6419,-182.6911 119.1206,-165 126.4167,-152.6821 138.2934,-142.1341 149.0533,-134.3045"/>
<polygon fill="#191970" stroke="#191970" points="151.0663,-137.1681 157.3343,-128.6262 147.1076,-131.3949 151.0663,-137.1681"/>
</g>
</g>
</svg>
