<?xml version="1.0" encoding="UTF-8" standalone="no"?>
<!DOCTYPE svg PUBLIC "-//W3C//DTD SVG 1.1//EN"
 "http://www.w3.org/Graphics/SVG/1.1/DTD/svg11.dtd">
<!-- Generated by graphviz version 2.40.1 (20161225.0304)
 -->
<!-- Title: libnolimits/NL2/Coaster/Track/Section/Transport.h Pages: 1 -->
<svg width="802pt" height="232pt"
 viewBox="0.00 0.00 802.23 232.00" xmlns="http://www.w3.org/2000/svg" xmlns:xlink="http://www.w3.org/1999/xlink">
<g id="graph0" class="graph" transform="scale(1 1) rotate(0) translate(4 228)">
<title>libnolimits/NL2/Coaster/Track/Section/Transport.h</title>
<!-- Node17 -->
<g id="node1" class="node">
<title>Node17</title>
<polygon fill="#bfbfbf" stroke="#000000" points="532.8638,-195.5 532.8638,-223.5 665.9536,-223.5 665.9536,-195.5 532.8638,-195.5"/>
<text text-anchor="start" x="540.8638" y="-211.5" font-family="Helvetica,sans-Serif" font-size="10.00" fill="#000000">libnolimits/NL2/Coaster</text>
<text text-anchor="middle" x="599.4087" y="-201.5" font-family="Helvetica,sans-Serif" font-size="10.00" fill="#000000">/Track/Section/Transport.h</text>
</g>
<!-- Node18 -->
<g id="node2" class="node">
<title>Node18</title>
<g id="a_node2"><a xlink:href="_transport_device_8h.html" target="_top" xlink:title="libnolimits/NL2/Coaster\l/Track/Section/TransportDevice.h">
<polygon fill="none" stroke="#000000" points="281.5806,-130.5 281.5806,-158.5 445.2368,-158.5 445.2368,-130.5 281.5806,-130.5"/>
<text text-anchor="start" x="289.5806" y="-146.5" font-family="Helvetica,sans-Serif" font-size="10.00" fill="#000000">libnolimits/NL2/Coaster</text>
<text text-anchor="middle" x="363.4087" y="-136.5" font-family="Helvetica,sans-Serif" font-size="10.00" fill="#000000">/Track/Section/TransportDevice.h</text>
</a>
</g>
</g>
<!-- Node17&#45;&gt;Node18 -->
<g id="edge1" class="edge">
<title>Node17&#45;&gt;Node18</title>
<path fill="none" stroke="#191970" d="M538.466,-192.7149C500.0612,-182.1373 451.0366,-168.6348 414.6422,-158.6109"/>
<polygon fill="#191970" stroke="#191970" points="537.9203,-196.1949 548.4908,-195.476 539.7791,-189.4462 537.9203,-196.1949"/>
</g>
<!-- Node24 -->
<g id="node4" class="node">
<title>Node24</title>
<g id="a_node4"><a xlink:href="_section_8cpp.html" target="_top" xlink:title="libnolimits/NL2/Coaster\l/Track/Section/Section.cpp">
<polygon fill="none" stroke="#000000" points="297.1191,-.5 297.1191,-28.5 431.6982,-28.5 431.6982,-.5 297.1191,-.5"/>
<text text-anchor="start" x="305.1191" y="-16.5" font-family="Helvetica,sans-Serif" font-size="10.00" fill="#000000">libnolimits/NL2/Coaster</text>
<text text-anchor="middle" x="364.4087" y="-6.5" font-family="Helvetica,sans-Serif" font-size="10.00" fill="#000000">/Track/Section/Section.cpp</text>
</a>
</g>
</g>
<!-- Node17&#45;&gt;Node24 -->
<g id="edge9" class="edge">
<title>Node17&#45;&gt;Node24</title>
<path fill="none" stroke="#191970" d="M608.6291,-185.6065C619.0159,-154.2358 631.0991,-99.1527 603.4087,-65 582.1418,-38.7699 494.8477,-25.6317 431.9032,-19.4475"/>
<polygon fill="#191970" stroke="#191970" points="605.246,-184.6768 605.2316,-195.2716 611.8499,-186.9983 605.246,-184.6768"/>
</g>
<!-- Node26 -->
<g id="node6" class="node">
<title>Node26</title>
<g id="a_node6"><a xlink:href="_storage_8h.html" target="_top" xlink:title="libnolimits/NL2/Coaster\l/Track/Section/Storage.h">
<polygon fill="none" stroke="#ff0000" points="468.5649,-65.5 468.5649,-93.5 594.2524,-93.5 594.2524,-65.5 468.5649,-65.5"/>
<text text-anchor="start" x="476.5649" y="-81.5" font-family="Helvetica,sans-Serif" font-size="10.00" fill="#000000">libnolimits/NL2/Coaster</text>
<text text-anchor="middle" x="531.4087" y="-71.5" font-family="Helvetica,sans-Serif" font-size="10.00" fill="#000000">/Track/Section/Storage.h</text>
</a>
</g>
</g>
<!-- Node17&#45;&gt;Node26 -->
<g id="edge10" class="edge">
<title>Node17&#45;&gt;Node26</title>
<path fill="none" stroke="#191970" d="M587.2455,-186.2469C573.1734,-159.3443 550.4501,-115.9028 538.8062,-93.6423"/>
<polygon fill="#191970" stroke="#191970" points="584.2657,-188.1015 592.0021,-195.3402 590.4684,-184.857 584.2657,-188.1015"/>
</g>
<!-- Node29 -->
<g id="node8" class="node">
<title>Node29</title>
<g id="a_node8"><a xlink:href="_transport_8cpp.html" target="_top" xlink:title="libnolimits/NL2/Coaster\l/Track/Section/Transport.cpp">
<polygon fill="none" stroke="#000000" points="650.583,-130.5 650.583,-158.5 794.2344,-158.5 794.2344,-130.5 650.583,-130.5"/>
<text text-anchor="start" x="658.583" y="-146.5" font-family="Helvetica,sans-Serif" font-size="10.00" fill="#000000">libnolimits/NL2/Coaster</text>
<text text-anchor="middle" x="722.4087" y="-136.5" font-family="Helvetica,sans-Serif" font-size="10.00" fill="#000000">/Track/Section/Transport.cpp</text>
</a>
</g>
</g>
<!-- Node17&#45;&gt;Node29 -->
<g id="edge11" class="edge">
<title>Node17&#45;&gt;Node29</title>
<path fill="none" stroke="#191970" d="M634.957,-190.7143C654.3555,-180.4631 677.9724,-167.9826 695.7716,-158.5765"/>
<polygon fill="#191970" stroke="#191970" points="633.3039,-187.6292 626.0979,-195.396 636.5746,-193.8181 633.3039,-187.6292"/>
</g>
<!-- Node19 -->
<g id="node3" class="node">
<title>Node19</title>
<g id="a_node3"><a xlink:href="_brake_8h.html" target="_top" xlink:title="libnolimits/NL2/Coaster\l/Track/Section/Brake.h">
<polygon fill="none" stroke="#ff0000" points="0,-65.5 0,-93.5 118.8174,-93.5 118.8174,-65.5 0,-65.5"/>
<text text-anchor="start" x="8" y="-81.5" font-family="Helvetica,sans-Serif" font-size="10.00" fill="#000000">libnolimits/NL2/Coaster</text>
<text text-anchor="middle" x="59.4087" y="-71.5" font-family="Helvetica,sans-Serif" font-size="10.00" fill="#000000">/Track/Section/Brake.h</text>
</a>
</g>
</g>
<!-- Node18&#45;&gt;Node19 -->
<g id="edge2" class="edge">
<title>Node18&#45;&gt;Node19</title>
<path fill="none" stroke="#191970" d="M287.943,-128.3642C235.7617,-117.2071 167.298,-102.5684 118.9549,-92.2319"/>
<polygon fill="#191970" stroke="#191970" points="287.3087,-131.8077 297.8195,-130.476 288.7724,-124.9624 287.3087,-131.8077"/>
</g>
<!-- Node23 -->
<g id="node5" class="node">
<title>Node23</title>
<g id="a_node5"><a xlink:href="_station_8h.html" target="_top" xlink:title="libnolimits/NL2/Coaster\l/Track/Section/Station.h">
<polygon fill="none" stroke="#ff0000" points="136.5107,-65.5 136.5107,-93.5 258.3066,-93.5 258.3066,-65.5 136.5107,-65.5"/>
<text text-anchor="start" x="144.5107" y="-81.5" font-family="Helvetica,sans-Serif" font-size="10.00" fill="#000000">libnolimits/NL2/Coaster</text>
<text text-anchor="middle" x="197.4087" y="-71.5" font-family="Helvetica,sans-Serif" font-size="10.00" fill="#000000">/Track/Section/Station.h</text>
</a>
</g>
</g>
<!-- Node18&#45;&gt;Node23 -->
<g id="edge4" class="edge">
<title>Node18&#45;&gt;Node23</title>
<path fill="none" stroke="#191970" d="M317.903,-126.6815C291.2799,-116.2568 258.1405,-103.2805 233.3579,-93.5765"/>
<polygon fill="#191970" stroke="#191970" points="316.8014,-130.0089 327.3892,-130.396 319.3537,-123.4907 316.8014,-130.0089"/>
</g>
<!-- Node18&#45;&gt;Node26 -->
<g id="edge6" class="edge">
<title>Node18&#45;&gt;Node26</title>
<path fill="none" stroke="#191970" d="M409.4626,-126.6815C436.4065,-116.2568 469.9452,-103.2805 495.0263,-93.5765"/>
<polygon fill="#191970" stroke="#191970" points="407.9255,-123.5233 399.8622,-130.396 410.4514,-130.0517 407.9255,-123.5233"/>
</g>
<!-- Node28 -->
<g id="node7" class="node">
<title>Node28</title>
<g id="a_node7"><a xlink:href="_transport_device_8cpp.html" target="_top" xlink:title="libnolimits/NL2/Coaster\l/Track/Section/TransportDevice.cpp">
<polygon fill="none" stroke="#000000" points="276.2998,-65.5 276.2998,-93.5 450.5176,-93.5 450.5176,-65.5 276.2998,-65.5"/>
<text text-anchor="start" x="284.2998" y="-81.5" font-family="Helvetica,sans-Serif" font-size="10.00" fill="#000000">libnolimits/NL2/Coaster</text>
<text text-anchor="middle" x="363.4087" y="-71.5" font-family="Helvetica,sans-Serif" font-size="10.00" fill="#000000">/Track/Section/TransportDevice.cpp</text>
</a>
</g>
</g>
<!-- Node18&#45;&gt;Node28 -->
<g id="edge8" class="edge">
<title>Node18&#45;&gt;Node28</title>
<path fill="none" stroke="#191970" d="M363.4087,-120.1081C363.4087,-111.1539 363.4087,-101.3227 363.4087,-93.5765"/>
<polygon fill="#191970" stroke="#191970" points="359.9088,-120.3959 363.4087,-130.396 366.9088,-120.396 359.9088,-120.3959"/>
</g>
<!-- Node19&#45;&gt;Node24 -->
<g id="edge3" class="edge">
<title>Node19&#45;&gt;Node24</title>
<path fill="none" stroke="#191970" d="M129.1782,-64.623C191.8477,-51.2649 253.3745,-38.1552 298.514,-28.5381"/>
<polygon fill="#191970" stroke="#191970" points="128.1633,-61.2606 119.1127,-66.7685 129.6226,-68.1068 128.1633,-61.2606"/>
</g>
<!-- Node23&#45;&gt;Node24 -->
<g id="edge5" class="edge">
<title>Node23&#45;&gt;Node24</title>
<path fill="none" stroke="#191970" d="M243.1885,-61.6815C269.972,-51.2568 303.311,-38.2805 328.2429,-28.5765"/>
<polygon fill="#191970" stroke="#191970" points="241.6947,-58.5071 233.6452,-65.396 244.2337,-65.0304 241.6947,-58.5071"/>
</g>
<!-- Node26&#45;&gt;Node24 -->
<g id="edge7" class="edge">
<title>Node26&#45;&gt;Node24</title>
<path fill="none" stroke="#191970" d="M485.6289,-61.6815C458.8454,-51.2568 425.5063,-38.2805 400.5745,-28.5765"/>
<polygon fill="#191970" stroke="#191970" points="484.5836,-65.0304 495.1722,-65.396 487.1227,-58.5071 484.5836,-65.0304"/>
</g>
</g>
</svg>
