<?xml version="1.0" encoding="UTF-8" standalone="no"?>
<!DOCTYPE svg PUBLIC "-//W3C//DTD SVG 1.1//EN"
 "http://www.w3.org/Graphics/SVG/1.1/DTD/svg11.dtd">
<!-- Generated by graphviz version 2.40.1 (20161225.0304)
 -->
<!-- Title: libnolimits/NL2/Coaster/Track/Section/Transport.h Pages: 1 -->
<svg width="141pt" height="157pt"
 viewBox="0.00 0.00 141.09 157.00" xmlns="http://www.w3.org/2000/svg" xmlns:xlink="http://www.w3.org/1999/xlink">
<g id="graph0" class="graph" transform="scale(1 1) rotate(0) translate(4 153)">
<title>libnolimits/NL2/Coaster/Track/Section/Transport.h</title>
<!-- Node0 -->
<g id="node1" class="node">
<title>Node0</title>
<polygon fill="#bfbfbf" stroke="#000000" points="0,-120.5 0,-148.5 133.0898,-148.5 133.0898,-120.5 0,-120.5"/>
<text text-anchor="start" x="8" y="-136.5" font-family="Helvetica,sans-Serif" font-size="10.00" fill="#000000">libnolimits/NL2/Coaster</text>
<text text-anchor="middle" x="66.5449" y="-126.5" font-family="Helvetica,sans-Serif" font-size="10.00" fill="#000000">/Track/Section/Transport.h</text>
</g>
<!-- Node1 -->
<g id="node2" class="node">
<title>Node1</title>
<g id="a_node2"><a xlink:href="_section_8h.html" target="_top" xlink:title="Section.h">
<polygon fill="none" stroke="#000000" points="9.6978,-65.5 9.6978,-83.5 67.3921,-83.5 67.3921,-65.5 9.6978,-65.5"/>
<text text-anchor="middle" x="38.5449" y="-71.5" font-family="Helvetica,sans-Serif" font-size="10.00" fill="#000000">Section.h</text>
</a>
</g>
</g>
<!-- Node0&#45;&gt;Node1 -->
<g id="edge1" class="edge">
<title>Node0&#45;&gt;Node1</title>
<path fill="none" stroke="#191970" d="M59.9093,-120.2808C56.0554,-112.0224 51.1605,-101.5335 47.0288,-92.6796"/>
<polygon fill="#191970" stroke="#191970" points="50.1848,-91.1659 42.7842,-83.5842 43.8415,-94.1261 50.1848,-91.1659"/>
</g>
<!-- Node2 -->
<g id="node3" class="node">
<title>Node2</title>
<g id="a_node3"><a xlink:href="_chunk_8h.html" target="_top" xlink:title="../../../../Stream\l/Chunk.h">
<polygon fill="none" stroke="#ff0000" points="25.7593,-.5 25.7593,-28.5 107.3306,-28.5 107.3306,-.5 25.7593,-.5"/>
<text text-anchor="start" x="33.7593" y="-16.5" font-family="Helvetica,sans-Serif" font-size="10.00" fill="#000000">../../../../Stream</text>
<text text-anchor="middle" x="66.5449" y="-6.5" font-family="Helvetica,sans-Serif" font-size="10.00" fill="#000000">/Chunk.h</text>
</a>
</g>
</g>
<!-- Node0&#45;&gt;Node2 -->
<g id="edge3" class="edge">
<title>Node0&#45;&gt;Node2</title>
<path fill="none" stroke="#191970" d="M70.0917,-120.461C72.4476,-110.3886 75.3238,-96.4529 76.5449,-84 78.0375,-68.779 75.6653,-51.7846 72.8579,-38.4107"/>
<polygon fill="#191970" stroke="#191970" points="76.2438,-37.5175 70.5787,-28.5644 69.4241,-39.0962 76.2438,-37.5175"/>
</g>
<!-- Node1&#45;&gt;Node2 -->
<g id="edge2" class="edge">
<title>Node1&#45;&gt;Node2</title>
<path fill="none" stroke="#191970" d="M42.7975,-65.3873C46.1938,-58.1095 51.1095,-47.5759 55.5884,-37.9782"/>
<polygon fill="#191970" stroke="#191970" points="58.7921,-39.3896 59.8493,-28.8477 52.4488,-36.4294 58.7921,-39.3896"/>
</g>
</g>
</svg>
