<?xml version="1.0" encoding="UTF-8" standalone="no"?>
<!DOCTYPE svg PUBLIC "-//W3C//DTD SVG 1.1//EN"
 "http://www.w3.org/Graphics/SVG/1.1/DTD/svg11.dtd">
<!-- Generated by graphviz version 2.40.1 (20161225.0304)
 -->
<!-- Title: libnolimits/NL2/Coaster/Track/Track.h Pages: 1 -->
<svg width="155pt" height="257pt"
 viewBox="0.00 0.00 155.03 257.00" xmlns="http://www.w3.org/2000/svg" xmlns:xlink="http://www.w3.org/1999/xlink">
<g id="graph0" class="graph" transform="scale(1 1) rotate(0) translate(4 253)">
<title>libnolimits/NL2/Coaster/Track/Track.h</title>
<!-- Node0 -->
<g id="node1" class="node">
<title>Node0</title>
<polygon fill="#bfbfbf" stroke="#000000" points="2.7119,-220.5 2.7119,-248.5 121.5293,-248.5 121.5293,-220.5 2.7119,-220.5"/>
<text text-anchor="start" x="10.7119" y="-236.5" font-family="Helvetica,sans-Serif" font-size="10.00" fill="#000000">libnolimits/NL2/Coaster</text>
<text text-anchor="middle" x="62.1206" y="-226.5" font-family="Helvetica,sans-Serif" font-size="10.00" fill="#000000">/Track/Track.h</text>
</g>
<!-- Node1 -->
<g id="node2" class="node">
<title>Node1</title>
<g id="a_node2"><a xlink:href="_chunk_8h.html" target="_top" xlink:title="../../../Stream/Chunk.h">
<polygon fill="none" stroke="#000000" points="5.4902,-110.5 5.4902,-128.5 118.751,-128.5 118.751,-110.5 5.4902,-110.5"/>
<text text-anchor="middle" x="62.1206" y="-116.5" font-family="Helvetica,sans-Serif" font-size="10.00" fill="#000000">../../../Stream/Chunk.h</text>
</a>
</g>
</g>
<!-- Node0&#45;&gt;Node1 -->
<g id="edge1" class="edge">
<title>Node0&#45;&gt;Node1</title>
<path fill="none" stroke="#191970" d="M54.6056,-220.2478C48.154,-206.2849 40.4332,-184.3449 44.1206,-165 45.8877,-155.7295 49.5109,-145.9365 53.0464,-137.8202"/>
<polygon fill="#191970" stroke="#191970" points="56.29,-139.1455 57.3316,-128.6019 49.9423,-136.1946 56.29,-139.1455"/>
</g>
<!-- Node16 -->
<g id="node6" class="node">
<title>Node16</title>
<g id="a_node6"><a xlink:href="_section_8h.html" target="_top" xlink:title="Section/Section.h">
<polygon fill="none" stroke="#000000" points="53.207,-165.5 53.207,-183.5 147.0342,-183.5 147.0342,-165.5 53.207,-165.5"/>
<text text-anchor="middle" x="100.1206" y="-171.5" font-family="Helvetica,sans-Serif" font-size="10.00" fill="#000000">Section/Section.h</text>
</a>
</g>
</g>
<!-- Node0&#45;&gt;Node16 -->
<g id="edge7" class="edge">
<title>Node0&#45;&gt;Node16</title>
<path fill="none" stroke="#191970" d="M71.1261,-220.2808C76.4689,-211.8448 83.2858,-201.0813 88.9671,-192.1107"/>
<polygon fill="#191970" stroke="#191970" points="91.9736,-193.9051 94.3673,-183.5842 86.0598,-190.1597 91.9736,-193.9051"/>
</g>
<!-- Node2 -->
<g id="node3" class="node">
<title>Node2</title>
<g id="a_node3"><a xlink:href="_file_8h.html" target="_top" xlink:title="../File/File.h">
<polygon fill="none" stroke="#ff0000" points="28.2808,-55.5 28.2808,-73.5 95.9604,-73.5 95.9604,-55.5 28.2808,-55.5"/>
<text text-anchor="middle" x="62.1206" y="-61.5" font-family="Helvetica,sans-Serif" font-size="10.00" fill="#000000">../File/File.h</text>
</a>
</g>
</g>
<!-- Node1&#45;&gt;Node2 -->
<g id="edge2" class="edge">
<title>Node1&#45;&gt;Node2</title>
<path fill="none" stroke="#191970" d="M62.1206,-110.4179C62.1206,-103.2164 62.1206,-92.8962 62.1206,-83.8632"/>
<polygon fill="#191970" stroke="#191970" points="65.6207,-83.7794 62.1206,-73.7795 58.6207,-83.7795 65.6207,-83.7794"/>
</g>
<!-- Node6 -->
<g id="node4" class="node">
<title>Node6</title>
<polygon fill="none" stroke="#bfbfbf" points="0,-.5 0,-18.5 48.2412,-18.5 48.2412,-.5 0,-.5"/>
<text text-anchor="middle" x="24.1206" y="-6.5" font-family="Helvetica,sans-Serif" font-size="10.00" fill="#000000">stdint.h</text>
</g>
<!-- Node1&#45;&gt;Node6 -->
<g id="edge5" class="edge">
<title>Node1&#45;&gt;Node6</title>
<path fill="none" stroke="#191970" d="M49.2082,-110.3491C38.8735,-102.1662 25.1462,-89.1487 19.1206,-74 13.3479,-59.4871 15.3222,-41.7087 18.3304,-28.495"/>
<polygon fill="#191970" stroke="#191970" points="21.7633,-29.2048 20.9531,-18.641 14.9987,-27.4044 21.7633,-29.2048"/>
</g>
<!-- Node7 -->
<g id="node5" class="node">
<title>Node7</title>
<g id="a_node5"><a xlink:href="_nolimits_8h.html" target="_top" xlink:title="../Nolimits.h">
<polygon fill="none" stroke="#ff0000" points="78.0049,-.5 78.0049,-18.5 146.2363,-18.5 146.2363,-.5 78.0049,-.5"/>
<text text-anchor="middle" x="112.1206" y="-6.5" font-family="Helvetica,sans-Serif" font-size="10.00" fill="#000000">../Nolimits.h</text>
</a>
</g>
</g>
<!-- Node1&#45;&gt;Node7 -->
<g id="edge6" class="edge">
<title>Node1&#45;&gt;Node7</title>
<path fill="none" stroke="#191970" d="M74.2152,-110.4994C84.3337,-102.2267 98.1942,-88.9984 105.1206,-74 111.622,-59.9218 113.1552,-42.3317 113.1836,-29.0784"/>
<polygon fill="#191970" stroke="#191970" points="116.6735,-28.6484 112.9081,-18.7453 109.6759,-28.835 116.6735,-28.6484"/>
</g>
<!-- Node2&#45;&gt;Node6 -->
<g id="edge3" class="edge">
<title>Node2&#45;&gt;Node6</title>
<path fill="none" stroke="#191970" d="M55.8457,-55.4179C50.542,-47.7415 42.7902,-36.5217 36.2768,-27.0945"/>
<polygon fill="#191970" stroke="#191970" points="39.0958,-25.0173 30.5319,-18.7795 33.3367,-28.9963 39.0958,-25.0173"/>
</g>
<!-- Node2&#45;&gt;Node7 -->
<g id="edge4" class="edge">
<title>Node2&#45;&gt;Node7</title>
<path fill="none" stroke="#191970" d="M70.3771,-55.4179C77.5714,-47.5041 88.1894,-35.8243 96.916,-26.2251"/>
<polygon fill="#191970" stroke="#191970" points="99.5478,-28.5332 103.6847,-18.7795 94.3682,-23.8245 99.5478,-28.5332"/>
</g>
<!-- Node16&#45;&gt;Node1 -->
<g id="edge8" class="edge">
<title>Node16&#45;&gt;Node1</title>
<path fill="none" stroke="#191970" d="M93.8457,-165.4179C88.542,-157.7415 80.7902,-146.5217 74.2768,-137.0945"/>
<polygon fill="#191970" stroke="#191970" points="77.0958,-135.0173 68.5319,-128.7795 71.3367,-138.9963 77.0958,-135.0173"/>
</g>
</g>
</svg>
