<?xml version="1.0" encoding="UTF-8" standalone="no"?>
<!DOCTYPE svg PUBLIC "-//W3C//DTD SVG 1.1//EN"
 "http://www.w3.org/Graphics/SVG/1.1/DTD/svg11.dtd">
<!-- Generated by graphviz version 2.40.1 (20161225.0304)
 -->
<!-- Title: libnolimits/NL2/Coaster/Track/Section/TransportDevice.h Pages: 1 -->
<svg width="714pt" height="297pt"
 viewBox="0.00 0.00 713.78 297.00" xmlns="http://www.w3.org/2000/svg" xmlns:xlink="http://www.w3.org/1999/xlink">
<g id="graph0" class="graph" transform="scale(1 1) rotate(0) translate(4 293)">
<title>libnolimits/NL2/Coaster/Track/Section/TransportDevice.h</title>
<!-- Node19 -->
<g id="node1" class="node">
<title>Node19</title>
<polygon fill="#bfbfbf" stroke="#000000" points="322.8457,-260.5 322.8457,-288.5 486.502,-288.5 486.502,-260.5 322.8457,-260.5"/>
<text text-anchor="start" x="330.8457" y="-276.5" font-family="Helvetica,sans-Serif" font-size="10.00" fill="#000000">libnolimits/NL2/Coaster</text>
<text text-anchor="middle" x="404.6738" y="-266.5" font-family="Helvetica,sans-Serif" font-size="10.00" fill="#000000">/Track/Section/TransportDevice.h</text>
</g>
<!-- Node20 -->
<g id="node2" class="node">
<title>Node20</title>
<g id="a_node2"><a xlink:href="_brake_8h.html" target="_top" xlink:title="libnolimits/NL2/Coaster\l/Track/Section/Brake.h">
<polygon fill="none" stroke="#000000" points="147.2651,-195.5 147.2651,-223.5 266.0825,-223.5 266.0825,-195.5 147.2651,-195.5"/>
<text text-anchor="start" x="155.2651" y="-211.5" font-family="Helvetica,sans-Serif" font-size="10.00" fill="#000000">libnolimits/NL2/Coaster</text>
<text text-anchor="middle" x="206.6738" y="-201.5" font-family="Helvetica,sans-Serif" font-size="10.00" fill="#000000">/Track/Section/Brake.h</text>
</a>
</g>
</g>
<!-- Node19&#45;&gt;Node20 -->
<g id="edge1" class="edge">
<title>Node19&#45;&gt;Node20</title>
<path fill="none" stroke="#191970" d="M352.06,-257.2278C320.0307,-246.7131 279.6316,-233.4508 249.553,-223.5765"/>
<polygon fill="#191970" stroke="#191970" points="351.1179,-260.6022 361.7108,-260.396 353.3013,-253.9514 351.1179,-260.6022"/>
</g>
<!-- Node24 -->
<g id="node5" class="node">
<title>Node24</title>
<g id="a_node5"><a xlink:href="_station_8h.html" target="_top" xlink:title="libnolimits/NL2/Coaster\l/Track/Section/Station.h">
<polygon fill="none" stroke="#ff0000" points="221.7759,-65.5 221.7759,-93.5 343.5718,-93.5 343.5718,-65.5 221.7759,-65.5"/>
<text text-anchor="start" x="229.7759" y="-81.5" font-family="Helvetica,sans-Serif" font-size="10.00" fill="#000000">libnolimits/NL2/Coaster</text>
<text text-anchor="middle" x="282.6738" y="-71.5" font-family="Helvetica,sans-Serif" font-size="10.00" fill="#000000">/Track/Section/Station.h</text>
</a>
</g>
</g>
<!-- Node19&#45;&gt;Node24 -->
<g id="edge7" class="edge">
<title>Node19&#45;&gt;Node24</title>
<path fill="none" stroke="#191970" d="M392.089,-251.1506C387.675,-242.6822 382.7939,-232.988 378.6738,-224 359.8963,-183.0363 366.8306,-166.6938 340.6738,-130 330.5214,-115.7578 315.5717,-102.8678 303.3929,-93.6756"/>
<polygon fill="#191970" stroke="#191970" points="389.0439,-252.8795 396.8086,-260.0879 395.2338,-249.6107 389.0439,-252.8795"/>
</g>
<!-- Node27 -->
<g id="node7" class="node">
<title>Node27</title>
<g id="a_node7"><a xlink:href="_storage_8h.html" target="_top" xlink:title="libnolimits/NL2/Coaster\l/Track/Section/Storage.h">
<polygon fill="none" stroke="#000000" points="387.8301,-195.5 387.8301,-223.5 513.5176,-223.5 513.5176,-195.5 387.8301,-195.5"/>
<text text-anchor="start" x="395.8301" y="-211.5" font-family="Helvetica,sans-Serif" font-size="10.00" fill="#000000">libnolimits/NL2/Coaster</text>
<text text-anchor="middle" x="450.6738" y="-201.5" font-family="Helvetica,sans-Serif" font-size="10.00" fill="#000000">/Track/Section/Storage.h</text>
</a>
</g>
</g>
<!-- Node19&#45;&gt;Node27 -->
<g id="edge8" class="edge">
<title>Node19&#45;&gt;Node27</title>
<path fill="none" stroke="#191970" d="M420.4855,-252.1575C427.1935,-242.6788 434.8084,-231.9186 440.712,-223.5765"/>
<polygon fill="#191970" stroke="#191970" points="417.5749,-250.2114 414.6551,-260.396 423.2888,-254.2551 417.5749,-250.2114"/>
</g>
<!-- Node29 -->
<g id="node9" class="node">
<title>Node29</title>
<g id="a_node9"><a xlink:href="_transport_device_8cpp.html" target="_top" xlink:title="libnolimits/NL2/Coaster\l/Track/Section/TransportDevice.cpp">
<polygon fill="none" stroke="#000000" points="531.5649,-195.5 531.5649,-223.5 705.7827,-223.5 705.7827,-195.5 531.5649,-195.5"/>
<text text-anchor="start" x="539.5649" y="-211.5" font-family="Helvetica,sans-Serif" font-size="10.00" fill="#000000">libnolimits/NL2/Coaster</text>
<text text-anchor="middle" x="618.6738" y="-201.5" font-family="Helvetica,sans-Serif" font-size="10.00" fill="#000000">/Track/Section/TransportDevice.cpp</text>
</a>
</g>
</g>
<!-- Node19&#45;&gt;Node29 -->
<g id="edge11" class="edge">
<title>Node19&#45;&gt;Node29</title>
<path fill="none" stroke="#191970" d="M460.8266,-257.4442C495.516,-246.9078 539.4955,-233.5495 572.2164,-223.6109"/>
<polygon fill="#191970" stroke="#191970" points="459.3963,-254.2207 450.8452,-260.476 461.4308,-260.9186 459.3963,-254.2207"/>
</g>
<!-- Node21 -->
<g id="node3" class="node">
<title>Node21</title>
<g id="a_node3"><a xlink:href="_brake_8cpp.html" target="_top" xlink:title="libnolimits/NL2/Coaster\l/Track/Section/Brake.cpp">
<polygon fill="none" stroke="#000000" points="0,-130.5 0,-158.5 127.3477,-158.5 127.3477,-130.5 0,-130.5"/>
<text text-anchor="start" x="8" y="-146.5" font-family="Helvetica,sans-Serif" font-size="10.00" fill="#000000">libnolimits/NL2/Coaster</text>
<text text-anchor="middle" x="63.6738" y="-136.5" font-family="Helvetica,sans-Serif" font-size="10.00" fill="#000000">/Track/Section/Brake.cpp</text>
</a>
</g>
</g>
<!-- Node20&#45;&gt;Node21 -->
<g id="edge2" class="edge">
<title>Node20&#45;&gt;Node21</title>
<path fill="none" stroke="#191970" d="M166.261,-191.1305C143.5393,-180.8025 115.6164,-168.1103 94.6421,-158.5765"/>
<polygon fill="#191970" stroke="#191970" points="165.093,-194.4442 175.645,-195.396 167.9896,-188.0716 165.093,-194.4442"/>
</g>
<!-- Node22 -->
<g id="node4" class="node">
<title>Node22</title>
<g id="a_node4"><a xlink:href="_brake_device_8h.html" target="_top" xlink:title="libnolimits/NL2/Coaster\l/Track/Section/BrakeDevice.h">
<polygon fill="none" stroke="#ff0000" points="183.9976,-130.5 183.9976,-158.5 331.3501,-158.5 331.3501,-130.5 183.9976,-130.5"/>
<text text-anchor="start" x="191.9976" y="-146.5" font-family="Helvetica,sans-Serif" font-size="10.00" fill="#000000">libnolimits/NL2/Coaster</text>
<text text-anchor="middle" x="257.6738" y="-136.5" font-family="Helvetica,sans-Serif" font-size="10.00" fill="#000000">/Track/Section/BrakeDevice.h</text>
</a>
</g>
</g>
<!-- Node20&#45;&gt;Node22 -->
<g id="edge3" class="edge">
<title>Node20&#45;&gt;Node22</title>
<path fill="none" stroke="#191970" d="M223.9768,-187.4472C231.4687,-177.8986 240.0171,-167.0037 246.6292,-158.5765"/>
<polygon fill="#191970" stroke="#191970" points="221.1594,-185.368 217.7401,-195.396 226.6666,-189.6891 221.1594,-185.368"/>
</g>
<!-- Node25 -->
<g id="node6" class="node">
<title>Node25</title>
<g id="a_node6"><a xlink:href="_section_8cpp.html" target="_top" xlink:title="libnolimits/NL2/Coaster\l/Track/Section/Section.cpp">
<polygon fill="none" stroke="#000000" points="215.3843,-.5 215.3843,-28.5 349.9634,-28.5 349.9634,-.5 215.3843,-.5"/>
<text text-anchor="start" x="223.3843" y="-16.5" font-family="Helvetica,sans-Serif" font-size="10.00" fill="#000000">libnolimits/NL2/Coaster</text>
<text text-anchor="middle" x="282.6738" y="-6.5" font-family="Helvetica,sans-Serif" font-size="10.00" fill="#000000">/Track/Section/Section.cpp</text>
</a>
</g>
</g>
<!-- Node20&#45;&gt;Node25 -->
<g id="edge6" class="edge">
<title>Node20&#45;&gt;Node25</title>
<path fill="none" stroke="#191970" d="M188.4597,-186.8014C182.9065,-178.5393 177.5201,-168.8093 174.6738,-159 171.0822,-146.6217 171.3041,-142.4406 174.6738,-130 183.4226,-97.7004 190.1734,-89.7696 212.6738,-65 225.7725,-50.5804 243.619,-37.7831 258.0135,-28.6788"/>
<polygon fill="#191970" stroke="#191970" points="185.762,-189.0451 194.4387,-195.125 191.4472,-184.9612 185.762,-189.0451"/>
</g>
<!-- Node22&#45;&gt;Node24 -->
<g id="edge4" class="edge">
<title>Node22&#45;&gt;Node24</title>
<path fill="none" stroke="#191970" d="M266.7159,-120.9907C270.249,-111.8044 274.1823,-101.5781 277.2598,-93.5765"/>
<polygon fill="#191970" stroke="#191970" points="263.4216,-119.8061 263.0985,-130.396 269.955,-122.319 263.4216,-119.8061"/>
</g>
<!-- Node24&#45;&gt;Node25 -->
<g id="edge5" class="edge">
<title>Node24&#45;&gt;Node25</title>
<path fill="none" stroke="#191970" d="M282.6738,-55.1081C282.6738,-46.1539 282.6738,-36.3227 282.6738,-28.5765"/>
<polygon fill="#191970" stroke="#191970" points="279.1739,-55.3959 282.6738,-65.396 286.1739,-55.396 279.1739,-55.3959"/>
</g>
<!-- Node27&#45;&gt;Node25 -->
<g id="edge9" class="edge">
<title>Node27&#45;&gt;Node25</title>
<path fill="none" stroke="#191970" d="M435.3928,-186.8612C408.1578,-146.5272 353.9379,-66.3013 352.6738,-65 338.8913,-50.8116 320.7112,-37.8286 306.3328,-28.5802"/>
<polygon fill="#191970" stroke="#191970" points="432.5781,-188.9472 441.0745,-195.2767 438.3797,-185.0303 432.5781,-188.9472"/>
</g>
<!-- Node28 -->
<g id="node8" class="node">
<title>Node28</title>
<g id="a_node8"><a xlink:href="_storage_8cpp.html" target="_top" xlink:title="libnolimits/NL2/Coaster\l/Track/Section/Storage.cpp">
<polygon fill="none" stroke="#000000" points="425.5493,-130.5 425.5493,-158.5 561.7983,-158.5 561.7983,-130.5 425.5493,-130.5"/>
<text text-anchor="start" x="433.5493" y="-146.5" font-family="Helvetica,sans-Serif" font-size="10.00" fill="#000000">libnolimits/NL2/Coaster</text>
<text text-anchor="middle" x="493.6738" y="-136.5" font-family="Helvetica,sans-Serif" font-size="10.00" fill="#000000">/Track/Section/Storage.cpp</text>
</a>
</g>
</g>
<!-- Node27&#45;&gt;Node28 -->
<g id="edge10" class="edge">
<title>Node27&#45;&gt;Node28</title>
<path fill="none" stroke="#191970" d="M465.6465,-186.8669C471.8699,-177.4594 478.8994,-166.8334 484.3617,-158.5765"/>
<polygon fill="#191970" stroke="#191970" points="462.6025,-185.1247 460.0042,-195.396 468.4407,-188.9869 462.6025,-185.1247"/>
</g>
</g>
</svg>
