<?xml version="1.0" encoding="UTF-8" standalone="no"?>
<!DOCTYPE svg PUBLIC "-//W3C//DTD SVG 1.1//EN"
 "http://www.w3.org/Graphics/SVG/1.1/DTD/svg11.dtd">
<!-- Generated by graphviz version 2.40.1 (20161225.0304)
 -->
<!-- Title: libnolimits/NL2/Coaster/Track/TransferTable.cpp Pages: 1 -->
<svg width="257pt" height="202pt"
 viewBox="0.00 0.00 256.53 202.00" xmlns="http://www.w3.org/2000/svg" xmlns:xlink="http://www.w3.org/1999/xlink">
<g id="graph0" class="graph" transform="scale(1 1) rotate(0) translate(4 198)">
<title>libnolimits/NL2/Coaster/Track/TransferTable.cpp</title>
<!-- Node0 -->
<g id="node1" class="node">
<title>Node0</title>
<polygon fill="#bfbfbf" stroke="#000000" points="72.6841,-165.5 72.6841,-193.5 198.5474,-193.5 198.5474,-165.5 72.6841,-165.5"/>
<text text-anchor="start" x="80.6841" y="-181.5" font-family="Helvetica,sans-Serif" font-size="10.00" fill="#000000">libnolimits/NL2/Coaster</text>
<text text-anchor="middle" x="135.6157" y="-171.5" font-family="Helvetica,sans-Serif" font-size="10.00" fill="#000000">/Track/TransferTable.cpp</text>
</g>
<!-- Node1 -->
<g id="node2" class="node">
<title>Node1</title>
<g id="a_node2"><a xlink:href="_transfer_table_8h.html" target="_top" xlink:title="TransferTable.h">
<polygon fill="none" stroke="#000000" points="49.0601,-110.5 49.0601,-128.5 134.1714,-128.5 134.1714,-110.5 49.0601,-110.5"/>
<text text-anchor="middle" x="91.6157" y="-116.5" font-family="Helvetica,sans-Serif" font-size="10.00" fill="#000000">TransferTable.h</text>
</a>
</g>
</g>
<!-- Node0&#45;&gt;Node1 -->
<g id="edge1" class="edge">
<title>Node0&#45;&gt;Node1</title>
<path fill="none" stroke="#191970" d="M125.1883,-165.2808C118.9368,-156.756 110.9423,-145.8545 104.323,-136.8281"/>
<polygon fill="#191970" stroke="#191970" points="107.0136,-134.5785 98.2775,-128.5842 101.3687,-138.718 107.0136,-134.5785"/>
</g>
<!-- Node13 -->
<g id="node7" class="node">
<title>Node13</title>
<polygon fill="none" stroke="#bfbfbf" points="152.4434,-110.5 152.4434,-128.5 206.7881,-128.5 206.7881,-110.5 152.4434,-110.5"/>
<text text-anchor="middle" x="179.6157" y="-116.5" font-family="Helvetica,sans-Serif" font-size="10.00" fill="#000000">iostream</text>
</g>
<!-- Node0&#45;&gt;Node13 -->
<g id="edge8" class="edge">
<title>Node0&#45;&gt;Node13</title>
<path fill="none" stroke="#191970" d="M146.0431,-165.2808C152.2947,-156.756 160.2891,-145.8545 166.9085,-136.8281"/>
<polygon fill="#191970" stroke="#191970" points="169.8627,-138.718 172.954,-128.5842 164.2179,-134.5785 169.8627,-138.718"/>
</g>
<!-- Node2 -->
<g id="node3" class="node">
<title>Node2</title>
<polygon fill="none" stroke="#bfbfbf" points="0,-.5 0,-18.5 43.2314,-18.5 43.2314,-.5 0,-.5"/>
<text text-anchor="middle" x="21.6157" y="-6.5" font-family="Helvetica,sans-Serif" font-size="10.00" fill="#000000">vector</text>
</g>
<!-- Node1&#45;&gt;Node2 -->
<g id="edge2" class="edge">
<title>Node1&#45;&gt;Node2</title>
<path fill="none" stroke="#191970" d="M57.7633,-110.4293C39.4792,-103.6141 18.4792,-92.2391 7.6157,-74 -.783,-59.899 4.5993,-41.3855 10.9706,-27.8115"/>
<polygon fill="#191970" stroke="#191970" points="14.0796,-29.4192 15.6019,-18.9343 7.8733,-26.1814 14.0796,-29.4192"/>
</g>
<!-- Node3 -->
<g id="node4" class="node">
<title>Node3</title>
<g id="a_node4"><a xlink:href="_special_track_8h.html" target="_top" xlink:title="SpecialTrack.h">
<polygon fill="none" stroke="#ff0000" points="16.73,-55.5 16.73,-73.5 98.5015,-73.5 98.5015,-55.5 16.73,-55.5"/>
<text text-anchor="middle" x="57.6157" y="-61.5" font-family="Helvetica,sans-Serif" font-size="10.00" fill="#000000">SpecialTrack.h</text>
</a>
</g>
</g>
<!-- Node1&#45;&gt;Node3 -->
<g id="edge3" class="edge">
<title>Node1&#45;&gt;Node3</title>
<path fill="none" stroke="#191970" d="M86.0013,-110.4179C81.3049,-102.8207 74.4628,-91.7527 68.6729,-82.3866"/>
<polygon fill="#191970" stroke="#191970" points="71.5875,-80.445 63.3521,-73.7795 65.6333,-84.1258 71.5875,-80.445"/>
</g>
<!-- Node22 -->
<g id="node5" class="node">
<title>Node22</title>
<g id="a_node5"><a xlink:href="_segment_8h.html" target="_top" xlink:title="Segment.h">
<polygon fill="none" stroke="#ff0000" points="77.4336,-.5 77.4336,-18.5 141.7979,-18.5 141.7979,-.5 77.4336,-.5"/>
<text text-anchor="middle" x="109.6157" y="-6.5" font-family="Helvetica,sans-Serif" font-size="10.00" fill="#000000">Segment.h</text>
</a>
</g>
</g>
<!-- Node1&#45;&gt;Node22 -->
<g id="edge7" class="edge">
<title>Node1&#45;&gt;Node22</title>
<path fill="none" stroke="#191970" d="M95.7873,-110.3192C99.662,-101.2891 105.1877,-87.0054 107.6157,-74 110.4146,-59.0085 110.8024,-41.7231 110.5519,-28.822"/>
<polygon fill="#191970" stroke="#191970" points="114.0484,-28.657 110.212,-18.7811 107.0524,-28.8938 114.0484,-28.657"/>
</g>
<!-- Node21 -->
<g id="node6" class="node">
<title>Node21</title>
<g id="a_node6"><a xlink:href="_n_l2_2_coaster_2_track_2_section_2_section_8h.html" target="_top" xlink:title="Section/Section.h">
<polygon fill="none" stroke="#ff0000" points="154.7021,-55.5 154.7021,-73.5 248.5293,-73.5 248.5293,-55.5 154.7021,-55.5"/>
<text text-anchor="middle" x="201.6157" y="-61.5" font-family="Helvetica,sans-Serif" font-size="10.00" fill="#000000">Section/Section.h</text>
</a>
</g>
</g>
<!-- Node1&#45;&gt;Node21 -->
<g id="edge6" class="edge">
<title>Node1&#45;&gt;Node21</title>
<path fill="none" stroke="#191970" d="M109.78,-110.4179C127.3747,-101.6205 154.2775,-88.1691 174.4245,-78.0956"/>
<polygon fill="#191970" stroke="#191970" points="176.0455,-81.1983 183.4245,-73.5956 172.9149,-74.9373 176.0455,-81.1983"/>
</g>
<!-- Node3&#45;&gt;Node2 -->
<g id="edge4" class="edge">
<title>Node3&#45;&gt;Node2</title>
<path fill="none" stroke="#191970" d="M51.6711,-55.4179C46.6983,-47.8207 39.4538,-36.7527 33.3233,-27.3866"/>
<polygon fill="#191970" stroke="#191970" points="36.0946,-25.2297 27.6895,-18.7795 30.2377,-29.0633 36.0946,-25.2297"/>
</g>
<!-- Node3&#45;&gt;Node22 -->
<g id="edge5" class="edge">
<title>Node3&#45;&gt;Node22</title>
<path fill="none" stroke="#191970" d="M66.2025,-55.4179C73.6846,-47.5041 84.7273,-35.8243 93.8029,-26.2251"/>
<polygon fill="#191970" stroke="#191970" points="96.5155,-28.4505 100.8424,-18.7795 91.429,-23.6414 96.5155,-28.4505"/>
</g>
</g>
</svg>
