<?xml version="1.0" encoding="UTF-8" standalone="no"?>
<!DOCTYPE svg PUBLIC "-//W3C//DTD SVG 1.1//EN"
 "http://www.w3.org/Graphics/SVG/1.1/DTD/svg11.dtd">
<!-- Generated by graphviz version 2.40.1 (20161225.0304)
 -->
<!-- Title: libnolimits/NL2/Coaster/Track/Section/TransportDevice.h Pages: 1 -->
<svg width="183pt" height="212pt"
 viewBox="0.00 0.00 182.68 212.00" xmlns="http://www.w3.org/2000/svg" xmlns:xlink="http://www.w3.org/1999/xlink">
<g id="graph0" class="graph" transform="scale(1 1) rotate(0) translate(4 208)">
<title>libnolimits/NL2/Coaster/Track/Section/TransportDevice.h</title>
<!-- Node0 -->
<g id="node1" class="node">
<title>Node0</title>
<polygon fill="#bfbfbf" stroke="#000000" points="11.019,-175.5 11.019,-203.5 174.6753,-203.5 174.6753,-175.5 11.019,-175.5"/>
<text text-anchor="start" x="19.019" y="-191.5" font-family="Helvetica,sans-Serif" font-size="10.00" fill="#000000">libnolimits/NL2/Coaster</text>
<text text-anchor="middle" x="92.8472" y="-181.5" font-family="Helvetica,sans-Serif" font-size="10.00" fill="#000000">/Track/Section/TransportDevice.h</text>
</g>
<!-- Node1 -->
<g id="node2" class="node">
<title>Node1</title>
<g id="a_node2"><a xlink:href="_transport_8h.html" target="_top" xlink:title="Transport.h">
<polygon fill="none" stroke="#000000" points="29.4639,-120.5 29.4639,-138.5 96.2305,-138.5 96.2305,-120.5 29.4639,-120.5"/>
<text text-anchor="middle" x="62.8472" y="-126.5" font-family="Helvetica,sans-Serif" font-size="10.00" fill="#000000">Transport.h</text>
</a>
</g>
</g>
<!-- Node0&#45;&gt;Node1 -->
<g id="edge1" class="edge">
<title>Node0&#45;&gt;Node1</title>
<path fill="none" stroke="#191970" d="M85.7376,-175.2808C81.6084,-167.0224 76.3639,-156.5335 71.937,-147.6796"/>
<polygon fill="#191970" stroke="#191970" points="74.992,-145.9632 67.3893,-138.5842 68.731,-149.0937 74.992,-145.9632"/>
</g>
<!-- Node3 -->
<g id="node4" class="node">
<title>Node3</title>
<g id="a_node4"><a xlink:href="_chunk_8h.html" target="_top" xlink:title="../../../../Stream\l/Chunk.h">
<polygon fill="none" stroke="#ff0000" points="45.0615,-.5 45.0615,-28.5 126.6328,-28.5 126.6328,-.5 45.0615,-.5"/>
<text text-anchor="start" x="53.0615" y="-16.5" font-family="Helvetica,sans-Serif" font-size="10.00" fill="#000000">../../../../Stream</text>
<text text-anchor="middle" x="85.8472" y="-6.5" font-family="Helvetica,sans-Serif" font-size="10.00" fill="#000000">/Chunk.h</text>
</a>
</g>
</g>
<!-- Node0&#45;&gt;Node3 -->
<g id="edge5" class="edge">
<title>Node0&#45;&gt;Node3</title>
<path fill="none" stroke="#191970" d="M97.223,-175.0756C100.0258,-165.0611 103.3998,-151.3513 104.8472,-139 108.9664,-103.8468 100.2794,-63.3707 93.3346,-38.3588"/>
<polygon fill="#191970" stroke="#191970" points="96.6629,-37.2699 90.5073,-28.6468 89.9419,-39.2265 96.6629,-37.2699"/>
</g>
<!-- Node2 -->
<g id="node3" class="node">
<title>Node2</title>
<g id="a_node3"><a xlink:href="_section_8h.html" target="_top" xlink:title="Section.h">
<polygon fill="none" stroke="#000000" points="0,-65.5 0,-83.5 57.6943,-83.5 57.6943,-65.5 0,-65.5"/>
<text text-anchor="middle" x="28.8472" y="-71.5" font-family="Helvetica,sans-Serif" font-size="10.00" fill="#000000">Section.h</text>
</a>
</g>
</g>
<!-- Node1&#45;&gt;Node2 -->
<g id="edge2" class="edge">
<title>Node1&#45;&gt;Node2</title>
<path fill="none" stroke="#191970" d="M57.2328,-120.4179C52.5363,-112.8207 45.6943,-101.7527 39.9043,-92.3866"/>
<polygon fill="#191970" stroke="#191970" points="42.8189,-90.445 34.5836,-83.7795 36.8647,-94.1258 42.8189,-90.445"/>
</g>
<!-- Node1&#45;&gt;Node3 -->
<g id="edge4" class="edge">
<title>Node1&#45;&gt;Node3</title>
<path fill="none" stroke="#191970" d="M64.6519,-120.4761C68.136,-103.0557 75.8942,-64.265 80.9949,-38.7612"/>
<polygon fill="#191970" stroke="#191970" points="84.4689,-39.2377 82.9981,-28.7455 77.6048,-37.8649 84.4689,-39.2377"/>
</g>
<!-- Node2&#45;&gt;Node3 -->
<g id="edge3" class="edge">
<title>Node2&#45;&gt;Node3</title>
<path fill="none" stroke="#191970" d="M37.5042,-65.3873C44.8503,-57.6546 55.688,-46.2465 65.2411,-36.1906"/>
<polygon fill="#191970" stroke="#191970" points="67.8669,-38.5083 72.2169,-28.8477 62.7919,-33.687 67.8669,-38.5083"/>
</g>
</g>
</svg>
