<?xml version="1.0" encoding="UTF-8" standalone="no"?>
<!DOCTYPE svg PUBLIC "-//W3C//DTD SVG 1.1//EN"
 "http://www.w3.org/Graphics/SVG/1.1/DTD/svg11.dtd">
<!-- Generated by graphviz version 2.40.1 (20161225.0304)
 -->
<!-- Title: libnolimits/NL2/Coaster/Track/Trigger.cpp Pages: 1 -->
<svg width="127pt" height="147pt"
 viewBox="0.00 0.00 126.82 147.00" xmlns="http://www.w3.org/2000/svg" xmlns:xlink="http://www.w3.org/1999/xlink">
<g id="graph0" class="graph" transform="scale(1 1) rotate(0) translate(4 143)">
<title>libnolimits/NL2/Coaster/Track/Trigger.cpp</title>
<!-- Node0 -->
<g id="node1" class="node">
<title>Node0</title>
<polygon fill="#bfbfbf" stroke="#000000" points="0,-110.5 0,-138.5 118.8174,-138.5 118.8174,-110.5 0,-110.5"/>
<text text-anchor="start" x="8" y="-126.5" font-family="Helvetica,sans-Serif" font-size="10.00" fill="#000000">libnolimits/NL2/Coaster</text>
<text text-anchor="middle" x="59.4087" y="-116.5" font-family="Helvetica,sans-Serif" font-size="10.00" fill="#000000">/Track/Trigger.cpp</text>
</g>
<!-- Node1 -->
<g id="node2" class="node">
<title>Node1</title>
<g id="a_node2"><a xlink:href="_trigger_8h.html" target="_top" xlink:title="Trigger.h">
<polygon fill="none" stroke="#000000" points="31.8579,-55.5 31.8579,-73.5 86.9595,-73.5 86.9595,-55.5 31.8579,-55.5"/>
<text text-anchor="middle" x="59.4087" y="-61.5" font-family="Helvetica,sans-Serif" font-size="10.00" fill="#000000">Trigger.h</text>
</a>
</g>
</g>
<!-- Node0&#45;&gt;Node1 -->
<g id="edge1" class="edge">
<title>Node0&#45;&gt;Node1</title>
<path fill="none" stroke="#191970" d="M59.4087,-110.2808C59.4087,-102.3776 59.4087,-92.4316 59.4087,-83.8308"/>
<polygon fill="#191970" stroke="#191970" points="62.9088,-83.5842 59.4087,-73.5842 55.9088,-83.5842 62.9088,-83.5842"/>
</g>
<!-- Node2 -->
<g id="node3" class="node">
<title>Node2</title>
<g id="a_node3"><a xlink:href="_chunk_8h.html" target="_top" xlink:title="../../../Stream/Chunk.h">
<polygon fill="none" stroke="#ff0000" points="2.7783,-.5 2.7783,-18.5 116.0391,-18.5 116.0391,-.5 2.7783,-.5"/>
<text text-anchor="middle" x="59.4087" y="-6.5" font-family="Helvetica,sans-Serif" font-size="10.00" fill="#000000">../../../Stream/Chunk.h</text>
</a>
</g>
</g>
<!-- Node1&#45;&gt;Node2 -->
<g id="edge2" class="edge">
<title>Node1&#45;&gt;Node2</title>
<path fill="none" stroke="#191970" d="M59.4087,-55.4179C59.4087,-48.2164 59.4087,-37.8962 59.4087,-28.8632"/>
<polygon fill="#191970" stroke="#191970" points="62.9088,-28.7794 59.4087,-18.7795 55.9088,-28.7795 62.9088,-28.7794"/>
</g>
</g>
</svg>
