<?xml version="1.0" encoding="UTF-8" standalone="no"?>
<!DOCTYPE svg PUBLIC "-//W3C//DTD SVG 1.1//EN"
 "http://www.w3.org/Graphics/SVG/1.1/DTD/svg11.dtd">
<!-- Generated by graphviz version 2.40.1 (20161225.0304)
 -->
<!-- Title: libnolimits/NL2/Uspk.cpp Pages: 1 -->
<svg width="153pt" height="137pt"
 viewBox="0.00 0.00 153.04 137.00" xmlns="http://www.w3.org/2000/svg" xmlns:xlink="http://www.w3.org/1999/xlink">
<g id="graph0" class="graph" transform="scale(1 1) rotate(0) translate(4 133)">
<title>libnolimits/NL2/Uspk.cpp</title>
<!-- Node0 -->
<g id="node1" class="node">
<title>Node0</title>
<polygon fill="#bfbfbf" stroke="#000000" points="19.5518,-110.5 19.5518,-128.5 145.0391,-128.5 145.0391,-110.5 19.5518,-110.5"/>
<text text-anchor="middle" x="82.2954" y="-116.5" font-family="Helvetica,sans-Serif" font-size="10.00" fill="#000000">libnolimits/NL2/Uspk.cpp</text>
</g>
<!-- Node1 -->
<g id="node2" class="node">
<title>Node1</title>
<g id="a_node2"><a xlink:href="_uspk_8h.html" target="_top" xlink:title="Uspk.h">
<polygon fill="none" stroke="#000000" points="24.7339,-55.5 24.7339,-73.5 71.8569,-73.5 71.8569,-55.5 24.7339,-55.5"/>
<text text-anchor="middle" x="48.2954" y="-61.5" font-family="Helvetica,sans-Serif" font-size="10.00" fill="#000000">Uspk.h</text>
</a>
</g>
</g>
<!-- Node0&#45;&gt;Node1 -->
<g id="edge1" class="edge">
<title>Node0&#45;&gt;Node1</title>
<path fill="none" stroke="#191970" d="M76.681,-110.4179C71.9846,-102.8207 65.1425,-91.7527 59.3526,-82.3866"/>
<polygon fill="#191970" stroke="#191970" points="62.2672,-80.445 54.0318,-73.7795 56.313,-84.1258 62.2672,-80.445"/>
</g>
<!-- Node11 -->
<g id="node4" class="node">
<title>Node11</title>
<polygon fill="none" stroke="#bfbfbf" points="90.123,-55.5 90.123,-73.5 144.4678,-73.5 144.4678,-55.5 90.123,-55.5"/>
<text text-anchor="middle" x="117.2954" y="-61.5" font-family="Helvetica,sans-Serif" font-size="10.00" fill="#000000">iostream</text>
</g>
<!-- Node0&#45;&gt;Node11 -->
<g id="edge3" class="edge">
<title>Node0&#45;&gt;Node11</title>
<path fill="none" stroke="#191970" d="M88.0749,-110.4179C92.9095,-102.8207 99.9528,-91.7527 105.913,-82.3866"/>
<polygon fill="#191970" stroke="#191970" points="108.9743,-84.0952 111.3903,-73.7795 103.0687,-80.337 108.9743,-84.0952"/>
</g>
<!-- Node2 -->
<g id="node3" class="node">
<title>Node2</title>
<g id="a_node3"><a xlink:href="_chunk_8h.html" target="_top" xlink:title="../Stream/Chunk.h">
<polygon fill="none" stroke="#ff0000" points="0,-.5 0,-18.5 96.5908,-18.5 96.5908,-.5 0,-.5"/>
<text text-anchor="middle" x="48.2954" y="-6.5" font-family="Helvetica,sans-Serif" font-size="10.00" fill="#000000">../Stream/Chunk.h</text>
</a>
</g>
</g>
<!-- Node1&#45;&gt;Node2 -->
<g id="edge2" class="edge">
<title>Node1&#45;&gt;Node2</title>
<path fill="none" stroke="#191970" d="M48.2954,-55.4179C48.2954,-48.2164 48.2954,-37.8962 48.2954,-28.8632"/>
<polygon fill="#191970" stroke="#191970" points="51.7955,-28.7794 48.2954,-18.7795 44.7955,-28.7795 51.7955,-28.7794"/>
</g>
</g>
</svg>
