<?xml version="1.0" encoding="UTF-8" standalone="no"?>
<!DOCTYPE svg PUBLIC "-//W3C//DTD SVG 1.1//EN"
 "http://www.w3.org/Graphics/SVG/1.1/DTD/svg11.dtd">
<!-- Generated by graphviz version 2.40.1 (20161225.0304)
 -->
<!-- Title: libnolimits/NL2/Uspk.h Pages: 1 -->
<svg width="269pt" height="137pt"
 viewBox="0.00 0.00 269.38 137.00" xmlns="http://www.w3.org/2000/svg" xmlns:xlink="http://www.w3.org/1999/xlink">
<g id="graph0" class="graph" transform="scale(1 1) rotate(0) translate(4 133)">
<title>libnolimits/NL2/Uspk.h</title>
<!-- Node17 -->
<g id="node1" class="node">
<title>Node17</title>
<polygon fill="#bfbfbf" stroke="#000000" points="72.1699,-110.5 72.1699,-128.5 187.0957,-128.5 187.0957,-110.5 72.1699,-110.5"/>
<text text-anchor="middle" x="129.6328" y="-116.5" font-family="Helvetica,sans-Serif" font-size="10.00" fill="#000000">libnolimits/NL2/Uspk.h</text>
</g>
<!-- Node18 -->
<g id="node2" class="node">
<title>Node18</title>
<g id="a_node2"><a xlink:href="_park_8h.html" target="_top" xlink:title="libnolimits/NL2/Park.h">
<polygon fill="none" stroke="#000000" points="5.2808,-55.5 5.2808,-73.5 117.9849,-73.5 117.9849,-55.5 5.2808,-55.5"/>
<text text-anchor="middle" x="61.6328" y="-61.5" font-family="Helvetica,sans-Serif" font-size="10.00" fill="#000000">libnolimits/NL2/Park.h</text>
</a>
</g>
</g>
<!-- Node17&#45;&gt;Node18 -->
<g id="edge1" class="edge">
<title>Node17&#45;&gt;Node18</title>
<path fill="none" stroke="#191970" d="M110.3057,-103.8678C98.2953,-94.1535 83.2623,-81.9944 73.1056,-73.7795"/>
<polygon fill="#191970" stroke="#191970" points="108.4278,-106.8504 118.404,-110.4179 112.8299,-101.4078 108.4278,-106.8504"/>
</g>
<!-- Node20 -->
<g id="node4" class="node">
<title>Node20</title>
<g id="a_node4"><a xlink:href="_uspk_8cpp.html" target="_top" xlink:title="libnolimits/NL2/Uspk.cpp">
<polygon fill="none" stroke="#000000" points="135.8892,-55.5 135.8892,-73.5 261.3765,-73.5 261.3765,-55.5 135.8892,-55.5"/>
<text text-anchor="middle" x="198.6328" y="-61.5" font-family="Helvetica,sans-Serif" font-size="10.00" fill="#000000">libnolimits/NL2/Uspk.cpp</text>
</a>
</g>
</g>
<!-- Node17&#45;&gt;Node20 -->
<g id="edge3" class="edge">
<title>Node17&#45;&gt;Node20</title>
<path fill="none" stroke="#191970" d="M148.8901,-104.15C161.1345,-94.3899 176.5852,-82.0742 186.9913,-73.7795"/>
<polygon fill="#191970" stroke="#191970" points="146.6649,-101.4478 141.0268,-110.4179 151.0281,-106.9216 146.6649,-101.4478"/>
</g>
<!-- Node19 -->
<g id="node3" class="node">
<title>Node19</title>
<g id="a_node3"><a xlink:href="_park_8cpp.html" target="_top" xlink:title="libnolimits/NL2/Park.cpp">
<polygon fill="none" stroke="#000000" points="0,-.5 0,-18.5 123.2656,-18.5 123.2656,-.5 0,-.5"/>
<text text-anchor="middle" x="61.6328" y="-6.5" font-family="Helvetica,sans-Serif" font-size="10.00" fill="#000000">libnolimits/NL2/Park.cpp</text>
</a>
</g>
</g>
<!-- Node18&#45;&gt;Node19 -->
<g id="edge2" class="edge">
<title>Node18&#45;&gt;Node19</title>
<path fill="none" stroke="#191970" d="M61.6328,-45.383C61.6328,-36.3738 61.6328,-26.0373 61.6328,-18.7795"/>
<polygon fill="#191970" stroke="#191970" points="58.1329,-45.4178 61.6328,-55.4179 65.1329,-45.4179 58.1329,-45.4178"/>
</g>
</g>
</svg>
