<?xml version="1.0" encoding="UTF-8" standalone="no"?>
<!DOCTYPE svg PUBLIC "-//W3C//DTD SVG 1.1//EN"
 "http://www.w3.org/Graphics/SVG/1.1/DTD/svg11.dtd">
<!-- Generated by graphviz version 2.40.1 (20161225.0304)
 -->
<!-- Title: libnolimits/NL2/Info/Version.h Pages: 1 -->
<svg width="208pt" height="312pt"
 viewBox="0.00 0.00 208.28 312.00" xmlns="http://www.w3.org/2000/svg" xmlns:xlink="http://www.w3.org/1999/xlink">
<g id="graph0" class="graph" transform="scale(1 1) rotate(0) translate(4 308)">
<title>libnolimits/NL2/Info/Version.h</title>
<!-- Node0 -->
<g id="node1" class="node">
<title>Node0</title>
<polygon fill="#bfbfbf" stroke="#000000" points="50.042,-275.5 50.042,-303.5 150.5244,-303.5 150.5244,-275.5 50.042,-275.5"/>
<text text-anchor="start" x="58.042" y="-291.5" font-family="Helvetica,sans-Serif" font-size="10.00" fill="#000000">libnolimits/NL2/Info</text>
<text text-anchor="middle" x="100.2832" y="-281.5" font-family="Helvetica,sans-Serif" font-size="10.00" fill="#000000">/Version.h</text>
</g>
<!-- Node1 -->
<g id="node2" class="node">
<title>Node1</title>
<g id="a_node2"><a xlink:href="_nolimits_8h.html" target="_top" xlink:title="../../Nolimits.h">
<polygon fill="none" stroke="#000000" points="0,-110.5 0,-128.5 76.5664,-128.5 76.5664,-110.5 0,-110.5"/>
<text text-anchor="middle" x="38.2832" y="-116.5" font-family="Helvetica,sans-Serif" font-size="10.00" fill="#000000">../../Nolimits.h</text>
</a>
</g>
</g>
<!-- Node0&#45;&gt;Node1 -->
<g id="edge1" class="edge">
<title>Node0&#45;&gt;Node1</title>
<path fill="none" stroke="#191970" d="M74.1929,-275.3471C61.1442,-266.7258 46.6037,-254.3964 39.2832,-239 23.8318,-206.5028 28.8578,-163.189 33.7067,-138.6309"/>
<polygon fill="#191970" stroke="#191970" points="37.1454,-139.2885 35.848,-128.7734 30.305,-137.8026 37.1454,-139.2885"/>
</g>
<!-- Node7 -->
<g id="node5" class="node">
<title>Node7</title>
<polygon fill="none" stroke="#bfbfbf" points="97.0566,-.5 97.0566,-18.5 137.5098,-18.5 137.5098,-.5 97.0566,-.5"/>
<text text-anchor="middle" x="117.2832" y="-6.5" font-family="Helvetica,sans-Serif" font-size="10.00" fill="#000000">string</text>
</g>
<!-- Node0&#45;&gt;Node7 -->
<g id="edge5" class="edge">
<title>Node0&#45;&gt;Node7</title>
<path fill="none" stroke="#191970" d="M125.2595,-275.3439C154.8788,-256.488 200.2832,-220.1399 200.2832,-174.5 200.2832,-174.5 200.2832,-174.5 200.2832,-119.5 200.2832,-89.6154 198.6379,-79.329 181.2832,-55 171.982,-41.961 157.7388,-31.307 145.0485,-23.5951"/>
<polygon fill="#191970" stroke="#191970" points="146.5915,-20.4453 136.1754,-18.5076 143.1097,-26.518 146.5915,-20.4453"/>
</g>
<!-- Node10 -->
<g id="node6" class="node">
<title>Node10</title>
<g id="a_node6"><a xlink:href="_chunk_8h.html" target="_top" xlink:title="../../Stream/Chunk.h">
<polygon fill="none" stroke="#000000" points="47.8203,-220.5 47.8203,-238.5 152.7461,-238.5 152.7461,-220.5 47.8203,-220.5"/>
<text text-anchor="middle" x="100.2832" y="-226.5" font-family="Helvetica,sans-Serif" font-size="10.00" fill="#000000">../../Stream/Chunk.h</text>
</a>
</g>
</g>
<!-- Node0&#45;&gt;Node10 -->
<g id="edge6" class="edge">
<title>Node0&#45;&gt;Node10</title>
<path fill="none" stroke="#191970" d="M100.2832,-275.2808C100.2832,-267.3776 100.2832,-257.4316 100.2832,-248.8308"/>
<polygon fill="#191970" stroke="#191970" points="103.7833,-248.5842 100.2832,-238.5842 96.7833,-248.5842 103.7833,-248.5842"/>
</g>
<!-- Node2 -->
<g id="node3" class="node">
<title>Node2</title>
<polygon fill="none" stroke="#bfbfbf" points="79.9336,-55.5 79.9336,-73.5 172.6328,-73.5 172.6328,-55.5 79.9336,-55.5"/>
<text text-anchor="middle" x="126.2832" y="-61.5" font-family="Helvetica,sans-Serif" font-size="10.00" fill="#000000">glm/common.hpp</text>
</g>
<!-- Node1&#45;&gt;Node2 -->
<g id="edge2" class="edge">
<title>Node1&#45;&gt;Node2</title>
<path fill="none" stroke="#191970" d="M52.8146,-110.4179C66.4446,-101.8992 87.0567,-89.0166 102.9828,-79.0627"/>
<polygon fill="#191970" stroke="#191970" points="105.1052,-81.8637 111.7302,-73.5956 101.3952,-75.9277 105.1052,-81.8637"/>
</g>
<!-- Node3 -->
<g id="node4" class="node">
<title>Node3</title>
<g id="a_node4"><a xlink:href="_helper_8h.html" target="_top" xlink:title="Helper.h">
<polygon fill="none" stroke="#ff0000" points="8.6577,-55.5 8.6577,-73.5 61.9087,-73.5 61.9087,-55.5 8.6577,-55.5"/>
<text text-anchor="middle" x="35.2832" y="-61.5" font-family="Helvetica,sans-Serif" font-size="10.00" fill="#000000">Helper.h</text>
</a>
</g>
</g>
<!-- Node1&#45;&gt;Node3 -->
<g id="edge3" class="edge">
<title>Node1&#45;&gt;Node3</title>
<path fill="none" stroke="#191970" d="M37.7878,-110.4179C37.395,-103.2164 36.8321,-92.8962 36.3394,-83.8632"/>
<polygon fill="#191970" stroke="#191970" points="39.8289,-83.574 35.7894,-73.7795 32.8393,-83.9553 39.8289,-83.574"/>
</g>
<!-- Node3&#45;&gt;Node7 -->
<g id="edge4" class="edge">
<title>Node3&#45;&gt;Node7</title>
<path fill="none" stroke="#191970" d="M48.8238,-55.4179C61.4058,-46.9788 80.3728,-34.257 95.1543,-24.3426"/>
<polygon fill="#191970" stroke="#191970" points="97.3672,-27.0727 103.7225,-18.5956 93.4679,-21.2593 97.3672,-27.0727"/>
</g>
<!-- Node10&#45;&gt;Node1 -->
<g id="edge11" class="edge">
<title>Node10&#45;&gt;Node1</title>
<path fill="none" stroke="#191970" d="M89.2173,-220.497C79.4923,-212.0283 65.6262,-198.5103 57.2832,-184 49.1915,-169.9268 44.2843,-152.1104 41.4896,-138.7702"/>
<polygon fill="#191970" stroke="#191970" points="44.9023,-137.9792 39.6153,-128.7978 38.0227,-139.2722 44.9023,-137.9792"/>
</g>
<!-- Node11 -->
<g id="node7" class="node">
<title>Node11</title>
<g id="a_node7"><a xlink:href="_file_8h.html" target="_top" xlink:title="../File/File.h">
<polygon fill="none" stroke="#ff0000" points="66.4434,-165.5 66.4434,-183.5 134.123,-183.5 134.123,-165.5 66.4434,-165.5"/>
<text text-anchor="middle" x="100.2832" y="-171.5" font-family="Helvetica,sans-Serif" font-size="10.00" fill="#000000">../File/File.h</text>
</a>
</g>
</g>
<!-- Node10&#45;&gt;Node11 -->
<g id="edge7" class="edge">
<title>Node10&#45;&gt;Node11</title>
<path fill="none" stroke="#191970" d="M100.2832,-220.4179C100.2832,-213.2164 100.2832,-202.8962 100.2832,-193.8632"/>
<polygon fill="#191970" stroke="#191970" points="103.7833,-193.7794 100.2832,-183.7795 96.7833,-193.7795 103.7833,-193.7794"/>
</g>
<!-- Node15 -->
<g id="node8" class="node">
<title>Node15</title>
<polygon fill="none" stroke="#bfbfbf" points="109.1626,-110.5 109.1626,-128.5 157.4038,-128.5 157.4038,-110.5 109.1626,-110.5"/>
<text text-anchor="middle" x="133.2832" y="-116.5" font-family="Helvetica,sans-Serif" font-size="10.00" fill="#000000">stdint.h</text>
</g>
<!-- Node10&#45;&gt;Node15 -->
<g id="edge10" class="edge">
<title>Node10&#45;&gt;Node15</title>
<path fill="none" stroke="#191970" d="M113.1956,-220.3491C123.5304,-212.1662 137.2576,-199.1487 143.2832,-184 149.1657,-169.2113 145.5832,-151.2348 141.151,-138.0201"/>
<polygon fill="#191970" stroke="#191970" points="144.3957,-136.7054 137.5788,-128.5949 137.8501,-139.1862 144.3957,-136.7054"/>
</g>
<!-- Node11&#45;&gt;Node1 -->
<g id="edge9" class="edge">
<title>Node11&#45;&gt;Node1</title>
<path fill="none" stroke="#191970" d="M90.0452,-165.4179C80.9458,-157.3458 67.4295,-145.3556 56.4906,-135.6517"/>
<polygon fill="#191970" stroke="#191970" points="58.5471,-132.7974 48.7437,-128.7795 53.9018,-138.0339 58.5471,-132.7974"/>
</g>
<!-- Node11&#45;&gt;Node15 -->
<g id="edge8" class="edge">
<title>Node11&#45;&gt;Node15</title>
<path fill="none" stroke="#191970" d="M105.7325,-165.4179C110.2908,-157.8207 116.9316,-146.7527 122.5512,-137.3866"/>
<polygon fill="#191970" stroke="#191970" points="125.5718,-139.1552 127.7155,-128.7795 119.5693,-135.5536 125.5718,-139.1552"/>
</g>
</g>
</svg>
