<?xml version="1.0" encoding="UTF-8" standalone="no"?>
<!DOCTYPE svg PUBLIC "-//W3C//DTD SVG 1.1//EN"
 "http://www.w3.org/Graphics/SVG/1.1/DTD/svg11.dtd">
<!-- Generated by graphviz version 2.40.1 (20161225.0304)
 -->
<!-- Title: libnolimits/NL2/Info/Version.cpp Pages: 1 -->
<svg width="183pt" height="202pt"
 viewBox="0.00 0.00 183.22 202.00" xmlns="http://www.w3.org/2000/svg" xmlns:xlink="http://www.w3.org/1999/xlink">
<g id="graph0" class="graph" transform="scale(1 1) rotate(0) translate(4 198)">
<title>libnolimits/NL2/Info/Version.cpp</title>
<!-- Node0 -->
<g id="node1" class="node">
<title>Node0</title>
<polygon fill="#bfbfbf" stroke="#000000" points="18.5198,-165.5 18.5198,-193.5 119.0022,-193.5 119.0022,-165.5 18.5198,-165.5"/>
<text text-anchor="start" x="26.5198" y="-181.5" font-family="Helvetica,sans-Serif" font-size="10.00" fill="#000000">libnolimits/NL2/Info</text>
<text text-anchor="middle" x="68.761" y="-171.5" font-family="Helvetica,sans-Serif" font-size="10.00" fill="#000000">/Version.cpp</text>
</g>
<!-- Node1 -->
<g id="node2" class="node">
<title>Node1</title>
<g id="a_node2"><a xlink:href="_version_8h.html" target="_top" xlink:title="Version.h">
<polygon fill="none" stroke="#000000" points="2.9114,-110.5 2.9114,-128.5 60.6106,-128.5 60.6106,-110.5 2.9114,-110.5"/>
<text text-anchor="middle" x="31.761" y="-116.5" font-family="Helvetica,sans-Serif" font-size="10.00" fill="#000000">Version.h</text>
</a>
</g>
</g>
<!-- Node0&#45;&gt;Node1 -->
<g id="edge1" class="edge">
<title>Node0&#45;&gt;Node1</title>
<path fill="none" stroke="#191970" d="M59.9925,-165.2808C54.7902,-156.8448 48.1528,-146.0813 42.6209,-137.1107"/>
<polygon fill="#191970" stroke="#191970" points="45.5909,-135.2588 37.3629,-128.5842 39.6327,-138.933 45.5909,-135.2588"/>
</g>
<!-- Node5 -->
<g id="node6" class="node">
<title>Node5</title>
<polygon fill="none" stroke="#bfbfbf" points="78.5886,-110.5 78.5886,-128.5 132.9333,-128.5 132.9333,-110.5 78.5886,-110.5"/>
<text text-anchor="middle" x="105.761" y="-116.5" font-family="Helvetica,sans-Serif" font-size="10.00" fill="#000000">iostream</text>
</g>
<!-- Node0&#45;&gt;Node5 -->
<g id="edge6" class="edge">
<title>Node0&#45;&gt;Node5</title>
<path fill="none" stroke="#191970" d="M77.5294,-165.2808C82.7317,-156.8448 89.3692,-146.0813 94.901,-137.1107"/>
<polygon fill="#191970" stroke="#191970" points="97.8892,-138.933 100.159,-128.5842 91.931,-135.2588 97.8892,-138.933"/>
</g>
<!-- Node2 -->
<g id="node3" class="node">
<title>Node2</title>
<g id="a_node3"><a xlink:href="_nolimits_8h.html" target="_top" xlink:title="../../Nolimits.h">
<polygon fill="none" stroke="#ff0000" points="14.4778,-.5 14.4778,-18.5 91.0442,-18.5 91.0442,-.5 14.4778,-.5"/>
<text text-anchor="middle" x="52.761" y="-6.5" font-family="Helvetica,sans-Serif" font-size="10.00" fill="#000000">../../Nolimits.h</text>
</a>
</g>
</g>
<!-- Node1&#45;&gt;Node2 -->
<g id="edge2" class="edge">
<title>Node1&#45;&gt;Node2</title>
<path fill="none" stroke="#191970" d="M22.4752,-110.3304C11.0074,-97.8386 -5.976,-74.7637 2.761,-55 8.1738,-42.7558 18.6892,-32.3899 28.6857,-24.6592"/>
<polygon fill="#191970" stroke="#191970" points="30.7587,-27.4796 36.8372,-18.8019 26.6739,-21.7949 30.7587,-27.4796"/>
</g>
<!-- Node8 -->
<g id="node4" class="node">
<title>Node8</title>
<polygon fill="none" stroke="#bfbfbf" points="11.5344,-55.5 11.5344,-73.5 51.9875,-73.5 51.9875,-55.5 11.5344,-55.5"/>
<text text-anchor="middle" x="31.761" y="-61.5" font-family="Helvetica,sans-Serif" font-size="10.00" fill="#000000">string</text>
</g>
<!-- Node1&#45;&gt;Node8 -->
<g id="edge3" class="edge">
<title>Node1&#45;&gt;Node8</title>
<path fill="none" stroke="#191970" d="M31.761,-110.4179C31.761,-103.2164 31.761,-92.8962 31.761,-83.8632"/>
<polygon fill="#191970" stroke="#191970" points="35.2611,-83.7794 31.761,-73.7795 28.2611,-83.7795 35.2611,-83.7794"/>
</g>
<!-- Node11 -->
<g id="node5" class="node">
<title>Node11</title>
<g id="a_node5"><a xlink:href="_chunk_8h.html" target="_top" xlink:title="../../Stream/Chunk.h">
<polygon fill="none" stroke="#ff0000" points="70.2981,-55.5 70.2981,-73.5 175.2239,-73.5 175.2239,-55.5 70.2981,-55.5"/>
<text text-anchor="middle" x="122.761" y="-61.5" font-family="Helvetica,sans-Serif" font-size="10.00" fill="#000000">../../Stream/Chunk.h</text>
</a>
</g>
</g>
<!-- Node1&#45;&gt;Node11 -->
<g id="edge4" class="edge">
<title>Node1&#45;&gt;Node11</title>
<path fill="none" stroke="#191970" d="M46.7878,-110.4179C61.0141,-101.8195 82.5962,-88.7754 99.1267,-78.7844"/>
<polygon fill="#191970" stroke="#191970" points="100.964,-81.7637 107.7118,-73.5956 97.3431,-75.7729 100.964,-81.7637"/>
</g>
<!-- Node11&#45;&gt;Node2 -->
<g id="edge5" class="edge">
<title>Node11&#45;&gt;Node2</title>
<path fill="none" stroke="#191970" d="M111.2019,-55.4179C100.727,-47.1876 85.0677,-34.8839 72.5946,-25.0836"/>
<polygon fill="#191970" stroke="#191970" points="74.5968,-22.2056 64.5712,-18.7795 70.272,-27.7098 74.5968,-22.2056"/>
</g>
</g>
</svg>
