<?xml version="1.0" encoding="UTF-8" standalone="no"?>
<!DOCTYPE svg PUBLIC "-//W3C//DTD SVG 1.1//EN"
 "http://www.w3.org/Graphics/SVG/1.1/DTD/svg11.dtd">
<!-- Generated by graphviz version 2.40.1 (20161225.0304)
 -->
<!-- Title: libnolimits/NL2/Coaster/Track/Section/WaitTime.h Pages: 1 -->
<svg width="198pt" height="212pt"
 viewBox="0.00 0.00 198.19 212.00" xmlns="http://www.w3.org/2000/svg" xmlns:xlink="http://www.w3.org/1999/xlink">
<g id="graph0" class="graph" transform="scale(1 1) rotate(0) translate(4 208)">
<title>libnolimits/NL2/Coaster/Track/Section/WaitTime.h</title>
<!-- Node0 -->
<g id="node1" class="node">
<title>Node0</title>
<polygon fill="#bfbfbf" stroke="#000000" points="0,-175.5 0,-203.5 132.1523,-203.5 132.1523,-175.5 0,-175.5"/>
<text text-anchor="start" x="8" y="-191.5" font-family="Helvetica,sans-Serif" font-size="10.00" fill="#000000">libnolimits/NL2/Coaster</text>
<text text-anchor="middle" x="66.0762" y="-181.5" font-family="Helvetica,sans-Serif" font-size="10.00" fill="#000000">/Track/Section/WaitTime.h</text>
</g>
<!-- Node1 -->
<g id="node2" class="node">
<title>Node1</title>
<polygon fill="none" stroke="#bfbfbf" points="4.4604,-115.5 4.4604,-133.5 47.6919,-133.5 47.6919,-115.5 4.4604,-115.5"/>
<text text-anchor="middle" x="26.0762" y="-121.5" font-family="Helvetica,sans-Serif" font-size="10.00" fill="#000000">vector</text>
</g>
<!-- Node0&#45;&gt;Node1 -->
<g id="edge1" class="edge">
<title>Node0&#45;&gt;Node1</title>
<path fill="none" stroke="#191970" d="M57.3968,-175.396C51.4155,-165.6764 43.4201,-152.6839 37.0047,-142.2589"/>
<polygon fill="#191970" stroke="#191970" points="39.8822,-140.2565 31.6604,-133.5743 33.9206,-143.9253 39.8822,-140.2565"/>
</g>
<!-- Node2 -->
<g id="node3" class="node">
<title>Node2</title>
<g id="a_node3"><a xlink:href="_chunk_8h.html" target="_top" xlink:title="../../../../Stream\l/Chunk.h">
<polygon fill="none" stroke="#000000" points="65.2905,-110.5 65.2905,-138.5 146.8618,-138.5 146.8618,-110.5 65.2905,-110.5"/>
<text text-anchor="start" x="73.2905" y="-126.5" font-family="Helvetica,sans-Serif" font-size="10.00" fill="#000000">../../../../Stream</text>
<text text-anchor="middle" x="106.0762" y="-116.5" font-family="Helvetica,sans-Serif" font-size="10.00" fill="#000000">/Chunk.h</text>
</a>
</g>
</g>
<!-- Node0&#45;&gt;Node2 -->
<g id="edge2" class="edge">
<title>Node0&#45;&gt;Node2</title>
<path fill="none" stroke="#191970" d="M74.7556,-175.396C79.84,-167.1338 86.3799,-156.5065 92.1674,-147.1017"/>
<polygon fill="#191970" stroke="#191970" points="95.1535,-148.9275 97.4137,-138.5765 89.1919,-145.2587 95.1535,-148.9275"/>
</g>
<!-- Node3 -->
<g id="node4" class="node">
<title>Node3</title>
<g id="a_node4"><a xlink:href="_file_8h.html" target="_top" xlink:title="../File/File.h">
<polygon fill="none" stroke="#ff0000" points="72.2363,-55.5 72.2363,-73.5 139.916,-73.5 139.916,-55.5 72.2363,-55.5"/>
<text text-anchor="middle" x="106.0762" y="-61.5" font-family="Helvetica,sans-Serif" font-size="10.00" fill="#000000">../File/File.h</text>
</a>
</g>
</g>
<!-- Node2&#45;&gt;Node3 -->
<g id="edge3" class="edge">
<title>Node2&#45;&gt;Node3</title>
<path fill="none" stroke="#191970" d="M106.0762,-110.2808C106.0762,-102.3776 106.0762,-92.4316 106.0762,-83.8308"/>
<polygon fill="#191970" stroke="#191970" points="109.5763,-83.5842 106.0762,-73.5842 102.5763,-83.5842 109.5763,-83.5842"/>
</g>
<!-- Node7 -->
<g id="node5" class="node">
<title>Node7</title>
<polygon fill="none" stroke="#bfbfbf" points="43.9556,-.5 43.9556,-18.5 92.1968,-18.5 92.1968,-.5 43.9556,-.5"/>
<text text-anchor="middle" x="68.0762" y="-6.5" font-family="Helvetica,sans-Serif" font-size="10.00" fill="#000000">stdint.h</text>
</g>
<!-- Node2&#45;&gt;Node7 -->
<g id="edge6" class="edge">
<title>Node2&#45;&gt;Node7</title>
<path fill="none" stroke="#191970" d="M89.2791,-110.4733C79.5947,-101.245 68.3264,-88.2644 63.0762,-74 57.6812,-59.3425 59.6229,-41.5766 62.5224,-28.4045"/>
<polygon fill="#191970" stroke="#191970" points="65.9456,-29.1458 65.0433,-18.5895 59.1656,-27.4044 65.9456,-29.1458"/>
</g>
<!-- Node8 -->
<g id="node6" class="node">
<title>Node8</title>
<g id="a_node6"><a xlink:href="_nolimits_8h.html" target="_top" xlink:title="../Nolimits.h">
<polygon fill="none" stroke="#ff0000" points="121.9604,-.5 121.9604,-18.5 190.1919,-18.5 190.1919,-.5 121.9604,-.5"/>
<text text-anchor="middle" x="156.0762" y="-6.5" font-family="Helvetica,sans-Serif" font-size="10.00" fill="#000000">../Nolimits.h</text>
</a>
</g>
</g>
<!-- Node2&#45;&gt;Node8 -->
<g id="edge7" class="edge">
<title>Node2&#45;&gt;Node8</title>
<path fill="none" stroke="#191970" d="M122.3362,-110.259C131.8185,-100.95 143.063,-87.9599 149.0762,-74 155.2108,-59.7582 156.7717,-42.1804 156.9041,-28.9735"/>
<polygon fill="#191970" stroke="#191970" points="160.3988,-28.6263 156.7316,-18.6864 153.3998,-28.7436 160.3988,-28.6263"/>
</g>
<!-- Node3&#45;&gt;Node7 -->
<g id="edge4" class="edge">
<title>Node3&#45;&gt;Node7</title>
<path fill="none" stroke="#191970" d="M99.8012,-55.4179C94.4976,-47.7415 86.7457,-36.5217 80.2324,-27.0945"/>
<polygon fill="#191970" stroke="#191970" points="83.0514,-25.0173 74.4874,-18.7795 77.2922,-28.9963 83.0514,-25.0173"/>
</g>
<!-- Node3&#45;&gt;Node8 -->
<g id="edge5" class="edge">
<title>Node3&#45;&gt;Node8</title>
<path fill="none" stroke="#191970" d="M114.3327,-55.4179C121.527,-47.5041 132.145,-35.8243 140.8715,-26.2251"/>
<polygon fill="#191970" stroke="#191970" points="143.5033,-28.5332 147.6403,-18.7795 138.3237,-23.8245 143.5033,-28.5332"/>
</g>
</g>
</svg>
