<?xml version="1.0" encoding="UTF-8" standalone="no"?>
<!DOCTYPE svg PUBLIC "-//W3C//DTD SVG 1.1//EN"
 "http://www.w3.org/Graphics/SVG/1.1/DTD/svg11.dtd">
<!-- Generated by graphviz version 2.40.1 (20161225.0304)
 -->
<!-- Title: libnolimits/NL2/Coaster/Track/Section/WaitTime.h Pages: 1 -->
<svg width="225pt" height="212pt"
 viewBox="0.00 0.00 225.14 212.00" xmlns="http://www.w3.org/2000/svg" xmlns:xlink="http://www.w3.org/1999/xlink">
<g id="graph0" class="graph" transform="scale(1 1) rotate(0) translate(4 208)">
<title>libnolimits/NL2/Coaster/Track/Section/WaitTime.h</title>
<!-- Node0 -->
<g id="node1" class="node">
<title>Node0</title>
<polygon fill="#bfbfbf" stroke="#000000" points="0,-175.5 0,-203.5 132.1523,-203.5 132.1523,-175.5 0,-175.5"/>
<text text-anchor="start" x="8" y="-191.5" font-family="Helvetica,sans-Serif" font-size="10.00" fill="#000000">libnolimits/NL2/Coaster</text>
<text text-anchor="middle" x="66.0762" y="-181.5" font-family="Helvetica,sans-Serif" font-size="10.00" fill="#000000">/Track/Section/WaitTime.h</text>
</g>
<!-- Node1 -->
<g id="node2" class="node">
<title>Node1</title>
<polygon fill="none" stroke="#bfbfbf" points="4.4604,-115.5 4.4604,-133.5 47.6919,-133.5 47.6919,-115.5 4.4604,-115.5"/>
<text text-anchor="middle" x="26.0762" y="-121.5" font-family="Helvetica,sans-Serif" font-size="10.00" fill="#000000">vector</text>
</g>
<!-- Node0&#45;&gt;Node1 -->
<g id="edge1" class="edge">
<title>Node0&#45;&gt;Node1</title>
<path fill="none" stroke="#191970" d="M57.3968,-175.396C51.4155,-165.6764 43.4201,-152.6839 37.0047,-142.2589"/>
<polygon fill="#191970" stroke="#191970" points="39.8822,-140.2565 31.6604,-133.5743 33.9206,-143.9253 39.8822,-140.2565"/>
</g>
<!-- Node2 -->
<g id="node3" class="node">
<title>Node2</title>
<g id="a_node3"><a xlink:href="_chunk_8h.html" target="_top" xlink:title="../../../../Stream\l/Chunk.h">
<polygon fill="none" stroke="#000000" points="65.2905,-110.5 65.2905,-138.5 146.8618,-138.5 146.8618,-110.5 65.2905,-110.5"/>
<text text-anchor="start" x="73.2905" y="-126.5" font-family="Helvetica,sans-Serif" font-size="10.00" fill="#000000">../../../../Stream</text>
<text text-anchor="middle" x="106.0762" y="-116.5" font-family="Helvetica,sans-Serif" font-size="10.00" fill="#000000">/Chunk.h</text>
</a>
</g>
</g>
<!-- Node0&#45;&gt;Node2 -->
<g id="edge2" class="edge">
<title>Node0&#45;&gt;Node2</title>
<path fill="none" stroke="#191970" d="M74.7556,-175.396C79.84,-167.1338 86.3799,-156.5065 92.1674,-147.1017"/>
<polygon fill="#191970" stroke="#191970" points="95.1535,-148.9275 97.4137,-138.5765 89.1919,-145.2587 95.1535,-148.9275"/>
</g>
<!-- Node3 -->
<g id="node4" class="node">
<title>Node3</title>
<g id="a_node4"><a xlink:href="_file_8h.html" target="_top" xlink:title="../File/File.h">
<polygon fill="none" stroke="#ff0000" points="41.2363,-55.5 41.2363,-73.5 108.916,-73.5 108.916,-55.5 41.2363,-55.5"/>
<text text-anchor="middle" x="75.0762" y="-61.5" font-family="Helvetica,sans-Serif" font-size="10.00" fill="#000000">../File/File.h</text>
</a>
</g>
</g>
<!-- Node2&#45;&gt;Node3 -->
<g id="edge3" class="edge">
<title>Node2&#45;&gt;Node3</title>
<path fill="none" stroke="#191970" d="M98.7296,-110.2808C94.4627,-102.0224 89.0435,-91.5335 84.469,-82.6796"/>
<polygon fill="#191970" stroke="#191970" points="87.4694,-80.8619 79.7697,-73.5842 81.2504,-84.075 87.4694,-80.8619"/>
</g>
<!-- Node7 -->
<g id="node5" class="node">
<title>Node7</title>
<polygon fill="none" stroke="#bfbfbf" points="12.9556,-.5 12.9556,-18.5 61.1968,-18.5 61.1968,-.5 12.9556,-.5"/>
<text text-anchor="middle" x="37.0762" y="-6.5" font-family="Helvetica,sans-Serif" font-size="10.00" fill="#000000">stdint.h</text>
</g>
<!-- Node2&#45;&gt;Node7 -->
<g id="edge7" class="edge">
<title>Node2&#45;&gt;Node7</title>
<path fill="none" stroke="#191970" d="M72.2222,-110.4444C57.0406,-102.2256 40.6486,-90.2284 32.0762,-74 24.7081,-60.0515 26.93,-41.9933 30.4367,-28.5336"/>
<polygon fill="#191970" stroke="#191970" points="33.808,-29.477 33.3659,-18.8914 27.1102,-27.4423 33.808,-29.477"/>
</g>
<!-- Node8 -->
<g id="node6" class="node">
<title>Node8</title>
<g id="a_node6"><a xlink:href="_nolimits_8h.html" target="_top" xlink:title="../Nolimits.h">
<polygon fill="none" stroke="#ff0000" points="90.9604,-.5 90.9604,-18.5 159.1919,-18.5 159.1919,-.5 90.9604,-.5"/>
<text text-anchor="middle" x="125.0762" y="-6.5" font-family="Helvetica,sans-Serif" font-size="10.00" fill="#000000">../Nolimits.h</text>
</a>
</g>
</g>
<!-- Node2&#45;&gt;Node8 -->
<g id="edge6" class="edge">
<title>Node2&#45;&gt;Node8</title>
<path fill="none" stroke="#191970" d="M109.9148,-110.4485C112.5451,-100.3703 115.933,-86.4327 118.0762,-74 120.6808,-58.8902 122.4947,-41.6122 123.6223,-28.7441"/>
<polygon fill="#191970" stroke="#191970" points="127.114,-28.9879 124.4392,-18.7363 120.1372,-28.4184 127.114,-28.9879"/>
</g>
<!-- Node17 -->
<g id="node7" class="node">
<title>Node17</title>
<polygon fill="none" stroke="#bfbfbf" points="165.0146,-55.5 165.0146,-73.5 217.1377,-73.5 217.1377,-55.5 165.0146,-55.5"/>
<text text-anchor="middle" x="191.0762" y="-61.5" font-family="Helvetica,sans-Serif" font-size="10.00" fill="#000000">ostream</text>
</g>
<!-- Node2&#45;&gt;Node17 -->
<g id="edge8" class="edge">
<title>Node2&#45;&gt;Node17</title>
<path fill="none" stroke="#191970" d="M126.22,-110.2808C139.3033,-101.0456 156.3381,-89.021 169.6661,-79.613"/>
<polygon fill="#191970" stroke="#191970" points="172.0556,-82.2105 178.2069,-73.5842 168.0188,-76.4917 172.0556,-82.2105"/>
</g>
<!-- Node3&#45;&gt;Node7 -->
<g id="edge4" class="edge">
<title>Node3&#45;&gt;Node7</title>
<path fill="none" stroke="#191970" d="M68.8012,-55.4179C63.4976,-47.7415 55.7457,-36.5217 49.2324,-27.0945"/>
<polygon fill="#191970" stroke="#191970" points="52.0514,-25.0173 43.4874,-18.7795 46.2922,-28.9963 52.0514,-25.0173"/>
</g>
<!-- Node3&#45;&gt;Node8 -->
<g id="edge5" class="edge">
<title>Node3&#45;&gt;Node8</title>
<path fill="none" stroke="#191970" d="M83.3327,-55.4179C90.527,-47.5041 101.145,-35.8243 109.8715,-26.2251"/>
<polygon fill="#191970" stroke="#191970" points="112.5033,-28.5332 116.6403,-18.7795 107.3237,-23.8245 112.5033,-28.5332"/>
</g>
</g>
</svg>
