<?xml version="1.0" encoding="UTF-8" standalone="no"?>
<!DOCTYPE svg PUBLIC "-//W3C//DTD SVG 1.1//EN"
 "http://www.w3.org/Graphics/SVG/1.1/DTD/svg11.dtd">
<!-- Generated by graphviz version 2.40.1 (20161225.0304)
 -->
<!-- Title: libnolimits/NL2/Coaster/Track/Section/WaitTime.cpp Pages: 1 -->
<svg width="180pt" height="157pt"
 viewBox="0.00 0.00 179.97 157.00" xmlns="http://www.w3.org/2000/svg" xmlns:xlink="http://www.w3.org/1999/xlink">
<g id="graph0" class="graph" transform="scale(1 1) rotate(0) translate(4 153)">
<title>libnolimits/NL2/Coaster/Track/Section/WaitTime.cpp</title>
<!-- Node0 -->
<g id="node1" class="node">
<title>Node0</title>
<polygon fill="#bfbfbf" stroke="#000000" points="29.2588,-120.5 29.2588,-148.5 171.9727,-148.5 171.9727,-120.5 29.2588,-120.5"/>
<text text-anchor="start" x="37.2588" y="-136.5" font-family="Helvetica,sans-Serif" font-size="10.00" fill="#000000">libnolimits/NL2/Coaster</text>
<text text-anchor="middle" x="100.6157" y="-126.5" font-family="Helvetica,sans-Serif" font-size="10.00" fill="#000000">/Track/Section/WaitTime.cpp</text>
</g>
<!-- Node1 -->
<g id="node2" class="node">
<title>Node1</title>
<g id="a_node2"><a xlink:href="_wait_time_8h.html" target="_top" xlink:title="WaitTime.h">
<polygon fill="none" stroke="#000000" points="28.7012,-65.5 28.7012,-83.5 94.5303,-83.5 94.5303,-65.5 28.7012,-65.5"/>
<text text-anchor="middle" x="61.6157" y="-71.5" font-family="Helvetica,sans-Serif" font-size="10.00" fill="#000000">WaitTime.h</text>
</a>
</g>
</g>
<!-- Node0&#45;&gt;Node1 -->
<g id="edge1" class="edge">
<title>Node0&#45;&gt;Node1</title>
<path fill="none" stroke="#191970" d="M91.3733,-120.2808C85.8898,-111.8448 78.8936,-101.0813 73.0627,-92.1107"/>
<polygon fill="#191970" stroke="#191970" points="75.9049,-90.0612 67.5204,-83.5842 70.0358,-93.8761 75.9049,-90.0612"/>
</g>
<!-- Node12 -->
<g id="node5" class="node">
<title>Node12</title>
<polygon fill="none" stroke="#bfbfbf" points="112.4434,-65.5 112.4434,-83.5 166.7881,-83.5 166.7881,-65.5 112.4434,-65.5"/>
<text text-anchor="middle" x="139.6157" y="-71.5" font-family="Helvetica,sans-Serif" font-size="10.00" fill="#000000">iostream</text>
</g>
<!-- Node0&#45;&gt;Node12 -->
<g id="edge4" class="edge">
<title>Node0&#45;&gt;Node12</title>
<path fill="none" stroke="#191970" d="M109.8582,-120.2808C115.3416,-111.8448 122.3379,-101.0813 128.1687,-92.1107"/>
<polygon fill="#191970" stroke="#191970" points="131.1956,-93.8761 133.711,-83.5842 125.3265,-90.0612 131.1956,-93.8761"/>
</g>
<!-- Node2 -->
<g id="node3" class="node">
<title>Node2</title>
<polygon fill="none" stroke="#bfbfbf" points="0,-5.5 0,-23.5 43.2314,-23.5 43.2314,-5.5 0,-5.5"/>
<text text-anchor="middle" x="21.6157" y="-11.5" font-family="Helvetica,sans-Serif" font-size="10.00" fill="#000000">vector</text>
</g>
<!-- Node1&#45;&gt;Node2 -->
<g id="edge2" class="edge">
<title>Node1&#45;&gt;Node2</title>
<path fill="none" stroke="#191970" d="M55.5406,-65.3873C49.667,-56.5769 40.6125,-42.9951 33.3347,-32.0784"/>
<polygon fill="#191970" stroke="#191970" points="36.2073,-30.0775 27.748,-23.6985 30.3829,-33.9605 36.2073,-30.0775"/>
</g>
<!-- Node3 -->
<g id="node4" class="node">
<title>Node3</title>
<g id="a_node4"><a xlink:href="_chunk_8h.html" target="_top" xlink:title="../../../../Stream\l/Chunk.h">
<polygon fill="none" stroke="#ff0000" points="60.8301,-.5 60.8301,-28.5 142.4014,-28.5 142.4014,-.5 60.8301,-.5"/>
<text text-anchor="start" x="68.8301" y="-16.5" font-family="Helvetica,sans-Serif" font-size="10.00" fill="#000000">../../../../Stream</text>
<text text-anchor="middle" x="101.6157" y="-6.5" font-family="Helvetica,sans-Serif" font-size="10.00" fill="#000000">/Chunk.h</text>
</a>
</g>
</g>
<!-- Node1&#45;&gt;Node3 -->
<g id="edge3" class="edge">
<title>Node1&#45;&gt;Node3</title>
<path fill="none" stroke="#191970" d="M67.6909,-65.3873C72.6438,-57.9579 79.8586,-47.1356 86.3627,-37.3796"/>
<polygon fill="#191970" stroke="#191970" points="89.4158,-39.1096 92.0506,-28.8477 83.5914,-35.2267 89.4158,-39.1096"/>
</g>
</g>
</svg>
