<?xml version="1.0" encoding="UTF-8" standalone="no"?>
<!DOCTYPE svg PUBLIC "-//W3C//DTD SVG 1.1//EN"
 "http://www.w3.org/Graphics/SVG/1.1/DTD/svg11.dtd">
<!-- Generated by graphviz version 2.40.1 (20161225.0304)
 -->
<!-- Title: libnolimits/NL2/Terrain/Water.cpp Pages: 1 -->
<svg width="264pt" height="147pt"
 viewBox="0.00 0.00 264.41 147.00" xmlns="http://www.w3.org/2000/svg" xmlns:xlink="http://www.w3.org/1999/xlink">
<g id="graph0" class="graph" transform="scale(1 1) rotate(0) translate(4 143)">
<title>libnolimits/NL2/Terrain/Water.cpp</title>
<!-- Node0 -->
<g id="node1" class="node">
<title>Node0</title>
<polygon fill="#bfbfbf" stroke="#000000" points="54.042,-110.5 54.042,-138.5 168.4111,-138.5 168.4111,-110.5 54.042,-110.5"/>
<text text-anchor="start" x="62.042" y="-126.5" font-family="Helvetica,sans-Serif" font-size="10.00" fill="#000000">libnolimits/NL2/Terrain</text>
<text text-anchor="middle" x="111.2266" y="-116.5" font-family="Helvetica,sans-Serif" font-size="10.00" fill="#000000">/Water.cpp</text>
</g>
<!-- Node1 -->
<g id="node2" class="node">
<title>Node1</title>
<g id="a_node2"><a xlink:href="_water_8h.html" target="_top" xlink:title="Water.h">
<polygon fill="none" stroke="#000000" points="86.1782,-55.5 86.1782,-73.5 136.2749,-73.5 136.2749,-55.5 86.1782,-55.5"/>
<text text-anchor="middle" x="111.2266" y="-61.5" font-family="Helvetica,sans-Serif" font-size="10.00" fill="#000000">Water.h</text>
</a>
</g>
</g>
<!-- Node0&#45;&gt;Node1 -->
<g id="edge1" class="edge">
<title>Node0&#45;&gt;Node1</title>
<path fill="none" stroke="#191970" d="M111.2266,-110.2808C111.2266,-102.3776 111.2266,-92.4316 111.2266,-83.8308"/>
<polygon fill="#191970" stroke="#191970" points="114.7267,-83.5842 111.2266,-73.5842 107.7267,-83.5842 114.7267,-83.5842"/>
</g>
<!-- Node2 -->
<g id="node3" class="node">
<title>Node2</title>
<polygon fill="none" stroke="#bfbfbf" points="0,-.5 0,-18.5 40.4531,-18.5 40.4531,-.5 0,-.5"/>
<text text-anchor="middle" x="20.2266" y="-6.5" font-family="Helvetica,sans-Serif" font-size="10.00" fill="#000000">string</text>
</g>
<!-- Node1&#45;&gt;Node2 -->
<g id="edge2" class="edge">
<title>Node1&#45;&gt;Node2</title>
<path fill="none" stroke="#191970" d="M96.1998,-55.4179C81.9734,-46.8195 60.3913,-33.7754 43.8608,-23.7844"/>
<polygon fill="#191970" stroke="#191970" points="45.6444,-20.7729 35.2757,-18.5956 42.0236,-26.7637 45.6444,-20.7729"/>
</g>
<!-- Node3 -->
<g id="node4" class="node">
<title>Node3</title>
<g id="a_node4"><a xlink:href="_chunk_8h.html" target="_top" xlink:title="../../Stream/Chunk.h">
<polygon fill="none" stroke="#ff0000" points="58.7637,-.5 58.7637,-18.5 163.6895,-18.5 163.6895,-.5 58.7637,-.5"/>
<text text-anchor="middle" x="111.2266" y="-6.5" font-family="Helvetica,sans-Serif" font-size="10.00" fill="#000000">../../Stream/Chunk.h</text>
</a>
</g>
</g>
<!-- Node1&#45;&gt;Node3 -->
<g id="edge3" class="edge">
<title>Node1&#45;&gt;Node3</title>
<path fill="none" stroke="#191970" d="M111.2266,-55.4179C111.2266,-48.2164 111.2266,-37.8962 111.2266,-28.8632"/>
<polygon fill="#191970" stroke="#191970" points="114.7267,-28.7794 111.2266,-18.7795 107.7267,-28.7795 114.7267,-28.7794"/>
</g>
<!-- Node18 -->
<g id="node5" class="node">
<title>Node18</title>
<g id="a_node5"><a xlink:href="_terrain_map_8h.html" target="_top" xlink:title="TerrainMap.h">
<polygon fill="none" stroke="#000000" points="182.0469,-.5 182.0469,-18.5 256.4063,-18.5 256.4063,-.5 182.0469,-.5"/>
<text text-anchor="middle" x="219.2266" y="-6.5" font-family="Helvetica,sans-Serif" font-size="10.00" fill="#000000">TerrainMap.h</text>
</a>
</g>
</g>
<!-- Node1&#45;&gt;Node18 -->
<g id="edge4" class="edge">
<title>Node1&#45;&gt;Node18</title>
<path fill="none" stroke="#191970" d="M129.0606,-55.4179C146.2572,-46.6603 172.5102,-33.2907 192.2608,-23.2326"/>
<polygon fill="#191970" stroke="#191970" points="194.0434,-26.2526 201.3661,-18.5956 190.8667,-20.0148 194.0434,-26.2526"/>
</g>
</g>
</svg>
