<?xml version="1.0" encoding="UTF-8" standalone="no"?>
<!DOCTYPE svg PUBLIC "-//W3C//DTD SVG 1.1//EN"
 "http://www.w3.org/Graphics/SVG/1.1/DTD/svg11.dtd">
<!-- Generated by graphviz version 2.40.1 (20161225.0304)
 -->
<!-- Title: libnolimits/NL2/Terrain/Water.h Pages: 1 -->
<svg width="320pt" height="167pt"
 viewBox="0.00 0.00 319.54 167.00" xmlns="http://www.w3.org/2000/svg" xmlns:xlink="http://www.w3.org/1999/xlink">
<g id="graph0" class="graph" transform="scale(1 1) rotate(0) translate(4 163)">
<title>libnolimits/NL2/Terrain/Water.h</title>
<!-- Node17 -->
<g id="node1" class="node">
<title>Node17</title>
<polygon fill="#bfbfbf" stroke="#000000" points="131.1675,-130.5 131.1675,-158.5 245.5366,-158.5 245.5366,-130.5 131.1675,-130.5"/>
<text text-anchor="start" x="139.1675" y="-146.5" font-family="Helvetica,sans-Serif" font-size="10.00" fill="#000000">libnolimits/NL2/Terrain</text>
<text text-anchor="middle" x="188.3521" y="-136.5" font-family="Helvetica,sans-Serif" font-size="10.00" fill="#000000">/Water.h</text>
</g>
<!-- Node18 -->
<g id="node2" class="node">
<title>Node18</title>
<g id="a_node2"><a xlink:href="_terrain_8h.html" target="_top" xlink:title="libnolimits/NL2/Terrain\l/Terrain.h">
<polygon fill="none" stroke="#000000" points="65.1675,-65.5 65.1675,-93.5 179.5366,-93.5 179.5366,-65.5 65.1675,-65.5"/>
<text text-anchor="start" x="73.1675" y="-81.5" font-family="Helvetica,sans-Serif" font-size="10.00" fill="#000000">libnolimits/NL2/Terrain</text>
<text text-anchor="middle" x="122.3521" y="-71.5" font-family="Helvetica,sans-Serif" font-size="10.00" fill="#000000">/Terrain.h</text>
</a>
</g>
</g>
<!-- Node17&#45;&gt;Node18 -->
<g id="edge1" class="edge">
<title>Node17&#45;&gt;Node18</title>
<path fill="none" stroke="#191970" d="M166.8375,-123.3115C156.9373,-113.5612 145.4612,-102.259 136.6451,-93.5765"/>
<polygon fill="#191970" stroke="#191970" points="164.4502,-125.8728 174.031,-130.396 169.3621,-120.8853 164.4502,-125.8728"/>
</g>
<!-- Node22 -->
<g id="node5" class="node">
<title>Node22</title>
<g id="a_node5"><a xlink:href="_water_8cpp.html" target="_top" xlink:title="libnolimits/NL2/Terrain\l/Water.cpp">
<polygon fill="none" stroke="#000000" points="197.1675,-65.5 197.1675,-93.5 311.5366,-93.5 311.5366,-65.5 197.1675,-65.5"/>
<text text-anchor="start" x="205.1675" y="-81.5" font-family="Helvetica,sans-Serif" font-size="10.00" fill="#000000">libnolimits/NL2/Terrain</text>
<text text-anchor="middle" x="254.3521" y="-71.5" font-family="Helvetica,sans-Serif" font-size="10.00" fill="#000000">/Water.cpp</text>
</a>
</g>
</g>
<!-- Node17&#45;&gt;Node22 -->
<g id="edge4" class="edge">
<title>Node17&#45;&gt;Node22</title>
<path fill="none" stroke="#191970" d="M209.8666,-123.3115C219.7668,-113.5612 231.2429,-102.259 240.059,-93.5765"/>
<polygon fill="#191970" stroke="#191970" points="207.342,-120.8853 202.6731,-130.396 212.2539,-125.8728 207.342,-120.8853"/>
</g>
<!-- Node19 -->
<g id="node3" class="node">
<title>Node19</title>
<g id="a_node3"><a xlink:href="_park_8h.html" target="_top" xlink:title="libnolimits/NL2/Park.h">
<polygon fill="none" stroke="#ff0000" points="0,-5.5 0,-23.5 112.7041,-23.5 112.7041,-5.5 0,-5.5"/>
<text text-anchor="middle" x="56.3521" y="-11.5" font-family="Helvetica,sans-Serif" font-size="10.00" fill="#000000">libnolimits/NL2/Park.h</text>
</a>
</g>
</g>
<!-- Node18&#45;&gt;Node19 -->
<g id="edge2" class="edge">
<title>Node18&#45;&gt;Node19</title>
<path fill="none" stroke="#191970" d="M100.6099,-58.0873C88.7145,-46.3721 74.6018,-32.4732 65.566,-23.5743"/>
<polygon fill="#191970" stroke="#191970" points="98.4502,-60.8728 108.031,-65.396 103.3621,-55.8854 98.4502,-60.8728"/>
</g>
<!-- Node21 -->
<g id="node4" class="node">
<title>Node21</title>
<g id="a_node4"><a xlink:href="_terrain_8cpp.html" target="_top" xlink:title="libnolimits/NL2/Terrain\l/Terrain.cpp">
<polygon fill="none" stroke="#000000" points="131.1675,-.5 131.1675,-28.5 245.5366,-28.5 245.5366,-.5 131.1675,-.5"/>
<text text-anchor="start" x="139.1675" y="-16.5" font-family="Helvetica,sans-Serif" font-size="10.00" fill="#000000">libnolimits/NL2/Terrain</text>
<text text-anchor="middle" x="188.3521" y="-6.5" font-family="Helvetica,sans-Serif" font-size="10.00" fill="#000000">/Terrain.cpp</text>
</a>
</g>
</g>
<!-- Node18&#45;&gt;Node21 -->
<g id="edge3" class="edge">
<title>Node18&#45;&gt;Node21</title>
<path fill="none" stroke="#191970" d="M143.8666,-58.3115C153.7668,-48.5612 165.2429,-37.259 174.059,-28.5765"/>
<polygon fill="#191970" stroke="#191970" points="141.342,-55.8853 136.6731,-65.396 146.2539,-60.8728 141.342,-55.8853"/>
</g>
</g>
</svg>
