<?xml version="1.0" encoding="UTF-8" standalone="no"?>
<!DOCTYPE svg PUBLIC "-//W3C//DTD SVG 1.1//EN"
 "http://www.w3.org/Graphics/SVG/1.1/DTD/svg11.dtd">
<!-- Generated by graphviz version 2.40.1 (20161225.0304)
 -->
<!-- Title: libnolimits/NL2/Info/Weather.h Pages: 1 -->
<svg width="288pt" height="167pt"
 viewBox="0.00 0.00 288.48 167.00" xmlns="http://www.w3.org/2000/svg" xmlns:xlink="http://www.w3.org/1999/xlink">
<g id="graph0" class="graph" transform="scale(1 1) rotate(0) translate(4 163)">
<title>libnolimits/NL2/Info/Weather.h</title>
<!-- Node17 -->
<g id="node1" class="node">
<title>Node17</title>
<polygon fill="#bfbfbf" stroke="#000000" points="121,-130.5 121,-158.5 221.4824,-158.5 221.4824,-130.5 121,-130.5"/>
<text text-anchor="start" x="129" y="-146.5" font-family="Helvetica,sans-Serif" font-size="10.00" fill="#000000">libnolimits/NL2/Info</text>
<text text-anchor="middle" x="171.2412" y="-136.5" font-family="Helvetica,sans-Serif" font-size="10.00" fill="#000000">/Weather.h</text>
</g>
<!-- Node18 -->
<g id="node2" class="node">
<title>Node18</title>
<g id="a_node2"><a xlink:href="_n_l2_2_info_2_info_8h.html" target="_top" xlink:title="libnolimits/NL2/Info\l/Info.h">
<polygon fill="none" stroke="#000000" points="62,-65.5 62,-93.5 162.4824,-93.5 162.4824,-65.5 62,-65.5"/>
<text text-anchor="start" x="70" y="-81.5" font-family="Helvetica,sans-Serif" font-size="10.00" fill="#000000">libnolimits/NL2/Info</text>
<text text-anchor="middle" x="112.2412" y="-71.5" font-family="Helvetica,sans-Serif" font-size="10.00" fill="#000000">/Info.h</text>
</a>
</g>
</g>
<!-- Node17&#45;&gt;Node18 -->
<g id="edge1" class="edge">
<title>Node17&#45;&gt;Node18</title>
<path fill="none" stroke="#191970" d="M151.4863,-122.7362C142.7569,-113.119 132.7449,-102.0888 125.0183,-93.5765"/>
<polygon fill="#191970" stroke="#191970" points="149.1264,-125.3438 158.4391,-130.396 154.3096,-120.639 149.1264,-125.3438"/>
</g>
<!-- Node22 -->
<g id="node5" class="node">
<title>Node22</title>
<g id="a_node5"><a xlink:href="_weather_8cpp.html" target="_top" xlink:title="libnolimits/NL2/Info\l/Weather.cpp">
<polygon fill="none" stroke="#000000" points="180,-65.5 180,-93.5 280.4824,-93.5 280.4824,-65.5 180,-65.5"/>
<text text-anchor="start" x="188" y="-81.5" font-family="Helvetica,sans-Serif" font-size="10.00" fill="#000000">libnolimits/NL2/Info</text>
<text text-anchor="middle" x="230.2412" y="-71.5" font-family="Helvetica,sans-Serif" font-size="10.00" fill="#000000">/Weather.cpp</text>
</a>
</g>
</g>
<!-- Node17&#45;&gt;Node22 -->
<g id="edge4" class="edge">
<title>Node17&#45;&gt;Node22</title>
<path fill="none" stroke="#191970" d="M190.9961,-122.7362C199.7255,-113.119 209.7375,-102.0888 217.4641,-93.5765"/>
<polygon fill="#191970" stroke="#191970" points="188.1728,-120.639 184.0433,-130.396 193.356,-125.3438 188.1728,-120.639"/>
</g>
<!-- Node19 -->
<g id="node3" class="node">
<title>Node19</title>
<g id="a_node3"><a xlink:href="_n_l2_2_info_2_info_8cpp.html" target="_top" xlink:title="libnolimits/NL2/Info\l/Info.cpp">
<polygon fill="none" stroke="#000000" points="0,-.5 0,-28.5 100.4824,-28.5 100.4824,-.5 0,-.5"/>
<text text-anchor="start" x="8" y="-16.5" font-family="Helvetica,sans-Serif" font-size="10.00" fill="#000000">libnolimits/NL2/Info</text>
<text text-anchor="middle" x="50.2412" y="-6.5" font-family="Helvetica,sans-Serif" font-size="10.00" fill="#000000">/Info.cpp</text>
</a>
</g>
</g>
<!-- Node18&#45;&gt;Node19 -->
<g id="edge2" class="edge">
<title>Node18&#45;&gt;Node19</title>
<path fill="none" stroke="#191970" d="M91.7567,-58.0243C82.5192,-48.3398 71.8686,-37.1739 63.668,-28.5765"/>
<polygon fill="#191970" stroke="#191970" points="89.3534,-60.5756 98.7881,-65.396 94.4186,-55.7441 89.3534,-60.5756"/>
</g>
<!-- Node20 -->
<g id="node4" class="node">
<title>Node20</title>
<g id="a_node4"><a xlink:href="_park_8h.html" target="_top" xlink:title="libnolimits/NL2/Park.h">
<polygon fill="none" stroke="#ff0000" points="118.8892,-5.5 118.8892,-23.5 231.5933,-23.5 231.5933,-5.5 118.8892,-5.5"/>
<text text-anchor="middle" x="175.2412" y="-11.5" font-family="Helvetica,sans-Serif" font-size="10.00" fill="#000000">libnolimits/NL2/Park.h</text>
</a>
</g>
</g>
<!-- Node18&#45;&gt;Node20 -->
<g id="edge3" class="edge">
<title>Node18&#45;&gt;Node20</title>
<path fill="none" stroke="#191970" d="M132.9951,-58.0873C144.3498,-46.3721 157.821,-32.4732 166.4461,-23.5743"/>
<polygon fill="#191970" stroke="#191970" points="130.3578,-55.7793 125.9113,-65.396 135.3843,-60.6512 130.3578,-55.7793"/>
</g>
</g>
</svg>
