<?xml version="1.0" encoding="UTF-8" standalone="no"?>
<!DOCTYPE svg PUBLIC "-//W3C//DTD SVG 1.1//EN"
 "http://www.w3.org/Graphics/SVG/1.1/DTD/svg11.dtd">
<!-- Generated by graphviz version 2.40.1 (20161225.0304)
 -->
<!-- Title: libnolimits/NL2/Info/Weather.cpp Pages: 1 -->
<svg width="164pt" height="147pt"
 viewBox="0.00 0.00 163.64 147.00" xmlns="http://www.w3.org/2000/svg" xmlns:xlink="http://www.w3.org/1999/xlink">
<g id="graph0" class="graph" transform="scale(1 1) rotate(0) translate(4 143)">
<title>libnolimits/NL2/Info/Weather.cpp</title>
<!-- Node0 -->
<g id="node1" class="node">
<title>Node0</title>
<polygon fill="#bfbfbf" stroke="#000000" points="40.2217,-110.5 40.2217,-138.5 140.7041,-138.5 140.7041,-110.5 40.2217,-110.5"/>
<text text-anchor="start" x="48.2217" y="-126.5" font-family="Helvetica,sans-Serif" font-size="10.00" fill="#000000">libnolimits/NL2/Info</text>
<text text-anchor="middle" x="90.4629" y="-116.5" font-family="Helvetica,sans-Serif" font-size="10.00" fill="#000000">/Weather.cpp</text>
</g>
<!-- Node1 -->
<g id="node2" class="node">
<title>Node1</title>
<g id="a_node2"><a xlink:href="_weather_8h.html" target="_top" xlink:title="Weather.h">
<polygon fill="none" stroke="#000000" points="21.7578,-55.5 21.7578,-73.5 83.168,-73.5 83.168,-55.5 21.7578,-55.5"/>
<text text-anchor="middle" x="52.4629" y="-61.5" font-family="Helvetica,sans-Serif" font-size="10.00" fill="#000000">Weather.h</text>
</a>
</g>
</g>
<!-- Node0&#45;&gt;Node1 -->
<g id="edge1" class="edge">
<title>Node0&#45;&gt;Node1</title>
<path fill="none" stroke="#191970" d="M81.4574,-110.2808C76.1146,-101.8448 69.2977,-91.0813 63.6164,-82.1107"/>
<polygon fill="#191970" stroke="#191970" points="66.5236,-80.1597 58.2162,-73.5842 60.6099,-83.9051 66.5236,-80.1597"/>
</g>
<!-- Node11 -->
<g id="node4" class="node">
<title>Node11</title>
<polygon fill="none" stroke="#bfbfbf" points="101.2905,-55.5 101.2905,-73.5 155.6353,-73.5 155.6353,-55.5 101.2905,-55.5"/>
<text text-anchor="middle" x="128.4629" y="-61.5" font-family="Helvetica,sans-Serif" font-size="10.00" fill="#000000">iostream</text>
</g>
<!-- Node0&#45;&gt;Node11 -->
<g id="edge3" class="edge">
<title>Node0&#45;&gt;Node11</title>
<path fill="none" stroke="#191970" d="M99.4684,-110.2808C104.8112,-101.8448 111.6281,-91.0813 117.3094,-82.1107"/>
<polygon fill="#191970" stroke="#191970" points="120.3159,-83.9051 122.7096,-73.5842 114.4021,-80.1597 120.3159,-83.9051"/>
</g>
<!-- Node2 -->
<g id="node3" class="node">
<title>Node2</title>
<g id="a_node3"><a xlink:href="_chunk_8h.html" target="_top" xlink:title="../../Stream/Chunk.h">
<polygon fill="none" stroke="#ff0000" points="0,-.5 0,-18.5 104.9258,-18.5 104.9258,-.5 0,-.5"/>
<text text-anchor="middle" x="52.4629" y="-6.5" font-family="Helvetica,sans-Serif" font-size="10.00" fill="#000000">../../Stream/Chunk.h</text>
</a>
</g>
</g>
<!-- Node1&#45;&gt;Node2 -->
<g id="edge2" class="edge">
<title>Node1&#45;&gt;Node2</title>
<path fill="none" stroke="#191970" d="M52.4629,-55.4179C52.4629,-48.2164 52.4629,-37.8962 52.4629,-28.8632"/>
<polygon fill="#191970" stroke="#191970" points="55.963,-28.7794 52.4629,-18.7795 48.963,-28.7795 55.963,-28.7794"/>
</g>
</g>
</svg>
