<?xml version="1.0" encoding="UTF-8" standalone="no"?>
<!DOCTYPE svg PUBLIC "-//W3C//DTD SVG 1.1//EN"
 "http://www.w3.org/Graphics/SVG/1.1/DTD/svg11.dtd">
<!-- Generated by graphviz version 2.40.1 (20161225.0304)
 -->
<!-- Title: libnolimits/NL2/Coaster/Track/WoodenSupportGenerator.h Pages: 1 -->
<svg width="179pt" height="202pt"
 viewBox="0.00 0.00 179.10 202.00" xmlns="http://www.w3.org/2000/svg" xmlns:xlink="http://www.w3.org/1999/xlink">
<g id="graph0" class="graph" transform="scale(1 1) rotate(0) translate(4 198)">
<title>libnolimits/NL2/Coaster/Track/WoodenSupportGenerator.h</title>
<!-- Node0 -->
<g id="node1" class="node">
<title>Node0</title>
<polygon fill="#bfbfbf" stroke="#000000" points="0,-165.5 0,-193.5 171.1025,-193.5 171.1025,-165.5 0,-165.5"/>
<text text-anchor="start" x="8" y="-181.5" font-family="Helvetica,sans-Serif" font-size="10.00" fill="#000000">libnolimits/NL2/Coaster</text>
<text text-anchor="middle" x="85.5513" y="-171.5" font-family="Helvetica,sans-Serif" font-size="10.00" fill="#000000">/Track/WoodenSupportGenerator.h</text>
</g>
<!-- Node1 -->
<g id="node2" class="node">
<title>Node1</title>
<g id="a_node2"><a xlink:href="_chunk_8h.html" target="_top" xlink:title="../../../Stream/Chunk.h">
<polygon fill="none" stroke="#000000" points="28.9209,-110.5 28.9209,-128.5 142.1816,-128.5 142.1816,-110.5 28.9209,-110.5"/>
<text text-anchor="middle" x="85.5513" y="-116.5" font-family="Helvetica,sans-Serif" font-size="10.00" fill="#000000">../../../Stream/Chunk.h</text>
</a>
</g>
</g>
<!-- Node0&#45;&gt;Node1 -->
<g id="edge1" class="edge">
<title>Node0&#45;&gt;Node1</title>
<path fill="none" stroke="#191970" d="M85.5513,-165.2808C85.5513,-157.3776 85.5513,-147.4316 85.5513,-138.8308"/>
<polygon fill="#191970" stroke="#191970" points="89.0514,-138.5842 85.5513,-128.5842 82.0514,-138.5842 89.0514,-138.5842"/>
</g>
<!-- Node2 -->
<g id="node3" class="node">
<title>Node2</title>
<g id="a_node3"><a xlink:href="_file_8h.html" target="_top" xlink:title="../File/File.h">
<polygon fill="none" stroke="#ff0000" points="51.7114,-55.5 51.7114,-73.5 119.3911,-73.5 119.3911,-55.5 51.7114,-55.5"/>
<text text-anchor="middle" x="85.5513" y="-61.5" font-family="Helvetica,sans-Serif" font-size="10.00" fill="#000000">../File/File.h</text>
</a>
</g>
</g>
<!-- Node1&#45;&gt;Node2 -->
<g id="edge2" class="edge">
<title>Node1&#45;&gt;Node2</title>
<path fill="none" stroke="#191970" d="M85.5513,-110.4179C85.5513,-103.2164 85.5513,-92.8962 85.5513,-83.8632"/>
<polygon fill="#191970" stroke="#191970" points="89.0514,-83.7794 85.5513,-73.7795 82.0514,-83.7795 89.0514,-83.7794"/>
</g>
<!-- Node6 -->
<g id="node4" class="node">
<title>Node6</title>
<polygon fill="none" stroke="#bfbfbf" points="23.4307,-.5 23.4307,-18.5 71.6719,-18.5 71.6719,-.5 23.4307,-.5"/>
<text text-anchor="middle" x="47.5513" y="-6.5" font-family="Helvetica,sans-Serif" font-size="10.00" fill="#000000">stdint.h</text>
</g>
<!-- Node1&#45;&gt;Node6 -->
<g id="edge5" class="edge">
<title>Node1&#45;&gt;Node6</title>
<path fill="none" stroke="#191970" d="M72.6389,-110.3491C62.3041,-102.1662 48.5769,-89.1487 42.5513,-74 36.7786,-59.4871 38.7529,-41.7087 41.761,-28.495"/>
<polygon fill="#191970" stroke="#191970" points="45.1939,-29.2048 44.3837,-18.641 38.4294,-27.4044 45.1939,-29.2048"/>
</g>
<!-- Node7 -->
<g id="node5" class="node">
<title>Node7</title>
<g id="a_node5"><a xlink:href="_nolimits_8h.html" target="_top" xlink:title="../Nolimits.h">
<polygon fill="none" stroke="#ff0000" points="101.4355,-.5 101.4355,-18.5 169.667,-18.5 169.667,-.5 101.4355,-.5"/>
<text text-anchor="middle" x="135.5513" y="-6.5" font-family="Helvetica,sans-Serif" font-size="10.00" fill="#000000">../Nolimits.h</text>
</a>
</g>
</g>
<!-- Node1&#45;&gt;Node7 -->
<g id="edge6" class="edge">
<title>Node1&#45;&gt;Node7</title>
<path fill="none" stroke="#191970" d="M97.6459,-110.4994C107.7644,-102.2267 121.6249,-88.9984 128.5513,-74 135.0527,-59.9218 136.5859,-42.3317 136.6142,-29.0784"/>
<polygon fill="#191970" stroke="#191970" points="140.1041,-28.6484 136.3388,-18.7453 133.1066,-28.835 140.1041,-28.6484"/>
</g>
<!-- Node2&#45;&gt;Node6 -->
<g id="edge3" class="edge">
<title>Node2&#45;&gt;Node6</title>
<path fill="none" stroke="#191970" d="M79.2763,-55.4179C73.9727,-47.7415 66.2208,-36.5217 59.7075,-27.0945"/>
<polygon fill="#191970" stroke="#191970" points="62.5265,-25.0173 53.9625,-18.7795 56.7673,-28.9963 62.5265,-25.0173"/>
</g>
<!-- Node2&#45;&gt;Node7 -->
<g id="edge4" class="edge">
<title>Node2&#45;&gt;Node7</title>
<path fill="none" stroke="#191970" d="M93.8078,-55.4179C101.0021,-47.5041 111.6201,-35.8243 120.3466,-26.2251"/>
<polygon fill="#191970" stroke="#191970" points="122.9784,-28.5332 127.1154,-18.7795 117.7988,-23.8245 122.9784,-28.5332"/>
</g>
</g>
</svg>
