<?xml version="1.0" encoding="UTF-8" standalone="no"?>
<!DOCTYPE svg PUBLIC "-//W3C//DTD SVG 1.1//EN"
 "http://www.w3.org/Graphics/SVG/1.1/DTD/svg11.dtd">
<!-- Generated by graphviz version 2.40.1 (20161225.0304)
 -->
<!-- Title: libnolimits/NL2/Coaster/Track/WoodenSupportGenerator.h Pages: 1 -->
<svg width="534pt" height="232pt"
 viewBox="0.00 0.00 533.82 232.00" xmlns="http://www.w3.org/2000/svg" xmlns:xlink="http://www.w3.org/1999/xlink">
<g id="graph0" class="graph" transform="scale(1 1) rotate(0) translate(4 228)">
<title>libnolimits/NL2/Coaster/Track/WoodenSupportGenerator.h</title>
<!-- Node17 -->
<g id="node1" class="node">
<title>Node17</title>
<polygon fill="#bfbfbf" stroke="#000000" points="246.8574,-195.5 246.8574,-223.5 417.96,-223.5 417.96,-195.5 246.8574,-195.5"/>
<text text-anchor="start" x="254.8574" y="-211.5" font-family="Helvetica,sans-Serif" font-size="10.00" fill="#000000">libnolimits/NL2/Coaster</text>
<text text-anchor="middle" x="332.4087" y="-201.5" font-family="Helvetica,sans-Serif" font-size="10.00" fill="#000000">/Track/WoodenSupportGenerator.h</text>
</g>
<!-- Node18 -->
<g id="node2" class="node">
<title>Node18</title>
<g id="a_node2"><a xlink:href="_segment_8h.html" target="_top" xlink:title="libnolimits/NL2/Coaster\l/Track/Segment.h">
<polygon fill="none" stroke="#000000" points="189,-130.5 189,-158.5 307.8174,-158.5 307.8174,-130.5 189,-130.5"/>
<text text-anchor="start" x="197" y="-146.5" font-family="Helvetica,sans-Serif" font-size="10.00" fill="#000000">libnolimits/NL2/Coaster</text>
<text text-anchor="middle" x="248.4087" y="-136.5" font-family="Helvetica,sans-Serif" font-size="10.00" fill="#000000">/Track/Segment.h</text>
</a>
</g>
</g>
<!-- Node17&#45;&gt;Node18 -->
<g id="edge1" class="edge">
<title>Node17&#45;&gt;Node18</title>
<path fill="none" stroke="#191970" d="M306.133,-189.1677C293.2883,-179.2283 278.1504,-167.5144 266.5999,-158.5765"/>
<polygon fill="#191970" stroke="#191970" points="304.1313,-192.0442 314.1819,-195.396 308.4152,-186.508 304.1313,-192.0442"/>
</g>
<!-- Node34 -->
<g id="node9" class="node">
<title>Node34</title>
<g id="a_node9"><a xlink:href="_wooden_support_generator_8cpp.html" target="_top" xlink:title="libnolimits/NL2/Coaster\l/Track/WoodenSupportGenerator.cpp">
<polygon fill="none" stroke="#000000" points="325.5767,-130.5 325.5767,-158.5 507.2407,-158.5 507.2407,-130.5 325.5767,-130.5"/>
<text text-anchor="start" x="333.5767" y="-146.5" font-family="Helvetica,sans-Serif" font-size="10.00" fill="#000000">libnolimits/NL2/Coaster</text>
<text text-anchor="middle" x="416.4087" y="-136.5" font-family="Helvetica,sans-Serif" font-size="10.00" fill="#000000">/Track/WoodenSupportGenerator.cpp</text>
</a>
</g>
</g>
<!-- Node17&#45;&gt;Node34 -->
<g id="edge11" class="edge">
<title>Node17&#45;&gt;Node34</title>
<path fill="none" stroke="#191970" d="M358.6843,-189.1677C371.529,-179.2283 386.667,-167.5144 398.2175,-158.5765"/>
<polygon fill="#191970" stroke="#191970" points="356.4022,-186.508 350.6354,-195.396 360.6861,-192.0442 356.4022,-186.508"/>
</g>
<!-- Node19 -->
<g id="node3" class="node">
<title>Node19</title>
<g id="a_node3"><a xlink:href="_custom_track_8h.html" target="_top" xlink:title="libnolimits/NL2/Coaster\l/Track/CustomTrack.h">
<polygon fill="none" stroke="#ff0000" points="0,-.5 0,-28.5 118.8174,-28.5 118.8174,-.5 0,-.5"/>
<text text-anchor="start" x="8" y="-16.5" font-family="Helvetica,sans-Serif" font-size="10.00" fill="#000000">libnolimits/NL2/Coaster</text>
<text text-anchor="middle" x="59.4087" y="-6.5" font-family="Helvetica,sans-Serif" font-size="10.00" fill="#000000">/Track/CustomTrack.h</text>
</a>
</g>
</g>
<!-- Node18&#45;&gt;Node19 -->
<g id="edge2" class="edge">
<title>Node18&#45;&gt;Node19</title>
<path fill="none" stroke="#191970" d="M178.9708,-135.8707C128.4773,-128.0026 66.2993,-114.4522 50.4087,-94 35.8357,-75.2436 44.747,-46.0731 52.2712,-28.7699"/>
<polygon fill="#191970" stroke="#191970" points="178.4861,-139.3371 188.8966,-137.3689 179.531,-132.4155 178.4861,-139.3371"/>
</g>
<!-- Node25 -->
<g id="node4" class="node">
<title>Node25</title>
<g id="a_node4"><a xlink:href="_separator_8h.html" target="_top" xlink:title="libnolimits/NL2/Coaster\l/Track/Separator.h">
<polygon fill="none" stroke="#ff0000" points="59,-65.5 59,-93.5 177.8174,-93.5 177.8174,-65.5 59,-65.5"/>
<text text-anchor="start" x="67" y="-81.5" font-family="Helvetica,sans-Serif" font-size="10.00" fill="#000000">libnolimits/NL2/Coaster</text>
<text text-anchor="middle" x="118.4087" y="-71.5" font-family="Helvetica,sans-Serif" font-size="10.00" fill="#000000">/Track/Separator.h</text>
</a>
</g>
</g>
<!-- Node18&#45;&gt;Node25 -->
<g id="edge3" class="edge">
<title>Node18&#45;&gt;Node25</title>
<path fill="none" stroke="#191970" d="M211.1153,-125.8533C190.5609,-115.5761 165.459,-103.0252 146.5617,-93.5765"/>
<polygon fill="#191970" stroke="#191970" points="209.6911,-129.0543 220.2006,-130.396 212.8216,-122.7933 209.6911,-129.0543"/>
</g>
<!-- Node27 -->
<g id="node5" class="node">
<title>Node27</title>
<g id="a_node5"><a xlink:href="_special_track_8h.html" target="_top" xlink:title="libnolimits/NL2/Coaster\l/Track/SpecialTrack.h">
<polygon fill="none" stroke="#ff0000" points="233,-65.5 233,-93.5 351.8174,-93.5 351.8174,-65.5 233,-65.5"/>
<text text-anchor="start" x="241" y="-81.5" font-family="Helvetica,sans-Serif" font-size="10.00" fill="#000000">libnolimits/NL2/Coaster</text>
<text text-anchor="middle" x="292.4087" y="-71.5" font-family="Helvetica,sans-Serif" font-size="10.00" fill="#000000">/Track/SpecialTrack.h</text>
</a>
</g>
</g>
<!-- Node18&#45;&gt;Node27 -->
<g id="edge5" class="edge">
<title>Node18&#45;&gt;Node27</title>
<path fill="none" stroke="#191970" d="M263.7296,-121.8669C270.0977,-112.4594 277.2907,-101.8334 282.88,-93.5765"/>
<polygon fill="#191970" stroke="#191970" points="260.6634,-120.1529 257.956,-130.396 266.4601,-124.0769 260.6634,-120.1529"/>
</g>
<!-- Node29 -->
<g id="node6" class="node">
<title>Node29</title>
<g id="a_node6"><a xlink:href="_switch_track_8h.html" target="_top" xlink:title="libnolimits/NL2/Coaster\l/Track/SwitchTrack.h">
<polygon fill="none" stroke="#ff0000" points="155,-.5 155,-28.5 273.8174,-28.5 273.8174,-.5 155,-.5"/>
<text text-anchor="start" x="163" y="-16.5" font-family="Helvetica,sans-Serif" font-size="10.00" fill="#000000">libnolimits/NL2/Coaster</text>
<text text-anchor="middle" x="214.4087" y="-6.5" font-family="Helvetica,sans-Serif" font-size="10.00" fill="#000000">/Track/SwitchTrack.h</text>
</a>
</g>
</g>
<!-- Node18&#45;&gt;Node29 -->
<g id="edge9" class="edge">
<title>Node18&#45;&gt;Node29</title>
<path fill="none" stroke="#191970" d="M235.4662,-121.2711C231.321,-112.9027 227.1101,-103.2415 224.4087,-94 217.8907,-71.702 215.6211,-44.6645 214.8309,-28.5601"/>
<polygon fill="#191970" stroke="#191970" points="232.4918,-123.1378 240.2077,-130.3984 238.7036,-119.9108 232.4918,-123.1378"/>
</g>
<!-- Node31 -->
<g id="node7" class="node">
<title>Node31</title>
<g id="a_node7"><a xlink:href="_transfer_table_8h.html" target="_top" xlink:title="libnolimits/NL2/Coaster\l/Track/TransferTable.h">
<polygon fill="none" stroke="#ff0000" points="310,-.5 310,-28.5 428.8174,-28.5 428.8174,-.5 310,-.5"/>
<text text-anchor="start" x="318" y="-16.5" font-family="Helvetica,sans-Serif" font-size="10.00" fill="#000000">libnolimits/NL2/Coaster</text>
<text text-anchor="middle" x="369.4087" y="-6.5" font-family="Helvetica,sans-Serif" font-size="10.00" fill="#000000">/Track/TransferTable.h</text>
</a>
</g>
</g>
<!-- Node18&#45;&gt;Node31 -->
<g id="edge10" class="edge">
<title>Node18&#45;&gt;Node31</title>
<path fill="none" stroke="#191970" d="M317.1416,-126.6725C333.7104,-119.1929 349.7004,-108.6878 360.4087,-94 374.4016,-74.807 373.7165,-45.7831 371.7189,-28.6254"/>
<polygon fill="#191970" stroke="#191970" points="315.7893,-123.4442 307.9071,-130.5239 318.4838,-129.9048 315.7893,-123.4442"/>
</g>
<!-- Node33 -->
<g id="node8" class="node">
<title>Node33</title>
<g id="a_node8"><a xlink:href="_segment_8cpp.html" target="_top" xlink:title="libnolimits/NL2/Coaster\l/Track/Segment.cpp">
<polygon fill="none" stroke="#000000" points="407,-65.5 407,-93.5 525.8174,-93.5 525.8174,-65.5 407,-65.5"/>
<text text-anchor="start" x="415" y="-81.5" font-family="Helvetica,sans-Serif" font-size="10.00" fill="#000000">libnolimits/NL2/Coaster</text>
<text text-anchor="middle" x="466.4087" y="-71.5" font-family="Helvetica,sans-Serif" font-size="10.00" fill="#000000">/Track/Segment.cpp</text>
</a>
</g>
</g>
<!-- Node18&#45;&gt;Node33 -->
<g id="edge8" class="edge">
<title>Node18&#45;&gt;Node33</title>
<path fill="none" stroke="#191970" d="M305.1566,-127.5797C340.564,-117.0225 385.6073,-103.5921 419.0829,-93.6109"/>
<polygon fill="#191970" stroke="#191970" points="304.0261,-124.2645 295.4431,-130.476 306.0262,-130.9727 304.0261,-124.2645"/>
</g>
<!-- Node25&#45;&gt;Node19 -->
<g id="edge4" class="edge">
<title>Node25&#45;&gt;Node19</title>
<path fill="none" stroke="#191970" d="M98.6538,-57.7362C89.9244,-48.119 79.9124,-37.0888 72.1858,-28.5765"/>
<polygon fill="#191970" stroke="#191970" points="96.2939,-60.3438 105.6066,-65.396 101.4771,-55.639 96.2939,-60.3438"/>
</g>
<!-- Node27&#45;&gt;Node29 -->
<g id="edge6" class="edge">
<title>Node27&#45;&gt;Node29</title>
<path fill="none" stroke="#191970" d="M267.6685,-58.8832C255.8152,-49.0054 241.9238,-37.4293 231.3005,-28.5765"/>
<polygon fill="#191970" stroke="#191970" points="265.561,-61.6829 275.4839,-65.396 270.0423,-56.3053 265.561,-61.6829"/>
</g>
<!-- Node27&#45;&gt;Node31 -->
<g id="edge7" class="edge">
<title>Node27&#45;&gt;Node31</title>
<path fill="none" stroke="#191970" d="M316.8317,-58.8832C328.533,-49.0054 342.2463,-37.4293 352.7334,-28.5765"/>
<polygon fill="#191970" stroke="#191970" points="314.5003,-56.2709 309.1165,-65.396 319.0156,-61.6199 314.5003,-56.2709"/>
</g>
</g>
</svg>
