<?xml version="1.0" encoding="UTF-8" standalone="no"?>
<!DOCTYPE svg PUBLIC "-//W3C//DTD SVG 1.1//EN"
 "http://www.w3.org/Graphics/SVG/1.1/DTD/svg11.dtd">
<!-- Generated by graphviz version 2.40.1 (20161225.0304)
 -->
<!-- Title: NoLimits::NoLimits2::Info Pages: 1 -->
<svg width="614pt" height="512pt"
 viewBox="0.00 0.00 613.91 511.50" xmlns="http://www.w3.org/2000/svg" xmlns:xlink="http://www.w3.org/1999/xlink">
<g id="graph0" class="graph" transform="scale(1 1) rotate(0) translate(4 507.5)">
<title>NoLimits::NoLimits2::Info</title>
<!-- Node0 -->
<g id="node1" class="node">
<title>Node0</title>
<polygon fill="#bfbfbf" stroke="#000000" points="500.9971,-189.5 500.9971,-217.5 605.9082,-217.5 605.9082,-189.5 500.9971,-189.5"/>
<text text-anchor="start" x="508.9971" y="-205.5" font-family="Helvetica,sans-Serif" font-size="10.00" fill="#000000">NoLimits::NoLimits2</text>
<text text-anchor="middle" x="553.4526" y="-195.5" font-family="Helvetica,sans-Serif" font-size="10.00" fill="#000000">::Info</text>
</g>
<!-- Node1 -->
<g id="node2" class="node">
<title>Node1</title>
<g id="a_node2"><a xlink:href="class_no_limits_1_1_stream_1_1_chunk.html" target="_top" xlink:title="NoLimits::Stream::Chunk">
<polygon fill="none" stroke="#000000" points="0,-282.5 0,-300.5 127.1475,-300.5 127.1475,-282.5 0,-282.5"/>
<text text-anchor="middle" x="63.5737" y="-288.5" font-family="Helvetica,sans-Serif" font-size="10.00" fill="#000000">NoLimits::Stream::Chunk</text>
</a>
</g>
</g>
<!-- Node1&#45;&gt;Node0 -->
<g id="edge1" class="edge">
<title>Node1&#45;&gt;Node0</title>
<path fill="none" stroke="#191970" d="M137.7966,-295.8219C207.3297,-298.1935 313.7549,-297.5014 403.8545,-278.5 440.3624,-270.8007 449.6339,-267.2034 482.9971,-250.5 501.6672,-241.1527 521.3028,-227.7142 535.0884,-217.5991"/>
<polygon fill="#191970" stroke="#191970" points="137.5103,-292.3089 127.3871,-295.4345 137.2499,-299.3041 137.5103,-292.3089"/>
</g>
<!-- Node2 -->
<g id="node3" class="node">
<title>Node2</title>
<g id="a_node3"><a xlink:href="class_no_limits_1_1_no_limits2_1_1_sky.html" target="_top" xlink:title="NoLimits::NoLimits2::Sky">
<polygon fill="none" stroke="#000000" points="276.7168,-250.5 276.7168,-268.5 403.8545,-268.5 403.8545,-250.5 276.7168,-250.5"/>
<text text-anchor="middle" x="340.2856" y="-256.5" font-family="Helvetica,sans-Serif" font-size="10.00" fill="#000000">NoLimits::NoLimits2::Sky</text>
</a>
</g>
</g>
<!-- Node1&#45;&gt;Node2 -->
<g id="edge3" class="edge">
<title>Node1&#45;&gt;Node2</title>
<path fill="none" stroke="#191970" d="M137.5874,-282.9408C180.8423,-277.9386 234.8915,-271.6882 276.2973,-266.8999"/>
<polygon fill="#191970" stroke="#191970" points="136.9362,-279.4927 127.4045,-284.1184 137.7404,-286.4463 136.9362,-279.4927"/>
</g>
<!-- Node5 -->
<g id="node6" class="node">
<title>Node5</title>
<g id="a_node6"><a xlink:href="class_no_limits_1_1_no_limits2_1_1_weather.html" target="_top" xlink:title="NoLimits::NoLimits2\l::Weather">
<polygon fill="none" stroke="#000000" points="287.8301,-344.5 287.8301,-372.5 392.7412,-372.5 392.7412,-344.5 287.8301,-344.5"/>
<text text-anchor="start" x="295.8301" y="-360.5" font-family="Helvetica,sans-Serif" font-size="10.00" fill="#000000">NoLimits::NoLimits2</text>
<text text-anchor="middle" x="340.2856" y="-350.5" font-family="Helvetica,sans-Serif" font-size="10.00" fill="#000000">::Weather</text>
</a>
</g>
</g>
<!-- Node1&#45;&gt;Node5 -->
<g id="edge7" class="edge">
<title>Node1&#45;&gt;Node5</title>
<path fill="none" stroke="#191970" d="M102.4185,-303.5251C115.8924,-307.5372 131.1333,-311.899 145.1475,-315.5 193.0266,-327.8028 248.0662,-339.7327 287.4592,-347.8927"/>
<polygon fill="#191970" stroke="#191970" points="103.0933,-300.0732 92.5089,-300.5436 101.0764,-306.7764 103.0933,-300.0732"/>
</g>
<!-- Node8 -->
<g id="node9" class="node">
<title>Node8</title>
<g id="a_node9"><a xlink:href="class_no_limits_1_1_no_limits2_1_1_version.html" target="_top" xlink:title="NoLimits::NoLimits2\l::Version">
<polygon fill="none" stroke="#000000" points="287.8301,-189.5 287.8301,-217.5 392.7412,-217.5 392.7412,-189.5 287.8301,-189.5"/>
<text text-anchor="start" x="295.8301" y="-205.5" font-family="Helvetica,sans-Serif" font-size="10.00" fill="#000000">NoLimits::NoLimits2</text>
<text text-anchor="middle" x="340.2856" y="-195.5" font-family="Helvetica,sans-Serif" font-size="10.00" fill="#000000">::Version</text>
</a>
</g>
</g>
<!-- Node1&#45;&gt;Node8 -->
<g id="edge13" class="edge">
<title>Node1&#45;&gt;Node8</title>
<path fill="none" stroke="#191970" d="M104.8656,-279.5712C117.744,-275.9279 132.0138,-271.9696 145.1475,-268.5 195.4099,-255.2221 209.5993,-257.532 258.7168,-240.5 277.0816,-234.1318 296.9595,-225.1611 312.4944,-217.6476"/>
<polygon fill="#191970" stroke="#191970" points="103.545,-276.3079 94.884,-282.4102 105.4601,-283.0409 103.545,-276.3079"/>
</g>
<!-- Node2&#45;&gt;Node0 -->
<g id="edge2" class="edge">
<title>Node2&#45;&gt;Node0</title>
<path fill="none" stroke="#9a32cd" stroke-dasharray="5,2" d="M385.0564,-247.7385C418.8236,-238.8677 465.24,-226.6739 500.7907,-217.3346"/>
<polygon fill="#9a32cd" stroke="#9a32cd" points="383.7915,-244.452 375.009,-250.378 385.5702,-251.2222 383.7915,-244.452"/>
<text text-anchor="middle" x="452.4258" y="-238.5" font-family="Helvetica,sans-Serif" font-size="10.00" fill="#000000"> sky</text>
</g>
<!-- Node3 -->
<g id="node4" class="node">
<title>Node3</title>
<polygon fill="none" stroke="#bfbfbf" points="46.1206,-386.5 46.1206,-404.5 81.0269,-404.5 81.0269,-386.5 46.1206,-386.5"/>
<text text-anchor="middle" x="63.5737" y="-392.5" font-family="Helvetica,sans-Serif" font-size="10.00" fill="#000000">bool</text>
</g>
<!-- Node3&#45;&gt;Node0 -->
<g id="edge10" class="edge">
<title>Node3&#45;&gt;Node0</title>
<path fill="none" stroke="#9a32cd" stroke-dasharray="5,2" d="M90.9062,-402.8662C164.4268,-420.8827 368.5655,-458.7967 482.9971,-359.5 527.4386,-320.9364 545.2816,-248.7058 551.0854,-217.9558"/>
<polygon fill="#9a32cd" stroke="#9a32cd" points="91.5857,-399.4279 81.0329,-400.3711 89.8705,-406.2146 91.5857,-399.4279"/>
<text text-anchor="start" x="282.1948" y="-436.5" font-family="Helvetica,sans-Serif" font-size="10.00" fill="#000000"> initialPositionAndRotation</text>
<text text-anchor="middle" x="340.2856" y="-426.5" font-family="Helvetica,sans-Serif" font-size="10.00" fill="#000000">Enabled</text>
</g>
<!-- Node3&#45;&gt;Node2 -->
<g id="edge4" class="edge">
<title>Node3&#45;&gt;Node2</title>
<path fill="none" stroke="#9a32cd" stroke-dasharray="5,2" d="M90.5729,-382.2303C146.4942,-354.7457 273.7545,-292.1991 321.6191,-268.6744"/>
<polygon fill="#9a32cd" stroke="#9a32cd" points="88.735,-379.2336 81.3042,-386.7857 91.8227,-385.5159 88.735,-379.2336"/>
<text text-anchor="middle" x="201.9321" y="-356.5" font-family="Helvetica,sans-Serif" font-size="10.00" fill="#000000"> overrideDefaultDateTime</text>
</g>
<!-- Node3&#45;&gt;Node5 -->
<g id="edge9" class="edge">
<title>Node3&#45;&gt;Node5</title>
<path fill="none" stroke="#9a32cd" stroke-dasharray="5,2" d="M91.3697,-392.9805C129.2914,-389.4032 199.3209,-382.2985 258.7168,-373.5 268.1174,-372.1075 278.0924,-370.436 287.7209,-368.7219"/>
<polygon fill="#9a32cd" stroke="#9a32cd" points="90.7518,-389.5228 81.1194,-393.935 91.4009,-396.4926 90.7518,-389.5228"/>
<text text-anchor="middle" x="201.9321" y="-388.5" font-family="Helvetica,sans-Serif" font-size="10.00" fill="#000000"> overwriteDefaultWeather</text>
</g>
<!-- Node4 -->
<g id="node5" class="node">
<title>Node4</title>
<polygon fill="none" stroke="#bfbfbf" points="45.0122,-112.5 45.0122,-130.5 82.1353,-130.5 82.1353,-112.5 45.0122,-112.5"/>
<text text-anchor="middle" x="63.5737" y="-118.5" font-family="Helvetica,sans-Serif" font-size="10.00" fill="#000000">vec2</text>
</g>
<!-- Node4&#45;&gt;Node0 -->
<g id="edge15" class="edge">
<title>Node4&#45;&gt;Node0</title>
<path fill="none" stroke="#9a32cd" stroke-dasharray="5,2" d="M92.5586,-124.113C130.7437,-127.7051 199.9438,-134.7318 258.7168,-143.5 323.6109,-153.1814 339.5568,-157.4314 403.8545,-170.5 436.1731,-177.0688 472.2816,-185.0165 500.9261,-191.4662"/>
<polygon fill="#9a32cd" stroke="#9a32cd" points="92.4778,-120.5906 82.1971,-123.1513 91.8308,-127.5606 92.4778,-120.5906"/>
<text text-anchor="middle" x="340.2856" y="-172.5" font-family="Helvetica,sans-Serif" font-size="10.00" fill="#000000"> initialRotation</text>
</g>
<!-- Node4&#45;&gt;Node2 -->
<g id="edge5" class="edge">
<title>Node4&#45;&gt;Node2</title>
<path fill="none" stroke="#9a32cd" stroke-dasharray="5,2" d="M92.5152,-124.1696C104.6014,-126.667 117.942,-131.4358 127.1475,-140.5 146.0775,-159.1395 126.3786,-178.6982 145.1475,-197.5 166.4939,-218.884 245.5414,-239.2081 296.2425,-250.45"/>
<polygon fill="#9a32cd" stroke="#9a32cd" points="92.7861,-120.6675 82.3525,-122.5087 91.657,-127.5758 92.7861,-120.6675"/>
<text text-anchor="middle" x="201.9321" y="-252.5" font-family="Helvetica,sans-Serif" font-size="10.00" fill="#000000"> currentTime</text>
<text text-anchor="middle" x="201.9321" y="-242.5" font-family="Helvetica,sans-Serif" font-size="10.00" fill="#000000">currentDate</text>
</g>
<!-- Node5&#45;&gt;Node0 -->
<g id="edge6" class="edge">
<title>Node5&#45;&gt;Node0</title>
<path fill="none" stroke="#9a32cd" stroke-dasharray="5,2" d="M403.0059,-351.2888C429.7247,-345.7345 459.9712,-335.9028 482.9971,-318.5 518.3011,-291.8175 539.879,-241.8515 548.7554,-217.5252"/>
<polygon fill="#9a32cd" stroke="#9a32cd" points="402.1228,-347.8943 392.9608,-353.215 403.4411,-354.7691 402.1228,-347.8943"/>
<text text-anchor="middle" x="452.4258" y="-347.5" font-family="Helvetica,sans-Serif" font-size="10.00" fill="#000000"> weather</text>
</g>
<!-- Node6 -->
<g id="node7" class="node">
<title>Node6</title>
<polygon fill="none" stroke="#bfbfbf" points="46.123,-444.5 46.123,-462.5 81.0244,-462.5 81.0244,-444.5 46.123,-444.5"/>
<text text-anchor="middle" x="63.5737" y="-450.5" font-family="Helvetica,sans-Serif" font-size="10.00" fill="#000000">float</text>
</g>
<!-- Node6&#45;&gt;Node5 -->
<g id="edge8" class="edge">
<title>Node6&#45;&gt;Node5</title>
<path fill="none" stroke="#9a32cd" stroke-dasharray="5,2" d="M91.093,-447.9442C129.4156,-439.779 200.6841,-423.032 258.7168,-400.5 278.7621,-392.7171 300.3494,-381.4629 316.2781,-372.5629"/>
<polygon fill="#9a32cd" stroke="#9a32cd" points="90.266,-444.5413 81.196,-450.0173 91.7012,-451.3926 90.266,-444.5413"/>
<text text-anchor="middle" x="201.9321" y="-495.5" font-family="Helvetica,sans-Serif" font-size="10.00" fill="#000000"> overcastIntensity</text>
<text text-anchor="middle" x="201.9321" y="-485.5" font-family="Helvetica,sans-Serif" font-size="10.00" fill="#000000">cloudsIntensity</text>
<text text-anchor="middle" x="201.9321" y="-475.5" font-family="Helvetica,sans-Serif" font-size="10.00" fill="#000000">windIntensity</text>
<text text-anchor="middle" x="201.9321" y="-465.5" font-family="Helvetica,sans-Serif" font-size="10.00" fill="#000000">rainIntensity</text>
<text text-anchor="middle" x="201.9321" y="-455.5" font-family="Helvetica,sans-Serif" font-size="10.00" fill="#000000">thunderIntensity</text>
<text text-anchor="middle" x="201.9321" y="-445.5" font-family="Helvetica,sans-Serif" font-size="10.00" fill="#000000">fogIntensity</text>
<text text-anchor="middle" x="201.9321" y="-435.5" font-family="Helvetica,sans-Serif" font-size="10.00" fill="#000000">snowIntensity</text>
</g>
<!-- Node7 -->
<g id="node8" class="node">
<title>Node7</title>
<polygon fill="none" stroke="#bfbfbf" points="320.0591,-74.5 320.0591,-92.5 360.5122,-92.5 360.5122,-74.5 320.0591,-74.5"/>
<text text-anchor="middle" x="340.2856" y="-80.5" font-family="Helvetica,sans-Serif" font-size="10.00" fill="#000000">string</text>
</g>
<!-- Node7&#45;&gt;Node0 -->
<g id="edge11" class="edge">
<title>Node7&#45;&gt;Node0</title>
<path fill="none" stroke="#9a32cd" stroke-dasharray="5,2" d="M370.872,-74.8635C401.4028,-68.0801 448.6027,-62.7269 482.9971,-82.5 523.6704,-105.8829 543.0611,-162.7821 550.1417,-189.3711"/>
<polygon fill="#9a32cd" stroke="#9a32cd" points="369.7197,-71.5408 360.8164,-77.2837 371.3578,-78.3465 369.7197,-71.5408"/>
<text text-anchor="middle" x="452.4258" y="-114.5" font-family="Helvetica,sans-Serif" font-size="10.00" fill="#000000"> preview</text>
<text text-anchor="middle" x="452.4258" y="-104.5" font-family="Helvetica,sans-Serif" font-size="10.00" fill="#000000">author</text>
<text text-anchor="middle" x="452.4258" y="-94.5" font-family="Helvetica,sans-Serif" font-size="10.00" fill="#000000">environment</text>
<text text-anchor="middle" x="452.4258" y="-84.5" font-family="Helvetica,sans-Serif" font-size="10.00" fill="#000000">description</text>
</g>
<!-- Node8&#45;&gt;Node0 -->
<g id="edge12" class="edge">
<title>Node8&#45;&gt;Node0</title>
<path fill="none" stroke="#9a32cd" stroke-dasharray="5,2" d="M403.277,-203.5C434.3779,-203.5 471.4618,-203.5 500.9968,-203.5"/>
<polygon fill="#9a32cd" stroke="#9a32cd" points="402.9787,-200.0001 392.9786,-203.5 402.9786,-207.0001 402.9787,-200.0001"/>
<text text-anchor="middle" x="452.4258" y="-205.5" font-family="Helvetica,sans-Serif" font-size="10.00" fill="#000000"> version</text>
</g>
<!-- Node9 -->
<g id="node10" class="node">
<title>Node9</title>
<polygon fill="none" stroke="#bfbfbf" points="37.7808,-149.5 37.7808,-167.5 89.3667,-167.5 89.3667,-149.5 37.7808,-149.5"/>
<text text-anchor="middle" x="63.5737" y="-155.5" font-family="Helvetica,sans-Serif" font-size="10.00" fill="#000000">uint16_t</text>
</g>
<!-- Node9&#45;&gt;Node8 -->
<g id="edge14" class="edge">
<title>Node9&#45;&gt;Node8</title>
<path fill="none" stroke="#9a32cd" stroke-dasharray="5,2" d="M99.6833,-152.8094C139.389,-147.8114 204.7216,-143.3243 258.7168,-157.5 282.1471,-163.6513 305.9353,-178.2251 321.7276,-189.3332"/>
<polygon fill="#9a32cd" stroke="#9a32cd" points="99.1264,-149.3526 89.6792,-154.1485 100.0552,-156.2907 99.1264,-149.3526"/>
<text text-anchor="middle" x="201.9321" y="-189.5" font-family="Helvetica,sans-Serif" font-size="10.00" fill="#000000"> revision</text>
<text text-anchor="middle" x="201.9321" y="-179.5" font-family="Helvetica,sans-Serif" font-size="10.00" fill="#000000">major</text>
<text text-anchor="middle" x="201.9321" y="-169.5" font-family="Helvetica,sans-Serif" font-size="10.00" fill="#000000">build</text>
<text text-anchor="middle" x="201.9321" y="-159.5" font-family="Helvetica,sans-Serif" font-size="10.00" fill="#000000">minor</text>
</g>
<!-- Node10 -->
<g id="node11" class="node">
<title>Node10</title>
<polygon fill="none" stroke="#bfbfbf" points="321.7241,-37.5 321.7241,-55.5 358.8472,-55.5 358.8472,-37.5 321.7241,-37.5"/>
<text text-anchor="middle" x="340.2856" y="-43.5" font-family="Helvetica,sans-Serif" font-size="10.00" fill="#000000">vec3</text>
</g>
<!-- Node10&#45;&gt;Node0 -->
<g id="edge16" class="edge">
<title>Node10&#45;&gt;Node0</title>
<path fill="none" stroke="#9a32cd" stroke-dasharray="5,2" d="M369.4222,-40.0225C400.344,-34.8695 449.3001,-31.8134 482.9971,-54.5 530.2319,-86.301 546.605,-158.6966 551.5545,-189.3587"/>
<polygon fill="#9a32cd" stroke="#9a32cd" points="368.4894,-36.6355 359.2915,-41.8938 369.761,-43.519 368.4894,-36.6355"/>
<text text-anchor="middle" x="452.4258" y="-56.5" font-family="Helvetica,sans-Serif" font-size="10.00" fill="#000000"> initialPosition</text>
</g>
<!-- Node11 -->
<g id="node12" class="node">
<title>Node11</title>
<polygon fill="none" stroke="#bfbfbf" points="311.2529,-.5 311.2529,-18.5 369.3184,-18.5 369.3184,-.5 311.2529,-.5"/>
<text text-anchor="middle" x="340.2856" y="-6.5" font-family="Helvetica,sans-Serif" font-size="10.00" fill="#000000">RideView</text>
</g>
<!-- Node11&#45;&gt;Node0 -->
<g id="edge17" class="edge">
<title>Node11&#45;&gt;Node0</title>
<path fill="none" stroke="#9a32cd" stroke-dasharray="5,2" d="M379.4962,-2.99C410.6285,-.066 453.6564,-1.2992 482.9971,-23.5 537.5898,-64.808 549.9153,-154.5831 552.6701,-189.3499"/>
<polygon fill="#9a32cd" stroke="#9a32cd" points="378.9799,.4742 369.4313,-4.1167 379.7586,-6.4824 378.9799,.4742"/>
<text text-anchor="middle" x="452.4258" y="-25.5" font-family="Helvetica,sans-Serif" font-size="10.00" fill="#000000"> initialView</text>
</g>
</g>
</svg>
