<?xml version="1.0" encoding="UTF-8" standalone="no"?>
<!DOCTYPE svg PUBLIC "-//W3C//DTD SVG 1.1//EN"
 "http://www.w3.org/Graphics/SVG/1.1/DTD/svg11.dtd">
<!-- Generated by graphviz version 2.40.1 (20161225.0304)
 -->
<!-- Title: NoLimits::NoLimits2::Footer Pages: 1 -->
<svg width="562pt" height="112pt"
 viewBox="0.00 0.00 561.70 112.00" xmlns="http://www.w3.org/2000/svg" xmlns:xlink="http://www.w3.org/1999/xlink">
<g id="graph0" class="graph" transform="scale(1 1) rotate(0) translate(4 108)">
<title>NoLimits::NoLimits2::Footer</title>
<!-- Node0 -->
<g id="node1" class="node">
<title>Node0</title>
<polygon fill="#bfbfbf" stroke="#000000" points="269.1182,-.5 269.1182,-28.5 374.0293,-28.5 374.0293,-.5 269.1182,-.5"/>
<text text-anchor="start" x="277.1182" y="-16.5" font-family="Helvetica,sans-Serif" font-size="10.00" fill="#000000">NoLimits::NoLimits2</text>
<text text-anchor="middle" x="321.5737" y="-6.5" font-family="Helvetica,sans-Serif" font-size="10.00" fill="#000000">::Footer</text>
</g>
<!-- Node1 -->
<g id="node2" class="node">
<title>Node1</title>
<g id="a_node2"><a xlink:href="class_no_limits_1_1_stream_1_1_chunk.html" target="_top" xlink:title="NoLimits::Stream::Chunk">
<polygon fill="none" stroke="#000000" points="0,-85.5 0,-103.5 127.1475,-103.5 127.1475,-85.5 0,-85.5"/>
<text text-anchor="middle" x="63.5737" y="-91.5" font-family="Helvetica,sans-Serif" font-size="10.00" fill="#000000">NoLimits::Stream::Chunk</text>
</a>
</g>
</g>
<!-- Node1&#45;&gt;Node0 -->
<g id="edge1" class="edge">
<title>Node1&#45;&gt;Node0</title>
<path fill="none" stroke="#191970" d="M94.3166,-81.5987C119.3942,-71.372 155.8902,-57.1605 188.5737,-47 214.7901,-38.8499 244.4232,-31.4385 269.0535,-25.7581"/>
<polygon fill="#191970" stroke="#191970" points="92.8871,-78.4021 84.9692,-85.4418 95.549,-84.8762 92.8871,-78.4021"/>
</g>
<!-- Node2 -->
<g id="node3" class="node">
<title>Node2</title>
<polygon fill="none" stroke="#bfbfbf" points="145.1626,-85.5 145.1626,-103.5 233.9849,-103.5 233.9849,-85.5 145.1626,-85.5"/>
<text text-anchor="middle" x="189.5737" y="-91.5" font-family="Helvetica,sans-Serif" font-size="10.00" fill="#000000">ConnectionStyle</text>
</g>
<!-- Node2&#45;&gt;Node0 -->
<g id="edge2" class="edge">
<title>Node2&#45;&gt;Node0</title>
<path fill="none" stroke="#9a32cd" stroke-dasharray="5,2" d="M191.1278,-75.4704C192.8809,-65.7455 196.5523,-54.4278 204.1948,-47 213.7477,-37.7155 242.3318,-29.6974 268.8991,-23.9482"/>
<polygon fill="#9a32cd" stroke="#9a32cd" points="187.6443,-75.1193 189.854,-85.4811 194.5883,-76.0029 187.6443,-75.1193"/>
<text text-anchor="middle" x="240.2632" y="-54" font-family="Helvetica,sans-Serif" font-size="10.00" fill="#000000"> connectionStyle</text>
</g>
<!-- Node3 -->
<g id="node4" class="node">
<title>Node3</title>
<polygon fill="none" stroke="#bfbfbf" points="253.1182,-85.5 253.1182,-103.5 318.0293,-103.5 318.0293,-85.5 253.1182,-85.5"/>
<text text-anchor="middle" x="285.5737" y="-91.5" font-family="Helvetica,sans-Serif" font-size="10.00" fill="#000000">ColorMode</text>
</g>
<!-- Node3&#45;&gt;Node0 -->
<g id="edge3" class="edge">
<title>Node3&#45;&gt;Node0</title>
<path fill="none" stroke="#9a32cd" stroke-dasharray="5,2" d="M282.3649,-75.0975C281.7347,-66.1811 282.2272,-55.6829 286.106,-47 289.2399,-39.9845 294.702,-33.814 300.4141,-28.7873"/>
<polygon fill="#9a32cd" stroke="#9a32cd" points="278.9218,-75.7806 283.5932,-85.29 285.8715,-74.943 278.9218,-75.7806"/>
<text text-anchor="middle" x="310.3076" y="-54" font-family="Helvetica,sans-Serif" font-size="10.00" fill="#000000"> colorMode</text>
</g>
<!-- Node4 -->
<g id="node5" class="node">
<title>Node4</title>
<polygon fill="none" stroke="#bfbfbf" points="340.123,-85.5 340.123,-103.5 375.0244,-103.5 375.0244,-85.5 340.123,-85.5"/>
<text text-anchor="middle" x="357.5737" y="-91.5" font-family="Helvetica,sans-Serif" font-size="10.00" fill="#000000">float</text>
</g>
<!-- Node4&#45;&gt;Node0 -->
<g id="edge4" class="edge">
<title>Node4&#45;&gt;Node0</title>
<path fill="none" stroke="#9a32cd" stroke-dasharray="5,2" d="M349.2159,-75.9271C342.73,-61.5138 333.8743,-41.8346 327.9515,-28.6728"/>
<polygon fill="#9a32cd" stroke="#9a32cd" points="346.1486,-77.6401 353.4441,-85.323 352.5321,-74.7675 346.1486,-77.6401"/>
<text text-anchor="middle" x="376.2632" y="-59" font-family="Helvetica,sans-Serif" font-size="10.00" fill="#000000"> aboveGround</text>
<text text-anchor="middle" x="376.2632" y="-49" font-family="Helvetica,sans-Serif" font-size="10.00" fill="#000000">rotationAngle</text>
</g>
<!-- Node5 -->
<g id="node6" class="node">
<title>Node5</title>
<polygon fill="none" stroke="#bfbfbf" points="413.0615,-85.5 413.0615,-103.5 474.0859,-103.5 474.0859,-85.5 413.0615,-85.5"/>
<text text-anchor="middle" x="443.5737" y="-91.5" font-family="Helvetica,sans-Serif" font-size="10.00" fill="#000000">BaseStyle</text>
</g>
<!-- Node5&#45;&gt;Node0 -->
<g id="edge5" class="edge">
<title>Node5&#45;&gt;Node0</title>
<path fill="none" stroke="#9a32cd" stroke-dasharray="5,2" d="M434.8423,-76.1531C429.3603,-66.3309 421.4539,-54.7037 411.5737,-47 400.7,-38.5217 387.4166,-32.1247 374.4291,-27.3506"/>
<polygon fill="#9a32cd" stroke="#9a32cd" points="431.798,-77.8859 439.4995,-85.1616 438.0161,-74.6711 431.798,-77.8859"/>
<text text-anchor="middle" x="451.9209" y="-54" font-family="Helvetica,sans-Serif" font-size="10.00" fill="#000000"> baseStyle</text>
</g>
<!-- Node6 -->
<g id="node7" class="node">
<title>Node6</title>
<polygon fill="none" stroke="#bfbfbf" points="495.0122,-85.5 495.0122,-103.5 532.1353,-103.5 532.1353,-85.5 495.0122,-85.5"/>
<text text-anchor="middle" x="513.5737" y="-91.5" font-family="Helvetica,sans-Serif" font-size="10.00" fill="#000000">vec3</text>
</g>
<!-- Node6&#45;&gt;Node0 -->
<g id="edge6" class="edge">
<title>Node6&#45;&gt;Node0</title>
<path fill="none" stroke="#9a32cd" stroke-dasharray="5,2" d="M504.8493,-76.2505C499.0686,-66.1015 490.5292,-54.1184 479.5737,-47 462.3724,-35.8232 413.1154,-26.7952 374.1247,-21.117"/>
<polygon fill="#9a32cd" stroke="#9a32cd" points="501.7959,-77.9644 509.5351,-85.2002 507.9974,-74.7175 501.7959,-77.9644"/>
<text text-anchor="middle" x="525.6377" y="-59" font-family="Helvetica,sans-Serif" font-size="10.00" fill="#000000"> position</text>
<text text-anchor="middle" x="525.6377" y="-49" font-family="Helvetica,sans-Serif" font-size="10.00" fill="#000000">customColor</text>
</g>
</g>
</svg>
