<?xml version="1.0" encoding="UTF-8" standalone="no"?>
<!DOCTYPE svg PUBLIC "-//W3C//DTD SVG 1.1//EN"
 "http://www.w3.org/Graphics/SVG/1.1/DTD/svg11.dtd">
<!-- Generated by graphviz version 2.40.1 (20161225.0304)
 -->
<!-- Title: NoLimits::NoLimits2::RailNode Pages: 1 -->
<svg width="479pt" height="271pt"
 viewBox="0.00 0.00 478.98 271.00" xmlns="http://www.w3.org/2000/svg" xmlns:xlink="http://www.w3.org/1999/xlink">
<g id="graph0" class="graph" transform="scale(1 1) rotate(0) translate(4 267)">
<title>NoLimits::NoLimits2::RailNode</title>
<!-- Node0 -->
<g id="node1" class="node">
<title>Node0</title>
<polygon fill="#bfbfbf" stroke="#000000" points="366.0654,-108.5 366.0654,-136.5 470.9766,-136.5 470.9766,-108.5 366.0654,-108.5"/>
<text text-anchor="start" x="374.0654" y="-124.5" font-family="Helvetica,sans-Serif" font-size="10.00" fill="#000000">NoLimits::NoLimits2</text>
<text text-anchor="middle" x="418.521" y="-114.5" font-family="Helvetica,sans-Serif" font-size="10.00" fill="#000000">::RailNode</text>
</g>
<!-- Node1 -->
<g id="node2" class="node">
<title>Node1</title>
<g id="a_node2"><a xlink:href="class_no_limits_1_1_stream_1_1_chunk.html" target="_top" xlink:title="NoLimits::Stream::Chunk">
<polygon fill="none" stroke="#000000" points="113.2939,-244.5 113.2939,-262.5 240.4414,-262.5 240.4414,-244.5 113.2939,-244.5"/>
<text text-anchor="middle" x="176.8677" y="-250.5" font-family="Helvetica,sans-Serif" font-size="10.00" fill="#000000">NoLimits::Stream::Chunk</text>
</a>
</g>
</g>
<!-- Node1&#45;&gt;Node0 -->
<g id="edge1" class="edge">
<title>Node1&#45;&gt;Node0</title>
<path fill="none" stroke="#191970" d="M237.5963,-242.1416C272.0553,-233.6943 314.8045,-219.6999 348.0654,-197.5 373.1776,-180.739 395.8389,-153.4223 408.3411,-136.7912"/>
<polygon fill="#191970" stroke="#191970" points="236.5826,-238.7845 227.6511,-244.4835 238.1871,-245.5981 236.5826,-238.7845"/>
</g>
<!-- Node2 -->
<g id="node3" class="node">
<title>Node2</title>
<g id="a_node3"><a xlink:href="class_no_limits_1_1_no_limits2_1_1_support_node.html" target="_top" xlink:title="NoLimits::NoLimits2\l::SupportNode">
<polygon fill="none" stroke="#000000" points="124.4121,-197.5 124.4121,-225.5 229.3232,-225.5 229.3232,-197.5 124.4121,-197.5"/>
<text text-anchor="start" x="132.4121" y="-213.5" font-family="Helvetica,sans-Serif" font-size="10.00" fill="#000000">NoLimits::NoLimits2</text>
<text text-anchor="middle" x="176.8677" y="-203.5" font-family="Helvetica,sans-Serif" font-size="10.00" fill="#000000">::SupportNode</text>
</a>
</g>
</g>
<!-- Node2&#45;&gt;Node0 -->
<g id="edge2" class="edge">
<title>Node2&#45;&gt;Node0</title>
<path fill="none" stroke="#191970" d="M239.4409,-202.1543C272.6583,-195.81 313.6185,-185.741 348.0654,-170.5 367.8267,-161.7566 387.9639,-147.3739 401.6207,-136.628"/>
<polygon fill="#191970" stroke="#191970" points="238.5965,-198.7509 229.3964,-204.0052 239.8651,-205.635 238.5965,-198.7509"/>
</g>
<!-- Node3 -->
<g id="node4" class="node">
<title>Node3</title>
<polygon fill="none" stroke="#bfbfbf" points="0,-220.5 0,-238.5 46.0244,-238.5 46.0244,-220.5 0,-220.5"/>
<text text-anchor="middle" x="23.0122" y="-226.5" font-family="Helvetica,sans-Serif" font-size="10.00" fill="#000000">uint8_t</text>
</g>
<!-- Node3&#45;&gt;Node2 -->
<g id="edge3" class="edge">
<title>Node3&#45;&gt;Node2</title>
<path fill="none" stroke="#9a32cd" stroke-dasharray="5,2" d="M56.1417,-225.6241C76.0139,-223.2992 101.7338,-220.2901 124.3245,-217.6472"/>
<polygon fill="#9a32cd" stroke="#9a32cd" points="55.5715,-222.1668 46.0459,-226.8052 56.3849,-229.1194 55.5715,-222.1668"/>
<text text-anchor="middle" x="76.2559" y="-246.5" font-family="Helvetica,sans-Serif" font-size="10.00" fill="#000000"> flag1</text>
<text text-anchor="middle" x="76.2559" y="-236.5" font-family="Helvetica,sans-Serif" font-size="10.00" fill="#000000">flag2</text>
<text text-anchor="middle" x="76.2559" y="-226.5" font-family="Helvetica,sans-Serif" font-size="10.00" fill="#000000">flag3</text>
</g>
<!-- Node4 -->
<g id="node5" class="node">
<title>Node4</title>
<polygon fill="none" stroke="#bfbfbf" points="4.4507,-183.5 4.4507,-201.5 41.5737,-201.5 41.5737,-183.5 4.4507,-183.5"/>
<text text-anchor="middle" x="23.0122" y="-189.5" font-family="Helvetica,sans-Serif" font-size="10.00" fill="#000000">vec3</text>
</g>
<!-- Node4&#45;&gt;Node2 -->
<g id="edge4" class="edge">
<title>Node4&#45;&gt;Node2</title>
<path fill="none" stroke="#9a32cd" stroke-dasharray="5,2" d="M52.0347,-196.0841C72.3162,-198.5887 99.9775,-202.0046 124.1077,-204.9845"/>
<polygon fill="#9a32cd" stroke="#9a32cd" points="52.2315,-192.5819 41.8779,-194.8298 51.3735,-199.5291 52.2315,-192.5819"/>
<text text-anchor="middle" x="76.2559" y="-201.5" font-family="Helvetica,sans-Serif" font-size="10.00" fill="#000000"> color</text>
</g>
<!-- Node5 -->
<g id="node6" class="node">
<title>Node5</title>
<polygon fill="none" stroke="#bfbfbf" points="106.4873,-150.5 106.4873,-178.5 247.248,-178.5 247.248,-150.5 106.4873,-150.5"/>
<text text-anchor="start" x="114.4873" y="-166.5" font-family="Helvetica,sans-Serif" font-size="10.00" fill="#000000">vector&lt; NoLimits::NoLimits2</text>
<text text-anchor="middle" x="176.8677" y="-156.5" font-family="Helvetica,sans-Serif" font-size="10.00" fill="#000000">::SupportParameter * &gt;</text>
</g>
<!-- Node5&#45;&gt;Node0 -->
<g id="edge5" class="edge">
<title>Node5&#45;&gt;Node0</title>
<path fill="none" stroke="#9a32cd" stroke-dasharray="5,2" d="M257.2896,-157.447C286.0963,-154.1815 318.6982,-149.6326 348.0654,-143.5 357.0612,-141.6215 366.57,-139.1385 375.5917,-136.5396"/>
<polygon fill="#9a32cd" stroke="#9a32cd" points="256.8275,-153.9766 247.2701,-158.549 257.5928,-160.9347 256.8275,-153.9766"/>
<text text-anchor="middle" x="306.6567" y="-158.5" font-family="Helvetica,sans-Serif" font-size="10.00" fill="#000000"> supportParameter</text>
</g>
<!-- Node6 -->
<g id="node7" class="node">
<title>Node6</title>
<polygon fill="none" stroke="#bfbfbf" points="153.853,-113.5 153.853,-131.5 199.8823,-131.5 199.8823,-113.5 153.853,-113.5"/>
<text text-anchor="middle" x="176.8677" y="-119.5" font-family="Helvetica,sans-Serif" font-size="10.00" fill="#000000">double</text>
</g>
<!-- Node6&#45;&gt;Node0 -->
<g id="edge6" class="edge">
<title>Node6&#45;&gt;Node0</title>
<path fill="none" stroke="#9a32cd" stroke-dasharray="5,2" d="M210.1095,-122.5C250.3031,-122.5 318.4436,-122.5 365.8227,-122.5"/>
<polygon fill="#9a32cd" stroke="#9a32cd" points="210.0384,-119.0001 200.0384,-122.5 210.0384,-126.0001 210.0384,-119.0001"/>
<text text-anchor="middle" x="306.6567" y="-134.5" font-family="Helvetica,sans-Serif" font-size="10.00" fill="#000000"> sizeParameter</text>
<text text-anchor="middle" x="306.6567" y="-124.5" font-family="Helvetica,sans-Serif" font-size="10.00" fill="#000000">position</text>
</g>
<!-- Node7 -->
<g id="node8" class="node">
<title>Node7</title>
<polygon fill="none" stroke="#bfbfbf" points="132.4565,-76.5 132.4565,-94.5 221.2788,-94.5 221.2788,-76.5 132.4565,-76.5"/>
<text text-anchor="middle" x="176.8677" y="-82.5" font-family="Helvetica,sans-Serif" font-size="10.00" fill="#000000">ConnectionStyle</text>
</g>
<!-- Node7&#45;&gt;Node0 -->
<g id="edge7" class="edge">
<title>Node7&#45;&gt;Node0</title>
<path fill="none" stroke="#9a32cd" stroke-dasharray="5,2" d="M231.4268,-91.9456C265.1192,-96.1451 309.1924,-102.0331 348.0654,-108.5 353.8473,-109.4619 359.881,-110.5425 365.8792,-111.6657"/>
<polygon fill="#9a32cd" stroke="#9a32cd" points="231.6746,-88.4497 221.3211,-90.6977 230.8167,-95.3969 231.6746,-88.4497"/>
<text text-anchor="middle" x="306.6567" y="-110.5" font-family="Helvetica,sans-Serif" font-size="10.00" fill="#000000"> connectionStyle</text>
</g>
<!-- Node8 -->
<g id="node9" class="node">
<title>Node8</title>
<polygon fill="none" stroke="#bfbfbf" points="151.0747,-37.5 151.0747,-55.5 202.6606,-55.5 202.6606,-37.5 151.0747,-37.5"/>
<text text-anchor="middle" x="176.8677" y="-43.5" font-family="Helvetica,sans-Serif" font-size="10.00" fill="#000000">uint32_t</text>
</g>
<!-- Node8&#45;&gt;Node0 -->
<g id="edge8" class="edge">
<title>Node8&#45;&gt;Node0</title>
<path fill="none" stroke="#9a32cd" stroke-dasharray="5,2" d="M213.1305,-47.525C248.6659,-49.5989 303.7864,-55.7089 348.0654,-73.5 368.6647,-81.7767 389.1527,-97.018 402.6807,-108.313"/>
<polygon fill="#9a32cd" stroke="#9a32cd" points="212.9283,-44.0105 202.7647,-47.0025 212.5758,-51.0016 212.9283,-44.0105"/>
<text text-anchor="middle" x="306.6567" y="-85.5" font-family="Helvetica,sans-Serif" font-size="10.00" fill="#000000"> trackIndex</text>
<text text-anchor="middle" x="306.6567" y="-75.5" font-family="Helvetica,sans-Serif" font-size="10.00" fill="#000000">prefabIndex</text>
</g>
<!-- Node9 -->
<g id="node10" class="node">
<title>Node9</title>
<polygon fill="none" stroke="#bfbfbf" points="159.4146,-.5 159.4146,-18.5 194.3208,-18.5 194.3208,-.5 159.4146,-.5"/>
<text text-anchor="middle" x="176.8677" y="-6.5" font-family="Helvetica,sans-Serif" font-size="10.00" fill="#000000">bool</text>
</g>
<!-- Node9&#45;&gt;Node0 -->
<g id="edge9" class="edge">
<title>Node9&#45;&gt;Node0</title>
<path fill="none" stroke="#9a32cd" stroke-dasharray="5,2" d="M204.5649,-8.7307C240.1171,-8.9451 302.6258,-13.4698 348.0654,-39.5 377.0949,-56.1296 399.6628,-89.4411 410.827,-108.4169"/>
<polygon fill="#9a32cd" stroke="#9a32cd" points="204.4273,-5.2313 194.4457,-8.7835 204.4639,-12.2312 204.4273,-5.2313"/>
<text text-anchor="middle" x="306.6567" y="-41.5" font-family="Helvetica,sans-Serif" font-size="10.00" fill="#000000"> isModel</text>
</g>
</g>
</svg>
