<?xml version="1.0" encoding="UTF-8" standalone="no"?>
<!DOCTYPE svg PUBLIC "-//W3C//DTD SVG 1.1//EN"
 "http://www.w3.org/Graphics/SVG/1.1/DTD/svg11.dtd">
<!-- Generated by graphviz version 2.40.1 (20161225.0304)
 -->
<!-- Title: NoLimits::NoLimits1::Track Pages: 1 -->
<svg width="632pt" height="422pt"
 viewBox="0.00 0.00 632.16 422.00" xmlns="http://www.w3.org/2000/svg" xmlns:xlink="http://www.w3.org/1999/xlink">
<g id="graph0" class="graph" transform="scale(1 1) rotate(0) translate(4 418)">
<title>NoLimits::NoLimits1::Track</title>
<!-- Node0 -->
<g id="node1" class="node">
<title>Node0</title>
<polygon fill="#bfbfbf" stroke="#000000" points="519.249,-203.5 519.249,-231.5 624.1602,-231.5 624.1602,-203.5 519.249,-203.5"/>
<text text-anchor="start" x="527.249" y="-219.5" font-family="Helvetica,sans-Serif" font-size="10.00" fill="#000000">NoLimits::NoLimits1</text>
<text text-anchor="middle" x="571.7046" y="-209.5" font-family="Helvetica,sans-Serif" font-size="10.00" fill="#000000">::Track</text>
</g>
<!-- Node1 -->
<g id="node2" class="node">
<title>Node1</title>
<g id="a_node2"><a xlink:href="class_no_limits_1_1_stream_1_1_chunk.html" target="_top" xlink:title="NoLimits::Stream::Chunk">
<polygon fill="none" stroke="#000000" points="0,-300.5 0,-318.5 127.1475,-318.5 127.1475,-300.5 0,-300.5"/>
<text text-anchor="middle" x="63.5737" y="-306.5" font-family="Helvetica,sans-Serif" font-size="10.00" fill="#000000">NoLimits::Stream::Chunk</text>
</a>
</g>
</g>
<!-- Node1&#45;&gt;Node0 -->
<g id="edge1" class="edge">
<title>Node1&#45;&gt;Node0</title>
<path fill="none" stroke="#191970" d="M137.5564,-317.7737C227.4323,-324.7358 381.8332,-326.6087 501.249,-275.5 524.5537,-265.5258 546.2492,-245.3631 559.2437,-231.6437"/>
<polygon fill="#191970" stroke="#191970" points="137.7101,-314.2747 127.4583,-316.9489 137.1401,-321.2515 137.7101,-314.2747"/>
</g>
<!-- Node3 -->
<g id="node4" class="node">
<title>Node3</title>
<g id="a_node4"><a xlink:href="class_no_limits_1_1_no_limits1_1_1_info.html" target="_top" xlink:title="NoLimits::NoLimits1\l::Info">
<polygon fill="none" stroke="#000000" points="254.0801,-385.5 254.0801,-413.5 358.9912,-413.5 358.9912,-385.5 254.0801,-385.5"/>
<text text-anchor="start" x="262.0801" y="-401.5" font-family="Helvetica,sans-Serif" font-size="10.00" fill="#000000">NoLimits::NoLimits1</text>
<text text-anchor="middle" x="306.5356" y="-391.5" font-family="Helvetica,sans-Serif" font-size="10.00" fill="#000000">::Info</text>
</a>
</g>
</g>
<!-- Node1&#45;&gt;Node3 -->
<g id="edge4" class="edge">
<title>Node1&#45;&gt;Node3</title>
<path fill="none" stroke="#191970" d="M95.2962,-322.4134C129.7689,-336.3058 186.5684,-358.787 236.1553,-376.5 244.5081,-379.4837 253.4712,-382.5299 262.1087,-385.3881"/>
<polygon fill="#191970" stroke="#191970" points="96.3516,-319.065 85.7686,-318.5633 93.7289,-325.5551 96.3516,-319.065"/>
</g>
<!-- Node10 -->
<g id="node11" class="node">
<title>Node10</title>
<g id="a_node11"><a xlink:href="class_no_limits_1_1_no_limits1_1_1_colors.html" target="_top" xlink:title="NoLimits::NoLimits1\l::Colors">
<polygon fill="none" stroke="#000000" points="254.0801,-178.5 254.0801,-206.5 358.9912,-206.5 358.9912,-178.5 254.0801,-178.5"/>
<text text-anchor="start" x="262.0801" y="-194.5" font-family="Helvetica,sans-Serif" font-size="10.00" fill="#000000">NoLimits::NoLimits1</text>
<text text-anchor="middle" x="306.5356" y="-184.5" font-family="Helvetica,sans-Serif" font-size="10.00" fill="#000000">::Colors</text>
</a>
</g>
</g>
<!-- Node1&#45;&gt;Node10 -->
<g id="edge12" class="edge">
<title>Node1&#45;&gt;Node10</title>
<path fill="none" stroke="#191970" d="M133.4984,-298.5822C168.2361,-291.8639 205.4606,-282.2811 218.1553,-270.5 236.6986,-253.2911 218.3284,-234.45 236.1553,-216.5 241.1587,-211.462 247.2607,-207.481 253.7585,-204.3354"/>
<polygon fill="#191970" stroke="#191970" points="132.4963,-295.2089 123.31,-300.4874 133.783,-302.0896 132.4963,-295.2089"/>
</g>
<!-- Node2 -->
<g id="node3" class="node">
<title>Node2</title>
<polygon fill="none" stroke="#bfbfbf" points="236.1553,-338.5 236.1553,-366.5 376.916,-366.5 376.916,-338.5 236.1553,-338.5"/>
<text text-anchor="start" x="244.1553" y="-354.5" font-family="Helvetica,sans-Serif" font-size="10.00" fill="#000000">vector&lt; NoLimits::NoLimits1</text>
<text text-anchor="middle" x="306.5356" y="-344.5" font-family="Helvetica,sans-Serif" font-size="10.00" fill="#000000">::Section * &gt;</text>
</g>
<!-- Node2&#45;&gt;Node0 -->
<g id="edge2" class="edge">
<title>Node2&#45;&gt;Node0</title>
<path fill="none" stroke="#9a32cd" stroke-dasharray="5,2" d="M387.4371,-355.0476C424.6062,-352.7201 467.7615,-344.7765 501.249,-323.5 536.1263,-301.3405 557.6441,-254.9947 566.7097,-231.6212"/>
<polygon fill="#9a32cd" stroke="#9a32cd" points="386.9386,-351.568 377.1252,-355.5616 387.2871,-358.5593 386.9386,-351.568"/>
<text text-anchor="middle" x="448.0825" y="-355.5" font-family="Helvetica,sans-Serif" font-size="10.00" fill="#000000"> section</text>
</g>
<!-- Node3&#45;&gt;Node0 -->
<g id="edge3" class="edge">
<title>Node3&#45;&gt;Node0</title>
<path fill="none" stroke="#9a32cd" stroke-dasharray="5,2" d="M369.4631,-403.5298C410.756,-402.9657 463.8369,-395.7808 501.249,-367.5 546.6931,-333.1476 563.9878,-262.2032 569.4918,-231.8199"/>
<polygon fill="#9a32cd" stroke="#9a32cd" points="369.2322,-400.0299 359.2355,-403.5394 369.2389,-407.0299 369.2322,-400.0299"/>
<text text-anchor="middle" x="448.0825" y="-403.5" font-family="Helvetica,sans-Serif" font-size="10.00" fill="#000000"> info</text>
</g>
<!-- Node4 -->
<g id="node5" class="node">
<title>Node4</title>
<polygon fill="none" stroke="#bfbfbf" points="43.3472,-390.5 43.3472,-408.5 83.8003,-408.5 83.8003,-390.5 43.3472,-390.5"/>
<text text-anchor="middle" x="63.5737" y="-396.5" font-family="Helvetica,sans-Serif" font-size="10.00" fill="#000000">string</text>
</g>
<!-- Node4&#45;&gt;Node3 -->
<g id="edge5" class="edge">
<title>Node4&#45;&gt;Node3</title>
<path fill="none" stroke="#9a32cd" stroke-dasharray="5,2" d="M94.0713,-399.5C134.142,-399.5 205.14,-399.5 253.958,-399.5"/>
<polygon fill="#9a32cd" stroke="#9a32cd" points="93.8707,-396.0001 83.8706,-399.5 93.8706,-403.0001 93.8707,-396.0001"/>
<text text-anchor="middle" x="181.6514" y="-401.5" font-family="Helvetica,sans-Serif" font-size="10.00" fill="#000000"> description</text>
</g>
<!-- Node5 -->
<g id="node6" class="node">
<title>Node5</title>
<polygon fill="none" stroke="#bfbfbf" points="273.7114,-262.5 273.7114,-280.5 339.3599,-280.5 339.3599,-262.5 273.7114,-262.5"/>
<text text-anchor="middle" x="306.5356" y="-268.5" font-family="Helvetica,sans-Serif" font-size="10.00" fill="#000000">TrackMode</text>
</g>
<!-- Node5&#45;&gt;Node0 -->
<g id="edge6" class="edge">
<title>Node5&#45;&gt;Node0</title>
<path fill="none" stroke="#9a32cd" stroke-dasharray="5,2" d="M349.7911,-267.4793C389.5622,-263.2133 449.9555,-255.2925 501.249,-242.5 512.8349,-239.6105 525.1928,-235.5691 536.2715,-231.5768"/>
<polygon fill="#9a32cd" stroke="#9a32cd" points="349.2279,-264.019 339.6443,-268.5363 349.9532,-270.9813 349.2279,-264.019"/>
<text text-anchor="middle" x="448.0825" y="-263.5" font-family="Helvetica,sans-Serif" font-size="10.00" fill="#000000"> trackMode</text>
</g>
<!-- Node6 -->
<g id="node7" class="node">
<title>Node6</title>
<polygon fill="none" stroke="#bfbfbf" points="280.7427,-225.5 280.7427,-243.5 332.3286,-243.5 332.3286,-225.5 280.7427,-225.5"/>
<text text-anchor="middle" x="306.5356" y="-231.5" font-family="Helvetica,sans-Serif" font-size="10.00" fill="#000000">uint32_t</text>
</g>
<!-- Node6&#45;&gt;Node0 -->
<g id="edge7" class="edge">
<title>Node6&#45;&gt;Node0</title>
<path fill="none" stroke="#9a32cd" stroke-dasharray="5,2" d="M342.444,-232.1979C387.9512,-229.2804 466.75,-224.2286 519.0588,-220.8751"/>
<polygon fill="#9a32cd" stroke="#9a32cd" points="342.1995,-228.7063 332.444,-232.839 342.6474,-235.692 342.1995,-228.7063"/>
<text text-anchor="middle" x="448.0825" y="-230.5" font-family="Helvetica,sans-Serif" font-size="10.00" fill="#000000"> numberOfCarsPerTrain</text>
</g>
<!-- Node7 -->
<g id="node8" class="node">
<title>Node7</title>
<polygon fill="none" stroke="#bfbfbf" points="46.1206,-95.5 46.1206,-113.5 81.0269,-113.5 81.0269,-95.5 46.1206,-95.5"/>
<text text-anchor="middle" x="63.5737" y="-101.5" font-family="Helvetica,sans-Serif" font-size="10.00" fill="#000000">bool</text>
</g>
<!-- Node7&#45;&gt;Node0 -->
<g id="edge8" class="edge">
<title>Node7&#45;&gt;Node0</title>
<path fill="none" stroke="#9a32cd" stroke-dasharray="5,2" d="M91.2448,-97.9597C145.9344,-85.9127 271.6857,-62.5792 376.916,-75.5 433.4423,-82.4406 455.0569,-73.188 501.249,-106.5 536.0537,-131.5998 557.7362,-179.6973 566.7993,-203.4781"/>
<polygon fill="#9a32cd" stroke="#9a32cd" points="90.2676,-94.5921 81.2815,-100.2046 91.8063,-101.4209 90.2676,-94.5921"/>
<text text-anchor="middle" x="306.5356" y="-77.5" font-family="Helvetica,sans-Serif" font-size="10.00" fill="#000000"> closed</text>
</g>
<!-- Node7&#45;&gt;Node10 -->
<g id="edge13" class="edge">
<title>Node7&#45;&gt;Node10</title>
<path fill="none" stroke="#9a32cd" stroke-dasharray="5,2" d="M90.7681,-115.1692C124.6571,-128.366 184.4199,-151.314 236.1553,-169.5 244.6444,-172.4841 253.7532,-175.5559 262.5081,-178.4444"/>
<polygon fill="#9a32cd" stroke="#9a32cd" points="91.7071,-111.7786 81.119,-111.4027 89.1617,-118.2994 91.7071,-111.7786"/>
<text text-anchor="middle" x="181.6514" y="-164.5" font-family="Helvetica,sans-Serif" font-size="10.00" fill="#000000"> useTunnelColor</text>
</g>
<!-- Node8 -->
<g id="node9" class="node">
<title>Node8</title>
<polygon fill="none" stroke="#bfbfbf" points="236.1553,-131.5 236.1553,-159.5 376.916,-159.5 376.916,-131.5 236.1553,-131.5"/>
<text text-anchor="start" x="244.1553" y="-147.5" font-family="Helvetica,sans-Serif" font-size="10.00" fill="#000000">vector&lt; NoLimits::NoLimits1</text>
<text text-anchor="middle" x="306.5356" y="-137.5" font-family="Helvetica,sans-Serif" font-size="10.00" fill="#000000">::Train * &gt;</text>
</g>
<!-- Node8&#45;&gt;Node0 -->
<g id="edge9" class="edge">
<title>Node8&#45;&gt;Node0</title>
<path fill="none" stroke="#9a32cd" stroke-dasharray="5,2" d="M387.356,-156.4931C422.8396,-162.535 464.6629,-171.3281 501.249,-183.5 516.8425,-188.6878 533.4353,-196.5673 546.5991,-203.4349"/>
<polygon fill="#9a32cd" stroke="#9a32cd" points="387.4822,-152.9664 377.0444,-154.7838 386.3373,-159.8721 387.4822,-152.9664"/>
<text text-anchor="middle" x="448.0825" y="-185.5" font-family="Helvetica,sans-Serif" font-size="10.00" fill="#000000"> train</text>
</g>
<!-- Node9 -->
<g id="node10" class="node">
<title>Node9</title>
<polygon fill="none" stroke="#bfbfbf" points="269.9126,-94.5 269.9126,-112.5 343.1587,-112.5 343.1587,-94.5 269.9126,-94.5"/>
<text text-anchor="middle" x="306.5356" y="-100.5" font-family="Helvetica,sans-Serif" font-size="10.00" fill="#000000">CoasterStyle</text>
</g>
<!-- Node9&#45;&gt;Node0 -->
<g id="edge10" class="edge">
<title>Node9&#45;&gt;Node0</title>
<path fill="none" stroke="#9a32cd" stroke-dasharray="5,2" d="M353.2816,-105.2787C394.5156,-108.6052 455.0622,-117.8907 501.249,-143.5 527.7775,-158.2093 550.3016,-186.2854 562.3344,-203.308"/>
<polygon fill="#9a32cd" stroke="#9a32cd" points="353.4606,-101.7826 343.235,-104.555 352.9577,-108.7645 353.4606,-101.7826"/>
<text text-anchor="middle" x="448.0825" y="-145.5" font-family="Helvetica,sans-Serif" font-size="10.00" fill="#000000"> coasterStyle</text>
</g>
<!-- Node10&#45;&gt;Node0 -->
<g id="edge11" class="edge">
<title>Node10&#45;&gt;Node0</title>
<path fill="none" stroke="#9a32cd" stroke-dasharray="5,2" d="M369.5453,-196.3266C407.7141,-198.8999 457.3488,-202.6986 501.249,-207.5 507.0212,-208.1313 513.0487,-208.8679 519.0433,-209.6498"/>
<polygon fill="#9a32cd" stroke="#9a32cd" points="369.3079,-192.8032 359.0981,-195.6334 368.8444,-199.7878 369.3079,-192.8032"/>
<text text-anchor="middle" x="448.0825" y="-209.5" font-family="Helvetica,sans-Serif" font-size="10.00" fill="#000000"> colors</text>
</g>
<!-- Node11 -->
<g id="node12" class="node">
<title>Node11</title>
<polygon fill="none" stroke="#bfbfbf" points="45.0122,-170.5 45.0122,-188.5 82.1353,-188.5 82.1353,-170.5 45.0122,-170.5"/>
<text text-anchor="middle" x="63.5737" y="-176.5" font-family="Helvetica,sans-Serif" font-size="10.00" fill="#000000">vec3</text>
</g>
<!-- Node11&#45;&gt;Node10 -->
<g id="edge14" class="edge">
<title>Node11&#45;&gt;Node10</title>
<path fill="none" stroke="#9a32cd" stroke-dasharray="5,2" d="M92.2777,-178.5858C123.3465,-177.8529 174.3321,-177.3961 218.1553,-180.5 229.7397,-181.3205 242.1221,-182.6902 253.8407,-184.2169"/>
<polygon fill="#9a32cd" stroke="#9a32cd" points="92.068,-175.09 82.1633,-178.8511 92.2517,-182.0875 92.068,-175.09"/>
<text text-anchor="middle" x="181.6514" y="-262.5" font-family="Helvetica,sans-Serif" font-size="10.00" fill="#000000"> trainSeat</text>
<text text-anchor="middle" x="181.6514" y="-252.5" font-family="Helvetica,sans-Serif" font-size="10.00" fill="#000000">trainGear</text>
<text text-anchor="middle" x="181.6514" y="-242.5" font-family="Helvetica,sans-Serif" font-size="10.00" fill="#000000">train</text>
<text text-anchor="middle" x="181.6514" y="-232.5" font-family="Helvetica,sans-Serif" font-size="10.00" fill="#000000">trackSpine</text>
<text text-anchor="middle" x="181.6514" y="-222.5" font-family="Helvetica,sans-Serif" font-size="10.00" fill="#000000">supports</text>
<text text-anchor="middle" x="181.6514" y="-212.5" font-family="Helvetica,sans-Serif" font-size="10.00" fill="#000000">trainRestraint</text>
<text text-anchor="middle" x="181.6514" y="-202.5" font-family="Helvetica,sans-Serif" font-size="10.00" fill="#000000">tunnel</text>
<text text-anchor="middle" x="181.6514" y="-192.5" font-family="Helvetica,sans-Serif" font-size="10.00" fill="#000000">trackCrosstie</text>
<text text-anchor="middle" x="181.6514" y="-182.5" font-family="Helvetica,sans-Serif" font-size="10.00" fill="#000000">trackRail</text>
</g>
<!-- Node12 -->
<g id="node13" class="node">
<title>Node12</title>
<polygon fill="none" stroke="#bfbfbf" points="236.1553,-.5 236.1553,-28.5 376.916,-28.5 376.916,-.5 236.1553,-.5"/>
<text text-anchor="start" x="244.1553" y="-16.5" font-family="Helvetica,sans-Serif" font-size="10.00" fill="#000000">vector&lt; NoLimits::NoLimits1</text>
<text text-anchor="middle" x="306.5356" y="-6.5" font-family="Helvetica,sans-Serif" font-size="10.00" fill="#000000">::Vertex * &gt;</text>
</g>
<!-- Node12&#45;&gt;Node0 -->
<g id="edge15" class="edge">
<title>Node12&#45;&gt;Node0</title>
<path fill="none" stroke="#9a32cd" stroke-dasharray="5,2" d="M387.2241,-7.9352C425.3738,-8.956 469.4196,-16.5974 501.249,-41.5 553.8707,-82.67 567.3401,-169.2156 570.6618,-203.2863"/>
<polygon fill="#9a32cd" stroke="#9a32cd" points="387.1928,-4.4346 377.1509,-7.8125 387.1075,-11.4341 387.1928,-4.4346"/>
<text text-anchor="middle" x="448.0825" y="-43.5" font-family="Helvetica,sans-Serif" font-size="10.00" fill="#000000"> vertex</text>
</g>
</g>
</svg>
