<?xml version="1.0" encoding="UTF-8" standalone="no"?>
<!DOCTYPE svg PUBLIC "-//W3C//DTD SVG 1.1//EN"
 "http://www.w3.org/Graphics/SVG/1.1/DTD/svg11.dtd">
<!-- Generated by graphviz version 2.40.1 (20161225.0304)
 -->
<!-- Title: NoLimits::NoLimits2::Scenery Pages: 1 -->
<svg width="386pt" height="111pt"
 viewBox="0.00 0.00 385.84 111.00" xmlns="http://www.w3.org/2000/svg" xmlns:xlink="http://www.w3.org/1999/xlink">
<g id="graph0" class="graph" transform="scale(1 1) rotate(0) translate(4 107)">
<title>NoLimits::NoLimits2::Scenery</title>
<!-- Node0 -->
<g id="node1" class="node">
<title>Node0</title>
<polygon fill="#bfbfbf" stroke="#000000" points="272.9277,-42.5 272.9277,-70.5 377.8389,-70.5 377.8389,-42.5 272.9277,-42.5"/>
<text text-anchor="start" x="280.9277" y="-58.5" font-family="Helvetica,sans-Serif" font-size="10.00" fill="#000000">NoLimits::NoLimits2</text>
<text text-anchor="middle" x="325.3833" y="-48.5" font-family="Helvetica,sans-Serif" font-size="10.00" fill="#000000">::Scenery</text>
</g>
<!-- Node1 -->
<g id="node2" class="node">
<title>Node1</title>
<g id="a_node2"><a xlink:href="class_no_limits_1_1_stream_1_1_chunk.html" target="_top" xlink:title="NoLimits::Stream::Chunk">
<polygon fill="none" stroke="#000000" points="6.8066,-84.5 6.8066,-102.5 133.9541,-102.5 133.9541,-84.5 6.8066,-84.5"/>
<text text-anchor="middle" x="70.3804" y="-90.5" font-family="Helvetica,sans-Serif" font-size="10.00" fill="#000000">NoLimits::Stream::Chunk</text>
</a>
</g>
</g>
<!-- Node1&#45;&gt;Node0 -->
<g id="edge1" class="edge">
<title>Node1&#45;&gt;Node0</title>
<path fill="none" stroke="#191970" d="M144.4286,-85.5082C178.2091,-81.5451 218.6754,-76.353 254.9277,-70.5 260.7142,-69.5658 266.7507,-68.5027 272.7505,-67.3895"/>
<polygon fill="#191970" stroke="#191970" points="143.7017,-82.069 134.1717,-86.6981 144.5084,-89.0223 143.7017,-82.069"/>
</g>
<!-- Node2 -->
<g id="node3" class="node">
<title>Node2</title>
<polygon fill="none" stroke="#bfbfbf" points="18.4717,-47.5 18.4717,-65.5 122.2891,-65.5 122.2891,-47.5 18.4717,-47.5"/>
<text text-anchor="middle" x="70.3804" y="-53.5" font-family="Helvetica,sans-Serif" font-size="10.00" fill="#000000">vector&lt; std::string &gt;</text>
</g>
<!-- Node2&#45;&gt;Node0 -->
<g id="edge2" class="edge">
<title>Node2&#45;&gt;Node0</title>
<path fill="none" stroke="#9a32cd" stroke-dasharray="5,2" d="M132.3441,-56.5C175.2978,-56.5 231.8807,-56.5 272.6692,-56.5"/>
<polygon fill="#9a32cd" stroke="#9a32cd" points="132.2914,-53.0001 122.2914,-56.5 132.2913,-60.0001 132.2914,-53.0001"/>
<text text-anchor="middle" x="206.8442" y="-58.5" font-family="Helvetica,sans-Serif" font-size="10.00" fill="#000000"> sceneObject</text>
</g>
<!-- Node3 -->
<g id="node4" class="node">
<title>Node3</title>
<polygon fill="none" stroke="#bfbfbf" points="0,-.5 0,-28.5 140.7607,-28.5 140.7607,-.5 0,-.5"/>
<text text-anchor="start" x="8" y="-16.5" font-family="Helvetica,sans-Serif" font-size="10.00" fill="#000000">vector&lt; NoLimits::NoLimits2</text>
<text text-anchor="middle" x="70.3804" y="-6.5" font-family="Helvetica,sans-Serif" font-size="10.00" fill="#000000">::SceneObjectInstance * &gt;</text>
</g>
<!-- Node3&#45;&gt;Node0 -->
<g id="edge3" class="edge">
<title>Node3&#45;&gt;Node0</title>
<path fill="none" stroke="#9a32cd" stroke-dasharray="5,2" d="M151.3363,-25.9675C183.6185,-30.7529 221.084,-36.5733 254.9277,-42.5 260.7013,-43.5111 266.7296,-44.6228 272.7247,-45.7641"/>
<polygon fill="#9a32cd" stroke="#9a32cd" points="151.4519,-22.4468 141.0484,-24.4513 150.4312,-29.372 151.4519,-22.4468"/>
<text text-anchor="middle" x="206.8442" y="-44.5" font-family="Helvetica,sans-Serif" font-size="10.00" fill="#000000"> sceneObjectInstance</text>
</g>
</g>
</svg>
