<?xml version="1.0" encoding="UTF-8" standalone="no"?>
<!DOCTYPE svg PUBLIC "-//W3C//DTD SVG 1.1//EN"
 "http://www.w3.org/Graphics/SVG/1.1/DTD/svg11.dtd">
<!-- Generated by graphviz version 2.40.1 (20161225.0304)
 -->
<!-- Title: NoLimits::NoLimits2::Transport Pages: 1 -->
<svg width="659pt" height="207pt"
 viewBox="0.00 0.00 659.50 207.00" xmlns="http://www.w3.org/2000/svg" xmlns:xlink="http://www.w3.org/1999/xlink">
<g id="graph0" class="graph" transform="scale(1 1) rotate(0) translate(4 203)">
<title>NoLimits::NoLimits2::Transport</title>
<!-- Node0 -->
<g id="node1" class="node">
<title>Node0</title>
<polygon fill="#bfbfbf" stroke="#000000" points="335.1182,-.5 335.1182,-28.5 440.0293,-28.5 440.0293,-.5 335.1182,-.5"/>
<text text-anchor="start" x="343.1182" y="-16.5" font-family="Helvetica,sans-Serif" font-size="10.00" fill="#000000">NoLimits::NoLimits2</text>
<text text-anchor="middle" x="387.5737" y="-6.5" font-family="Helvetica,sans-Serif" font-size="10.00" fill="#000000">::Transport</text>
</g>
<!-- Node1 -->
<g id="node2" class="node">
<title>Node1</title>
<g id="a_node2"><a xlink:href="class_no_limits_1_1_no_limits2_1_1_section.html" target="_top" xlink:title="NoLimits::NoLimits2\l::Section">
<polygon fill="none" stroke="#000000" points="113.1182,-105.5 113.1182,-133.5 218.0293,-133.5 218.0293,-105.5 113.1182,-105.5"/>
<text text-anchor="start" x="121.1182" y="-121.5" font-family="Helvetica,sans-Serif" font-size="10.00" fill="#000000">NoLimits::NoLimits2</text>
<text text-anchor="middle" x="165.5737" y="-111.5" font-family="Helvetica,sans-Serif" font-size="10.00" fill="#000000">::Section</text>
</a>
</g>
</g>
<!-- Node1&#45;&gt;Node0 -->
<g id="edge1" class="edge">
<title>Node1&#45;&gt;Node0</title>
<path fill="none" stroke="#191970" d="M200.7289,-100.6982C229.4456,-85.5779 271.2424,-64.11 308.5737,-47 322.4601,-40.6355 337.9609,-34.1313 351.529,-28.6301"/>
<polygon fill="#191970" stroke="#191970" points="199.0931,-97.6039 191.8871,-105.3707 202.3638,-103.7928 199.0931,-97.6039"/>
</g>
<!-- Node1&#45;&gt;Node1 -->
<g id="edge3" class="edge">
<title>Node1&#45;&gt;Node1</title>
<path fill="none" stroke="#9a32cd" stroke-dasharray="5,2" d="M228.379,-124.5493C233.1165,-123.4243 236.0293,-121.7412 236.0293,-119.5 236.0293,-115.9141 228.5726,-113.7569 218.1158,-113.0285"/>
<polygon fill="#9a32cd" stroke="#9a32cd" points="227.5407,-121.1319 218.1158,-125.9715 228.5016,-128.0657 227.5407,-121.1319"/>
<text text-anchor="middle" x="253.2607" y="-116.5" font-family="Helvetica,sans-Serif" font-size="10.00" fill="#000000"> section</text>
</g>
<!-- Node2 -->
<g id="node3" class="node">
<title>Node2</title>
<g id="a_node3"><a xlink:href="class_no_limits_1_1_stream_1_1_chunk.html" target="_top" xlink:title="NoLimits::Stream::Chunk">
<polygon fill="none" stroke="#000000" points="0,-180.5 0,-198.5 127.1475,-198.5 127.1475,-180.5 0,-180.5"/>
<text text-anchor="middle" x="63.5737" y="-186.5" font-family="Helvetica,sans-Serif" font-size="10.00" fill="#000000">NoLimits::Stream::Chunk</text>
</a>
</g>
</g>
<!-- Node2&#45;&gt;Node1 -->
<g id="edge2" class="edge">
<title>Node2&#45;&gt;Node1</title>
<path fill="none" stroke="#191970" d="M85.3898,-174.5282C102.9678,-162.4648 127.5177,-145.6169 144.8096,-133.7499"/>
<polygon fill="#191970" stroke="#191970" points="83.1731,-171.8045 76.9084,-180.3487 87.1341,-177.5761 83.1731,-171.8045"/>
</g>
<!-- Node3 -->
<g id="node4" class="node">
<title>Node3</title>
<polygon fill="none" stroke="#bfbfbf" points="145.3472,-180.5 145.3472,-198.5 185.8003,-198.5 185.8003,-180.5 145.3472,-180.5"/>
<text text-anchor="middle" x="165.5737" y="-186.5" font-family="Helvetica,sans-Serif" font-size="10.00" fill="#000000">string</text>
</g>
<!-- Node3&#45;&gt;Node1 -->
<g id="edge4" class="edge">
<title>Node3&#45;&gt;Node1</title>
<path fill="none" stroke="#9a32cd" stroke-dasharray="5,2" d="M165.5737,-170.0243C165.5737,-158.5169 165.5737,-144.2016 165.5737,-133.7499"/>
<polygon fill="#9a32cd" stroke="#9a32cd" points="162.0738,-170.3487 165.5737,-180.3487 169.0738,-170.3488 162.0738,-170.3487"/>
<text text-anchor="middle" x="179.4702" y="-154" font-family="Helvetica,sans-Serif" font-size="10.00" fill="#000000"> name</text>
</g>
<!-- Node4 -->
<g id="node5" class="node">
<title>Node4</title>
<polygon fill="none" stroke="#bfbfbf" points="204.0542,-180.5 204.0542,-198.5 275.0933,-198.5 275.0933,-180.5 204.0542,-180.5"/>
<text text-anchor="middle" x="239.5737" y="-186.5" font-family="Helvetica,sans-Serif" font-size="10.00" fill="#000000">SectionType</text>
</g>
<!-- Node4&#45;&gt;Node1 -->
<g id="edge5" class="edge">
<title>Node4&#45;&gt;Node1</title>
<path fill="none" stroke="#9a32cd" stroke-dasharray="5,2" d="M222.3225,-173.1813C209.6936,-161.235 192.7227,-145.1814 180.6379,-133.7499"/>
<polygon fill="#9a32cd" stroke="#9a32cd" points="220.2296,-176.0193 229.8995,-180.3487 225.04,-170.934 220.2296,-176.0193"/>
<text text-anchor="middle" x="240.4282" y="-154" font-family="Helvetica,sans-Serif" font-size="10.00" fill="#000000"> _sectionType</text>
</g>
<!-- Node5 -->
<g id="node6" class="node">
<title>Node5</title>
<polygon fill="none" stroke="#bfbfbf" points="287.5591,-110.5 287.5591,-128.5 333.5884,-128.5 333.5884,-110.5 287.5591,-110.5"/>
<text text-anchor="middle" x="310.5737" y="-116.5" font-family="Helvetica,sans-Serif" font-size="10.00" fill="#000000">double</text>
</g>
<!-- Node5&#45;&gt;Node0 -->
<g id="edge6" class="edge">
<title>Node5&#45;&gt;Node0</title>
<path fill="none" stroke="#9a32cd" stroke-dasharray="5,2" d="M311.3592,-100.3374C312.8994,-84.5732 317.219,-62.3982 329.0913,-47 334.9781,-39.3649 343.1952,-33.2644 351.6128,-28.5059"/>
<polygon fill="#9a32cd" stroke="#9a32cd" points="307.8551,-100.278 310.6608,-110.4946 314.8387,-100.7583 307.8551,-100.278"/>
<text text-anchor="middle" x="355.8149" y="-79" font-family="Helvetica,sans-Serif" font-size="10.00" fill="#000000"> speed</text>
<text text-anchor="middle" x="355.8149" y="-69" font-family="Helvetica,sans-Serif" font-size="10.00" fill="#000000">minSpeed</text>
<text text-anchor="middle" x="355.8149" y="-59" font-family="Helvetica,sans-Serif" font-size="10.00" fill="#000000">deceleration</text>
<text text-anchor="middle" x="355.8149" y="-49" font-family="Helvetica,sans-Serif" font-size="10.00" fill="#000000">acceleration</text>
</g>
<!-- Node6 -->
<g id="node7" class="node">
<title>Node6</title>
<polygon fill="none" stroke="#bfbfbf" points="361.7808,-110.5 361.7808,-128.5 413.3667,-128.5 413.3667,-110.5 361.7808,-110.5"/>
<text text-anchor="middle" x="387.5737" y="-116.5" font-family="Helvetica,sans-Serif" font-size="10.00" fill="#000000">uint32_t</text>
</g>
<!-- Node6&#45;&gt;Node0 -->
<g id="edge7" class="edge">
<title>Node6&#45;&gt;Node0</title>
<path fill="none" stroke="#9a32cd" stroke-dasharray="5,2" d="M387.5737,-100.0103C387.5737,-79.2677 387.5737,-46.9572 387.5737,-28.5654"/>
<polygon fill="#9a32cd" stroke="#9a32cd" points="384.0738,-100.1819 387.5737,-110.182 391.0738,-100.182 384.0738,-100.1819"/>
<text text-anchor="middle" x="432.0464" y="-64" font-family="Helvetica,sans-Serif" font-size="10.00" fill="#000000"> speedingUpPasses</text>
</g>
<!-- Node7 -->
<g id="node8" class="node">
<title>Node7</title>
<polygon fill="none" stroke="#bfbfbf" points="482.1206,-110.5 482.1206,-128.5 517.0269,-128.5 517.0269,-110.5 482.1206,-110.5"/>
<text text-anchor="middle" x="499.5737" y="-116.5" font-family="Helvetica,sans-Serif" font-size="10.00" fill="#000000">bool</text>
</g>
<!-- Node7&#45;&gt;Node0 -->
<g id="edge8" class="edge">
<title>Node7&#45;&gt;Node0</title>
<path fill="none" stroke="#9a32cd" stroke-dasharray="5,2" d="M498.3558,-99.7575C496.3537,-83.6424 491.1286,-61.2776 477.5737,-47 467.6227,-36.5184 454.0408,-29.4075 440.4452,-24.5868"/>
<polygon fill="#9a32cd" stroke="#9a32cd" points="494.9135,-100.5458 499.317,-110.1822 501.884,-99.9031 494.9135,-100.5458"/>
<text text-anchor="middle" x="530.0415" y="-64" font-family="Helvetica,sans-Serif" font-size="10.00" fill="#000000"> speedingDown</text>
</g>
<!-- Node8 -->
<g id="node9" class="node">
<title>Node8</title>
<polygon fill="none" stroke="#bfbfbf" points="551.5181,-110.5 551.5181,-128.5 631.6294,-128.5 631.6294,-110.5 551.5181,-110.5"/>
<text text-anchor="middle" x="591.5737" y="-116.5" font-family="Helvetica,sans-Serif" font-size="10.00" fill="#000000">TransportType</text>
</g>
<!-- Node8&#45;&gt;Node0 -->
<g id="edge9" class="edge">
<title>Node8&#45;&gt;Node0</title>
<path fill="none" stroke="#9a32cd" stroke-dasharray="5,2" d="M590.7638,-100.1281C588.9878,-83.5481 583.7297,-60.3098 568.5737,-47 549.8623,-30.5679 486.7433,-22.094 440.2867,-17.981"/>
<polygon fill="#9a32cd" stroke="#9a32cd" points="587.2907,-100.623 591.5158,-110.3389 594.2717,-100.1088 587.2907,-100.623"/>
<text text-anchor="middle" x="619.5366" y="-64" font-family="Helvetica,sans-Serif" font-size="10.00" fill="#000000"> transportType</text>
</g>
</g>
</svg>
