<?xml version="1.0" encoding="UTF-8" standalone="no"?>
<!DOCTYPE svg PUBLIC "-//W3C//DTD SVG 1.1//EN"
 "http://www.w3.org/Graphics/SVG/1.1/DTD/svg11.dtd">
<!-- Generated by graphviz version 2.40.1 (20161225.0304)
 -->
<!-- Title: NoLimits::NoLimits2::SceneObjectInstance Pages: 1 -->
<svg width="450pt" height="122pt"
 viewBox="0.00 0.00 450.04 122.00" xmlns="http://www.w3.org/2000/svg" xmlns:xlink="http://www.w3.org/1999/xlink">
<g id="graph0" class="graph" transform="scale(1 1) rotate(0) translate(4 118)">
<title>NoLimits::NoLimits2::SceneObjectInstance</title>
<!-- Node0 -->
<g id="node1" class="node">
<title>Node0</title>
<polygon fill="#bfbfbf" stroke="#000000" points="218.2661,-.5 218.2661,-28.5 334.8813,-28.5 334.8813,-.5 218.2661,-.5"/>
<text text-anchor="start" x="226.2661" y="-16.5" font-family="Helvetica,sans-Serif" font-size="10.00" fill="#000000">NoLimits::NoLimits2</text>
<text text-anchor="middle" x="276.5737" y="-6.5" font-family="Helvetica,sans-Serif" font-size="10.00" fill="#000000">::SceneObjectInstance</text>
</g>
<!-- Node1 -->
<g id="node2" class="node">
<title>Node1</title>
<g id="a_node2"><a xlink:href="class_no_limits_1_1_stream_1_1_chunk.html" target="_top" xlink:title="NoLimits::Stream::Chunk">
<polygon fill="none" stroke="#000000" points="0,-95.5 0,-113.5 127.1475,-113.5 127.1475,-95.5 0,-95.5"/>
<text text-anchor="middle" x="63.5737" y="-101.5" font-family="Helvetica,sans-Serif" font-size="10.00" fill="#000000">NoLimits::Stream::Chunk</text>
</a>
</g>
</g>
<!-- Node1&#45;&gt;Node0 -->
<g id="edge1" class="edge">
<title>Node1&#45;&gt;Node0</title>
<path fill="none" stroke="#191970" d="M87.008,-90.1769C108.2602,-77.611 140.7355,-59.4506 170.5737,-47 187.4494,-39.9583 206.3975,-33.6673 223.5559,-28.5395"/>
<polygon fill="#191970" stroke="#191970" points="85.1414,-87.2149 78.3553,-95.3512 88.7342,-93.2226 85.1414,-87.2149"/>
</g>
<!-- Node2 -->
<g id="node3" class="node">
<title>Node2</title>
<polygon fill="none" stroke="#bfbfbf" points="144.7808,-95.5 144.7808,-113.5 196.3667,-113.5 196.3667,-95.5 144.7808,-95.5"/>
<text text-anchor="middle" x="170.5737" y="-101.5" font-family="Helvetica,sans-Serif" font-size="10.00" fill="#000000">uint32_t</text>
</g>
<!-- Node2&#45;&gt;Node0 -->
<g id="edge2" class="edge">
<title>Node2&#45;&gt;Node0</title>
<path fill="none" stroke="#9a32cd" stroke-dasharray="5,2" d="M172.6999,-85.309C175.0024,-72.9503 179.7919,-57.3229 189.7466,-47 197.5675,-38.8898 207.6033,-32.7849 218.0578,-28.195"/>
<polygon fill="#9a32cd" stroke="#9a32cd" points="169.1944,-85.0922 171.2077,-95.494 176.1204,-86.107 169.1944,-85.0922"/>
<text text-anchor="middle" x="230.9873" y="-59" font-family="Helvetica,sans-Serif" font-size="10.00" fill="#000000"> sceneObjectIndex</text>
</g>
<!-- Node3 -->
<g id="node4" class="node">
<title>Node3</title>
<polygon fill="none" stroke="#bfbfbf" points="259.1206,-95.5 259.1206,-113.5 294.0269,-113.5 294.0269,-95.5 259.1206,-95.5"/>
<text text-anchor="middle" x="276.5737" y="-101.5" font-family="Helvetica,sans-Serif" font-size="10.00" fill="#000000">bool</text>
</g>
<!-- Node3&#45;&gt;Node0 -->
<g id="edge3" class="edge">
<title>Node3&#45;&gt;Node0</title>
<path fill="none" stroke="#9a32cd" stroke-dasharray="5,2" d="M276.5737,-84.7822C276.5737,-67.7955 276.5737,-43.6938 276.5737,-28.5872"/>
<polygon fill="#9a32cd" stroke="#9a32cd" points="273.0738,-85.2074 276.5737,-95.2074 280.0738,-85.2074 273.0738,-85.2074"/>
<text text-anchor="middle" x="307.4185" y="-69" font-family="Helvetica,sans-Serif" font-size="10.00" fill="#000000"> dimObject</text>
<text text-anchor="middle" x="307.4185" y="-59" font-family="Helvetica,sans-Serif" font-size="10.00" fill="#000000">lock</text>
<text text-anchor="middle" x="307.4185" y="-49" font-family="Helvetica,sans-Serif" font-size="10.00" fill="#000000">lockOnTerrain</text>
</g>
<!-- Node4 -->
<g id="node5" class="node">
<title>Node4</title>
<polygon fill="none" stroke="#bfbfbf" points="341.3472,-95.5 341.3472,-113.5 381.8003,-113.5 381.8003,-95.5 341.3472,-95.5"/>
<text text-anchor="middle" x="361.5737" y="-101.5" font-family="Helvetica,sans-Serif" font-size="10.00" fill="#000000">string</text>
</g>
<!-- Node4&#45;&gt;Node0 -->
<g id="edge4" class="edge">
<title>Node4&#45;&gt;Node0</title>
<path fill="none" stroke="#9a32cd" stroke-dasharray="5,2" d="M357.9067,-85.245C354.767,-73.0978 349.1781,-57.7326 339.5737,-47 332.7619,-39.388 323.7447,-33.2955 314.6682,-28.5375"/>
<polygon fill="#9a32cd" stroke="#9a32cd" points="354.5503,-86.2744 360.1463,-95.2707 361.3819,-84.7482 354.5503,-86.2744"/>
<text text-anchor="middle" x="368.4702" y="-59" font-family="Helvetica,sans-Serif" font-size="10.00" fill="#000000"> name</text>
</g>
<!-- Node5 -->
<g id="node6" class="node">
<title>Node5</title>
<polygon fill="none" stroke="#bfbfbf" points="400.0122,-95.5 400.0122,-113.5 437.1353,-113.5 437.1353,-95.5 400.0122,-95.5"/>
<text text-anchor="middle" x="418.5737" y="-101.5" font-family="Helvetica,sans-Serif" font-size="10.00" fill="#000000">vec3</text>
</g>
<!-- Node5&#45;&gt;Node0 -->
<g id="edge5" class="edge">
<title>Node5&#45;&gt;Node0</title>
<path fill="none" stroke="#9a32cd" stroke-dasharray="5,2" d="M412.406,-85.6832C407.3464,-73.0383 398.9757,-56.9293 386.5737,-47 371.8837,-35.2389 353.05,-27.7321 335.1334,-22.9415"/>
<polygon fill="#9a32cd" stroke="#9a32cd" points="409.1879,-87.0754 415.893,-95.2785 415.7669,-84.6844 409.1879,-87.0754"/>
<text text-anchor="middle" x="424.8076" y="-69" font-family="Helvetica,sans-Serif" font-size="10.00" fill="#000000"> scale</text>
<text text-anchor="middle" x="424.8076" y="-59" font-family="Helvetica,sans-Serif" font-size="10.00" fill="#000000">rotation</text>
<text text-anchor="middle" x="424.8076" y="-49" font-family="Helvetica,sans-Serif" font-size="10.00" fill="#000000">position</text>
</g>
</g>
</svg>
