<?xml version="1.0" encoding="UTF-8" standalone="no"?>
<!DOCTYPE svg PUBLIC "-//W3C//DTD SVG 1.1//EN"
 "http://www.w3.org/Graphics/SVG/1.1/DTD/svg11.dtd">
<!-- Generated by graphviz version 2.40.1 (20161225.0304)
 -->
<!-- Title: NoLimits::NoLimits1::TransportDevice Pages: 1 -->
<svg width="311pt" height="132pt"
 viewBox="0.00 0.00 310.92 132.00" xmlns="http://www.w3.org/2000/svg" xmlns:xlink="http://www.w3.org/1999/xlink">
<g id="graph0" class="graph" transform="scale(1 1) rotate(0) translate(4 128)">
<title>NoLimits::NoLimits1::TransportDevice</title>
<!-- Node0 -->
<g id="node1" class="node">
<title>Node0</title>
<polygon fill="#bfbfbf" stroke="#000000" points="71.9951,-.5 71.9951,-28.5 176.9063,-28.5 176.9063,-.5 71.9951,-.5"/>
<text text-anchor="start" x="79.9951" y="-16.5" font-family="Helvetica,sans-Serif" font-size="10.00" fill="#000000">NoLimits::NoLimits1</text>
<text text-anchor="middle" x="124.4507" y="-6.5" font-family="Helvetica,sans-Serif" font-size="10.00" fill="#000000">::TransportDevice</text>
</g>
<!-- Node1 -->
<g id="node2" class="node">
<title>Node1</title>
<polygon fill="none" stroke="#bfbfbf" points="0,-105.5 0,-123.5 34.9014,-123.5 34.9014,-105.5 0,-105.5"/>
<text text-anchor="middle" x="17.4507" y="-111.5" font-family="Helvetica,sans-Serif" font-size="10.00" fill="#000000">float</text>
</g>
<!-- Node1&#45;&gt;Node0 -->
<g id="edge1" class="edge">
<title>Node1&#45;&gt;Node0</title>
<path fill="none" stroke="#9a32cd" stroke-dasharray="5,2" d="M18.0954,-95.2483C19.5825,-80.3528 23.8982,-60.1185 35.9536,-47 45.478,-36.6357 58.5904,-29.5672 71.8053,-24.7497"/>
<polygon fill="#9a32cd" stroke="#9a32cd" points="14.5922,-95.1837 17.4282,-105.3919 21.5771,-95.6432 14.5922,-95.1837"/>
<text text-anchor="middle" x="78.6992" y="-79" font-family="Helvetica,sans-Serif" font-size="10.00" fill="#000000"> speed</text>
<text text-anchor="middle" x="78.6992" y="-69" font-family="Helvetica,sans-Serif" font-size="10.00" fill="#000000">deceleration</text>
<text text-anchor="middle" x="78.6992" y="-59" font-family="Helvetica,sans-Serif" font-size="10.00" fill="#000000">acceleration</text>
<text text-anchor="middle" x="78.6992" y="-49" font-family="Helvetica,sans-Serif" font-size="10.00" fill="#000000">launchAcceleration</text>
</g>
<!-- Node2 -->
<g id="node3" class="node">
<title>Node2</title>
<polygon fill="none" stroke="#bfbfbf" points="106.9976,-105.5 106.9976,-123.5 141.9038,-123.5 141.9038,-105.5 106.9976,-105.5"/>
<text text-anchor="middle" x="124.4507" y="-111.5" font-family="Helvetica,sans-Serif" font-size="10.00" fill="#000000">bool</text>
</g>
<!-- Node2&#45;&gt;Node0 -->
<g id="edge2" class="edge">
<title>Node2&#45;&gt;Node0</title>
<path fill="none" stroke="#9a32cd" stroke-dasharray="5,2" d="M124.4507,-95.1586C124.4507,-75.7227 124.4507,-46.2208 124.4507,-28.801"/>
<polygon fill="#9a32cd" stroke="#9a32cd" points="120.9508,-95.2714 124.4507,-105.2715 127.9508,-95.2715 120.9508,-95.2714"/>
<text text-anchor="middle" x="171.7896" y="-69" font-family="Helvetica,sans-Serif" font-size="10.00" fill="#000000"> hideTransportDevice</text>
<text text-anchor="middle" x="171.7896" y="-59" font-family="Helvetica,sans-Serif" font-size="10.00" fill="#000000">enableLaunch</text>
</g>
<!-- Node3 -->
<g id="node4" class="node">
<title>Node3</title>
<polygon fill="none" stroke="#bfbfbf" points="202.395,-105.5 202.395,-123.5 282.5063,-123.5 282.5063,-105.5 202.395,-105.5"/>
<text text-anchor="middle" x="242.4507" y="-111.5" font-family="Helvetica,sans-Serif" font-size="10.00" fill="#000000">TransportType</text>
</g>
<!-- Node3&#45;&gt;Node0 -->
<g id="edge3" class="edge">
<title>Node3&#45;&gt;Node0</title>
<path fill="none" stroke="#9a32cd" stroke-dasharray="5,2" d="M240.7928,-95.102C238.5251,-80.1246 233.1569,-59.8514 220.4507,-47 208.8217,-35.2381 192.7894,-27.732 177.1553,-22.9422"/>
<polygon fill="#9a32cd" stroke="#9a32cd" points="237.3493,-95.7893 241.9927,-105.3124 244.3015,-94.9722 237.3493,-95.7893"/>
<text text-anchor="middle" x="270.687" y="-64" font-family="Helvetica,sans-Serif" font-size="10.00" fill="#000000"> transportStyle</text>
</g>
</g>
</svg>
