<?xml version="1.0" encoding="UTF-8" standalone="no"?>
<!DOCTYPE svg PUBLIC "-//W3C//DTD SVG 1.1//EN"
 "http://www.w3.org/Graphics/SVG/1.1/DTD/svg11.dtd">
<!-- Generated by graphviz version 2.40.1 (20161225.0304)
 -->
<!-- Title: NoLimits::NoLimits2::Sky Pages: 1 -->
<svg width="354pt" height="102pt"
 viewBox="0.00 0.00 354.33 102.00" xmlns="http://www.w3.org/2000/svg" xmlns:xlink="http://www.w3.org/1999/xlink">
<g id="graph0" class="graph" transform="scale(1 1) rotate(0) translate(4 98)">
<title>NoLimits::NoLimits2::Sky</title>
<!-- Node0 -->
<g id="node1" class="node">
<title>Node0</title>
<polygon fill="#bfbfbf" stroke="#000000" points="99.0049,-.5 99.0049,-18.5 226.1426,-18.5 226.1426,-.5 99.0049,-.5"/>
<text text-anchor="middle" x="162.5737" y="-6.5" font-family="Helvetica,sans-Serif" font-size="10.00" fill="#000000">NoLimits::NoLimits2::Sky</text>
</g>
<!-- Node1 -->
<g id="node2" class="node">
<title>Node1</title>
<g id="a_node2"><a xlink:href="class_no_limits_1_1_stream_1_1_chunk.html" target="_top" xlink:title="NoLimits::Stream::Chunk">
<polygon fill="none" stroke="#000000" points="0,-75.5 0,-93.5 127.1475,-93.5 127.1475,-75.5 0,-75.5"/>
<text text-anchor="middle" x="63.5737" y="-81.5" font-family="Helvetica,sans-Serif" font-size="10.00" fill="#000000">NoLimits::Stream::Chunk</text>
</a>
</g>
</g>
<!-- Node1&#45;&gt;Node0 -->
<g id="edge1" class="edge">
<title>Node1&#45;&gt;Node0</title>
<path fill="none" stroke="#191970" d="M83.9095,-69.0941C104.0214,-53.8578 134.117,-31.0581 150.6443,-18.5374"/>
<polygon fill="#191970" stroke="#191970" points="81.5705,-66.4751 75.7131,-75.3035 85.7975,-72.0547 81.5705,-66.4751"/>
</g>
<!-- Node2 -->
<g id="node3" class="node">
<title>Node2</title>
<polygon fill="none" stroke="#bfbfbf" points="145.1206,-75.5 145.1206,-93.5 180.0269,-93.5 180.0269,-75.5 145.1206,-75.5"/>
<text text-anchor="middle" x="162.5737" y="-81.5" font-family="Helvetica,sans-Serif" font-size="10.00" fill="#000000">bool</text>
</g>
<!-- Node2&#45;&gt;Node0 -->
<g id="edge2" class="edge">
<title>Node2&#45;&gt;Node0</title>
<path fill="none" stroke="#9a32cd" stroke-dasharray="5,2" d="M162.5737,-65.1079C162.5737,-50.2042 162.5737,-30.2791 162.5737,-18.7717"/>
<polygon fill="#9a32cd" stroke="#9a32cd" points="159.0738,-65.3035 162.5737,-75.3035 166.0738,-65.3036 159.0738,-65.3035"/>
<text text-anchor="middle" x="219.3584" y="-44" font-family="Helvetica,sans-Serif" font-size="10.00" fill="#000000"> overrideDefaultDateTime</text>
</g>
<!-- Node3 -->
<g id="node4" class="node">
<title>Node3</title>
<polygon fill="none" stroke="#bfbfbf" points="281.0122,-75.5 281.0122,-93.5 318.1353,-93.5 318.1353,-75.5 281.0122,-75.5"/>
<text text-anchor="middle" x="299.5737" y="-81.5" font-family="Helvetica,sans-Serif" font-size="10.00" fill="#000000">vec2</text>
</g>
<!-- Node3&#45;&gt;Node0 -->
<g id="edge3" class="edge">
<title>Node3&#45;&gt;Node0</title>
<path fill="none" stroke="#9a32cd" stroke-dasharray="5,2" d="M295.0808,-65.5303C291.8024,-55.6598 286.3538,-44.1861 277.5737,-37 268.4394,-29.524 244.3049,-23.2153 220.4904,-18.5338"/>
<polygon fill="#9a32cd" stroke="#9a32cd" points="291.7616,-66.656 297.8413,-75.3329 298.4995,-64.7585 291.7616,-66.656"/>
<text text-anchor="middle" x="318.4521" y="-49" font-family="Helvetica,sans-Serif" font-size="10.00" fill="#000000"> currentTime</text>
<text text-anchor="middle" x="318.4521" y="-39" font-family="Helvetica,sans-Serif" font-size="10.00" fill="#000000">currentDate</text>
</g>
</g>
</svg>
