<?xml version="1.0" encoding="UTF-8" standalone="no"?>
<!DOCTYPE svg PUBLIC "-//W3C//DTD SVG 1.1//EN"
 "http://www.w3.org/Graphics/SVG/1.1/DTD/svg11.dtd">
<!-- Generated by graphviz version 2.40.1 (20161225.0304)
 -->
<!-- Title: NoLimits::NoLimits1::Vertex Pages: 1 -->
<svg width="358pt" height="122pt"
 viewBox="0.00 0.00 357.94 122.00" xmlns="http://www.w3.org/2000/svg" xmlns:xlink="http://www.w3.org/1999/xlink">
<g id="graph0" class="graph" transform="scale(1 1) rotate(0) translate(4 118)">
<title>NoLimits::NoLimits1::Vertex</title>
<!-- Node0 -->
<g id="node1" class="node">
<title>Node0</title>
<polygon fill="#bfbfbf" stroke="#000000" points="133.1182,-.5 133.1182,-28.5 238.0293,-28.5 238.0293,-.5 133.1182,-.5"/>
<text text-anchor="start" x="141.1182" y="-16.5" font-family="Helvetica,sans-Serif" font-size="10.00" fill="#000000">NoLimits::NoLimits1</text>
<text text-anchor="middle" x="185.5737" y="-6.5" font-family="Helvetica,sans-Serif" font-size="10.00" fill="#000000">::Vertex</text>
</g>
<!-- Node1 -->
<g id="node2" class="node">
<title>Node1</title>
<g id="a_node2"><a xlink:href="class_no_limits_1_1_stream_1_1_chunk.html" target="_top" xlink:title="NoLimits::Stream::Chunk">
<polygon fill="none" stroke="#000000" points="0,-95.5 0,-113.5 127.1475,-113.5 127.1475,-95.5 0,-95.5"/>
<text text-anchor="middle" x="63.5737" y="-101.5" font-family="Helvetica,sans-Serif" font-size="10.00" fill="#000000">NoLimits::Stream::Chunk</text>
</a>
</g>
</g>
<!-- Node1&#45;&gt;Node0 -->
<g id="edge1" class="edge">
<title>Node1&#45;&gt;Node0</title>
<path fill="none" stroke="#191970" d="M84.2504,-89.2468C107.2581,-72.2738 144.1293,-45.0737 166.4777,-28.5872"/>
<polygon fill="#191970" stroke="#191970" points="82.1398,-86.4543 76.1704,-95.2074 86.2954,-92.0874 82.1398,-86.4543"/>
</g>
<!-- Node2 -->
<g id="node3" class="node">
<title>Node2</title>
<polygon fill="none" stroke="#bfbfbf" points="145.123,-95.5 145.123,-113.5 180.0244,-113.5 180.0244,-95.5 145.123,-95.5"/>
<text text-anchor="middle" x="162.5737" y="-101.5" font-family="Helvetica,sans-Serif" font-size="10.00" fill="#000000">float</text>
</g>
<!-- Node2&#45;&gt;Node0 -->
<g id="edge2" class="edge">
<title>Node2&#45;&gt;Node0</title>
<path fill="none" stroke="#9a32cd" stroke-dasharray="5,2" d="M163.7653,-85.2945C164.822,-73.974 166.796,-59.4709 170.4604,-47 172.2849,-40.791 175.1213,-34.263 177.8462,-28.7"/>
<polygon fill="#9a32cd" stroke="#9a32cd" points="160.2684,-85.1207 162.9857,-95.3611 167.2475,-85.6612 160.2684,-85.1207"/>
<text text-anchor="middle" x="177.6304" y="-59" font-family="Helvetica,sans-Serif" font-size="10.00" fill="#000000"> roll</text>
</g>
<!-- Node3 -->
<g id="node4" class="node">
<title>Node3</title>
<polygon fill="none" stroke="#bfbfbf" points="198.1206,-95.5 198.1206,-113.5 233.0269,-113.5 233.0269,-95.5 198.1206,-95.5"/>
<text text-anchor="middle" x="215.5737" y="-101.5" font-family="Helvetica,sans-Serif" font-size="10.00" fill="#000000">bool</text>
</g>
<!-- Node3&#45;&gt;Node0 -->
<g id="edge3" class="edge">
<title>Node3&#45;&gt;Node0</title>
<path fill="none" stroke="#9a32cd" stroke-dasharray="5,2" d="M209.1638,-85.2702C203.4937,-68.2599 195.3534,-43.8391 190.2695,-28.5872"/>
<polygon fill="#9a32cd" stroke="#9a32cd" points="205.9935,-86.8274 212.4762,-95.2074 212.6342,-84.6137 205.9935,-86.8274"/>
<text text-anchor="middle" x="238.6499" y="-69" font-family="Helvetica,sans-Serif" font-size="10.00" fill="#000000"> equalDistance</text>
<text text-anchor="middle" x="238.6499" y="-59" font-family="Helvetica,sans-Serif" font-size="10.00" fill="#000000">continuousRoll</text>
<text text-anchor="middle" x="238.6499" y="-49" font-family="Helvetica,sans-Serif" font-size="10.00" fill="#000000">relativeRoll</text>
</g>
<!-- Node4 -->
<g id="node5" class="node">
<title>Node4</title>
<polygon fill="none" stroke="#bfbfbf" points="279.0122,-95.5 279.0122,-113.5 316.1353,-113.5 316.1353,-95.5 279.0122,-95.5"/>
<text text-anchor="middle" x="297.5737" y="-101.5" font-family="Helvetica,sans-Serif" font-size="10.00" fill="#000000">vec3</text>
</g>
<!-- Node4&#45;&gt;Node0 -->
<g id="edge4" class="edge">
<title>Node4&#45;&gt;Node0</title>
<path fill="none" stroke="#9a32cd" stroke-dasharray="5,2" d="M294.5498,-85.6081C291.6455,-73.157 286.0765,-57.3063 275.5737,-47 265.3765,-36.9936 251.8737,-30.0424 238.437,-25.2231"/>
<polygon fill="#9a32cd" stroke="#9a32cd" points="291.1201,-86.307 296.4731,-95.45 297.9901,-84.9644 291.1201,-86.307"/>
<text text-anchor="middle" x="320.7583" y="-69" font-family="Helvetica,sans-Serif" font-size="10.00" fill="#000000"> position</text>
<text text-anchor="middle" x="320.7583" y="-59" font-family="Helvetica,sans-Serif" font-size="10.00" fill="#000000">controlPoint1</text>
<text text-anchor="middle" x="320.7583" y="-49" font-family="Helvetica,sans-Serif" font-size="10.00" fill="#000000">controlPoint2</text>
</g>
</g>
</svg>
