<?xml version="1.0" encoding="UTF-8" standalone="no"?>
<!DOCTYPE svg PUBLIC "-//W3C//DTD SVG 1.1//EN"
 "http://www.w3.org/Graphics/SVG/1.1/DTD/svg11.dtd">
<!-- Generated by graphviz version 2.40.1 (20161225.0304)
 -->
<!-- Title: NoLimits::NoLimits1::Transport Pages: 1 -->
<svg width="987pt" height="227pt"
 viewBox="0.00 0.00 986.72 227.00" xmlns="http://www.w3.org/2000/svg" xmlns:xlink="http://www.w3.org/1999/xlink">
<g id="graph0" class="graph" transform="scale(1 1) rotate(0) translate(4 223)">
<title>NoLimits::NoLimits1::Transport</title>
<!-- Node0 -->
<g id="node1" class="node">
<title>Node0</title>
<polygon fill="#bfbfbf" stroke="#000000" points="625.3374,-.5 625.3374,-28.5 730.2485,-28.5 730.2485,-.5 625.3374,-.5"/>
<text text-anchor="start" x="633.3374" y="-16.5" font-family="Helvetica,sans-Serif" font-size="10.00" fill="#000000">NoLimits::NoLimits1</text>
<text text-anchor="middle" x="677.793" y="-6.5" font-family="Helvetica,sans-Serif" font-size="10.00" fill="#000000">::Transport</text>
</g>
<!-- Node1 -->
<g id="node2" class="node">
<title>Node1</title>
<g id="a_node2"><a xlink:href="class_no_limits_1_1_no_limits1_1_1_section.html" target="_top" xlink:title="NoLimits::NoLimits1\l::Section">
<polygon fill="none" stroke="#000000" points="233.3374,-105.5 233.3374,-133.5 338.2485,-133.5 338.2485,-105.5 233.3374,-105.5"/>
<text text-anchor="start" x="241.3374" y="-121.5" font-family="Helvetica,sans-Serif" font-size="10.00" fill="#000000">NoLimits::NoLimits1</text>
<text text-anchor="middle" x="285.793" y="-111.5" font-family="Helvetica,sans-Serif" font-size="10.00" fill="#000000">::Section</text>
</a>
</g>
</g>
<!-- Node1&#45;&gt;Node0 -->
<g id="edge1" class="edge">
<title>Node1&#45;&gt;Node0</title>
<path fill="none" stroke="#191970" d="M342.7158,-102.5385C394.2647,-87.3641 472.3831,-64.83 540.793,-47 568.5871,-39.7559 599.7284,-32.315 625.289,-26.384"/>
<polygon fill="#191970" stroke="#191970" points="341.6912,-99.1916 333.0897,-105.3775 343.6714,-105.9057 341.6912,-99.1916"/>
</g>
<!-- Node2 -->
<g id="node3" class="node">
<title>Node2</title>
<g id="a_node3"><a xlink:href="class_no_limits_1_1_stream_1_1_chunk.html" target="_top" xlink:title="NoLimits::Stream::Chunk">
<polygon fill="none" stroke="#000000" points="69.2192,-200.5 69.2192,-218.5 196.3667,-218.5 196.3667,-200.5 69.2192,-200.5"/>
<text text-anchor="middle" x="132.793" y="-206.5" font-family="Helvetica,sans-Serif" font-size="10.00" fill="#000000">NoLimits::Stream::Chunk</text>
</a>
</g>
</g>
<!-- Node2&#45;&gt;Node1 -->
<g id="edge2" class="edge">
<title>Node2&#45;&gt;Node1</title>
<path fill="none" stroke="#191970" d="M157.2725,-195.1003C185.9706,-178.219 233.2265,-150.4214 261.7395,-133.6491"/>
<polygon fill="#191970" stroke="#191970" points="155.1502,-192.288 148.3054,-200.375 158.6994,-198.3216 155.1502,-192.288"/>
</g>
<!-- Node3 -->
<g id="node4" class="node">
<title>Node3</title>
<polygon fill="none" stroke="#bfbfbf" points="0,-200.5 0,-218.5 51.5859,-218.5 51.5859,-200.5 0,-200.5"/>
<text text-anchor="middle" x="25.793" y="-206.5" font-family="Helvetica,sans-Serif" font-size="10.00" fill="#000000">uint32_t</text>
</g>
<!-- Node3&#45;&gt;Node1 -->
<g id="edge3" class="edge">
<title>Node3&#45;&gt;Node1</title>
<path fill="none" stroke="#9a32cd" stroke-dasharray="5,2" d="M51.5393,-195.6459C76.0979,-182.885 114.4159,-164.1432 149.3301,-152 176.4731,-142.5596 207.587,-134.917 233.2442,-129.4206"/>
<polygon fill="#9a32cd" stroke="#9a32cd" points="49.7507,-192.6319 42.5267,-200.3821 53.007,-198.8284 49.7507,-192.6319"/>
<text text-anchor="middle" x="164.5244" y="-169" font-family="Helvetica,sans-Serif" font-size="10.00" fill="#000000"> flags1</text>
<text text-anchor="middle" x="164.5244" y="-159" font-family="Helvetica,sans-Serif" font-size="10.00" fill="#000000">flags2</text>
</g>
<!-- Node4 -->
<g id="node5" class="node">
<title>Node4</title>
<polygon fill="none" stroke="#bfbfbf" points="474.3398,-200.5 474.3398,-218.5 509.2461,-218.5 509.2461,-200.5 474.3398,-200.5"/>
<text text-anchor="middle" x="491.793" y="-206.5" font-family="Helvetica,sans-Serif" font-size="10.00" fill="#000000">bool</text>
</g>
<!-- Node4&#45;&gt;Node0 -->
<g id="edge10" class="edge">
<title>Node4&#45;&gt;Node0</title>
<path fill="none" stroke="#9a32cd" stroke-dasharray="5,2" d="M518.7094,-199.1117C526.7736,-194.8653 535.0023,-189.2198 540.793,-182 563.1555,-154.1186 548.1689,-137.049 563.9902,-105 578.0559,-76.5074 581.1885,-67.1071 605.793,-47 614.9257,-39.5366 626.0479,-33.42 636.7921,-28.5874"/>
<polygon fill="#9a32cd" stroke="#9a32cd" points="517.0276,-196.0351 509.4742,-203.4645 520.012,-202.367 517.0276,-196.0351"/>
<text text-anchor="middle" x="590.1943" y="-121.5" font-family="Helvetica,sans-Serif" font-size="10.00" fill="#000000"> railingRight</text>
<text text-anchor="middle" x="590.1943" y="-111.5" font-family="Helvetica,sans-Serif" font-size="10.00" fill="#000000">railingLeft</text>
</g>
<!-- Node4&#45;&gt;Node1 -->
<g id="edge4" class="edge">
<title>Node4&#45;&gt;Node1</title>
<path fill="none" stroke="#9a32cd" stroke-dasharray="5,2" d="M464.6419,-199.7353C453.7286,-195.1777 441.3362,-189.1653 431.1104,-182 415.8426,-171.3018 417.8305,-161.5055 401.793,-152 382.542,-140.5899 359.1187,-133.0402 338.3739,-128.1172"/>
<polygon fill="#9a32cd" stroke="#9a32cd" points="463.5578,-203.0705 474.1438,-203.5033 466.1382,-196.5635 463.5578,-203.0705"/>
<text text-anchor="middle" x="486.6343" y="-169" font-family="Helvetica,sans-Serif" font-size="10.00" fill="#000000"> useIndividualTrackColor</text>
<text text-anchor="middle" x="486.6343" y="-159" font-family="Helvetica,sans-Serif" font-size="10.00" fill="#000000">useTunnel</text>
</g>
<!-- Node5 -->
<g id="node6" class="node">
<title>Node5</title>
<polygon fill="none" stroke="#bfbfbf" points="214.2734,-200.5 214.2734,-218.5 285.3125,-218.5 285.3125,-200.5 214.2734,-200.5"/>
<text text-anchor="middle" x="249.793" y="-206.5" font-family="Helvetica,sans-Serif" font-size="10.00" fill="#000000">SectionType</text>
</g>
<!-- Node5&#45;&gt;Node1 -->
<g id="edge5" class="edge">
<title>Node5&#45;&gt;Node1</title>
<path fill="none" stroke="#9a32cd" stroke-dasharray="5,2" d="M244.338,-190.4681C242.0469,-178.8281 241.0429,-163.933 246.6455,-152 250.0242,-144.8037 255.8658,-138.6504 262.0208,-133.6962"/>
<polygon fill="#9a32cd" stroke="#9a32cd" points="240.9954,-191.5354 246.7554,-200.4277 247.7979,-189.8842 240.9954,-191.5354"/>
<text text-anchor="middle" x="274.8667" y="-164" font-family="Helvetica,sans-Serif" font-size="10.00" fill="#000000"> sectionType</text>
</g>
<!-- Node6 -->
<g id="node7" class="node">
<title>Node6</title>
<polygon fill="none" stroke="#bfbfbf" points="306.2314,-200.5 306.2314,-218.5 343.3545,-218.5 343.3545,-200.5 306.2314,-200.5"/>
<text text-anchor="middle" x="324.793" y="-206.5" font-family="Helvetica,sans-Serif" font-size="10.00" fill="#000000">vec3</text>
</g>
<!-- Node6&#45;&gt;Node1 -->
<g id="edge6" class="edge">
<title>Node6&#45;&gt;Node1</title>
<path fill="none" stroke="#9a32cd" stroke-dasharray="5,2" d="M318.2349,-190.7188C314.1189,-179.3735 308.5205,-164.6998 302.793,-152 300.018,-145.8471 296.6265,-139.2175 293.6047,-133.5609"/>
<polygon fill="#9a32cd" stroke="#9a32cd" points="315.0314,-192.1564 321.6827,-200.4033 321.626,-189.8086 315.0314,-192.1564"/>
<text text-anchor="middle" x="356.9136" y="-174" font-family="Helvetica,sans-Serif" font-size="10.00" fill="#000000"> trackRailColor</text>
<text text-anchor="middle" x="356.9136" y="-164" font-family="Helvetica,sans-Serif" font-size="10.00" fill="#000000">trackSpineColor</text>
<text text-anchor="middle" x="356.9136" y="-154" font-family="Helvetica,sans-Serif" font-size="10.00" fill="#000000">trackCrosstieColor</text>
</g>
<!-- Node7 -->
<g id="node8" class="node">
<title>Node7</title>
<polygon fill="none" stroke="#bfbfbf" points="625.3423,-110.5 625.3423,-128.5 660.2437,-128.5 660.2437,-110.5 625.3423,-110.5"/>
<text text-anchor="middle" x="642.793" y="-116.5" font-family="Helvetica,sans-Serif" font-size="10.00" fill="#000000">float</text>
</g>
<!-- Node7&#45;&gt;Node0 -->
<g id="edge7" class="edge">
<title>Node7&#45;&gt;Node0</title>
<path fill="none" stroke="#9a32cd" stroke-dasharray="5,2" d="M625.3323,-102.7789C621.5077,-98.076 617.9939,-92.6812 615.9512,-87 609.936,-70.2708 606.7582,-62.2164 615.9512,-47 620.6551,-39.214 627.9107,-33.2007 635.8192,-28.5895"/>
<polygon fill="#9a32cd" stroke="#9a32cd" points="622.9732,-105.386 632.3015,-110.4095 628.1419,-100.6653 622.9732,-105.386"/>
<text text-anchor="middle" x="667.2139" y="-79" font-family="Helvetica,sans-Serif" font-size="10.00" fill="#000000"> speed</text>
<text text-anchor="middle" x="667.2139" y="-69" font-family="Helvetica,sans-Serif" font-size="10.00" fill="#000000">deceleration</text>
<text text-anchor="middle" x="667.2139" y="-59" font-family="Helvetica,sans-Serif" font-size="10.00" fill="#000000">acceleration</text>
<text text-anchor="middle" x="667.2139" y="-49" font-family="Helvetica,sans-Serif" font-size="10.00" fill="#000000">speedDownSpeedLimit</text>
</g>
<!-- Node8 -->
<g id="node9" class="node">
<title>Node8</title>
<polygon fill="none" stroke="#bfbfbf" points="705.5518,-110.5 705.5518,-128.5 776.0342,-128.5 776.0342,-110.5 705.5518,-110.5"/>
<text text-anchor="middle" x="740.793" y="-116.5" font-family="Helvetica,sans-Serif" font-size="10.00" fill="#000000">SpeedDown</text>
</g>
<!-- Node8&#45;&gt;Node0 -->
<g id="edge8" class="edge">
<title>Node8&#45;&gt;Node0</title>
<path fill="none" stroke="#9a32cd" stroke-dasharray="5,2" d="M738.2019,-100.2895C735.3924,-84.8289 729.7506,-63.1004 718.793,-47 713.9891,-39.9415 707.1852,-33.6847 700.4977,-28.5926"/>
<polygon fill="#9a32cd" stroke="#9a32cd" points="734.7612,-100.94 739.7826,-110.2693 741.675,-99.8449 734.7612,-100.94"/>
<text text-anchor="middle" x="762.5884" y="-64" font-family="Helvetica,sans-Serif" font-size="10.00" fill="#000000"> speedDown</text>
</g>
<!-- Node9 -->
<g id="node10" class="node">
<title>Node9</title>
<polygon fill="none" stroke="#bfbfbf" points="796.7808,-110.5 796.7808,-128.5 842.8052,-128.5 842.8052,-110.5 796.7808,-110.5"/>
<text text-anchor="middle" x="819.793" y="-116.5" font-family="Helvetica,sans-Serif" font-size="10.00" fill="#000000">uint8_t</text>
</g>
<!-- Node9&#45;&gt;Node0 -->
<g id="edge9" class="edge">
<title>Node9&#45;&gt;Node0</title>
<path fill="none" stroke="#9a32cd" stroke-dasharray="5,2" d="M818.0225,-99.9079C815.5132,-83.5613 809.4487,-60.7863 794.793,-47 785.1574,-37.936 756.8507,-29.9483 730.4949,-24.1599"/>
<polygon fill="#9a32cd" stroke="#9a32cd" points="814.5693,-100.5053 819.2535,-110.0083 821.5179,-99.6583 814.5693,-100.5053"/>
<text text-anchor="middle" x="852.5933" y="-64" font-family="Helvetica,sans-Serif" font-size="10.00" fill="#000000"> speedUpPasses</text>
</g>
<!-- Node10 -->
<g id="node11" class="node">
<title>Node10</title>
<polygon fill="none" stroke="#bfbfbf" points="878.7373,-110.5 878.7373,-128.5 958.8486,-128.5 958.8486,-110.5 878.7373,-110.5"/>
<text text-anchor="middle" x="918.793" y="-116.5" font-family="Helvetica,sans-Serif" font-size="10.00" fill="#000000">TransportType</text>
</g>
<!-- Node10&#45;&gt;Node0 -->
<g id="edge11" class="edge">
<title>Node10&#45;&gt;Node0</title>
<path fill="none" stroke="#9a32cd" stroke-dasharray="5,2" d="M917.7899,-99.999C915.8335,-83.3348 910.2843,-60.0453 894.793,-47 870.6081,-26.6339 786.5457,-19.0148 730.4285,-16.1747"/>
<polygon fill="#9a32cd" stroke="#9a32cd" points="914.3275,-100.5962 918.6482,-110.27 921.3032,-100.0132 914.3275,-100.5962"/>
<text text-anchor="middle" x="946.7559" y="-64" font-family="Helvetica,sans-Serif" font-size="10.00" fill="#000000"> transportType</text>
</g>
</g>
</svg>
