<?xml version="1.0" encoding="UTF-8" standalone="no"?>
<!DOCTYPE svg PUBLIC "-//W3C//DTD SVG 1.1//EN"
 "http://www.w3.org/Graphics/SVG/1.1/DTD/svg11.dtd">
<!-- Generated by graphviz version 2.40.1 (20161225.0304)
 -->
<!-- Title: NoLimits::NoLimits2::SupportParameter Pages: 1 -->
<svg width="255pt" height="102pt"
 viewBox="0.00 0.00 255.42 102.00" xmlns="http://www.w3.org/2000/svg" xmlns:xlink="http://www.w3.org/1999/xlink">
<g id="graph0" class="graph" transform="scale(1 1) rotate(0) translate(4 98)">
<title>NoLimits::NoLimits2::SupportParameter</title>
<!-- Node0 -->
<g id="node1" class="node">
<title>Node0</title>
<polygon fill="#bfbfbf" stroke="#000000" points="116.1182,-.5 116.1182,-28.5 221.0293,-28.5 221.0293,-.5 116.1182,-.5"/>
<text text-anchor="start" x="124.1182" y="-16.5" font-family="Helvetica,sans-Serif" font-size="10.00" fill="#000000">NoLimits::NoLimits2</text>
<text text-anchor="middle" x="168.5737" y="-6.5" font-family="Helvetica,sans-Serif" font-size="10.00" fill="#000000">::SupportParameter</text>
</g>
<!-- Node1 -->
<g id="node2" class="node">
<title>Node1</title>
<g id="a_node2"><a xlink:href="class_no_limits_1_1_stream_1_1_chunk.html" target="_top" xlink:title="NoLimits::Stream::Chunk">
<polygon fill="none" stroke="#000000" points="0,-75.5 0,-93.5 127.1475,-93.5 127.1475,-75.5 0,-75.5"/>
<text text-anchor="middle" x="63.5737" y="-81.5" font-family="Helvetica,sans-Serif" font-size="10.00" fill="#000000">NoLimits::Stream::Chunk</text>
</a>
</g>
</g>
<!-- Node1&#45;&gt;Node0 -->
<g id="edge1" class="edge">
<title>Node1&#45;&gt;Node0</title>
<path fill="none" stroke="#191970" d="M86.0314,-69.5282C104.1265,-57.4648 129.3984,-40.6169 147.1989,-28.7499"/>
<polygon fill="#191970" stroke="#191970" points="83.6797,-66.8895 77.3006,-75.3487 87.5626,-72.7139 83.6797,-66.8895"/>
</g>
<!-- Node2 -->
<g id="node3" class="node">
<title>Node2</title>
<polygon fill="none" stroke="#bfbfbf" points="145.5591,-75.5 145.5591,-93.5 191.5884,-93.5 191.5884,-75.5 145.5591,-75.5"/>
<text text-anchor="middle" x="168.5737" y="-81.5" font-family="Helvetica,sans-Serif" font-size="10.00" fill="#000000">double</text>
</g>
<!-- Node2&#45;&gt;Node0 -->
<g id="edge2" class="edge">
<title>Node2&#45;&gt;Node0</title>
<path fill="none" stroke="#9a32cd" stroke-dasharray="5,2" d="M168.5737,-65.0243C168.5737,-53.5169 168.5737,-39.2016 168.5737,-28.7499"/>
<polygon fill="#9a32cd" stroke="#9a32cd" points="165.0738,-65.3487 168.5737,-75.3487 172.0738,-65.3488 165.0738,-65.3487"/>
<text text-anchor="middle" x="181.916" y="-49" font-family="Helvetica,sans-Serif" font-size="10.00" fill="#000000"> value</text>
</g>
<!-- Node3 -->
<g id="node4" class="node">
<title>Node3</title>
<polygon fill="none" stroke="#bfbfbf" points="209.7314,-75.5 209.7314,-93.5 247.416,-93.5 247.416,-75.5 209.7314,-75.5"/>
<text text-anchor="middle" x="228.5737" y="-81.5" font-family="Helvetica,sans-Serif" font-size="10.00" fill="#000000">Type</text>
</g>
<!-- Node3&#45;&gt;Node0 -->
<g id="edge3" class="edge">
<title>Node3&#45;&gt;Node0</title>
<path fill="none" stroke="#9a32cd" stroke-dasharray="5,2" d="M215.8189,-67.2388C210.8873,-60.7723 205.1062,-53.4363 199.5737,-47 194.2876,-40.8502 188.1802,-34.3334 182.7913,-28.7627"/>
<polygon fill="#9a32cd" stroke="#9a32cd" points="213.1092,-69.459 221.9142,-75.3516 218.7056,-65.2543 213.1092,-69.459"/>
<text text-anchor="middle" x="217.4136" y="-49" font-family="Helvetica,sans-Serif" font-size="10.00" fill="#000000"> type</text>
</g>
</g>
</svg>
