<?xml version="1.0" encoding="UTF-8" standalone="no"?>
<!DOCTYPE svg PUBLIC "-//W3C//DTD SVG 1.1//EN"
 "http://www.w3.org/Graphics/SVG/1.1/DTD/svg11.dtd">
<!-- Generated by graphviz version 2.40.1 (20161225.0304)
 -->
<!-- Title: NoLimits::NoLimits2::SupportNode Pages: 1 -->
<svg width="113pt" height="122pt"
 viewBox="0.00 0.00 113.47 122.00" xmlns="http://www.w3.org/2000/svg" xmlns:xlink="http://www.w3.org/1999/xlink">
<g id="graph0" class="graph" transform="scale(1 1) rotate(0) translate(4 118)">
<title>NoLimits::NoLimits2::SupportNode</title>
<!-- Node0 -->
<g id="node1" class="node">
<title>Node0</title>
<polygon fill="#bfbfbf" stroke="#000000" points=".5566,-.5 .5566,-28.5 105.4678,-28.5 105.4678,-.5 .5566,-.5"/>
<text text-anchor="start" x="8.5566" y="-16.5" font-family="Helvetica,sans-Serif" font-size="10.00" fill="#000000">NoLimits::NoLimits2</text>
<text text-anchor="middle" x="53.0122" y="-6.5" font-family="Helvetica,sans-Serif" font-size="10.00" fill="#000000">::SupportNode</text>
</g>
<!-- Node1 -->
<g id="node2" class="node">
<title>Node1</title>
<polygon fill="none" stroke="#bfbfbf" points="0,-95.5 0,-113.5 46.0244,-113.5 46.0244,-95.5 0,-95.5"/>
<text text-anchor="middle" x="23.0122" y="-101.5" font-family="Helvetica,sans-Serif" font-size="10.00" fill="#000000">uint8_t</text>
</g>
<!-- Node1&#45;&gt;Node0 -->
<g id="edge1" class="edge">
<title>Node1&#45;&gt;Node0</title>
<path fill="none" stroke="#9a32cd" stroke-dasharray="5,2" d="M26.3517,-85.2624C28.6104,-73.9308 32.0123,-59.4274 36.5493,-47 38.8052,-40.8209 41.9452,-34.2986 44.8786,-28.7317"/>
<polygon fill="#9a32cd" stroke="#9a32cd" points="22.8645,-84.8705 24.4743,-95.3423 29.7462,-86.1523 22.8645,-84.8705"/>
<text text-anchor="middle" x="48.2437" y="-69" font-family="Helvetica,sans-Serif" font-size="10.00" fill="#000000"> flag1</text>
<text text-anchor="middle" x="48.2437" y="-59" font-family="Helvetica,sans-Serif" font-size="10.00" fill="#000000">flag2</text>
<text text-anchor="middle" x="48.2437" y="-49" font-family="Helvetica,sans-Serif" font-size="10.00" fill="#000000">flag3</text>
</g>
<!-- Node2 -->
<g id="node3" class="node">
<title>Node2</title>
<polygon fill="none" stroke="#bfbfbf" points="64.4507,-95.5 64.4507,-113.5 101.5737,-113.5 101.5737,-95.5 64.4507,-95.5"/>
<text text-anchor="middle" x="83.0122" y="-101.5" font-family="Helvetica,sans-Serif" font-size="10.00" fill="#000000">vec3</text>
</g>
<!-- Node2&#45;&gt;Node0 -->
<g id="edge2" class="edge">
<title>Node2&#45;&gt;Node0</title>
<path fill="none" stroke="#9a32cd" stroke-dasharray="5,2" d="M76.6023,-85.2702C70.9322,-68.2599 62.7919,-43.8391 57.7079,-28.5872"/>
<polygon fill="#9a32cd" stroke="#9a32cd" points="73.4319,-86.8274 79.9147,-95.2074 80.0727,-84.6137 73.4319,-86.8274"/>
<text text-anchor="middle" x="85.2388" y="-59" font-family="Helvetica,sans-Serif" font-size="10.00" fill="#000000"> color</text>
</g>
</g>
</svg>
