<?xml version="1.0" encoding="UTF-8" standalone="no"?>
<!DOCTYPE svg PUBLIC "-//W3C//DTD SVG 1.1//EN"
 "http://www.w3.org/Graphics/SVG/1.1/DTD/svg11.dtd">
<!-- Generated by graphviz version 2.40.1 (20161225.0304)
 -->
<!-- Title: NoLimits::NoLimits2::Brake Pages: 1 -->
<svg width="574pt" height="441pt"
 viewBox="0.00 0.00 574.47 441.00" xmlns="http://www.w3.org/2000/svg" xmlns:xlink="http://www.w3.org/1999/xlink">
<g id="graph0" class="graph" transform="scale(1 1) rotate(0) translate(4 437)">
<title>NoLimits::NoLimits2::Brake</title>
<!-- Node0 -->
<g id="node1" class="node">
<title>Node0</title>
<polygon fill="#bfbfbf" stroke="#000000" points="461.5586,-144.5 461.5586,-172.5 566.4697,-172.5 566.4697,-144.5 461.5586,-144.5"/>
<text text-anchor="start" x="469.5586" y="-160.5" font-family="Helvetica,sans-Serif" font-size="10.00" fill="#000000">NoLimits::NoLimits2</text>
<text text-anchor="middle" x="514.0142" y="-150.5" font-family="Helvetica,sans-Serif" font-size="10.00" fill="#000000">::Brake</text>
</g>
<!-- Node1 -->
<g id="node2" class="node">
<title>Node1</title>
<g id="a_node2"><a xlink:href="class_no_limits_1_1_no_limits2_1_1_section.html" target="_top" xlink:title="NoLimits::NoLimits2\l::Section">
<polygon fill="none" stroke="#000000" points="247.6445,-372.5 247.6445,-400.5 352.5557,-400.5 352.5557,-372.5 247.6445,-372.5"/>
<text text-anchor="start" x="255.6445" y="-388.5" font-family="Helvetica,sans-Serif" font-size="10.00" fill="#000000">NoLimits::NoLimits2</text>
<text text-anchor="middle" x="300.1001" y="-378.5" font-family="Helvetica,sans-Serif" font-size="10.00" fill="#000000">::Section</text>
</a>
</g>
</g>
<!-- Node1&#45;&gt;Node0 -->
<g id="edge1" class="edge">
<title>Node1&#45;&gt;Node0</title>
<path fill="none" stroke="#191970" d="M362.4763,-373.4684C390.2376,-364.9507 421.5533,-351.2293 443.5586,-329.5 489.4813,-284.1534 506.7248,-204.5987 512.0144,-172.5082"/>
<polygon fill="#191970" stroke="#191970" points="361.4544,-370.1205 352.826,-376.2688 363.4053,-376.8432 361.4544,-370.1205"/>
</g>
<!-- Node1&#45;&gt;Node1 -->
<g id="edge3" class="edge">
<title>Node1&#45;&gt;Node1</title>
<path fill="none" stroke="#9a32cd" stroke-dasharray="5,2" d="M280.9385,-410.4873C282.9731,-415.4413 289.3604,-419 300.1001,-419 317.2837,-419 323.3248,-409.8898 318.2234,-400.5305"/>
<polygon fill="#9a32cd" stroke="#9a32cd" points="284.4206,-410.8396 281.9768,-400.5305 277.4584,-410.1135 284.4206,-410.8396"/>
<text text-anchor="middle" x="300.1001" y="-421" font-family="Helvetica,sans-Serif" font-size="10.00" fill="#000000"> section</text>
</g>
<!-- Node2 -->
<g id="node3" class="node">
<title>Node2</title>
<g id="a_node3"><a xlink:href="class_no_limits_1_1_stream_1_1_chunk.html" target="_top" xlink:title="NoLimits::Stream::Chunk">
<polygon fill="none" stroke="#000000" points="0,-340.5 0,-358.5 127.1475,-358.5 127.1475,-340.5 0,-340.5"/>
<text text-anchor="middle" x="63.5737" y="-346.5" font-family="Helvetica,sans-Serif" font-size="10.00" fill="#000000">NoLimits::Stream::Chunk</text>
</a>
</g>
</g>
<!-- Node2&#45;&gt;Node1 -->
<g id="edge2" class="edge">
<title>Node2&#45;&gt;Node1</title>
<path fill="none" stroke="#191970" d="M131.3198,-360.0976C168.2567,-365.8756 213.2897,-372.9202 247.5464,-378.279"/>
<polygon fill="#191970" stroke="#191970" points="131.5529,-356.5916 121.1321,-358.5039 130.471,-363.5074 131.5529,-356.5916"/>
</g>
<!-- Node3 -->
<g id="node4" class="node">
<title>Node3</title>
<polygon fill="none" stroke="#bfbfbf" points="43.3472,-414.5 43.3472,-432.5 83.8003,-432.5 83.8003,-414.5 43.3472,-414.5"/>
<text text-anchor="middle" x="63.5737" y="-420.5" font-family="Helvetica,sans-Serif" font-size="10.00" fill="#000000">string</text>
</g>
<!-- Node3&#45;&gt;Node1 -->
<g id="edge4" class="edge">
<title>Node3&#45;&gt;Node1</title>
<path fill="none" stroke="#9a32cd" stroke-dasharray="5,2" d="M93.8512,-419.8473C127.2019,-415.6981 182.3778,-408.4622 229.6445,-400.5 235.4245,-399.5264 241.4569,-398.4383 247.4543,-397.3107"/>
<polygon fill="#9a32cd" stroke="#9a32cd" points="93.3242,-416.3857 83.8276,-421.083 94.1808,-423.3331 93.3242,-416.3857"/>
<text text-anchor="middle" x="187.396" y="-414.5" font-family="Helvetica,sans-Serif" font-size="10.00" fill="#000000"> name</text>
</g>
<!-- Node4 -->
<g id="node5" class="node">
<title>Node4</title>
<polygon fill="none" stroke="#bfbfbf" points="28.0542,-377.5 28.0542,-395.5 99.0933,-395.5 99.0933,-377.5 28.0542,-377.5"/>
<text text-anchor="middle" x="63.5737" y="-383.5" font-family="Helvetica,sans-Serif" font-size="10.00" fill="#000000">SectionType</text>
</g>
<!-- Node4&#45;&gt;Node1 -->
<g id="edge5" class="edge">
<title>Node4&#45;&gt;Node1</title>
<path fill="none" stroke="#9a32cd" stroke-dasharray="5,2" d="M109.3953,-386.5C148.9343,-386.5 206.0456,-386.5 247.454,-386.5"/>
<polygon fill="#9a32cd" stroke="#9a32cd" points="109.2402,-383.0001 99.2402,-386.5 109.2402,-390.0001 109.2402,-383.0001"/>
<text text-anchor="middle" x="187.396" y="-388.5" font-family="Helvetica,sans-Serif" font-size="10.00" fill="#000000"> _sectionType</text>
</g>
<!-- Node5 -->
<g id="node6" class="node">
<title>Node5</title>
<polygon fill="none" stroke="#bfbfbf" points="268.1963,-335.5 268.1963,-353.5 332.0039,-353.5 332.0039,-335.5 268.1963,-335.5"/>
<text text-anchor="middle" x="300.1001" y="-341.5" font-family="Helvetica,sans-Serif" font-size="10.00" fill="#000000">BrakeType</text>
</g>
<!-- Node5&#45;&gt;Node0 -->
<g id="edge6" class="edge">
<title>Node5&#45;&gt;Node0</title>
<path fill="none" stroke="#9a32cd" stroke-dasharray="5,2" d="M337.6354,-331.8327C368.833,-319.8486 412.92,-299.379 443.5586,-270.5 474.484,-241.3506 497.5067,-195.8412 507.8983,-172.8399"/>
<polygon fill="#9a32cd" stroke="#9a32cd" points="336.1414,-328.6542 327.9926,-335.4253 338.5853,-335.2137 336.1414,-328.6542"/>
<text text-anchor="middle" x="407.0571" y="-317.5" font-family="Helvetica,sans-Serif" font-size="10.00" fill="#000000"> brakeType</text>
</g>
<!-- Node6 -->
<g id="node7" class="node">
<title>Node6</title>
<polygon fill="none" stroke="#bfbfbf" points="40.5591,-217.5 40.5591,-235.5 86.5884,-235.5 86.5884,-217.5 40.5591,-217.5"/>
<text text-anchor="middle" x="63.5737" y="-223.5" font-family="Helvetica,sans-Serif" font-size="10.00" fill="#000000">double</text>
</g>
<!-- Node6&#45;&gt;Node0 -->
<g id="edge7" class="edge">
<title>Node6&#45;&gt;Node0</title>
<path fill="none" stroke="#9a32cd" stroke-dasharray="5,2" d="M96.7558,-234.5213C111.4814,-237.6879 129.0807,-240.9392 145.1475,-242.5 182.5258,-246.1311 192.4769,-247.8747 229.6445,-242.5 321.6068,-229.2016 425.2581,-192.8967 478.3973,-172.6391"/>
<polygon fill="#9a32cd" stroke="#9a32cd" points="97.1265,-231.018 86.6042,-232.2558 95.6018,-237.8499 97.1265,-231.018"/>
<text text-anchor="middle" x="300.1001" y="-290.5" font-family="Helvetica,sans-Serif" font-size="10.00" fill="#000000"> speedLimit</text>
<text text-anchor="middle" x="300.1001" y="-280.5" font-family="Helvetica,sans-Serif" font-size="10.00" fill="#000000">deceleration</text>
<text text-anchor="middle" x="300.1001" y="-270.5" font-family="Helvetica,sans-Serif" font-size="10.00" fill="#000000">hysteresis</text>
<text text-anchor="middle" x="300.1001" y="-260.5" font-family="Helvetica,sans-Serif" font-size="10.00" fill="#000000">positionOnSection</text>
<text text-anchor="middle" x="300.1001" y="-250.5" font-family="Helvetica,sans-Serif" font-size="10.00" fill="#000000">waitTime</text>
<text text-anchor="middle" x="300.1001" y="-240.5" font-family="Helvetica,sans-Serif" font-size="10.00" fill="#000000">extraBlockLength</text>
</g>
<!-- Node8 -->
<g id="node9" class="node">
<title>Node8</title>
<g id="a_node9"><a xlink:href="class_no_limits_1_1_no_limits2_1_1_transport_device.html" target="_top" xlink:title="NoLimits::NoLimits2\l::TransportDevice">
<polygon fill="none" stroke="#000000" points="247.6445,-144.5 247.6445,-172.5 352.5557,-172.5 352.5557,-144.5 247.6445,-144.5"/>
<text text-anchor="start" x="255.6445" y="-160.5" font-family="Helvetica,sans-Serif" font-size="10.00" fill="#000000">NoLimits::NoLimits2</text>
<text text-anchor="middle" x="300.1001" y="-150.5" font-family="Helvetica,sans-Serif" font-size="10.00" fill="#000000">::TransportDevice</text>
</a>
</g>
</g>
<!-- Node6&#45;&gt;Node8 -->
<g id="edge10" class="edge">
<title>Node6&#45;&gt;Node8</title>
<path fill="none" stroke="#9a32cd" stroke-dasharray="5,2" d="M92.1576,-213.1077C107.5999,-206.252 127.1423,-198.1774 145.1475,-192.5 178.6374,-181.9399 217.2043,-173.465 247.4839,-167.6176"/>
<polygon fill="#9a32cd" stroke="#9a32cd" points="90.3311,-210.0923 82.6594,-217.3994 93.2135,-216.4713 90.3311,-210.0923"/>
<text text-anchor="middle" x="187.396" y="-234.5" font-family="Helvetica,sans-Serif" font-size="10.00" fill="#000000"> speed</text>
<text text-anchor="middle" x="187.396" y="-224.5" font-family="Helvetica,sans-Serif" font-size="10.00" fill="#000000">deceleration</text>
<text text-anchor="middle" x="187.396" y="-214.5" font-family="Helvetica,sans-Serif" font-size="10.00" fill="#000000">acceleration</text>
<text text-anchor="middle" x="187.396" y="-204.5" font-family="Helvetica,sans-Serif" font-size="10.00" fill="#000000">launchAcceleration</text>
<text text-anchor="middle" x="187.396" y="-194.5" font-family="Helvetica,sans-Serif" font-size="10.00" fill="#000000">launchMaxSpeed</text>
</g>
<!-- Node7 -->
<g id="node8" class="node">
<title>Node7</title>
<polygon fill="none" stroke="#bfbfbf" points="266.5313,-37.5 266.5313,-55.5 333.6689,-55.5 333.6689,-37.5 266.5313,-37.5"/>
<text text-anchor="middle" x="300.1001" y="-43.5" font-family="Helvetica,sans-Serif" font-size="10.00" fill="#000000">BrakeMode</text>
</g>
<!-- Node7&#45;&gt;Node0 -->
<g id="edge8" class="edge">
<title>Node7&#45;&gt;Node0</title>
<path fill="none" stroke="#9a32cd" stroke-dasharray="5,2" d="M343.8878,-45.0085C373.8314,-45.8717 413.4044,-50.8569 443.5586,-68.5 474.3874,-86.5378 496.6954,-123.7046 507.2236,-144.1826"/>
<polygon fill="#9a32cd" stroke="#9a32cd" points="343.779,-41.5066 333.7292,-44.8611 343.6774,-48.5059 343.779,-41.5066"/>
<text text-anchor="middle" x="407.0571" y="-70.5" font-family="Helvetica,sans-Serif" font-size="10.00" fill="#000000"> mode</text>
</g>
<!-- Node8&#45;&gt;Node0 -->
<g id="edge9" class="edge">
<title>Node8&#45;&gt;Node0</title>
<path fill="none" stroke="#9a32cd" stroke-dasharray="5,2" d="M363.0389,-158.5C394.2586,-158.5 431.5395,-158.5 461.2432,-158.5"/>
<polygon fill="#9a32cd" stroke="#9a32cd" points="362.7034,-155.0001 352.7033,-158.5 362.7033,-162.0001 362.7034,-155.0001"/>
<text text-anchor="middle" x="407.0571" y="-160.5" font-family="Helvetica,sans-Serif" font-size="10.00" fill="#000000"> transportDevice</text>
</g>
<!-- Node9 -->
<g id="node10" class="node">
<title>Node9</title>
<polygon fill="none" stroke="#bfbfbf" points="46.1206,-98.5 46.1206,-116.5 81.0269,-116.5 81.0269,-98.5 46.1206,-98.5"/>
<text text-anchor="middle" x="63.5737" y="-104.5" font-family="Helvetica,sans-Serif" font-size="10.00" fill="#000000">bool</text>
</g>
<!-- Node9&#45;&gt;Node0 -->
<g id="edge14" class="edge">
<title>Node9&#45;&gt;Node0</title>
<path fill="none" stroke="#9a32cd" stroke-dasharray="5,2" d="M91.341,-106.1377C143.0534,-104.0715 257.4932,-101.7177 352.5557,-115.5 393.895,-121.4935 439.8141,-134.3497 472.0807,-144.4518"/>
<polygon fill="#9a32cd" stroke="#9a32cd" points="91.1288,-102.6435 81.2878,-106.5683 91.4284,-109.637 91.1288,-102.6435"/>
<text text-anchor="middle" x="300.1001" y="-127.5" font-family="Helvetica,sans-Serif" font-size="10.00" fill="#000000"> completeStop</text>
<text text-anchor="middle" x="300.1001" y="-117.5" font-family="Helvetica,sans-Serif" font-size="10.00" fill="#000000">enableTransport</text>
</g>
<!-- Node9&#45;&gt;Node8 -->
<g id="edge11" class="edge">
<title>Node9&#45;&gt;Node8</title>
<path fill="none" stroke="#9a32cd" stroke-dasharray="5,2" d="M91.2468,-113.4669C129.4391,-121.7019 199.0542,-136.7124 247.3593,-147.128"/>
<polygon fill="#9a32cd" stroke="#9a32cd" points="91.8647,-110.0198 81.3517,-111.3333 90.3892,-116.8625 91.8647,-110.0198"/>
<text text-anchor="middle" x="187.396" y="-143.5" font-family="Helvetica,sans-Serif" font-size="10.00" fill="#000000"> launch</text>
</g>
<!-- Node10 -->
<g id="node11" class="node">
<title>Node10</title>
<polygon fill="none" stroke="#bfbfbf" points="23.5181,-149.5 23.5181,-167.5 103.6294,-167.5 103.6294,-149.5 23.5181,-149.5"/>
<text text-anchor="middle" x="63.5737" y="-155.5" font-family="Helvetica,sans-Serif" font-size="10.00" fill="#000000">TransportType</text>
</g>
<!-- Node10&#45;&gt;Node8 -->
<g id="edge12" class="edge">
<title>Node10&#45;&gt;Node8</title>
<path fill="none" stroke="#9a32cd" stroke-dasharray="5,2" d="M113.8325,-158.5C153.0694,-158.5 207.4339,-158.5 247.3042,-158.5"/>
<polygon fill="#9a32cd" stroke="#9a32cd" points="113.6972,-155.0001 103.6972,-158.5 113.6972,-162.0001 113.6972,-155.0001"/>
<text text-anchor="middle" x="187.396" y="-160.5" font-family="Helvetica,sans-Serif" font-size="10.00" fill="#000000"> transportType</text>
</g>
<!-- Node11 -->
<g id="node12" class="node">
<title>Node11</title>
<polygon fill="none" stroke="#bfbfbf" points="274.312,-.5 274.312,-18.5 325.8882,-18.5 325.8882,-.5 274.312,-.5"/>
<text text-anchor="middle" x="300.1001" y="-6.5" font-family="Helvetica,sans-Serif" font-size="10.00" fill="#000000">Position</text>
</g>
<!-- Node11&#45;&gt;Node0 -->
<g id="edge13" class="edge">
<title>Node11&#45;&gt;Node0</title>
<path fill="none" stroke="#9a32cd" stroke-dasharray="5,2" d="M336.2888,-6.93C367.4083,-6.5432 412.1173,-10.5272 443.5586,-32.5 483.2069,-60.2083 503.1181,-117.7529 510.517,-144.3975"/>
<polygon fill="#9a32cd" stroke="#9a32cd" points="335.7883,-3.4427 325.8922,-7.2267 335.9881,-10.4399 335.7883,-3.4427"/>
<text text-anchor="middle" x="407.0571" y="-34.5" font-family="Helvetica,sans-Serif" font-size="10.00" fill="#000000"> positionOnTrain</text>
</g>
</g>
</svg>
