<?xml version="1.0" encoding="UTF-8" standalone="no"?>
<!DOCTYPE svg PUBLIC "-//W3C//DTD SVG 1.1//EN"
 "http://www.w3.org/Graphics/SVG/1.1/DTD/svg11.dtd">
<!-- Generated by graphviz version 2.40.1 (20161225.0304)
 -->
<!-- Title: NoLimits::NoLimits1::Brake Pages: 1 -->
<svg width="603pt" height="475pt"
 viewBox="0.00 0.00 602.80 475.00" xmlns="http://www.w3.org/2000/svg" xmlns:xlink="http://www.w3.org/1999/xlink">
<g id="graph0" class="graph" transform="scale(1 1) rotate(0) translate(4 471)">
<title>NoLimits::NoLimits1::Brake</title>
<!-- Node0 -->
<g id="node1" class="node">
<title>Node0</title>
<polygon fill="#bfbfbf" stroke="#000000" points="489.8936,-174.5 489.8936,-202.5 594.8047,-202.5 594.8047,-174.5 489.8936,-174.5"/>
<text text-anchor="start" x="497.8936" y="-190.5" font-family="Helvetica,sans-Serif" font-size="10.00" fill="#000000">NoLimits::NoLimits1</text>
<text text-anchor="middle" x="542.3491" y="-180.5" font-family="Helvetica,sans-Serif" font-size="10.00" fill="#000000">::Brake</text>
</g>
<!-- Node1 -->
<g id="node2" class="node">
<title>Node1</title>
<g id="a_node2"><a xlink:href="class_no_limits_1_1_no_limits1_1_1_section.html" target="_top" xlink:title="NoLimits::NoLimits1\l::Section">
<polygon fill="none" stroke="#000000" points="272.8301,-325.5 272.8301,-353.5 377.7412,-353.5 377.7412,-325.5 272.8301,-325.5"/>
<text text-anchor="start" x="280.8301" y="-341.5" font-family="Helvetica,sans-Serif" font-size="10.00" fill="#000000">NoLimits::NoLimits1</text>
<text text-anchor="middle" x="325.2856" y="-331.5" font-family="Helvetica,sans-Serif" font-size="10.00" fill="#000000">::Section</text>
</a>
</g>
</g>
<!-- Node1&#45;&gt;Node0 -->
<g id="edge1" class="edge">
<title>Node1&#45;&gt;Node0</title>
<path fill="none" stroke="#191970" d="M359.1414,-321.251C390.3755,-307.7948 437.047,-288.0143 471.8936,-261.5 494.4484,-244.3383 514.9082,-218.893 527.8972,-202.7539"/>
<polygon fill="#191970" stroke="#191970" points="357.3595,-318.2087 349.5774,-325.3982 360.1444,-324.6309 357.3595,-318.2087"/>
</g>
<!-- Node1&#45;&gt;Node0 -->
<g id="edge7" class="edge">
<title>Node1&#45;&gt;Node0</title>
<path fill="none" stroke="#191970" d="M387.2966,-325.38C414.7285,-314.6163 446.4605,-298.8516 471.8936,-279.5 500.4232,-257.7922 525.6008,-222.8307 536.547,-202.7385"/>
<polygon fill="#191970" stroke="#191970" points="385.905,-322.1643 377.7904,-328.9763 388.3819,-328.7114 385.905,-322.1643"/>
</g>
<!-- Node2 -->
<g id="node3" class="node">
<title>Node2</title>
<g id="a_node3"><a xlink:href="class_no_limits_1_1_stream_1_1_chunk.html" target="_top" xlink:title="NoLimits::Stream::Chunk">
<polygon fill="none" stroke="#000000" points="0,-448.5 0,-466.5 127.1475,-466.5 127.1475,-448.5 0,-448.5"/>
<text text-anchor="middle" x="63.5737" y="-454.5" font-family="Helvetica,sans-Serif" font-size="10.00" fill="#000000">NoLimits::Stream::Chunk</text>
</a>
</g>
</g>
<!-- Node2&#45;&gt;Node1 -->
<g id="edge2" class="edge">
<title>Node2&#45;&gt;Node1</title>
<path fill="none" stroke="#191970" d="M137.8177,-465.1735C175.2107,-465.6358 219.8976,-460.7417 254.8301,-440.5 289.237,-420.5628 310.8394,-376.2796 320.0806,-353.553"/>
<polygon fill="#191970" stroke="#191970" points="137.5646,-461.666 127.4785,-464.9094 137.3858,-468.6637 137.5646,-461.666"/>
</g>
<!-- Node3 -->
<g id="node4" class="node">
<title>Node3</title>
<polygon fill="none" stroke="#bfbfbf" points="37.7808,-411.5 37.7808,-429.5 89.3667,-429.5 89.3667,-411.5 37.7808,-411.5"/>
<text text-anchor="middle" x="63.5737" y="-417.5" font-family="Helvetica,sans-Serif" font-size="10.00" fill="#000000">uint32_t</text>
</g>
<!-- Node3&#45;&gt;Node1 -->
<g id="edge3" class="edge">
<title>Node3&#45;&gt;Node1</title>
<path fill="none" stroke="#9a32cd" stroke-dasharray="5,2" d="M99.6051,-420.4787C139.1384,-419.2776 203.7624,-413.7999 254.8301,-392.5 276.5854,-383.4261 297.6626,-366.0897 311.0048,-353.7153"/>
<polygon fill="#9a32cd" stroke="#9a32cd" points="99.3119,-416.9843 89.3938,-420.71 99.4706,-423.9825 99.3119,-416.9843"/>
<text text-anchor="middle" x="199.9888" y="-428.5" font-family="Helvetica,sans-Serif" font-size="10.00" fill="#000000"> flags1</text>
<text text-anchor="middle" x="199.9888" y="-418.5" font-family="Helvetica,sans-Serif" font-size="10.00" fill="#000000">flags2</text>
</g>
<!-- Node4 -->
<g id="node5" class="node">
<title>Node4</title>
<polygon fill="none" stroke="#bfbfbf" points="46.1206,-247.5 46.1206,-265.5 81.0269,-265.5 81.0269,-247.5 46.1206,-247.5"/>
<text text-anchor="middle" x="63.5737" y="-253.5" font-family="Helvetica,sans-Serif" font-size="10.00" fill="#000000">bool</text>
</g>
<!-- Node4&#45;&gt;Node0 -->
<g id="edge15" class="edge">
<title>Node4&#45;&gt;Node0</title>
<path fill="none" stroke="#9a32cd" stroke-dasharray="5,2" d="M91.1213,-255.4287C128.3721,-253.7646 196.8233,-249.9451 254.8301,-242.5 352.1289,-230.0117 375.547,-220.9487 471.8936,-202.5 477.6503,-201.3977 483.6681,-200.2282 489.657,-199.0534"/>
<polygon fill="#9a32cd" stroke="#9a32cd" points="90.8833,-251.9356 81.0421,-255.8599 91.1826,-258.9292 90.8833,-251.9356"/>
<text text-anchor="middle" x="325.2856" y="-281.5" font-family="Helvetica,sans-Serif" font-size="10.00" fill="#000000"> completeStop</text>
<text text-anchor="middle" x="325.2856" y="-271.5" font-family="Helvetica,sans-Serif" font-size="10.00" fill="#000000">enableTransport</text>
<text text-anchor="middle" x="325.2856" y="-261.5" font-family="Helvetica,sans-Serif" font-size="10.00" fill="#000000">railingRight</text>
<text text-anchor="middle" x="325.2856" y="-251.5" font-family="Helvetica,sans-Serif" font-size="10.00" fill="#000000">blockSegment</text>
<text text-anchor="middle" x="325.2856" y="-241.5" font-family="Helvetica,sans-Serif" font-size="10.00" fill="#000000">railingLeft</text>
</g>
<!-- Node4&#45;&gt;Node1 -->
<g id="edge4" class="edge">
<title>Node4&#45;&gt;Node1</title>
<path fill="none" stroke="#9a32cd" stroke-dasharray="5,2" d="M91.2163,-262.0651C128.8374,-270.0123 197.987,-285.952 254.8301,-306.5 269.5651,-311.8265 285.4127,-319.1015 298.339,-325.4655"/>
<polygon fill="#9a32cd" stroke="#9a32cd" points="91.5422,-258.5581 81.0391,-259.9485 90.1169,-265.4114 91.5422,-258.5581"/>
<text text-anchor="middle" x="199.9888" y="-318.5" font-family="Helvetica,sans-Serif" font-size="10.00" fill="#000000"> useIndividualTrackColor</text>
<text text-anchor="middle" x="199.9888" y="-308.5" font-family="Helvetica,sans-Serif" font-size="10.00" fill="#000000">useTunnel</text>
</g>
<!-- Node9 -->
<g id="node10" class="node">
<title>Node9</title>
<g id="a_node10"><a xlink:href="class_no_limits_1_1_no_limits1_1_1_transport_device.html" target="_top" xlink:title="NoLimits::NoLimits1\l::TransportDevice">
<polygon fill="none" stroke="#000000" points="272.8301,-174.5 272.8301,-202.5 377.7412,-202.5 377.7412,-174.5 272.8301,-174.5"/>
<text text-anchor="start" x="280.8301" y="-190.5" font-family="Helvetica,sans-Serif" font-size="10.00" fill="#000000">NoLimits::NoLimits1</text>
<text text-anchor="middle" x="325.2856" y="-180.5" font-family="Helvetica,sans-Serif" font-size="10.00" fill="#000000">::TransportDevice</text>
</a>
</g>
</g>
<!-- Node4&#45;&gt;Node9 -->
<g id="edge12" class="edge">
<title>Node4&#45;&gt;Node9</title>
<path fill="none" stroke="#9a32cd" stroke-dasharray="5,2" d="M90.422,-243.6442C106.0885,-236.5673 126.4014,-228.1089 145.1475,-222.5 168.4728,-215.5209 228.2611,-204.7395 272.5962,-197.1935"/>
<polygon fill="#9a32cd" stroke="#9a32cd" points="88.9425,-240.4721 81.3234,-247.8341 91.8706,-246.8303 88.9425,-240.4721"/>
<text text-anchor="middle" x="199.9888" y="-234.5" font-family="Helvetica,sans-Serif" font-size="10.00" fill="#000000"> hideTransportDevice</text>
<text text-anchor="middle" x="199.9888" y="-224.5" font-family="Helvetica,sans-Serif" font-size="10.00" fill="#000000">enableLaunch</text>
</g>
<!-- Node5 -->
<g id="node6" class="node">
<title>Node5</title>
<polygon fill="none" stroke="#bfbfbf" points="28.0542,-374.5 28.0542,-392.5 99.0933,-392.5 99.0933,-374.5 28.0542,-374.5"/>
<text text-anchor="middle" x="63.5737" y="-380.5" font-family="Helvetica,sans-Serif" font-size="10.00" fill="#000000">SectionType</text>
</g>
<!-- Node5&#45;&gt;Node1 -->
<g id="edge5" class="edge">
<title>Node5&#45;&gt;Node1</title>
<path fill="none" stroke="#9a32cd" stroke-dasharray="5,2" d="M109.2071,-381.6047C148.245,-379.3014 205.7402,-374.2844 254.8301,-363.5 266.1891,-361.0046 278.2693,-357.2974 289.1597,-353.539"/>
<polygon fill="#9a32cd" stroke="#9a32cd" points="108.9938,-378.1111 99.2029,-382.1594 109.3814,-385.1003 108.9938,-378.1111"/>
<text text-anchor="middle" x="199.9888" y="-380.5" font-family="Helvetica,sans-Serif" font-size="10.00" fill="#000000"> sectionType</text>
</g>
<!-- Node6 -->
<g id="node7" class="node">
<title>Node6</title>
<polygon fill="none" stroke="#bfbfbf" points="45.0122,-323.5 45.0122,-341.5 82.1353,-341.5 82.1353,-323.5 45.0122,-323.5"/>
<text text-anchor="middle" x="63.5737" y="-329.5" font-family="Helvetica,sans-Serif" font-size="10.00" fill="#000000">vec3</text>
</g>
<!-- Node6&#45;&gt;Node1 -->
<g id="edge6" class="edge">
<title>Node6&#45;&gt;Node1</title>
<path fill="none" stroke="#9a32cd" stroke-dasharray="5,2" d="M92.5039,-331.9344C129.9772,-331.3663 197.3167,-330.9049 254.8301,-333.5 260.594,-333.7601 266.6163,-334.1269 272.6078,-334.5525"/>
<polygon fill="#9a32cd" stroke="#9a32cd" points="92.2586,-328.4379 82.3179,-332.1029 92.3745,-335.4369 92.2586,-328.4379"/>
<text text-anchor="middle" x="199.9888" y="-355.5" font-family="Helvetica,sans-Serif" font-size="10.00" fill="#000000"> trackRailColor</text>
<text text-anchor="middle" x="199.9888" y="-345.5" font-family="Helvetica,sans-Serif" font-size="10.00" fill="#000000">trackSpineColor</text>
<text text-anchor="middle" x="199.9888" y="-335.5" font-family="Helvetica,sans-Serif" font-size="10.00" fill="#000000">trackCrosstieColor</text>
</g>
<!-- Node7 -->
<g id="node8" class="node">
<title>Node7</title>
<polygon fill="none" stroke="#bfbfbf" points="279.1167,-37.5 279.1167,-55.5 371.4546,-55.5 371.4546,-37.5 279.1167,-37.5"/>
<text text-anchor="middle" x="325.2856" y="-43.5" font-family="Helvetica,sans-Serif" font-size="10.00" fill="#000000">TriggerBehaviour</text>
</g>
<!-- Node7&#45;&gt;Node0 -->
<g id="edge8" class="edge">
<title>Node7&#45;&gt;Node0</title>
<path fill="none" stroke="#9a32cd" stroke-dasharray="5,2" d="M381.6467,-43.7883C410.7984,-44.9998 445.6667,-50.7712 471.8936,-68.5 510.122,-94.3416 530.5259,-148.4214 538.4228,-174.2178"/>
<polygon fill="#9a32cd" stroke="#9a32cd" points="381.6815,-40.2882 371.5974,-43.5379 381.507,-47.286 381.6815,-40.2882"/>
<text text-anchor="middle" x="433.8174" y="-70.5" font-family="Helvetica,sans-Serif" font-size="10.00" fill="#000000"> triggerBehaviour</text>
</g>
<!-- Node8 -->
<g id="node9" class="node">
<title>Node8</title>
<polygon fill="none" stroke="#bfbfbf" points="46.123,-100.5 46.123,-118.5 81.0244,-118.5 81.0244,-100.5 46.123,-100.5"/>
<text text-anchor="middle" x="63.5737" y="-106.5" font-family="Helvetica,sans-Serif" font-size="10.00" fill="#000000">float</text>
</g>
<!-- Node8&#45;&gt;Node0 -->
<g id="edge9" class="edge">
<title>Node8&#45;&gt;Node0</title>
<path fill="none" stroke="#9a32cd" stroke-dasharray="5,2" d="M91.3287,-107.6097C146.6725,-104.5591 274.3329,-101.1321 377.7412,-125.5 426.5862,-137.0102 480.4037,-159.6282 512.7767,-174.3983"/>
<polygon fill="#9a32cd" stroke="#9a32cd" points="91.0283,-104.1212 81.2528,-108.2064 91.4423,-111.109 91.0283,-104.1212"/>
<text text-anchor="middle" x="325.2856" y="-157.5" font-family="Helvetica,sans-Serif" font-size="10.00" fill="#000000"> speedLimit</text>
<text text-anchor="middle" x="325.2856" y="-147.5" font-family="Helvetica,sans-Serif" font-size="10.00" fill="#000000">deceleration</text>
<text text-anchor="middle" x="325.2856" y="-137.5" font-family="Helvetica,sans-Serif" font-size="10.00" fill="#000000">hysteresis</text>
<text text-anchor="middle" x="325.2856" y="-127.5" font-family="Helvetica,sans-Serif" font-size="10.00" fill="#000000">triggerPosition</text>
</g>
<!-- Node8&#45;&gt;Node9 -->
<g id="edge11" class="edge">
<title>Node8&#45;&gt;Node9</title>
<path fill="none" stroke="#9a32cd" stroke-dasharray="5,2" d="M91.3333,-111.2987C129.3567,-114.488 199.2529,-122.9679 254.8301,-144.5 273.9252,-151.898 293.5143,-164.6267 307.1742,-174.4961"/>
<polygon fill="#9a32cd" stroke="#9a32cd" points="91.2899,-107.785 81.0493,-110.5015 90.7488,-114.764 91.2899,-107.785"/>
<text text-anchor="middle" x="199.9888" y="-176.5" font-family="Helvetica,sans-Serif" font-size="10.00" fill="#000000"> speed</text>
<text text-anchor="middle" x="199.9888" y="-166.5" font-family="Helvetica,sans-Serif" font-size="10.00" fill="#000000">deceleration</text>
<text text-anchor="middle" x="199.9888" y="-156.5" font-family="Helvetica,sans-Serif" font-size="10.00" fill="#000000">acceleration</text>
<text text-anchor="middle" x="199.9888" y="-146.5" font-family="Helvetica,sans-Serif" font-size="10.00" fill="#000000">launchAcceleration</text>
</g>
<!-- Node9&#45;&gt;Node0 -->
<g id="edge10" class="edge">
<title>Node9&#45;&gt;Node0</title>
<path fill="none" stroke="#9a32cd" stroke-dasharray="5,2" d="M388.0236,-188.5C420.1864,-188.5 458.9195,-188.5 489.5357,-188.5"/>
<polygon fill="#9a32cd" stroke="#9a32cd" points="387.8307,-185.0001 377.8307,-188.5 387.8306,-192.0001 387.8307,-185.0001"/>
<text text-anchor="middle" x="433.8174" y="-190.5" font-family="Helvetica,sans-Serif" font-size="10.00" fill="#000000"> transportDevice</text>
</g>
<!-- Node10 -->
<g id="node11" class="node">
<title>Node10</title>
<polygon fill="none" stroke="#bfbfbf" points="23.5181,-179.5 23.5181,-197.5 103.6294,-197.5 103.6294,-179.5 23.5181,-179.5"/>
<text text-anchor="middle" x="63.5737" y="-185.5" font-family="Helvetica,sans-Serif" font-size="10.00" fill="#000000">TransportType</text>
</g>
<!-- Node10&#45;&gt;Node9 -->
<g id="edge13" class="edge">
<title>Node10&#45;&gt;Node9</title>
<path fill="none" stroke="#9a32cd" stroke-dasharray="5,2" d="M114.1408,-188.5C159.7309,-188.5 226.5142,-188.5 272.7128,-188.5"/>
<polygon fill="#9a32cd" stroke="#9a32cd" points="113.8927,-185.0001 103.8927,-188.5 113.8926,-192.0001 113.8927,-185.0001"/>
<text text-anchor="middle" x="199.9888" y="-190.5" font-family="Helvetica,sans-Serif" font-size="10.00" fill="#000000"> transportStyle</text>
</g>
<!-- Node11 -->
<g id="node12" class="node">
<title>Node11</title>
<polygon fill="none" stroke="#bfbfbf" points="302.2734,-.5 302.2734,-18.5 348.2979,-18.5 348.2979,-.5 302.2734,-.5"/>
<text text-anchor="middle" x="325.2856" y="-6.5" font-family="Helvetica,sans-Serif" font-size="10.00" fill="#000000">uint8_t</text>
</g>
<!-- Node11&#45;&gt;Node0 -->
<g id="edge14" class="edge">
<title>Node11&#45;&gt;Node0</title>
<path fill="none" stroke="#9a32cd" stroke-dasharray="5,2" d="M358.6873,-5.6331C390.8752,-3.7399 439.3558,-5.9283 471.8936,-30.5 519.8289,-66.6996 535.868,-142.7729 540.5912,-174.3227"/>
<polygon fill="#9a32cd" stroke="#9a32cd" points="358.1512,-2.1635 348.4425,-6.4051 358.6773,-9.1437 358.1512,-2.1635"/>
<text text-anchor="middle" x="433.8174" y="-32.5" font-family="Helvetica,sans-Serif" font-size="10.00" fill="#000000"> stopWaitTime</text>
</g>
</g>
</svg>
