<?xml version="1.0" encoding="UTF-8" standalone="no"?>
<!DOCTYPE svg PUBLIC "-//W3C//DTD SVG 1.1//EN"
 "http://www.w3.org/Graphics/SVG/1.1/DTD/svg11.dtd">
<!-- Generated by graphviz version 2.40.1 (20161225.0304)
 -->
<!-- Title: NoLimits::NoLimits2::Script Pages: 1 -->
<svg width="475pt" height="122pt"
 viewBox="0.00 0.00 475.47 122.00" xmlns="http://www.w3.org/2000/svg" xmlns:xlink="http://www.w3.org/1999/xlink">
<g id="graph0" class="graph" transform="scale(1 1) rotate(0) translate(4 118)">
<title>NoLimits::NoLimits2::Script</title>
<!-- Node0 -->
<g id="node1" class="node">
<title>Node0</title>
<polygon fill="#bfbfbf" stroke="#000000" points="209.1182,-.5 209.1182,-28.5 314.0293,-28.5 314.0293,-.5 209.1182,-.5"/>
<text text-anchor="start" x="217.1182" y="-16.5" font-family="Helvetica,sans-Serif" font-size="10.00" fill="#000000">NoLimits::NoLimits2</text>
<text text-anchor="middle" x="261.5737" y="-6.5" font-family="Helvetica,sans-Serif" font-size="10.00" fill="#000000">::Script</text>
</g>
<!-- Node1 -->
<g id="node2" class="node">
<title>Node1</title>
<g id="a_node2"><a xlink:href="class_no_limits_1_1_stream_1_1_chunk.html" target="_top" xlink:title="NoLimits::Stream::Chunk">
<polygon fill="none" stroke="#000000" points="0,-90.5 0,-108.5 127.1475,-108.5 127.1475,-90.5 0,-90.5"/>
<text text-anchor="middle" x="63.5737" y="-96.5" font-family="Helvetica,sans-Serif" font-size="10.00" fill="#000000">NoLimits::Stream::Chunk</text>
</a>
</g>
</g>
<!-- Node1&#45;&gt;Node0 -->
<g id="edge1" class="edge">
<title>Node1&#45;&gt;Node0</title>
<path fill="none" stroke="#191970" d="M94.3785,-86.2757C130.8687,-70.6108 191.4033,-44.6237 228.7531,-28.5897"/>
<polygon fill="#191970" stroke="#191970" points="92.5716,-83.2425 84.7632,-90.4035 95.333,-89.6748 92.5716,-83.2425"/>
</g>
<!-- Node2 -->
<g id="node3" class="node">
<title>Node2</title>
<polygon fill="none" stroke="#bfbfbf" points="145.1934,-85.5 145.1934,-113.5 285.9541,-113.5 285.9541,-85.5 145.1934,-85.5"/>
<text text-anchor="start" x="153.1934" y="-101.5" font-family="Helvetica,sans-Serif" font-size="10.00" fill="#000000">vector&lt; NoLimits::NoLimits2</text>
<text text-anchor="middle" x="215.5737" y="-91.5" font-family="Helvetica,sans-Serif" font-size="10.00" fill="#000000">::ResourceFile * &gt;</text>
</g>
<!-- Node2&#45;&gt;Node0 -->
<g id="edge2" class="edge">
<title>Node2&#45;&gt;Node0</title>
<path fill="none" stroke="#9a32cd" stroke-dasharray="5,2" d="M218.7736,-75.4836C220.7256,-66.1585 223.8381,-55.6609 228.7759,-47 232.6667,-40.1754 238.385,-33.8131 243.9614,-28.5594"/>
<polygon fill="#9a32cd" stroke="#9a32cd" points="215.3232,-74.8964 217.0273,-85.3532 222.2161,-76.116 215.3232,-74.8964"/>
<text text-anchor="middle" x="257.4727" y="-54" font-family="Helvetica,sans-Serif" font-size="10.00" fill="#000000"> resourceFile</text>
</g>
<!-- Node3 -->
<g id="node4" class="node">
<title>Node3</title>
<polygon fill="none" stroke="#bfbfbf" points="304.1206,-90.5 304.1206,-108.5 339.0269,-108.5 339.0269,-90.5 304.1206,-90.5"/>
<text text-anchor="middle" x="321.5737" y="-96.5" font-family="Helvetica,sans-Serif" font-size="10.00" fill="#000000">bool</text>
</g>
<!-- Node3&#45;&gt;Node0 -->
<g id="edge3" class="edge">
<title>Node3&#45;&gt;Node0</title>
<path fill="none" stroke="#9a32cd" stroke-dasharray="5,2" d="M310.2979,-81.9479C303.5773,-71.65 294.7817,-58.4524 286.5737,-47 282.1781,-40.8668 277.1364,-34.2406 272.7373,-28.5812"/>
<polygon fill="#9a32cd" stroke="#9a32cd" points="307.4356,-83.967 315.8102,-90.4567 313.3106,-80.161 307.4356,-83.967"/>
<text text-anchor="middle" x="348.9536" y="-54" font-family="Helvetica,sans-Serif" font-size="10.00" fill="#000000"> privateVirtualMachine</text>
</g>
<!-- Node4 -->
<g id="node5" class="node">
<title>Node4</title>
<polygon fill="none" stroke="#bfbfbf" points="410.3472,-90.5 410.3472,-108.5 450.8003,-108.5 450.8003,-90.5 410.3472,-90.5"/>
<text text-anchor="middle" x="430.5737" y="-96.5" font-family="Helvetica,sans-Serif" font-size="10.00" fill="#000000">string</text>
</g>
<!-- Node4&#45;&gt;Node0 -->
<g id="edge4" class="edge">
<title>Node4&#45;&gt;Node0</title>
<path fill="none" stroke="#9a32cd" stroke-dasharray="5,2" d="M424.9682,-80.6295C420.6351,-69.2444 413.4981,-55.3685 402.5737,-47 388.7139,-36.3828 348.336,-27.7137 314.3232,-22.0073"/>
<polygon fill="#9a32cd" stroke="#9a32cd" points="421.6701,-81.8025 428.1876,-90.1556 428.3017,-79.5613 421.6701,-81.8025"/>
<text text-anchor="middle" x="443.022" y="-59" font-family="Helvetica,sans-Serif" font-size="10.00" fill="#000000"> classPath</text>
<text text-anchor="middle" x="443.022" y="-49" font-family="Helvetica,sans-Serif" font-size="10.00" fill="#000000">scriptClass</text>
</g>
</g>
</svg>
