<?xml version="1.0" encoding="UTF-8" standalone="no"?>
<!DOCTYPE svg PUBLIC "-//W3C//DTD SVG 1.1//EN"
 "http://www.w3.org/Graphics/SVG/1.1/DTD/svg11.dtd">
<!-- Generated by graphviz version 2.40.1 (20161225.0304)
 -->
<!-- Title: NoLimits::NoLimits1::NoLimitsTrack Pages: 1 -->
<svg width="798pt" height="591pt"
 viewBox="0.00 0.00 797.52 590.62" xmlns="http://www.w3.org/2000/svg" xmlns:xlink="http://www.w3.org/1999/xlink">
<g id="graph0" class="graph" transform="scale(1 1) rotate(0) translate(4 586.6157)">
<title>NoLimits::NoLimits1::NoLimitsTrack</title>
<!-- Node0 -->
<g id="node1" class="node">
<title>Node0</title>
<polygon fill="#bfbfbf" stroke="#000000" points="684.6084,-423.6157 684.6084,-451.6157 789.5195,-451.6157 789.5195,-423.6157 684.6084,-423.6157"/>
<text text-anchor="start" x="692.6084" y="-439.6157" font-family="Helvetica,sans-Serif" font-size="10.00" fill="#000000">NoLimits::NoLimits1</text>
<text text-anchor="middle" x="737.064" y="-429.6157" font-family="Helvetica,sans-Serif" font-size="10.00" fill="#000000">::NoLimitsTrack</text>
</g>
<!-- Node1 -->
<g id="node2" class="node">
<title>Node1</title>
<g id="a_node2"><a xlink:href="class_no_limits_1_1_stream_1_1_chunk.html" target="_top" xlink:title="NoLimits::Stream::Chunk">
<polygon fill="none" stroke="#000000" points="0,-356.6157 0,-374.6157 127.1475,-374.6157 127.1475,-356.6157 0,-356.6157"/>
<text text-anchor="middle" x="63.5737" y="-362.6157" font-family="Helvetica,sans-Serif" font-size="10.00" fill="#000000">NoLimits::Stream::Chunk</text>
</a>
</g>
</g>
<!-- Node1&#45;&gt;Node0 -->
<g id="edge1" class="edge">
<title>Node1&#45;&gt;Node0</title>
<path fill="none" stroke="#191970" d="M75.4831,-382.9907C100.3944,-417.4416 161.8943,-493.0302 236.1553,-515.6157 409.1926,-568.2426 627.2007,-486.1168 706.4782,-451.6677"/>
<polygon fill="#191970" stroke="#191970" points="78.3288,-380.9529 69.6982,-374.8076 72.6128,-384.9936 78.3288,-380.9529"/>
</g>
<!-- Node2 -->
<g id="node3" class="node">
<title>Node2</title>
<g id="a_node3"><a xlink:href="class_no_limits_1_1_no_limits1_1_1_track.html" target="_top" xlink:title="NoLimits::NoLimits1\l::Track">
<polygon fill="none" stroke="#000000" points="519.249,-276.6157 519.249,-304.6157 624.1602,-304.6157 624.1602,-276.6157 519.249,-276.6157"/>
<text text-anchor="start" x="527.249" y="-292.6157" font-family="Helvetica,sans-Serif" font-size="10.00" fill="#000000">NoLimits::NoLimits1</text>
<text text-anchor="middle" x="571.7046" y="-282.6157" font-family="Helvetica,sans-Serif" font-size="10.00" fill="#000000">::Track</text>
</a>
</g>
</g>
<!-- Node1&#45;&gt;Node2 -->
<g id="edge3" class="edge">
<title>Node1&#45;&gt;Node2</title>
<path fill="none" stroke="#191970" d="M137.6739,-370.809C226.4806,-374.6119 378.6536,-373.361 501.249,-332.6157 520.168,-326.3278 539.4656,-314.3563 553.0696,-304.7981"/>
<polygon fill="#191970" stroke="#191970" points="137.58,-367.301 127.4291,-370.3357 137.2569,-374.2936 137.58,-367.301"/>
</g>
<!-- Node4 -->
<g id="node5" class="node">
<title>Node4</title>
<g id="a_node5"><a xlink:href="class_no_limits_1_1_no_limits1_1_1_info.html" target="_top" xlink:title="NoLimits::NoLimits1\l::Info">
<polygon fill="none" stroke="#ff0000" points="254.0801,-140.6157 254.0801,-168.6157 358.9912,-168.6157 358.9912,-140.6157 254.0801,-140.6157"/>
<text text-anchor="start" x="262.0801" y="-156.6157" font-family="Helvetica,sans-Serif" font-size="10.00" fill="#000000">NoLimits::NoLimits1</text>
<text text-anchor="middle" x="306.5356" y="-146.6157" font-family="Helvetica,sans-Serif" font-size="10.00" fill="#000000">::Info</text>
</a>
</g>
</g>
<!-- Node1&#45;&gt;Node4 -->
<g id="edge6" class="edge">
<title>Node1&#45;&gt;Node4</title>
<path fill="none" stroke="#191970" d="M78.4175,-348.4761C116.6676,-304.4519 216.9464,-189.982 236.1553,-177.6157 241.6676,-174.0669 247.7769,-171.0192 254.0265,-168.4139"/>
<polygon fill="#191970" stroke="#191970" points="75.5471,-346.4436 71.6369,-356.2905 80.8343,-351.0313 75.5471,-346.4436"/>
</g>
<!-- Node11 -->
<g id="node11" class="node">
<title>Node11</title>
<g id="a_node11"><a xlink:href="class_no_limits_1_1_no_limits1_1_1_colors.html" target="_top" xlink:title="NoLimits::NoLimits1\l::Colors">
<polygon fill="none" stroke="#ff0000" points="254.0801,-93.6157 254.0801,-121.6157 358.9912,-121.6157 358.9912,-93.6157 254.0801,-93.6157"/>
<text text-anchor="start" x="262.0801" y="-109.6157" font-family="Helvetica,sans-Serif" font-size="10.00" fill="#000000">NoLimits::NoLimits1</text>
<text text-anchor="middle" x="306.5356" y="-99.6157" font-family="Helvetica,sans-Serif" font-size="10.00" fill="#000000">::Colors</text>
</a>
</g>
</g>
<!-- Node1&#45;&gt;Node11 -->
<g id="edge13" class="edge">
<title>Node1&#45;&gt;Node11</title>
<path fill="none" stroke="#191970" d="M68.9447,-346.385C79.2035,-312.3266 104.2737,-240.4896 145.1475,-192.6157 176.9264,-155.3941 192.2343,-152.2095 236.1553,-130.6157 242.8461,-127.3261 250.1178,-124.3465 257.3637,-121.7053"/>
<polygon fill="#191970" stroke="#191970" points="65.4646,-345.8182 66.0321,-356.3978 72.186,-347.7734 65.4646,-345.8182"/>
</g>
<!-- Node14 -->
<g id="node13" class="node">
<title>Node14</title>
<g id="a_node13"><a xlink:href="class_no_limits_1_1_no_limits1_1_1_version.html" target="_top" xlink:title="NoLimits::NoLimits1\l::Version">
<polygon fill="none" stroke="#000000" points="254.0801,-478.6157 254.0801,-506.6157 358.9912,-506.6157 358.9912,-478.6157 254.0801,-478.6157"/>
<text text-anchor="start" x="262.0801" y="-494.6157" font-family="Helvetica,sans-Serif" font-size="10.00" fill="#000000">NoLimits::NoLimits1</text>
<text text-anchor="middle" x="306.5356" y="-484.6157" font-family="Helvetica,sans-Serif" font-size="10.00" fill="#000000">::Version</text>
</a>
</g>
</g>
<!-- Node1&#45;&gt;Node14 -->
<g id="edge18" class="edge">
<title>Node1&#45;&gt;Node14</title>
<path fill="none" stroke="#191970" d="M85.4755,-380.7379C117.4723,-402.3468 179.3759,-442.3443 236.1553,-468.6157 243.8881,-472.1935 252.3116,-475.5218 260.5558,-478.4913"/>
<polygon fill="#191970" stroke="#191970" points="87.1444,-377.64 76.9081,-374.9072 83.206,-383.427 87.1444,-377.64"/>
</g>
<!-- Node2&#45;&gt;Node0 -->
<g id="edge2" class="edge">
<title>Node2&#45;&gt;Node0</title>
<path fill="none" stroke="#9a32cd" stroke-dasharray="5,2" d="M595.1876,-311.4914C629.3003,-341.8167 691.6803,-397.2708 721.0136,-423.3474"/>
<polygon fill="#9a32cd" stroke="#9a32cd" points="597.3592,-308.7388 587.5599,-304.7106 592.7083,-313.9705 597.3592,-308.7388"/>
<text text-anchor="middle" x="654.3843" y="-375.6157" font-family="Helvetica,sans-Serif" font-size="10.00" fill="#000000"> track</text>
</g>
<!-- Node3 -->
<g id="node4" class="node">
<title>Node3</title>
<polygon fill="none" stroke="#bfbfbf" points="236.1553,-234.6157 236.1553,-262.6157 376.916,-262.6157 376.916,-234.6157 236.1553,-234.6157"/>
<text text-anchor="start" x="244.1553" y="-250.6157" font-family="Helvetica,sans-Serif" font-size="10.00" fill="#000000">vector&lt; NoLimits::NoLimits1</text>
<text text-anchor="middle" x="306.5356" y="-240.6157" font-family="Helvetica,sans-Serif" font-size="10.00" fill="#000000">::Section * &gt;</text>
</g>
<!-- Node3&#45;&gt;Node2 -->
<g id="edge4" class="edge">
<title>Node3&#45;&gt;Node2</title>
<path fill="none" stroke="#9a32cd" stroke-dasharray="5,2" d="M387.174,-259.229C422.2846,-264.1037 463.8702,-270.2191 501.249,-276.6157 507.0264,-277.6043 513.0572,-278.7019 519.0537,-279.835"/>
<polygon fill="#9a32cd" stroke="#9a32cd" points="387.3604,-255.7216 376.976,-257.8226 386.404,-262.656 387.3604,-255.7216"/>
<text text-anchor="middle" x="448.0825" y="-278.6157" font-family="Helvetica,sans-Serif" font-size="10.00" fill="#000000"> section</text>
</g>
<!-- Node4&#45;&gt;Node2 -->
<g id="edge5" class="edge">
<title>Node4&#45;&gt;Node2</title>
<path fill="none" stroke="#9a32cd" stroke-dasharray="5,2" d="M369.3216,-159.6778C409.6201,-165.33 461.6285,-177.2936 501.249,-202.6157 530.6027,-221.376 553.1988,-256.5922 564.2433,-276.3104"/>
<polygon fill="#9a32cd" stroke="#9a32cd" points="369.7128,-156.1992 359.3432,-158.3724 368.8047,-163.14 369.7128,-156.1992"/>
<text text-anchor="middle" x="448.0825" y="-204.6157" font-family="Helvetica,sans-Serif" font-size="10.00" fill="#000000"> info</text>
</g>
<!-- Node6 -->
<g id="node6" class="node">
<title>Node6</title>
<polygon fill="none" stroke="#bfbfbf" points="273.7114,-318.6157 273.7114,-336.6157 339.3599,-336.6157 339.3599,-318.6157 273.7114,-318.6157"/>
<text text-anchor="middle" x="306.5356" y="-324.6157" font-family="Helvetica,sans-Serif" font-size="10.00" fill="#000000">TrackMode</text>
</g>
<!-- Node6&#45;&gt;Node2 -->
<g id="edge7" class="edge">
<title>Node6&#45;&gt;Node2</title>
<path fill="none" stroke="#9a32cd" stroke-dasharray="5,2" d="M349.4568,-323.5243C388.999,-319.5233 449.2441,-312.841 501.249,-304.6157 507.0384,-303.7 513.0769,-302.6486 519.0777,-301.5423"/>
<polygon fill="#9a32cd" stroke="#9a32cd" points="348.9751,-320.0549 339.3727,-324.5319 349.6712,-327.0202 348.9751,-320.0549"/>
<text text-anchor="middle" x="448.0825" y="-320.6157" font-family="Helvetica,sans-Serif" font-size="10.00" fill="#000000"> trackMode</text>
</g>
<!-- Node7 -->
<g id="node7" class="node">
<title>Node7</title>
<polygon fill="none" stroke="#bfbfbf" points="280.7427,-281.6157 280.7427,-299.6157 332.3286,-299.6157 332.3286,-281.6157 280.7427,-281.6157"/>
<text text-anchor="middle" x="306.5356" y="-287.6157" font-family="Helvetica,sans-Serif" font-size="10.00" fill="#000000">uint32_t</text>
</g>
<!-- Node7&#45;&gt;Node2 -->
<g id="edge8" class="edge">
<title>Node7&#45;&gt;Node2</title>
<path fill="none" stroke="#9a32cd" stroke-dasharray="5,2" d="M342.444,-290.6157C387.9512,-290.6157 466.75,-290.6157 519.0588,-290.6157"/>
<polygon fill="#9a32cd" stroke="#9a32cd" points="342.444,-287.1158 332.444,-290.6157 342.4439,-294.1158 342.444,-287.1158"/>
<text text-anchor="middle" x="448.0825" y="-292.6157" font-family="Helvetica,sans-Serif" font-size="10.00" fill="#000000"> numberOfCarsPerTrain</text>
</g>
<!-- Node8 -->
<g id="node8" class="node">
<title>Node8</title>
<polygon fill="none" stroke="#bfbfbf" points="46.1206,-55.6157 46.1206,-73.6157 81.0269,-73.6157 81.0269,-55.6157 46.1206,-55.6157"/>
<text text-anchor="middle" x="63.5737" y="-61.6157" font-family="Helvetica,sans-Serif" font-size="10.00" fill="#000000">bool</text>
</g>
<!-- Node8&#45;&gt;Node0 -->
<g id="edge16" class="edge">
<title>Node8&#45;&gt;Node0</title>
<path fill="none" stroke="#9a32cd" stroke-dasharray="5,2" d="M90.4771,-53.3301C163.0525,-24.8027 366.4512,42.3034 501.249,-39.6157 653.6183,-132.2133 719.0583,-363.5135 733.7531,-423.3193"/>
<polygon fill="#9a32cd" stroke="#9a32cd" points="89.1045,-50.1095 81.1254,-57.0798 91.7097,-56.6067 89.1045,-50.1095"/>
<text text-anchor="middle" x="448.0825" y="-41.6157" font-family="Helvetica,sans-Serif" font-size="10.00" fill="#000000"> use16Friction</text>
</g>
<!-- Node8&#45;&gt;Node2 -->
<g id="edge9" class="edge">
<title>Node8&#45;&gt;Node2</title>
<path fill="none" stroke="#9a32cd" stroke-dasharray="5,2" d="M90.7888,-57.5282C166.7221,-39.5409 383.0625,-.7561 501.249,-107.6157 552.6379,-154.0794 566.8474,-242.3109 570.5143,-276.5455"/>
<polygon fill="#9a32cd" stroke="#9a32cd" points="89.9152,-54.1386 81.0309,-59.911 91.5758,-60.9388 89.9152,-54.1386"/>
<text text-anchor="middle" x="306.5356" y="-48.6157" font-family="Helvetica,sans-Serif" font-size="10.00" fill="#000000"> closed</text>
</g>
<!-- Node8&#45;&gt;Node11 -->
<g id="edge14" class="edge">
<title>Node8&#45;&gt;Node11</title>
<path fill="none" stroke="#9a32cd" stroke-dasharray="5,2" d="M90.9852,-69.467C130.3973,-76.4423 203.8319,-89.4389 253.9288,-98.3052"/>
<polygon fill="#9a32cd" stroke="#9a32cd" points="91.5039,-66.0045 81.047,-67.7081 90.2839,-72.8974 91.5039,-66.0045"/>
<text text-anchor="middle" x="181.6514" y="-93.6157" font-family="Helvetica,sans-Serif" font-size="10.00" fill="#000000"> useTunnelColor</text>
</g>
<!-- Node9 -->
<g id="node9" class="node">
<title>Node9</title>
<polygon fill="none" stroke="#bfbfbf" points="236.1553,-187.6157 236.1553,-215.6157 376.916,-215.6157 376.916,-187.6157 236.1553,-187.6157"/>
<text text-anchor="start" x="244.1553" y="-203.6157" font-family="Helvetica,sans-Serif" font-size="10.00" fill="#000000">vector&lt; NoLimits::NoLimits1</text>
<text text-anchor="middle" x="306.5356" y="-193.6157" font-family="Helvetica,sans-Serif" font-size="10.00" fill="#000000">::Train * &gt;</text>
</g>
<!-- Node9&#45;&gt;Node2 -->
<g id="edge10" class="edge">
<title>Node9&#45;&gt;Node2</title>
<path fill="none" stroke="#9a32cd" stroke-dasharray="5,2" d="M387.1288,-214.03C422.9293,-221.108 465.0636,-231.6278 501.249,-246.6157 519.902,-254.3416 539.2246,-266.7765 552.9058,-276.4593"/>
<polygon fill="#9a32cd" stroke="#9a32cd" points="387.6902,-210.574 377.2094,-212.1241 386.3693,-217.4482 387.6902,-210.574"/>
<text text-anchor="middle" x="448.0825" y="-248.6157" font-family="Helvetica,sans-Serif" font-size="10.00" fill="#000000"> train</text>
</g>
<!-- Node10 -->
<g id="node10" class="node">
<title>Node10</title>
<polygon fill="none" stroke="#bfbfbf" points="269.9126,-441.6157 269.9126,-459.6157 343.1587,-459.6157 343.1587,-441.6157 269.9126,-441.6157"/>
<text text-anchor="middle" x="306.5356" y="-447.6157" font-family="Helvetica,sans-Serif" font-size="10.00" fill="#000000">CoasterStyle</text>
</g>
<!-- Node10&#45;&gt;Node2 -->
<g id="edge11" class="edge">
<title>Node10&#45;&gt;Node2</title>
<path fill="none" stroke="#9a32cd" stroke-dasharray="5,2" d="M353.5208,-455.4987C395.8813,-457.4378 457.9851,-453.8996 501.249,-423.6157 542.9922,-394.3962 562.0217,-332.5221 568.7203,-304.6942"/>
<polygon fill="#9a32cd" stroke="#9a32cd" points="353.6518,-452.0006 343.4669,-454.9193 353.2489,-458.989 353.6518,-452.0006"/>
<text text-anchor="middle" x="448.0825" y="-457.6157" font-family="Helvetica,sans-Serif" font-size="10.00" fill="#000000"> coasterStyle</text>
</g>
<!-- Node11&#45;&gt;Node2 -->
<g id="edge12" class="edge">
<title>Node11&#45;&gt;Node2</title>
<path fill="none" stroke="#9a32cd" stroke-dasharray="5,2" d="M369.4629,-107.986C410.7558,-111.2487 463.8367,-121.5229 501.249,-150.6157 543.3494,-183.354 562.2833,-248.0272 568.846,-276.5444"/>
<polygon fill="#9a32cd" stroke="#9a32cd" points="369.4472,-104.4772 359.2354,-107.3003 368.9789,-111.4615 369.4472,-104.4772"/>
<text text-anchor="middle" x="448.0825" y="-152.6157" font-family="Helvetica,sans-Serif" font-size="10.00" fill="#000000"> colors</text>
</g>
<!-- Node13 -->
<g id="node12" class="node">
<title>Node13</title>
<polygon fill="none" stroke="#bfbfbf" points="236.1553,-394.6157 236.1553,-422.6157 376.916,-422.6157 376.916,-394.6157 236.1553,-394.6157"/>
<text text-anchor="start" x="244.1553" y="-410.6157" font-family="Helvetica,sans-Serif" font-size="10.00" fill="#000000">vector&lt; NoLimits::NoLimits1</text>
<text text-anchor="middle" x="306.5356" y="-400.6157" font-family="Helvetica,sans-Serif" font-size="10.00" fill="#000000">::Vertex * &gt;</text>
</g>
<!-- Node13&#45;&gt;Node2 -->
<g id="edge15" class="edge">
<title>Node13&#45;&gt;Node2</title>
<path fill="none" stroke="#9a32cd" stroke-dasharray="5,2" d="M387.5471,-409.8394C424.3532,-407.1733 467.178,-399.3281 501.249,-379.6157 531.9529,-361.8513 554.3116,-325.0678 564.881,-304.7933"/>
<polygon fill="#9a32cd" stroke="#9a32cd" points="387.1072,-406.3596 377.3378,-410.4596 387.5317,-413.3467 387.1072,-406.3596"/>
<text text-anchor="middle" x="448.0825" y="-411.6157" font-family="Helvetica,sans-Serif" font-size="10.00" fill="#000000"> vertex</text>
</g>
<!-- Node14&#45;&gt;Node0 -->
<g id="edge17" class="edge">
<title>Node14&#45;&gt;Node0</title>
<path fill="none" stroke="#9a32cd" stroke-dasharray="5,2" d="M368.9955,-485.516C407.2065,-481.1035 457.0761,-475.2213 501.249,-469.6157 564.1635,-461.6317 636.4126,-451.7173 684.1824,-445.0579"/>
<polygon fill="#9a32cd" stroke="#9a32cd" points="368.5771,-482.0409 359.0434,-486.6624 369.3783,-488.9949 368.5771,-482.0409"/>
<text text-anchor="middle" x="571.7046" y="-469.6157" font-family="Helvetica,sans-Serif" font-size="10.00" fill="#000000"> version</text>
</g>
<!-- Node15 -->
<g id="node14" class="node">
<title>Node15</title>
<polygon fill="none" stroke="#bfbfbf" points="40.5615,-559.6157 40.5615,-577.6157 86.5859,-577.6157 86.5859,-559.6157 40.5615,-559.6157"/>
<text text-anchor="middle" x="63.5737" y="-565.6157" font-family="Helvetica,sans-Serif" font-size="10.00" fill="#000000">uint8_t</text>
</g>
<!-- Node15&#45;&gt;Node14 -->
<g id="edge19" class="edge">
<title>Node15&#45;&gt;Node14</title>
<path fill="none" stroke="#9a32cd" stroke-dasharray="5,2" d="M96.4844,-558.321C139.1446,-544.9766 213.7242,-521.6477 261.5788,-506.6784"/>
<polygon fill="#9a32cd" stroke="#9a32cd" points="95.369,-555.0026 86.8699,-561.3285 97.4588,-561.6834 95.369,-555.0026"/>
<text text-anchor="middle" x="181.6514" y="-574.6157" font-family="Helvetica,sans-Serif" font-size="10.00" fill="#000000"> revision</text>
<text text-anchor="middle" x="181.6514" y="-564.6157" font-family="Helvetica,sans-Serif" font-size="10.00" fill="#000000">major</text>
<text text-anchor="middle" x="181.6514" y="-554.6157" font-family="Helvetica,sans-Serif" font-size="10.00" fill="#000000">markup</text>
<text text-anchor="middle" x="181.6514" y="-544.6157" font-family="Helvetica,sans-Serif" font-size="10.00" fill="#000000">minor</text>
</g>
</g>
</svg>
