<?xml version="1.0" encoding="UTF-8" standalone="no"?>
<!DOCTYPE svg PUBLIC "-//W3C//DTD SVG 1.1//EN"
 "http://www.w3.org/Graphics/SVG/1.1/DTD/svg11.dtd">
<!-- Generated by graphviz version 2.40.1 (20161225.0304)
 -->
<!-- Title: NoLimits::NoLimits2::Park Pages: 1 -->
<svg width="897pt" height="879pt"
 viewBox="0.00 0.00 897.25 878.67" xmlns="http://www.w3.org/2000/svg" xmlns:xlink="http://www.w3.org/1999/xlink">
<g id="graph0" class="graph" transform="scale(1 1) rotate(0) translate(4 874.6716)">
<title>NoLimits::NoLimits2::Park</title>
<!-- Node0 -->
<g id="node1" class="node">
<title>Node0</title>
<polygon fill="#bfbfbf" stroke="#000000" points="784.334,-642.1716 784.334,-670.1716 889.2451,-670.1716 889.2451,-642.1716 784.334,-642.1716"/>
<text text-anchor="start" x="792.334" y="-658.1716" font-family="Helvetica,sans-Serif" font-size="10.00" fill="#000000">NoLimits::NoLimits2</text>
<text text-anchor="middle" x="836.7896" y="-648.1716" font-family="Helvetica,sans-Serif" font-size="10.00" fill="#000000">::Park</text>
</g>
<!-- Node1 -->
<g id="node2" class="node">
<title>Node1</title>
<g id="a_node2"><a xlink:href="class_no_limits_1_1_stream_1_1_chunk.html" target="_top" xlink:title="NoLimits::Stream::Chunk">
<polygon fill="none" stroke="#000000" points="6.8066,-554.1716 6.8066,-572.1716 133.9541,-572.1716 133.9541,-554.1716 6.8066,-554.1716"/>
<text text-anchor="middle" x="70.3804" y="-560.1716" font-family="Helvetica,sans-Serif" font-size="10.00" fill="#000000">NoLimits::Stream::Chunk</text>
</a>
</g>
</g>
<!-- Node1&#45;&gt;Node0 -->
<g id="edge1" class="edge">
<title>Node1&#45;&gt;Node0</title>
<path fill="none" stroke="#191970" d="M79.0982,-581.3996C92.5715,-607.6718 120.9038,-656.0024 158.7607,-683.1716 208.6295,-718.9614 230.1527,-713.0684 290.3301,-725.1716 474.4338,-762.1994 533.2063,-771.1692 712.7627,-716.1716 749.3562,-704.9631 788.6558,-684.3277 812.9845,-670.4274"/>
<polygon fill="#191970" stroke="#191970" points="82.114,-579.6032 74.5307,-572.2043 75.8448,-582.7173 82.114,-579.6032"/>
</g>
<!-- Node2 -->
<g id="node3" class="node">
<title>Node2</title>
<g id="a_node3"><a xlink:href="class_no_limits_1_1_no_limits2_1_1_scenery.html" target="_top" xlink:title="NoLimits::NoLimits2\l::Scenery">
<polygon fill="none" stroke="#000000" points="308.2549,-802.1716 308.2549,-830.1716 413.166,-830.1716 413.166,-802.1716 308.2549,-802.1716"/>
<text text-anchor="start" x="316.2549" y="-818.1716" font-family="Helvetica,sans-Serif" font-size="10.00" fill="#000000">NoLimits::NoLimits2</text>
<text text-anchor="middle" x="360.7104" y="-808.1716" font-family="Helvetica,sans-Serif" font-size="10.00" fill="#000000">::Scenery</text>
</a>
</g>
</g>
<!-- Node1&#45;&gt;Node2 -->
<g id="edge3" class="edge">
<title>Node1&#45;&gt;Node2</title>
<path fill="none" stroke="#191970" d="M72.6587,-582.6025C78.6194,-624.2292 98.625,-722.2733 158.7607,-772.1716 181.1287,-790.7316 256.0583,-803.4215 308.0689,-810.2382"/>
<polygon fill="#191970" stroke="#191970" points="76.0974,-581.9054 71.3283,-572.4446 69.1567,-582.8145 76.0974,-581.9054"/>
</g>
<!-- Node5 -->
<g id="node6" class="node">
<title>Node5</title>
<g id="a_node6"><a xlink:href="class_no_limits_1_1_no_limits2_1_1_info.html" target="_top" xlink:title="NoLimits::NoLimits2\l::Info">
<polygon fill="none" stroke="#000000" points="589.9268,-527.1716 589.9268,-555.1716 694.8379,-555.1716 694.8379,-527.1716 589.9268,-527.1716"/>
<text text-anchor="start" x="597.9268" y="-543.1716" font-family="Helvetica,sans-Serif" font-size="10.00" fill="#000000">NoLimits::NoLimits2</text>
<text text-anchor="middle" x="642.3823" y="-533.1716" font-family="Helvetica,sans-Serif" font-size="10.00" fill="#000000">::Info</text>
</a>
</g>
</g>
<!-- Node1&#45;&gt;Node5 -->
<g id="edge7" class="edge">
<title>Node1&#45;&gt;Node5</title>
<path fill="none" stroke="#191970" d="M144.2533,-561.9824C239.152,-560.2017 408.941,-556.1612 554.002,-548.1716 565.5284,-547.5367 577.8868,-546.6731 589.6004,-545.7691"/>
<polygon fill="#191970" stroke="#191970" points="144.1166,-558.4843 134.1829,-562.1682 144.2458,-565.4831 144.1166,-558.4843"/>
</g>
<!-- Node6 -->
<g id="node7" class="node">
<title>Node6</title>
<g id="a_node7"><a xlink:href="class_no_limits_1_1_no_limits2_1_1_sky.html" target="_top" xlink:title="NoLimits::NoLimits2::Sky">
<polygon fill="none" stroke="#000000" points="297.1416,-430.1716 297.1416,-448.1716 424.2793,-448.1716 424.2793,-430.1716 297.1416,-430.1716"/>
<text text-anchor="middle" x="360.7104" y="-436.1716" font-family="Helvetica,sans-Serif" font-size="10.00" fill="#000000">NoLimits::NoLimits2::Sky</text>
</a>
</g>
</g>
<!-- Node1&#45;&gt;Node6 -->
<g id="edge9" class="edge">
<title>Node1&#45;&gt;Node6</title>
<path fill="none" stroke="#191970" d="M80.8742,-545.1912C95.268,-522.3504 123.4217,-483.6821 158.7607,-465.1716 201.1917,-442.9464 255.2828,-436.9646 296.8034,-436.2576"/>
<polygon fill="#191970" stroke="#191970" points="77.779,-543.5447 75.5671,-553.9061 83.7576,-547.1856 77.779,-543.5447"/>
</g>
<!-- Node9 -->
<g id="node10" class="node">
<title>Node9</title>
<g id="a_node10"><a xlink:href="class_no_limits_1_1_no_limits2_1_1_weather.html" target="_top" xlink:title="NoLimits::NoLimits2\l::Weather">
<polygon fill="none" stroke="#ff0000" points="308.2549,-506.1716 308.2549,-534.1716 413.166,-534.1716 413.166,-506.1716 308.2549,-506.1716"/>
<text text-anchor="start" x="316.2549" y="-522.1716" font-family="Helvetica,sans-Serif" font-size="10.00" fill="#000000">NoLimits::NoLimits2</text>
<text text-anchor="middle" x="360.7104" y="-512.1716" font-family="Helvetica,sans-Serif" font-size="10.00" fill="#000000">::Weather</text>
</a>
</g>
</g>
<!-- Node1&#45;&gt;Node9 -->
<g id="edge13" class="edge">
<title>Node1&#45;&gt;Node9</title>
<path fill="none" stroke="#191970" d="M141.3149,-552.6657C192.871,-545.0298 261.5178,-534.8627 308.2009,-527.9486"/>
<polygon fill="#191970" stroke="#191970" points="140.6224,-549.23 131.2431,-554.1574 141.648,-556.1544 140.6224,-549.23"/>
</g>
<!-- Node12 -->
<g id="node12" class="node">
<title>Node12</title>
<g id="a_node12"><a xlink:href="class_no_limits_1_1_no_limits2_1_1_version.html" target="_top" xlink:title="NoLimits::NoLimits2\l::Version">
<polygon fill="none" stroke="#ff0000" points="308.2549,-666.1716 308.2549,-694.1716 413.166,-694.1716 413.166,-666.1716 308.2549,-666.1716"/>
<text text-anchor="start" x="316.2549" y="-682.1716" font-family="Helvetica,sans-Serif" font-size="10.00" fill="#000000">NoLimits::NoLimits2</text>
<text text-anchor="middle" x="360.7104" y="-672.1716" font-family="Helvetica,sans-Serif" font-size="10.00" fill="#000000">::Version</text>
</a>
</g>
</g>
<!-- Node1&#45;&gt;Node12 -->
<g id="edge18" class="edge">
<title>Node1&#45;&gt;Node12</title>
<path fill="none" stroke="#191970" d="M99.127,-576.4196C140.8199,-595.4126 220.7047,-630.9751 290.3301,-657.1716 298.5114,-660.2498 307.3121,-663.3155 315.8261,-666.1582"/>
<polygon fill="#191970" stroke="#191970" points="100.411,-573.1582 89.861,-572.1845 97.5011,-579.5248 100.411,-573.1582"/>
</g>
<!-- Node16 -->
<g id="node15" class="node">
<title>Node16</title>
<g id="a_node15"><a xlink:href="class_no_limits_1_1_no_limits2_1_1_uspk.html" target="_top" xlink:title="NoLimits::NoLimits2\l::Uspk">
<polygon fill="none" stroke="#000000" points="449.0908,-701.1716 449.0908,-729.1716 554.002,-729.1716 554.002,-701.1716 449.0908,-701.1716"/>
<text text-anchor="start" x="457.0908" y="-717.1716" font-family="Helvetica,sans-Serif" font-size="10.00" fill="#000000">NoLimits::NoLimits2</text>
<text text-anchor="middle" x="501.5464" y="-707.1716" font-family="Helvetica,sans-Serif" font-size="10.00" fill="#000000">::Uspk</text>
</a>
</g>
</g>
<!-- Node1&#45;&gt;Node16 -->
<g id="edge23" class="edge">
<title>Node1&#45;&gt;Node16</title>
<path fill="none" stroke="#191970" d="M86.9398,-580.0017C103.9279,-596.6643 131.636,-622.2169 158.7607,-640.1716 212.9843,-676.0637 227.3637,-687.9336 290.3301,-704.1716 343.1306,-717.788 405.7466,-719.3086 449.0237,-718.1847"/>
<polygon fill="#191970" stroke="#191970" points="89.0679,-577.1816 79.5109,-572.6083 84.13,-582.1432 89.0679,-577.1816"/>
</g>
<!-- Node17 -->
<g id="node16" class="node">
<title>Node17</title>
<g id="a_node16"><a xlink:href="class_no_limits_1_1_no_limits2_1_1_terrain.html" target="_top" xlink:title="NoLimits::NoLimits2\l::Terrain">
<polygon fill="none" stroke="#000000" points="589.9268,-161.1716 589.9268,-189.1716 694.8379,-189.1716 694.8379,-161.1716 589.9268,-161.1716"/>
<text text-anchor="start" x="597.9268" y="-177.1716" font-family="Helvetica,sans-Serif" font-size="10.00" fill="#000000">NoLimits::NoLimits2</text>
<text text-anchor="middle" x="642.3823" y="-167.1716" font-family="Helvetica,sans-Serif" font-size="10.00" fill="#000000">::Terrain</text>
</a>
</g>
</g>
<!-- Node1&#45;&gt;Node17 -->
<g id="edge25" class="edge">
<title>Node1&#45;&gt;Node17</title>
<path fill="none" stroke="#191970" d="M101.277,-550.3068C118.1085,-543.5476 139.3979,-535.3984 158.7607,-529.1716 173.6452,-524.3849 418.1185,-466.8996 431.0908,-458.1716 540.2121,-384.7525 614.8095,-235.6846 636.1277,-189.2834"/>
<polygon fill="#191970" stroke="#191970" points="99.8795,-547.0966 91.9302,-554.1008 102.5124,-553.5826 99.8795,-547.0966"/>
</g>
<!-- Node22 -->
<g id="node21" class="node">
<title>Node22</title>
<g id="a_node21"><a xlink:href="class_no_limits_1_1_no_limits2_1_1_water.html" target="_top" xlink:title="NoLimits::NoLimits2\l::Water">
<polygon fill="none" stroke="#ff0000" points="308.2549,-280.1716 308.2549,-308.1716 413.166,-308.1716 413.166,-280.1716 308.2549,-280.1716"/>
<text text-anchor="start" x="316.2549" y="-296.1716" font-family="Helvetica,sans-Serif" font-size="10.00" fill="#000000">NoLimits::NoLimits2</text>
<text text-anchor="middle" x="360.7104" y="-286.1716" font-family="Helvetica,sans-Serif" font-size="10.00" fill="#000000">::Water</text>
</a>
</g>
</g>
<!-- Node1&#45;&gt;Node22 -->
<g id="edge31" class="edge">
<title>Node1&#45;&gt;Node22</title>
<path fill="none" stroke="#191970" d="M81.0367,-545.284C103.3874,-507.8405 153.5417,-424.2331 158.7607,-419.1716 200.5096,-378.6827 231.0784,-395.1669 272.3301,-354.1716 283.6307,-342.9412 278.3291,-333.6504 290.3301,-323.1716 297.2984,-317.0871 305.7181,-312.1619 314.2744,-308.2167"/>
<polygon fill="#191970" stroke="#191970" points="77.879,-543.7458 75.7628,-554.1272 83.891,-547.3313 77.879,-543.7458"/>
</g>
<!-- Node2&#45;&gt;Node0 -->
<g id="edge2" class="edge">
<title>Node2&#45;&gt;Node0</title>
<path fill="none" stroke="#9a32cd" stroke-dasharray="5,2" d="M423.2059,-826.2108C508.0103,-836.4273 661.0136,-842.4537 766.334,-775.1716 804.979,-750.4839 825.1779,-696.3928 832.9438,-670.5163"/>
<polygon fill="#9a32cd" stroke="#9a32cd" points="423.5694,-822.729 413.2098,-824.9488 422.6926,-829.6739 423.5694,-822.729"/>
<text text-anchor="middle" x="642.3823" y="-832.1716" font-family="Helvetica,sans-Serif" font-size="10.00" fill="#000000"> scenery</text>
</g>
<!-- Node3 -->
<g id="node4" class="node">
<title>Node3</title>
<polygon fill="none" stroke="#bfbfbf" points="18.4717,-852.1716 18.4717,-870.1716 122.2891,-870.1716 122.2891,-852.1716 18.4717,-852.1716"/>
<text text-anchor="middle" x="70.3804" y="-858.1716" font-family="Helvetica,sans-Serif" font-size="10.00" fill="#000000">vector&lt; std::string &gt;</text>
</g>
<!-- Node3&#45;&gt;Node2 -->
<g id="edge4" class="edge">
<title>Node3&#45;&gt;Node2</title>
<path fill="none" stroke="#9a32cd" stroke-dasharray="5,2" d="M132.4753,-852.8513C172.4642,-847.3458 225.5325,-839.7651 272.3301,-832.1716 283.874,-830.2984 296.2397,-828.1496 307.9548,-826.0473"/>
<polygon fill="#9a32cd" stroke="#9a32cd" points="131.7744,-849.4145 122.3425,-854.2405 132.7252,-856.3497 131.7744,-849.4145"/>
<text text-anchor="middle" x="215.5454" y="-850.1716" font-family="Helvetica,sans-Serif" font-size="10.00" fill="#000000"> sceneObject</text>
</g>
<!-- Node4 -->
<g id="node5" class="node">
<title>Node4</title>
<polygon fill="none" stroke="#bfbfbf" points="0,-805.1716 0,-833.1716 140.7607,-833.1716 140.7607,-805.1716 0,-805.1716"/>
<text text-anchor="start" x="8" y="-821.1716" font-family="Helvetica,sans-Serif" font-size="10.00" fill="#000000">vector&lt; NoLimits::NoLimits2</text>
<text text-anchor="middle" x="70.3804" y="-811.1716" font-family="Helvetica,sans-Serif" font-size="10.00" fill="#000000">::SceneObjectInstance * &gt;</text>
</g>
<!-- Node4&#45;&gt;Node2 -->
<g id="edge5" class="edge">
<title>Node4&#45;&gt;Node2</title>
<path fill="none" stroke="#9a32cd" stroke-dasharray="5,2" d="M151.1993,-818.3365C201.3281,-817.8185 264.2913,-817.1679 308.0425,-816.7158"/>
<polygon fill="#9a32cd" stroke="#9a32cd" points="150.9951,-814.8383 141.0318,-818.4415 151.0675,-821.8379 150.9951,-814.8383"/>
<text text-anchor="middle" x="215.5454" y="-820.1716" font-family="Helvetica,sans-Serif" font-size="10.00" fill="#000000"> sceneObjectInstance</text>
</g>
<!-- Node5&#45;&gt;Node0 -->
<g id="edge6" class="edge">
<title>Node5&#45;&gt;Node0</title>
<path fill="none" stroke="#9a32cd" stroke-dasharray="5,2" d="M675.0953,-560.5227C714.1421,-583.6205 778.4869,-621.6831 813.0608,-642.1351"/>
<polygon fill="#9a32cd" stroke="#9a32cd" points="676.6093,-557.3518 666.2205,-555.2729 673.0454,-563.3766 676.6093,-557.3518"/>
<text text-anchor="middle" x="748.5483" y="-614.1716" font-family="Helvetica,sans-Serif" font-size="10.00" fill="#000000"> info</text>
</g>
<!-- Node6&#45;&gt;Node5 -->
<g id="edge8" class="edge">
<title>Node6&#45;&gt;Node5</title>
<path fill="none" stroke="#9a32cd" stroke-dasharray="5,2" d="M395.3007,-451.6975C448.116,-470.8232 548.5278,-507.1847 603.6926,-527.1611"/>
<polygon fill="#9a32cd" stroke="#9a32cd" points="396.3012,-448.3375 385.7069,-448.2234 393.9177,-454.9192 396.3012,-448.3375"/>
<text text-anchor="middle" x="501.5464" y="-510.1716" font-family="Helvetica,sans-Serif" font-size="10.00" fill="#000000"> sky</text>
</g>
<!-- Node7 -->
<g id="node8" class="node">
<title>Node7</title>
<polygon fill="none" stroke="#bfbfbf" points="52.9272,-417.1716 52.9272,-435.1716 87.8335,-435.1716 87.8335,-417.1716 52.9272,-417.1716"/>
<text text-anchor="middle" x="70.3804" y="-423.1716" font-family="Helvetica,sans-Serif" font-size="10.00" fill="#000000">bool</text>
</g>
<!-- Node7&#45;&gt;Node5 -->
<g id="edge15" class="edge">
<title>Node7&#45;&gt;Node5</title>
<path fill="none" stroke="#9a32cd" stroke-dasharray="5,2" d="M98.0018,-418.4854C159.1046,-402.7257 309.9145,-370.6953 431.0908,-401.1716 516.4412,-422.6375 597.3937,-496.0122 628.7263,-527.0864"/>
<polygon fill="#9a32cd" stroke="#9a32cd" points="96.7653,-415.1919 87.9917,-421.131 98.5541,-421.9595 96.7653,-415.1919"/>
<text text-anchor="start" x="302.6196" y="-413.1716" font-family="Helvetica,sans-Serif" font-size="10.00" fill="#000000"> initialPositionAndRotation</text>
<text text-anchor="middle" x="360.7104" y="-403.1716" font-family="Helvetica,sans-Serif" font-size="10.00" fill="#000000">Enabled</text>
</g>
<!-- Node7&#45;&gt;Node6 -->
<g id="edge10" class="edge">
<title>Node7&#45;&gt;Node6</title>
<path fill="none" stroke="#9a32cd" stroke-dasharray="5,2" d="M98.002,-425.1745C136.9352,-424.0271 210.149,-422.8148 272.3301,-427.1716 282.0615,-427.8534 292.3558,-428.9264 302.3465,-430.1568"/>
<polygon fill="#9a32cd" stroke="#9a32cd" points="97.8519,-421.6774 87.9675,-425.4918 98.0732,-428.6739 97.8519,-421.6774"/>
<text text-anchor="middle" x="215.5454" y="-429.1716" font-family="Helvetica,sans-Serif" font-size="10.00" fill="#000000"> overrideDefaultDateTime</text>
</g>
<!-- Node7&#45;&gt;Node9 -->
<g id="edge14" class="edge">
<title>Node7&#45;&gt;Node9</title>
<path fill="none" stroke="#9a32cd" stroke-dasharray="5,2" d="M97.6873,-435.0128C148.2077,-451.3697 256.6308,-486.4738 317.3125,-506.1207"/>
<polygon fill="#9a32cd" stroke="#9a32cd" points="98.6967,-431.6607 88.1048,-431.9102 96.5404,-438.3204 98.6967,-431.6607"/>
<text text-anchor="middle" x="215.5454" y="-491.1716" font-family="Helvetica,sans-Serif" font-size="10.00" fill="#000000"> overwriteDefaultWeather</text>
</g>
<!-- Node8 -->
<g id="node9" class="node">
<title>Node8</title>
<polygon fill="none" stroke="#bfbfbf" points="51.8188,-302.1716 51.8188,-320.1716 88.9419,-320.1716 88.9419,-302.1716 51.8188,-302.1716"/>
<text text-anchor="middle" x="70.3804" y="-308.1716" font-family="Helvetica,sans-Serif" font-size="10.00" fill="#000000">vec2</text>
</g>
<!-- Node8&#45;&gt;Node5 -->
<g id="edge19" class="edge">
<title>Node8&#45;&gt;Node5</title>
<path fill="none" stroke="#9a32cd" stroke-dasharray="5,2" d="M99.0951,-313.459C191.4683,-321.2876 479.2854,-349.4806 554.002,-402.1716 599.8074,-434.4742 627.2802,-498.7927 637.6419,-527.1675"/>
<polygon fill="#9a32cd" stroke="#9a32cd" points="99.3232,-309.966 89.0674,-312.6246 98.7427,-316.9419 99.3232,-309.966"/>
<text text-anchor="middle" x="360.7104" y="-360.1716" font-family="Helvetica,sans-Serif" font-size="10.00" fill="#000000"> initialRotation</text>
</g>
<!-- Node8&#45;&gt;Node6 -->
<g id="edge11" class="edge">
<title>Node8&#45;&gt;Node6</title>
<path fill="none" stroke="#9a32cd" stroke-dasharray="5,2" d="M98.9086,-320.3821C139.3504,-334.1361 214.8229,-362.4092 272.3301,-399.1716 281.3485,-404.9367 281.0822,-409.7824 290.3301,-415.1716 301.0379,-421.4116 313.6121,-426.3466 325.1471,-430.0778"/>
<polygon fill="#9a32cd" stroke="#9a32cd" points="99.7725,-316.9804 89.1787,-317.1243 97.55,-323.6183 99.7725,-316.9804"/>
<text text-anchor="middle" x="215.5454" y="-411.1716" font-family="Helvetica,sans-Serif" font-size="10.00" fill="#000000"> currentTime</text>
<text text-anchor="middle" x="215.5454" y="-401.1716" font-family="Helvetica,sans-Serif" font-size="10.00" fill="#000000">currentDate</text>
</g>
<!-- Node9&#45;&gt;Node5 -->
<g id="edge12" class="edge">
<title>Node9&#45;&gt;Node5</title>
<path fill="none" stroke="#9a32cd" stroke-dasharray="5,2" d="M423.3893,-524.8446C473.2986,-528.5656 542.3711,-533.7153 589.5131,-537.2299"/>
<polygon fill="#9a32cd" stroke="#9a32cd" points="423.5929,-521.3502 413.3603,-524.0969 423.0724,-528.3308 423.5929,-521.3502"/>
<text text-anchor="middle" x="501.5464" y="-536.1716" font-family="Helvetica,sans-Serif" font-size="10.00" fill="#000000"> weather</text>
</g>
<!-- Node11 -->
<g id="node11" class="node">
<title>Node11</title>
<polygon fill="none" stroke="#bfbfbf" points="50.1538,-244.1716 50.1538,-262.1716 90.6069,-262.1716 90.6069,-244.1716 50.1538,-244.1716"/>
<text text-anchor="middle" x="70.3804" y="-250.1716" font-family="Helvetica,sans-Serif" font-size="10.00" fill="#000000">string</text>
</g>
<!-- Node11&#45;&gt;Node5 -->
<g id="edge16" class="edge">
<title>Node11&#45;&gt;Node5</title>
<path fill="none" stroke="#9a32cd" stroke-dasharray="5,2" d="M100.1552,-240.4829C165.8603,-214.6384 325.7806,-163.7907 431.0908,-231.1716 447.1714,-241.4604 437.54,-254.9721 449.0908,-270.1716 486.0872,-318.8543 516.5289,-310.8549 554.002,-359.1716 597.0559,-414.684 626.7811,-494.5423 637.7257,-526.8239"/>
<polygon fill="#9a32cd" stroke="#9a32cd" points="98.7724,-237.2665 90.8014,-244.246 101.3851,-243.7607 98.7724,-237.2665"/>
<text text-anchor="middle" x="360.7104" y="-263.1716" font-family="Helvetica,sans-Serif" font-size="10.00" fill="#000000"> preview</text>
<text text-anchor="middle" x="360.7104" y="-253.1716" font-family="Helvetica,sans-Serif" font-size="10.00" fill="#000000">author</text>
<text text-anchor="middle" x="360.7104" y="-243.1716" font-family="Helvetica,sans-Serif" font-size="10.00" fill="#000000">environment</text>
<text text-anchor="middle" x="360.7104" y="-233.1716" font-family="Helvetica,sans-Serif" font-size="10.00" fill="#000000">description</text>
</g>
<!-- Node11&#45;&gt;Node22 -->
<g id="edge32" class="edge">
<title>Node11&#45;&gt;Node22</title>
<path fill="none" stroke="#9a32cd" stroke-dasharray="5,2" d="M100.7439,-252.8471C140.5085,-252.9401 212.2326,-254.891 272.3301,-266.1716 289.4148,-269.3785 307.8141,-274.863 323.3781,-280.1325"/>
<polygon fill="#9a32cd" stroke="#9a32cd" points="100.6406,-249.3472 90.646,-252.8627 100.6514,-256.3472 100.6406,-249.3472"/>
<text text-anchor="middle" x="215.5454" y="-278.1716" font-family="Helvetica,sans-Serif" font-size="10.00" fill="#000000"> diffuseTexture</text>
<text text-anchor="middle" x="215.5454" y="-268.1716" font-family="Helvetica,sans-Serif" font-size="10.00" fill="#000000">bumpMapTexture</text>
</g>
<!-- Node12&#45;&gt;Node5 -->
<g id="edge17" class="edge">
<title>Node12&#45;&gt;Node5</title>
<path fill="none" stroke="#9a32cd" stroke-dasharray="5,2" d="M423.3566,-680.3571C463.1279,-677.9461 514.3785,-669.9873 554.002,-647.1716 592.8306,-624.8135 622.0914,-578.5592 635.0441,-555.2495"/>
<polygon fill="#9a32cd" stroke="#9a32cd" points="423.0578,-676.8676 413.2467,-680.8667 423.4103,-683.8587 423.0578,-676.8676"/>
<text text-anchor="middle" x="501.5464" y="-679.1716" font-family="Helvetica,sans-Serif" font-size="10.00" fill="#000000"> version</text>
</g>
<!-- Node14 -->
<g id="node13" class="node">
<title>Node14</title>
<polygon fill="none" stroke="#bfbfbf" points="342.1489,-629.1716 342.1489,-647.1716 379.272,-647.1716 379.272,-629.1716 342.1489,-629.1716"/>
<text text-anchor="middle" x="360.7104" y="-635.1716" font-family="Helvetica,sans-Serif" font-size="10.00" fill="#000000">vec3</text>
</g>
<!-- Node14&#45;&gt;Node5 -->
<g id="edge20" class="edge">
<title>Node14&#45;&gt;Node5</title>
<path fill="none" stroke="#9a32cd" stroke-dasharray="5,2" d="M389.4506,-638.0528C428.2888,-636.9408 498.9957,-631.5133 554.002,-608.1716 583.6021,-595.6109 612.1938,-570.926 628.4963,-555.2804"/>
<polygon fill="#9a32cd" stroke="#9a32cd" points="389.3055,-634.555 379.3809,-638.2634 389.4519,-641.5535 389.3055,-634.555"/>
<text text-anchor="middle" x="501.5464" y="-635.1716" font-family="Helvetica,sans-Serif" font-size="10.00" fill="#000000"> initialPosition</text>
</g>
<!-- Node15 -->
<g id="node14" class="node">
<title>Node15</title>
<polygon fill="none" stroke="#bfbfbf" points="331.6777,-592.1716 331.6777,-610.1716 389.7432,-610.1716 389.7432,-592.1716 331.6777,-592.1716"/>
<text text-anchor="middle" x="360.7104" y="-598.1716" font-family="Helvetica,sans-Serif" font-size="10.00" fill="#000000">RideView</text>
</g>
<!-- Node15&#45;&gt;Node5 -->
<g id="edge21" class="edge">
<title>Node15&#45;&gt;Node5</title>
<path fill="none" stroke="#9a32cd" stroke-dasharray="5,2" d="M399.9853,-599.3261C439.4464,-596.7686 501.7389,-590.8048 554.002,-577.1716 574.3619,-571.8606 596.2721,-562.9591 613.1838,-555.3368"/>
<polygon fill="#9a32cd" stroke="#9a32cd" points="399.7466,-595.834 389.9768,-599.9332 400.1704,-602.8212 399.7466,-595.834"/>
<text text-anchor="middle" x="501.5464" y="-596.1716" font-family="Helvetica,sans-Serif" font-size="10.00" fill="#000000"> initialView</text>
</g>
<!-- Node16&#45;&gt;Node0 -->
<g id="edge22" class="edge">
<title>Node16&#45;&gt;Node0</title>
<path fill="none" stroke="#9a32cd" stroke-dasharray="5,2" d="M564.1716,-704.1501C627.5602,-692.9942 724.4861,-675.9361 784.0704,-665.4497"/>
<polygon fill="#9a32cd" stroke="#9a32cd" points="563.5389,-700.7076 554.2969,-705.8879 564.7522,-707.6016 563.5389,-700.7076"/>
<text text-anchor="middle" x="642.3823" y="-704.1716" font-family="Helvetica,sans-Serif" font-size="10.00" fill="#000000"> uspk</text>
</g>
<!-- Node17&#45;&gt;Node0 -->
<g id="edge24" class="edge">
<title>Node17&#45;&gt;Node0</title>
<path fill="none" stroke="#9a32cd" stroke-dasharray="5,2" d="M651.8592,-198.6191C686.1901,-283.5604 803.4732,-573.7408 830.9819,-641.8023"/>
<polygon fill="#9a32cd" stroke="#9a32cd" points="655.0876,-197.2663 648.0953,-189.3065 648.5976,-199.8894 655.0876,-197.2663"/>
<text text-anchor="middle" x="748.5483" y="-474.1716" font-family="Helvetica,sans-Serif" font-size="10.00" fill="#000000"> terrain</text>
</g>
<!-- Node18 -->
<g id="node17" class="node">
<title>Node18</title>
<polygon fill="none" stroke="#bfbfbf" points="317.6909,-8.1716 317.6909,-26.1716 403.73,-26.1716 403.73,-8.1716 317.6909,-8.1716"/>
<text text-anchor="middle" x="360.7104" y="-14.1716" font-family="Helvetica,sans-Serif" font-size="10.00" fill="#000000">vector&lt; float * &gt;</text>
</g>
<!-- Node18&#45;&gt;Node17 -->
<g id="edge26" class="edge">
<title>Node18&#45;&gt;Node17</title>
<path fill="none" stroke="#9a32cd" stroke-dasharray="5,2" d="M404.2971,-6.0577C447.9411,2.2168 514.1809,6.5654 554.002,-30.1716 593.9633,-67.0381 537.1879,-109.41 572.002,-151.1716 576.7964,-156.9229 583.0311,-161.3001 589.8072,-164.6305"/>
<polygon fill="#9a32cd" stroke="#9a32cd" points="403.3603,-2.6766 394.2614,-8.1043 404.7591,-9.5355 403.3603,-2.6766"/>
<text text-anchor="middle" x="501.5464" y="-32.1716" font-family="Helvetica,sans-Serif" font-size="10.00" fill="#000000"> terrainIntensityLayers</text>
</g>
<!-- Node19 -->
<g id="node18" class="node">
<title>Node19</title>
<polygon fill="none" stroke="#bfbfbf" points="339.9248,-166.1716 339.9248,-184.1716 381.4961,-184.1716 381.4961,-166.1716 339.9248,-166.1716"/>
<text text-anchor="middle" x="360.7104" y="-172.1716" font-family="Helvetica,sans-Serif" font-size="10.00" fill="#000000">float *</text>
</g>
<!-- Node19&#45;&gt;Node17 -->
<g id="edge27" class="edge">
<title>Node19&#45;&gt;Node17</title>
<path fill="none" stroke="#9a32cd" stroke-dasharray="5,2" d="M391.9347,-175.1716C439.723,-175.1716 531.5706,-175.1716 589.7685,-175.1716"/>
<polygon fill="#9a32cd" stroke="#9a32cd" points="391.8817,-171.6717 381.8816,-175.1716 391.8816,-178.6717 391.8817,-171.6717"/>
<text text-anchor="middle" x="501.5464" y="-177.1716" font-family="Helvetica,sans-Serif" font-size="10.00" fill="#000000"> terrainData</text>
</g>
<!-- Node20 -->
<g id="node19" class="node">
<title>Node20</title>
<polygon fill="none" stroke="#bfbfbf" points="290.3301,-119.1716 290.3301,-147.1716 431.0908,-147.1716 431.0908,-119.1716 290.3301,-119.1716"/>
<text text-anchor="start" x="298.3301" y="-135.1716" font-family="Helvetica,sans-Serif" font-size="10.00" fill="#000000">vector&lt; NoLimits::NoLimits2</text>
<text text-anchor="middle" x="360.7104" y="-125.1716" font-family="Helvetica,sans-Serif" font-size="10.00" fill="#000000">::Layer * &gt;</text>
</g>
<!-- Node20&#45;&gt;Node17 -->
<g id="edge28" class="edge">
<title>Node20&#45;&gt;Node17</title>
<path fill="none" stroke="#9a32cd" stroke-dasharray="5,2" d="M441.5028,-144.6317C476.1555,-149.6101 517.0816,-155.5735 554.002,-161.1716 565.5216,-162.9183 577.8772,-164.8431 589.5902,-166.6919"/>
<polygon fill="#9a32cd" stroke="#9a32cd" points="441.8298,-141.1429 431.4341,-143.1875 440.8358,-148.072 441.8298,-141.1429"/>
<text text-anchor="middle" x="501.5464" y="-163.1716" font-family="Helvetica,sans-Serif" font-size="10.00" fill="#000000"> layer</text>
</g>
<!-- Node21 -->
<g id="node20" class="node">
<title>Node21</title>
<polygon fill="none" stroke="#bfbfbf" points="334.9175,-82.1716 334.9175,-100.1716 386.5034,-100.1716 386.5034,-82.1716 334.9175,-82.1716"/>
<text text-anchor="middle" x="360.7104" y="-88.1716" font-family="Helvetica,sans-Serif" font-size="10.00" fill="#000000">uint32_t</text>
</g>
<!-- Node21&#45;&gt;Node17 -->
<g id="edge29" class="edge">
<title>Node21&#45;&gt;Node17</title>
<path fill="none" stroke="#9a32cd" stroke-dasharray="5,2" d="M396.6878,-88.7825C438.0274,-87.8079 506.2908,-91.7925 554.002,-123.1716 566.3623,-131.3009 560.3516,-142.0539 572.002,-151.1716 577.2885,-155.3089 583.3313,-158.7557 589.6049,-161.6217"/>
<polygon fill="#9a32cd" stroke="#9a32cd" points="396.408,-85.29 386.5355,-89.135 396.6509,-92.2858 396.408,-85.29"/>
<text text-anchor="middle" x="501.5464" y="-135.1716" font-family="Helvetica,sans-Serif" font-size="10.00" fill="#000000"> vertexDimX</text>
<text text-anchor="middle" x="501.5464" y="-125.1716" font-family="Helvetica,sans-Serif" font-size="10.00" fill="#000000">vertexDimY</text>
</g>
<!-- Node22&#45;&gt;Node17 -->
<g id="edge30" class="edge">
<title>Node22&#45;&gt;Node17</title>
<path fill="none" stroke="#9a32cd" stroke-dasharray="5,2" d="M405.7604,-276.1802C414.2237,-272.639 422.9638,-268.8718 431.0908,-265.1716 439.2311,-261.4654 440.9617,-259.9021 449.0908,-256.1716 503.4894,-231.2077 567.7887,-204.8808 606.8031,-189.2504"/>
<polygon fill="#9a32cd" stroke="#9a32cd" points="404.2716,-273.0084 396.3701,-280.0665 406.9485,-279.4763 404.2716,-273.0084"/>
<text text-anchor="middle" x="501.5464" y="-258.1716" font-family="Helvetica,sans-Serif" font-size="10.00" fill="#000000"> water</text>
</g>
<!-- Node24 -->
<g id="node22" class="node">
<title>Node24</title>
<polygon fill="none" stroke="#bfbfbf" points="321.0259,-45.1716 321.0259,-63.1716 400.395,-63.1716 400.395,-45.1716 321.0259,-45.1716"/>
<text text-anchor="middle" x="360.7104" y="-51.1716" font-family="Helvetica,sans-Serif" font-size="10.00" fill="#000000">vector&lt; float &gt;</text>
</g>
<!-- Node24&#45;&gt;Node17 -->
<g id="edge33" class="edge">
<title>Node24&#45;&gt;Node17</title>
<path fill="none" stroke="#9a32cd" stroke-dasharray="5,2" d="M410.4287,-45.7064C453.6514,-41.3515 515.2564,-42.8234 554.002,-77.1716 579.3301,-99.6252 549.1691,-126.1848 572.002,-151.1716 576.9658,-156.6037 583.2084,-160.8067 589.9141,-164.0585"/>
<polygon fill="#9a32cd" stroke="#9a32cd" points="409.9466,-42.2387 400.409,-46.8522 410.7419,-49.1933 409.9466,-42.2387"/>
<text text-anchor="middle" x="501.5464" y="-79.1716" font-family="Helvetica,sans-Serif" font-size="10.00" fill="#000000"> textureRepeats</text>
</g>
<!-- Node25 -->
<g id="node23" class="node">
<title>Node25</title>
<polygon fill="none" stroke="#bfbfbf" points="572.002,-114.1716 572.002,-142.1716 712.7627,-142.1716 712.7627,-114.1716 572.002,-114.1716"/>
<text text-anchor="start" x="580.002" y="-130.1716" font-family="Helvetica,sans-Serif" font-size="10.00" fill="#000000">vector&lt; NoLimits::NoLimits2</text>
<text text-anchor="middle" x="642.3823" y="-120.1716" font-family="Helvetica,sans-Serif" font-size="10.00" fill="#000000">::Coaster * &gt;</text>
</g>
<!-- Node25&#45;&gt;Node0 -->
<g id="edge34" class="edge">
<title>Node25&#45;&gt;Node0</title>
<path fill="none" stroke="#9a32cd" stroke-dasharray="5,2" d="M709.9114,-148.3529C710.9009,-149.2519 711.8529,-150.1909 712.7627,-151.1716 782.7563,-226.6238 826.4535,-568.2493 835.1749,-642.0772"/>
<polygon fill="#9a32cd" stroke="#9a32cd" points="711.7848,-145.384 701.6754,-142.2136 707.6012,-150.9963 711.7848,-145.384"/>
<text text-anchor="middle" x="748.5483" y="-261.1716" font-family="Helvetica,sans-Serif" font-size="10.00" fill="#000000"> coaster</text>
</g>
</g>
</svg>
