<?xml version="1.0" encoding="UTF-8" standalone="no"?>
<!DOCTYPE svg PUBLIC "-//W3C//DTD SVG 1.1//EN"
 "http://www.w3.org/Graphics/SVG/1.1/DTD/svg11.dtd">
<!-- Generated by graphviz version 2.40.1 (20161225.0304)
 -->
<!-- Title: NoLimits::NoLimits2::Water Pages: 1 -->
<svg width="516pt" height="162pt"
 viewBox="0.00 0.00 515.83 162.00" xmlns="http://www.w3.org/2000/svg" xmlns:xlink="http://www.w3.org/1999/xlink">
<g id="graph0" class="graph" transform="scale(1 1) rotate(0) translate(4 158)">
<title>NoLimits::NoLimits2::Water</title>
<!-- Node0 -->
<g id="node1" class="node">
<title>Node0</title>
<polygon fill="#bfbfbf" stroke="#000000" points="172.1182,-.5 172.1182,-28.5 277.0293,-28.5 277.0293,-.5 172.1182,-.5"/>
<text text-anchor="start" x="180.1182" y="-16.5" font-family="Helvetica,sans-Serif" font-size="10.00" fill="#000000">NoLimits::NoLimits2</text>
<text text-anchor="middle" x="224.5737" y="-6.5" font-family="Helvetica,sans-Serif" font-size="10.00" fill="#000000">::Water</text>
</g>
<!-- Node1 -->
<g id="node2" class="node">
<title>Node1</title>
<g id="a_node2"><a xlink:href="class_no_limits_1_1_stream_1_1_chunk.html" target="_top" xlink:title="NoLimits::Stream::Chunk">
<polygon fill="none" stroke="#000000" points="0,-135.5 0,-153.5 127.1475,-153.5 127.1475,-135.5 0,-135.5"/>
<text text-anchor="middle" x="63.5737" y="-141.5" font-family="Helvetica,sans-Serif" font-size="10.00" fill="#000000">NoLimits::Stream::Chunk</text>
</a>
</g>
</g>
<!-- Node1&#45;&gt;Node0 -->
<g id="edge1" class="edge">
<title>Node1&#45;&gt;Node0</title>
<path fill="none" stroke="#191970" d="M78.7523,-127.7839C97.9398,-107.2329 132.5834,-72.0107 166.5737,-47 175.7777,-40.2276 186.5369,-33.8328 196.2721,-28.5364"/>
<polygon fill="#191970" stroke="#191970" points="75.9539,-125.6554 71.7437,-135.3778 81.098,-130.4029 75.9539,-125.6554"/>
</g>
<!-- Node2 -->
<g id="node3" class="node">
<title>Node2</title>
<polygon fill="none" stroke="#bfbfbf" points="145.564,-135.5 145.564,-153.5 211.5835,-153.5 211.5835,-135.5 145.564,-135.5"/>
<text text-anchor="middle" x="178.5737" y="-141.5" font-family="Helvetica,sans-Serif" font-size="10.00" fill="#000000">TerrainMap</text>
</g>
<!-- Node2&#45;&gt;Node0 -->
<g id="edge2" class="edge">
<title>Node2&#45;&gt;Node0</title>
<path fill="none" stroke="#9a32cd" stroke-dasharray="5,2" d="M173.9206,-125.2082C170.0174,-104.6076 166.9023,-71.6063 179.6431,-47 183.45,-39.6477 189.7697,-33.5675 196.4844,-28.7344"/>
<polygon fill="#9a32cd" stroke="#9a32cd" points="170.5541,-126.2022 176.0744,-135.2452 177.3983,-124.7334 170.5541,-126.2022"/>
<text text-anchor="middle" x="215.0391" y="-79" font-family="Helvetica,sans-Serif" font-size="10.00" fill="#000000"> bumpMapType</text>
</g>
<!-- Node3 -->
<g id="node4" class="node">
<title>Node3</title>
<polygon fill="none" stroke="#bfbfbf" points="253.123,-135.5 253.123,-153.5 288.0244,-153.5 288.0244,-135.5 253.123,-135.5"/>
<text text-anchor="middle" x="270.5737" y="-141.5" font-family="Helvetica,sans-Serif" font-size="10.00" fill="#000000">float</text>
</g>
<!-- Node3&#45;&gt;Node0 -->
<g id="edge3" class="edge">
<title>Node3&#45;&gt;Node0</title>
<path fill="none" stroke="#9a32cd" stroke-dasharray="5,2" d="M268.5875,-125.0908C265.9772,-104.8533 260.2734,-72.5781 248.5737,-47 245.5978,-40.4939 241.1832,-34.013 236.9489,-28.5699"/>
<polygon fill="#9a32cd" stroke="#9a32cd" points="265.1341,-125.6953 269.7634,-135.2252 272.0874,-124.8884 265.1341,-125.6953"/>
<text text-anchor="middle" x="334.6646" y="-109" font-family="Helvetica,sans-Serif" font-size="10.00" fill="#000000"> waves</text>
<text text-anchor="middle" x="334.6646" y="-99" font-family="Helvetica,sans-Serif" font-size="10.00" fill="#000000">density</text>
<text text-anchor="middle" x="334.6646" y="-89" font-family="Helvetica,sans-Serif" font-size="10.00" fill="#000000">bumpMapRepeatsPerDistance</text>
<text text-anchor="middle" x="334.6646" y="-79" font-family="Helvetica,sans-Serif" font-size="10.00" fill="#000000">bumpMapHeightMapScale</text>
<text text-anchor="middle" x="334.6646" y="-69" font-family="Helvetica,sans-Serif" font-size="10.00" fill="#000000">reflection</text>
<text text-anchor="start" x="266.5737" y="-59" font-family="Helvetica,sans-Serif" font-size="10.00" fill="#000000">diffuseTextureRepeatsPer</text>
<text text-anchor="middle" x="334.6646" y="-49" font-family="Helvetica,sans-Serif" font-size="10.00" fill="#000000">Distance</text>
</g>
<!-- Node4 -->
<g id="node5" class="node">
<title>Node4</title>
<polygon fill="none" stroke="#bfbfbf" points="409.3472,-135.5 409.3472,-153.5 449.8003,-153.5 449.8003,-135.5 409.3472,-135.5"/>
<text text-anchor="middle" x="429.5737" y="-141.5" font-family="Helvetica,sans-Serif" font-size="10.00" fill="#000000">string</text>
</g>
<!-- Node4&#45;&gt;Node0 -->
<g id="edge4" class="edge">
<title>Node4&#45;&gt;Node0</title>
<path fill="none" stroke="#9a32cd" stroke-dasharray="5,2" d="M430.8083,-125.2184C431.0913,-103.0574 427.8708,-67.1577 406.5737,-47 388.3329,-29.735 324.3769,-21.4332 277.4167,-17.588"/>
<polygon fill="#9a32cd" stroke="#9a32cd" points="427.3038,-125.272 430.4181,-135.3988 434.2986,-125.5402 427.3038,-125.272"/>
<text text-anchor="middle" x="469.2041" y="-84" font-family="Helvetica,sans-Serif" font-size="10.00" fill="#000000"> diffuseTexture</text>
<text text-anchor="middle" x="469.2041" y="-74" font-family="Helvetica,sans-Serif" font-size="10.00" fill="#000000">bumpMapTexture</text>
</g>
</g>
</svg>
