<?xml version="1.0" encoding="UTF-8" standalone="no"?>
<!DOCTYPE svg PUBLIC "-//W3C//DTD SVG 1.1//EN"
 "http://www.w3.org/Graphics/SVG/1.1/DTD/svg11.dtd">
<!-- Generated by graphviz version 2.40.1 (20161225.0304)
 -->
<!-- Title: NoLimits::NoLimits2::BeamNodeConnection Pages: 1 -->
<svg width="260pt" height="188pt"
 viewBox="0.00 0.00 260.42 188.00" xmlns="http://www.w3.org/2000/svg" xmlns:xlink="http://www.w3.org/1999/xlink">
<g id="graph0" class="graph" transform="scale(1 1) rotate(0) translate(4 184)">
<title>NoLimits::NoLimits2::BeamNodeConnection</title>
<!-- Node0 -->
<g id="node1" class="node">
<title>Node0</title>
<polygon fill="#bfbfbf" stroke="#000000" points="109.4854,-.5 109.4854,-28.5 231.6621,-28.5 231.6621,-.5 109.4854,-.5"/>
<text text-anchor="start" x="117.4854" y="-16.5" font-family="Helvetica,sans-Serif" font-size="10.00" fill="#000000">NoLimits::NoLimits2</text>
<text text-anchor="middle" x="170.5737" y="-6.5" font-family="Helvetica,sans-Serif" font-size="10.00" fill="#000000">::BeamNodeConnection</text>
</g>
<!-- Node1 -->
<g id="node2" class="node">
<title>Node1</title>
<g id="a_node2"><a xlink:href="class_no_limits_1_1_no_limits2_1_1_beam_connection.html" target="_top" xlink:title="NoLimits::NoLimits2\l::BeamConnection">
<polygon fill="none" stroke="#000000" points="118.1182,-66.5 118.1182,-94.5 223.0293,-94.5 223.0293,-66.5 118.1182,-66.5"/>
<text text-anchor="start" x="126.1182" y="-82.5" font-family="Helvetica,sans-Serif" font-size="10.00" fill="#000000">NoLimits::NoLimits2</text>
<text text-anchor="middle" x="170.5737" y="-72.5" font-family="Helvetica,sans-Serif" font-size="10.00" fill="#000000">::BeamConnection</text>
</a>
</g>
</g>
<!-- Node1&#45;&gt;Node0 -->
<g id="edge1" class="edge">
<title>Node1&#45;&gt;Node0</title>
<path fill="none" stroke="#191970" d="M170.5737,-56.0322C170.5737,-46.8606 170.5737,-36.7449 170.5737,-28.7931"/>
<polygon fill="#191970" stroke="#191970" points="167.0738,-56.1789 170.5737,-66.179 174.0738,-56.179 167.0738,-56.1789"/>
</g>
<!-- Node2 -->
<g id="node3" class="node">
<title>Node2</title>
<g id="a_node3"><a xlink:href="class_no_limits_1_1_stream_1_1_chunk.html" target="_top" xlink:title="NoLimits::Stream::Chunk">
<polygon fill="none" stroke="#000000" points="0,-161.5 0,-179.5 127.1475,-179.5 127.1475,-161.5 0,-161.5"/>
<text text-anchor="middle" x="63.5737" y="-167.5" font-family="Helvetica,sans-Serif" font-size="10.00" fill="#000000">NoLimits::Stream::Chunk</text>
</a>
</g>
</g>
<!-- Node2&#45;&gt;Node1 -->
<g id="edge2" class="edge">
<title>Node2&#45;&gt;Node1</title>
<path fill="none" stroke="#191970" d="M82.5145,-154.5685C102.7396,-137.5567 134.484,-110.8559 153.8256,-94.5872"/>
<polygon fill="#191970" stroke="#191970" points="80.0215,-152.0919 74.6216,-161.2074 84.5274,-157.4489 80.0215,-152.0919"/>
</g>
<!-- Node3 -->
<g id="node4" class="node">
<title>Node3</title>
<polygon fill="none" stroke="#bfbfbf" points="144.7808,-161.5 144.7808,-179.5 196.3667,-179.5 196.3667,-161.5 144.7808,-161.5"/>
<text text-anchor="middle" x="170.5737" y="-167.5" font-family="Helvetica,sans-Serif" font-size="10.00" fill="#000000">uint32_t</text>
</g>
<!-- Node3&#45;&gt;Node1 -->
<g id="edge3" class="edge">
<title>Node3&#45;&gt;Node1</title>
<path fill="none" stroke="#9a32cd" stroke-dasharray="5,2" d="M170.5737,-150.7822C170.5737,-133.7955 170.5737,-109.6938 170.5737,-94.5872"/>
<polygon fill="#9a32cd" stroke="#9a32cd" points="167.0738,-151.2074 170.5737,-161.2074 174.0738,-151.2074 167.0738,-151.2074"/>
<text text-anchor="middle" x="186.6968" y="-135" font-family="Helvetica,sans-Serif" font-size="10.00" fill="#000000"> index1</text>
<text text-anchor="middle" x="186.6968" y="-125" font-family="Helvetica,sans-Serif" font-size="10.00" fill="#000000">index2</text>
<text text-anchor="middle" x="186.6968" y="-115" font-family="Helvetica,sans-Serif" font-size="10.00" fill="#000000">index3</text>
</g>
<!-- Node4 -->
<g id="node5" class="node">
<title>Node4</title>
<polygon fill="none" stroke="#bfbfbf" points="214.7314,-161.5 214.7314,-179.5 252.416,-179.5 252.416,-161.5 214.7314,-161.5"/>
<text text-anchor="middle" x="233.5737" y="-167.5" font-family="Helvetica,sans-Serif" font-size="10.00" fill="#000000">Type</text>
</g>
<!-- Node4&#45;&gt;Node1 -->
<g id="edge4" class="edge">
<title>Node4&#45;&gt;Node1</title>
<path fill="none" stroke="#9a32cd" stroke-dasharray="5,2" d="M226.9352,-151.6533C222.2759,-139.894 215.3209,-124.8042 206.5737,-113 201.6609,-106.3701 195.2338,-100.0535 189.1718,-94.7819"/>
<polygon fill="#9a32cd" stroke="#9a32cd" points="223.772,-153.187 230.5543,-161.3264 230.3282,-150.734 223.772,-153.187"/>
<text text-anchor="middle" x="233.4136" y="-125" font-family="Helvetica,sans-Serif" font-size="10.00" fill="#000000"> type</text>
</g>
</g>
</svg>
