<?xml version="1.0" encoding="UTF-8" standalone="no"?>
<!DOCTYPE svg PUBLIC "-//W3C//DTD SVG 1.1//EN"
 "http://www.w3.org/Graphics/SVG/1.1/DTD/svg11.dtd">
<!-- Generated by graphviz version 2.40.1 (20161225.0304)
 -->
<!-- Title: NoLimits::NoLimits2::WaitTime Pages: 1 -->
<svg width="227pt" height="132pt"
 viewBox="0.00 0.00 227.06 132.00" xmlns="http://www.w3.org/2000/svg" xmlns:xlink="http://www.w3.org/1999/xlink">
<g id="graph0" class="graph" transform="scale(1 1) rotate(0) translate(4 128)">
<title>NoLimits::NoLimits2::WaitTime</title>
<!-- Node0 -->
<g id="node1" class="node">
<title>Node0</title>
<polygon fill="#bfbfbf" stroke="#000000" points="14.5591,-.5 14.5591,-28.5 119.4702,-28.5 119.4702,-.5 14.5591,-.5"/>
<text text-anchor="start" x="22.5591" y="-16.5" font-family="Helvetica,sans-Serif" font-size="10.00" fill="#000000">NoLimits::NoLimits2</text>
<text text-anchor="middle" x="67.0146" y="-6.5" font-family="Helvetica,sans-Serif" font-size="10.00" fill="#000000">::WaitTime</text>
</g>
<!-- Node1 -->
<g id="node2" class="node">
<title>Node1</title>
<polygon fill="none" stroke="#bfbfbf" points="0,-105.5 0,-123.5 46.0293,-123.5 46.0293,-105.5 0,-105.5"/>
<text text-anchor="middle" x="23.0146" y="-111.5" font-family="Helvetica,sans-Serif" font-size="10.00" fill="#000000">double</text>
</g>
<!-- Node1&#45;&gt;Node0 -->
<g id="edge1" class="edge">
<title>Node1&#45;&gt;Node0</title>
<path fill="none" stroke="#9a32cd" stroke-dasharray="5,2" d="M28.507,-95.2668C32.7341,-81.5082 39.1223,-62.7192 46.6797,-47 49.679,-40.7615 53.5974,-34.228 57.1932,-28.6688"/>
<polygon fill="#9a32cd" stroke="#9a32cd" points="25.0882,-94.4852 25.5993,-105.0677 31.799,-96.4763 25.0882,-94.4852"/>
<text text-anchor="middle" x="67.6821" y="-79" font-family="Helvetica,sans-Serif" font-size="10.00" fill="#000000"> average</text>
<text text-anchor="middle" x="67.6821" y="-69" font-family="Helvetica,sans-Serif" font-size="10.00" fill="#000000">deviation</text>
<text text-anchor="middle" x="67.6821" y="-59" font-family="Helvetica,sans-Serif" font-size="10.00" fill="#000000">minimum</text>
<text text-anchor="middle" x="67.6821" y="-49" font-family="Helvetica,sans-Serif" font-size="10.00" fill="#000000">maximum</text>
</g>
<!-- Node2 -->
<g id="node3" class="node">
<title>Node2</title>
<polygon fill="none" stroke="#bfbfbf" points="63.9878,-105.5 63.9878,-123.5 160.0415,-123.5 160.0415,-105.5 63.9878,-105.5"/>
<text text-anchor="middle" x="112.0146" y="-111.5" font-family="Helvetica,sans-Serif" font-size="10.00" fill="#000000">vector&lt; uint32_t &gt;</text>
</g>
<!-- Node2&#45;&gt;Node0 -->
<g id="edge2" class="edge">
<title>Node2&#45;&gt;Node0</title>
<path fill="none" stroke="#9a32cd" stroke-dasharray="5,2" d="M107.488,-95.5787C103.7827,-81.7062 97.8721,-62.6436 90.0146,-47 86.85,-40.6995 82.5559,-34.2603 78.5348,-28.7931"/>
<polygon fill="#9a32cd" stroke="#9a32cd" points="104.1341,-96.5922 109.9819,-105.4269 110.9199,-94.8737 104.1341,-96.5922"/>
<text text-anchor="middle" x="161.5366" y="-64" font-family="Helvetica,sans-Serif" font-size="10.00" fill="#000000"> synchronizeDispatchWith</text>
</g>
</g>
</svg>
