<?xml version="1.0" encoding="UTF-8" standalone="no"?>
<!DOCTYPE svg PUBLIC "-//W3C//DTD SVG 1.1//EN"
 "http://www.w3.org/Graphics/SVG/1.1/DTD/svg11.dtd">
<!-- Generated by graphviz version 2.40.1 (20161225.0304)
 -->
<!-- Title: NoLimits::NoLimits2::Station Pages: 1 -->
<svg width="605pt" height="603pt"
 viewBox="0.00 0.00 604.82 603.48" xmlns="http://www.w3.org/2000/svg" xmlns:xlink="http://www.w3.org/1999/xlink">
<g id="graph0" class="graph" transform="scale(1 1) rotate(0) translate(4 599.4835)">
<title>NoLimits::NoLimits2::Station</title>
<!-- Node0 -->
<g id="node1" class="node">
<title>Node0</title>
<polygon fill="#bfbfbf" stroke="#000000" points="491.9102,-255.9835 491.9102,-283.9835 596.8213,-283.9835 596.8213,-255.9835 491.9102,-255.9835"/>
<text text-anchor="start" x="499.9102" y="-271.9835" font-family="Helvetica,sans-Serif" font-size="10.00" fill="#000000">NoLimits::NoLimits2</text>
<text text-anchor="middle" x="544.3657" y="-261.9835" font-family="Helvetica,sans-Serif" font-size="10.00" fill="#000000">::Station</text>
</g>
<!-- Node1 -->
<g id="node2" class="node">
<title>Node1</title>
<g id="a_node2"><a xlink:href="class_no_limits_1_1_no_limits2_1_1_section.html" target="_top" xlink:title="NoLimits::NoLimits2\l::Section">
<polygon fill="none" stroke="#000000" points="278.1914,-519.9835 278.1914,-547.9835 383.1025,-547.9835 383.1025,-519.9835 278.1914,-519.9835"/>
<text text-anchor="start" x="286.1914" y="-535.9835" font-family="Helvetica,sans-Serif" font-size="10.00" fill="#000000">NoLimits::NoLimits2</text>
<text text-anchor="middle" x="330.647" y="-525.9835" font-family="Helvetica,sans-Serif" font-size="10.00" fill="#000000">::Section</text>
</a>
</g>
</g>
<!-- Node1&#45;&gt;Node0 -->
<g id="edge1" class="edge">
<title>Node1&#45;&gt;Node0</title>
<path fill="none" stroke="#191970" d="M392.9163,-520.7898C420.9365,-512.009 452.4608,-497.7514 473.9102,-474.9835 526.9413,-418.6922 540.2329,-320.6764 543.4133,-284.1966"/>
<polygon fill="#191970" stroke="#191970" points="391.7698,-517.4789 383.1737,-523.6722 393.7558,-524.1913 391.7698,-517.4789"/>
</g>
<!-- Node1&#45;&gt;Node1 -->
<g id="edge3" class="edge">
<title>Node1&#45;&gt;Node1</title>
<path fill="none" stroke="#9a32cd" stroke-dasharray="5,2" d="M311.4853,-557.9708C313.52,-562.9248 319.9072,-566.4835 330.647,-566.4835 347.8306,-566.4835 353.8717,-557.3733 348.7703,-548.0139"/>
<polygon fill="#9a32cd" stroke="#9a32cd" points="314.9675,-558.3231 312.5237,-548.0139 308.0052,-557.597 314.9675,-558.3231"/>
<text text-anchor="middle" x="330.647" y="-568.4835" font-family="Helvetica,sans-Serif" font-size="10.00" fill="#000000"> section</text>
</g>
<!-- Node2 -->
<g id="node3" class="node">
<title>Node2</title>
<g id="a_node3"><a xlink:href="class_no_limits_1_1_stream_1_1_chunk.html" target="_top" xlink:title="NoLimits::Stream::Chunk">
<polygon fill="none" stroke="#000000" points="0,-576.9835 0,-594.9835 127.1475,-594.9835 127.1475,-576.9835 0,-576.9835"/>
<text text-anchor="middle" x="63.5737" y="-582.9835" font-family="Helvetica,sans-Serif" font-size="10.00" fill="#000000">NoLimits::Stream::Chunk</text>
</a>
</g>
</g>
<!-- Node2&#45;&gt;Node1 -->
<g id="edge2" class="edge">
<title>Node2&#45;&gt;Node1</title>
<path fill="none" stroke="#191970" d="M137.6834,-578.7457C174.7796,-574.2864 220.1919,-567.5554 260.1914,-557.9835 271.2506,-555.337 283.0319,-551.674 293.7321,-548.0061"/>
<polygon fill="#191970" stroke="#191970" points="136.9773,-575.3044 127.4522,-579.9437 137.7915,-582.2569 136.9773,-575.3044"/>
</g>
<!-- Node3 -->
<g id="node4" class="node">
<title>Node3</title>
<polygon fill="none" stroke="#bfbfbf" points="43.3472,-539.9835 43.3472,-557.9835 83.8003,-557.9835 83.8003,-539.9835 43.3472,-539.9835"/>
<text text-anchor="middle" x="63.5737" y="-545.9835" font-family="Helvetica,sans-Serif" font-size="10.00" fill="#000000">string</text>
</g>
<!-- Node3&#45;&gt;Node1 -->
<g id="edge4" class="edge">
<title>Node3&#45;&gt;Node1</title>
<path fill="none" stroke="#9a32cd" stroke-dasharray="5,2" d="M94.3546,-547.2547C139.246,-544.7334 223.2838,-540.0135 278.0867,-536.9355"/>
<polygon fill="#9a32cd" stroke="#9a32cd" points="93.875,-543.776 84.0871,-547.8313 94.2676,-550.765 93.875,-543.776"/>
<text text-anchor="middle" x="202.6694" y="-545.9835" font-family="Helvetica,sans-Serif" font-size="10.00" fill="#000000"> name</text>
</g>
<!-- Node4 -->
<g id="node5" class="node">
<title>Node4</title>
<polygon fill="none" stroke="#bfbfbf" points="28.0542,-502.9835 28.0542,-520.9835 99.0933,-520.9835 99.0933,-502.9835 28.0542,-502.9835"/>
<text text-anchor="middle" x="63.5737" y="-508.9835" font-family="Helvetica,sans-Serif" font-size="10.00" fill="#000000">SectionType</text>
</g>
<!-- Node4&#45;&gt;Node1 -->
<g id="edge5" class="edge">
<title>Node4&#45;&gt;Node1</title>
<path fill="none" stroke="#9a32cd" stroke-dasharray="5,2" d="M109.3735,-513.7402C149.2756,-515.5185 208.6565,-518.762 260.1914,-523.9835 265.9684,-524.5688 271.999,-525.2763 277.9954,-526.0413"/>
<polygon fill="#9a32cd" stroke="#9a32cd" points="109.3045,-510.234 99.1624,-513.2982 109.0017,-517.2275 109.3045,-510.234"/>
<text text-anchor="middle" x="202.6694" y="-525.9835" font-family="Helvetica,sans-Serif" font-size="10.00" fill="#000000"> _sectionType</text>
</g>
<!-- Node5 -->
<g id="node6" class="node">
<title>Node5</title>
<polygon fill="none" stroke="#bfbfbf" points="292.0781,-454.9835 292.0781,-472.9835 369.2158,-472.9835 369.2158,-454.9835 292.0781,-454.9835"/>
<text text-anchor="middle" x="330.647" y="-460.9835" font-family="Helvetica,sans-Serif" font-size="10.00" fill="#000000">GateDirection</text>
</g>
<!-- Node5&#45;&gt;Node0 -->
<g id="edge6" class="edge">
<title>Node5&#45;&gt;Node0</title>
<path fill="none" stroke="#9a32cd" stroke-dasharray="5,2" d="M379.7815,-464.289C409.9543,-462.0339 447.7069,-454.52 473.9102,-432.9835 521.5439,-393.8332 537.7526,-316.3679 542.5645,-284.3503"/>
<polygon fill="#9a32cd" stroke="#9a32cd" points="379.2395,-460.8142 369.4565,-464.8816 379.6407,-467.8027 379.2395,-460.8142"/>
<text text-anchor="middle" x="437.5063" y="-462.9835" font-family="Helvetica,sans-Serif" font-size="10.00" fill="#000000"> gateDirection</text>
</g>
<!-- Node6 -->
<g id="node7" class="node">
<title>Node6</title>
<polygon fill="none" stroke="#bfbfbf" points="40.5591,-357.9835 40.5591,-375.9835 86.5884,-375.9835 86.5884,-357.9835 40.5591,-357.9835"/>
<text text-anchor="middle" x="63.5737" y="-363.9835" font-family="Helvetica,sans-Serif" font-size="10.00" fill="#000000">double</text>
</g>
<!-- Node6&#45;&gt;Node0 -->
<g id="edge7" class="edge">
<title>Node6&#45;&gt;Node0</title>
<path fill="none" stroke="#9a32cd" stroke-dasharray="5,2" d="M96.9843,-371.9524C169.9786,-381.1728 347.2784,-394.5562 473.9102,-329.9835 496.8107,-318.3059 518.6073,-297.7878 531.7343,-284.0414"/>
<polygon fill="#9a32cd" stroke="#9a32cd" points="97.3623,-368.472 86.99,-370.632 96.4454,-375.4117 97.3623,-368.472"/>
<text text-anchor="middle" x="330.647" y="-378.9835" font-family="Helvetica,sans-Serif" font-size="10.00" fill="#000000"> extraBlockLength</text>
</g>
<!-- Node7 -->
<g id="node8" class="node">
<title>Node7</title>
<g id="a_node8"><a xlink:href="class_no_limits_1_1_no_limits2_1_1_wait_time.html" target="_top" xlink:title="NoLimits::NoLimits2\l::WaitTime">
<polygon fill="none" stroke="#000000" points="278.1914,-407.9835 278.1914,-435.9835 383.1025,-435.9835 383.1025,-407.9835 278.1914,-407.9835"/>
<text text-anchor="start" x="286.1914" y="-423.9835" font-family="Helvetica,sans-Serif" font-size="10.00" fill="#000000">NoLimits::NoLimits2</text>
<text text-anchor="middle" x="330.647" y="-413.9835" font-family="Helvetica,sans-Serif" font-size="10.00" fill="#000000">::WaitTime</text>
</a>
</g>
</g>
<!-- Node6&#45;&gt;Node7 -->
<g id="edge9" class="edge">
<title>Node6&#45;&gt;Node7</title>
<path fill="none" stroke="#9a32cd" stroke-dasharray="5,2" d="M96.3302,-377.1177C111.1424,-381.4675 128.9273,-386.3691 145.1475,-389.9835 195.7301,-401.2548 209.1423,-400.0592 260.1914,-408.9835 265.9501,-409.9902 271.9691,-411.0654 277.9587,-412.1501"/>
<polygon fill="#9a32cd" stroke="#9a32cd" points="97.1895,-373.7217 86.6063,-374.2172 95.1885,-380.4297 97.1895,-373.7217"/>
<text text-anchor="middle" x="202.6694" y="-440.9835" font-family="Helvetica,sans-Serif" font-size="10.00" fill="#000000"> average</text>
<text text-anchor="middle" x="202.6694" y="-430.9835" font-family="Helvetica,sans-Serif" font-size="10.00" fill="#000000">deviation</text>
<text text-anchor="middle" x="202.6694" y="-420.9835" font-family="Helvetica,sans-Serif" font-size="10.00" fill="#000000">minimum</text>
<text text-anchor="middle" x="202.6694" y="-410.9835" font-family="Helvetica,sans-Serif" font-size="10.00" fill="#000000">maximum</text>
</g>
<!-- Node10 -->
<g id="node11" class="node">
<title>Node10</title>
<g id="a_node11"><a xlink:href="class_no_limits_1_1_no_limits2_1_1_brake_device.html" target="_top" xlink:title="NoLimits::NoLimits2\l::BrakeDevice">
<polygon fill="none" stroke="#000000" points="278.1914,-276.9835 278.1914,-304.9835 383.1025,-304.9835 383.1025,-276.9835 278.1914,-276.9835"/>
<text text-anchor="start" x="286.1914" y="-292.9835" font-family="Helvetica,sans-Serif" font-size="10.00" fill="#000000">NoLimits::NoLimits2</text>
<text text-anchor="middle" x="330.647" y="-282.9835" font-family="Helvetica,sans-Serif" font-size="10.00" fill="#000000">::BrakeDevice</text>
</a>
</g>
</g>
<!-- Node6&#45;&gt;Node10 -->
<g id="edge13" class="edge">
<title>Node6&#45;&gt;Node10</title>
<path fill="none" stroke="#9a32cd" stroke-dasharray="5,2" d="M96.4981,-361.0877C135.9392,-353.613 203.7607,-339.4454 260.1914,-320.9835 273.8378,-316.5189 288.5096,-310.482 300.9129,-304.9939"/>
<polygon fill="#9a32cd" stroke="#9a32cd" points="95.8206,-357.6536 86.6328,-362.9295 97.1053,-364.5347 95.8206,-357.6536"/>
<text text-anchor="middle" x="202.6694" y="-351.9835" font-family="Helvetica,sans-Serif" font-size="10.00" fill="#000000"> deceleration</text>
</g>
<!-- Node13 -->
<g id="node14" class="node">
<title>Node13</title>
<g id="a_node14"><a xlink:href="class_no_limits_1_1_no_limits2_1_1_transport_device.html" target="_top" xlink:title="NoLimits::NoLimits2\l::TransportDevice">
<polygon fill="none" stroke="#000000" points="278.1914,-192.9835 278.1914,-220.9835 383.1025,-220.9835 383.1025,-192.9835 278.1914,-192.9835"/>
<text text-anchor="start" x="286.1914" y="-208.9835" font-family="Helvetica,sans-Serif" font-size="10.00" fill="#000000">NoLimits::NoLimits2</text>
<text text-anchor="middle" x="330.647" y="-198.9835" font-family="Helvetica,sans-Serif" font-size="10.00" fill="#000000">::TransportDevice</text>
</a>
</g>
</g>
<!-- Node6&#45;&gt;Node13 -->
<g id="edge17" class="edge">
<title>Node6&#45;&gt;Node13</title>
<path fill="none" stroke="#9a32cd" stroke-dasharray="5,2" d="M96.0142,-357.352C107.4557,-352.4108 119.3892,-345.2135 127.1475,-334.9835 152.3236,-301.7861 115.6238,-272.3816 145.1475,-242.9835 182.0358,-206.252 209.0963,-230.9453 260.1914,-220.9835 265.9445,-219.8618 271.9599,-218.6801 277.9474,-217.4983"/>
<polygon fill="#9a32cd" stroke="#9a32cd" points="94.6831,-354.1142 86.6216,-360.989 97.2108,-360.6419 94.6831,-354.1142"/>
<text text-anchor="middle" x="202.6694" y="-284.9835" font-family="Helvetica,sans-Serif" font-size="10.00" fill="#000000"> speed</text>
<text text-anchor="middle" x="202.6694" y="-274.9835" font-family="Helvetica,sans-Serif" font-size="10.00" fill="#000000">deceleration</text>
<text text-anchor="middle" x="202.6694" y="-264.9835" font-family="Helvetica,sans-Serif" font-size="10.00" fill="#000000">acceleration</text>
<text text-anchor="middle" x="202.6694" y="-254.9835" font-family="Helvetica,sans-Serif" font-size="10.00" fill="#000000">launchAcceleration</text>
<text text-anchor="middle" x="202.6694" y="-244.9835" font-family="Helvetica,sans-Serif" font-size="10.00" fill="#000000">launchMaxSpeed</text>
</g>
<!-- Node7&#45;&gt;Node0 -->
<g id="edge8" class="edge">
<title>Node7&#45;&gt;Node0</title>
<path fill="none" stroke="#9a32cd" stroke-dasharray="5,2" d="M393.3238,-420.6217C420.2297,-417.33 450.7378,-409.7079 473.9102,-392.9835 512.2235,-365.3312 532.6981,-309.9699 540.5408,-284.0174"/>
<polygon fill="#9a32cd" stroke="#9a32cd" points="392.7918,-417.1582 383.211,-421.6812 393.5213,-424.1201 392.7918,-417.1582"/>
<text text-anchor="middle" x="437.5063" y="-420.9835" font-family="Helvetica,sans-Serif" font-size="10.00" fill="#000000"> waitTime</text>
</g>
<!-- Node8 -->
<g id="node9" class="node">
<title>Node8</title>
<polygon fill="none" stroke="#bfbfbf" points="15.5469,-465.9835 15.5469,-483.9835 111.6006,-483.9835 111.6006,-465.9835 15.5469,-465.9835"/>
<text text-anchor="middle" x="63.5737" y="-471.9835" font-family="Helvetica,sans-Serif" font-size="10.00" fill="#000000">vector&lt; uint32_t &gt;</text>
</g>
<!-- Node8&#45;&gt;Node7 -->
<g id="edge10" class="edge">
<title>Node8&#45;&gt;Node7</title>
<path fill="none" stroke="#9a32cd" stroke-dasharray="5,2" d="M121.6186,-473.0989C161.2276,-470.6981 214.577,-465.2628 260.1914,-452.9835 264.4175,-451.8458 282.7677,-443.7549 299.6802,-436.1249"/>
<polygon fill="#9a32cd" stroke="#9a32cd" points="121.3902,-469.6061 111.6014,-473.6594 121.7813,-476.5952 121.3902,-469.6061"/>
<text text-anchor="middle" x="202.6694" y="-472.9835" font-family="Helvetica,sans-Serif" font-size="10.00" fill="#000000"> synchronizeDispatchWith</text>
</g>
<!-- Node9 -->
<g id="node10" class="node">
<title>Node9</title>
<polygon fill="none" stroke="#bfbfbf" points="304.854,-323.9835 304.854,-341.9835 356.4399,-341.9835 356.4399,-323.9835 304.854,-323.9835"/>
<text text-anchor="middle" x="330.647" y="-329.9835" font-family="Helvetica,sans-Serif" font-size="10.00" fill="#000000">uint32_t</text>
</g>
<!-- Node9&#45;&gt;Node0 -->
<g id="edge11" class="edge">
<title>Node9&#45;&gt;Node0</title>
<path fill="none" stroke="#9a32cd" stroke-dasharray="5,2" d="M366.6594,-325.1935C395.8345,-318.5819 437.8662,-308.3735 473.9102,-296.9835 485.901,-293.1943 498.8066,-288.4502 510.2545,-284.0001"/>
<polygon fill="#9a32cd" stroke="#9a32cd" points="365.5209,-321.8616 356.5273,-327.4621 367.0504,-328.6925 365.5209,-321.8616"/>
<text text-anchor="middle" x="437.5063" y="-317.9835" font-family="Helvetica,sans-Serif" font-size="10.00" fill="#000000"> stationNumber</text>
</g>
<!-- Node10&#45;&gt;Node0 -->
<g id="edge12" class="edge">
<title>Node10&#45;&gt;Node0</title>
<path fill="none" stroke="#9a32cd" stroke-dasharray="5,2" d="M393.5283,-284.8048C424.7195,-281.7399 461.9663,-278.08 491.643,-275.164"/>
<polygon fill="#9a32cd" stroke="#9a32cd" points="392.812,-281.3582 383.2022,-285.8194 393.4965,-288.3246 392.812,-281.3582"/>
<text text-anchor="middle" x="437.5063" y="-284.9835" font-family="Helvetica,sans-Serif" font-size="10.00" fill="#000000"> brakeDevice</text>
</g>
<!-- Node11 -->
<g id="node12" class="node">
<title>Node11</title>
<polygon fill="none" stroke="#bfbfbf" points="31.6699,-306.9835 31.6699,-324.9835 95.4775,-324.9835 95.4775,-306.9835 31.6699,-306.9835"/>
<text text-anchor="middle" x="63.5737" y="-312.9835" font-family="Helvetica,sans-Serif" font-size="10.00" fill="#000000">BrakeType</text>
</g>
<!-- Node11&#45;&gt;Node10 -->
<g id="edge14" class="edge">
<title>Node11&#45;&gt;Node10</title>
<path fill="none" stroke="#9a32cd" stroke-dasharray="5,2" d="M105.5829,-312.0511C152.188,-307.6885 227.4603,-300.6425 277.9728,-295.9142"/>
<polygon fill="#9a32cd" stroke="#9a32cd" points="105.154,-308.5759 95.5237,-312.9927 105.8064,-315.5454 105.154,-308.5759"/>
<text text-anchor="middle" x="202.6694" y="-308.9835" font-family="Helvetica,sans-Serif" font-size="10.00" fill="#000000"> brakeType</text>
</g>
<!-- Node12 -->
<g id="node13" class="node">
<title>Node12</title>
<polygon fill="none" stroke="#bfbfbf" points="309.8662,-239.9835 309.8662,-257.9835 351.4277,-257.9835 351.4277,-239.9835 309.8662,-239.9835"/>
<text text-anchor="middle" x="330.647" y="-245.9835" font-family="Helvetica,sans-Serif" font-size="10.00" fill="#000000">Stairs</text>
</g>
<!-- Node12&#45;&gt;Node0 -->
<g id="edge15" class="edge">
<title>Node12&#45;&gt;Node0</title>
<path fill="none" stroke="#9a32cd" stroke-dasharray="5,2" d="M361.9992,-247.9853C391.1246,-247.5007 435.6373,-247.8888 473.9102,-252.9835 479.7724,-253.7638 485.8569,-254.8307 491.8845,-256.0525"/>
<polygon fill="#9a32cd" stroke="#9a32cd" points="361.5583,-244.4938 351.635,-248.2058 361.7072,-251.4922 361.5583,-244.4938"/>
<text text-anchor="middle" x="437.5063" y="-264.9835" font-family="Helvetica,sans-Serif" font-size="10.00" fill="#000000"> exitStairs</text>
<text text-anchor="middle" x="437.5063" y="-254.9835" font-family="Helvetica,sans-Serif" font-size="10.00" fill="#000000">entranceStairs</text>
</g>
<!-- Node13&#45;&gt;Node0 -->
<g id="edge16" class="edge">
<title>Node13&#45;&gt;Node0</title>
<path fill="none" stroke="#9a32cd" stroke-dasharray="5,2" d="M393.2058,-214.7924C418.6675,-218.9905 448.1155,-225.1675 473.9102,-233.9835 490.2876,-239.5808 507.6112,-248.3893 520.9823,-255.8919"/>
<polygon fill="#9a32cd" stroke="#9a32cd" points="393.7191,-211.3302 383.2948,-213.2237 392.6247,-218.2441 393.7191,-211.3302"/>
<text text-anchor="middle" x="437.5063" y="-235.9835" font-family="Helvetica,sans-Serif" font-size="10.00" fill="#000000"> transportDevice</text>
</g>
<!-- Node14 -->
<g id="node15" class="node">
<title>Node14</title>
<polygon fill="none" stroke="#bfbfbf" points="46.1206,-149.9835 46.1206,-167.9835 81.0269,-167.9835 81.0269,-149.9835 46.1206,-149.9835"/>
<text text-anchor="middle" x="63.5737" y="-155.9835" font-family="Helvetica,sans-Serif" font-size="10.00" fill="#000000">bool</text>
</g>
<!-- Node14&#45;&gt;Node0 -->
<g id="edge21" class="edge">
<title>Node14&#45;&gt;Node0</title>
<path fill="none" stroke="#9a32cd" stroke-dasharray="5,2" d="M91.3132,-153.1667C147.6712,-142.5067 279.0389,-123.5858 383.1025,-153.9835 446.994,-172.6466 506.207,-229.1007 531.4815,-255.7564"/>
<polygon fill="#9a32cd" stroke="#9a32cd" points="90.5211,-149.7552 81.3787,-155.1094 91.8645,-156.6251 90.5211,-149.7552"/>
<text text-anchor="middle" x="330.647" y="-175.9835" font-family="Helvetica,sans-Serif" font-size="10.00" fill="#000000"> useTransportDevice</text>
<text text-anchor="middle" x="330.647" y="-165.9835" font-family="Helvetica,sans-Serif" font-size="10.00" fill="#000000">shuttleBackwardsStart</text>
<text text-anchor="middle" x="330.647" y="-155.9835" font-family="Helvetica,sans-Serif" font-size="10.00" fill="#000000">unloadingOnly</text>
</g>
<!-- Node14&#45;&gt;Node13 -->
<g id="edge18" class="edge">
<title>Node14&#45;&gt;Node13</title>
<path fill="none" stroke="#9a32cd" stroke-dasharray="5,2" d="M91.5394,-163.5941C129.7019,-169.9372 200.2086,-181.8395 260.1914,-192.9835 265.9542,-194.0541 271.9757,-195.2035 277.9668,-196.3667"/>
<polygon fill="#9a32cd" stroke="#9a32cd" points="91.6626,-160.0668 81.2249,-161.8842 90.5178,-166.9726 91.6626,-160.0668"/>
<text text-anchor="middle" x="202.6694" y="-194.9835" font-family="Helvetica,sans-Serif" font-size="10.00" fill="#000000"> launch</text>
</g>
<!-- Node15 -->
<g id="node16" class="node">
<title>Node15</title>
<polygon fill="none" stroke="#bfbfbf" points="23.5181,-200.9835 23.5181,-218.9835 103.6294,-218.9835 103.6294,-200.9835 23.5181,-200.9835"/>
<text text-anchor="middle" x="63.5737" y="-206.9835" font-family="Helvetica,sans-Serif" font-size="10.00" fill="#000000">TransportType</text>
</g>
<!-- Node15&#45;&gt;Node13 -->
<g id="edge19" class="edge">
<title>Node15&#45;&gt;Node13</title>
<path fill="none" stroke="#9a32cd" stroke-dasharray="5,2" d="M114.0793,-209.4161C160.9778,-208.8893 230.5291,-208.1081 278.078,-207.574"/>
<polygon fill="#9a32cd" stroke="#9a32cd" points="113.8065,-205.9189 103.8465,-209.5311 113.8852,-212.9184 113.8065,-205.9189"/>
<text text-anchor="middle" x="202.6694" y="-210.9835" font-family="Helvetica,sans-Serif" font-size="10.00" fill="#000000"> transportType</text>
</g>
<!-- Node16 -->
<g id="node17" class="node">
<title>Node16</title>
<polygon fill="none" stroke="#bfbfbf" points="307.6348,-88.9835 307.6348,-106.9835 353.6592,-106.9835 353.6592,-88.9835 307.6348,-88.9835"/>
<text text-anchor="middle" x="330.647" y="-94.9835" font-family="Helvetica,sans-Serif" font-size="10.00" fill="#000000">uint8_t</text>
</g>
<!-- Node16&#45;&gt;Node0 -->
<g id="edge20" class="edge">
<title>Node16&#45;&gt;Node0</title>
<path fill="none" stroke="#9a32cd" stroke-dasharray="5,2" d="M363.7513,-94.7119C395.1525,-93.3867 442.1335,-96.2242 473.9102,-119.9835 519.5343,-154.0965 536.7305,-225.1718 542.1806,-255.6267"/>
<polygon fill="#9a32cd" stroke="#9a32cd" points="363.5227,-91.2192 353.7439,-95.2967 363.9311,-98.2073 363.5227,-91.2192"/>
<text text-anchor="middle" x="437.5063" y="-121.9835" font-family="Helvetica,sans-Serif" font-size="10.00" fill="#000000"> passes</text>
</g>
<!-- Node17 -->
<g id="node18" class="node">
<title>Node17</title>
<polygon fill="none" stroke="#bfbfbf" points="306.2529,-51.9835 306.2529,-69.9835 355.041,-69.9835 355.041,-51.9835 306.2529,-51.9835"/>
<text text-anchor="middle" x="330.647" y="-57.9835" font-family="Helvetica,sans-Serif" font-size="10.00" fill="#000000">Display</text>
</g>
<!-- Node17&#45;&gt;Node0 -->
<g id="edge22" class="edge">
<title>Node17&#45;&gt;Node0</title>
<path fill="none" stroke="#9a32cd" stroke-dasharray="5,2" d="M365.2372,-56.5241C396.914,-54.4018 443.3812,-56.4801 473.9102,-80.9835 529.895,-125.9183 541.3963,-220.0836 543.7569,-255.8191"/>
<polygon fill="#9a32cd" stroke="#9a32cd" points="364.7765,-53.0505 355.1061,-57.3786 365.3649,-60.0257 364.7765,-53.0505"/>
<text text-anchor="middle" x="437.5063" y="-82.9835" font-family="Helvetica,sans-Serif" font-size="10.00" fill="#000000"> display</text>
</g>
<!-- Node18 -->
<g id="node19" class="node">
<title>Node18</title>
<polygon fill="none" stroke="#bfbfbf" points="312.0854,-.9835 312.0854,-18.9835 349.2085,-18.9835 349.2085,-.9835 312.0854,-.9835"/>
<text text-anchor="middle" x="330.647" y="-6.9835" font-family="Helvetica,sans-Serif" font-size="10.00" fill="#000000">vec3</text>
</g>
<!-- Node18&#45;&gt;Node0 -->
<g id="edge23" class="edge">
<title>Node18&#45;&gt;Node0</title>
<path fill="none" stroke="#9a32cd" stroke-dasharray="5,2" d="M359.3361,-3.6455C391.0526,1.5713 441.8829,4.3842 473.9102,-21.9835 511.2298,-52.7083 535.7308,-208.1397 542.4763,-255.9618"/>
<polygon fill="#9a32cd" stroke="#9a32cd" points="358.575,-.2266 349.3677,-5.4682 359.8341,-7.1124 358.575,-.2266"/>
<text text-anchor="middle" x="437.5063" y="-43.9835" font-family="Helvetica,sans-Serif" font-size="10.00" fill="#000000"> structureColor</text>
<text text-anchor="middle" x="437.5063" y="-33.9835" font-family="Helvetica,sans-Serif" font-size="10.00" fill="#000000">railingsColor</text>
<text text-anchor="middle" x="437.5063" y="-23.9835" font-family="Helvetica,sans-Serif" font-size="10.00" fill="#000000">gatesColor</text>
</g>
</g>
</svg>
