<?xml version="1.0" encoding="UTF-8" standalone="no"?>
<!DOCTYPE svg PUBLIC "-//W3C//DTD SVG 1.1//EN"
 "http://www.w3.org/Graphics/SVG/1.1/DTD/svg11.dtd">
<!-- Generated by graphviz version 2.40.1 (20161225.0304)
 -->
<!-- Title: NoLimits::NoLimits2::Coaster Pages: 1 -->
<svg width="853pt" height="857pt"
 viewBox="0.00 0.00 853.39 857.00" xmlns="http://www.w3.org/2000/svg" xmlns:xlink="http://www.w3.org/1999/xlink">
<g id="graph0" class="graph" transform="scale(1 1) rotate(0) translate(4 853)">
<title>NoLimits::NoLimits2::Coaster</title>
<!-- Node0 -->
<g id="node1" class="node">
<title>Node0</title>
<polygon fill="#bfbfbf" stroke="#000000" points="740.4775,-222.5 740.4775,-250.5 845.3887,-250.5 845.3887,-222.5 740.4775,-222.5"/>
<text text-anchor="start" x="748.4775" y="-238.5" font-family="Helvetica,sans-Serif" font-size="10.00" fill="#000000">NoLimits::NoLimits2</text>
<text text-anchor="middle" x="792.9331" y="-228.5" font-family="Helvetica,sans-Serif" font-size="10.00" fill="#000000">::Coaster</text>
</g>
<!-- Node1 -->
<g id="node2" class="node">
<title>Node1</title>
<g id="a_node2"><a xlink:href="class_no_limits_1_1_stream_1_1_chunk.html" target="_top" xlink:title="NoLimits::Stream::Chunk">
<polygon fill="none" stroke="#000000" points="6.8066,-398.5 6.8066,-416.5 133.9541,-416.5 133.9541,-398.5 6.8066,-398.5"/>
<text text-anchor="middle" x="70.3804" y="-404.5" font-family="Helvetica,sans-Serif" font-size="10.00" fill="#000000">NoLimits::Stream::Chunk</text>
</a>
</g>
</g>
<!-- Node1&#45;&gt;Node0 -->
<g id="edge1" class="edge">
<title>Node1&#45;&gt;Node0</title>
<path fill="none" stroke="#191970" d="M144.0547,-413.0537C226.9653,-417.094 364.8397,-417.1162 477.9189,-384.5 593.1646,-351.2589 719.0856,-280.5854 769.8376,-250.5145"/>
<polygon fill="#191970" stroke="#191970" points="144.1413,-409.5535 133.973,-412.5292 143.7776,-416.5441 144.1413,-409.5535"/>
</g>
<!-- Node2 -->
<g id="node3" class="node">
<title>Node2</title>
<g id="a_node3"><a xlink:href="class_no_limits_1_1_no_limits2_1_1_mode.html" target="_top" xlink:title="NoLimits::NoLimits2\l::Mode">
<polygon fill="none" stroke="#000000" points="513.8438,-265.5 513.8438,-293.5 618.7549,-293.5 618.7549,-265.5 513.8438,-265.5"/>
<text text-anchor="start" x="521.8438" y="-281.5" font-family="Helvetica,sans-Serif" font-size="10.00" fill="#000000">NoLimits::NoLimits2</text>
<text text-anchor="middle" x="566.2993" y="-271.5" font-family="Helvetica,sans-Serif" font-size="10.00" fill="#000000">::Mode</text>
</a>
</g>
</g>
<!-- Node1&#45;&gt;Node2 -->
<g id="edge3" class="edge">
<title>Node1&#45;&gt;Node2</title>
<path fill="none" stroke="#191970" d="M80.6119,-389.3563C105.5009,-347.3311 173.8446,-243.9747 264.0264,-205.5 351.885,-168.0164 395.8782,-177.577 477.9189,-226.5 488.7696,-232.9705 485.8615,-240.8546 495.9189,-248.5 504.7411,-255.2064 515.2409,-260.8228 525.4031,-265.351"/>
<polygon fill="#191970" stroke="#191970" points="77.463,-387.8094 75.4749,-398.216 83.5187,-391.3206 77.463,-387.8094"/>
</g>
<!-- Node6 -->
<g id="node7" class="node">
<title>Node6</title>
<g id="a_node7"><a xlink:href="class_no_limits_1_1_no_limits2_1_1_custom_friction.html" target="_top" xlink:title="NoLimits::NoLimits2\l::CustomFriction">
<polygon fill="none" stroke="#ff0000" points="264.0264,-288.5 264.0264,-316.5 368.9375,-316.5 368.9375,-288.5 264.0264,-288.5"/>
<text text-anchor="start" x="272.0264" y="-304.5" font-family="Helvetica,sans-Serif" font-size="10.00" fill="#000000">NoLimits::NoLimits2</text>
<text text-anchor="middle" x="316.4819" y="-294.5" font-family="Helvetica,sans-Serif" font-size="10.00" fill="#000000">::CustomFriction</text>
</a>
</g>
</g>
<!-- Node1&#45;&gt;Node6 -->
<g id="edge8" class="edge">
<title>Node1&#45;&gt;Node6</title>
<path fill="none" stroke="#191970" d="M101.051,-394.4143C147.5381,-374.5804 235.4799,-337.0598 283.3715,-316.6267"/>
<polygon fill="#191970" stroke="#191970" points="99.6141,-391.222 91.7898,-398.3656 102.3611,-397.6605 99.6141,-391.222"/>
</g>
<!-- Node11 -->
<g id="node11" class="node">
<title>Node11</title>
<g id="a_node11"><a xlink:href="class_no_limits_1_1_no_limits2_1_1_support.html" target="_top" xlink:title="NoLimits::NoLimits2\l::Support">
<polygon fill="none" stroke="#000000" points="264.0264,-716.5 264.0264,-744.5 368.9375,-744.5 368.9375,-716.5 264.0264,-716.5"/>
<text text-anchor="start" x="272.0264" y="-732.5" font-family="Helvetica,sans-Serif" font-size="10.00" fill="#000000">NoLimits::NoLimits2</text>
<text text-anchor="middle" x="316.4819" y="-722.5" font-family="Helvetica,sans-Serif" font-size="10.00" fill="#000000">::Support</text>
</a>
</g>
</g>
<!-- Node1&#45;&gt;Node11 -->
<g id="edge13" class="edge">
<title>Node1&#45;&gt;Node11</title>
<path fill="none" stroke="#191970" d="M108.1944,-420.7918C120.5239,-427.0049 133.0194,-435.7015 140.7607,-447.5 181.7141,-509.916 117.3735,-552.3709 158.7607,-614.5 183.3012,-651.3393 210.3972,-636.2335 246.0264,-662.5 268.1932,-678.8418 290.5192,-701.7317 303.9262,-716.3382"/>
<polygon fill="#191970" stroke="#191970" points="109.428,-417.507 98.8798,-416.5145 106.5069,-423.8683 109.428,-417.507"/>
</g>
<!-- Node19 -->
<g id="node19" class="node">
<title>Node19</title>
<g id="a_node19"><a xlink:href="class_no_limits_1_1_no_limits2_1_1_colors.html" target="_top" xlink:title="NoLimits::NoLimits2\l::Colors">
<polygon fill="none" stroke="#000000" points="264.0264,-451.5 264.0264,-479.5 368.9375,-479.5 368.9375,-451.5 264.0264,-451.5"/>
<text text-anchor="start" x="272.0264" y="-467.5" font-family="Helvetica,sans-Serif" font-size="10.00" fill="#000000">NoLimits::NoLimits2</text>
<text text-anchor="middle" x="316.4819" y="-457.5" font-family="Helvetica,sans-Serif" font-size="10.00" fill="#000000">::Colors</text>
</a>
</g>
</g>
<!-- Node1&#45;&gt;Node19 -->
<g id="edge22" class="edge">
<title>Node1&#45;&gt;Node19</title>
<path fill="none" stroke="#191970" d="M118.7646,-418.903C160.5137,-428.7422 220.7013,-442.9269 263.687,-453.0575"/>
<polygon fill="#191970" stroke="#191970" points="119.37,-415.4498 108.8337,-416.5625 117.7642,-422.2632 119.37,-415.4498"/>
</g>
<!-- Node22 -->
<g id="node22" class="node">
<title>Node22</title>
<g id="a_node22"><a xlink:href="class_no_limits_1_1_no_limits2_1_1_file_script.html" target="_top" xlink:title="NoLimits::NoLimits2\l::FileScript">
<polygon fill="none" stroke="#000000" points="264.0264,-498.5 264.0264,-526.5 368.9375,-526.5 368.9375,-498.5 264.0264,-498.5"/>
<text text-anchor="start" x="272.0264" y="-514.5" font-family="Helvetica,sans-Serif" font-size="10.00" fill="#000000">NoLimits::NoLimits2</text>
<text text-anchor="middle" x="316.4819" y="-504.5" font-family="Helvetica,sans-Serif" font-size="10.00" fill="#000000">::FileScript</text>
</a>
</g>
</g>
<!-- Node1&#45;&gt;Node22 -->
<g id="edge26" class="edge">
<title>Node1&#45;&gt;Node22</title>
<path fill="none" stroke="#191970" d="M101.7031,-421.0429C114.7811,-427.7201 129.5136,-436.6797 140.7607,-447.5 151.6929,-458.0172 146.4131,-467.6876 158.7607,-476.5 175.5066,-488.4514 224.7381,-498.5136 263.7903,-504.9349"/>
<polygon fill="#191970" stroke="#191970" points="103.07,-417.8158 92.5463,-416.5903 100.0089,-424.111 103.07,-417.8158"/>
</g>
<!-- Node23 -->
<g id="node23" class="node">
<title>Node23</title>
<g id="a_node23"><a xlink:href="class_no_limits_1_1_no_limits2_1_1_style.html" target="_top" xlink:title="NoLimits::NoLimits2\l::Style">
<polygon fill="none" stroke="#000000" points="264.0264,-121.5 264.0264,-149.5 368.9375,-149.5 368.9375,-121.5 264.0264,-121.5"/>
<text text-anchor="start" x="272.0264" y="-137.5" font-family="Helvetica,sans-Serif" font-size="10.00" fill="#000000">NoLimits::NoLimits2</text>
<text text-anchor="middle" x="316.4819" y="-127.5" font-family="Helvetica,sans-Serif" font-size="10.00" fill="#000000">::Style</text>
</a>
</g>
</g>
<!-- Node1&#45;&gt;Node23 -->
<g id="edge29" class="edge">
<title>Node1&#45;&gt;Node23</title>
<path fill="none" stroke="#191970" d="M71.8247,-388.1544C76.2371,-343.4356 93.5403,-232.3205 158.7607,-174.5 166.8077,-167.3661 221.2367,-154.8919 263.9324,-145.9715"/>
<polygon fill="#191970" stroke="#191970" points="68.3269,-387.9773 70.9423,-398.2442 75.3003,-388.5872 68.3269,-387.9773"/>
</g>
<!-- Node2&#45;&gt;Node0 -->
<g id="edge2" class="edge">
<title>Node2&#45;&gt;Node0</title>
<path fill="none" stroke="#9a32cd" stroke-dasharray="5,2" d="M628.9486,-268.0527C657.4942,-262.789 691.7108,-256.413 722.4775,-250.5 728.2336,-249.3938 734.2509,-248.2218 740.2395,-247.0456"/>
<polygon fill="#9a32cd" stroke="#9a32cd" points="628.304,-264.6124 619.1032,-269.8655 629.5717,-271.4967 628.304,-264.6124"/>
<text text-anchor="middle" x="688.5786" y="-264.5" font-family="Helvetica,sans-Serif" font-size="10.00" fill="#000000"> mode</text>
</g>
<!-- Node3 -->
<g id="node4" class="node">
<title>Node3</title>
<polygon fill="none" stroke="#bfbfbf" points="276.7949,-251.5 276.7949,-269.5 356.1689,-269.5 356.1689,-251.5 276.7949,-251.5"/>
<text text-anchor="middle" x="316.4819" y="-257.5" font-family="Helvetica,sans-Serif" font-size="10.00" fill="#000000">SplinePosition</text>
</g>
<!-- Node3&#45;&gt;Node2 -->
<g id="edge4" class="edge">
<title>Node3&#45;&gt;Node2</title>
<path fill="none" stroke="#9a32cd" stroke-dasharray="5,2" d="M366.7705,-260.9618C398.6702,-261.6025 440.7821,-263.0888 477.9189,-266.5 489.5019,-267.5639 501.8837,-269.1203 513.6021,-270.7892"/>
<polygon fill="#9a32cd" stroke="#9a32cd" points="366.4269,-257.4552 356.3658,-260.7754 366.3014,-264.4541 366.4269,-257.4552"/>
<text text-anchor="middle" x="432.4282" y="-268.5" font-family="Helvetica,sans-Serif" font-size="10.00" fill="#000000"> splinePosition</text>
</g>
<!-- Node4 -->
<g id="node5" class="node">
<title>Node4</title>
<polygon fill="none" stroke="#bfbfbf" points="286.5239,-214.5 286.5239,-232.5 346.4399,-232.5 346.4399,-214.5 286.5239,-214.5"/>
<text text-anchor="middle" x="316.4819" y="-220.5" font-family="Helvetica,sans-Serif" font-size="10.00" fill="#000000">Operation</text>
</g>
<!-- Node4&#45;&gt;Node2 -->
<g id="edge5" class="edge">
<title>Node4&#45;&gt;Node2</title>
<path fill="none" stroke="#9a32cd" stroke-dasharray="5,2" d="M356.7374,-227.2264C389.6666,-230.812 437.2648,-237.2281 477.9189,-247.5 496.2718,-252.1371 516.1388,-259.1422 532.3796,-265.4171"/>
<polygon fill="#9a32cd" stroke="#9a32cd" points="356.8999,-223.7243 346.589,-226.1604 356.1686,-230.686 356.8999,-223.7243"/>
<text text-anchor="middle" x="432.4282" y="-249.5" font-family="Helvetica,sans-Serif" font-size="10.00" fill="#000000"> operationMode</text>
</g>
<!-- Node5 -->
<g id="node6" class="node">
<title>Node5</title>
<polygon fill="none" stroke="#bfbfbf" points="277.6372,-372.5 277.6372,-390.5 355.3267,-390.5 355.3267,-372.5 277.6372,-372.5"/>
<text text-anchor="middle" x="316.4819" y="-378.5" font-family="Helvetica,sans-Serif" font-size="10.00" fill="#000000">PhysicsModel</text>
</g>
<!-- Node5&#45;&gt;Node2 -->
<g id="edge6" class="edge">
<title>Node5&#45;&gt;Node2</title>
<path fill="none" stroke="#9a32cd" stroke-dasharray="5,2" d="M365.6596,-375.1007C398.5223,-369.5943 442.1234,-359.8716 477.9189,-343.5 506.0006,-330.6565 534.1523,-308.2221 550.9004,-293.6171"/>
<polygon fill="#9a32cd" stroke="#9a32cd" points="364.7123,-371.7076 355.3907,-376.7434 365.818,-378.6197 364.7123,-371.7076"/>
<text text-anchor="middle" x="432.4282" y="-372.5" font-family="Helvetica,sans-Serif" font-size="10.00" fill="#000000"> physicsModel</text>
</g>
<!-- Node6&#45;&gt;Node2 -->
<g id="edge7" class="edge">
<title>Node6&#45;&gt;Node2</title>
<path fill="none" stroke="#9a32cd" stroke-dasharray="5,2" d="M379.1532,-296.73C420.6423,-292.9102 474.4371,-287.9575 513.6968,-284.343"/>
<polygon fill="#9a32cd" stroke="#9a32cd" points="378.7935,-293.2483 369.1565,-297.6504 379.4353,-300.2188 378.7935,-293.2483"/>
<text text-anchor="middle" x="432.4282" y="-297.5" font-family="Helvetica,sans-Serif" font-size="10.00" fill="#000000"> customFriction</text>
</g>
<!-- Node8 -->
<g id="node8" class="node">
<title>Node8</title>
<polygon fill="none" stroke="#bfbfbf" points="297.9204,-335.5 297.9204,-353.5 335.0435,-353.5 335.0435,-335.5 297.9204,-335.5"/>
<text text-anchor="middle" x="316.4819" y="-341.5" font-family="Helvetica,sans-Serif" font-size="10.00" fill="#000000">vec2</text>
</g>
<!-- Node8&#45;&gt;Node2 -->
<g id="edge9" class="edge">
<title>Node8&#45;&gt;Node2</title>
<path fill="none" stroke="#9a32cd" stroke-dasharray="5,2" d="M345.1772,-339.3019C377.6444,-333.1845 431.9839,-322.2311 477.9189,-309.5 494.4709,-304.9125 512.4684,-298.9806 527.8765,-293.6042"/>
<polygon fill="#9a32cd" stroke="#9a32cd" points="344.2397,-335.9162 335.0489,-341.1867 345.5204,-342.798 344.2397,-335.9162"/>
<text text-anchor="middle" x="432.4282" y="-331.5" font-family="Helvetica,sans-Serif" font-size="10.00" fill="#000000"> splinePositionOffset</text>
</g>
<!-- Node9 -->
<g id="node9" class="node">
<title>Node9</title>
<polygon fill="none" stroke="#bfbfbf" points="495.9189,-171.5 495.9189,-199.5 636.6797,-199.5 636.6797,-171.5 495.9189,-171.5"/>
<text text-anchor="start" x="503.9189" y="-187.5" font-family="Helvetica,sans-Serif" font-size="10.00" fill="#000000">vector&lt; NoLimits::NoLimits2</text>
<text text-anchor="middle" x="566.2993" y="-177.5" font-family="Helvetica,sans-Serif" font-size="10.00" fill="#000000">::Track * &gt;</text>
</g>
<!-- Node9&#45;&gt;Node0 -->
<g id="edge10" class="edge">
<title>Node9&#45;&gt;Node0</title>
<path fill="none" stroke="#9a32cd" stroke-dasharray="5,2" d="M646.7395,-196.9222C671.2276,-201.064 698.1061,-206.2834 722.4775,-212.5 733.2457,-215.2467 744.7302,-218.8565 755.2345,-222.4394"/>
<polygon fill="#9a32cd" stroke="#9a32cd" points="647.2039,-193.4515 636.7667,-195.2718 646.061,-200.3576 647.2039,-193.4515"/>
<text text-anchor="middle" x="688.5786" y="-214.5" font-family="Helvetica,sans-Serif" font-size="10.00" fill="#000000"> track</text>
</g>
<!-- Node10 -->
<g id="node10" class="node">
<title>Node10</title>
<polygon fill="none" stroke="#bfbfbf" points="495.9189,-124.5 495.9189,-152.5 636.6797,-152.5 636.6797,-124.5 495.9189,-124.5"/>
<text text-anchor="start" x="503.9189" y="-140.5" font-family="Helvetica,sans-Serif" font-size="10.00" fill="#000000">vector&lt; NoLimits::NoLimits2</text>
<text text-anchor="middle" x="566.2993" y="-130.5" font-family="Helvetica,sans-Serif" font-size="10.00" fill="#000000">::Script * &gt;</text>
</g>
<!-- Node10&#45;&gt;Node0 -->
<g id="edge11" class="edge">
<title>Node10&#45;&gt;Node0</title>
<path fill="none" stroke="#9a32cd" stroke-dasharray="5,2" d="M642.2995,-155.162C668.4594,-162.374 697.4502,-172.0652 722.4775,-184.5 742.8997,-194.6467 763.5786,-210.7555 777.202,-222.356"/>
<polygon fill="#9a32cd" stroke="#9a32cd" points="642.9913,-151.724 632.4263,-152.5187 641.1809,-158.4859 642.9913,-151.724"/>
<text text-anchor="middle" x="688.5786" y="-186.5" font-family="Helvetica,sans-Serif" font-size="10.00" fill="#000000"> script</text>
</g>
<!-- Node11&#45;&gt;Node0 -->
<g id="edge12" class="edge">
<title>Node11&#45;&gt;Node0</title>
<path fill="none" stroke="#9a32cd" stroke-dasharray="5,2" d="M373.6143,-713.2656C462.3868,-683.4549 632.5626,-613.6352 722.4775,-493.5 752.3478,-453.5904 781.855,-298.7565 790.4437,-250.765"/>
<polygon fill="#9a32cd" stroke="#9a32cd" points="372.3783,-709.9878 363.9824,-716.45 374.5757,-716.634 372.3783,-709.9878"/>
<text text-anchor="middle" x="566.2993" y="-662.5" font-family="Helvetica,sans-Serif" font-size="10.00" fill="#000000"> support</text>
</g>
<!-- Node12 -->
<g id="node12" class="node">
<title>Node12</title>
<polygon fill="none" stroke="#bfbfbf" points="18.4717,-684.5 18.4717,-702.5 122.2891,-702.5 122.2891,-684.5 18.4717,-684.5"/>
<text text-anchor="middle" x="70.3804" y="-690.5" font-family="Helvetica,sans-Serif" font-size="10.00" fill="#000000">vector&lt; std::string &gt;</text>
</g>
<!-- Node12&#45;&gt;Node11 -->
<g id="edge14" class="edge">
<title>Node12&#45;&gt;Node11</title>
<path fill="none" stroke="#9a32cd" stroke-dasharray="5,2" d="M132.4626,-701.9151C166.1045,-706.5812 208.3811,-712.6162 246.0264,-718.5 251.7882,-719.4005 257.8092,-720.3749 263.7999,-721.3656"/>
<polygon fill="#9a32cd" stroke="#9a32cd" points="132.6989,-698.4146 122.3139,-700.5126 131.7406,-705.3487 132.6989,-698.4146"/>
<text text-anchor="middle" x="202.3936" y="-720.5" font-family="Helvetica,sans-Serif" font-size="10.00" fill="#000000"> prefab</text>
</g>
<!-- Node12&#45;&gt;Node22 -->
<g id="edge27" class="edge">
<title>Node12&#45;&gt;Node22</title>
<path fill="none" stroke="#9a32cd" stroke-dasharray="5,2" d="M113.4876,-681.3975C151.439,-669.1499 206.6403,-647.3049 246.0264,-614.5 276.2895,-589.2936 299.2887,-548.0023 309.9446,-526.503"/>
<polygon fill="#9a32cd" stroke="#9a32cd" points="112.2442,-678.1193 103.7502,-684.4519 114.3394,-684.7984 112.2442,-678.1193"/>
<text text-anchor="middle" x="202.3936" y="-665.5" font-family="Helvetica,sans-Serif" font-size="10.00" fill="#000000"> path</text>
</g>
<!-- Node13 -->
<g id="node13" class="node">
<title>Node13</title>
<polygon fill="none" stroke="#bfbfbf" points="0,-726.5 0,-754.5 140.7607,-754.5 140.7607,-726.5 0,-726.5"/>
<text text-anchor="start" x="8" y="-742.5" font-family="Helvetica,sans-Serif" font-size="10.00" fill="#000000">vector&lt; NoLimits::NoLimits2</text>
<text text-anchor="middle" x="70.3804" y="-732.5" font-family="Helvetica,sans-Serif" font-size="10.00" fill="#000000">::Beam * &gt;</text>
</g>
<!-- Node13&#45;&gt;Node11 -->
<g id="edge15" class="edge">
<title>Node13&#45;&gt;Node11</title>
<path fill="none" stroke="#9a32cd" stroke-dasharray="5,2" d="M151.1908,-737.2164C188.2589,-735.7102 231.1474,-733.9675 263.9464,-732.6347"/>
<polygon fill="#9a32cd" stroke="#9a32cd" points="150.7528,-733.7312 140.9032,-737.6344 151.0371,-740.7254 150.7528,-733.7312"/>
<text text-anchor="middle" x="202.3936" y="-738.5" font-family="Helvetica,sans-Serif" font-size="10.00" fill="#000000"> beam</text>
</g>
<!-- Node14 -->
<g id="node14" class="node">
<title>Node14</title>
<polygon fill="none" stroke="#bfbfbf" points="0,-820.5 0,-848.5 140.7607,-848.5 140.7607,-820.5 0,-820.5"/>
<text text-anchor="start" x="8" y="-836.5" font-family="Helvetica,sans-Serif" font-size="10.00" fill="#000000">vector&lt; NoLimits::NoLimits2</text>
<text text-anchor="middle" x="70.3804" y="-826.5" font-family="Helvetica,sans-Serif" font-size="10.00" fill="#000000">::FreeNode * &gt;</text>
</g>
<!-- Node14&#45;&gt;Node11 -->
<g id="edge16" class="edge">
<title>Node14&#45;&gt;Node11</title>
<path fill="none" stroke="#9a32cd" stroke-dasharray="5,2" d="M149.9906,-817.8999C180.9181,-809.7966 216.0437,-798.4956 246.0264,-783.5 266.6977,-773.1614 287.4959,-756.5796 301.0795,-744.7165"/>
<polygon fill="#9a32cd" stroke="#9a32cd" points="148.934,-814.5573 140.1085,-820.4191 150.6632,-821.3403 148.934,-814.5573"/>
<text text-anchor="middle" x="202.3936" y="-816.5" font-family="Helvetica,sans-Serif" font-size="10.00" fill="#000000"> freeNode</text>
</g>
<!-- Node15 -->
<g id="node15" class="node">
<title>Node15</title>
<polygon fill="none" stroke="#bfbfbf" points="0,-773.5 0,-801.5 140.7607,-801.5 140.7607,-773.5 0,-773.5"/>
<text text-anchor="start" x="8" y="-789.5" font-family="Helvetica,sans-Serif" font-size="10.00" fill="#000000">vector&lt; NoLimits::NoLimits2</text>
<text text-anchor="middle" x="70.3804" y="-779.5" font-family="Helvetica,sans-Serif" font-size="10.00" fill="#000000">::Footer * &gt;</text>
</g>
<!-- Node15&#45;&gt;Node11 -->
<g id="edge17" class="edge">
<title>Node15&#45;&gt;Node11</title>
<path fill="none" stroke="#9a32cd" stroke-dasharray="5,2" d="M151.1158,-771.7091C181.0325,-765.5385 215.1751,-758.1186 246.0264,-750.5 253.433,-748.671 261.238,-746.6007 268.8477,-744.5026"/>
<polygon fill="#9a32cd" stroke="#9a32cd" points="150.237,-768.3164 141.1431,-773.7523 151.6421,-775.1739 150.237,-768.3164"/>
<text text-anchor="middle" x="202.3936" y="-771.5" font-family="Helvetica,sans-Serif" font-size="10.00" fill="#000000"> footer</text>
</g>
<!-- Node16 -->
<g id="node16" class="node">
<title>Node16</title>
<polygon fill="none" stroke="#bfbfbf" points="548.8462,-87.5 548.8462,-105.5 583.7524,-105.5 583.7524,-87.5 548.8462,-87.5"/>
<text text-anchor="middle" x="566.2993" y="-93.5" font-family="Helvetica,sans-Serif" font-size="10.00" fill="#000000">bool</text>
</g>
<!-- Node16&#45;&gt;Node0 -->
<g id="edge18" class="edge">
<title>Node16&#45;&gt;Node0</title>
<path fill="none" stroke="#9a32cd" stroke-dasharray="5,2" d="M594.2149,-97.3902C627.4739,-99.6986 683.4362,-107.6473 722.4775,-134.5 755.1056,-156.9417 777.2283,-199.8168 787.0914,-222.1589"/>
<polygon fill="#9a32cd" stroke="#9a32cd" points="594.0451,-93.8751 583.8633,-96.8044 593.6496,-100.8639 594.0451,-93.8751"/>
<text text-anchor="middle" x="688.5786" y="-146.5" font-family="Helvetica,sans-Serif" font-size="10.00" fill="#000000"> hideWireframe</text>
<text text-anchor="middle" x="688.5786" y="-136.5" font-family="Helvetica,sans-Serif" font-size="10.00" fill="#000000">freezed</text>
</g>
<!-- Node17 -->
<g id="node17" class="node">
<title>Node17</title>
<polygon fill="none" stroke="#bfbfbf" points="546.0728,-47.5 546.0728,-65.5 586.5259,-65.5 586.5259,-47.5 546.0728,-47.5"/>
<text text-anchor="middle" x="566.2993" y="-53.5" font-family="Helvetica,sans-Serif" font-size="10.00" fill="#000000">string</text>
</g>
<!-- Node17&#45;&gt;Node0 -->
<g id="edge19" class="edge">
<title>Node17&#45;&gt;Node0</title>
<path fill="none" stroke="#9a32cd" stroke-dasharray="5,2" d="M596.9045,-53.6105C631.014,-52.0508 686.1401,-54.684 722.4775,-82.5 768.9367,-118.0641 785.7401,-191.3937 790.9196,-222.2851"/>
<polygon fill="#9a32cd" stroke="#9a32cd" points="596.3873,-50.1354 586.6188,-54.2376 596.8133,-57.1225 596.3873,-50.1354"/>
<text text-anchor="middle" x="688.5786" y="-94.5" font-family="Helvetica,sans-Serif" font-size="10.00" fill="#000000"> name</text>
<text text-anchor="middle" x="688.5786" y="-84.5" font-family="Helvetica,sans-Serif" font-size="10.00" fill="#000000">description</text>
</g>
<!-- Node18 -->
<g id="node18" class="node">
<title>Node18</title>
<polygon fill="none" stroke="#bfbfbf" points="495.9189,-.5 495.9189,-28.5 636.6797,-28.5 636.6797,-.5 495.9189,-.5"/>
<text text-anchor="start" x="503.9189" y="-16.5" font-family="Helvetica,sans-Serif" font-size="10.00" fill="#000000">vector&lt; NoLimits::NoLimits2</text>
<text text-anchor="middle" x="566.2993" y="-6.5" font-family="Helvetica,sans-Serif" font-size="10.00" fill="#000000">::Train * &gt;</text>
</g>
<!-- Node18&#45;&gt;Node0 -->
<g id="edge20" class="edge">
<title>Node18&#45;&gt;Node0</title>
<path fill="none" stroke="#9a32cd" stroke-dasharray="5,2" d="M647.0412,-13.3686C673.6095,-16.7874 701.6455,-24.9564 722.4775,-42.5 778.8019,-89.9333 790.0996,-186.2241 792.3651,-222.3681"/>
<polygon fill="#9a32cd" stroke="#9a32cd" points="647.266,-9.8727 636.9486,-12.2813 646.5161,-16.8324 647.266,-9.8727"/>
<text text-anchor="middle" x="688.5786" y="-44.5" font-family="Helvetica,sans-Serif" font-size="10.00" fill="#000000"> train</text>
</g>
<!-- Node19&#45;&gt;Node0 -->
<g id="edge21" class="edge">
<title>Node19&#45;&gt;Node0</title>
<path fill="none" stroke="#9a32cd" stroke-dasharray="5,2" d="M379.0577,-468.5853C479.3714,-472.239 670.2202,-473.4736 722.4775,-433.5 752.8423,-410.2728 780.9077,-292.0477 789.9249,-250.7561"/>
<polygon fill="#9a32cd" stroke="#9a32cd" points="379.1787,-465.0875 369.052,-468.2019 378.9106,-472.0824 379.1787,-465.0875"/>
<text text-anchor="middle" x="566.2993" y="-471.5" font-family="Helvetica,sans-Serif" font-size="10.00" fill="#000000"> colors</text>
</g>
<!-- Node20 -->
<g id="node20" class="node">
<title>Node20</title>
<polygon fill="none" stroke="#bfbfbf" points="19.3018,-456.5 19.3018,-474.5 121.459,-474.5 121.459,-456.5 19.3018,-456.5"/>
<text text-anchor="middle" x="70.3804" y="-462.5" font-family="Helvetica,sans-Serif" font-size="10.00" fill="#000000">SpineColorScheme</text>
</g>
<!-- Node20&#45;&gt;Node19 -->
<g id="edge23" class="edge">
<title>Node20&#45;&gt;Node19</title>
<path fill="none" stroke="#9a32cd" stroke-dasharray="5,2" d="M131.7381,-465.5C172.4236,-465.5 225.2478,-465.5 263.9841,-465.5"/>
<polygon fill="#9a32cd" stroke="#9a32cd" points="131.6718,-462.0001 121.6718,-465.5 131.6717,-469.0001 131.6718,-462.0001"/>
<text text-anchor="middle" x="202.3936" y="-467.5" font-family="Helvetica,sans-Serif" font-size="10.00" fill="#000000"> spineColorScheme</text>
</g>
<!-- Node21 -->
<g id="node21" class="node">
<title>Node21</title>
<polygon fill="none" stroke="#bfbfbf" points="51.8188,-514.5 51.8188,-532.5 88.9419,-532.5 88.9419,-514.5 51.8188,-514.5"/>
<text text-anchor="middle" x="70.3804" y="-520.5" font-family="Helvetica,sans-Serif" font-size="10.00" fill="#000000">vec3</text>
</g>
<!-- Node21&#45;&gt;Node19 -->
<g id="edge24" class="edge">
<title>Node21&#45;&gt;Node19</title>
<path fill="none" stroke="#9a32cd" stroke-dasharray="5,2" d="M99.2547,-516.695C139.6059,-507.1853 213.5544,-489.7575 263.8474,-477.9046"/>
<polygon fill="#9a32cd" stroke="#9a32cd" points="98.2134,-513.3445 89.2829,-519.0451 99.8191,-520.1578 98.2134,-513.3445"/>
<text text-anchor="middle" x="202.3936" y="-602.5" font-family="Helvetica,sans-Serif" font-size="10.00" fill="#000000"> chasiss</text>
<text text-anchor="middle" x="202.3936" y="-592.5" font-family="Helvetica,sans-Serif" font-size="10.00" fill="#000000">bogie</text>
<text text-anchor="middle" x="202.3936" y="-582.5" font-family="Helvetica,sans-Serif" font-size="10.00" fill="#000000">supports</text>
<text text-anchor="middle" x="202.3936" y="-572.5" font-family="Helvetica,sans-Serif" font-size="10.00" fill="#000000">seat</text>
<text text-anchor="middle" x="202.3936" y="-562.5" font-family="Helvetica,sans-Serif" font-size="10.00" fill="#000000">tunnel</text>
<text text-anchor="middle" x="202.3936" y="-552.5" font-family="Helvetica,sans-Serif" font-size="10.00" fill="#000000">rails</text>
<text text-anchor="middle" x="202.3936" y="-542.5" font-family="Helvetica,sans-Serif" font-size="10.00" fill="#000000">handrails</text>
<text text-anchor="middle" x="202.3936" y="-532.5" font-family="Helvetica,sans-Serif" font-size="10.00" fill="#000000">mainSpine</text>
<text text-anchor="middle" x="202.3936" y="-522.5" font-family="Helvetica,sans-Serif" font-size="10.00" fill="#000000">crossTies</text>
<text text-anchor="middle" x="202.3936" y="-512.5" font-family="Helvetica,sans-Serif" font-size="10.00" fill="#000000">wireframeTrack</text>
<text text-anchor="middle" x="202.3936" y="-502.5" font-family="Helvetica,sans-Serif" font-size="10.00" fill="#000000">...</text>
</g>
<!-- Node22&#45;&gt;Node0 -->
<g id="edge25" class="edge">
<title>Node22&#45;&gt;Node0</title>
<path fill="none" stroke="#9a32cd" stroke-dasharray="5,2" d="M378.9965,-524.7866C468.1524,-538.3349 631.1187,-547.7117 722.4775,-458.5 753.2886,-428.4131 781.6028,-294.7074 790.2454,-250.6395"/>
<polygon fill="#9a32cd" stroke="#9a32cd" points="379.4502,-521.3149 369.0257,-523.2069 378.3548,-528.2286 379.4502,-521.3149"/>
<text text-anchor="middle" x="566.2993" y="-534.5" font-family="Helvetica,sans-Serif" font-size="10.00" fill="#000000"> fileScript</text>
</g>
<!-- Node23&#45;&gt;Node0 -->
<g id="edge28" class="edge">
<title>Node23&#45;&gt;Node0</title>
<path fill="none" stroke="#9a32cd" stroke-dasharray="5,2" d="M379.3002,-140.1609C411.5069,-145.2631 449.766,-155.8095 477.9189,-177.5 490.8452,-187.4591 482.221,-200.6322 495.9189,-209.5 535.037,-234.8243 665.9846,-237.8847 740.287,-237.4698"/>
<polygon fill="#9a32cd" stroke="#9a32cd" points="379.4735,-136.6498 369.0767,-138.6884 378.4756,-143.5784 379.4735,-136.6498"/>
<text text-anchor="middle" x="566.2993" y="-236.5" font-family="Helvetica,sans-Serif" font-size="10.00" fill="#000000"> style</text>
</g>
<!-- Node24 -->
<g id="node24" class="node">
<title>Node24</title>
<polygon fill="none" stroke="#bfbfbf" points="39.6802,-54.5 39.6802,-72.5 101.0806,-72.5 101.0806,-54.5 39.6802,-54.5"/>
<text text-anchor="middle" x="70.3804" y="-60.5" font-family="Helvetica,sans-Serif" font-size="10.00" fill="#000000">WornType</text>
</g>
<!-- Node24&#45;&gt;Node23 -->
<g id="edge30" class="edge">
<title>Node24&#45;&gt;Node23</title>
<path fill="none" stroke="#9a32cd" stroke-dasharray="5,2" d="M111.5438,-67.0556C147.8041,-71.1054 201.6097,-79.373 246.0264,-95.5 263.875,-101.9805 282.492,-112.7498 296.1034,-121.4823"/>
<polygon fill="#9a32cd" stroke="#9a32cd" points="111.6575,-63.5481 101.3446,-65.9761 110.9206,-70.5092 111.6575,-63.5481"/>
<text text-anchor="middle" x="202.3936" y="-97.5" font-family="Helvetica,sans-Serif" font-size="10.00" fill="#000000"> wornType</text>
</g>
<!-- Node25 -->
<g id="node25" class="node">
<title>Node25</title>
<polygon fill="none" stroke="#bfbfbf" points="42.9248,-128.5 42.9248,-146.5 97.8359,-146.5 97.8359,-128.5 42.9248,-128.5"/>
<text text-anchor="middle" x="70.3804" y="-134.5" font-family="Helvetica,sans-Serif" font-size="10.00" fill="#000000">RailType</text>
</g>
<!-- Node25&#45;&gt;Node23 -->
<g id="edge31" class="edge">
<title>Node25&#45;&gt;Node23</title>
<path fill="none" stroke="#9a32cd" stroke-dasharray="5,2" d="M108.2,-137.0308C123.8487,-136.8474 142.1794,-136.6464 158.7607,-136.5 193.8092,-136.1906 233.2395,-135.9406 263.9077,-135.768"/>
<polygon fill="#9a32cd" stroke="#9a32cd" points="107.8068,-133.5351 97.8492,-137.154 107.8902,-140.5346 107.8068,-133.5351"/>
<text text-anchor="middle" x="202.3936" y="-138.5" font-family="Helvetica,sans-Serif" font-size="10.00" fill="#000000"> railType</text>
</g>
<!-- Node26 -->
<g id="node26" class="node">
<title>Node26</title>
<polygon fill="none" stroke="#bfbfbf" points="40.4224,-91.5 40.4224,-109.5 100.3384,-109.5 100.3384,-91.5 40.4224,-91.5"/>
<text text-anchor="middle" x="70.3804" y="-97.5" font-family="Helvetica,sans-Serif" font-size="10.00" fill="#000000">StyleType</text>
</g>
<!-- Node26&#45;&gt;Node23 -->
<g id="edge32" class="edge">
<title>Node26&#45;&gt;Node23</title>
<path fill="none" stroke="#9a32cd" stroke-dasharray="5,2" d="M110.6491,-104.4218C146.3294,-108.1091 199.7867,-114.153 246.0264,-121.5 251.8151,-122.4198 257.8532,-123.4737 263.8538,-124.5816"/>
<polygon fill="#9a32cd" stroke="#9a32cd" points="110.93,-100.9324 100.6265,-103.3998 110.2198,-107.8963 110.93,-100.9324"/>
<text text-anchor="middle" x="202.3936" y="-123.5" font-family="Helvetica,sans-Serif" font-size="10.00" fill="#000000"> styleType</text>
</g>
</g>
</svg>
