<?xml version="1.0" encoding="UTF-8" standalone="no"?>
<!DOCTYPE svg PUBLIC "-//W3C//DTD SVG 1.1//EN"
 "http://www.w3.org/Graphics/SVG/1.1/DTD/svg11.dtd">
<!-- Generated by graphviz version 2.40.1 (20161225.0304)
 -->
<!-- Title: NoLimits::NoLimits2::BaseMap Pages: 1 -->
<svg width="278pt" height="102pt"
 viewBox="0.00 0.00 277.80 102.00" xmlns="http://www.w3.org/2000/svg" xmlns:xlink="http://www.w3.org/1999/xlink">
<g id="graph0" class="graph" transform="scale(1 1) rotate(0) translate(4 98)">
<title>NoLimits::NoLimits2::BaseMap</title>
<!-- Node0 -->
<g id="node1" class="node">
<title>Node0</title>
<polygon fill="#bfbfbf" stroke="#000000" points="118.1182,-.5 118.1182,-28.5 223.0293,-28.5 223.0293,-.5 118.1182,-.5"/>
<text text-anchor="start" x="126.1182" y="-16.5" font-family="Helvetica,sans-Serif" font-size="10.00" fill="#000000">NoLimits::NoLimits2</text>
<text text-anchor="middle" x="170.5737" y="-6.5" font-family="Helvetica,sans-Serif" font-size="10.00" fill="#000000">::BaseMap</text>
</g>
<!-- Node1 -->
<g id="node2" class="node">
<title>Node1</title>
<g id="a_node2"><a xlink:href="class_no_limits_1_1_stream_1_1_chunk.html" target="_top" xlink:title="NoLimits::Stream::Chunk">
<polygon fill="none" stroke="#000000" points="0,-75.5 0,-93.5 127.1475,-93.5 127.1475,-75.5 0,-75.5"/>
<text text-anchor="middle" x="63.5737" y="-81.5" font-family="Helvetica,sans-Serif" font-size="10.00" fill="#000000">NoLimits::Stream::Chunk</text>
</a>
</g>
</g>
<!-- Node1&#45;&gt;Node0 -->
<g id="edge1" class="edge">
<title>Node1&#45;&gt;Node0</title>
<path fill="none" stroke="#191970" d="M85.9535,-69.859C104.4257,-57.7744 130.4857,-40.7258 148.7917,-28.7499"/>
<polygon fill="#191970" stroke="#191970" points="84.0143,-66.9452 77.5621,-75.3487 87.8466,-72.803 84.0143,-66.9452"/>
</g>
<!-- Node2 -->
<g id="node3" class="node">
<title>Node2</title>
<polygon fill="none" stroke="#bfbfbf" points="144.7808,-75.5 144.7808,-93.5 196.3667,-93.5 196.3667,-75.5 144.7808,-75.5"/>
<text text-anchor="middle" x="170.5737" y="-81.5" font-family="Helvetica,sans-Serif" font-size="10.00" fill="#000000">uint32_t</text>
</g>
<!-- Node2&#45;&gt;Node0 -->
<g id="edge2" class="edge">
<title>Node2&#45;&gt;Node0</title>
<path fill="none" stroke="#9a32cd" stroke-dasharray="5,2" d="M170.5737,-65.0243C170.5737,-53.5169 170.5737,-39.2016 170.5737,-28.7499"/>
<polygon fill="#9a32cd" stroke="#9a32cd" points="167.0738,-65.3487 170.5737,-75.3487 174.0738,-65.3488 167.0738,-65.3487"/>
<text text-anchor="middle" x="198.3716" y="-49" font-family="Helvetica,sans-Serif" font-size="10.00" fill="#000000"> repeatIndex</text>
</g>
<!-- Node3 -->
<g id="node4" class="node">
<title>Node3</title>
<polygon fill="none" stroke="#bfbfbf" points="229.3472,-75.5 229.3472,-93.5 269.8003,-93.5 269.8003,-75.5 229.3472,-75.5"/>
<text text-anchor="middle" x="249.5737" y="-81.5" font-family="Helvetica,sans-Serif" font-size="10.00" fill="#000000">string</text>
</g>
<!-- Node3&#45;&gt;Node0 -->
<g id="edge3" class="edge">
<title>Node3&#45;&gt;Node0</title>
<path fill="none" stroke="#9a32cd" stroke-dasharray="5,2" d="M241.368,-66.2709C237.7889,-59.6659 233.1302,-52.4882 227.5737,-47 220.1986,-39.7154 210.8643,-33.5031 201.8956,-28.5212"/>
<polygon fill="#9a32cd" stroke="#9a32cd" points="238.2494,-67.8605 245.8179,-75.2746 244.5248,-64.759 238.2494,-67.8605"/>
<text text-anchor="middle" x="251.2485" y="-49" font-family="Helvetica,sans-Serif" font-size="10.00" fill="#000000"> texture</text>
</g>
</g>
</svg>
