<?xml version="1.0" encoding="UTF-8" standalone="no"?>
<!DOCTYPE svg PUBLIC "-//W3C//DTD SVG 1.1//EN"
 "http://www.w3.org/Graphics/SVG/1.1/DTD/svg11.dtd">
<!-- Generated by graphviz version 2.40.1 (20161225.0304)
 -->
<!-- Title: NoLimits::NoLimits2::Beam Pages: 1 -->
<svg width="669pt" height="320pt"
 viewBox="0.00 0.00 668.88 320.14" xmlns="http://www.w3.org/2000/svg" xmlns:xlink="http://www.w3.org/1999/xlink">
<g id="graph0" class="graph" transform="scale(1 1) rotate(0) translate(4 316.1352)">
<title>NoLimits::NoLimits2::Beam</title>
<!-- Node0 -->
<g id="node1" class="node">
<title>Node0</title>
<polygon fill="#bfbfbf" stroke="#000000" points="555.9678,-151.795 555.9678,-179.795 660.8789,-179.795 660.8789,-151.795 555.9678,-151.795"/>
<text text-anchor="start" x="563.9678" y="-167.795" font-family="Helvetica,sans-Serif" font-size="10.00" fill="#000000">NoLimits::NoLimits2</text>
<text text-anchor="middle" x="608.4233" y="-157.795" font-family="Helvetica,sans-Serif" font-size="10.00" fill="#000000">::Beam</text>
</g>
<!-- Node1 -->
<g id="node2" class="node">
<title>Node1</title>
<g id="a_node2"><a xlink:href="class_no_limits_1_1_stream_1_1_chunk.html" target="_top" xlink:title="NoLimits::Stream::Chunk">
<polygon fill="none" stroke="#000000" points="0,-292.795 0,-310.795 127.1475,-310.795 127.1475,-292.795 0,-292.795"/>
<text text-anchor="middle" x="63.5737" y="-298.795" font-family="Helvetica,sans-Serif" font-size="10.00" fill="#000000">NoLimits::Stream::Chunk</text>
</a>
</g>
</g>
<!-- Node1&#45;&gt;Node0 -->
<g id="edge1" class="edge">
<title>Node1&#45;&gt;Node0</title>
<path fill="none" stroke="#191970" d="M137.4634,-309.3486C235.5461,-315.8475 411.1065,-314.9408 537.9678,-243.795 565.6618,-228.2638 588.258,-197.8113 599.8922,-179.8961"/>
<polygon fill="#191970" stroke="#191970" points="137.5688,-305.8474 127.3469,-308.6336 137.0752,-312.83 137.5688,-305.8474"/>
</g>
<!-- Node5 -->
<g id="node6" class="node">
<title>Node5</title>
<g id="a_node6"><a xlink:href="class_no_limits_1_1_no_limits2_1_1_beam_connection.html" target="_top" xlink:title="NoLimits::NoLimits2\l::BeamConnection">
<polygon fill="none" stroke="#000000" points="281.6826,-222.795 281.6826,-250.795 386.5938,-250.795 386.5938,-222.795 281.6826,-222.795"/>
<text text-anchor="start" x="289.6826" y="-238.795" font-family="Helvetica,sans-Serif" font-size="10.00" fill="#000000">NoLimits::NoLimits2</text>
<text text-anchor="middle" x="334.1382" y="-228.795" font-family="Helvetica,sans-Serif" font-size="10.00" fill="#000000">::BeamConnection</text>
</a>
</g>
</g>
<!-- Node1&#45;&gt;Node5 -->
<g id="edge6" class="edge">
<title>Node1&#45;&gt;Node5</title>
<path fill="none" stroke="#191970" d="M137.4632,-295.8915C170.9687,-292.0364 210.8219,-285.7905 245.7578,-275.795 267.2032,-269.6593 290.2205,-259.3724 307.3879,-250.9037"/>
<polygon fill="#191970" stroke="#191970" points="136.838,-292.4391 127.2812,-297.0126 137.6042,-299.397 136.838,-292.4391"/>
</g>
<!-- Node2 -->
<g id="node3" class="node">
<title>Node2</title>
<g id="a_node3"><a xlink:href="class_no_limits_1_1_no_limits2_1_1_support_node.html" target="_top" xlink:title="NoLimits::NoLimits2\l::SupportNode">
<polygon fill="none" stroke="#000000" points="281.6826,-113.795 281.6826,-141.795 386.5938,-141.795 386.5938,-113.795 281.6826,-113.795"/>
<text text-anchor="start" x="289.6826" y="-129.795" font-family="Helvetica,sans-Serif" font-size="10.00" fill="#000000">NoLimits::NoLimits2</text>
<text text-anchor="middle" x="334.1382" y="-119.795" font-family="Helvetica,sans-Serif" font-size="10.00" fill="#000000">::SupportNode</text>
</a>
</g>
</g>
<!-- Node2&#45;&gt;Node0 -->
<g id="edge2" class="edge">
<title>Node2&#45;&gt;Node0</title>
<path fill="none" stroke="#191970" d="M396.6604,-136.4569C444.6545,-143.1061 510.1785,-152.184 555.5739,-158.4731"/>
<polygon fill="#191970" stroke="#191970" points="397.0843,-132.9823 386.6986,-135.0768 396.1236,-139.9161 397.0843,-132.9823"/>
</g>
<!-- Node3 -->
<g id="node4" class="node">
<title>Node3</title>
<polygon fill="none" stroke="#bfbfbf" points="40.5615,-121.795 40.5615,-139.795 86.5859,-139.795 86.5859,-121.795 40.5615,-121.795"/>
<text text-anchor="middle" x="63.5737" y="-127.795" font-family="Helvetica,sans-Serif" font-size="10.00" fill="#000000">uint8_t</text>
</g>
<!-- Node3&#45;&gt;Node2 -->
<g id="edge3" class="edge">
<title>Node3&#45;&gt;Node2</title>
<path fill="none" stroke="#9a32cd" stroke-dasharray="5,2" d="M96.6899,-130.4278C142.7742,-129.9168 226.7359,-128.9859 281.4666,-128.379"/>
<polygon fill="#9a32cd" stroke="#9a32cd" points="96.6024,-126.9285 86.6419,-130.5392 96.6801,-133.928 96.6024,-126.9285"/>
<text text-anchor="middle" x="195.4526" y="-151.795" font-family="Helvetica,sans-Serif" font-size="10.00" fill="#000000"> flag1</text>
<text text-anchor="middle" x="195.4526" y="-141.795" font-family="Helvetica,sans-Serif" font-size="10.00" fill="#000000">flag2</text>
<text text-anchor="middle" x="195.4526" y="-131.795" font-family="Helvetica,sans-Serif" font-size="10.00" fill="#000000">flag3</text>
</g>
<!-- Node4 -->
<g id="node5" class="node">
<title>Node4</title>
<polygon fill="none" stroke="#bfbfbf" points="45.0122,-84.795 45.0122,-102.795 82.1353,-102.795 82.1353,-84.795 45.0122,-84.795"/>
<text text-anchor="middle" x="63.5737" y="-90.795" font-family="Helvetica,sans-Serif" font-size="10.00" fill="#000000">vec3</text>
</g>
<!-- Node4&#45;&gt;Node2 -->
<g id="edge4" class="edge">
<title>Node4&#45;&gt;Node2</title>
<path fill="none" stroke="#9a32cd" stroke-dasharray="5,2" d="M92.4597,-96.8425C128.4155,-100.7009 191.6873,-107.7038 245.7578,-114.795 257.2907,-116.3075 269.6518,-118.0496 281.366,-119.7569"/>
<polygon fill="#9a32cd" stroke="#9a32cd" points="92.5334,-93.3306 82.2184,-95.7495 91.7904,-100.2911 92.5334,-93.3306"/>
<text text-anchor="middle" x="195.4526" y="-116.795" font-family="Helvetica,sans-Serif" font-size="10.00" fill="#000000"> color</text>
</g>
<!-- Node5&#45;&gt;Node0 -->
<g id="edge5" class="edge">
<title>Node5&#45;&gt;Node0</title>
<path fill="none" stroke="#9a32cd" stroke-dasharray="5,2" d="M396.6747,-225.8719C437.3296,-218.1412 491.2665,-206.6947 537.9678,-192.795 550.1461,-189.1704 563.2109,-184.4161 574.7418,-179.9087"/>
<polygon fill="#9a32cd" stroke="#9a32cd" points="395.8197,-222.4711 386.6373,-227.7565 397.1115,-229.3509 395.8197,-222.4711"/>
<text text-anchor="middle" x="480.2432" y="-231.795" font-family="Helvetica,sans-Serif" font-size="10.00" fill="#000000"> connection1</text>
<text text-anchor="middle" x="480.2432" y="-221.795" font-family="Helvetica,sans-Serif" font-size="10.00" fill="#000000">connection2</text>
</g>
<!-- Node6 -->
<g id="node7" class="node">
<title>Node6</title>
<polygon fill="none" stroke="#bfbfbf" points="37.7808,-235.795 37.7808,-253.795 89.3667,-253.795 89.3667,-235.795 37.7808,-235.795"/>
<text text-anchor="middle" x="63.5737" y="-241.795" font-family="Helvetica,sans-Serif" font-size="10.00" fill="#000000">uint32_t</text>
</g>
<!-- Node6&#45;&gt;Node5 -->
<g id="edge7" class="edge">
<title>Node6&#45;&gt;Node5</title>
<path fill="none" stroke="#9a32cd" stroke-dasharray="5,2" d="M99.7592,-243.7251C146.4322,-242.3451 227.9604,-239.9344 281.4967,-238.3515"/>
<polygon fill="#9a32cd" stroke="#9a32cd" points="99.4087,-240.2338 89.5166,-244.0279 99.6157,-247.2308 99.4087,-240.2338"/>
<text text-anchor="middle" x="195.4526" y="-263.795" font-family="Helvetica,sans-Serif" font-size="10.00" fill="#000000"> indexOnBeam</text>
<text text-anchor="middle" x="195.4526" y="-253.795" font-family="Helvetica,sans-Serif" font-size="10.00" fill="#000000">indexOnRailConnector</text>
<text text-anchor="middle" x="195.4526" y="-243.795" font-family="Helvetica,sans-Serif" font-size="10.00" fill="#000000">index</text>
</g>
<!-- Node7 -->
<g id="node8" class="node">
<title>Node7</title>
<polygon fill="none" stroke="#bfbfbf" points="44.7314,-183.795 44.7314,-201.795 82.416,-201.795 82.416,-183.795 44.7314,-183.795"/>
<text text-anchor="middle" x="63.5737" y="-189.795" font-family="Helvetica,sans-Serif" font-size="10.00" fill="#000000">Type</text>
</g>
<!-- Node7&#45;&gt;Node0 -->
<g id="edge11" class="edge">
<title>Node7&#45;&gt;Node0</title>
<path fill="none" stroke="#9a32cd" stroke-dasharray="5,2" d="M92.6765,-191.3528C180.3146,-187.0099 442.6241,-174.0112 555.6519,-168.4101"/>
<polygon fill="#9a32cd" stroke="#9a32cd" points="92.4602,-187.8591 82.6457,-191.8499 92.8068,-194.8506 92.4602,-187.8591"/>
<text text-anchor="middle" x="334.1382" y="-184.795" font-family="Helvetica,sans-Serif" font-size="10.00" fill="#000000"> type</text>
</g>
<!-- Node7&#45;&gt;Node5 -->
<g id="edge8" class="edge">
<title>Node7&#45;&gt;Node5</title>
<path fill="none" stroke="#9a32cd" stroke-dasharray="5,2" d="M92.5867,-197.5132C137.6756,-204.8457 225.2346,-219.0848 281.6266,-228.2554"/>
<polygon fill="#9a32cd" stroke="#9a32cd" points="93.0315,-194.0396 82.5993,-195.889 91.9078,-200.9488 93.0315,-194.0396"/>
<text text-anchor="middle" x="195.4526" y="-222.795" font-family="Helvetica,sans-Serif" font-size="10.00" fill="#000000"> type</text>
</g>
<!-- Node8 -->
<g id="node9" class="node">
<title>Node8</title>
<polygon fill="none" stroke="#bfbfbf" points="316.6875,-49.795 316.6875,-67.795 351.5889,-67.795 351.5889,-49.795 316.6875,-49.795"/>
<text text-anchor="middle" x="334.1382" y="-55.795" font-family="Helvetica,sans-Serif" font-size="10.00" fill="#000000">float</text>
</g>
<!-- Node8&#45;&gt;Node0 -->
<g id="edge9" class="edge">
<title>Node8&#45;&gt;Node0</title>
<path fill="none" stroke="#9a32cd" stroke-dasharray="5,2" d="M361.4348,-50.3819C402.5509,-39.3898 481.5567,-24.9363 537.9678,-55.795 575.7707,-76.4745 596.2698,-127.0505 604.327,-151.7543"/>
<polygon fill="#9a32cd" stroke="#9a32cd" points="360.2814,-47.0702 351.5987,-53.1415 362.1724,-53.81 360.2814,-47.0702"/>
<text text-anchor="middle" x="480.2432" y="-127.795" font-family="Helvetica,sans-Serif" font-size="10.00" fill="#000000"> nodeOffsetAbsoluteYEnd</text>
<text text-anchor="middle" x="480.2432" y="-117.795" font-family="Helvetica,sans-Serif" font-size="10.00" fill="#000000">nodeOffsetAbsoluteYStart</text>
<text text-anchor="middle" x="480.2432" y="-107.795" font-family="Helvetica,sans-Serif" font-size="10.00" fill="#000000">extraLengthAtEnd</text>
<text text-anchor="middle" x="480.2432" y="-97.795" font-family="Helvetica,sans-Serif" font-size="10.00" fill="#000000">extraLengthAtStart</text>
<text text-anchor="middle" x="480.2432" y="-87.795" font-family="Helvetica,sans-Serif" font-size="10.00" fill="#000000">endWidth</text>
<text text-anchor="middle" x="480.2432" y="-77.795" font-family="Helvetica,sans-Serif" font-size="10.00" fill="#000000">startWidth</text>
<text text-anchor="middle" x="480.2432" y="-67.795" font-family="Helvetica,sans-Serif" font-size="10.00" fill="#000000">rotationAngle</text>
<text text-anchor="middle" x="480.2432" y="-57.795" font-family="Helvetica,sans-Serif" font-size="10.00" fill="#000000">nodeOffsetRelativeX</text>
</g>
<!-- Node9 -->
<g id="node10" class="node">
<title>Node9</title>
<polygon fill="none" stroke="#bfbfbf" points="263.7578,-2.795 263.7578,-30.795 404.5186,-30.795 404.5186,-2.795 263.7578,-2.795"/>
<text text-anchor="start" x="271.7578" y="-18.795" font-family="Helvetica,sans-Serif" font-size="10.00" fill="#000000">vector&lt; NoLimits::NoLimits2</text>
<text text-anchor="middle" x="334.1382" y="-8.795" font-family="Helvetica,sans-Serif" font-size="10.00" fill="#000000">::BeamNode * &gt;</text>
</g>
<!-- Node9&#45;&gt;Node0 -->
<g id="edge10" class="edge">
<title>Node9&#45;&gt;Node0</title>
<path fill="none" stroke="#9a32cd" stroke-dasharray="5,2" d="M409.7779,-1.6508C450.7835,2.4268 500.569,.2966 537.9678,-23.795 583.7765,-53.3042 600.8717,-122.1115 606.2667,-151.7751"/>
<polygon fill="#9a32cd" stroke="#9a32cd" points="409.3687,1.8253 399.8258,-2.7772 410.156,-5.1303 409.3687,1.8253"/>
<text text-anchor="middle" x="480.2432" y="-25.795" font-family="Helvetica,sans-Serif" font-size="10.00" fill="#000000"> beamNode</text>
</g>
</g>
</svg>
