<?xml version="1.0" encoding="UTF-8" standalone="no"?>
<!DOCTYPE svg PUBLIC "-//W3C//DTD SVG 1.1//EN"
 "http://www.w3.org/Graphics/SVG/1.1/DTD/svg11.dtd">
<!-- Generated by graphviz version 2.40.1 (20161225.0304)
 -->
<!-- Title: NoLimits::NoLimits2::Flange Pages: 1 -->
<svg width="256pt" height="168pt"
 viewBox="0.00 0.00 256.15 168.00" xmlns="http://www.w3.org/2000/svg" xmlns:xlink="http://www.w3.org/1999/xlink">
<g id="graph0" class="graph" transform="scale(1 1) rotate(0) translate(4 164)">
<title>NoLimits::NoLimits2::Flange</title>
<!-- Node0 -->
<g id="node1" class="node">
<title>Node0</title>
<polygon fill="#bfbfbf" stroke="#000000" points="110.1182,-.5 110.1182,-28.5 215.0293,-28.5 215.0293,-.5 110.1182,-.5"/>
<text text-anchor="start" x="118.1182" y="-16.5" font-family="Helvetica,sans-Serif" font-size="10.00" fill="#000000">NoLimits::NoLimits2</text>
<text text-anchor="middle" x="162.5737" y="-6.5" font-family="Helvetica,sans-Serif" font-size="10.00" fill="#000000">::Flange</text>
</g>
<!-- Node1 -->
<g id="node2" class="node">
<title>Node1</title>
<g id="a_node2"><a xlink:href="class_no_limits_1_1_no_limits2_1_1_beam_node.html" target="_top" xlink:title="NoLimits::NoLimits2\l::BeamNode">
<polygon fill="none" stroke="#000000" points="110.1182,-66.5 110.1182,-94.5 215.0293,-94.5 215.0293,-66.5 110.1182,-66.5"/>
<text text-anchor="start" x="118.1182" y="-82.5" font-family="Helvetica,sans-Serif" font-size="10.00" fill="#000000">NoLimits::NoLimits2</text>
<text text-anchor="middle" x="162.5737" y="-72.5" font-family="Helvetica,sans-Serif" font-size="10.00" fill="#000000">::BeamNode</text>
</a>
</g>
</g>
<!-- Node1&#45;&gt;Node0 -->
<g id="edge1" class="edge">
<title>Node1&#45;&gt;Node0</title>
<path fill="none" stroke="#191970" d="M162.5737,-56.0322C162.5737,-46.8606 162.5737,-36.7449 162.5737,-28.7931"/>
<polygon fill="#191970" stroke="#191970" points="159.0738,-56.1789 162.5737,-66.179 166.0738,-56.179 159.0738,-56.1789"/>
</g>
<!-- Node2 -->
<g id="node3" class="node">
<title>Node2</title>
<g id="a_node3"><a xlink:href="class_no_limits_1_1_stream_1_1_chunk.html" target="_top" xlink:title="NoLimits::Stream::Chunk">
<polygon fill="none" stroke="#000000" points="0,-141.5 0,-159.5 127.1475,-159.5 127.1475,-141.5 0,-141.5"/>
<text text-anchor="middle" x="63.5737" y="-147.5" font-family="Helvetica,sans-Serif" font-size="10.00" fill="#000000">NoLimits::Stream::Chunk</text>
</a>
</g>
</g>
<!-- Node2&#45;&gt;Node1 -->
<g id="edge2" class="edge">
<title>Node2&#45;&gt;Node1</title>
<path fill="none" stroke="#191970" d="M84.7481,-135.5282C101.8092,-123.4648 125.637,-106.6169 142.4203,-94.7499"/>
<polygon fill="#191970" stroke="#191970" points="82.6607,-132.7176 76.5163,-141.3487 86.702,-138.4332 82.6607,-132.7176"/>
</g>
<!-- Node3 -->
<g id="node4" class="node">
<title>Node3</title>
<polygon fill="none" stroke="#bfbfbf" points="145.123,-141.5 145.123,-159.5 180.0244,-159.5 180.0244,-141.5 145.123,-141.5"/>
<text text-anchor="middle" x="162.5737" y="-147.5" font-family="Helvetica,sans-Serif" font-size="10.00" fill="#000000">float</text>
</g>
<!-- Node3&#45;&gt;Node1 -->
<g id="edge3" class="edge">
<title>Node3&#45;&gt;Node1</title>
<path fill="none" stroke="#9a32cd" stroke-dasharray="5,2" d="M162.5737,-131.0243C162.5737,-119.5169 162.5737,-105.2016 162.5737,-94.7499"/>
<polygon fill="#9a32cd" stroke="#9a32cd" points="159.0738,-131.3487 162.5737,-141.3487 166.0738,-131.3488 159.0738,-131.3487"/>
<text text-anchor="middle" x="181.1968" y="-115" font-family="Helvetica,sans-Serif" font-size="10.00" fill="#000000"> position</text>
</g>
<!-- Node4 -->
<g id="node5" class="node">
<title>Node4</title>
<polygon fill="none" stroke="#bfbfbf" points="205.1206,-141.5 205.1206,-159.5 240.0269,-159.5 240.0269,-141.5 205.1206,-141.5"/>
<text text-anchor="middle" x="222.5737" y="-147.5" font-family="Helvetica,sans-Serif" font-size="10.00" fill="#000000">bool</text>
</g>
<!-- Node4&#45;&gt;Node1 -->
<g id="edge4" class="edge">
<title>Node4&#45;&gt;Node1</title>
<path fill="none" stroke="#9a32cd" stroke-dasharray="5,2" d="M213.3921,-132.0961C209.8131,-125.7414 205.4063,-118.7736 200.5737,-113 195.0019,-106.3431 187.9847,-99.9278 181.5015,-94.5812"/>
<polygon fill="#9a32cd" stroke="#9a32cd" points="210.5032,-134.1194 218.2773,-141.3176 216.6888,-130.8426 210.5032,-134.1194"/>
<text text-anchor="middle" x="227.8618" y="-115" font-family="Helvetica,sans-Serif" font-size="10.00" fill="#000000"> isFlange</text>
</g>
</g>
</svg>
