<?xml version="1.0" encoding="UTF-8" standalone="no"?>
<!DOCTYPE svg PUBLIC "-//W3C//DTD SVG 1.1//EN"
 "http://www.w3.org/Graphics/SVG/1.1/DTD/svg11.dtd">
<!-- Generated by graphviz version 2.40.1 (20161225.0304)
 -->
<!-- Title: NoLimits::NoLimits2::Train Pages: 1 -->
<svg width="815pt" height="219pt"
 viewBox="0.00 0.00 815.11 219.36" xmlns="http://www.w3.org/2000/svg" xmlns:xlink="http://www.w3.org/1999/xlink">
<g id="graph0" class="graph" transform="scale(1 1) rotate(0) translate(4 215.3612)">
<title>NoLimits::NoLimits2::Train</title>
<!-- Node0 -->
<g id="node1" class="node">
<title>Node0</title>
<polygon fill="#bfbfbf" stroke="#000000" points="702.1963,-103.5 702.1963,-131.5 807.1074,-131.5 807.1074,-103.5 702.1963,-103.5"/>
<text text-anchor="start" x="710.1963" y="-119.5" font-family="Helvetica,sans-Serif" font-size="10.00" fill="#000000">NoLimits::NoLimits2</text>
<text text-anchor="middle" x="754.6519" y="-109.5" font-family="Helvetica,sans-Serif" font-size="10.00" fill="#000000">::Train</text>
</g>
<!-- Node1 -->
<g id="node2" class="node">
<title>Node1</title>
<g id="a_node2"><a xlink:href="class_no_limits_1_1_stream_1_1_chunk.html" target="_top" xlink:title="NoLimits::Stream::Chunk">
<polygon fill="none" stroke="#000000" points="0,-189.5 0,-207.5 127.1475,-207.5 127.1475,-189.5 0,-189.5"/>
<text text-anchor="middle" x="63.5737" y="-195.5" font-family="Helvetica,sans-Serif" font-size="10.00" fill="#000000">NoLimits::Stream::Chunk</text>
</a>
</g>
</g>
<!-- Node1&#45;&gt;Node0 -->
<g id="edge1" class="edge">
<title>Node1&#45;&gt;Node0</title>
<path fill="none" stroke="#191970" d="M137.388,-206.0641C140.0053,-206.2288 142.598,-206.3753 145.1475,-206.5 182.9018,-208.3469 192.3993,-206.9368 230.1963,-206.5 403.2622,-204.4999 448.3126,-222.897 619.5166,-197.5 649.0326,-193.1215 657.9608,-193.7148 684.1963,-179.5 707.261,-167.0032 729.1814,-145.7026 742.2742,-131.6145"/>
<polygon fill="#191970" stroke="#191970" points="137.4311,-202.5586 127.2098,-205.3469 136.939,-209.5413 137.4311,-202.5586"/>
</g>
<!-- Node2 -->
<g id="node3" class="node">
<title>Node2</title>
<g id="a_node3"><a xlink:href="class_no_limits_1_1_no_limits2_1_1_car.html" target="_top" xlink:title="NoLimits::NoLimits2::Car">
<polygon fill="none" stroke="#000000" points="485.8457,-169.5 485.8457,-187.5 612.4268,-187.5 612.4268,-169.5 485.8457,-169.5"/>
<text text-anchor="middle" x="549.1362" y="-175.5" font-family="Helvetica,sans-Serif" font-size="10.00" fill="#000000">NoLimits::NoLimits2::Car</text>
</a>
</g>
</g>
<!-- Node1&#45;&gt;Node2 -->
<g id="edge3" class="edge">
<title>Node1&#45;&gt;Node2</title>
<path fill="none" stroke="#191970" d="M137.4121,-195.4586C232.4597,-191.5437 396.0169,-184.8069 485.7149,-181.1123"/>
<polygon fill="#191970" stroke="#191970" points="137.1495,-191.9664 127.302,-195.8751 137.4376,-198.9605 137.1495,-191.9664"/>
</g>
<!-- Node3 -->
<g id="node4" class="node">
<title>Node3</title>
<g id="a_node4"><a xlink:href="class_no_limits_1_1_no_limits2_1_1_individual_color.html" target="_top" xlink:title="NoLimits::NoLimits2\l::IndividualColor">
<polygon fill="none" stroke="#ff0000" points="248.1963,-134.5 248.1963,-162.5 353.1074,-162.5 353.1074,-134.5 248.1963,-134.5"/>
<text text-anchor="start" x="256.1963" y="-150.5" font-family="Helvetica,sans-Serif" font-size="10.00" fill="#000000">NoLimits::NoLimits2</text>
<text text-anchor="middle" x="300.6519" y="-140.5" font-family="Helvetica,sans-Serif" font-size="10.00" fill="#000000">::IndividualColor</text>
</a>
</g>
</g>
<!-- Node1&#45;&gt;Node3 -->
<g id="edge5" class="edge">
<title>Node1&#45;&gt;Node3</title>
<path fill="none" stroke="#191970" d="M116.4157,-187.3556C155.6524,-179.0805 208.9253,-167.8452 248.094,-159.5845"/>
<polygon fill="#191970" stroke="#191970" points="115.5693,-183.957 106.5068,-189.4454 117.0138,-190.8064 115.5693,-183.957"/>
</g>
<!-- Node2&#45;&gt;Node0 -->
<g id="edge2" class="edge">
<title>Node2&#45;&gt;Node0</title>
<path fill="none" stroke="#9a32cd" stroke-dasharray="5,2" d="M622.7925,-169.6284C643.0158,-166.0613 664.7277,-161.1623 684.1963,-154.5 701.0589,-148.7295 718.8173,-139.3795 732.287,-131.5227"/>
<polygon fill="#9a32cd" stroke="#9a32cd" points="621.9705,-166.2173 612.6878,-171.3243 623.1292,-173.1207 621.9705,-166.2173"/>
<text text-anchor="middle" x="660.8564" y="-167.5" font-family="Helvetica,sans-Serif" font-size="10.00" fill="#000000"> zeroCar</text>
</g>
<!-- Node3&#45;&gt;Node0 -->
<g id="edge7" class="edge">
<title>Node3&#45;&gt;Node0</title>
<path fill="none" stroke="#9a32cd" stroke-dasharray="5,2" d="M363.2427,-144.2262C453.2647,-138.0793 617.6999,-126.8513 701.9012,-121.1019"/>
<polygon fill="#9a32cd" stroke="#9a32cd" points="362.9132,-140.7404 353.1749,-144.9136 363.3902,-147.7242 362.9132,-140.7404"/>
<text text-anchor="middle" x="549.1362" y="-137.5" font-family="Helvetica,sans-Serif" font-size="10.00" fill="#000000"> individualColor</text>
</g>
<!-- Node3&#45;&gt;Node2 -->
<g id="edge4" class="edge">
<title>Node3&#45;&gt;Node2</title>
<path fill="none" stroke="#9a32cd" stroke-dasharray="5,2" d="M363.5959,-156.0994C400.9088,-160.6042 448.0642,-166.2974 485.4982,-170.8169"/>
<polygon fill="#9a32cd" stroke="#9a32cd" points="363.6965,-152.5862 353.349,-154.8622 362.8574,-159.5357 363.6965,-152.5862"/>
<text text-anchor="middle" x="415.9316" y="-168.5" font-family="Helvetica,sans-Serif" font-size="10.00" fill="#000000"> individualColor</text>
</g>
<!-- Node5 -->
<g id="node5" class="node">
<title>Node5</title>
<polygon fill="none" stroke="#bfbfbf" points="46.1206,-105.5 46.1206,-123.5 81.0269,-123.5 81.0269,-105.5 46.1206,-105.5"/>
<text text-anchor="middle" x="63.5737" y="-111.5" font-family="Helvetica,sans-Serif" font-size="10.00" fill="#000000">bool</text>
</g>
<!-- Node5&#45;&gt;Node0 -->
<g id="edge9" class="edge">
<title>Node5&#45;&gt;Node0</title>
<path fill="none" stroke="#9a32cd" stroke-dasharray="5,2" d="M91.6207,-114.2498C156.5511,-113.7098 322.2421,-112.5574 460.7559,-113.5 545.2058,-114.0747 643.2961,-115.5781 702.095,-116.5692"/>
<polygon fill="#9a32cd" stroke="#9a32cd" points="91.3581,-110.7518 81.3882,-114.3368 91.4177,-117.7515 91.3581,-110.7518"/>
<text text-anchor="middle" x="415.9316" y="-125.5" font-family="Helvetica,sans-Serif" font-size="10.00" fill="#000000"> removedFromTrack</text>
<text text-anchor="middle" x="415.9316" y="-115.5" font-family="Helvetica,sans-Serif" font-size="10.00" fill="#000000">runBackward</text>
</g>
<!-- Node5&#45;&gt;Node3 -->
<g id="edge6" class="edge">
<title>Node5&#45;&gt;Node3</title>
<path fill="none" stroke="#9a32cd" stroke-dasharray="5,2" d="M91.3113,-118.4779C129.5928,-123.968 199.3703,-133.9749 247.788,-140.9187"/>
<polygon fill="#9a32cd" stroke="#9a32cd" points="91.7887,-115.0107 81.3931,-117.0555 90.795,-121.9398 91.7887,-115.0107"/>
<text text-anchor="middle" x="187.6719" y="-139.5" font-family="Helvetica,sans-Serif" font-size="10.00" fill="#000000"> hasIndividualColor</text>
</g>
<!-- Node7 -->
<g id="node6" class="node">
<title>Node7</title>
<polygon fill="none" stroke="#bfbfbf" points="528.9097,-47.5 528.9097,-65.5 569.3628,-65.5 569.3628,-47.5 528.9097,-47.5"/>
<text text-anchor="middle" x="549.1362" y="-53.5" font-family="Helvetica,sans-Serif" font-size="10.00" fill="#000000">string</text>
</g>
<!-- Node7&#45;&gt;Node0 -->
<g id="edge8" class="edge">
<title>Node7&#45;&gt;Node0</title>
<path fill="none" stroke="#9a32cd" stroke-dasharray="5,2" d="M579.8394,-55.5355C607.8362,-55.6121 649.9327,-58.156 684.1963,-70.5 704.6697,-77.8759 725.019,-92.4321 738.5449,-103.4012"/>
<polygon fill="#9a32cd" stroke="#9a32cd" points="579.4585,-52.0384 569.4869,-55.6183 579.5146,-59.0381 579.4585,-52.0384"/>
<text text-anchor="middle" x="660.8564" y="-72.5" font-family="Helvetica,sans-Serif" font-size="10.00" fill="#000000"> startBlock</text>
</g>
<!-- Node8 -->
<g id="node7" class="node">
<title>Node8</title>
<polygon fill="none" stroke="#bfbfbf" points="478.7559,-.5 478.7559,-28.5 619.5166,-28.5 619.5166,-.5 478.7559,-.5"/>
<text text-anchor="start" x="486.7559" y="-16.5" font-family="Helvetica,sans-Serif" font-size="10.00" fill="#000000">vector&lt; NoLimits::NoLimits2</text>
<text text-anchor="middle" x="549.1362" y="-6.5" font-family="Helvetica,sans-Serif" font-size="10.00" fill="#000000">::Car * &gt;</text>
</g>
<!-- Node8&#45;&gt;Node0 -->
<g id="edge10" class="edge">
<title>Node8&#45;&gt;Node0</title>
<path fill="none" stroke="#9a32cd" stroke-dasharray="5,2" d="M629.2953,-25.7782C648.07,-30.4763 667.4603,-37.1178 684.1963,-46.5 709.7957,-60.851 732.3009,-87.1964 744.6408,-103.4457"/>
<polygon fill="#9a32cd" stroke="#9a32cd" points="630.0857,-22.3686 619.5508,-23.4943 628.4883,-29.1839 630.0857,-22.3686"/>
<text text-anchor="middle" x="660.8564" y="-48.5" font-family="Helvetica,sans-Serif" font-size="10.00" fill="#000000"> car</text>
</g>
</g>
</svg>
