<?xml version="1.0" encoding="UTF-8" standalone="no"?>
<!DOCTYPE svg PUBLIC "-//W3C//DTD SVG 1.1//EN"
 "http://www.w3.org/Graphics/SVG/1.1/DTD/svg11.dtd">
<!-- Generated by graphviz version 2.40.1 (20161225.0304)
 -->
<!-- Title: NoLimits::NoLimits2::Parameter4D Pages: 1 -->
<svg width="200pt" height="112pt"
 viewBox="0.00 0.00 199.59 112.00" xmlns="http://www.w3.org/2000/svg" xmlns:xlink="http://www.w3.org/1999/xlink">
<g id="graph0" class="graph" transform="scale(1 1) rotate(0) translate(4 108)">
<title>NoLimits::NoLimits2::Parameter4D</title>
<!-- Node0 -->
<g id="node1" class="node">
<title>Node0</title>
<polygon fill="#bfbfbf" stroke="#000000" points="63.1182,-.5 63.1182,-28.5 168.0293,-28.5 168.0293,-.5 63.1182,-.5"/>
<text text-anchor="start" x="71.1182" y="-16.5" font-family="Helvetica,sans-Serif" font-size="10.00" fill="#000000">NoLimits::NoLimits2</text>
<text text-anchor="middle" x="115.5737" y="-6.5" font-family="Helvetica,sans-Serif" font-size="10.00" fill="#000000">::Parameter4D</text>
</g>
<!-- Node1 -->
<g id="node2" class="node">
<title>Node1</title>
<g id="a_node2"><a xlink:href="class_no_limits_1_1_stream_1_1_chunk.html" target="_top" xlink:title="NoLimits::Stream::Chunk">
<polygon fill="none" stroke="#000000" points="0,-85.5 0,-103.5 127.1475,-103.5 127.1475,-85.5 0,-85.5"/>
<text text-anchor="middle" x="63.5737" y="-91.5" font-family="Helvetica,sans-Serif" font-size="10.00" fill="#000000">NoLimits::Stream::Chunk</text>
</a>
</g>
</g>
<!-- Node1&#45;&gt;Node0 -->
<g id="edge1" class="edge">
<title>Node1&#45;&gt;Node0</title>
<path fill="none" stroke="#191970" d="M75.1043,-76.7607C84.5164,-62.2805 97.6401,-42.0901 106.3614,-28.6728"/>
<polygon fill="#191970" stroke="#191970" points="72.0542,-75.0311 69.5388,-85.323 77.9233,-78.846 72.0542,-75.0311"/>
</g>
<!-- Node2 -->
<g id="node3" class="node">
<title>Node2</title>
<polygon fill="none" stroke="#bfbfbf" points="145.5591,-85.5 145.5591,-103.5 191.5884,-103.5 191.5884,-85.5 145.5591,-85.5"/>
<text text-anchor="middle" x="168.5737" y="-91.5" font-family="Helvetica,sans-Serif" font-size="10.00" fill="#000000">double</text>
</g>
<!-- Node2&#45;&gt;Node0 -->
<g id="edge2" class="edge">
<title>Node2&#45;&gt;Node0</title>
<path fill="none" stroke="#9a32cd" stroke-dasharray="5,2" d="M156.8214,-76.7607C147.2283,-62.2805 133.8522,-42.0901 124.9632,-28.6728"/>
<polygon fill="#9a32cd" stroke="#9a32cd" points="154.0532,-78.9195 162.494,-85.323 159.8888,-75.0534 154.0532,-78.9195"/>
<text text-anchor="middle" x="168.1968" y="-59" font-family="Helvetica,sans-Serif" font-size="10.00" fill="#000000"> position</text>
<text text-anchor="middle" x="168.1968" y="-49" font-family="Helvetica,sans-Serif" font-size="10.00" fill="#000000">angle</text>
</g>
</g>
</svg>
