<?xml version="1.0" encoding="UTF-8" standalone="no"?>
<!DOCTYPE svg PUBLIC "-//W3C//DTD SVG 1.1//EN"
 "http://www.w3.org/Graphics/SVG/1.1/DTD/svg11.dtd">
<!-- Generated by graphviz version 2.40.1 (20161225.0304)
 -->
<!-- Title: NoLimits::NoLimits2::FreeNode Pages: 1 -->
<svg width="190pt" height="102pt"
 viewBox="0.00 0.00 190.14 102.00" xmlns="http://www.w3.org/2000/svg" xmlns:xlink="http://www.w3.org/1999/xlink">
<g id="graph0" class="graph" transform="scale(1 1) rotate(0) translate(4 98)">
<title>NoLimits::NoLimits2::FreeNode</title>
<!-- Node0 -->
<g id="node1" class="node">
<title>Node0</title>
<polygon fill="#bfbfbf" stroke="#000000" points="61.1182,-.5 61.1182,-28.5 166.0293,-28.5 166.0293,-.5 61.1182,-.5"/>
<text text-anchor="start" x="69.1182" y="-16.5" font-family="Helvetica,sans-Serif" font-size="10.00" fill="#000000">NoLimits::NoLimits2</text>
<text text-anchor="middle" x="113.5737" y="-6.5" font-family="Helvetica,sans-Serif" font-size="10.00" fill="#000000">::FreeNode</text>
</g>
<!-- Node1 -->
<g id="node2" class="node">
<title>Node1</title>
<g id="a_node2"><a xlink:href="class_no_limits_1_1_stream_1_1_chunk.html" target="_top" xlink:title="NoLimits::Stream::Chunk">
<polygon fill="none" stroke="#000000" points="0,-75.5 0,-93.5 127.1475,-93.5 127.1475,-75.5 0,-75.5"/>
<text text-anchor="middle" x="63.5737" y="-81.5" font-family="Helvetica,sans-Serif" font-size="10.00" fill="#000000">NoLimits::Stream::Chunk</text>
</a>
</g>
</g>
<!-- Node1&#45;&gt;Node0 -->
<g id="edge1" class="edge">
<title>Node1&#45;&gt;Node0</title>
<path fill="none" stroke="#191970" d="M75.9684,-67.1475C84.4156,-55.3214 95.4632,-39.8548 103.3952,-28.7499"/>
<polygon fill="#191970" stroke="#191970" points="73.0747,-65.177 70.1104,-75.3487 78.7709,-69.2457 73.0747,-65.177"/>
</g>
<!-- Node2 -->
<g id="node3" class="node">
<title>Node2</title>
<polygon fill="none" stroke="#bfbfbf" points="145.0122,-75.5 145.0122,-93.5 182.1353,-93.5 182.1353,-75.5 145.0122,-75.5"/>
<text text-anchor="middle" x="163.5737" y="-81.5" font-family="Helvetica,sans-Serif" font-size="10.00" fill="#000000">vec3</text>
</g>
<!-- Node2&#45;&gt;Node0 -->
<g id="edge2" class="edge">
<title>Node2&#45;&gt;Node0</title>
<path fill="none" stroke="#9a32cd" stroke-dasharray="5,2" d="M151.1791,-67.1475C142.7319,-55.3214 131.6843,-39.8548 123.7522,-28.7499"/>
<polygon fill="#9a32cd" stroke="#9a32cd" points="148.3766,-69.2457 157.0371,-75.3487 154.0728,-65.177 148.3766,-69.2457"/>
<text text-anchor="middle" x="161.1968" y="-49" font-family="Helvetica,sans-Serif" font-size="10.00" fill="#000000"> position</text>
</g>
</g>
</svg>
