<?xml version="1.0" encoding="UTF-8" standalone="no"?>
<!DOCTYPE svg PUBLIC "-//W3C//DTD SVG 1.1//EN"
 "http://www.w3.org/Graphics/SVG/1.1/DTD/svg11.dtd">
<!-- Generated by graphviz version 2.40.1 (20161225.0304)
 -->
<!-- Title: NoLimits::NoLimits1::Track Pages: 1 -->
<svg width="610pt" height="189pt"
 viewBox="0.00 0.00 610.29 189.00" xmlns="http://www.w3.org/2000/svg" xmlns:xlink="http://www.w3.org/1999/xlink">
<g id="graph0" class="graph" transform="scale(1 1) rotate(0) translate(4 185)">
<title>NoLimits::NoLimits1::Track</title>
<!-- Node0 -->
<g id="node1" class="node">
<title>Node0</title>
<polygon fill="#bfbfbf" stroke="#000000" points="497.3789,-79.5 497.3789,-107.5 602.29,-107.5 602.29,-79.5 497.3789,-79.5"/>
<text text-anchor="start" x="505.3789" y="-95.5" font-family="Helvetica,sans-Serif" font-size="10.00" fill="#000000">NoLimits::NoLimits1</text>
<text text-anchor="middle" x="549.8345" y="-85.5" font-family="Helvetica,sans-Serif" font-size="10.00" fill="#000000">::Track</text>
</g>
<!-- Node1 -->
<g id="node2" class="node">
<title>Node1</title>
<g id="a_node2"><a xlink:href="class_no_limits_1_1_stream_1_1_chunk.html" target="_top" xlink:title="NoLimits::Stream::Chunk">
<polygon fill="none" stroke="#000000" points="0,-162.5 0,-180.5 127.1475,-180.5 127.1475,-162.5 0,-162.5"/>
<text text-anchor="middle" x="63.5737" y="-168.5" font-family="Helvetica,sans-Serif" font-size="10.00" fill="#000000">NoLimits::Stream::Chunk</text>
</a>
</g>
</g>
<!-- Node1&#45;&gt;Node0 -->
<g id="edge1" class="edge">
<title>Node1&#45;&gt;Node0</title>
<path fill="none" stroke="#191970" d="M137.4094,-177.6995C222.7528,-182.1314 366.001,-181.0437 479.3789,-137.5 498.4956,-130.1581 518.0824,-117.4233 531.7359,-107.5372"/>
<polygon fill="#191970" stroke="#191970" points="137.4744,-174.1978 127.2946,-177.1342 137.0836,-181.1869 137.4744,-174.1978"/>
</g>
<!-- Node2 -->
<g id="node3" class="node">
<title>Node2</title>
<g id="a_node3"><a xlink:href="class_no_limits_1_1_no_limits1_1_1_info.html" target="_top" xlink:title="NoLimits::NoLimits1\l::Info">
<polygon fill="none" stroke="#000000" points="232.21,-121.5 232.21,-149.5 337.1211,-149.5 337.1211,-121.5 232.21,-121.5"/>
<text text-anchor="start" x="240.21" y="-137.5" font-family="Helvetica,sans-Serif" font-size="10.00" fill="#000000">NoLimits::NoLimits1</text>
<text text-anchor="middle" x="284.6655" y="-127.5" font-family="Helvetica,sans-Serif" font-size="10.00" fill="#000000">::Info</text>
</a>
</g>
</g>
<!-- Node1&#45;&gt;Node2 -->
<g id="edge3" class="edge">
<title>Node1&#45;&gt;Node2</title>
<path fill="none" stroke="#191970" d="M129.0677,-160.8357C161.9706,-155.4782 201.2974,-149.0747 232.1817,-144.0458"/>
<polygon fill="#191970" stroke="#191970" points="128.3866,-157.4004 119.0791,-162.4621 129.5117,-164.3095 128.3866,-157.4004"/>
</g>
<!-- Node2&#45;&gt;Node0 -->
<g id="edge2" class="edge">
<title>Node2&#45;&gt;Node0</title>
<path fill="none" stroke="#9a32cd" stroke-dasharray="5,2" d="M347.2247,-127.3672C385.4718,-122.1809 435.3444,-115.0356 479.3789,-107.5 485.1563,-106.5113 491.1871,-105.4138 497.1836,-104.2807"/>
<polygon fill="#9a32cd" stroke="#9a32cd" points="346.7053,-123.9055 337.2622,-128.7096 347.6401,-130.8428 346.7053,-123.9055"/>
<text text-anchor="middle" x="426.2124" y="-125.5" font-family="Helvetica,sans-Serif" font-size="10.00" fill="#000000"> info</text>
</g>
<!-- Node3 -->
<g id="node4" class="node">
<title>Node3</title>
<polygon fill="none" stroke="#bfbfbf" points="43.3472,-119.5 43.3472,-137.5 83.8003,-137.5 83.8003,-119.5 43.3472,-119.5"/>
<text text-anchor="middle" x="63.5737" y="-125.5" font-family="Helvetica,sans-Serif" font-size="10.00" fill="#000000">string</text>
</g>
<!-- Node3&#45;&gt;Node2 -->
<g id="edge4" class="edge">
<title>Node3&#45;&gt;Node2</title>
<path fill="none" stroke="#9a32cd" stroke-dasharray="5,2" d="M94.1309,-128.2083C121.0371,-128.076 161.2762,-128.181 196.2852,-129.5 207.8113,-129.9343 220.1696,-130.6291 231.8832,-131.3945"/>
<polygon fill="#9a32cd" stroke="#9a32cd" points="93.795,-124.7103 83.8175,-128.2739 93.8396,-131.7101 93.795,-124.7103"/>
<text text-anchor="middle" x="170.7163" y="-131.5" font-family="Helvetica,sans-Serif" font-size="10.00" fill="#000000"> description</text>
</g>
<!-- Node4 -->
<g id="node5" class="node">
<title>Node4</title>
<polygon fill="none" stroke="#bfbfbf" points="258.8726,-84.5 258.8726,-102.5 310.4585,-102.5 310.4585,-84.5 258.8726,-84.5"/>
<text text-anchor="middle" x="284.6655" y="-90.5" font-family="Helvetica,sans-Serif" font-size="10.00" fill="#000000">uint32_t</text>
</g>
<!-- Node4&#45;&gt;Node0 -->
<g id="edge5" class="edge">
<title>Node4&#45;&gt;Node0</title>
<path fill="none" stroke="#9a32cd" stroke-dasharray="5,2" d="M320.5739,-93.5C366.0811,-93.5 444.8799,-93.5 497.1887,-93.5"/>
<polygon fill="#9a32cd" stroke="#9a32cd" points="320.5739,-90.0001 310.5738,-93.5 320.5738,-97.0001 320.5739,-90.0001"/>
<text text-anchor="middle" x="426.2124" y="-95.5" font-family="Helvetica,sans-Serif" font-size="10.00" fill="#000000"> numberOfCarsPerTrain</text>
</g>
<!-- Node5 -->
<g id="node6" class="node">
<title>Node5</title>
<polygon fill="none" stroke="#bfbfbf" points="214.2852,-37.5 214.2852,-65.5 355.0459,-65.5 355.0459,-37.5 214.2852,-37.5"/>
<text text-anchor="start" x="222.2852" y="-53.5" font-family="Helvetica,sans-Serif" font-size="10.00" fill="#000000">vector&lt; NoLimits::NoLimits1</text>
<text text-anchor="middle" x="284.6655" y="-43.5" font-family="Helvetica,sans-Serif" font-size="10.00" fill="#000000">::Train * &gt;</text>
</g>
<!-- Node5&#45;&gt;Node0 -->
<g id="edge6" class="edge">
<title>Node5&#45;&gt;Node0</title>
<path fill="none" stroke="#9a32cd" stroke-dasharray="5,2" d="M365.3039,-62.1133C400.4145,-66.988 442.0001,-73.1034 479.3789,-79.5 485.1563,-80.4887 491.1871,-81.5862 497.1836,-82.7193"/>
<polygon fill="#9a32cd" stroke="#9a32cd" points="365.4903,-58.606 355.1058,-60.7069 364.5339,-65.5403 365.4903,-58.606"/>
<text text-anchor="middle" x="426.2124" y="-81.5" font-family="Helvetica,sans-Serif" font-size="10.00" fill="#000000"> train</text>
</g>
<!-- Node6 -->
<g id="node7" class="node">
<title>Node6</title>
<polygon fill="none" stroke="#bfbfbf" points="248.0425,-.5 248.0425,-18.5 321.2886,-18.5 321.2886,-.5 248.0425,-.5"/>
<text text-anchor="middle" x="284.6655" y="-6.5" font-family="Helvetica,sans-Serif" font-size="10.00" fill="#000000">CoasterStyle</text>
</g>
<!-- Node6&#45;&gt;Node0 -->
<g id="edge7" class="edge">
<title>Node6&#45;&gt;Node0</title>
<path fill="none" stroke="#9a32cd" stroke-dasharray="5,2" d="M331.3831,-14.3675C371.6883,-19.6655 430.8891,-30.1085 479.3789,-49.5 498.2591,-57.0503 517.7149,-69.6314 531.3849,-79.411"/>
<polygon fill="#9a32cd" stroke="#9a32cd" points="331.6657,-10.8755 321.3066,-13.0984 330.7909,-17.8207 331.6657,-10.8755"/>
<text text-anchor="middle" x="426.2124" y="-51.5" font-family="Helvetica,sans-Serif" font-size="10.00" fill="#000000"> coasterStyle</text>
</g>
</g>
</svg>
