<?xml version="1.0" encoding="UTF-8" standalone="no"?>
<!DOCTYPE svg PUBLIC "-//W3C//DTD SVG 1.1//EN"
 "http://www.w3.org/Graphics/SVG/1.1/DTD/svg11.dtd">
<!-- Generated by graphviz version 2.40.1 (20161225.0304)
 -->
<!-- Title: NoLimits::NoLimits2::SpecialTrack Pages: 1 -->
<svg width="585pt" height="283pt"
 viewBox="0.00 0.00 584.74 283.00" xmlns="http://www.w3.org/2000/svg" xmlns:xlink="http://www.w3.org/1999/xlink">
<g id="graph0" class="graph" transform="scale(1 1) rotate(0) translate(4 279)">
<title>NoLimits::NoLimits2::SpecialTrack</title>
<!-- Node0 -->
<g id="node1" class="node">
<title>Node0</title>
<polygon fill="#bfbfbf" stroke="#000000" points="471.8271,-112.5 471.8271,-140.5 576.7383,-140.5 576.7383,-112.5 471.8271,-112.5"/>
<text text-anchor="start" x="479.8271" y="-128.5" font-family="Helvetica,sans-Serif" font-size="10.00" fill="#000000">NoLimits::NoLimits2</text>
<text text-anchor="middle" x="524.2827" y="-118.5" font-family="Helvetica,sans-Serif" font-size="10.00" fill="#000000">::SpecialTrack</text>
</g>
<!-- Node1 -->
<g id="node2" class="node">
<title>Node1</title>
<g id="a_node2"><a xlink:href="class_no_limits_1_1_no_limits2_1_1_track.html" target="_top" xlink:title="NoLimits::NoLimits2\l::Track">
<polygon fill="none" stroke="#000000" points="227.2051,-233.5 227.2051,-261.5 332.1162,-261.5 332.1162,-233.5 227.2051,-233.5"/>
<text text-anchor="start" x="235.2051" y="-249.5" font-family="Helvetica,sans-Serif" font-size="10.00" fill="#000000">NoLimits::NoLimits2</text>
<text text-anchor="middle" x="279.6606" y="-239.5" font-family="Helvetica,sans-Serif" font-size="10.00" fill="#000000">::Track</text>
</a>
</g>
</g>
<!-- Node1&#45;&gt;Node0 -->
<g id="edge1" class="edge">
<title>Node1&#45;&gt;Node0</title>
<path fill="none" stroke="#191970" d="M342.2209,-245.1677C377.1555,-241.4512 420.268,-232.679 453.8271,-212.5 483.2706,-194.7958 505.8317,-160.134 516.8464,-140.6555"/>
<polygon fill="#191970" stroke="#191970" points="341.7555,-241.696 332.1316,-246.1266 342.4179,-248.6646 341.7555,-241.696"/>
</g>
<!-- Node2 -->
<g id="node3" class="node">
<title>Node2</title>
<g id="a_node3"><a xlink:href="class_no_limits_1_1_stream_1_1_chunk.html" target="_top" xlink:title="NoLimits::Stream::Chunk">
<polygon fill="none" stroke="#000000" points="0,-256.5 0,-274.5 127.1475,-274.5 127.1475,-256.5 0,-256.5"/>
<text text-anchor="middle" x="63.5737" y="-262.5" font-family="Helvetica,sans-Serif" font-size="10.00" fill="#000000">NoLimits::Stream::Chunk</text>
</a>
</g>
</g>
<!-- Node2&#45;&gt;Node1 -->
<g id="edge2" class="edge">
<title>Node2&#45;&gt;Node1</title>
<path fill="none" stroke="#191970" d="M137.4727,-259.3442C166.8979,-256.8931 200.0891,-254.1283 226.9985,-251.8867"/>
<polygon fill="#191970" stroke="#191970" points="136.9131,-255.8786 127.2382,-260.1968 137.4943,-262.8545 136.9131,-255.8786"/>
</g>
<!-- Node3 -->
<g id="node4" class="node">
<title>Node3</title>
<polygon fill="none" stroke="#bfbfbf" points="32.4146,-219.5 32.4146,-237.5 94.7329,-237.5 94.7329,-219.5 32.4146,-219.5"/>
<text text-anchor="middle" x="63.5737" y="-225.5" font-family="Helvetica,sans-Serif" font-size="10.00" fill="#000000">TrackType</text>
</g>
<!-- Node3&#45;&gt;Node1 -->
<g id="edge3" class="edge">
<title>Node3&#45;&gt;Node1</title>
<path fill="none" stroke="#9a32cd" stroke-dasharray="5,2" d="M105.2437,-232.1639C139.9039,-235.2115 189.4412,-239.5672 226.8722,-242.8584"/>
<polygon fill="#9a32cd" stroke="#9a32cd" points="105.2628,-228.6522 94.9946,-231.2628 104.6496,-235.6253 105.2628,-228.6522"/>
<text text-anchor="middle" x="168.2139" y="-241.5" font-family="Helvetica,sans-Serif" font-size="10.00" fill="#000000"> trackType</text>
</g>
<!-- Node4 -->
<g id="node5" class="node">
<title>Node4</title>
<polygon fill="none" stroke="#bfbfbf" points="262.21,-196.5 262.21,-214.5 297.1113,-214.5 297.1113,-196.5 262.21,-196.5"/>
<text text-anchor="middle" x="279.6606" y="-202.5" font-family="Helvetica,sans-Serif" font-size="10.00" fill="#000000">float</text>
</g>
<!-- Node4&#45;&gt;Node0 -->
<g id="edge4" class="edge">
<title>Node4&#45;&gt;Node0</title>
<path fill="none" stroke="#9a32cd" stroke-dasharray="5,2" d="M307.168,-204.4384C342.3749,-202.2657 404.6881,-195.6488 453.8271,-175.5 474.3673,-167.0778 494.865,-151.8603 508.4115,-140.6108"/>
<polygon fill="#9a32cd" stroke="#9a32cd" points="306.9529,-200.9448 297.1566,-204.98 307.3311,-207.9346 306.9529,-200.9448"/>
<text text-anchor="middle" x="410.9341" y="-200.5" font-family="Helvetica,sans-Serif" font-size="10.00" fill="#000000"> switchTime</text>
</g>
<!-- Node5 -->
<g id="node6" class="node">
<title>Node5</title>
<polygon fill="none" stroke="#bfbfbf" points="232.1025,-159.5 232.1025,-177.5 327.2188,-177.5 327.2188,-159.5 232.1025,-159.5"/>
<text text-anchor="middle" x="279.6606" y="-165.5" font-family="Helvetica,sans-Serif" font-size="10.00" fill="#000000">SpecialTrackType</text>
</g>
<!-- Node5&#45;&gt;Node0 -->
<g id="edge5" class="edge">
<title>Node5&#45;&gt;Node0</title>
<path fill="none" stroke="#9a32cd" stroke-dasharray="5,2" d="M337.5701,-163.9997C371.6486,-160.7359 415.4531,-155.4722 453.8271,-147.5 462.8249,-145.6307 472.3345,-143.1518 481.3564,-140.554"/>
<polygon fill="#9a32cd" stroke="#9a32cd" points="336.9575,-160.5414 327.3231,-164.9491 337.6034,-167.5115 336.9575,-160.5414"/>
<text text-anchor="middle" x="410.9341" y="-163.5" font-family="Helvetica,sans-Serif" font-size="10.00" fill="#000000"> _specialTrackType</text>
</g>
<!-- Node6 -->
<g id="node7" class="node">
<title>Node6</title>
<polygon fill="none" stroke="#bfbfbf" points="231.6338,-121.5 231.6338,-139.5 327.6875,-139.5 327.6875,-121.5 231.6338,-121.5"/>
<text text-anchor="middle" x="279.6606" y="-127.5" font-family="Helvetica,sans-Serif" font-size="10.00" fill="#000000">vector&lt; uint32_t &gt;</text>
</g>
<!-- Node6&#45;&gt;Node0 -->
<g id="edge6" class="edge">
<title>Node6&#45;&gt;Node0</title>
<path fill="none" stroke="#9a32cd" stroke-dasharray="5,2" d="M338.0882,-128.2895C348.0797,-127.9765 358.3576,-127.6953 368.041,-127.5 402.4838,-126.8053 441.2054,-126.5538 471.4837,-126.4767"/>
<polygon fill="#9a32cd" stroke="#9a32cd" points="337.6972,-124.8003 327.8167,-128.6248 337.9256,-131.7965 337.6972,-124.8003"/>
<text text-anchor="middle" x="410.9341" y="-139.5" font-family="Helvetica,sans-Serif" font-size="10.00" fill="#000000"> output</text>
<text text-anchor="middle" x="410.9341" y="-129.5" font-family="Helvetica,sans-Serif" font-size="10.00" fill="#000000">input</text>
</g>
<!-- Node7 -->
<g id="node8" class="node">
<title>Node7</title>
<polygon fill="none" stroke="#bfbfbf" points="259.4341,-84.5 259.4341,-102.5 299.8872,-102.5 299.8872,-84.5 259.4341,-84.5"/>
<text text-anchor="middle" x="279.6606" y="-90.5" font-family="Helvetica,sans-Serif" font-size="10.00" fill="#000000">string</text>
</g>
<!-- Node7&#45;&gt;Node0 -->
<g id="edge7" class="edge">
<title>Node7&#45;&gt;Node0</title>
<path fill="none" stroke="#9a32cd" stroke-dasharray="5,2" d="M310.1048,-96.3616C344.9333,-99.7823 403.633,-105.9962 453.8271,-113.5 459.6089,-114.3643 465.6425,-115.3495 471.6406,-116.382"/>
<polygon fill="#9a32cd" stroke="#9a32cd" points="310.3893,-92.8728 300.0982,-95.3913 309.7137,-99.8401 310.3893,-92.8728"/>
<text text-anchor="middle" x="410.9341" y="-115.5" font-family="Helvetica,sans-Serif" font-size="10.00" fill="#000000"> name</text>
</g>
<!-- Node8 -->
<g id="node9" class="node">
<title>Node8</title>
<polygon fill="none" stroke="#bfbfbf" points="209.2803,-37.5 209.2803,-65.5 350.041,-65.5 350.041,-37.5 209.2803,-37.5"/>
<text text-anchor="start" x="217.2803" y="-53.5" font-family="Helvetica,sans-Serif" font-size="10.00" fill="#000000">vector&lt; NoLimits::NoLimits2</text>
<text text-anchor="middle" x="279.6606" y="-43.5" font-family="Helvetica,sans-Serif" font-size="10.00" fill="#000000">::Segment * &gt;</text>
</g>
<!-- Node8&#45;&gt;Node0 -->
<g id="edge8" class="edge">
<title>Node8&#45;&gt;Node0</title>
<path fill="none" stroke="#9a32cd" stroke-dasharray="5,2" d="M360.411,-63.6864C390.2901,-69.4811 424.1075,-77.5848 453.8271,-88.5 470.7863,-94.7286 488.69,-104.4305 502.2055,-112.4719"/>
<polygon fill="#9a32cd" stroke="#9a32cd" points="360.9157,-60.22 350.4407,-61.809 359.6203,-67.0991 360.9157,-60.22"/>
<text text-anchor="middle" x="410.9341" y="-90.5" font-family="Helvetica,sans-Serif" font-size="10.00" fill="#000000"> segment</text>
</g>
<!-- Node9 -->
<g id="node10" class="node">
<title>Node9</title>
<polygon fill="none" stroke="#bfbfbf" points="261.0991,-.5 261.0991,-18.5 298.2222,-18.5 298.2222,-.5 261.0991,-.5"/>
<text text-anchor="middle" x="279.6606" y="-6.5" font-family="Helvetica,sans-Serif" font-size="10.00" fill="#000000">vec3</text>
</g>
<!-- Node9&#45;&gt;Node0 -->
<g id="edge9" class="edge">
<title>Node9&#45;&gt;Node0</title>
<path fill="none" stroke="#9a32cd" stroke-dasharray="5,2" d="M308.7565,-8.9359C345.131,-9.4946 408.1586,-14.73 453.8271,-41.5 483.2609,-58.7535 505.8257,-93.1079 516.8437,-112.4409"/>
<polygon fill="#9a32cd" stroke="#9a32cd" points="308.3864,-5.4344 298.3723,-8.894 308.358,-12.4344 308.3864,-5.4344"/>
<text text-anchor="middle" x="410.9341" y="-53.5" font-family="Helvetica,sans-Serif" font-size="10.00" fill="#000000"> rotation</text>
<text text-anchor="middle" x="410.9341" y="-43.5" font-family="Helvetica,sans-Serif" font-size="10.00" fill="#000000">position</text>
</g>
</g>
</svg>
