<?xml version="1.0" encoding="UTF-8" standalone="no"?>
<!DOCTYPE svg PUBLIC "-//W3C//DTD SVG 1.1//EN"
 "http://www.w3.org/Graphics/SVG/1.1/DTD/svg11.dtd">
<!-- Generated by graphviz version 2.40.1 (20161225.0304)
 -->
<!-- Title: NoLimits::NoLimits2::Style Pages: 1 -->
<svg width="365pt" height="102pt"
 viewBox="0.00 0.00 364.53 102.00" xmlns="http://www.w3.org/2000/svg" xmlns:xlink="http://www.w3.org/1999/xlink">
<g id="graph0" class="graph" transform="scale(1 1) rotate(0) translate(4 98)">
<title>NoLimits::NoLimits2::Style</title>
<!-- Node0 -->
<g id="node1" class="node">
<title>Node0</title>
<polygon fill="#bfbfbf" stroke="#000000" points="161.1182,-.5 161.1182,-28.5 266.0293,-28.5 266.0293,-.5 161.1182,-.5"/>
<text text-anchor="start" x="169.1182" y="-16.5" font-family="Helvetica,sans-Serif" font-size="10.00" fill="#000000">NoLimits::NoLimits2</text>
<text text-anchor="middle" x="213.5737" y="-6.5" font-family="Helvetica,sans-Serif" font-size="10.00" fill="#000000">::Style</text>
</g>
<!-- Node1 -->
<g id="node2" class="node">
<title>Node1</title>
<g id="a_node2"><a xlink:href="class_no_limits_1_1_stream_1_1_chunk.html" target="_top" xlink:title="NoLimits::Stream::Chunk">
<polygon fill="none" stroke="#000000" points="0,-75.5 0,-93.5 127.1475,-93.5 127.1475,-75.5 0,-75.5"/>
<text text-anchor="middle" x="63.5737" y="-81.5" font-family="Helvetica,sans-Serif" font-size="10.00" fill="#000000">NoLimits::Stream::Chunk</text>
</a>
</g>
</g>
<!-- Node1&#45;&gt;Node0 -->
<g id="edge1" class="edge">
<title>Node1&#45;&gt;Node0</title>
<path fill="none" stroke="#191970" d="M92.2411,-71.1219C118.3845,-58.9216 156.8767,-40.9586 183.4628,-28.5518"/>
<polygon fill="#191970" stroke="#191970" points="90.4582,-68.0915 82.8765,-75.492 93.4185,-74.4348 90.4582,-68.0915"/>
</g>
<!-- Node2 -->
<g id="node3" class="node">
<title>Node2</title>
<polygon fill="none" stroke="#bfbfbf" points="144.8735,-75.5 144.8735,-93.5 206.2739,-93.5 206.2739,-75.5 144.8735,-75.5"/>
<text text-anchor="middle" x="175.5737" y="-81.5" font-family="Helvetica,sans-Serif" font-size="10.00" fill="#000000">WornType</text>
</g>
<!-- Node2&#45;&gt;Node0 -->
<g id="edge2" class="edge">
<title>Node2&#45;&gt;Node0</title>
<path fill="none" stroke="#9a32cd" stroke-dasharray="5,2" d="M177.5476,-65.3204C178.7027,-59.2248 180.5337,-52.6134 183.436,-47 186.8995,-40.3013 192.1278,-33.9686 197.2622,-28.7033"/>
<polygon fill="#9a32cd" stroke="#9a32cd" points="174.0558,-65.0153 176.113,-75.4085 180.9861,-66.0009 174.0558,-65.0153"/>
<text text-anchor="middle" x="205.6426" y="-49" font-family="Helvetica,sans-Serif" font-size="10.00" fill="#000000"> wornType</text>
</g>
<!-- Node3 -->
<g id="node4" class="node">
<title>Node3</title>
<polygon fill="none" stroke="#bfbfbf" points="224.1182,-75.5 224.1182,-93.5 279.0293,-93.5 279.0293,-75.5 224.1182,-75.5"/>
<text text-anchor="middle" x="251.5737" y="-81.5" font-family="Helvetica,sans-Serif" font-size="10.00" fill="#000000">RailType</text>
</g>
<!-- Node3&#45;&gt;Node0 -->
<g id="edge3" class="edge">
<title>Node3&#45;&gt;Node0</title>
<path fill="none" stroke="#9a32cd" stroke-dasharray="5,2" d="M241.7739,-66.4477C235.4056,-54.7166 227.2196,-39.6371 221.3094,-28.7499"/>
<polygon fill="#9a32cd" stroke="#9a32cd" points="238.7589,-68.23 246.6059,-75.3487 244.9109,-64.8903 238.7589,-68.23"/>
<text text-anchor="middle" x="254.4727" y="-49" font-family="Helvetica,sans-Serif" font-size="10.00" fill="#000000"> railType</text>
</g>
<!-- Node4 -->
<g id="node5" class="node">
<title>Node4</title>
<polygon fill="none" stroke="#bfbfbf" points="296.6157,-75.5 296.6157,-93.5 356.5317,-93.5 356.5317,-75.5 296.6157,-75.5"/>
<text text-anchor="middle" x="326.5737" y="-81.5" font-family="Helvetica,sans-Serif" font-size="10.00" fill="#000000">StyleType</text>
</g>
<!-- Node4&#45;&gt;Node0 -->
<g id="edge4" class="edge">
<title>Node4&#45;&gt;Node0</title>
<path fill="none" stroke="#9a32cd" stroke-dasharray="5,2" d="M307.8873,-68.9081C298.9838,-61.8205 288.018,-53.5707 277.5737,-47 267.0258,-40.3642 254.9528,-33.9535 244.1557,-28.6046"/>
<polygon fill="#9a32cd" stroke="#9a32cd" points="305.7371,-71.6706 315.7074,-75.2546 310.1482,-66.2353 305.7371,-71.6706"/>
<text text-anchor="middle" x="314.0859" y="-49" font-family="Helvetica,sans-Serif" font-size="10.00" fill="#000000"> styleType</text>
</g>
</g>
</svg>
