<?xml version="1.0" encoding="UTF-8" standalone="no"?>
<!DOCTYPE svg PUBLIC "-//W3C//DTD SVG 1.1//EN"
 "http://www.w3.org/Graphics/SVG/1.1/DTD/svg11.dtd">
<!-- Generated by graphviz version 2.40.1 (20161225.0304)
 -->
<!-- Title: NoLimits::NoLimits2::Extras Pages: 1 -->
<svg width="228pt" height="112pt"
 viewBox="0.00 0.00 228.40 112.00" xmlns="http://www.w3.org/2000/svg" xmlns:xlink="http://www.w3.org/1999/xlink">
<g id="graph0" class="graph" transform="scale(1 1) rotate(0) translate(4 108)">
<title>NoLimits::NoLimits2::Extras</title>
<!-- Node0 -->
<g id="node1" class="node">
<title>Node0</title>
<polygon fill="#bfbfbf" stroke="#000000" points="62.1182,-.5 62.1182,-28.5 167.0293,-28.5 167.0293,-.5 62.1182,-.5"/>
<text text-anchor="start" x="70.1182" y="-16.5" font-family="Helvetica,sans-Serif" font-size="10.00" fill="#000000">NoLimits::NoLimits2</text>
<text text-anchor="middle" x="114.5737" y="-6.5" font-family="Helvetica,sans-Serif" font-size="10.00" fill="#000000">::Extras</text>
</g>
<!-- Node1 -->
<g id="node2" class="node">
<title>Node1</title>
<g id="a_node2"><a xlink:href="class_no_limits_1_1_stream_1_1_chunk.html" target="_top" xlink:title="NoLimits::Stream::Chunk">
<polygon fill="none" stroke="#000000" points="0,-85.5 0,-103.5 127.1475,-103.5 127.1475,-85.5 0,-85.5"/>
<text text-anchor="middle" x="63.5737" y="-91.5" font-family="Helvetica,sans-Serif" font-size="10.00" fill="#000000">NoLimits::Stream::Chunk</text>
</a>
</g>
</g>
<!-- Node1&#45;&gt;Node0 -->
<g id="edge1" class="edge">
<title>Node1&#45;&gt;Node0</title>
<path fill="none" stroke="#191970" d="M74.8826,-76.7607C84.1136,-62.2805 96.985,-42.0901 105.5386,-28.6728"/>
<polygon fill="#191970" stroke="#191970" points="71.8484,-75.0092 69.4241,-85.323 77.751,-78.7722 71.8484,-75.0092"/>
</g>
<!-- Node2 -->
<g id="node3" class="node">
<title>Node2</title>
<polygon fill="none" stroke="#bfbfbf" points="145.3472,-85.5 145.3472,-103.5 185.8003,-103.5 185.8003,-85.5 145.3472,-85.5"/>
<text text-anchor="middle" x="165.5737" y="-91.5" font-family="Helvetica,sans-Serif" font-size="10.00" fill="#000000">string</text>
</g>
<!-- Node2&#45;&gt;Node0 -->
<g id="edge2" class="edge">
<title>Node2&#45;&gt;Node0</title>
<path fill="none" stroke="#9a32cd" stroke-dasharray="5,2" d="M154.2649,-76.7607C145.0338,-62.2805 132.1624,-42.0901 123.6089,-28.6728"/>
<polygon fill="#9a32cd" stroke="#9a32cd" points="151.3965,-78.7722 159.7234,-85.323 157.2991,-75.0092 151.3965,-78.7722"/>
<text text-anchor="middle" x="183.9873" y="-59" font-family="Helvetica,sans-Serif" font-size="10.00" fill="#000000"> autoplantObject</text>
<text text-anchor="middle" x="183.9873" y="-49" font-family="Helvetica,sans-Serif" font-size="10.00" fill="#000000">footstepSounds</text>
</g>
</g>
</svg>
