<?xml version="1.0" encoding="UTF-8" standalone="no"?>
<!DOCTYPE svg PUBLIC "-//W3C//DTD SVG 1.1//EN"
 "http://www.w3.org/Graphics/SVG/1.1/DTD/svg11.dtd">
<!-- Generated by graphviz version 2.40.1 (20161225.0304)
 -->
<!-- Title: NoLimits::NoLimits2::Support Pages: 1 -->
<svg width="334pt" height="205pt"
 viewBox="0.00 0.00 333.59 205.00" xmlns="http://www.w3.org/2000/svg" xmlns:xlink="http://www.w3.org/1999/xlink">
<g id="graph0" class="graph" transform="scale(1 1) rotate(0) translate(4 201)">
<title>NoLimits::NoLimits2::Support</title>
<!-- Node0 -->
<g id="node1" class="node">
<title>Node0</title>
<polygon fill="#bfbfbf" stroke="#000000" points="220.6768,-94.5 220.6768,-122.5 325.5879,-122.5 325.5879,-94.5 220.6768,-94.5"/>
<text text-anchor="start" x="228.6768" y="-110.5" font-family="Helvetica,sans-Serif" font-size="10.00" fill="#000000">NoLimits::NoLimits2</text>
<text text-anchor="middle" x="273.1323" y="-100.5" font-family="Helvetica,sans-Serif" font-size="10.00" fill="#000000">::Support</text>
</g>
<!-- Node1 -->
<g id="node2" class="node">
<title>Node1</title>
<g id="a_node2"><a xlink:href="class_no_limits_1_1_stream_1_1_chunk.html" target="_top" xlink:title="NoLimits::Stream::Chunk">
<polygon fill="none" stroke="#000000" points="6.8066,-178.5 6.8066,-196.5 133.9541,-196.5 133.9541,-178.5 6.8066,-178.5"/>
<text text-anchor="middle" x="70.3804" y="-184.5" font-family="Helvetica,sans-Serif" font-size="10.00" fill="#000000">NoLimits::Stream::Chunk</text>
</a>
</g>
</g>
<!-- Node1&#45;&gt;Node0 -->
<g id="edge1" class="edge">
<title>Node1&#45;&gt;Node0</title>
<path fill="none" stroke="#191970" d="M119.1528,-175.8333C126.4363,-173.8583 133.8246,-171.7225 140.7607,-169.5 168.8664,-160.4943 175.8095,-157.714 202.6768,-145.5 218.0211,-138.5244 234.7416,-129.7942 248.0418,-122.5661"/>
<polygon fill="#191970" stroke="#191970" points="118.1157,-172.4871 109.3379,-178.4201 119.8997,-179.2559 118.1157,-172.4871"/>
</g>
<!-- Node2 -->
<g id="node3" class="node">
<title>Node2</title>
<polygon fill="none" stroke="#bfbfbf" points="18.4717,-141.5 18.4717,-159.5 122.2891,-159.5 122.2891,-141.5 18.4717,-141.5"/>
<text text-anchor="middle" x="70.3804" y="-147.5" font-family="Helvetica,sans-Serif" font-size="10.00" fill="#000000">vector&lt; std::string &gt;</text>
</g>
<!-- Node2&#45;&gt;Node0 -->
<g id="edge2" class="edge">
<title>Node2&#45;&gt;Node0</title>
<path fill="none" stroke="#9a32cd" stroke-dasharray="5,2" d="M123.6961,-139.4557C153.5325,-133.2751 190.5952,-125.5975 220.3455,-119.4348"/>
<polygon fill="#9a32cd" stroke="#9a32cd" points="122.9579,-136.0342 113.8758,-141.4899 124.3778,-142.8887 122.9579,-136.0342"/>
<text text-anchor="middle" x="180.7188" y="-133.5" font-family="Helvetica,sans-Serif" font-size="10.00" fill="#000000"> prefab</text>
</g>
<!-- Node3 -->
<g id="node4" class="node">
<title>Node3</title>
<polygon fill="none" stroke="#bfbfbf" points="0,-94.5 0,-122.5 140.7607,-122.5 140.7607,-94.5 0,-94.5"/>
<text text-anchor="start" x="8" y="-110.5" font-family="Helvetica,sans-Serif" font-size="10.00" fill="#000000">vector&lt; NoLimits::NoLimits2</text>
<text text-anchor="middle" x="70.3804" y="-100.5" font-family="Helvetica,sans-Serif" font-size="10.00" fill="#000000">::Beam * &gt;</text>
</g>
<!-- Node3&#45;&gt;Node0 -->
<g id="edge3" class="edge">
<title>Node3&#45;&gt;Node0</title>
<path fill="none" stroke="#9a32cd" stroke-dasharray="5,2" d="M151.263,-108.5C174.624,-108.5 199.5001,-108.5 220.6452,-108.5"/>
<polygon fill="#9a32cd" stroke="#9a32cd" points="151.0086,-105.0001 141.0085,-108.5 151.0085,-112.0001 151.0086,-105.0001"/>
<text text-anchor="middle" x="180.7188" y="-110.5" font-family="Helvetica,sans-Serif" font-size="10.00" fill="#000000"> beam</text>
</g>
<!-- Node4 -->
<g id="node5" class="node">
<title>Node4</title>
<polygon fill="none" stroke="#bfbfbf" points="0,-47.5 0,-75.5 140.7607,-75.5 140.7607,-47.5 0,-47.5"/>
<text text-anchor="start" x="8" y="-63.5" font-family="Helvetica,sans-Serif" font-size="10.00" fill="#000000">vector&lt; NoLimits::NoLimits2</text>
<text text-anchor="middle" x="70.3804" y="-53.5" font-family="Helvetica,sans-Serif" font-size="10.00" fill="#000000">::FreeNode * &gt;</text>
</g>
<!-- Node4&#45;&gt;Node0 -->
<g id="edge4" class="edge">
<title>Node4&#45;&gt;Node0</title>
<path fill="none" stroke="#9a32cd" stroke-dasharray="5,2" d="M140.796,-77.8231C166.9489,-83.8856 196.1428,-90.653 220.4425,-96.286"/>
<polygon fill="#9a32cd" stroke="#9a32cd" points="141.4701,-74.3866 130.938,-75.5379 139.8893,-81.2058 141.4701,-74.3866"/>
<text text-anchor="middle" x="180.7188" y="-93.5" font-family="Helvetica,sans-Serif" font-size="10.00" fill="#000000"> freeNode</text>
</g>
<!-- Node5 -->
<g id="node6" class="node">
<title>Node5</title>
<polygon fill="none" stroke="#bfbfbf" points="0,-.5 0,-28.5 140.7607,-28.5 140.7607,-.5 0,-.5"/>
<text text-anchor="start" x="8" y="-16.5" font-family="Helvetica,sans-Serif" font-size="10.00" fill="#000000">vector&lt; NoLimits::NoLimits2</text>
<text text-anchor="middle" x="70.3804" y="-6.5" font-family="Helvetica,sans-Serif" font-size="10.00" fill="#000000">::Footer * &gt;</text>
</g>
<!-- Node5&#45;&gt;Node0 -->
<g id="edge5" class="edge">
<title>Node5&#45;&gt;Node0</title>
<path fill="none" stroke="#9a32cd" stroke-dasharray="5,2" d="M123.8374,-32.041C129.5826,-34.1304 135.315,-36.3038 140.7607,-38.5 168.9424,-49.8652 175.7591,-53.3998 202.6768,-67.5 218.8487,-75.9713 236.6125,-86.3159 250.2575,-94.4948"/>
<polygon fill="#9a32cd" stroke="#9a32cd" points="124.7995,-28.6685 114.2048,-28.6149 122.4536,-35.2637 124.7995,-28.6685"/>
<text text-anchor="middle" x="180.7188" y="-69.5" font-family="Helvetica,sans-Serif" font-size="10.00" fill="#000000"> footer</text>
</g>
</g>
</svg>
