<?xml version="1.0" encoding="UTF-8" standalone="no"?>
<!DOCTYPE svg PUBLIC "-//W3C//DTD SVG 1.1//EN"
 "http://www.w3.org/Graphics/SVG/1.1/DTD/svg11.dtd">
<!-- Generated by graphviz version 2.40.1 (20161225.0304)
 -->
<!-- Title: NoLimits::NoLimits1::Train Pages: 1 -->
<svg width="395pt" height="207pt"
 viewBox="0.00 0.00 395.37 207.00" xmlns="http://www.w3.org/2000/svg" xmlns:xlink="http://www.w3.org/1999/xlink">
<g id="graph0" class="graph" transform="scale(1 1) rotate(0) translate(4 203)">
<title>NoLimits::NoLimits1::Train</title>
<!-- Node0 -->
<g id="node1" class="node">
<title>Node0</title>
<polygon fill="#bfbfbf" stroke="#000000" points="38.1182,-.5 38.1182,-28.5 143.0293,-28.5 143.0293,-.5 38.1182,-.5"/>
<text text-anchor="start" x="46.1182" y="-16.5" font-family="Helvetica,sans-Serif" font-size="10.00" fill="#000000">NoLimits::NoLimits1</text>
<text text-anchor="middle" x="90.5737" y="-6.5" font-family="Helvetica,sans-Serif" font-size="10.00" fill="#000000">::Train</text>
</g>
<!-- Node1 -->
<g id="node2" class="node">
<title>Node1</title>
<g id="a_node2"><a xlink:href="class_no_limits_1_1_stream_1_1_chunk.html" target="_top" xlink:title="NoLimits::Stream::Chunk">
<polygon fill="none" stroke="#000000" points="0,-180.5 0,-198.5 127.1475,-198.5 127.1475,-180.5 0,-180.5"/>
<text text-anchor="middle" x="63.5737" y="-186.5" font-family="Helvetica,sans-Serif" font-size="10.00" fill="#000000">NoLimits::Stream::Chunk</text>
</a>
</g>
</g>
<!-- Node1&#45;&gt;Node0 -->
<g id="edge1" class="edge">
<title>Node1&#45;&gt;Node0</title>
<path fill="none" stroke="#191970" d="M66.5789,-170.0222C72.0662,-134.4564 83.5847,-59.7992 88.3928,-28.6358"/>
<polygon fill="#191970" stroke="#191970" points="63.0912,-169.6745 65.0254,-180.0912 70.0093,-170.7419 63.0912,-169.6745"/>
</g>
<!-- Node2 -->
<g id="node3" class="node">
<title>Node2</title>
<g id="a_node3"><a xlink:href="class_no_limits_1_1_no_limits1_1_1_individual_color.html" target="_top" xlink:title="NoLimits::NoLimits1\l::IndividualColor">
<polygon fill="none" stroke="#000000" points="113.1182,-75.5 113.1182,-103.5 218.0293,-103.5 218.0293,-75.5 113.1182,-75.5"/>
<text text-anchor="start" x="121.1182" y="-91.5" font-family="Helvetica,sans-Serif" font-size="10.00" fill="#000000">NoLimits::NoLimits1</text>
<text text-anchor="middle" x="165.5737" y="-81.5" font-family="Helvetica,sans-Serif" font-size="10.00" fill="#000000">::IndividualColor</text>
</a>
</g>
</g>
<!-- Node1&#45;&gt;Node2 -->
<g id="edge3" class="edge">
<title>Node1&#45;&gt;Node2</title>
<path fill="none" stroke="#191970" d="M80.3294,-173.0729C100.0004,-153.7876 132.3052,-122.1162 150.9867,-103.801"/>
<polygon fill="#191970" stroke="#191970" points="77.6773,-170.7715 72.9868,-180.2715 82.5778,-175.77 77.6773,-170.7715"/>
</g>
<!-- Node2&#45;&gt;Node0 -->
<g id="edge2" class="edge">
<title>Node2&#45;&gt;Node0</title>
<path fill="none" stroke="#9a32cd" stroke-dasharray="5,2" d="M144.3894,-68.3157C131.6576,-55.5839 115.8088,-39.7351 104.6174,-28.5437"/>
<polygon fill="#9a32cd" stroke="#9a32cd" points="141.9208,-70.7969 151.4668,-75.3931 146.8706,-65.8471 141.9208,-70.7969"/>
<text text-anchor="middle" x="166.7583" y="-49" font-family="Helvetica,sans-Serif" font-size="10.00" fill="#000000"> individualColor</text>
</g>
<!-- Node3 -->
<g id="node4" class="node">
<title>Node3</title>
<polygon fill="none" stroke="#bfbfbf" points="145.3472,-180.5 145.3472,-198.5 185.8003,-198.5 185.8003,-180.5 145.3472,-180.5"/>
<text text-anchor="middle" x="165.5737" y="-186.5" font-family="Helvetica,sans-Serif" font-size="10.00" fill="#000000">string</text>
</g>
<!-- Node3&#45;&gt;Node2 -->
<g id="edge4" class="edge">
<title>Node3&#45;&gt;Node2</title>
<path fill="none" stroke="#9a32cd" stroke-dasharray="5,2" d="M165.5737,-170.1586C165.5737,-150.7227 165.5737,-121.2208 165.5737,-103.801"/>
<polygon fill="#9a32cd" stroke="#9a32cd" points="162.0738,-170.2714 165.5737,-180.2715 169.0738,-170.2715 162.0738,-170.2714"/>
<text text-anchor="middle" x="182.2485" y="-139" font-family="Helvetica,sans-Serif" font-size="10.00" fill="#000000"> texture</text>
</g>
<!-- Node4 -->
<g id="node5" class="node">
<title>Node4</title>
<polygon fill="none" stroke="#bfbfbf" points="204.1206,-180.5 204.1206,-198.5 239.0269,-198.5 239.0269,-180.5 204.1206,-180.5"/>
<text text-anchor="middle" x="221.5737" y="-186.5" font-family="Helvetica,sans-Serif" font-size="10.00" fill="#000000">bool</text>
</g>
<!-- Node4&#45;&gt;Node2 -->
<g id="edge5" class="edge">
<title>Node4&#45;&gt;Node2</title>
<path fill="none" stroke="#9a32cd" stroke-dasharray="5,2" d="M217.9175,-170.0878C214.6452,-155.9711 208.8951,-136.818 199.5737,-122 195.3127,-115.2263 189.3315,-108.876 183.5716,-103.6176"/>
<polygon fill="#9a32cd" stroke="#9a32cd" points="214.5502,-171.0836 220.0316,-180.1503 221.4007,-169.6443 214.5502,-171.0836"/>
<text text-anchor="middle" x="257.0981" y="-139" font-family="Helvetica,sans-Serif" font-size="10.00" fill="#000000"> hasIndividualColor</text>
</g>
<!-- Node5 -->
<g id="node6" class="node">
<title>Node5</title>
<polygon fill="none" stroke="#bfbfbf" points="311.0122,-180.5 311.0122,-198.5 348.1353,-198.5 348.1353,-180.5 311.0122,-180.5"/>
<text text-anchor="middle" x="329.5737" y="-186.5" font-family="Helvetica,sans-Serif" font-size="10.00" fill="#000000">vec3</text>
</g>
<!-- Node5&#45;&gt;Node2 -->
<g id="edge6" class="edge">
<title>Node5&#45;&gt;Node2</title>
<path fill="none" stroke="#9a32cd" stroke-dasharray="5,2" d="M327.0785,-170.1378C324.0877,-154.8853 317.5868,-134.2214 303.5737,-122 290.7742,-110.837 251.673,-102.265 218.346,-96.7344"/>
<polygon fill="#9a32cd" stroke="#9a32cd" points="323.6367,-170.7791 328.6932,-180.0894 330.5463,-169.6579 323.6367,-170.7791"/>
<text text-anchor="middle" x="355.9727" y="-154" font-family="Helvetica,sans-Serif" font-size="10.00" fill="#000000"> restraintColor</text>
<text text-anchor="middle" x="355.9727" y="-144" font-family="Helvetica,sans-Serif" font-size="10.00" fill="#000000">seatColor</text>
<text text-anchor="middle" x="355.9727" y="-134" font-family="Helvetica,sans-Serif" font-size="10.00" fill="#000000">gearColor</text>
<text text-anchor="middle" x="355.9727" y="-124" font-family="Helvetica,sans-Serif" font-size="10.00" fill="#000000">trainColor</text>
</g>
</g>
</svg>
