<?xml version="1.0" encoding="UTF-8" standalone="no"?>
<!DOCTYPE svg PUBLIC "-//W3C//DTD SVG 1.1//EN"
 "http://www.w3.org/Graphics/SVG/1.1/DTD/svg11.dtd">
<!-- Generated by graphviz version 2.40.1 (20161225.0304)
 -->
<!-- Title: NoLimits::NoLimits2::TransportDevice Pages: 1 -->
<svg width="266pt" height="142pt"
 viewBox="0.00 0.00 265.94 142.00" xmlns="http://www.w3.org/2000/svg" xmlns:xlink="http://www.w3.org/1999/xlink">
<g id="graph0" class="graph" transform="scale(1 1) rotate(0) translate(4 138)">
<title>NoLimits::NoLimits2::TransportDevice</title>
<!-- Node0 -->
<g id="node1" class="node">
<title>Node0</title>
<polygon fill="#bfbfbf" stroke="#000000" points="77.5591,-.5 77.5591,-28.5 182.4702,-28.5 182.4702,-.5 77.5591,-.5"/>
<text text-anchor="start" x="85.5591" y="-16.5" font-family="Helvetica,sans-Serif" font-size="10.00" fill="#000000">NoLimits::NoLimits2</text>
<text text-anchor="middle" x="130.0146" y="-6.5" font-family="Helvetica,sans-Serif" font-size="10.00" fill="#000000">::TransportDevice</text>
</g>
<!-- Node1 -->
<g id="node2" class="node">
<title>Node1</title>
<polygon fill="none" stroke="#bfbfbf" points="0,-115.5 0,-133.5 46.0293,-133.5 46.0293,-115.5 0,-115.5"/>
<text text-anchor="middle" x="23.0146" y="-121.5" font-family="Helvetica,sans-Serif" font-size="10.00" fill="#000000">double</text>
</g>
<!-- Node1&#45;&gt;Node0 -->
<g id="edge1" class="edge">
<title>Node1&#45;&gt;Node0</title>
<path fill="none" stroke="#9a32cd" stroke-dasharray="5,2" d="M22.7302,-105.3255C23.4932,-88.069 27.2699,-63.0299 41.5176,-47 50.8687,-36.4791 63.9243,-29.3592 77.1401,-24.5426"/>
<polygon fill="#9a32cd" stroke="#9a32cd" points="19.2301,-105.3189 22.5843,-115.3687 26.2293,-105.4206 19.2301,-105.3189"/>
<text text-anchor="middle" x="84.2632" y="-89" font-family="Helvetica,sans-Serif" font-size="10.00" fill="#000000"> speed</text>
<text text-anchor="middle" x="84.2632" y="-79" font-family="Helvetica,sans-Serif" font-size="10.00" fill="#000000">deceleration</text>
<text text-anchor="middle" x="84.2632" y="-69" font-family="Helvetica,sans-Serif" font-size="10.00" fill="#000000">acceleration</text>
<text text-anchor="middle" x="84.2632" y="-59" font-family="Helvetica,sans-Serif" font-size="10.00" fill="#000000">launchAcceleration</text>
<text text-anchor="middle" x="84.2632" y="-49" font-family="Helvetica,sans-Serif" font-size="10.00" fill="#000000">launchMaxSpeed</text>
</g>
<!-- Node2 -->
<g id="node3" class="node">
<title>Node2</title>
<polygon fill="none" stroke="#bfbfbf" points="112.5615,-115.5 112.5615,-133.5 147.4678,-133.5 147.4678,-115.5 112.5615,-115.5"/>
<text text-anchor="middle" x="130.0146" y="-121.5" font-family="Helvetica,sans-Serif" font-size="10.00" fill="#000000">bool</text>
</g>
<!-- Node2&#45;&gt;Node0 -->
<g id="edge2" class="edge">
<title>Node2&#45;&gt;Node0</title>
<path fill="none" stroke="#9a32cd" stroke-dasharray="5,2" d="M130.0146,-105.4619C130.0146,-83.6274 130.0146,-48.3293 130.0146,-28.7432"/>
<polygon fill="#9a32cd" stroke="#9a32cd" points="126.5147,-105.4982 130.0146,-115.4982 133.5147,-105.4983 126.5147,-105.4982"/>
<text text-anchor="middle" x="146.1377" y="-69" font-family="Helvetica,sans-Serif" font-size="10.00" fill="#000000"> launch</text>
</g>
<!-- Node3 -->
<g id="node4" class="node">
<title>Node3</title>
<polygon fill="none" stroke="#bfbfbf" points="165.959,-115.5 165.959,-133.5 246.0703,-133.5 246.0703,-115.5 165.959,-115.5"/>
<text text-anchor="middle" x="206.0146" y="-121.5" font-family="Helvetica,sans-Serif" font-size="10.00" fill="#000000">TransportType</text>
</g>
<!-- Node3&#45;&gt;Node0 -->
<g id="edge3" class="edge">
<title>Node3&#45;&gt;Node0</title>
<path fill="none" stroke="#9a32cd" stroke-dasharray="5,2" d="M198.6079,-105.7343C191.616,-89.3167 180.1143,-65.3007 166.0146,-47 160.8757,-40.3299 154.2584,-33.9117 148.1018,-28.5664"/>
<polygon fill="#9a32cd" stroke="#9a32cd" points="195.4958,-107.3696 202.5334,-115.2894 201.9707,-104.7095 195.4958,-107.3696"/>
<text text-anchor="middle" x="225.9775" y="-69" font-family="Helvetica,sans-Serif" font-size="10.00" fill="#000000"> transportType</text>
</g>
</g>
</svg>
