<?xml version="1.0" encoding="UTF-8" standalone="no"?>
<!DOCTYPE svg PUBLIC "-//W3C//DTD SVG 1.1//EN"
 "http://www.w3.org/Graphics/SVG/1.1/DTD/svg11.dtd">
<!-- Generated by graphviz version 2.40.1 (20161225.0304)
 -->
<!-- Title: NoLimits::NoLimits2::CustomTrack Pages: 1 -->
<svg width="868pt" height="780pt"
 viewBox="0.00 0.00 868.20 780.00" xmlns="http://www.w3.org/2000/svg" xmlns:xlink="http://www.w3.org/1999/xlink">
<g id="graph0" class="graph" transform="scale(1 1) rotate(0) translate(4 776)">
<title>NoLimits::NoLimits2::CustomTrack</title>
<!-- Node0 -->
<g id="node1" class="node">
<title>Node0</title>
<polygon fill="#bfbfbf" stroke="#000000" points="755.2871,-235.5 755.2871,-263.5 860.1982,-263.5 860.1982,-235.5 755.2871,-235.5"/>
<text text-anchor="start" x="763.2871" y="-251.5" font-family="Helvetica,sans-Serif" font-size="10.00" fill="#000000">NoLimits::NoLimits2</text>
<text text-anchor="middle" x="807.7427" y="-241.5" font-family="Helvetica,sans-Serif" font-size="10.00" fill="#000000">::CustomTrack</text>
</g>
<!-- Node1 -->
<g id="node2" class="node">
<title>Node1</title>
<g id="a_node2"><a xlink:href="class_no_limits_1_1_no_limits2_1_1_track.html" target="_top" xlink:title="NoLimits::NoLimits2\l::Track">
<polygon fill="none" stroke="#000000" points="241.7388,-636.5 241.7388,-664.5 346.6499,-664.5 346.6499,-636.5 241.7388,-636.5"/>
<text text-anchor="start" x="249.7388" y="-652.5" font-family="Helvetica,sans-Serif" font-size="10.00" fill="#000000">NoLimits::NoLimits2</text>
<text text-anchor="middle" x="294.1943" y="-642.5" font-family="Helvetica,sans-Serif" font-size="10.00" fill="#000000">::Track</text>
</a>
</g>
</g>
<!-- Node1&#45;&gt;Node0 -->
<g id="edge1" class="edge">
<title>Node1&#45;&gt;Node0</title>
<path fill="none" stroke="#191970" d="M357.0934,-658.9928C452.9834,-668.106 635.3177,-669.7279 737.2871,-569.5 782.0151,-525.536 801.9621,-319.9033 806.6342,-263.7178"/>
<polygon fill="#191970" stroke="#191970" points="357.2646,-655.4924 346.9638,-657.9713 356.5622,-662.457 357.2646,-655.4924"/>
</g>
<!-- Node2 -->
<g id="node3" class="node">
<title>Node2</title>
<g id="a_node3"><a xlink:href="class_no_limits_1_1_stream_1_1_chunk.html" target="_top" xlink:title="NoLimits::Stream::Chunk">
<polygon fill="none" stroke="#000000" points="0,-598.5 0,-616.5 127.1475,-616.5 127.1475,-598.5 0,-598.5"/>
<text text-anchor="middle" x="63.5737" y="-604.5" font-family="Helvetica,sans-Serif" font-size="10.00" fill="#000000">NoLimits::Stream::Chunk</text>
</a>
</g>
</g>
<!-- Node2&#45;&gt;Node1 -->
<g id="edge2" class="edge">
<title>Node2&#45;&gt;Node1</title>
<path fill="none" stroke="#191970" d="M122.0016,-618.3941C158.7802,-625.2516 205.8594,-634.0297 241.492,-640.6735"/>
<polygon fill="#191970" stroke="#191970" points="122.3915,-614.9065 111.9194,-616.5142 121.1084,-621.7879 122.3915,-614.9065"/>
</g>
<!-- Node4 -->
<g id="node5" class="node">
<title>Node4</title>
<g id="a_node5"><a xlink:href="class_no_limits_1_1_no_limits2_1_1_segment.html" target="_top" xlink:title="NoLimits::NoLimits2\l::Segment">
<polygon fill="none" stroke="#000000" points="535.3135,-282.5 535.3135,-310.5 640.2246,-310.5 640.2246,-282.5 535.3135,-282.5"/>
<text text-anchor="start" x="543.3135" y="-298.5" font-family="Helvetica,sans-Serif" font-size="10.00" fill="#000000">NoLimits::NoLimits2</text>
<text text-anchor="middle" x="587.769" y="-288.5" font-family="Helvetica,sans-Serif" font-size="10.00" fill="#000000">::Segment</text>
</a>
</g>
</g>
<!-- Node2&#45;&gt;Node4 -->
<g id="edge5" class="edge">
<title>Node2&#45;&gt;Node4</title>
<path fill="none" stroke="#191970" d="M78.9385,-590.817C121.9802,-545.138 249.2663,-417.1444 381.5322,-352.5 429.9027,-328.8591 447.501,-338.862 499.3887,-324.5 514.5906,-320.2922 531.1053,-315.2028 545.6999,-310.5233"/>
<polygon fill="#191970" stroke="#191970" points="76.1669,-588.657 71.8999,-598.3546 81.2831,-593.4345 76.1669,-588.657"/>
</g>
<!-- Node5 -->
<g id="node6" class="node">
<title>Node5</title>
<g id="a_node6"><a xlink:href="class_no_limits_1_1_no_limits2_1_1_wooden_support_generator.html" target="_top" xlink:title="NoLimits::NoLimits2\l::WoodenSupportGenerator">
<polygon fill="none" stroke="#000000" points="224.8564,-44.5 224.8564,-72.5 363.5322,-72.5 363.5322,-44.5 224.8564,-44.5"/>
<text text-anchor="start" x="232.8564" y="-60.5" font-family="Helvetica,sans-Serif" font-size="10.00" fill="#000000">NoLimits::NoLimits2</text>
<text text-anchor="middle" x="294.1943" y="-50.5" font-family="Helvetica,sans-Serif" font-size="10.00" fill="#000000">::WoodenSupportGenerator</text>
</a>
</g>
</g>
<!-- Node2&#45;&gt;Node5 -->
<g id="edge7" class="edge">
<title>Node2&#45;&gt;Node5</title>
<path fill="none" stroke="#191970" d="M68.7263,-588.4019C81.1506,-542.6346 114.0372,-423.1614 145.1475,-324.5 170.5802,-243.8441 181.3465,-225.1315 206.8564,-144.5 215.5115,-117.1431 205.0877,-103.2967 224.8564,-82.5 228.5426,-78.6222 232.8855,-75.3709 237.5705,-72.6447"/>
<polygon fill="#191970" stroke="#191970" points="65.3176,-587.5994 66.0829,-598.1665 72.0744,-589.4286 65.3176,-587.5994"/>
</g>
<!-- Node13 -->
<g id="node14" class="node">
<title>Node13</title>
<g id="a_node14"><a xlink:href="class_no_limits_1_1_no_limits2_1_1_section.html" target="_top" xlink:title="NoLimits::NoLimits2\l::Section">
<polygon fill="none" stroke="#000000" points="241.7388,-699.5 241.7388,-727.5 346.6499,-727.5 346.6499,-699.5 241.7388,-699.5"/>
<text text-anchor="start" x="249.7388" y="-715.5" font-family="Helvetica,sans-Serif" font-size="10.00" fill="#000000">NoLimits::NoLimits2</text>
<text text-anchor="middle" x="294.1943" y="-705.5" font-family="Helvetica,sans-Serif" font-size="10.00" fill="#000000">::Section</text>
</a>
</g>
</g>
<!-- Node2&#45;&gt;Node13 -->
<g id="edge17" class="edge">
<title>Node2&#45;&gt;Node13</title>
<path fill="none" stroke="#191970" d="M93.749,-620.6833C122.8224,-633.4548 167.9955,-653.4814 206.8564,-671.5 226.547,-680.6299 248.5701,-691.2233 265.5752,-699.4869"/>
<polygon fill="#191970" stroke="#191970" points="95.1026,-617.4552 84.5389,-616.6437 92.2908,-623.8657 95.1026,-617.4552"/>
</g>
<!-- Node17 -->
<g id="node18" class="node">
<title>Node17</title>
<g id="a_node18"><a xlink:href="class_no_limits_1_1_no_limits2_1_1_roll_point.html" target="_top" xlink:title="NoLimits::NoLimits2\l::RollPoint">
<polygon fill="none" stroke="#000000" points="535.3135,-547.5 535.3135,-575.5 640.2246,-575.5 640.2246,-547.5 535.3135,-547.5"/>
<text text-anchor="start" x="543.3135" y="-563.5" font-family="Helvetica,sans-Serif" font-size="10.00" fill="#000000">NoLimits::NoLimits2</text>
<text text-anchor="middle" x="587.769" y="-553.5" font-family="Helvetica,sans-Serif" font-size="10.00" fill="#000000">::RollPoint</text>
</a>
</g>
</g>
<!-- Node2&#45;&gt;Node17 -->
<g id="edge23" class="edge">
<title>Node2&#45;&gt;Node17</title>
<path fill="none" stroke="#191970" d="M137.3847,-610.8148C224.6066,-613.3101 373.7609,-613.1039 499.3887,-590.5 517.3483,-587.2686 536.673,-581.2395 552.6583,-575.5123"/>
<polygon fill="#191970" stroke="#191970" points="137.4233,-607.3144 127.3209,-610.5069 137.2091,-614.3111 137.4233,-607.3144"/>
</g>
<!-- Node3 -->
<g id="node4" class="node">
<title>Node3</title>
<polygon fill="none" stroke="#bfbfbf" points="32.4146,-679.5 32.4146,-697.5 94.7329,-697.5 94.7329,-679.5 32.4146,-679.5"/>
<text text-anchor="middle" x="63.5737" y="-685.5" font-family="Helvetica,sans-Serif" font-size="10.00" fill="#000000">TrackType</text>
</g>
<!-- Node3&#45;&gt;Node1 -->
<g id="edge3" class="edge">
<title>Node3&#45;&gt;Node1</title>
<path fill="none" stroke="#9a32cd" stroke-dasharray="5,2" d="M105.401,-681.608C143.5491,-675.3222 200.0905,-666.0058 241.3497,-659.2074"/>
<polygon fill="#9a32cd" stroke="#9a32cd" points="104.4549,-678.2166 95.157,-683.2959 105.593,-685.1235 104.4549,-678.2166"/>
<text text-anchor="middle" x="176.002" y="-675.5" font-family="Helvetica,sans-Serif" font-size="10.00" fill="#000000"> trackType</text>
</g>
<!-- Node4&#45;&gt;Node0 -->
<g id="edge4" class="edge">
<title>Node4&#45;&gt;Node0</title>
<path fill="none" stroke="#9a32cd" stroke-dasharray="5,2" d="M650.4783,-283.1014C683.5502,-276.0352 723.6654,-267.4641 755.1027,-260.7472"/>
<polygon fill="#9a32cd" stroke="#9a32cd" points="649.5061,-279.73 640.4582,-285.2423 650.9688,-286.5755 649.5061,-279.73"/>
<text text-anchor="middle" x="706.7183" y="-278.5" font-family="Helvetica,sans-Serif" font-size="10.00" fill="#000000"> segment</text>
</g>
<!-- Node5&#45;&gt;Node4 -->
<g id="edge6" class="edge">
<title>Node5&#45;&gt;Node4</title>
<path fill="none" stroke="#9a32cd" stroke-dasharray="5,2" d="M362.7884,-43.0428C407.6958,-37.2902 464.3459,-39.0406 499.3887,-73.5 531.2064,-104.788 489.5956,-238.5879 517.3887,-273.5 522.1124,-279.4336 528.397,-283.8539 535.2723,-287.1432"/>
<polygon fill="#9a32cd" stroke="#9a32cd" points="362.2206,-39.5883 352.8153,-44.4659 363.2095,-46.5181 362.2206,-39.5883"/>
<text text-anchor="middle" x="440.4604" y="-75.5" font-family="Helvetica,sans-Serif" font-size="10.00" fill="#000000"> woodenSupportGenerator</text>
</g>
<!-- Node6 -->
<g id="node7" class="node">
<title>Node6</title>
<polygon fill="none" stroke="#bfbfbf" points="40.5615,-162.5 40.5615,-180.5 86.5859,-180.5 86.5859,-162.5 40.5615,-162.5"/>
<text text-anchor="middle" x="63.5737" y="-168.5" font-family="Helvetica,sans-Serif" font-size="10.00" fill="#000000">uint8_t</text>
</g>
<!-- Node6&#45;&gt;Node4 -->
<g id="edge10" class="edge">
<title>Node6&#45;&gt;Node4</title>
<path fill="none" stroke="#9a32cd" stroke-dasharray="5,2" d="M96.7231,-176.0798C197.7711,-190.0671 495.32,-231.4645 499.3887,-234.5 514.6899,-245.9156 503.1264,-260.8102 517.3887,-273.5 522.5746,-278.1142 528.7043,-281.8052 535.1489,-284.7571"/>
<polygon fill="#9a32cd" stroke="#9a32cd" points="97.1405,-172.6043 86.7551,-174.7007 96.1811,-179.5382 97.1405,-172.6043"/>
<text text-anchor="middle" x="294.1943" y="-214.5" font-family="Helvetica,sans-Serif" font-size="10.00" fill="#000000"> spineType</text>
</g>
<!-- Node6&#45;&gt;Node5 -->
<g id="edge8" class="edge">
<title>Node6&#45;&gt;Node5</title>
<path fill="none" stroke="#9a32cd" stroke-dasharray="5,2" d="M86.9675,-156.9199C117.7791,-138.1107 174.0175,-105.1261 224.8564,-82.5 232.7703,-78.9779 241.3721,-75.6336 249.7381,-72.6211"/>
<polygon fill="#9a32cd" stroke="#9a32cd" points="84.9421,-154.0565 78.2557,-162.275 88.6078,-160.02 84.9421,-154.0565"/>
<text text-anchor="middle" x="176.002" y="-132.5" font-family="Helvetica,sans-Serif" font-size="10.00" fill="#000000"> flag1</text>
<text text-anchor="middle" x="176.002" y="-122.5" font-family="Helvetica,sans-Serif" font-size="10.00" fill="#000000">flag2</text>
</g>
<!-- Node7 -->
<g id="node8" class="node">
<title>Node7</title>
<polygon fill="none" stroke="#bfbfbf" points="271.0894,-128.5 271.0894,-146.5 317.2993,-146.5 317.2993,-128.5 271.0894,-128.5"/>
<text text-anchor="middle" x="294.1943" y="-134.5" font-family="Helvetica,sans-Serif" font-size="10.00" fill="#000000">Tunnel</text>
</g>
<!-- Node7&#45;&gt;Node4 -->
<g id="edge9" class="edge">
<title>Node7&#45;&gt;Node4</title>
<path fill="none" stroke="#9a32cd" stroke-dasharray="5,2" d="M327.2723,-127.6614C372.3139,-116.5078 452.6665,-104.9414 499.3887,-147.5 541.2086,-185.5932 481.0147,-230.1764 517.3887,-273.5 522.1828,-279.2101 528.4172,-283.5133 535.1932,-286.7542"/>
<polygon fill="#9a32cd" stroke="#9a32cd" points="326.2129,-124.3206 317.4222,-130.2345 327.9821,-131.0933 326.2129,-124.3206"/>
<text text-anchor="middle" x="440.4604" y="-149.5" font-family="Helvetica,sans-Serif" font-size="10.00" fill="#000000"> tunnel</text>
</g>
<!-- Node8 -->
<g id="node9" class="node">
<title>Node8</title>
<polygon fill="none" stroke="#bfbfbf" points="276.7412,-487.5 276.7412,-505.5 311.6475,-505.5 311.6475,-487.5 276.7412,-487.5"/>
<text text-anchor="middle" x="294.1943" y="-493.5" font-family="Helvetica,sans-Serif" font-size="10.00" fill="#000000">bool</text>
</g>
<!-- Node8&#45;&gt;Node0 -->
<g id="edge27" class="edge">
<title>Node8&#45;&gt;Node0</title>
<path fill="none" stroke="#9a32cd" stroke-dasharray="5,2" d="M322.1031,-499.5047C362.5904,-502.7905 439.3366,-504.9399 499.3887,-482.5 632.3236,-432.8258 756.0744,-306.194 795.0804,-263.6706"/>
<polygon fill="#9a32cd" stroke="#9a32cd" points="322.1951,-495.999 311.9221,-498.5904 321.5689,-502.9709 322.1951,-495.999"/>
<text text-anchor="middle" x="587.769" y="-475.5" font-family="Helvetica,sans-Serif" font-size="10.00" fill="#000000"> closed</text>
</g>
<!-- Node8&#45;&gt;Node4 -->
<g id="edge11" class="edge">
<title>Node8&#45;&gt;Node4</title>
<path fill="none" stroke="#9a32cd" stroke-dasharray="5,2" d="M301.8322,-477.8376C314.204,-450.1134 341.3629,-398.5286 381.5322,-372.5 426.3204,-343.4786 449.5635,-368.6226 499.3887,-349.5 524.9448,-339.6917 551.5222,-322.6762 568.7717,-310.5717"/>
<polygon fill="#9a32cd" stroke="#9a32cd" points="298.5453,-476.622 297.8183,-487.1919 304.9781,-479.3823 298.5453,-476.622"/>
<text text-anchor="middle" x="440.4604" y="-474.5" font-family="Helvetica,sans-Serif" font-size="10.00" fill="#000000"> useRailsColor</text>
<text text-anchor="middle" x="440.4604" y="-464.5" font-family="Helvetica,sans-Serif" font-size="10.00" fill="#000000">invisibleSegment</text>
<text text-anchor="middle" x="440.4604" y="-454.5" font-family="Helvetica,sans-Serif" font-size="10.00" fill="#000000">useCatwalksColor</text>
<text text-anchor="middle" x="440.4604" y="-444.5" font-family="Helvetica,sans-Serif" font-size="10.00" fill="#000000">rightRailingAndCatwalk</text>
<text text-anchor="middle" x="440.4604" y="-434.5" font-family="Helvetica,sans-Serif" font-size="10.00" fill="#000000">leftRailingLights</text>
<text text-anchor="middle" x="440.4604" y="-424.5" font-family="Helvetica,sans-Serif" font-size="10.00" fill="#000000">useMainSpineColor</text>
<text text-anchor="middle" x="440.4604" y="-414.5" font-family="Helvetica,sans-Serif" font-size="10.00" fill="#000000">useHandrailsColor</text>
<text text-anchor="middle" x="440.4604" y="-404.5" font-family="Helvetica,sans-Serif" font-size="10.00" fill="#000000">useCrossTiesColor</text>
<text text-anchor="middle" x="440.4604" y="-394.5" font-family="Helvetica,sans-Serif" font-size="10.00" fill="#000000">useSpineColorScheme</text>
<text text-anchor="middle" x="440.4604" y="-384.5" font-family="Helvetica,sans-Serif" font-size="10.00" fill="#000000">transparentCatwalks</text>
<text text-anchor="middle" x="440.4604" y="-374.5" font-family="Helvetica,sans-Serif" font-size="10.00" fill="#000000">...</text>
</g>
<!-- Node8&#45;&gt;Node17 -->
<g id="edge25" class="edge">
<title>Node8&#45;&gt;Node17</title>
<path fill="none" stroke="#9a32cd" stroke-dasharray="5,2" d="M321.7317,-501.9303C361.1808,-509.7867 436.0164,-524.9778 499.3887,-539.5 510.9481,-542.1489 523.3201,-545.134 535.0366,-548.0309"/>
<polygon fill="#9a32cd" stroke="#9a32cd" points="322.2997,-498.4748 311.8096,-499.9604 320.9366,-505.3408 322.2997,-498.4748"/>
<text text-anchor="middle" x="440.4604" y="-551.5" font-family="Helvetica,sans-Serif" font-size="10.00" fill="#000000"> strict</text>
<text text-anchor="middle" x="440.4604" y="-541.5" font-family="Helvetica,sans-Serif" font-size="10.00" fill="#000000">vertical</text>
</g>
<!-- Node9 -->
<g id="node10" class="node">
<title>Node9</title>
<polygon fill="none" stroke="#bfbfbf" points="243.1157,-165.5 243.1157,-183.5 345.2729,-183.5 345.2729,-165.5 243.1157,-165.5"/>
<text text-anchor="middle" x="294.1943" y="-171.5" font-family="Helvetica,sans-Serif" font-size="10.00" fill="#000000">SpineColorScheme</text>
</g>
<!-- Node9&#45;&gt;Node4 -->
<g id="edge12" class="edge">
<title>Node9&#45;&gt;Node4</title>
<path fill="none" stroke="#9a32cd" stroke-dasharray="5,2" d="M350.6116,-164.3061C396.2629,-159.4838 459.3371,-161.0889 499.3887,-196.5 525.7183,-219.779 493.6315,-247.601 517.3887,-273.5 522.3417,-278.8996 528.5782,-283.0349 535.2812,-286.2012"/>
<polygon fill="#9a32cd" stroke="#9a32cd" points="350.0877,-160.8436 340.5703,-165.4986 350.9133,-167.7948 350.0877,-160.8436"/>
<text text-anchor="middle" x="440.4604" y="-198.5" font-family="Helvetica,sans-Serif" font-size="10.00" fill="#000000"> spineColorScheme</text>
</g>
<!-- Node10 -->
<g id="node11" class="node">
<title>Node10</title>
<polygon fill="none" stroke="#bfbfbf" points="261.3628,-91.5 261.3628,-109.5 327.0259,-109.5 327.0259,-91.5 261.3628,-91.5"/>
<text text-anchor="middle" x="294.1943" y="-97.5" font-family="Helvetica,sans-Serif" font-size="10.00" fill="#000000">TieSpacing</text>
</g>
<!-- Node10&#45;&gt;Node4 -->
<g id="edge13" class="edge">
<title>Node10&#45;&gt;Node4</title>
<path fill="none" stroke="#9a32cd" stroke-dasharray="5,2" d="M337.3232,-94.5051C390.4611,-88.1772 476.5292,-81.7179 499.3887,-102.5 527.6613,-128.2033 493.3652,-243.7868 517.3887,-273.5 522.0763,-279.2978 528.2525,-283.6491 535.0021,-286.9117"/>
<polygon fill="#9a32cd" stroke="#9a32cd" points="336.6583,-91.0606 327.1631,-95.7608 337.517,-98.0077 336.6583,-91.0606"/>
<text text-anchor="middle" x="440.4604" y="-104.5" font-family="Helvetica,sans-Serif" font-size="10.00" fill="#000000"> tieSpacing</text>
</g>
<!-- Node11 -->
<g id="node12" class="node">
<title>Node11</title>
<polygon fill="none" stroke="#bfbfbf" points="275.6328,-249.5 275.6328,-267.5 312.7559,-267.5 312.7559,-249.5 275.6328,-249.5"/>
<text text-anchor="middle" x="294.1943" y="-255.5" font-family="Helvetica,sans-Serif" font-size="10.00" fill="#000000">vec3</text>
</g>
<!-- Node11&#45;&gt;Node4 -->
<g id="edge14" class="edge">
<title>Node11&#45;&gt;Node4</title>
<path fill="none" stroke="#9a32cd" stroke-dasharray="5,2" d="M322.8686,-250.7803C363.8874,-241.2856 440.8242,-229.3096 499.3887,-254.5 510.0743,-259.0962 507.5589,-267.2804 517.3887,-273.5 522.9287,-277.0054 529.0547,-280.0269 535.3132,-282.6182"/>
<polygon fill="#9a32cd" stroke="#9a32cd" points="321.8991,-247.414 313.009,-253.1773 323.5528,-254.2159 321.8991,-247.414"/>
<text text-anchor="middle" x="440.4604" y="-316.5" font-family="Helvetica,sans-Serif" font-size="10.00" fill="#000000"> catwalksColor</text>
<text text-anchor="middle" x="440.4604" y="-306.5" font-family="Helvetica,sans-Serif" font-size="10.00" fill="#000000">railColor</text>
<text text-anchor="middle" x="440.4604" y="-296.5" font-family="Helvetica,sans-Serif" font-size="10.00" fill="#000000">crossTiesColor</text>
<text text-anchor="middle" x="440.4604" y="-286.5" font-family="Helvetica,sans-Serif" font-size="10.00" fill="#000000">rightRailingLightsColor</text>
<text text-anchor="middle" x="440.4604" y="-276.5" font-family="Helvetica,sans-Serif" font-size="10.00" fill="#000000">leftRailingLightsColor</text>
<text text-anchor="middle" x="440.4604" y="-266.5" font-family="Helvetica,sans-Serif" font-size="10.00" fill="#000000">mainSpineColor</text>
<text text-anchor="middle" x="440.4604" y="-256.5" font-family="Helvetica,sans-Serif" font-size="10.00" fill="#000000">handrailsColor</text>
</g>
<!-- Node12 -->
<g id="node13" class="node">
<title>Node12</title>
<polygon fill="none" stroke="#bfbfbf" points="517.3887,-235.5 517.3887,-263.5 658.1494,-263.5 658.1494,-235.5 517.3887,-235.5"/>
<text text-anchor="start" x="525.3887" y="-251.5" font-family="Helvetica,sans-Serif" font-size="10.00" fill="#000000">vector&lt; NoLimits::NoLimits2</text>
<text text-anchor="middle" x="587.769" y="-241.5" font-family="Helvetica,sans-Serif" font-size="10.00" fill="#000000">::Vertex * &gt;</text>
</g>
<!-- Node12&#45;&gt;Node0 -->
<g id="edge15" class="edge">
<title>Node12&#45;&gt;Node0</title>
<path fill="none" stroke="#9a32cd" stroke-dasharray="5,2" d="M668.3691,-249.5C697.2845,-249.5 729.1243,-249.5 755.0633,-249.5"/>
<polygon fill="#9a32cd" stroke="#9a32cd" points="668.2778,-246.0001 658.2777,-249.5 668.2777,-253.0001 668.2778,-246.0001"/>
<text text-anchor="middle" x="706.7183" y="-251.5" font-family="Helvetica,sans-Serif" font-size="10.00" fill="#000000"> vertex</text>
</g>
<!-- Node13&#45;&gt;Node0 -->
<g id="edge16" class="edge">
<title>Node13&#45;&gt;Node0</title>
<path fill="none" stroke="#9a32cd" stroke-dasharray="5,2" d="M356.9758,-720.772C458.0557,-728.4692 653.9515,-725.8896 737.2871,-604.5 776.7616,-547.0001 800.7561,-322.2616 806.4333,-263.5796"/>
<polygon fill="#9a32cd" stroke="#9a32cd" points="357.1578,-717.2753 346.9054,-719.947 356.5862,-724.2519 357.1578,-717.2753"/>
<text text-anchor="middle" x="587.769" y="-718.5" font-family="Helvetica,sans-Serif" font-size="10.00" fill="#000000"> section</text>
</g>
<!-- Node13&#45;&gt;Node13 -->
<g id="edge18" class="edge">
<title>Node13&#45;&gt;Node13</title>
<path fill="none" stroke="#9a32cd" stroke-dasharray="5,2" d="M272.8635,-737.4873C275.1285,-742.4413 282.2388,-746 294.1943,-746 313.3232,-746 320.0482,-736.8898 314.3694,-727.5305"/>
<polygon fill="#9a32cd" stroke="#9a32cd" points="276.3428,-737.8674 274.0193,-727.5305 269.3895,-737.0601 276.3428,-737.8674"/>
<text text-anchor="middle" x="294.1943" y="-748" font-family="Helvetica,sans-Serif" font-size="10.00" fill="#000000"> section</text>
</g>
<!-- Node14 -->
<g id="node15" class="node">
<title>Node14</title>
<polygon fill="none" stroke="#bfbfbf" points="43.3472,-753.5 43.3472,-771.5 83.8003,-771.5 83.8003,-753.5 43.3472,-753.5"/>
<text text-anchor="middle" x="63.5737" y="-759.5" font-family="Helvetica,sans-Serif" font-size="10.00" fill="#000000">string</text>
</g>
<!-- Node14&#45;&gt;Node13 -->
<g id="edge19" class="edge">
<title>Node14&#45;&gt;Node13</title>
<path fill="none" stroke="#9a32cd" stroke-dasharray="5,2" d="M93.9794,-756.9504C123.037,-751.5543 168.0369,-742.9559 206.8564,-734.5 218.1323,-732.0438 230.187,-729.2529 241.6281,-726.526"/>
<polygon fill="#9a32cd" stroke="#9a32cd" points="93.2339,-753.5288 84.0362,-758.7874 94.5057,-760.4124 93.2339,-753.5288"/>
<text text-anchor="middle" x="176.002" y="-748.5" font-family="Helvetica,sans-Serif" font-size="10.00" fill="#000000"> name</text>
</g>
<!-- Node15 -->
<g id="node16" class="node">
<title>Node15</title>
<polygon fill="none" stroke="#bfbfbf" points="28.0542,-716.5 28.0542,-734.5 99.0933,-734.5 99.0933,-716.5 28.0542,-716.5"/>
<text text-anchor="middle" x="63.5737" y="-722.5" font-family="Helvetica,sans-Serif" font-size="10.00" fill="#000000">SectionType</text>
</g>
<!-- Node15&#45;&gt;Node13 -->
<g id="edge20" class="edge">
<title>Node15&#45;&gt;Node13</title>
<path fill="none" stroke="#9a32cd" stroke-dasharray="5,2" d="M109.3856,-723.1162C147.4474,-721.1358 201.6228,-718.3168 241.4807,-716.2429"/>
<polygon fill="#9a32cd" stroke="#9a32cd" points="108.9074,-719.6363 99.1028,-723.6513 109.2712,-726.6268 108.9074,-719.6363"/>
<text text-anchor="middle" x="176.002" y="-722.5" font-family="Helvetica,sans-Serif" font-size="10.00" fill="#000000"> _sectionType</text>
</g>
<!-- Node16 -->
<g id="node17" class="node">
<title>Node16</title>
<polygon fill="none" stroke="#bfbfbf" points="517.3887,-188.5 517.3887,-216.5 658.1494,-216.5 658.1494,-188.5 517.3887,-188.5"/>
<text text-anchor="start" x="525.3887" y="-204.5" font-family="Helvetica,sans-Serif" font-size="10.00" fill="#000000">vector&lt; NoLimits::NoLimits2</text>
<text text-anchor="middle" x="587.769" y="-194.5" font-family="Helvetica,sans-Serif" font-size="10.00" fill="#000000">::Trigger * &gt;</text>
</g>
<!-- Node16&#45;&gt;Node0 -->
<g id="edge21" class="edge">
<title>Node16&#45;&gt;Node0</title>
<path fill="none" stroke="#9a32cd" stroke-dasharray="5,2" d="M663.5607,-218.6938C693.7913,-225.1529 727.8491,-232.4298 755.2703,-238.2886"/>
<polygon fill="#9a32cd" stroke="#9a32cd" points="663.981,-215.2047 653.4704,-216.5379 662.5184,-222.0502 663.981,-215.2047"/>
<text text-anchor="middle" x="706.7183" y="-235.5" font-family="Helvetica,sans-Serif" font-size="10.00" fill="#000000"> trigger</text>
</g>
<!-- Node17&#45;&gt;Node0 -->
<g id="edge22" class="edge">
<title>Node17&#45;&gt;Node0</title>
<path fill="none" stroke="#9a32cd" stroke-dasharray="5,2" d="M650.5188,-553.9371C680.5581,-547.2115 714.7951,-534.505 737.2871,-510.5 772.0253,-473.4249 798.3979,-312.3881 805.7093,-263.5758"/>
<polygon fill="#9a32cd" stroke="#9a32cd" points="649.6044,-550.5519 640.5156,-555.9964 651.0159,-557.4081 649.6044,-550.5519"/>
<text text-anchor="middle" x="706.7183" y="-557.5" font-family="Helvetica,sans-Serif" font-size="10.00" fill="#000000"> firstRollPoint</text>
<text text-anchor="middle" x="706.7183" y="-547.5" font-family="Helvetica,sans-Serif" font-size="10.00" fill="#000000">lastRollPoint</text>
</g>
<!-- Node18 -->
<g id="node19" class="node">
<title>Node18</title>
<polygon fill="none" stroke="#bfbfbf" points="271.1797,-560.5 271.1797,-578.5 317.209,-578.5 317.209,-560.5 271.1797,-560.5"/>
<text text-anchor="middle" x="294.1943" y="-566.5" font-family="Helvetica,sans-Serif" font-size="10.00" fill="#000000">double</text>
</g>
<!-- Node18&#45;&gt;Node17 -->
<g id="edge24" class="edge">
<title>Node18&#45;&gt;Node17</title>
<path fill="none" stroke="#9a32cd" stroke-dasharray="5,2" d="M327.2848,-568.5983C377.8402,-567.2206 474.7779,-564.579 535.0825,-562.9357"/>
<polygon fill="#9a32cd" stroke="#9a32cd" points="327.1316,-565.1011 317.2307,-568.8723 327.3223,-572.0985 327.1316,-565.1011"/>
<text text-anchor="middle" x="440.4604" y="-578.5" font-family="Helvetica,sans-Serif" font-size="10.00" fill="#000000"> position</text>
<text text-anchor="middle" x="440.4604" y="-568.5" font-family="Helvetica,sans-Serif" font-size="10.00" fill="#000000">roll</text>
</g>
<!-- Node19 -->
<g id="node20" class="node">
<title>Node19</title>
<polygon fill="none" stroke="#bfbfbf" points="517.3887,-141.5 517.3887,-169.5 658.1494,-169.5 658.1494,-141.5 517.3887,-141.5"/>
<text text-anchor="start" x="525.3887" y="-157.5" font-family="Helvetica,sans-Serif" font-size="10.00" fill="#000000">vector&lt; NoLimits::NoLimits2</text>
<text text-anchor="middle" x="587.769" y="-147.5" font-family="Helvetica,sans-Serif" font-size="10.00" fill="#000000">::Separator * &gt;</text>
</g>
<!-- Node19&#45;&gt;Node0 -->
<g id="edge26" class="edge">
<title>Node19&#45;&gt;Node0</title>
<path fill="none" stroke="#9a32cd" stroke-dasharray="5,2" d="M638.6383,-172.7696C645.2072,-175.0223 651.8405,-177.3083 658.1494,-179.5 693.3923,-191.7432 703.513,-191.6487 737.2871,-207.5 754.5612,-215.6073 773.0554,-226.7347 786.7595,-235.4993"/>
<polygon fill="#9a32cd" stroke="#9a32cd" points="639.7,-169.4337 629.1054,-169.5078 637.4338,-176.0568 639.7,-169.4337"/>
<text text-anchor="middle" x="706.7183" y="-209.5" font-family="Helvetica,sans-Serif" font-size="10.00" fill="#000000"> separator</text>
</g>
<!-- Node20 -->
<g id="node21" class="node">
<title>Node20</title>
<polygon fill="none" stroke="#bfbfbf" points="517.3887,-94.5 517.3887,-122.5 658.1494,-122.5 658.1494,-94.5 517.3887,-94.5"/>
<text text-anchor="start" x="525.3887" y="-110.5" font-family="Helvetica,sans-Serif" font-size="10.00" fill="#000000">vector&lt; NoLimits::NoLimits2</text>
<text text-anchor="middle" x="587.769" y="-100.5" font-family="Helvetica,sans-Serif" font-size="10.00" fill="#000000">::Parameter4D * &gt;</text>
</g>
<!-- Node20&#45;&gt;Node0 -->
<g id="edge28" class="edge">
<title>Node20&#45;&gt;Node0</title>
<path fill="none" stroke="#9a32cd" stroke-dasharray="5,2" d="M647.0624,-125.8282C676.0708,-136.1354 710.4315,-151.2099 737.2871,-171.5 762.0388,-190.2005 784.9866,-218.4608 797.6113,-235.3377"/>
<polygon fill="#9a32cd" stroke="#9a32cd" points="648.0432,-122.4643 637.4485,-122.5148 645.7623,-129.0823 648.0432,-122.4643"/>
<text text-anchor="middle" x="706.7183" y="-173.5" font-family="Helvetica,sans-Serif" font-size="10.00" fill="#000000"> parameter4D</text>
</g>
<!-- Node21 -->
<g id="node22" class="node">
<title>Node21</title>
<polygon fill="none" stroke="#bfbfbf" points="517.3887,-47.5 517.3887,-75.5 658.1494,-75.5 658.1494,-47.5 517.3887,-47.5"/>
<text text-anchor="start" x="525.3887" y="-63.5" font-family="Helvetica,sans-Serif" font-size="10.00" fill="#000000">vector&lt; NoLimits::NoLimits2</text>
<text text-anchor="middle" x="587.769" y="-53.5" font-family="Helvetica,sans-Serif" font-size="10.00" fill="#000000">::RailNode * &gt;</text>
</g>
<!-- Node21&#45;&gt;Node0 -->
<g id="edge29" class="edge">
<title>Node21&#45;&gt;Node0</title>
<path fill="none" stroke="#9a32cd" stroke-dasharray="5,2" d="M656.2104,-78.8147C683.993,-88.5717 714.7736,-103.2 737.2871,-124.5 771.6692,-157.0289 793.8253,-210.128 802.9642,-235.3451"/>
<polygon fill="#9a32cd" stroke="#9a32cd" points="657.1208,-75.4284 646.5268,-75.5638 654.8929,-82.0645 657.1208,-75.4284"/>
<text text-anchor="middle" x="706.7183" y="-126.5" font-family="Helvetica,sans-Serif" font-size="10.00" fill="#000000"> railNode</text>
</g>
<!-- Node22 -->
<g id="node23" class="node">
<title>Node22</title>
<polygon fill="none" stroke="#bfbfbf" points="517.3887,-.5 517.3887,-28.5 658.1494,-28.5 658.1494,-.5 517.3887,-.5"/>
<text text-anchor="start" x="525.3887" y="-16.5" font-family="Helvetica,sans-Serif" font-size="10.00" fill="#000000">vector&lt; NoLimits::NoLimits2</text>
<text text-anchor="middle" x="587.769" y="-6.5" font-family="Helvetica,sans-Serif" font-size="10.00" fill="#000000">::RollPoint * &gt;</text>
</g>
<!-- Node22&#45;&gt;Node0 -->
<g id="edge30" class="edge">
<title>Node22&#45;&gt;Node0</title>
<path fill="none" stroke="#9a32cd" stroke-dasharray="5,2" d="M667.7439,-31.411C692.7348,-40.1029 718.6193,-53.1172 737.2871,-72.5 783.4035,-120.3827 800.5365,-202.1898 805.7697,-235.1312"/>
<polygon fill="#9a32cd" stroke="#9a32cd" points="668.8193,-28.0803 658.2265,-28.2871 666.6363,-34.7312 668.8193,-28.0803"/>
<text text-anchor="middle" x="706.7183" y="-74.5" font-family="Helvetica,sans-Serif" font-size="10.00" fill="#000000"> rollPoint</text>
</g>
</g>
</svg>
