<?xml version="1.0" encoding="UTF-8" standalone="no"?>
<!DOCTYPE svg PUBLIC "-//W3C//DTD SVG 1.1//EN"
 "http://www.w3.org/Graphics/SVG/1.1/DTD/svg11.dtd">
<!-- Generated by graphviz version 2.40.1 (20161225.0304)
 -->
<!-- Title: NoLimits::NoLimits2::Beam Pages: 1 -->
<svg width="601pt" height="319pt"
 viewBox="0.00 0.00 600.51 319.30" xmlns="http://www.w3.org/2000/svg" xmlns:xlink="http://www.w3.org/1999/xlink">
<g id="graph0" class="graph" transform="scale(1 1) rotate(0) translate(4 315.295)">
<title>NoLimits::NoLimits2::Beam</title>
<!-- Node0 -->
<g id="node1" class="node">
<title>Node0</title>
<polygon fill="#bfbfbf" stroke="#000000" points="487.6035,-151.795 487.6035,-179.795 592.5146,-179.795 592.5146,-151.795 487.6035,-151.795"/>
<text text-anchor="start" x="495.6035" y="-167.795" font-family="Helvetica,sans-Serif" font-size="10.00" fill="#000000">NoLimits::NoLimits2</text>
<text text-anchor="middle" x="540.0591" y="-157.795" font-family="Helvetica,sans-Serif" font-size="10.00" fill="#000000">::Beam</text>
</g>
<!-- Node1 -->
<g id="node2" class="node">
<title>Node1</title>
<g id="a_node2"><a xlink:href="class_no_limits_1_1_stream_1_1_chunk.html" target="_top" xlink:title="NoLimits::Stream::Chunk">
<polygon fill="none" stroke="#000000" points="0,-292.795 0,-310.795 127.1475,-310.795 127.1475,-292.795 0,-292.795"/>
<text text-anchor="middle" x="63.5737" y="-298.795" font-family="Helvetica,sans-Serif" font-size="10.00" fill="#000000">NoLimits::Stream::Chunk</text>
</a>
</g>
</g>
<!-- Node1&#45;&gt;Node0 -->
<g id="edge1" class="edge">
<title>Node1&#45;&gt;Node0</title>
<path fill="none" stroke="#191970" d="M137.4471,-306.323C222.7398,-308.2805 364.7346,-301.2429 469.6035,-243.795 497.4507,-228.5401 519.9918,-197.9883 531.5751,-179.9812"/>
<polygon fill="#191970" stroke="#191970" points="137.4262,-302.8212 127.3329,-306.0425 137.232,-309.8185 137.4262,-302.8212"/>
</g>
<!-- Node5 -->
<g id="node6" class="node">
<title>Node5</title>
<g id="a_node6"><a xlink:href="class_no_limits_1_1_no_limits2_1_1_beam_connection.html" target="_top" xlink:title="NoLimits::NoLimits2\l::BeamConnection">
<polygon fill="none" stroke="#000000" points="213.3184,-222.795 213.3184,-250.795 318.2295,-250.795 318.2295,-222.795 213.3184,-222.795"/>
<text text-anchor="start" x="221.3184" y="-238.795" font-family="Helvetica,sans-Serif" font-size="10.00" fill="#000000">NoLimits::NoLimits2</text>
<text text-anchor="middle" x="265.7739" y="-228.795" font-family="Helvetica,sans-Serif" font-size="10.00" fill="#000000">::BeamConnection</text>
</a>
</g>
</g>
<!-- Node1&#45;&gt;Node5 -->
<g id="edge6" class="edge">
<title>Node1&#45;&gt;Node5</title>
<path fill="none" stroke="#191970" d="M119.5679,-290.5417C138.1605,-286.2694 158.8434,-280.9318 177.3936,-274.795 197.5317,-268.1329 219.4402,-258.7287 236.4064,-250.9427"/>
<polygon fill="#191970" stroke="#191970" points="118.7612,-287.1356 109.7703,-292.7405 120.2941,-293.9657 118.7612,-287.1356"/>
</g>
<!-- Node2 -->
<g id="node3" class="node">
<title>Node2</title>
<g id="a_node3"><a xlink:href="class_no_limits_1_1_no_limits2_1_1_support_node.html" target="_top" xlink:title="NoLimits::NoLimits2\l::SupportNode">
<polygon fill="none" stroke="#000000" points="213.3184,-113.795 213.3184,-141.795 318.2295,-141.795 318.2295,-113.795 213.3184,-113.795"/>
<text text-anchor="start" x="221.3184" y="-129.795" font-family="Helvetica,sans-Serif" font-size="10.00" fill="#000000">NoLimits::NoLimits2</text>
<text text-anchor="middle" x="265.7739" y="-119.795" font-family="Helvetica,sans-Serif" font-size="10.00" fill="#000000">::SupportNode</text>
</a>
</g>
</g>
<!-- Node2&#45;&gt;Node0 -->
<g id="edge2" class="edge">
<title>Node2&#45;&gt;Node0</title>
<path fill="none" stroke="#191970" d="M328.2961,-136.4569C376.2902,-143.1061 441.8142,-152.184 487.2097,-158.4731"/>
<polygon fill="#191970" stroke="#191970" points="328.7201,-132.9823 318.3343,-135.0768 327.7594,-139.9161 328.7201,-132.9823"/>
</g>
<!-- Node3 -->
<g id="node4" class="node">
<title>Node3</title>
<polygon fill="none" stroke="#bfbfbf" points="40.5615,-121.795 40.5615,-139.795 86.5859,-139.795 86.5859,-121.795 40.5615,-121.795"/>
<text text-anchor="middle" x="63.5737" y="-127.795" font-family="Helvetica,sans-Serif" font-size="10.00" fill="#000000">uint8_t</text>
</g>
<!-- Node3&#45;&gt;Node2 -->
<g id="edge3" class="edge">
<title>Node3&#45;&gt;Node2</title>
<path fill="none" stroke="#9a32cd" stroke-dasharray="5,2" d="M96.8004,-130.302C128.351,-129.8339 176.2895,-129.1227 213.0566,-128.5772"/>
<polygon fill="#9a32cd" stroke="#9a32cd" points="96.7156,-126.8028 86.7687,-130.4509 96.8195,-133.802 96.7156,-126.8028"/>
<text text-anchor="middle" x="161.2705" y="-150.795" font-family="Helvetica,sans-Serif" font-size="10.00" fill="#000000"> flag1</text>
<text text-anchor="middle" x="161.2705" y="-140.795" font-family="Helvetica,sans-Serif" font-size="10.00" fill="#000000">flag2</text>
<text text-anchor="middle" x="161.2705" y="-130.795" font-family="Helvetica,sans-Serif" font-size="10.00" fill="#000000">flag3</text>
</g>
<!-- Node4 -->
<g id="node5" class="node">
<title>Node4</title>
<polygon fill="none" stroke="#bfbfbf" points="45.0122,-84.795 45.0122,-102.795 82.1353,-102.795 82.1353,-84.795 45.0122,-84.795"/>
<text text-anchor="middle" x="63.5737" y="-90.795" font-family="Helvetica,sans-Serif" font-size="10.00" fill="#000000">vec3</text>
</g>
<!-- Node4&#45;&gt;Node2 -->
<g id="edge4" class="edge">
<title>Node4&#45;&gt;Node2</title>
<path fill="none" stroke="#9a32cd" stroke-dasharray="5,2" d="M92.4554,-98.6515C123.7815,-103.919 174.4605,-112.4406 212.9453,-118.9119"/>
<polygon fill="#9a32cd" stroke="#9a32cd" points="92.6758,-95.1395 82.2338,-96.9327 91.515,-102.0425 92.6758,-95.1395"/>
<text text-anchor="middle" x="161.2705" y="-114.795" font-family="Helvetica,sans-Serif" font-size="10.00" fill="#000000"> color</text>
</g>
<!-- Node5&#45;&gt;Node0 -->
<g id="edge5" class="edge">
<title>Node5&#45;&gt;Node0</title>
<path fill="none" stroke="#9a32cd" stroke-dasharray="5,2" d="M328.3104,-225.8719C368.9654,-218.1412 422.9022,-206.6947 469.6035,-192.795 481.7819,-189.1704 494.8466,-184.4161 506.3776,-179.9087"/>
<polygon fill="#9a32cd" stroke="#9a32cd" points="327.4554,-222.4711 318.2731,-227.7565 328.7472,-229.3509 327.4554,-222.4711"/>
<text text-anchor="middle" x="411.8789" y="-231.795" font-family="Helvetica,sans-Serif" font-size="10.00" fill="#000000"> connection1</text>
<text text-anchor="middle" x="411.8789" y="-221.795" font-family="Helvetica,sans-Serif" font-size="10.00" fill="#000000">connection2</text>
</g>
<!-- Node6 -->
<g id="node7" class="node">
<title>Node6</title>
<polygon fill="none" stroke="#bfbfbf" points="37.7808,-235.795 37.7808,-253.795 89.3667,-253.795 89.3667,-235.795 37.7808,-235.795"/>
<text text-anchor="middle" x="63.5737" y="-241.795" font-family="Helvetica,sans-Serif" font-size="10.00" fill="#000000">uint32_t</text>
</g>
<!-- Node6&#45;&gt;Node5 -->
<g id="edge7" class="edge">
<title>Node6&#45;&gt;Node5</title>
<path fill="none" stroke="#9a32cd" stroke-dasharray="5,2" d="M99.6841,-243.3663C131.1969,-242.1195 177.3314,-240.2942 212.9855,-238.8836"/>
<polygon fill="#9a32cd" stroke="#9a32cd" points="99.4477,-239.8728 89.5939,-243.7655 99.7245,-246.8674 99.4477,-239.8728"/>
<text text-anchor="middle" x="161.2705" y="-262.795" font-family="Helvetica,sans-Serif" font-size="10.00" fill="#000000"> index1</text>
<text text-anchor="middle" x="161.2705" y="-252.795" font-family="Helvetica,sans-Serif" font-size="10.00" fill="#000000">index2</text>
<text text-anchor="middle" x="161.2705" y="-242.795" font-family="Helvetica,sans-Serif" font-size="10.00" fill="#000000">index3</text>
</g>
<!-- Node7 -->
<g id="node8" class="node">
<title>Node7</title>
<polygon fill="none" stroke="#bfbfbf" points="44.7314,-183.795 44.7314,-201.795 82.416,-201.795 82.416,-183.795 44.7314,-183.795"/>
<text text-anchor="middle" x="63.5737" y="-189.795" font-family="Helvetica,sans-Serif" font-size="10.00" fill="#000000">Type</text>
</g>
<!-- Node7&#45;&gt;Node0 -->
<g id="edge11" class="edge">
<title>Node7&#45;&gt;Node0</title>
<path fill="none" stroke="#9a32cd" stroke-dasharray="5,2" d="M92.6445,-191.1477C170.8661,-186.7153 386.6741,-174.4866 487.2225,-168.789"/>
<polygon fill="#9a32cd" stroke="#9a32cd" points="92.3325,-187.6597 82.5466,-191.7199 92.7286,-194.6485 92.3325,-187.6597"/>
<text text-anchor="middle" x="265.7739" y="-186.795" font-family="Helvetica,sans-Serif" font-size="10.00" fill="#000000"> type</text>
</g>
<!-- Node7&#45;&gt;Node5 -->
<g id="edge8" class="edge">
<title>Node7&#45;&gt;Node5</title>
<path fill="none" stroke="#9a32cd" stroke-dasharray="5,2" d="M92.449,-199.0784C123.8335,-205.9079 174.6488,-216.9656 213.1627,-225.3465"/>
<polygon fill="#9a32cd" stroke="#9a32cd" points="93.1118,-195.6408 82.5962,-196.9344 91.6233,-202.4808 93.1118,-195.6408"/>
<text text-anchor="middle" x="161.2705" y="-218.795" font-family="Helvetica,sans-Serif" font-size="10.00" fill="#000000"> type</text>
</g>
<!-- Node8 -->
<g id="node9" class="node">
<title>Node8</title>
<polygon fill="none" stroke="#bfbfbf" points="248.3232,-49.795 248.3232,-67.795 283.2246,-67.795 283.2246,-49.795 248.3232,-49.795"/>
<text text-anchor="middle" x="265.7739" y="-55.795" font-family="Helvetica,sans-Serif" font-size="10.00" fill="#000000">float</text>
</g>
<!-- Node8&#45;&gt;Node0 -->
<g id="edge9" class="edge">
<title>Node8&#45;&gt;Node0</title>
<path fill="none" stroke="#9a32cd" stroke-dasharray="5,2" d="M293.0705,-50.3819C334.1866,-39.3898 413.1925,-24.9363 469.6035,-55.795 507.4065,-76.4745 527.9056,-127.0505 535.9628,-151.7543"/>
<polygon fill="#9a32cd" stroke="#9a32cd" points="291.9171,-47.0702 283.2344,-53.1415 293.8081,-53.81 291.9171,-47.0702"/>
<text text-anchor="middle" x="411.8789" y="-127.795" font-family="Helvetica,sans-Serif" font-size="10.00" fill="#000000"> nodeOffsetAbsoluteYEnd</text>
<text text-anchor="middle" x="411.8789" y="-117.795" font-family="Helvetica,sans-Serif" font-size="10.00" fill="#000000">nodeOffsetAbsoluteYStart</text>
<text text-anchor="middle" x="411.8789" y="-107.795" font-family="Helvetica,sans-Serif" font-size="10.00" fill="#000000">extraLengthAtEnd</text>
<text text-anchor="middle" x="411.8789" y="-97.795" font-family="Helvetica,sans-Serif" font-size="10.00" fill="#000000">extraLengthAtStart</text>
<text text-anchor="middle" x="411.8789" y="-87.795" font-family="Helvetica,sans-Serif" font-size="10.00" fill="#000000">endWidth</text>
<text text-anchor="middle" x="411.8789" y="-77.795" font-family="Helvetica,sans-Serif" font-size="10.00" fill="#000000">startWidth</text>
<text text-anchor="middle" x="411.8789" y="-67.795" font-family="Helvetica,sans-Serif" font-size="10.00" fill="#000000">rotationAngle</text>
<text text-anchor="middle" x="411.8789" y="-57.795" font-family="Helvetica,sans-Serif" font-size="10.00" fill="#000000">nodeOffsetRelativeX</text>
</g>
<!-- Node9 -->
<g id="node10" class="node">
<title>Node9</title>
<polygon fill="none" stroke="#bfbfbf" points="195.3936,-2.795 195.3936,-30.795 336.1543,-30.795 336.1543,-2.795 195.3936,-2.795"/>
<text text-anchor="start" x="203.3936" y="-18.795" font-family="Helvetica,sans-Serif" font-size="10.00" fill="#000000">vector&lt; NoLimits::NoLimits2</text>
<text text-anchor="middle" x="265.7739" y="-8.795" font-family="Helvetica,sans-Serif" font-size="10.00" fill="#000000">::BeamNode * &gt;</text>
</g>
<!-- Node9&#45;&gt;Node0 -->
<g id="edge10" class="edge">
<title>Node9&#45;&gt;Node0</title>
<path fill="none" stroke="#9a32cd" stroke-dasharray="5,2" d="M341.4136,-1.6508C382.4193,2.4268 432.2048,.2966 469.6035,-23.795 515.4122,-53.3042 532.5075,-122.1115 537.9024,-151.7751"/>
<polygon fill="#9a32cd" stroke="#9a32cd" points="341.0044,1.8253 331.4615,-2.7772 341.7917,-5.1303 341.0044,1.8253"/>
<text text-anchor="middle" x="411.8789" y="-25.795" font-family="Helvetica,sans-Serif" font-size="10.00" fill="#000000"> beamNode</text>
</g>
</g>
</svg>
