<?xml version="1.0" encoding="UTF-8" standalone="no"?>
<!DOCTYPE svg PUBLIC "-//W3C//DTD SVG 1.1//EN"
 "http://www.w3.org/Graphics/SVG/1.1/DTD/svg11.dtd">
<!-- Generated by graphviz version 2.40.1 (20161225.0304)
 -->
<!-- Title: NoLimits::NoLimits2::Trigger Pages: 1 -->
<svg width="340pt" height="102pt"
 viewBox="0.00 0.00 339.57 102.00" xmlns="http://www.w3.org/2000/svg" xmlns:xlink="http://www.w3.org/1999/xlink">
<g id="graph0" class="graph" transform="scale(1 1) rotate(0) translate(4 98)">
<title>NoLimits::NoLimits2::Trigger</title>
<!-- Node0 -->
<g id="node1" class="node">
<title>Node0</title>
<polygon fill="#bfbfbf" stroke="#000000" points="146.1182,-.5 146.1182,-28.5 251.0293,-28.5 251.0293,-.5 146.1182,-.5"/>
<text text-anchor="start" x="154.1182" y="-16.5" font-family="Helvetica,sans-Serif" font-size="10.00" fill="#000000">NoLimits::NoLimits2</text>
<text text-anchor="middle" x="198.5737" y="-6.5" font-family="Helvetica,sans-Serif" font-size="10.00" fill="#000000">::Trigger</text>
</g>
<!-- Node1 -->
<g id="node2" class="node">
<title>Node1</title>
<g id="a_node2"><a xlink:href="class_no_limits_1_1_stream_1_1_chunk.html" target="_top" xlink:title="NoLimits::Stream::Chunk">
<polygon fill="none" stroke="#000000" points="0,-75.5 0,-93.5 127.1475,-93.5 127.1475,-75.5 0,-75.5"/>
<text text-anchor="middle" x="63.5737" y="-81.5" font-family="Helvetica,sans-Serif" font-size="10.00" fill="#000000">NoLimits::Stream::Chunk</text>
</a>
</g>
</g>
<!-- Node1&#45;&gt;Node0 -->
<g id="edge1" class="edge">
<title>Node1&#45;&gt;Node0</title>
<path fill="none" stroke="#191970" d="M89.9988,-70.7981C113.513,-58.6055 147.7572,-40.8493 171.4739,-28.5518"/>
<polygon fill="#191970" stroke="#191970" points="88.2127,-67.7817 80.9462,-75.492 91.4349,-73.9959 88.2127,-67.7817"/>
</g>
<!-- Node2 -->
<g id="node3" class="node">
<title>Node2</title>
<polygon fill="none" stroke="#bfbfbf" points="145.5591,-75.5 145.5591,-93.5 191.5884,-93.5 191.5884,-75.5 145.5591,-75.5"/>
<text text-anchor="middle" x="168.5737" y="-81.5" font-family="Helvetica,sans-Serif" font-size="10.00" fill="#000000">double</text>
</g>
<!-- Node2&#45;&gt;Node0 -->
<g id="edge2" class="edge">
<title>Node2&#45;&gt;Node0</title>
<path fill="none" stroke="#9a32cd" stroke-dasharray="5,2" d="M167.0685,-64.7864C167.2547,-58.8918 168.1118,-52.53 170.3276,-47 173.0526,-40.1996 177.8306,-33.843 182.6904,-28.587"/>
<polygon fill="#9a32cd" stroke="#9a32cd" points="163.5814,-65.3046 167.3565,-75.204 170.5787,-65.1111 163.5814,-65.3046"/>
<text text-anchor="middle" x="188.1968" y="-49" font-family="Helvetica,sans-Serif" font-size="10.00" fill="#000000"> position</text>
</g>
<!-- Node3 -->
<g id="node4" class="node">
<title>Node3</title>
<polygon fill="none" stroke="#bfbfbf" points="209.3472,-75.5 209.3472,-93.5 249.8003,-93.5 249.8003,-75.5 209.3472,-75.5"/>
<text text-anchor="middle" x="229.5737" y="-81.5" font-family="Helvetica,sans-Serif" font-size="10.00" fill="#000000">string</text>
</g>
<!-- Node3&#45;&gt;Node0 -->
<g id="edge3" class="edge">
<title>Node3&#45;&gt;Node0</title>
<path fill="none" stroke="#9a32cd" stroke-dasharray="5,2" d="M221.4228,-66.0947C216.2505,-54.4154 209.6576,-39.5282 204.8844,-28.7499"/>
<polygon fill="#9a32cd" stroke="#9a32cd" points="218.2715,-67.6225 225.521,-75.3487 224.6719,-64.788 218.2715,-67.6225"/>
<text text-anchor="middle" x="230.4702" y="-49" font-family="Helvetica,sans-Serif" font-size="10.00" fill="#000000"> name</text>
</g>
<!-- Node4 -->
<g id="node5" class="node">
<title>Node4</title>
<polygon fill="none" stroke="#bfbfbf" points="267.5796,-75.5 267.5796,-93.5 331.5679,-93.5 331.5679,-75.5 267.5796,-75.5"/>
<text text-anchor="middle" x="299.5737" y="-81.5" font-family="Helvetica,sans-Serif" font-size="10.00" fill="#000000">TrainEvent</text>
</g>
<!-- Node4&#45;&gt;Node0 -->
<g id="edge4" class="edge">
<title>Node4&#45;&gt;Node0</title>
<path fill="none" stroke="#9a32cd" stroke-dasharray="5,2" d="M279.3369,-69.2056C270.0529,-62.2966 258.8475,-54.1074 248.5737,-47 239.7188,-40.8742 229.8066,-34.3618 221.1575,-28.788"/>
<polygon fill="#9a32cd" stroke="#9a32cd" points="277.4538,-72.168 287.5563,-75.3603 281.6495,-66.5648 277.4538,-72.168"/>
<text text-anchor="middle" x="284.4751" y="-49" font-family="Helvetica,sans-Serif" font-size="10.00" fill="#000000"> trainEvent</text>
</g>
</g>
</svg>
