<?xml version="1.0" encoding="UTF-8" standalone="no"?>
<!DOCTYPE svg PUBLIC "-//W3C//DTD SVG 1.1//EN"
 "http://www.w3.org/Graphics/SVG/1.1/DTD/svg11.dtd">
<!-- Generated by graphviz version 2.40.1 (20161225.0304)
 -->
<!-- Title: NoLimits::NoLimits2::Segment Pages: 1 -->
<svg width="593pt" height="461pt"
 viewBox="0.00 0.00 593.05 460.63" xmlns="http://www.w3.org/2000/svg" xmlns:xlink="http://www.w3.org/1999/xlink">
<g id="graph0" class="graph" transform="scale(1 1) rotate(0) translate(4 456.6345)">
<title>NoLimits::NoLimits2::Segment</title>
<!-- Node0 -->
<g id="node1" class="node">
<title>Node0</title>
<polygon fill="#bfbfbf" stroke="#000000" points="480.1426,-237.9404 480.1426,-265.9404 585.0537,-265.9404 585.0537,-237.9404 480.1426,-237.9404"/>
<text text-anchor="start" x="488.1426" y="-253.9404" font-family="Helvetica,sans-Serif" font-size="10.00" fill="#000000">NoLimits::NoLimits2</text>
<text text-anchor="middle" x="532.5981" y="-243.9404" font-family="Helvetica,sans-Serif" font-size="10.00" fill="#000000">::Segment</text>
</g>
<!-- Node1 -->
<g id="node2" class="node">
<title>Node1</title>
<g id="a_node2"><a xlink:href="class_no_limits_1_1_stream_1_1_chunk.html" target="_top" xlink:title="NoLimits::Stream::Chunk">
<polygon fill="none" stroke="#000000" points="0,-410.9404 0,-428.9404 127.1475,-428.9404 127.1475,-410.9404 0,-410.9404"/>
<text text-anchor="middle" x="63.5737" y="-416.9404" font-family="Helvetica,sans-Serif" font-size="10.00" fill="#000000">NoLimits::Stream::Chunk</text>
</a>
</g>
</g>
<!-- Node1&#45;&gt;Node0 -->
<g id="edge1" class="edge">
<title>Node1&#45;&gt;Node0</title>
<path fill="none" stroke="#191970" d="M105.3315,-431.4298C183.061,-450.1891 352.0295,-478.3255 462.1426,-403.9404 510.1053,-371.54 526.0747,-297.6641 530.8083,-266.3725"/>
<polygon fill="#191970" stroke="#191970" points="105.9759,-427.9836 95.4271,-428.9698 104.2886,-434.7772 105.9759,-427.9836"/>
</g>
<!-- Node2 -->
<g id="node3" class="node">
<title>Node2</title>
<g id="a_node3"><a xlink:href="class_no_limits_1_1_no_limits2_1_1_wooden_support_generator.html" target="_top" xlink:title="NoLimits::NoLimits2\l::WoodenSupportGenerator">
<polygon fill="none" stroke="#000000" points="187.6104,-372.9404 187.6104,-400.9404 326.2861,-400.9404 326.2861,-372.9404 187.6104,-372.9404"/>
<text text-anchor="start" x="195.6104" y="-388.9404" font-family="Helvetica,sans-Serif" font-size="10.00" fill="#000000">NoLimits::NoLimits2</text>
<text text-anchor="middle" x="256.9482" y="-378.9404" font-family="Helvetica,sans-Serif" font-size="10.00" fill="#000000">::WoodenSupportGenerator</text>
</a>
</g>
</g>
<!-- Node1&#45;&gt;Node2 -->
<g id="edge3" class="edge">
<title>Node1&#45;&gt;Node2</title>
<path fill="none" stroke="#191970" d="M126.4065,-409.2178C145.9199,-405.8878 167.539,-402.1984 187.4771,-398.7959"/>
<polygon fill="#191970" stroke="#191970" points="125.6829,-405.7906 116.4142,-410.923 126.8605,-412.6908 125.6829,-405.7906"/>
</g>
<!-- Node2&#45;&gt;Node0 -->
<g id="edge2" class="edge">
<title>Node2&#45;&gt;Node0</title>
<path fill="none" stroke="#9a32cd" stroke-dasharray="5,2" d="M336.5411,-390.6432C376.9121,-388.9845 425.1024,-381.2809 462.1426,-357.9404 497.1022,-335.911 518.582,-289.5052 527.6212,-266.09"/>
<polygon fill="#9a32cd" stroke="#9a32cd" points="336.3498,-387.1472 326.4573,-390.9405 336.5561,-394.1442 336.3498,-387.1472"/>
<text text-anchor="middle" x="403.2144" y="-391.9404" font-family="Helvetica,sans-Serif" font-size="10.00" fill="#000000"> woodenSupportGenerator</text>
</g>
<!-- Node3 -->
<g id="node4" class="node">
<title>Node3</title>
<polygon fill="none" stroke="#bfbfbf" points="40.5615,-358.9404 40.5615,-376.9404 86.5859,-376.9404 86.5859,-358.9404 40.5615,-358.9404"/>
<text text-anchor="middle" x="63.5737" y="-364.9404" font-family="Helvetica,sans-Serif" font-size="10.00" fill="#000000">uint8_t</text>
</g>
<!-- Node3&#45;&gt;Node0 -->
<g id="edge6" class="edge">
<title>Node3&#45;&gt;Node0</title>
<path fill="none" stroke="#9a32cd" stroke-dasharray="5,2" d="M96.5319,-364.2079C191.6605,-353.4255 460.0772,-322.9344 462.1426,-321.9404 488.5556,-309.2293 510.9583,-282.5316 523.0292,-266.0286"/>
<polygon fill="#9a32cd" stroke="#9a32cd" points="96.1296,-360.731 86.5873,-365.3348 96.9178,-367.6865 96.1296,-360.731"/>
<text text-anchor="middle" x="256.9482" y="-354.9404" font-family="Helvetica,sans-Serif" font-size="10.00" fill="#000000"> spineType</text>
</g>
<!-- Node3&#45;&gt;Node2 -->
<g id="edge4" class="edge">
<title>Node3&#45;&gt;Node2</title>
<path fill="none" stroke="#9a32cd" stroke-dasharray="5,2" d="M96.7278,-370.9928C117.6392,-372.9364 145.2105,-375.5327 169.6104,-377.9404 175.3747,-378.5092 181.3522,-379.1075 187.3525,-379.7139"/>
<polygon fill="#9a32cd" stroke="#9a32cd" points="97.027,-367.5056 86.7466,-370.0676 96.3809,-374.4757 97.027,-367.5056"/>
<text text-anchor="middle" x="157.3789" y="-389.9404" font-family="Helvetica,sans-Serif" font-size="10.00" fill="#000000"> flag1</text>
<text text-anchor="middle" x="157.3789" y="-379.9404" font-family="Helvetica,sans-Serif" font-size="10.00" fill="#000000">flag2</text>
</g>
<!-- Node4 -->
<g id="node5" class="node">
<title>Node4</title>
<polygon fill="none" stroke="#bfbfbf" points="233.8433,-288.9404 233.8433,-306.9404 280.0532,-306.9404 280.0532,-288.9404 233.8433,-288.9404"/>
<text text-anchor="middle" x="256.9482" y="-294.9404" font-family="Helvetica,sans-Serif" font-size="10.00" fill="#000000">Tunnel</text>
</g>
<!-- Node4&#45;&gt;Node0 -->
<g id="edge5" class="edge">
<title>Node4&#45;&gt;Node0</title>
<path fill="none" stroke="#9a32cd" stroke-dasharray="5,2" d="M290.3889,-303.369C331.697,-308.8171 403.6741,-314.1739 462.1426,-296.9404 482.7468,-290.8673 503.0756,-276.776 516.561,-265.9673"/>
<polygon fill="#9a32cd" stroke="#9a32cd" points="290.7167,-299.8808 280.3277,-301.959 289.7452,-306.8131 290.7167,-299.8808"/>
<text text-anchor="middle" x="403.2144" y="-309.9404" font-family="Helvetica,sans-Serif" font-size="10.00" fill="#000000"> tunnel</text>
</g>
<!-- Node5 -->
<g id="node6" class="node">
<title>Node5</title>
<polygon fill="none" stroke="#bfbfbf" points="239.4951,-180.9404 239.4951,-198.9404 274.4014,-198.9404 274.4014,-180.9404 239.4951,-180.9404"/>
<text text-anchor="middle" x="256.9482" y="-186.9404" font-family="Helvetica,sans-Serif" font-size="10.00" fill="#000000">bool</text>
</g>
<!-- Node5&#45;&gt;Node0 -->
<g id="edge7" class="edge">
<title>Node5&#45;&gt;Node0</title>
<path fill="none" stroke="#9a32cd" stroke-dasharray="5,2" d="M284.2417,-182.1736C324.7694,-172.1203 402.4863,-158.5939 462.1426,-182.9404 489.2486,-194.0027 511.5787,-221.073 523.419,-237.8299"/>
<polygon fill="#9a32cd" stroke="#9a32cd" points="283.3393,-178.7917 274.5399,-184.6927 285.0986,-185.5671 283.3393,-178.7917"/>
<text text-anchor="middle" x="403.2144" y="-284.9404" font-family="Helvetica,sans-Serif" font-size="10.00" fill="#000000"> useRailsColor</text>
<text text-anchor="middle" x="403.2144" y="-274.9404" font-family="Helvetica,sans-Serif" font-size="10.00" fill="#000000">invisibleSegment</text>
<text text-anchor="middle" x="403.2144" y="-264.9404" font-family="Helvetica,sans-Serif" font-size="10.00" fill="#000000">useCatwalksColor</text>
<text text-anchor="middle" x="403.2144" y="-254.9404" font-family="Helvetica,sans-Serif" font-size="10.00" fill="#000000">rightRailingAndCatwalk</text>
<text text-anchor="middle" x="403.2144" y="-244.9404" font-family="Helvetica,sans-Serif" font-size="10.00" fill="#000000">leftRailingLights</text>
<text text-anchor="middle" x="403.2144" y="-234.9404" font-family="Helvetica,sans-Serif" font-size="10.00" fill="#000000">useMainSpineColor</text>
<text text-anchor="middle" x="403.2144" y="-224.9404" font-family="Helvetica,sans-Serif" font-size="10.00" fill="#000000">useHandrailsColor</text>
<text text-anchor="middle" x="403.2144" y="-214.9404" font-family="Helvetica,sans-Serif" font-size="10.00" fill="#000000">useCrossTiesColor</text>
<text text-anchor="middle" x="403.2144" y="-204.9404" font-family="Helvetica,sans-Serif" font-size="10.00" fill="#000000">useSpineColorScheme</text>
<text text-anchor="middle" x="403.2144" y="-194.9404" font-family="Helvetica,sans-Serif" font-size="10.00" fill="#000000">transparentCatwalks</text>
<text text-anchor="middle" x="403.2144" y="-184.9404" font-family="Helvetica,sans-Serif" font-size="10.00" fill="#000000">...</text>
</g>
<!-- Node6 -->
<g id="node7" class="node">
<title>Node6</title>
<polygon fill="none" stroke="#bfbfbf" points="205.8696,-143.9404 205.8696,-161.9404 308.0269,-161.9404 308.0269,-143.9404 205.8696,-143.9404"/>
<text text-anchor="middle" x="256.9482" y="-149.9404" font-family="Helvetica,sans-Serif" font-size="10.00" fill="#000000">SpineColorScheme</text>
</g>
<!-- Node6&#45;&gt;Node0 -->
<g id="edge8" class="edge">
<title>Node6&#45;&gt;Node0</title>
<path fill="none" stroke="#9a32cd" stroke-dasharray="5,2" d="M303.4249,-142.0233C346.9742,-134.3238 412.6044,-129.3906 462.1426,-154.9404 496.3645,-172.5907 517.9192,-215.3873 527.243,-237.7684"/>
<polygon fill="#9a32cd" stroke="#9a32cd" points="302.5748,-138.6218 293.3965,-143.9141 303.8718,-145.5006 302.5748,-138.6218"/>
<text text-anchor="middle" x="403.2144" y="-156.9404" font-family="Helvetica,sans-Serif" font-size="10.00" fill="#000000"> spineColorScheme</text>
</g>
<!-- Node7 -->
<g id="node8" class="node">
<title>Node7</title>
<polygon fill="none" stroke="#bfbfbf" points="224.1167,-106.9404 224.1167,-124.9404 289.7798,-124.9404 289.7798,-106.9404 224.1167,-106.9404"/>
<text text-anchor="middle" x="256.9482" y="-112.9404" font-family="Helvetica,sans-Serif" font-size="10.00" fill="#000000">TieSpacing</text>
</g>
<!-- Node7&#45;&gt;Node0 -->
<g id="edge9" class="edge">
<title>Node7&#45;&gt;Node0</title>
<path fill="none" stroke="#9a32cd" stroke-dasharray="5,2" d="M299.8226,-105.2287C343.9433,-96.7403 412.9873,-90.7453 462.1426,-120.9404 505.05,-147.2976 523.4701,-209.5095 529.8122,-237.6608"/>
<polygon fill="#9a32cd" stroke="#9a32cd" points="299.0822,-101.8076 289.9871,-107.2418 300.4859,-108.6655 299.0822,-101.8076"/>
<text text-anchor="middle" x="403.2144" y="-122.9404" font-family="Helvetica,sans-Serif" font-size="10.00" fill="#000000"> tieSpacing</text>
</g>
<!-- Node8 -->
<g id="node9" class="node">
<title>Node8</title>
<polygon fill="none" stroke="#bfbfbf" points="238.3867,-15.9404 238.3867,-33.9404 275.5098,-33.9404 275.5098,-15.9404 238.3867,-15.9404"/>
<text text-anchor="middle" x="256.9482" y="-21.9404" font-family="Helvetica,sans-Serif" font-size="10.00" fill="#000000">vec3</text>
</g>
<!-- Node8&#45;&gt;Node0 -->
<g id="edge10" class="edge">
<title>Node8&#45;&gt;Node0</title>
<path fill="none" stroke="#9a32cd" stroke-dasharray="5,2" d="M285.3972,-15.089C328.2712,-2.1939 409.9672,14.5463 462.1426,-23.9404 497.8173,-50.2556 523.0821,-191.8995 530.4119,-237.6681"/>
<polygon fill="#9a32cd" stroke="#9a32cd" points="284.1091,-11.8251 275.6221,-18.1671 286.2117,-18.5019 284.1091,-11.8251"/>
<text text-anchor="middle" x="403.2144" y="-85.9404" font-family="Helvetica,sans-Serif" font-size="10.00" fill="#000000"> catwalksColor</text>
<text text-anchor="middle" x="403.2144" y="-75.9404" font-family="Helvetica,sans-Serif" font-size="10.00" fill="#000000">railColor</text>
<text text-anchor="middle" x="403.2144" y="-65.9404" font-family="Helvetica,sans-Serif" font-size="10.00" fill="#000000">crossTiesColor</text>
<text text-anchor="middle" x="403.2144" y="-55.9404" font-family="Helvetica,sans-Serif" font-size="10.00" fill="#000000">rightRailingLightsColor</text>
<text text-anchor="middle" x="403.2144" y="-45.9404" font-family="Helvetica,sans-Serif" font-size="10.00" fill="#000000">leftRailingLightsColor</text>
<text text-anchor="middle" x="403.2144" y="-35.9404" font-family="Helvetica,sans-Serif" font-size="10.00" fill="#000000">mainSpineColor</text>
<text text-anchor="middle" x="403.2144" y="-25.9404" font-family="Helvetica,sans-Serif" font-size="10.00" fill="#000000">handrailsColor</text>
</g>
</g>
</svg>
