<?xml version="1.0" encoding="UTF-8" standalone="no"?>
<!DOCTYPE svg PUBLIC "-//W3C//DTD SVG 1.1//EN"
 "http://www.w3.org/Graphics/SVG/1.1/DTD/svg11.dtd">
<!-- Generated by graphviz version 2.40.1 (20161225.0304)
 -->
<!-- Title: NoLimits::NoLimits2::Track Pages: 1 -->
<svg width="216pt" height="102pt"
 viewBox="0.00 0.00 215.73 102.00" xmlns="http://www.w3.org/2000/svg" xmlns:xlink="http://www.w3.org/1999/xlink">
<g id="graph0" class="graph" transform="scale(1 1) rotate(0) translate(4 98)">
<title>NoLimits::NoLimits2::Track</title>
<!-- Node0 -->
<g id="node1" class="node">
<title>Node0</title>
<polygon fill="#bfbfbf" stroke="#000000" points="67.1182,-.5 67.1182,-28.5 172.0293,-28.5 172.0293,-.5 67.1182,-.5"/>
<text text-anchor="start" x="75.1182" y="-16.5" font-family="Helvetica,sans-Serif" font-size="10.00" fill="#000000">NoLimits::NoLimits2</text>
<text text-anchor="middle" x="119.5737" y="-6.5" font-family="Helvetica,sans-Serif" font-size="10.00" fill="#000000">::Track</text>
</g>
<!-- Node1 -->
<g id="node2" class="node">
<title>Node1</title>
<g id="a_node2"><a xlink:href="class_no_limits_1_1_stream_1_1_chunk.html" target="_top" xlink:title="NoLimits::Stream::Chunk">
<polygon fill="none" stroke="#000000" points="0,-75.5 0,-93.5 127.1475,-93.5 127.1475,-75.5 0,-75.5"/>
<text text-anchor="middle" x="63.5737" y="-81.5" font-family="Helvetica,sans-Serif" font-size="10.00" fill="#000000">NoLimits::Stream::Chunk</text>
</a>
</g>
</g>
<!-- Node1&#45;&gt;Node0 -->
<g id="edge1" class="edge">
<title>Node1&#45;&gt;Node0</title>
<path fill="none" stroke="#191970" d="M77.1783,-67.4942C86.6736,-55.6251 99.2028,-39.9637 108.1738,-28.7499"/>
<polygon fill="#191970" stroke="#191970" points="74.4087,-65.3536 70.8948,-75.3487 79.8748,-69.7265 74.4087,-65.3536"/>
</g>
<!-- Node2 -->
<g id="node3" class="node">
<title>Node2</title>
<polygon fill="none" stroke="#bfbfbf" points="145.4146,-75.5 145.4146,-93.5 207.7329,-93.5 207.7329,-75.5 145.4146,-75.5"/>
<text text-anchor="middle" x="176.5737" y="-81.5" font-family="Helvetica,sans-Serif" font-size="10.00" fill="#000000">TrackType</text>
</g>
<!-- Node2&#45;&gt;Node0 -->
<g id="edge2" class="edge">
<title>Node2&#45;&gt;Node0</title>
<path fill="none" stroke="#9a32cd" stroke-dasharray="5,2" d="M162.7262,-67.4942C153.0613,-55.6251 140.3084,-39.9637 131.1772,-28.7499"/>
<polygon fill="#9a32cd" stroke="#9a32cd" points="160.0936,-69.8043 169.122,-75.3487 165.5217,-65.3843 160.0936,-69.8043"/>
<text text-anchor="middle" x="175.6401" y="-49" font-family="Helvetica,sans-Serif" font-size="10.00" fill="#000000"> trackType</text>
</g>
</g>
</svg>
