<?xml version="1.0" encoding="UTF-8" standalone="no"?>
<!DOCTYPE svg PUBLIC "-//W3C//DTD SVG 1.1//EN"
 "http://www.w3.org/Graphics/SVG/1.1/DTD/svg11.dtd">
<!-- Generated by graphviz version 2.40.1 (20161225.0304)
 -->
<!-- Title: NoLimits::NoLimits2::FileScript Pages: 1 -->
<svg width="256pt" height="102pt"
 viewBox="0.00 0.00 256.48 102.00" xmlns="http://www.w3.org/2000/svg" xmlns:xlink="http://www.w3.org/1999/xlink">
<g id="graph0" class="graph" transform="scale(1 1) rotate(0) translate(4 98)">
<title>NoLimits::NoLimits2::FileScript</title>
<!-- Node0 -->
<g id="node1" class="node">
<title>Node0</title>
<polygon fill="#bfbfbf" stroke="#000000" points="77.1182,-.5 77.1182,-28.5 182.0293,-28.5 182.0293,-.5 77.1182,-.5"/>
<text text-anchor="start" x="85.1182" y="-16.5" font-family="Helvetica,sans-Serif" font-size="10.00" fill="#000000">NoLimits::NoLimits2</text>
<text text-anchor="middle" x="129.5737" y="-6.5" font-family="Helvetica,sans-Serif" font-size="10.00" fill="#000000">::FileScript</text>
</g>
<!-- Node1 -->
<g id="node2" class="node">
<title>Node1</title>
<g id="a_node2"><a xlink:href="class_no_limits_1_1_stream_1_1_chunk.html" target="_top" xlink:title="NoLimits::Stream::Chunk">
<polygon fill="none" stroke="#000000" points="0,-75.5 0,-93.5 127.1475,-93.5 127.1475,-75.5 0,-75.5"/>
<text text-anchor="middle" x="63.5737" y="-81.5" font-family="Helvetica,sans-Serif" font-size="10.00" fill="#000000">NoLimits::Stream::Chunk</text>
</a>
</g>
</g>
<!-- Node1&#45;&gt;Node0 -->
<g id="edge1" class="edge">
<title>Node1&#45;&gt;Node0</title>
<path fill="none" stroke="#191970" d="M79.2828,-67.8388C90.5115,-55.9296 105.4625,-40.0726 116.1381,-28.7499"/>
<polygon fill="#191970" stroke="#191970" points="76.5157,-65.6717 72.2021,-75.3487 81.6088,-70.4739 76.5157,-65.6717"/>
</g>
<!-- Node2 -->
<g id="node3" class="node">
<title>Node2</title>
<polygon fill="none" stroke="#bfbfbf" points="144.665,-75.5 144.665,-93.5 248.4824,-93.5 248.4824,-75.5 144.665,-75.5"/>
<text text-anchor="middle" x="196.5737" y="-81.5" font-family="Helvetica,sans-Serif" font-size="10.00" fill="#000000">vector&lt; std::string &gt;</text>
</g>
<!-- Node2&#45;&gt;Node0 -->
<g id="edge2" class="edge">
<title>Node2&#45;&gt;Node0</title>
<path fill="none" stroke="#9a32cd" stroke-dasharray="5,2" d="M180.6266,-67.8388C169.2278,-55.9296 154.0503,-40.0726 143.2129,-28.7499"/>
<polygon fill="#9a32cd" stroke="#9a32cd" points="178.3716,-70.5446 187.8147,-75.3487 183.4285,-65.7044 178.3716,-70.5446"/>
<text text-anchor="middle" x="179.6943" y="-49" font-family="Helvetica,sans-Serif" font-size="10.00" fill="#000000"> path</text>
</g>
</g>
</svg>
