<?xml version="1.0" encoding="UTF-8" standalone="no"?>
<!DOCTYPE svg PUBLIC "-//W3C//DTD SVG 1.1//EN"
 "http://www.w3.org/Graphics/SVG/1.1/DTD/svg11.dtd">
<!-- Generated by graphviz version 2.40.1 (20161225.0304)
 -->
<!-- Title: NoLimits::NoLimits2::BumpMap Pages: 1 -->
<svg width="508pt" height="112pt"
 viewBox="0.00 0.00 507.62 112.00" xmlns="http://www.w3.org/2000/svg" xmlns:xlink="http://www.w3.org/1999/xlink">
<g id="graph0" class="graph" transform="scale(1 1) rotate(0) translate(4 108)">
<title>NoLimits::NoLimits2::BumpMap</title>
<!-- Node0 -->
<g id="node1" class="node">
<title>Node0</title>
<polygon fill="#bfbfbf" stroke="#000000" points="193.1182,-.5 193.1182,-28.5 298.0293,-28.5 298.0293,-.5 193.1182,-.5"/>
<text text-anchor="start" x="201.1182" y="-16.5" font-family="Helvetica,sans-Serif" font-size="10.00" fill="#000000">NoLimits::NoLimits2</text>
<text text-anchor="middle" x="245.5737" y="-6.5" font-family="Helvetica,sans-Serif" font-size="10.00" fill="#000000">::BumpMap</text>
</g>
<!-- Node1 -->
<g id="node2" class="node">
<title>Node1</title>
<g id="a_node2"><a xlink:href="class_no_limits_1_1_stream_1_1_chunk.html" target="_top" xlink:title="NoLimits::Stream::Chunk">
<polygon fill="none" stroke="#000000" points="0,-85.5 0,-103.5 127.1475,-103.5 127.1475,-85.5 0,-85.5"/>
<text text-anchor="middle" x="63.5737" y="-91.5" font-family="Helvetica,sans-Serif" font-size="10.00" fill="#000000">NoLimits::Stream::Chunk</text>
</a>
</g>
</g>
<!-- Node1&#45;&gt;Node0 -->
<g id="edge1" class="edge">
<title>Node1&#45;&gt;Node0</title>
<path fill="none" stroke="#191970" d="M93.2576,-81.4521C126.3089,-66.9241 179.5384,-43.5265 213.5192,-28.5899"/>
<polygon fill="#191970" stroke="#191970" points="91.8439,-78.2503 84.0977,-85.4785 94.6607,-84.6585 91.8439,-78.2503"/>
</g>
<!-- Node2 -->
<g id="node3" class="node">
<title>Node2</title>
<polygon fill="none" stroke="#bfbfbf" points="145.564,-85.5 145.564,-103.5 211.5835,-103.5 211.5835,-85.5 145.564,-85.5"/>
<text text-anchor="middle" x="178.5737" y="-91.5" font-family="Helvetica,sans-Serif" font-size="10.00" fill="#000000">TerrainMap</text>
</g>
<!-- Node2&#45;&gt;Node0 -->
<g id="edge2" class="edge">
<title>Node2&#45;&gt;Node0</title>
<path fill="none" stroke="#9a32cd" stroke-dasharray="5,2" d="M183.3944,-75.3965C186.4064,-66.1337 191.0033,-55.2556 197.6577,-47 203.4612,-39.8001 211.2818,-33.5777 218.9201,-28.5602"/>
<polygon fill="#9a32cd" stroke="#9a32cd" points="179.954,-74.6968 180.5585,-85.2743 186.6822,-76.6285 179.954,-74.6968"/>
<text text-anchor="middle" x="219.5317" y="-54" font-family="Helvetica,sans-Serif" font-size="10.00" fill="#000000"> mapType</text>
</g>
<!-- Node3 -->
<g id="node4" class="node">
<title>Node3</title>
<polygon fill="none" stroke="#bfbfbf" points="229.123,-85.5 229.123,-103.5 264.0244,-103.5 264.0244,-85.5 229.123,-85.5"/>
<text text-anchor="middle" x="246.5737" y="-91.5" font-family="Helvetica,sans-Serif" font-size="10.00" fill="#000000">float</text>
</g>
<!-- Node3&#45;&gt;Node0 -->
<g id="edge3" class="edge">
<title>Node3&#45;&gt;Node0</title>
<path fill="none" stroke="#9a32cd" stroke-dasharray="5,2" d="M246.2094,-75.2679C246.1627,-72.4937 246.1184,-69.6738 246.0815,-67 245.9031,-54.0579 245.7664,-39.3203 245.68,-28.7612"/>
<polygon fill="#9a32cd" stroke="#9a32cd" points="242.7111,-75.3984 246.3908,-85.3336 249.7099,-75.2721 242.7111,-75.3984"/>
<text text-anchor="middle" x="282.8198" y="-54" font-family="Helvetica,sans-Serif" font-size="10.00" fill="#000000"> heightMapScale</text>
</g>
<!-- Node4 -->
<g id="node5" class="node">
<title>Node4</title>
<polygon fill="none" stroke="#bfbfbf" points="316.7808,-85.5 316.7808,-103.5 368.3667,-103.5 368.3667,-85.5 316.7808,-85.5"/>
<text text-anchor="middle" x="342.5737" y="-91.5" font-family="Helvetica,sans-Serif" font-size="10.00" fill="#000000">uint32_t</text>
</g>
<!-- Node4&#45;&gt;Node0 -->
<g id="edge4" class="edge">
<title>Node4&#45;&gt;Node0</title>
<path fill="none" stroke="#9a32cd" stroke-dasharray="5,2" d="M337.3299,-75.4597C333.8845,-65.9042 328.5146,-54.746 320.5737,-47 312.6503,-39.271 302.5927,-33.2347 292.4369,-28.5772"/>
<polygon fill="#9a32cd" stroke="#9a32cd" points="334.0882,-76.8174 340.4365,-85.2997 340.7634,-74.7099 334.0882,-76.8174"/>
<text text-anchor="middle" x="361.3716" y="-54" font-family="Helvetica,sans-Serif" font-size="10.00" fill="#000000"> repeatIndex</text>
</g>
<!-- Node5 -->
<g id="node6" class="node">
<title>Node5</title>
<polygon fill="none" stroke="#bfbfbf" points="401.3472,-85.5 401.3472,-103.5 441.8003,-103.5 441.8003,-85.5 401.3472,-85.5"/>
<text text-anchor="middle" x="421.5737" y="-91.5" font-family="Helvetica,sans-Serif" font-size="10.00" fill="#000000">string</text>
</g>
<!-- Node5&#45;&gt;Node0 -->
<g id="edge5" class="edge">
<title>Node5&#45;&gt;Node0</title>
<path fill="none" stroke="#9a32cd" stroke-dasharray="5,2" d="M414.8195,-75.7101C410.2944,-65.7274 403.3533,-54.0879 393.5737,-47 378.3971,-36.0005 334.2587,-27.1764 298.1036,-21.5141"/>
<polygon fill="#9a32cd" stroke="#9a32cd" points="411.6847,-77.2944 418.6782,-85.2532 418.1743,-74.6704 411.6847,-77.2944"/>
<text text-anchor="middle" x="454.5957" y="-59" font-family="Helvetica,sans-Serif" font-size="10.00" fill="#000000"> texture</text>
<text text-anchor="middle" x="454.5957" y="-49" font-family="Helvetica,sans-Serif" font-size="10.00" fill="#000000">specularMapTexture</text>
</g>
</g>
</svg>
