<?xml version="1.0" encoding="UTF-8" standalone="no"?>
<!DOCTYPE svg PUBLIC "-//W3C//DTD SVG 1.1//EN"
 "http://www.w3.org/Graphics/SVG/1.1/DTD/svg11.dtd">
<!-- Generated by graphviz version 2.40.1 (20161225.0304)
 -->
<!-- Title: NoLimits::NoLimits2::SwitchTrack Pages: 1 -->
<svg width="591pt" height="306pt"
 viewBox="0.00 0.00 590.85 306.00" xmlns="http://www.w3.org/2000/svg" xmlns:xlink="http://www.w3.org/1999/xlink">
<g id="graph0" class="graph" transform="scale(1 1) rotate(0) translate(4 302)">
<title>NoLimits::NoLimits2::SwitchTrack</title>
<!-- Node0 -->
<g id="node1" class="node">
<title>Node0</title>
<polygon fill="#bfbfbf" stroke="#000000" points="477.9355,-69.5 477.9355,-97.5 582.8467,-97.5 582.8467,-69.5 477.9355,-69.5"/>
<text text-anchor="start" x="485.9355" y="-85.5" font-family="Helvetica,sans-Serif" font-size="10.00" fill="#000000">NoLimits::NoLimits2</text>
<text text-anchor="middle" x="530.3911" y="-75.5" font-family="Helvetica,sans-Serif" font-size="10.00" fill="#000000">::SwitchTrack</text>
</g>
<!-- Node1 -->
<g id="node2" class="node">
<title>Node1</title>
<g id="a_node2"><a xlink:href="class_no_limits_1_1_no_limits2_1_1_special_track.html" target="_top" xlink:title="NoLimits::NoLimits2\l::SpecialTrack">
<polygon fill="none" stroke="#000000" points="262.5469,-148.5 262.5469,-176.5 367.458,-176.5 367.458,-148.5 262.5469,-148.5"/>
<text text-anchor="start" x="270.5469" y="-164.5" font-family="Helvetica,sans-Serif" font-size="10.00" fill="#000000">NoLimits::NoLimits2</text>
<text text-anchor="middle" x="315.0024" y="-154.5" font-family="Helvetica,sans-Serif" font-size="10.00" fill="#000000">::SpecialTrack</text>
</a>
</g>
</g>
<!-- Node1&#45;&gt;Node0 -->
<g id="edge1" class="edge">
<title>Node1&#45;&gt;Node0</title>
<path fill="none" stroke="#191970" d="M377.3799,-148.7246C403.3703,-142.1072 433.5762,-133.2558 459.9355,-122.5 476.7636,-115.6334 494.6693,-105.6836 508.2186,-97.5528"/>
<polygon fill="#191970" stroke="#191970" points="376.4992,-145.3369 367.642,-151.1507 378.1915,-152.1293 376.4992,-145.3369"/>
</g>
<!-- Node2 -->
<g id="node3" class="node">
<title>Node2</title>
<g id="a_node3"><a xlink:href="class_no_limits_1_1_no_limits2_1_1_track.html" target="_top" xlink:title="NoLimits::NoLimits2\l::Track">
<polygon fill="none" stroke="#ff0000" points="17.9248,-269.5 17.9248,-297.5 122.8359,-297.5 122.8359,-269.5 17.9248,-269.5"/>
<text text-anchor="start" x="25.9248" y="-285.5" font-family="Helvetica,sans-Serif" font-size="10.00" fill="#000000">NoLimits::NoLimits2</text>
<text text-anchor="middle" x="70.3804" y="-275.5" font-family="Helvetica,sans-Serif" font-size="10.00" fill="#000000">::Track</text>
</a>
</g>
</g>
<!-- Node2&#45;&gt;Node1 -->
<g id="edge2" class="edge">
<title>Node2&#45;&gt;Node1</title>
<path fill="none" stroke="#191970" d="M133.2539,-280.1382C168.1015,-275.9136 211.0263,-266.6433 244.5469,-246.5 273.4242,-229.147 296.0503,-195.6344 307.2649,-176.6033"/>
<polygon fill="#191970" stroke="#191970" points="132.7436,-276.6731 123.1871,-281.2473 133.5103,-283.631 132.7436,-276.6731"/>
</g>
<!-- Node5 -->
<g id="node4" class="node">
<title>Node5</title>
<polygon fill="none" stroke="#bfbfbf" points="52.9297,-232.5 52.9297,-250.5 87.8311,-250.5 87.8311,-232.5 52.9297,-232.5"/>
<text text-anchor="middle" x="70.3804" y="-238.5" font-family="Helvetica,sans-Serif" font-size="10.00" fill="#000000">float</text>
</g>
<!-- Node5&#45;&gt;Node1 -->
<g id="edge3" class="edge">
<title>Node5&#45;&gt;Node1</title>
<path fill="none" stroke="#9a32cd" stroke-dasharray="5,2" d="M97.8598,-240.1664C133.0371,-237.671 195.319,-230.5686 244.5469,-210.5 264.8312,-202.2307 285.2101,-187.4798 298.7945,-176.5055"/>
<polygon fill="#9a32cd" stroke="#9a32cd" points="97.6152,-236.6748 87.8574,-240.8022 98.0593,-243.6607 97.6152,-236.6748"/>
<text text-anchor="middle" x="201.6538" y="-234.5" font-family="Helvetica,sans-Serif" font-size="10.00" fill="#000000"> switchTime</text>
</g>
<!-- Node6 -->
<g id="node5" class="node">
<title>Node6</title>
<polygon fill="none" stroke="#bfbfbf" points="22.8223,-195.5 22.8223,-213.5 117.9385,-213.5 117.9385,-195.5 22.8223,-195.5"/>
<text text-anchor="middle" x="70.3804" y="-201.5" font-family="Helvetica,sans-Serif" font-size="10.00" fill="#000000">SpecialTrackType</text>
</g>
<!-- Node6&#45;&gt;Node1 -->
<g id="edge4" class="edge">
<title>Node6&#45;&gt;Node1</title>
<path fill="none" stroke="#9a32cd" stroke-dasharray="5,2" d="M128.2899,-199.9997C162.3684,-196.7359 206.1729,-191.4722 244.5469,-183.5 253.5446,-181.6307 263.0542,-179.1518 272.0761,-176.554"/>
<polygon fill="#9a32cd" stroke="#9a32cd" points="127.6772,-196.5414 118.0428,-200.9491 128.3231,-203.5115 127.6772,-196.5414"/>
<text text-anchor="middle" x="201.6538" y="-198.5" font-family="Helvetica,sans-Serif" font-size="10.00" fill="#000000"> _specialTrackType</text>
</g>
<!-- Node7 -->
<g id="node6" class="node">
<title>Node7</title>
<polygon fill="none" stroke="#bfbfbf" points="22.3535,-157.5 22.3535,-175.5 118.4072,-175.5 118.4072,-157.5 22.3535,-157.5"/>
<text text-anchor="middle" x="70.3804" y="-163.5" font-family="Helvetica,sans-Serif" font-size="10.00" fill="#000000">vector&lt; uint32_t &gt;</text>
</g>
<!-- Node7&#45;&gt;Node1 -->
<g id="edge5" class="edge">
<title>Node7&#45;&gt;Node1</title>
<path fill="none" stroke="#9a32cd" stroke-dasharray="5,2" d="M128.8079,-164.2895C138.7994,-163.9765 149.0773,-163.6953 158.7607,-163.5 193.2036,-162.8053 231.9251,-162.5538 262.2035,-162.4767"/>
<polygon fill="#9a32cd" stroke="#9a32cd" points="128.4169,-160.8003 118.5364,-164.6248 128.6454,-167.7965 128.4169,-160.8003"/>
<text text-anchor="middle" x="201.6538" y="-175.5" font-family="Helvetica,sans-Serif" font-size="10.00" fill="#000000"> output</text>
<text text-anchor="middle" x="201.6538" y="-165.5" font-family="Helvetica,sans-Serif" font-size="10.00" fill="#000000">input</text>
</g>
<!-- Node8 -->
<g id="node7" class="node">
<title>Node8</title>
<polygon fill="none" stroke="#bfbfbf" points="50.1538,-120.5 50.1538,-138.5 90.6069,-138.5 90.6069,-120.5 50.1538,-120.5"/>
<text text-anchor="middle" x="70.3804" y="-126.5" font-family="Helvetica,sans-Serif" font-size="10.00" fill="#000000">string</text>
</g>
<!-- Node8&#45;&gt;Node1 -->
<g id="edge6" class="edge">
<title>Node8&#45;&gt;Node1</title>
<path fill="none" stroke="#9a32cd" stroke-dasharray="5,2" d="M100.8473,-132.0101C135.6965,-135.0697 194.4151,-140.7999 244.5469,-148.5 250.3403,-149.3899 256.3813,-150.4249 262.3836,-151.5217"/>
<polygon fill="#9a32cd" stroke="#9a32cd" points="101.0979,-128.5188 90.8342,-131.1471 100.4967,-135.4929 101.0979,-128.5188"/>
<text text-anchor="middle" x="201.6538" y="-150.5" font-family="Helvetica,sans-Serif" font-size="10.00" fill="#000000"> name</text>
</g>
<!-- Node9 -->
<g id="node8" class="node">
<title>Node9</title>
<polygon fill="none" stroke="#bfbfbf" points="0,-73.5 0,-101.5 140.7607,-101.5 140.7607,-73.5 0,-73.5"/>
<text text-anchor="start" x="8" y="-89.5" font-family="Helvetica,sans-Serif" font-size="10.00" fill="#000000">vector&lt; NoLimits::NoLimits2</text>
<text text-anchor="middle" x="70.3804" y="-79.5" font-family="Helvetica,sans-Serif" font-size="10.00" fill="#000000">::Segment * &gt;</text>
</g>
<!-- Node9&#45;&gt;Node1 -->
<g id="edge7" class="edge">
<title>Node9&#45;&gt;Node1</title>
<path fill="none" stroke="#9a32cd" stroke-dasharray="5,2" d="M151.1249,-95.2342C181.5795,-100.4148 215.788,-109.0634 244.5469,-123.5 254.1129,-128.302 253.5351,-133.7246 262.5469,-139.5 267.6538,-142.7729 273.3053,-145.792 278.9519,-148.4923"/>
<polygon fill="#9a32cd" stroke="#9a32cd" points="151.3814,-91.7308 140.954,-93.6069 150.2754,-98.6429 151.3814,-91.7308"/>
<text text-anchor="middle" x="201.6538" y="-125.5" font-family="Helvetica,sans-Serif" font-size="10.00" fill="#000000"> segment</text>
</g>
<!-- Node10 -->
<g id="node9" class="node">
<title>Node10</title>
<polygon fill="none" stroke="#bfbfbf" points="51.8188,-36.5 51.8188,-54.5 88.9419,-54.5 88.9419,-36.5 51.8188,-36.5"/>
<text text-anchor="middle" x="70.3804" y="-42.5" font-family="Helvetica,sans-Serif" font-size="10.00" fill="#000000">vec3</text>
</g>
<!-- Node10&#45;&gt;Node1 -->
<g id="edge8" class="edge">
<title>Node10&#45;&gt;Node1</title>
<path fill="none" stroke="#9a32cd" stroke-dasharray="5,2" d="M99.0578,-41.2253C137.2016,-37.2655 204.465,-36.5528 244.5469,-72.5 267.5014,-93.0866 242.448,-116.1173 262.5469,-139.5 265.5285,-142.9688 269.1323,-145.9336 273.0384,-148.4636"/>
<polygon fill="#9a32cd" stroke="#9a32cd" points="98.6381,-37.7505 89.1182,-42.4006 99.4601,-44.7021 98.6381,-37.7505"/>
<text text-anchor="middle" x="201.6538" y="-84.5" font-family="Helvetica,sans-Serif" font-size="10.00" fill="#000000"> rotation</text>
<text text-anchor="middle" x="201.6538" y="-74.5" font-family="Helvetica,sans-Serif" font-size="10.00" fill="#000000">position</text>
</g>
<!-- Node11 -->
<g id="node10" class="node">
<title>Node11</title>
<polygon fill="none" stroke="#bfbfbf" points="287.2734,-111.5 287.2734,-129.5 342.7314,-129.5 342.7314,-111.5 287.2734,-111.5"/>
<text text-anchor="middle" x="315.0024" y="-117.5" font-family="Helvetica,sans-Serif" font-size="10.00" fill="#000000">Direction</text>
</g>
<!-- Node11&#45;&gt;Node0 -->
<g id="edge9" class="edge">
<title>Node11&#45;&gt;Node0</title>
<path fill="none" stroke="#9a32cd" stroke-dasharray="5,2" d="M353.043,-114.8754C382.3157,-110.4475 423.75,-103.9639 459.9355,-97.5 465.7056,-96.4693 471.7318,-95.3452 477.7255,-94.1966"/>
<polygon fill="#9a32cd" stroke="#9a32cd" points="352.2091,-111.4614 342.8409,-116.4098 353.2503,-118.3835 352.2091,-111.4614"/>
<text text-anchor="middle" x="422.6968" y="-110.5" font-family="Helvetica,sans-Serif" font-size="10.00" fill="#000000"> direction</text>
</g>
<!-- Node12 -->
<g id="node11" class="node">
<title>Node12</title>
<polygon fill="none" stroke="#bfbfbf" points="289.2095,-74.5 289.2095,-92.5 340.7954,-92.5 340.7954,-74.5 289.2095,-74.5"/>
<text text-anchor="middle" x="315.0024" y="-80.5" font-family="Helvetica,sans-Serif" font-size="10.00" fill="#000000">uint32_t</text>
</g>
<!-- Node12&#45;&gt;Node0 -->
<g id="edge10" class="edge">
<title>Node12&#45;&gt;Node0</title>
<path fill="none" stroke="#9a32cd" stroke-dasharray="5,2" d="M351.1027,-83.5C385.6836,-83.5 438.2686,-83.5 477.56,-83.5"/>
<polygon fill="#9a32cd" stroke="#9a32cd" points="350.9834,-80.0001 340.9833,-83.5 350.9833,-87.0001 350.9834,-80.0001"/>
<text text-anchor="middle" x="422.6968" y="-85.5" font-family="Helvetica,sans-Serif" font-size="10.00" fill="#000000"> defaultTrack</text>
</g>
<!-- Node13 -->
<g id="node12" class="node">
<title>Node13</title>
<polygon fill="none" stroke="#bfbfbf" points="295.8867,-37.5 295.8867,-55.5 334.1182,-55.5 334.1182,-37.5 295.8867,-37.5"/>
<text text-anchor="middle" x="315.0024" y="-43.5" font-family="Helvetica,sans-Serif" font-size="10.00" fill="#000000">Style</text>
</g>
<!-- Node13&#45;&gt;Node0 -->
<g id="edge11" class="edge">
<title>Node13&#45;&gt;Node0</title>
<path fill="none" stroke="#9a32cd" stroke-dasharray="5,2" d="M344.2495,-50.801C373.5618,-55.1915 419.9527,-62.3578 459.9355,-69.5 465.7056,-70.5307 471.7318,-71.6548 477.7255,-72.8034"/>
<polygon fill="#9a32cd" stroke="#9a32cd" points="344.673,-47.3255 334.2665,-49.3142 343.6417,-54.2492 344.673,-47.3255"/>
<text text-anchor="middle" x="422.6968" y="-71.5" font-family="Helvetica,sans-Serif" font-size="10.00" fill="#000000"> style</text>
</g>
<!-- Node14 -->
<g id="node13" class="node">
<title>Node14</title>
<polygon fill="none" stroke="#bfbfbf" points="270.3228,-.5 270.3228,-18.5 359.6821,-18.5 359.6821,-.5 270.3228,-.5"/>
<text text-anchor="middle" x="315.0024" y="-6.5" font-family="Helvetica,sans-Serif" font-size="10.00" fill="#000000">DisplayStructure</text>
</g>
<!-- Node14&#45;&gt;Node0 -->
<g id="edge12" class="edge">
<title>Node14&#45;&gt;Node0</title>
<path fill="none" stroke="#9a32cd" stroke-dasharray="5,2" d="M369.6425,-18.4809C397.2765,-23.9771 431.002,-32.1648 459.9355,-43.5 477.3539,-50.324 495.6904,-60.8539 509.2895,-69.3972"/>
<polygon fill="#9a32cd" stroke="#9a32cd" points="370.2389,-15.0315 359.7574,-16.5769 368.9149,-21.9052 370.2389,-15.0315"/>
<text text-anchor="middle" x="422.6968" y="-45.5" font-family="Helvetica,sans-Serif" font-size="10.00" fill="#000000"> displayStructure</text>
</g>
</g>
</svg>
