<?xml version="1.0" encoding="UTF-8" standalone="no"?>
<!DOCTYPE svg PUBLIC "-//W3C//DTD SVG 1.1//EN"
 "http://www.w3.org/Graphics/SVG/1.1/DTD/svg11.dtd">
<!-- Generated by graphviz version 2.40.1 (20161225.0304)
 -->
<!-- Title: NoLimits::NoLimits2::Car Pages: 1 -->
<svg width="451pt" height="207pt"
 viewBox="0.00 0.00 450.59 207.00" xmlns="http://www.w3.org/2000/svg" xmlns:xlink="http://www.w3.org/1999/xlink">
<g id="graph0" class="graph" transform="scale(1 1) rotate(0) translate(4 203)">
<title>NoLimits::NoLimits2::Car</title>
<!-- Node0 -->
<g id="node1" class="node">
<title>Node0</title>
<polygon fill="#bfbfbf" stroke="#000000" points="35.2832,-.5 35.2832,-18.5 161.8643,-18.5 161.8643,-.5 35.2832,-.5"/>
<text text-anchor="middle" x="98.5737" y="-6.5" font-family="Helvetica,sans-Serif" font-size="10.00" fill="#000000">NoLimits::NoLimits2::Car</text>
</g>
<!-- Node1 -->
<g id="node2" class="node">
<title>Node1</title>
<g id="a_node2"><a xlink:href="class_no_limits_1_1_stream_1_1_chunk.html" target="_top" xlink:title="NoLimits::Stream::Chunk">
<polygon fill="none" stroke="#000000" points="0,-180.5 0,-198.5 127.1475,-198.5 127.1475,-180.5 0,-180.5"/>
<text text-anchor="middle" x="63.5737" y="-186.5" font-family="Helvetica,sans-Serif" font-size="10.00" fill="#000000">NoLimits::Stream::Chunk</text>
</a>
</g>
</g>
<!-- Node1&#45;&gt;Node0 -->
<g id="edge1" class="edge">
<title>Node1&#45;&gt;Node0</title>
<path fill="none" stroke="#191970" d="M67.2764,-170.4579C74.7184,-132.1848 91.2481,-47.1747 96.7516,-18.8711"/>
<polygon fill="#191970" stroke="#191970" points="63.8306,-169.8421 65.3575,-180.3263 70.7019,-171.1782 63.8306,-169.8421"/>
</g>
<!-- Node2 -->
<g id="node3" class="node">
<title>Node2</title>
<g id="a_node3"><a xlink:href="class_no_limits_1_1_no_limits2_1_1_individual_color.html" target="_top" xlink:title="NoLimits::NoLimits2\l::IndividualColor">
<polygon fill="none" stroke="#000000" points="144.1182,-65.5 144.1182,-93.5 249.0293,-93.5 249.0293,-65.5 144.1182,-65.5"/>
<text text-anchor="start" x="152.1182" y="-81.5" font-family="Helvetica,sans-Serif" font-size="10.00" fill="#000000">NoLimits::NoLimits2</text>
<text text-anchor="middle" x="196.5737" y="-71.5" font-family="Helvetica,sans-Serif" font-size="10.00" fill="#000000">::IndividualColor</text>
</a>
</g>
</g>
<!-- Node1&#45;&gt;Node2 -->
<g id="edge3" class="edge">
<title>Node1&#45;&gt;Node2</title>
<path fill="none" stroke="#191970" d="M82.3867,-173.9404C108.2363,-152.561 154.3675,-114.4074 179.3524,-93.7432"/>
<polygon fill="#191970" stroke="#191970" points="79.9329,-171.4278 74.4577,-180.4982 84.3943,-176.822 79.9329,-171.4278"/>
</g>
<!-- Node2&#45;&gt;Node0 -->
<g id="edge2" class="edge">
<title>Node2&#45;&gt;Node0</title>
<path fill="none" stroke="#9a32cd" stroke-dasharray="5,2" d="M168.4784,-59.4319C149.5978,-45.9457 125.6208,-28.8193 111.2193,-18.5325"/>
<polygon fill="#9a32cd" stroke="#9a32cd" points="166.5703,-62.3701 176.742,-65.3345 170.639,-56.674 166.5703,-62.3701"/>
<text text-anchor="middle" x="183.7583" y="-39" font-family="Helvetica,sans-Serif" font-size="10.00" fill="#000000"> individualColor</text>
</g>
<!-- Node3 -->
<g id="node4" class="node">
<title>Node3</title>
<polygon fill="none" stroke="#bfbfbf" points="144.665,-180.5 144.665,-198.5 248.4824,-198.5 248.4824,-180.5 144.665,-180.5"/>
<text text-anchor="middle" x="196.5737" y="-186.5" font-family="Helvetica,sans-Serif" font-size="10.00" fill="#000000">vector&lt; std::string &gt;</text>
</g>
<!-- Node3&#45;&gt;Node2 -->
<g id="edge4" class="edge">
<title>Node3&#45;&gt;Node2</title>
<path fill="none" stroke="#9a32cd" stroke-dasharray="5,2" d="M196.5737,-170.4619C196.5737,-148.6274 196.5737,-113.3293 196.5737,-93.7432"/>
<polygon fill="#9a32cd" stroke="#9a32cd" points="193.0738,-170.4982 196.5737,-180.4982 200.0738,-170.4983 193.0738,-170.4982"/>
<text text-anchor="middle" x="221.3052" y="-134" font-family="Helvetica,sans-Serif" font-size="10.00" fill="#000000"> carTexture</text>
</g>
<!-- Node4 -->
<g id="node5" class="node">
<title>Node4</title>
<polygon fill="none" stroke="#bfbfbf" points="266.1206,-180.5 266.1206,-198.5 301.0269,-198.5 301.0269,-180.5 266.1206,-180.5"/>
<text text-anchor="middle" x="283.5737" y="-186.5" font-family="Helvetica,sans-Serif" font-size="10.00" fill="#000000">bool</text>
</g>
<!-- Node4&#45;&gt;Node2 -->
<g id="edge5" class="edge">
<title>Node4&#45;&gt;Node2</title>
<path fill="none" stroke="#9a32cd" stroke-dasharray="5,2" d="M278.7855,-170.5885C273.7534,-153.7057 264.4648,-129.0788 249.5737,-112 243.1897,-104.6781 234.7439,-98.4875 226.4749,-93.5377"/>
<polygon fill="#9a32cd" stroke="#9a32cd" points="275.4608,-171.6981 281.4938,-180.4075 282.2088,-169.8368 275.4608,-171.6981"/>
<text text-anchor="middle" x="318.0981" y="-134" font-family="Helvetica,sans-Serif" font-size="10.00" fill="#000000"> hasIndividualColor</text>
</g>
<!-- Node5 -->
<g id="node6" class="node">
<title>Node5</title>
<polygon fill="none" stroke="#bfbfbf" points="365.0122,-180.5 365.0122,-198.5 402.1353,-198.5 402.1353,-180.5 365.0122,-180.5"/>
<text text-anchor="middle" x="383.5737" y="-186.5" font-family="Helvetica,sans-Serif" font-size="10.00" fill="#000000">vec3</text>
</g>
<!-- Node5&#45;&gt;Node2 -->
<g id="edge6" class="edge">
<title>Node5&#45;&gt;Node2</title>
<path fill="none" stroke="#9a32cd" stroke-dasharray="5,2" d="M383.4856,-170.2331C382.3169,-152.5243 377.6842,-126.839 361.5737,-112 345.4139,-97.1155 291.228,-88.4994 249.3114,-83.9258"/>
<polygon fill="#9a32cd" stroke="#9a32cd" points="379.99,-170.4213 383.8384,-180.2924 386.9857,-170.1759 379.99,-170.4213"/>
<text text-anchor="middle" x="412.5835" y="-154" font-family="Helvetica,sans-Serif" font-size="10.00" fill="#000000"> chassisColor</text>
<text text-anchor="middle" x="412.5835" y="-144" font-family="Helvetica,sans-Serif" font-size="10.00" fill="#000000">bogieColor</text>
<text text-anchor="middle" x="412.5835" y="-134" font-family="Helvetica,sans-Serif" font-size="10.00" fill="#000000">harnessColor</text>
<text text-anchor="middle" x="412.5835" y="-124" font-family="Helvetica,sans-Serif" font-size="10.00" fill="#000000">seatColor</text>
<text text-anchor="middle" x="412.5835" y="-114" font-family="Helvetica,sans-Serif" font-size="10.00" fill="#000000">carColor</text>
</g>
</g>
</svg>
