<?xml version="1.0" encoding="UTF-8" standalone="no"?>
<!DOCTYPE svg PUBLIC "-//W3C//DTD SVG 1.1//EN"
 "http://www.w3.org/Graphics/SVG/1.1/DTD/svg11.dtd">
<!-- Generated by graphviz version 2.40.1 (20161225.0304)
 -->
<!-- Title: NoLimits::NoLimits1::Info Pages: 1 -->
<svg width="204pt" height="102pt"
 viewBox="0.00 0.00 203.71 102.00" xmlns="http://www.w3.org/2000/svg" xmlns:xlink="http://www.w3.org/1999/xlink">
<g id="graph0" class="graph" transform="scale(1 1) rotate(0) translate(4 98)">
<title>NoLimits::NoLimits1::Info</title>
<!-- Node0 -->
<g id="node1" class="node">
<title>Node0</title>
<polygon fill="#bfbfbf" stroke="#000000" points="62.1182,-.5 62.1182,-28.5 167.0293,-28.5 167.0293,-.5 62.1182,-.5"/>
<text text-anchor="start" x="70.1182" y="-16.5" font-family="Helvetica,sans-Serif" font-size="10.00" fill="#000000">NoLimits::NoLimits1</text>
<text text-anchor="middle" x="114.5737" y="-6.5" font-family="Helvetica,sans-Serif" font-size="10.00" fill="#000000">::Info</text>
</g>
<!-- Node1 -->
<g id="node2" class="node">
<title>Node1</title>
<g id="a_node2"><a xlink:href="class_no_limits_1_1_stream_1_1_chunk.html" target="_top" xlink:title="NoLimits::Stream::Chunk">
<polygon fill="none" stroke="#000000" points="0,-75.5 0,-93.5 127.1475,-93.5 127.1475,-75.5 0,-75.5"/>
<text text-anchor="middle" x="63.5737" y="-81.5" font-family="Helvetica,sans-Serif" font-size="10.00" fill="#000000">NoLimits::Stream::Chunk</text>
</a>
</g>
</g>
<!-- Node1&#45;&gt;Node0 -->
<g id="edge1" class="edge">
<title>Node1&#45;&gt;Node0</title>
<path fill="none" stroke="#191970" d="M76.2163,-67.1475C84.8324,-55.3214 96.1009,-39.8548 104.1916,-28.7499"/>
<polygon fill="#191970" stroke="#191970" points="73.3009,-65.2053 70.2411,-75.3487 78.9585,-69.3274 73.3009,-65.2053"/>
</g>
<!-- Node2 -->
<g id="node3" class="node">
<title>Node2</title>
<polygon fill="none" stroke="#bfbfbf" points="145.3472,-75.5 145.3472,-93.5 185.8003,-93.5 185.8003,-75.5 145.3472,-75.5"/>
<text text-anchor="middle" x="165.5737" y="-81.5" font-family="Helvetica,sans-Serif" font-size="10.00" fill="#000000">string</text>
</g>
<!-- Node2&#45;&gt;Node0 -->
<g id="edge2" class="edge">
<title>Node2&#45;&gt;Node0</title>
<path fill="none" stroke="#9a32cd" stroke-dasharray="5,2" d="M152.9312,-67.1475C144.3151,-55.3214 133.0465,-39.8548 124.9558,-28.7499"/>
<polygon fill="#9a32cd" stroke="#9a32cd" points="150.1889,-69.3274 158.9064,-75.3487 155.8466,-65.2053 150.1889,-69.3274"/>
<text text-anchor="middle" x="170.1426" y="-49" font-family="Helvetica,sans-Serif" font-size="10.00" fill="#000000"> description</text>
</g>
</g>
</svg>
