<?xml version="1.0" encoding="UTF-8" standalone="no"?>
<!DOCTYPE svg PUBLIC "-//W3C//DTD SVG 1.1//EN"
 "http://www.w3.org/Graphics/SVG/1.1/DTD/svg11.dtd">
<!-- Generated by graphviz version 2.40.1 (20161225.0304)
 -->
<!-- Title: NoLimits::NoLimits2::Section Pages: 1 -->
<svg width="283pt" height="102pt"
 viewBox="0.00 0.00 283.09 102.00" xmlns="http://www.w3.org/2000/svg" xmlns:xlink="http://www.w3.org/1999/xlink">
<g id="graph0" class="graph" transform="scale(1 1) rotate(0) translate(4 98)">
<title>NoLimits::NoLimits2::Section</title>
<!-- Node0 -->
<g id="node1" class="node">
<title>Node0</title>
<polygon fill="#bfbfbf" stroke="#000000" points="113.1182,-.5 113.1182,-28.5 218.0293,-28.5 218.0293,-.5 113.1182,-.5"/>
<text text-anchor="start" x="121.1182" y="-16.5" font-family="Helvetica,sans-Serif" font-size="10.00" fill="#000000">NoLimits::NoLimits2</text>
<text text-anchor="middle" x="165.5737" y="-6.5" font-family="Helvetica,sans-Serif" font-size="10.00" fill="#000000">::Section</text>
</g>
<!-- Node0&#45;&gt;Node0 -->
<g id="edge2" class="edge">
<title>Node0&#45;&gt;Node0</title>
<path fill="none" stroke="#9a32cd" stroke-dasharray="5,2" d="M228.379,-19.5493C233.1165,-18.4243 236.0293,-16.7412 236.0293,-14.5 236.0293,-10.9141 228.5726,-8.7569 218.1158,-8.0285"/>
<polygon fill="#9a32cd" stroke="#9a32cd" points="227.5407,-16.1319 218.1158,-20.9715 228.5016,-23.0657 227.5407,-16.1319"/>
<text text-anchor="middle" x="253.2607" y="-11.5" font-family="Helvetica,sans-Serif" font-size="10.00" fill="#000000"> section</text>
</g>
<!-- Node1 -->
<g id="node2" class="node">
<title>Node1</title>
<g id="a_node2"><a xlink:href="class_no_limits_1_1_stream_1_1_chunk.html" target="_top" xlink:title="NoLimits::Stream::Chunk">
<polygon fill="none" stroke="#000000" points="0,-75.5 0,-93.5 127.1475,-93.5 127.1475,-75.5 0,-75.5"/>
<text text-anchor="middle" x="63.5737" y="-81.5" font-family="Helvetica,sans-Serif" font-size="10.00" fill="#000000">NoLimits::Stream::Chunk</text>
</a>
</g>
</g>
<!-- Node1&#45;&gt;Node0 -->
<g id="edge1" class="edge">
<title>Node1&#45;&gt;Node0</title>
<path fill="none" stroke="#191970" d="M85.3898,-69.5282C102.9678,-57.4648 127.5177,-40.6169 144.8096,-28.7499"/>
<polygon fill="#191970" stroke="#191970" points="83.1731,-66.8045 76.9084,-75.3487 87.1341,-72.5761 83.1731,-66.8045"/>
</g>
<!-- Node2 -->
<g id="node3" class="node">
<title>Node2</title>
<polygon fill="none" stroke="#bfbfbf" points="145.3472,-75.5 145.3472,-93.5 185.8003,-93.5 185.8003,-75.5 145.3472,-75.5"/>
<text text-anchor="middle" x="165.5737" y="-81.5" font-family="Helvetica,sans-Serif" font-size="10.00" fill="#000000">string</text>
</g>
<!-- Node2&#45;&gt;Node0 -->
<g id="edge3" class="edge">
<title>Node2&#45;&gt;Node0</title>
<path fill="none" stroke="#9a32cd" stroke-dasharray="5,2" d="M165.5737,-65.0243C165.5737,-53.5169 165.5737,-39.2016 165.5737,-28.7499"/>
<polygon fill="#9a32cd" stroke="#9a32cd" points="162.0738,-65.3487 165.5737,-75.3487 169.0738,-65.3488 162.0738,-65.3487"/>
<text text-anchor="middle" x="179.4702" y="-49" font-family="Helvetica,sans-Serif" font-size="10.00" fill="#000000"> name</text>
</g>
<!-- Node3 -->
<g id="node4" class="node">
<title>Node3</title>
<polygon fill="none" stroke="#bfbfbf" points="204.0542,-75.5 204.0542,-93.5 275.0933,-93.5 275.0933,-75.5 204.0542,-75.5"/>
<text text-anchor="middle" x="239.5737" y="-81.5" font-family="Helvetica,sans-Serif" font-size="10.00" fill="#000000">SectionType</text>
</g>
<!-- Node3&#45;&gt;Node0 -->
<g id="edge4" class="edge">
<title>Node3&#45;&gt;Node0</title>
<path fill="none" stroke="#9a32cd" stroke-dasharray="5,2" d="M222.3225,-68.1813C209.6936,-56.235 192.7227,-40.1814 180.6379,-28.7499"/>
<polygon fill="#9a32cd" stroke="#9a32cd" points="220.2296,-71.0193 229.8995,-75.3487 225.04,-65.934 220.2296,-71.0193"/>
<text text-anchor="middle" x="239.4282" y="-49" font-family="Helvetica,sans-Serif" font-size="10.00" fill="#000000"> _sectionType</text>
</g>
</g>
</svg>
