<?xml version="1.0" encoding="UTF-8" standalone="no"?>
<!DOCTYPE svg PUBLIC "-//W3C//DTD SVG 1.1//EN"
 "http://www.w3.org/Graphics/SVG/1.1/DTD/svg11.dtd">
<!-- Generated by graphviz version 2.40.1 (20161225.0304)
 -->
<!-- Title: NoLimits::NoLimits2::RailConnector Pages: 1 -->
<svg width="479pt" height="236pt"
 viewBox="0.00 0.00 478.98 236.00" xmlns="http://www.w3.org/2000/svg" xmlns:xlink="http://www.w3.org/1999/xlink">
<g id="graph0" class="graph" transform="scale(1 1) rotate(0) translate(4 232)">
<title>NoLimits::NoLimits2::RailConnector</title>
<!-- Node0 -->
<g id="node1" class="node">
<title>Node0</title>
<polygon fill="#bfbfbf" stroke="#000000" points="366.0654,-94.5 366.0654,-122.5 470.9766,-122.5 470.9766,-94.5 366.0654,-94.5"/>
<text text-anchor="start" x="374.0654" y="-110.5" font-family="Helvetica,sans-Serif" font-size="10.00" fill="#000000">NoLimits::NoLimits2</text>
<text text-anchor="middle" x="418.521" y="-100.5" font-family="Helvetica,sans-Serif" font-size="10.00" fill="#000000">::RailConnector</text>
</g>
<!-- Node1 -->
<g id="node2" class="node">
<title>Node1</title>
<g id="a_node2"><a xlink:href="class_no_limits_1_1_stream_1_1_chunk.html" target="_top" xlink:title="NoLimits::Stream::Chunk">
<polygon fill="none" stroke="#000000" points="113.2939,-209.5 113.2939,-227.5 240.4414,-227.5 240.4414,-209.5 113.2939,-209.5"/>
<text text-anchor="middle" x="176.8677" y="-215.5" font-family="Helvetica,sans-Serif" font-size="10.00" fill="#000000">NoLimits::Stream::Chunk</text>
</a>
</g>
</g>
<!-- Node1&#45;&gt;Node0 -->
<g id="edge1" class="edge">
<title>Node1&#45;&gt;Node0</title>
<path fill="none" stroke="#191970" d="M225.9334,-206.8648C233.1279,-204.8949 240.4128,-202.7524 247.248,-200.5 293.1893,-185.3613 305.765,-182.9618 348.0654,-159.5 367.4768,-148.7335 387.8265,-133.5156 401.6365,-122.5084"/>
<polygon fill="#191970" stroke="#191970" points="224.9983,-203.4917 216.2295,-209.4379 226.7925,-210.2579 224.9983,-203.4917"/>
</g>
<!-- Node2 -->
<g id="node3" class="node">
<title>Node2</title>
<g id="a_node3"><a xlink:href="class_no_limits_1_1_no_limits2_1_1_support_node.html" target="_top" xlink:title="NoLimits::NoLimits2\l::SupportNode">
<polygon fill="none" stroke="#000000" points="124.4121,-162.5 124.4121,-190.5 229.3232,-190.5 229.3232,-162.5 124.4121,-162.5"/>
<text text-anchor="start" x="132.4121" y="-178.5" font-family="Helvetica,sans-Serif" font-size="10.00" fill="#000000">NoLimits::NoLimits2</text>
<text text-anchor="middle" x="176.8677" y="-168.5" font-family="Helvetica,sans-Serif" font-size="10.00" fill="#000000">::SupportNode</text>
</a>
</g>
</g>
<!-- Node2&#45;&gt;Node0 -->
<g id="edge2" class="edge">
<title>Node2&#45;&gt;Node0</title>
<path fill="none" stroke="#191970" d="M239.2946,-163.612C271.9726,-156.3482 312.4823,-146.527 348.0654,-135.5 360.0772,-131.7776 372.9879,-127.0501 384.4343,-122.5949"/>
<polygon fill="#191970" stroke="#191970" points="238.4342,-160.2175 229.4187,-165.7827 239.937,-167.0543 238.4342,-160.2175"/>
</g>
<!-- Node3 -->
<g id="node4" class="node">
<title>Node3</title>
<polygon fill="none" stroke="#bfbfbf" points="0,-185.5 0,-203.5 46.0244,-203.5 46.0244,-185.5 0,-185.5"/>
<text text-anchor="middle" x="23.0122" y="-191.5" font-family="Helvetica,sans-Serif" font-size="10.00" fill="#000000">uint8_t</text>
</g>
<!-- Node3&#45;&gt;Node2 -->
<g id="edge3" class="edge">
<title>Node3&#45;&gt;Node2</title>
<path fill="none" stroke="#9a32cd" stroke-dasharray="5,2" d="M56.1417,-190.6241C76.0139,-188.2992 101.7338,-185.2901 124.3245,-182.6472"/>
<polygon fill="#9a32cd" stroke="#9a32cd" points="55.5715,-187.1668 46.0459,-191.8052 56.3849,-194.1194 55.5715,-187.1668"/>
<text text-anchor="middle" x="76.2559" y="-211.5" font-family="Helvetica,sans-Serif" font-size="10.00" fill="#000000"> flag1</text>
<text text-anchor="middle" x="76.2559" y="-201.5" font-family="Helvetica,sans-Serif" font-size="10.00" fill="#000000">flag2</text>
<text text-anchor="middle" x="76.2559" y="-191.5" font-family="Helvetica,sans-Serif" font-size="10.00" fill="#000000">flag3</text>
</g>
<!-- Node4 -->
<g id="node5" class="node">
<title>Node4</title>
<polygon fill="none" stroke="#bfbfbf" points="4.4507,-148.5 4.4507,-166.5 41.5737,-166.5 41.5737,-148.5 4.4507,-148.5"/>
<text text-anchor="middle" x="23.0122" y="-154.5" font-family="Helvetica,sans-Serif" font-size="10.00" fill="#000000">vec3</text>
</g>
<!-- Node4&#45;&gt;Node2 -->
<g id="edge4" class="edge">
<title>Node4&#45;&gt;Node2</title>
<path fill="none" stroke="#9a32cd" stroke-dasharray="5,2" d="M52.0347,-161.0841C72.3162,-163.5887 99.9775,-167.0046 124.1077,-169.9845"/>
<polygon fill="#9a32cd" stroke="#9a32cd" points="52.2315,-157.5819 41.8779,-159.8298 51.3735,-164.5291 52.2315,-157.5819"/>
<text text-anchor="middle" x="76.2559" y="-166.5" font-family="Helvetica,sans-Serif" font-size="10.00" fill="#000000"> color</text>
</g>
<!-- Node5 -->
<g id="node6" class="node">
<title>Node5</title>
<polygon fill="none" stroke="#bfbfbf" points="106.4873,-115.5 106.4873,-143.5 247.248,-143.5 247.248,-115.5 106.4873,-115.5"/>
<text text-anchor="start" x="114.4873" y="-131.5" font-family="Helvetica,sans-Serif" font-size="10.00" fill="#000000">vector&lt; NoLimits::NoLimits2</text>
<text text-anchor="middle" x="176.8677" y="-121.5" font-family="Helvetica,sans-Serif" font-size="10.00" fill="#000000">::SupportParameter * &gt;</text>
</g>
<!-- Node5&#45;&gt;Node0 -->
<g id="edge5" class="edge">
<title>Node5&#45;&gt;Node0</title>
<path fill="none" stroke="#9a32cd" stroke-dasharray="5,2" d="M257.8072,-122.4662C293.4674,-119.3673 334.3488,-115.8147 365.9555,-113.068"/>
<polygon fill="#9a32cd" stroke="#9a32cd" points="257.0728,-119.0168 247.4134,-123.3695 257.6789,-125.9905 257.0728,-119.0168"/>
<text text-anchor="middle" x="306.6567" y="-123.5" font-family="Helvetica,sans-Serif" font-size="10.00" fill="#000000"> supportParameter</text>
</g>
<!-- Node6 -->
<g id="node7" class="node">
<title>Node6</title>
<polygon fill="none" stroke="#bfbfbf" points="153.853,-78.5 153.853,-96.5 199.8823,-96.5 199.8823,-78.5 153.853,-78.5"/>
<text text-anchor="middle" x="176.8677" y="-84.5" font-family="Helvetica,sans-Serif" font-size="10.00" fill="#000000">double</text>
</g>
<!-- Node6&#45;&gt;Node0 -->
<g id="edge6" class="edge">
<title>Node6&#45;&gt;Node0</title>
<path fill="none" stroke="#9a32cd" stroke-dasharray="5,2" d="M209.9969,-86.1915C244.6,-85.3108 300.3788,-85.2626 348.0654,-91.5 353.9294,-92.267 360.0151,-93.3254 366.0433,-94.5423"/>
<polygon fill="#9a32cd" stroke="#9a32cd" points="209.8633,-82.6938 199.9703,-86.4855 210.0686,-89.6908 209.8633,-82.6938"/>
<text text-anchor="middle" x="306.6567" y="-103.5" font-family="Helvetica,sans-Serif" font-size="10.00" fill="#000000"> sizeParameter</text>
<text text-anchor="middle" x="306.6567" y="-93.5" font-family="Helvetica,sans-Serif" font-size="10.00" fill="#000000">position</text>
</g>
<!-- Node7 -->
<g id="node8" class="node">
<title>Node7</title>
<polygon fill="none" stroke="#bfbfbf" points="132.4565,-41.5 132.4565,-59.5 221.2788,-59.5 221.2788,-41.5 132.4565,-41.5"/>
<text text-anchor="middle" x="176.8677" y="-47.5" font-family="Helvetica,sans-Serif" font-size="10.00" fill="#000000">ConnectionStyle</text>
</g>
<!-- Node7&#45;&gt;Node0 -->
<g id="edge7" class="edge">
<title>Node7&#45;&gt;Node0</title>
<path fill="none" stroke="#9a32cd" stroke-dasharray="5,2" d="M231.6164,-52.7362C265.7325,-55.2975 310.1883,-60.7794 348.0654,-72.5 364.8619,-77.6974 382.4758,-86.6974 395.8906,-94.3981"/>
<polygon fill="#9a32cd" stroke="#9a32cd" points="231.5961,-49.2266 221.3793,-52.0314 231.1153,-56.2101 231.5961,-49.2266"/>
<text text-anchor="middle" x="306.6567" y="-74.5" font-family="Helvetica,sans-Serif" font-size="10.00" fill="#000000"> connectionStyle</text>
</g>
<!-- Node8 -->
<g id="node9" class="node">
<title>Node8</title>
<polygon fill="none" stroke="#bfbfbf" points="151.0747,-.5 151.0747,-18.5 202.6606,-18.5 202.6606,-.5 151.0747,-.5"/>
<text text-anchor="middle" x="176.8677" y="-6.5" font-family="Helvetica,sans-Serif" font-size="10.00" fill="#000000">uint32_t</text>
</g>
<!-- Node8&#45;&gt;Node0 -->
<g id="edge8" class="edge">
<title>Node8&#45;&gt;Node0</title>
<path fill="none" stroke="#9a32cd" stroke-dasharray="5,2" d="M212.9205,-7.7764C249.0805,-7.5504 305.3768,-11.3866 348.0654,-33.5 375.5085,-47.7159 398.0362,-76.9692 409.7593,-94.4437"/>
<polygon fill="#9a32cd" stroke="#9a32cd" points="212.772,-4.2783 202.8332,-7.9484 212.8915,-11.2773 212.772,-4.2783"/>
<text text-anchor="middle" x="306.6567" y="-45.5" font-family="Helvetica,sans-Serif" font-size="10.00" fill="#000000"> trackIndex</text>
<text text-anchor="middle" x="306.6567" y="-35.5" font-family="Helvetica,sans-Serif" font-size="10.00" fill="#000000">prefabIndex</text>
</g>
</g>
</svg>
