<?xml version="1.0" encoding="UTF-8" standalone="no"?>
<!DOCTYPE svg PUBLIC "-//W3C//DTD SVG 1.1//EN"
 "http://www.w3.org/Graphics/SVG/1.1/DTD/svg11.dtd">
<!-- Generated by graphviz version 2.40.1 (20161225.0304)
 -->
<!-- Title: NoLimits::NoLimits2::Separator Pages: 1 -->
<svg width="838pt" height="575pt"
 viewBox="0.00 0.00 837.92 575.43" xmlns="http://www.w3.org/2000/svg" xmlns:xlink="http://www.w3.org/1999/xlink">
<g id="graph0" class="graph" transform="scale(1 1) rotate(0) translate(4 571.4309)">
<title>NoLimits::NoLimits2::Separator</title>
<!-- Node0 -->
<g id="node1" class="node">
<title>Node0</title>
<polygon fill="#bfbfbf" stroke="#000000" points="725.0088,-312.9309 725.0088,-340.9309 829.9199,-340.9309 829.9199,-312.9309 725.0088,-312.9309"/>
<text text-anchor="start" x="733.0088" y="-328.9309" font-family="Helvetica,sans-Serif" font-size="10.00" fill="#000000">NoLimits::NoLimits2</text>
<text text-anchor="middle" x="777.4644" y="-318.9309" font-family="Helvetica,sans-Serif" font-size="10.00" fill="#000000">::Separator</text>
</g>
<!-- Node1 -->
<g id="node2" class="node">
<title>Node1</title>
<g id="a_node2"><a xlink:href="class_no_limits_1_1_stream_1_1_chunk.html" target="_top" xlink:title="NoLimits::Stream::Chunk">
<polygon fill="none" stroke="#000000" points="0,-418.9309 0,-436.9309 127.1475,-436.9309 127.1475,-418.9309 0,-418.9309"/>
<text text-anchor="middle" x="63.5737" y="-424.9309" font-family="Helvetica,sans-Serif" font-size="10.00" fill="#000000">NoLimits::Stream::Chunk</text>
</a>
</g>
</g>
<!-- Node1&#45;&gt;Node0 -->
<g id="edge1" class="edge">
<title>Node1&#45;&gt;Node0</title>
<path fill="none" stroke="#191970" d="M123.8841,-438.5253C208.7173,-451.4493 367.6547,-468.3996 499.3887,-440.9309 597.2028,-420.5351 704.2818,-366.8619 752.0303,-341.1103"/>
<polygon fill="#191970" stroke="#191970" points="124.3322,-435.053 113.9127,-436.9724 123.255,-441.9696 124.3322,-435.053"/>
</g>
<!-- Node2 -->
<g id="node3" class="node">
<title>Node2</title>
<g id="a_node3"><a xlink:href="class_no_limits_1_1_no_limits2_1_1_segment.html" target="_top" xlink:title="NoLimits::NoLimits2\l::Segment">
<polygon fill="none" stroke="#000000" points="517.3887,-312.9309 517.3887,-340.9309 622.2998,-340.9309 622.2998,-312.9309 517.3887,-312.9309"/>
<text text-anchor="start" x="525.3887" y="-328.9309" font-family="Helvetica,sans-Serif" font-size="10.00" fill="#000000">NoLimits::NoLimits2</text>
<text text-anchor="middle" x="569.8442" y="-318.9309" font-family="Helvetica,sans-Serif" font-size="10.00" fill="#000000">::Segment</text>
</a>
</g>
</g>
<!-- Node1&#45;&gt;Node2 -->
<g id="edge3" class="edge">
<title>Node1&#45;&gt;Node2</title>
<path fill="none" stroke="#191970" d="M137.5249,-418.9003C224.8804,-407.3472 374.1618,-384.8168 499.3887,-351.9309 510.8123,-348.9309 523.0171,-344.9048 534.0042,-340.9611"/>
<polygon fill="#191970" stroke="#191970" points="136.9058,-415.4514 127.4453,-420.2209 137.8153,-422.3921 136.9058,-415.4514"/>
</g>
<!-- Node3 -->
<g id="node4" class="node">
<title>Node3</title>
<g id="a_node4"><a xlink:href="class_no_limits_1_1_no_limits2_1_1_wooden_support_generator.html" target="_top" xlink:title="NoLimits::NoLimits2\l::WoodenSupportGenerator">
<polygon fill="none" stroke="#000000" points="224.8564,-329.9309 224.8564,-357.9309 363.5322,-357.9309 363.5322,-329.9309 224.8564,-329.9309"/>
<text text-anchor="start" x="232.8564" y="-345.9309" font-family="Helvetica,sans-Serif" font-size="10.00" fill="#000000">NoLimits::NoLimits2</text>
<text text-anchor="middle" x="294.1943" y="-335.9309" font-family="Helvetica,sans-Serif" font-size="10.00" fill="#000000">::WoodenSupportGenerator</text>
</a>
</g>
</g>
<!-- Node1&#45;&gt;Node3 -->
<g id="edge5" class="edge">
<title>Node1&#45;&gt;Node3</title>
<path fill="none" stroke="#191970" d="M86.1139,-413.5006C102.0895,-403.778 124.3046,-391.2562 145.1475,-382.9309 170.9802,-372.6125 200.4224,-364.2413 226.278,-357.9381"/>
<polygon fill="#191970" stroke="#191970" points="84.1416,-410.6053 77.4862,-418.8489 87.8298,-416.5549 84.1416,-410.6053"/>
</g>
<!-- Node11 -->
<g id="node12" class="node">
<title>Node11</title>
<g id="a_node12"><a xlink:href="class_no_limits_1_1_no_limits2_1_1_section.html" target="_top" xlink:title="NoLimits::NoLimits2\l::Section">
<polygon fill="none" stroke="#000000" points="241.7388,-503.9309 241.7388,-531.9309 346.6499,-531.9309 346.6499,-503.9309 241.7388,-503.9309"/>
<text text-anchor="start" x="249.7388" y="-519.9309" font-family="Helvetica,sans-Serif" font-size="10.00" fill="#000000">NoLimits::NoLimits2</text>
<text text-anchor="middle" x="294.1943" y="-509.9309" font-family="Helvetica,sans-Serif" font-size="10.00" fill="#000000">::Section</text>
</a>
</g>
</g>
<!-- Node1&#45;&gt;Node11 -->
<g id="edge15" class="edge">
<title>Node1&#45;&gt;Node11</title>
<path fill="none" stroke="#191970" d="M86.1546,-442.5052C102.1487,-452.3633 124.3693,-465.1398 145.1475,-473.9309 176.2071,-487.0721 212.4706,-497.8705 241.4509,-505.4809"/>
<polygon fill="#191970" stroke="#191970" points="87.847,-439.4353 77.5149,-437.0902 84.1295,-445.3666 87.847,-439.4353"/>
</g>
<!-- Node2&#45;&gt;Node0 -->
<g id="edge2" class="edge">
<title>Node2&#45;&gt;Node0</title>
<path fill="none" stroke="#9a32cd" stroke-dasharray="5,2" d="M632.6825,-326.9309C662.1319,-326.9309 696.8212,-326.9309 724.8608,-326.9309"/>
<polygon fill="#9a32cd" stroke="#9a32cd" points="632.504,-323.431 622.504,-326.9309 632.5039,-330.431 632.504,-323.431"/>
<text text-anchor="middle" x="673.6543" y="-328.9309" font-family="Helvetica,sans-Serif" font-size="10.00" fill="#000000"> segment</text>
</g>
<!-- Node3&#45;&gt;Node2 -->
<g id="edge4" class="edge">
<title>Node3&#45;&gt;Node2</title>
<path fill="none" stroke="#9a32cd" stroke-dasharray="5,2" d="M374.0163,-339.0081C420.1049,-336.1657 476.778,-332.6705 517.2766,-330.1729"/>
<polygon fill="#9a32cd" stroke="#9a32cd" points="373.518,-335.5321 363.7524,-339.6411 373.949,-342.5188 373.518,-335.5321"/>
<text text-anchor="middle" x="440.4604" y="-339.9309" font-family="Helvetica,sans-Serif" font-size="10.00" fill="#000000"> woodenSupportGenerator</text>
</g>
<!-- Node4 -->
<g id="node5" class="node">
<title>Node4</title>
<polygon fill="none" stroke="#bfbfbf" points="40.5615,-308.9309 40.5615,-326.9309 86.5859,-326.9309 86.5859,-308.9309 40.5615,-308.9309"/>
<text text-anchor="middle" x="63.5737" y="-314.9309" font-family="Helvetica,sans-Serif" font-size="10.00" fill="#000000">uint8_t</text>
</g>
<!-- Node4&#45;&gt;Node2 -->
<g id="edge8" class="edge">
<title>Node4&#45;&gt;Node2</title>
<path fill="none" stroke="#9a32cd" stroke-dasharray="5,2" d="M97.1211,-316.0504C129.7344,-314.3226 180.6753,-311.8892 224.8564,-310.9309 286.4756,-309.5943 301.9447,-308.5464 363.5322,-310.9309 415.9443,-312.9602 475.6782,-317.8789 517.335,-321.7313"/>
<polygon fill="#9a32cd" stroke="#9a32cd" points="96.5971,-312.5734 86.7998,-316.6061 96.9736,-319.5633 96.5971,-312.5734"/>
<text text-anchor="middle" x="294.1943" y="-312.9309" font-family="Helvetica,sans-Serif" font-size="10.00" fill="#000000"> spineType</text>
</g>
<!-- Node4&#45;&gt;Node3 -->
<g id="edge6" class="edge">
<title>Node4&#45;&gt;Node3</title>
<path fill="none" stroke="#9a32cd" stroke-dasharray="5,2" d="M97.0832,-321.7087C130.4222,-325.4674 182.5691,-331.3464 224.854,-336.1135"/>
<polygon fill="#9a32cd" stroke="#9a32cd" points="97.2852,-318.2094 86.956,-320.567 96.5009,-325.1654 97.2852,-318.2094"/>
<text text-anchor="middle" x="176.002" y="-345.9309" font-family="Helvetica,sans-Serif" font-size="10.00" fill="#000000"> flag1</text>
<text text-anchor="middle" x="176.002" y="-335.9309" font-family="Helvetica,sans-Serif" font-size="10.00" fill="#000000">flag2</text>
</g>
<!-- Node5 -->
<g id="node6" class="node">
<title>Node5</title>
<polygon fill="none" stroke="#bfbfbf" points="271.0894,-181.9309 271.0894,-199.9309 317.2993,-199.9309 317.2993,-181.9309 271.0894,-181.9309"/>
<text text-anchor="middle" x="294.1943" y="-187.9309" font-family="Helvetica,sans-Serif" font-size="10.00" fill="#000000">Tunnel</text>
</g>
<!-- Node5&#45;&gt;Node2 -->
<g id="edge7" class="edge">
<title>Node5&#45;&gt;Node2</title>
<path fill="none" stroke="#9a32cd" stroke-dasharray="5,2" d="M327.4385,-181.2146C372.329,-170.3307 452.1341,-159.2137 499.3887,-200.9309 534.2268,-231.6866 488.7023,-267.3701 517.3887,-303.9309 520.0895,-307.3731 523.4115,-310.3115 527.0614,-312.8176"/>
<polygon fill="#9a32cd" stroke="#9a32cd" points="326.4356,-177.8584 317.6157,-183.7287 328.1713,-184.6398 326.4356,-177.8584"/>
<text text-anchor="middle" x="440.4604" y="-202.9309" font-family="Helvetica,sans-Serif" font-size="10.00" fill="#000000"> tunnel</text>
</g>
<!-- Node6 -->
<g id="node7" class="node">
<title>Node6</title>
<polygon fill="none" stroke="#bfbfbf" points="276.7412,-50.9309 276.7412,-68.9309 311.6475,-68.9309 311.6475,-50.9309 276.7412,-50.9309"/>
<text text-anchor="middle" x="294.1943" y="-56.9309" font-family="Helvetica,sans-Serif" font-size="10.00" fill="#000000">bool</text>
</g>
<!-- Node6&#45;&gt;Node2 -->
<g id="edge9" class="edge">
<title>Node6&#45;&gt;Node2</title>
<path fill="none" stroke="#9a32cd" stroke-dasharray="5,2" d="M321.9873,-55.1854C372.0282,-47.3411 474.4097,-34.7129 499.3887,-57.9309 539.5365,-95.2484 485.7502,-259.171 517.3887,-303.9309 519.7993,-307.3413 522.8309,-310.2518 526.2148,-312.7346"/>
<polygon fill="#9a32cd" stroke="#9a32cd" points="321.1831,-51.7698 311.8686,-56.8188 322.2986,-58.6803 321.1831,-51.7698"/>
<text text-anchor="middle" x="440.4604" y="-159.9309" font-family="Helvetica,sans-Serif" font-size="10.00" fill="#000000"> useRailsColor</text>
<text text-anchor="middle" x="440.4604" y="-149.9309" font-family="Helvetica,sans-Serif" font-size="10.00" fill="#000000">invisibleSegment</text>
<text text-anchor="middle" x="440.4604" y="-139.9309" font-family="Helvetica,sans-Serif" font-size="10.00" fill="#000000">useCatwalksColor</text>
<text text-anchor="middle" x="440.4604" y="-129.9309" font-family="Helvetica,sans-Serif" font-size="10.00" fill="#000000">rightRailingAndCatwalk</text>
<text text-anchor="middle" x="440.4604" y="-119.9309" font-family="Helvetica,sans-Serif" font-size="10.00" fill="#000000">leftRailingLights</text>
<text text-anchor="middle" x="440.4604" y="-109.9309" font-family="Helvetica,sans-Serif" font-size="10.00" fill="#000000">useMainSpineColor</text>
<text text-anchor="middle" x="440.4604" y="-99.9309" font-family="Helvetica,sans-Serif" font-size="10.00" fill="#000000">useHandrailsColor</text>
<text text-anchor="middle" x="440.4604" y="-89.9309" font-family="Helvetica,sans-Serif" font-size="10.00" fill="#000000">useCrossTiesColor</text>
<text text-anchor="middle" x="440.4604" y="-79.9309" font-family="Helvetica,sans-Serif" font-size="10.00" fill="#000000">useSpineColorScheme</text>
<text text-anchor="middle" x="440.4604" y="-69.9309" font-family="Helvetica,sans-Serif" font-size="10.00" fill="#000000">transparentCatwalks</text>
<text text-anchor="middle" x="440.4604" y="-59.9309" font-family="Helvetica,sans-Serif" font-size="10.00" fill="#000000">...</text>
</g>
<!-- Node7 -->
<g id="node8" class="node">
<title>Node7</title>
<polygon fill="none" stroke="#bfbfbf" points="243.1157,-13.9309 243.1157,-31.9309 345.2729,-31.9309 345.2729,-13.9309 243.1157,-13.9309"/>
<text text-anchor="middle" x="294.1943" y="-19.9309" font-family="Helvetica,sans-Serif" font-size="10.00" fill="#000000">SpineColorScheme</text>
</g>
<!-- Node7&#45;&gt;Node2 -->
<g id="edge10" class="edge">
<title>Node7&#45;&gt;Node2</title>
<path fill="none" stroke="#9a32cd" stroke-dasharray="5,2" d="M331.4144,-11.2287C377.5139,.691 455.3336,11.956 499.3887,-30.9309 542.9533,-73.3404 482.4742,-254.1572 517.3887,-303.9309 519.787,-307.35 522.8104,-310.2663 526.189,-312.7527"/>
<polygon fill="#9a32cd" stroke="#9a32cd" points="330.2563,-7.9166 321.5274,-13.9213 332.0957,-14.6706 330.2563,-7.9166"/>
<text text-anchor="middle" x="440.4604" y="-32.9309" font-family="Helvetica,sans-Serif" font-size="10.00" fill="#000000"> spineColorScheme</text>
</g>
<!-- Node8 -->
<g id="node9" class="node">
<title>Node8</title>
<polygon fill="none" stroke="#bfbfbf" points="261.3628,-415.9309 261.3628,-433.9309 327.0259,-433.9309 327.0259,-415.9309 261.3628,-415.9309"/>
<text text-anchor="middle" x="294.1943" y="-421.9309" font-family="Helvetica,sans-Serif" font-size="10.00" fill="#000000">TieSpacing</text>
</g>
<!-- Node8&#45;&gt;Node2 -->
<g id="edge11" class="edge">
<title>Node8&#45;&gt;Node2</title>
<path fill="none" stroke="#9a32cd" stroke-dasharray="5,2" d="M337.2295,-428.1468C380.4901,-429.5466 447.9571,-426.6168 499.3887,-400.9309 526.6849,-387.2987 549.1066,-358.58 560.8819,-341.2011"/>
<polygon fill="#9a32cd" stroke="#9a32cd" points="337.182,-424.6418 327.045,-427.7225 336.8906,-431.6358 337.182,-424.6418"/>
<text text-anchor="middle" x="440.4604" y="-428.9309" font-family="Helvetica,sans-Serif" font-size="10.00" fill="#000000"> tieSpacing</text>
</g>
<!-- Node9 -->
<g id="node10" class="node">
<title>Node9</title>
<polygon fill="none" stroke="#bfbfbf" points="275.6328,-218.9309 275.6328,-236.9309 312.7559,-236.9309 312.7559,-218.9309 275.6328,-218.9309"/>
<text text-anchor="middle" x="294.1943" y="-224.9309" font-family="Helvetica,sans-Serif" font-size="10.00" fill="#000000">vec3</text>
</g>
<!-- Node9&#45;&gt;Node2 -->
<g id="edge12" class="edge">
<title>Node9&#45;&gt;Node2</title>
<path fill="none" stroke="#9a32cd" stroke-dasharray="5,2" d="M323.1155,-223.527C373.1204,-216.5911 472.9311,-205.945 499.3887,-226.9309 526.9234,-248.7713 494.92,-276.9065 517.3887,-303.9309 520.2494,-307.3717 523.7253,-310.3135 527.5116,-312.8255"/>
<polygon fill="#9a32cd" stroke="#9a32cd" points="322.3646,-220.0987 312.9612,-224.9799 323.3562,-227.0281 322.3646,-220.0987"/>
<text text-anchor="middle" x="440.4604" y="-288.9309" font-family="Helvetica,sans-Serif" font-size="10.00" fill="#000000"> catwalksColor</text>
<text text-anchor="middle" x="440.4604" y="-278.9309" font-family="Helvetica,sans-Serif" font-size="10.00" fill="#000000">railColor</text>
<text text-anchor="middle" x="440.4604" y="-268.9309" font-family="Helvetica,sans-Serif" font-size="10.00" fill="#000000">crossTiesColor</text>
<text text-anchor="middle" x="440.4604" y="-258.9309" font-family="Helvetica,sans-Serif" font-size="10.00" fill="#000000">rightRailingLightsColor</text>
<text text-anchor="middle" x="440.4604" y="-248.9309" font-family="Helvetica,sans-Serif" font-size="10.00" fill="#000000">leftRailingLightsColor</text>
<text text-anchor="middle" x="440.4604" y="-238.9309" font-family="Helvetica,sans-Serif" font-size="10.00" fill="#000000">mainSpineColor</text>
<text text-anchor="middle" x="440.4604" y="-228.9309" font-family="Helvetica,sans-Serif" font-size="10.00" fill="#000000">handrailsColor</text>
</g>
<!-- Node10 -->
<g id="node11" class="node">
<title>Node10</title>
<polygon fill="none" stroke="#bfbfbf" points="546.8296,-275.9309 546.8296,-293.9309 592.8589,-293.9309 592.8589,-275.9309 546.8296,-275.9309"/>
<text text-anchor="middle" x="569.8442" y="-281.9309" font-family="Helvetica,sans-Serif" font-size="10.00" fill="#000000">double</text>
</g>
<!-- Node10&#45;&gt;Node0 -->
<g id="edge13" class="edge">
<title>Node10&#45;&gt;Node0</title>
<path fill="none" stroke="#9a32cd" stroke-dasharray="5,2" d="M603.2467,-291.688C636.0516,-298.3242 686.5976,-308.5492 724.812,-316.2797"/>
<polygon fill="#9a32cd" stroke="#9a32cd" points="603.7528,-288.2195 593.2573,-289.6672 602.3648,-295.0806 603.7528,-288.2195"/>
<text text-anchor="middle" x="673.6543" y="-313.9309" font-family="Helvetica,sans-Serif" font-size="10.00" fill="#000000"> position</text>
</g>
<!-- Node11&#45;&gt;Node0 -->
<g id="edge14" class="edge">
<title>Node11&#45;&gt;Node0</title>
<path fill="none" stroke="#9a32cd" stroke-dasharray="5,2" d="M356.7235,-529.4507C443.7194,-541.8515 602.3513,-550.9124 707.0088,-476.9309 753.7619,-443.8815 770.4023,-371.5741 775.4946,-341.0132"/>
<polygon fill="#9a32cd" stroke="#9a32cd" points="357.1405,-525.9743 346.7347,-527.9669 356.1119,-532.8983 357.1405,-525.9743"/>
<text text-anchor="middle" x="569.8442" y="-537.9309" font-family="Helvetica,sans-Serif" font-size="10.00" fill="#000000"> section</text>
</g>
<!-- Node11&#45;&gt;Node11 -->
<g id="edge16" class="edge">
<title>Node11&#45;&gt;Node11</title>
<path fill="none" stroke="#9a32cd" stroke-dasharray="5,2" d="M272.8635,-541.9182C275.1285,-546.8722 282.2388,-550.4309 294.1943,-550.4309 313.3232,-550.4309 320.0482,-541.3207 314.3694,-531.9614"/>
<polygon fill="#9a32cd" stroke="#9a32cd" points="276.3428,-542.2983 274.0193,-531.9614 269.3895,-541.4911 276.3428,-542.2983"/>
<text text-anchor="middle" x="294.1943" y="-552.4309" font-family="Helvetica,sans-Serif" font-size="10.00" fill="#000000"> section</text>
</g>
<!-- Node12 -->
<g id="node13" class="node">
<title>Node12</title>
<polygon fill="none" stroke="#bfbfbf" points="43.3472,-548.9309 43.3472,-566.9309 83.8003,-566.9309 83.8003,-548.9309 43.3472,-548.9309"/>
<text text-anchor="middle" x="63.5737" y="-554.9309" font-family="Helvetica,sans-Serif" font-size="10.00" fill="#000000">string</text>
</g>
<!-- Node12&#45;&gt;Node11 -->
<g id="edge17" class="edge">
<title>Node12&#45;&gt;Node11</title>
<path fill="none" stroke="#9a32cd" stroke-dasharray="5,2" d="M94.3534,-552.5923C131.9542,-546.0707 196.1633,-534.9339 241.6421,-527.0458"/>
<polygon fill="#9a32cd" stroke="#9a32cd" points="93.2945,-549.2236 84.0398,-554.3812 94.4908,-556.1207 93.2945,-549.2236"/>
<text text-anchor="middle" x="176.002" y="-543.9309" font-family="Helvetica,sans-Serif" font-size="10.00" fill="#000000"> name</text>
</g>
<!-- Node13 -->
<g id="node14" class="node">
<title>Node13</title>
<polygon fill="none" stroke="#bfbfbf" points="28.0542,-511.9309 28.0542,-529.9309 99.0933,-529.9309 99.0933,-511.9309 28.0542,-511.9309"/>
<text text-anchor="middle" x="63.5737" y="-517.9309" font-family="Helvetica,sans-Serif" font-size="10.00" fill="#000000">SectionType</text>
</g>
<!-- Node13&#45;&gt;Node11 -->
<g id="edge18" class="edge">
<title>Node13&#45;&gt;Node11</title>
<path fill="none" stroke="#9a32cd" stroke-dasharray="5,2" d="M109.3856,-520.335C147.4474,-519.8398 201.6228,-519.1351 241.4807,-518.6166"/>
<polygon fill="#9a32cd" stroke="#9a32cd" points="109.0564,-516.8389 99.1028,-520.4687 109.1475,-523.8383 109.0564,-516.8389"/>
<text text-anchor="middle" x="176.002" y="-520.9309" font-family="Helvetica,sans-Serif" font-size="10.00" fill="#000000"> _sectionType</text>
</g>
<!-- Node14 -->
<g id="node15" class="node">
<title>Node14</title>
<polygon fill="none" stroke="#bfbfbf" points="529.0439,-238.9309 529.0439,-256.9309 610.6445,-256.9309 610.6445,-238.9309 529.0439,-238.9309"/>
<text text-anchor="middle" x="569.8442" y="-244.9309" font-family="Helvetica,sans-Serif" font-size="10.00" fill="#000000">SeparatorType</text>
</g>
<!-- Node14&#45;&gt;Node0 -->
<g id="edge19" class="edge">
<title>Node14&#45;&gt;Node0</title>
<path fill="none" stroke="#9a32cd" stroke-dasharray="5,2" d="M620.5187,-258.0988C646.8895,-264.2567 679.3169,-273.206 707.0088,-284.9309 724.8429,-292.482 743.6127,-303.8636 757.2908,-312.8746"/>
<polygon fill="#9a32cd" stroke="#9a32cd" points="621.2578,-254.6776 610.7309,-255.8754 619.7071,-261.5037 621.2578,-254.6776"/>
<text text-anchor="middle" x="673.6543" y="-286.9309" font-family="Helvetica,sans-Serif" font-size="10.00" fill="#000000"> separatorType</text>
</g>
</g>
</svg>
