<?xml version="1.0" encoding="UTF-8" standalone="no"?>
<!DOCTYPE svg PUBLIC "-//W3C//DTD SVG 1.1//EN"
 "http://www.w3.org/Graphics/SVG/1.1/DTD/svg11.dtd">
<!-- Generated by graphviz version 2.40.1 (20161225.0304)
 -->
<!-- Title: NoLimits::NoLimits2::Colors Pages: 1 -->
<svg width="386pt" height="202pt"
 viewBox="0.00 0.00 386.10 202.00" xmlns="http://www.w3.org/2000/svg" xmlns:xlink="http://www.w3.org/1999/xlink">
<g id="graph0" class="graph" transform="scale(1 1) rotate(0) translate(4 198)">
<title>NoLimits::NoLimits2::Colors</title>
<!-- Node0 -->
<g id="node1" class="node">
<title>Node0</title>
<polygon fill="#bfbfbf" stroke="#000000" points="144.1182,-.5 144.1182,-28.5 249.0293,-28.5 249.0293,-.5 144.1182,-.5"/>
<text text-anchor="start" x="152.1182" y="-16.5" font-family="Helvetica,sans-Serif" font-size="10.00" fill="#000000">NoLimits::NoLimits2</text>
<text text-anchor="middle" x="196.5737" y="-6.5" font-family="Helvetica,sans-Serif" font-size="10.00" fill="#000000">::Colors</text>
</g>
<!-- Node1 -->
<g id="node2" class="node">
<title>Node1</title>
<g id="a_node2"><a xlink:href="class_no_limits_1_1_stream_1_1_chunk.html" target="_top" xlink:title="NoLimits::Stream::Chunk">
<polygon fill="none" stroke="#000000" points="0,-175.5 0,-193.5 127.1475,-193.5 127.1475,-175.5 0,-175.5"/>
<text text-anchor="middle" x="63.5737" y="-181.5" font-family="Helvetica,sans-Serif" font-size="10.00" fill="#000000">NoLimits::Stream::Chunk</text>
</a>
</g>
</g>
<!-- Node1&#45;&gt;Node0 -->
<g id="edge1" class="edge">
<title>Node1&#45;&gt;Node0</title>
<path fill="none" stroke="#191970" d="M76.965,-167.3833C103.2399,-133.7989 161.1038,-59.8376 185.4416,-28.729"/>
<polygon fill="#191970" stroke="#191970" points="74.1296,-165.3274 70.7244,-175.3601 79.6429,-169.6407 74.1296,-165.3274"/>
</g>
<!-- Node2 -->
<g id="node3" class="node">
<title>Node2</title>
<polygon fill="none" stroke="#bfbfbf" points="145.4951,-175.5 145.4951,-193.5 247.6523,-193.5 247.6523,-175.5 145.4951,-175.5"/>
<text text-anchor="middle" x="196.5737" y="-181.5" font-family="Helvetica,sans-Serif" font-size="10.00" fill="#000000">SpineColorScheme</text>
</g>
<!-- Node2&#45;&gt;Node0 -->
<g id="edge2" class="edge">
<title>Node2&#45;&gt;Node0</title>
<path fill="none" stroke="#9a32cd" stroke-dasharray="5,2" d="M196.5737,-165.1856C196.5737,-130.671 196.5737,-59.1757 196.5737,-28.729"/>
<polygon fill="#9a32cd" stroke="#9a32cd" points="193.0738,-165.36 196.5737,-175.3601 200.0738,-165.3601 193.0738,-165.36"/>
<text text-anchor="middle" x="240.2065" y="-99" font-family="Helvetica,sans-Serif" font-size="10.00" fill="#000000"> spineColorScheme</text>
</g>
<!-- Node3 -->
<g id="node4" class="node">
<title>Node3</title>
<polygon fill="none" stroke="#bfbfbf" points="288.0122,-175.5 288.0122,-193.5 325.1353,-193.5 325.1353,-175.5 288.0122,-175.5"/>
<text text-anchor="middle" x="306.5737" y="-181.5" font-family="Helvetica,sans-Serif" font-size="10.00" fill="#000000">vec3</text>
</g>
<!-- Node3&#45;&gt;Node0 -->
<g id="edge3" class="edge">
<title>Node3&#45;&gt;Node0</title>
<path fill="none" stroke="#9a32cd" stroke-dasharray="5,2" d="M309.1301,-165.1289C311.8432,-136.0647 312.4855,-80.9681 284.5737,-47 275.5782,-36.0526 262.5334,-28.7925 249.2304,-23.9778"/>
<polygon fill="#9a32cd" stroke="#9a32cd" points="305.6351,-164.8896 308.0021,-175.2166 312.5918,-165.6675 305.6351,-164.8896"/>
<text text-anchor="middle" x="343.8389" y="-149" font-family="Helvetica,sans-Serif" font-size="10.00" fill="#000000"> chasiss</text>
<text text-anchor="middle" x="343.8389" y="-139" font-family="Helvetica,sans-Serif" font-size="10.00" fill="#000000">bogie</text>
<text text-anchor="middle" x="343.8389" y="-129" font-family="Helvetica,sans-Serif" font-size="10.00" fill="#000000">supports</text>
<text text-anchor="middle" x="343.8389" y="-119" font-family="Helvetica,sans-Serif" font-size="10.00" fill="#000000">seat</text>
<text text-anchor="middle" x="343.8389" y="-109" font-family="Helvetica,sans-Serif" font-size="10.00" fill="#000000">tunnel</text>
<text text-anchor="middle" x="343.8389" y="-99" font-family="Helvetica,sans-Serif" font-size="10.00" fill="#000000">rails</text>
<text text-anchor="middle" x="343.8389" y="-89" font-family="Helvetica,sans-Serif" font-size="10.00" fill="#000000">handrails</text>
<text text-anchor="middle" x="343.8389" y="-79" font-family="Helvetica,sans-Serif" font-size="10.00" fill="#000000">mainSpine</text>
<text text-anchor="middle" x="343.8389" y="-69" font-family="Helvetica,sans-Serif" font-size="10.00" fill="#000000">crossTies</text>
<text text-anchor="middle" x="343.8389" y="-59" font-family="Helvetica,sans-Serif" font-size="10.00" fill="#000000">wireframeTrack</text>
<text text-anchor="middle" x="343.8389" y="-49" font-family="Helvetica,sans-Serif" font-size="10.00" fill="#000000">...</text>
</g>
</g>
</svg>
