<?xml version="1.0" encoding="UTF-8" standalone="no"?>
<!DOCTYPE svg PUBLIC "-//W3C//DTD SVG 1.1//EN"
 "http://www.w3.org/Graphics/SVG/1.1/DTD/svg11.dtd">
<!-- Generated by graphviz version 2.40.1 (20161225.0304)
 -->
<!-- Title: NoLimits::NoLimits2::BeamNode Pages: 1 -->
<svg width="256pt" height="102pt"
 viewBox="0.00 0.00 256.15 102.00" xmlns="http://www.w3.org/2000/svg" xmlns:xlink="http://www.w3.org/1999/xlink">
<g id="graph0" class="graph" transform="scale(1 1) rotate(0) translate(4 98)">
<title>NoLimits::NoLimits2::BeamNode</title>
<!-- Node0 -->
<g id="node1" class="node">
<title>Node0</title>
<polygon fill="#bfbfbf" stroke="#000000" points="110.1182,-.5 110.1182,-28.5 215.0293,-28.5 215.0293,-.5 110.1182,-.5"/>
<text text-anchor="start" x="118.1182" y="-16.5" font-family="Helvetica,sans-Serif" font-size="10.00" fill="#000000">NoLimits::NoLimits2</text>
<text text-anchor="middle" x="162.5737" y="-6.5" font-family="Helvetica,sans-Serif" font-size="10.00" fill="#000000">::BeamNode</text>
</g>
<!-- Node1 -->
<g id="node2" class="node">
<title>Node1</title>
<g id="a_node2"><a xlink:href="class_no_limits_1_1_stream_1_1_chunk.html" target="_top" xlink:title="NoLimits::Stream::Chunk">
<polygon fill="none" stroke="#000000" points="0,-75.5 0,-93.5 127.1475,-93.5 127.1475,-75.5 0,-75.5"/>
<text text-anchor="middle" x="63.5737" y="-81.5" font-family="Helvetica,sans-Serif" font-size="10.00" fill="#000000">NoLimits::Stream::Chunk</text>
</a>
</g>
</g>
<!-- Node1&#45;&gt;Node0 -->
<g id="edge1" class="edge">
<title>Node1&#45;&gt;Node0</title>
<path fill="none" stroke="#191970" d="M84.7481,-69.5282C101.8092,-57.4648 125.637,-40.6169 142.4203,-28.7499"/>
<polygon fill="#191970" stroke="#191970" points="82.6607,-66.7176 76.5163,-75.3487 86.702,-72.4332 82.6607,-66.7176"/>
</g>
<!-- Node2 -->
<g id="node3" class="node">
<title>Node2</title>
<polygon fill="none" stroke="#bfbfbf" points="145.123,-75.5 145.123,-93.5 180.0244,-93.5 180.0244,-75.5 145.123,-75.5"/>
<text text-anchor="middle" x="162.5737" y="-81.5" font-family="Helvetica,sans-Serif" font-size="10.00" fill="#000000">float</text>
</g>
<!-- Node2&#45;&gt;Node0 -->
<g id="edge2" class="edge">
<title>Node2&#45;&gt;Node0</title>
<path fill="none" stroke="#9a32cd" stroke-dasharray="5,2" d="M162.5737,-65.0243C162.5737,-53.5169 162.5737,-39.2016 162.5737,-28.7499"/>
<polygon fill="#9a32cd" stroke="#9a32cd" points="159.0738,-65.3487 162.5737,-75.3487 166.0738,-65.3488 159.0738,-65.3487"/>
<text text-anchor="middle" x="181.1968" y="-49" font-family="Helvetica,sans-Serif" font-size="10.00" fill="#000000"> position</text>
</g>
<!-- Node3 -->
<g id="node4" class="node">
<title>Node3</title>
<polygon fill="none" stroke="#bfbfbf" points="205.1206,-75.5 205.1206,-93.5 240.0269,-93.5 240.0269,-75.5 205.1206,-75.5"/>
<text text-anchor="middle" x="222.5737" y="-81.5" font-family="Helvetica,sans-Serif" font-size="10.00" fill="#000000">bool</text>
</g>
<!-- Node3&#45;&gt;Node0 -->
<g id="edge3" class="edge">
<title>Node3&#45;&gt;Node0</title>
<path fill="none" stroke="#9a32cd" stroke-dasharray="5,2" d="M213.3921,-66.0961C209.8131,-59.7414 205.4063,-52.7736 200.5737,-47 195.0019,-40.3431 187.9847,-33.9278 181.5015,-28.5812"/>
<polygon fill="#9a32cd" stroke="#9a32cd" points="210.5032,-68.1194 218.2773,-75.3176 216.6888,-64.8426 210.5032,-68.1194"/>
<text text-anchor="middle" x="227.8618" y="-49" font-family="Helvetica,sans-Serif" font-size="10.00" fill="#000000"> isFlange</text>
</g>
</g>
</svg>
