<?xml version="1.0" encoding="UTF-8" standalone="no"?>
<!DOCTYPE svg PUBLIC "-//W3C//DTD SVG 1.1//EN"
 "http://www.w3.org/Graphics/SVG/1.1/DTD/svg11.dtd">
<!-- Generated by graphviz version 2.40.1 (20161225.0304)
 -->
<!-- Title: NoLimits::NoLimits2::TransferTable Pages: 1 -->
<svg width="755pt" height="348pt"
 viewBox="0.00 0.00 754.99 348.50" xmlns="http://www.w3.org/2000/svg" xmlns:xlink="http://www.w3.org/1999/xlink">
<g id="graph0" class="graph" transform="scale(1 1) rotate(0) translate(4 344.4953)">
<title>NoLimits::NoLimits2::TransferTable</title>
<!-- Node0 -->
<g id="node1" class="node">
<title>Node0</title>
<polygon fill="#bfbfbf" stroke="#000000" points="642.083,-91.9953 642.083,-119.9953 746.9941,-119.9953 746.9941,-91.9953 642.083,-91.9953"/>
<text text-anchor="start" x="650.083" y="-107.9953" font-family="Helvetica,sans-Serif" font-size="10.00" fill="#000000">NoLimits::NoLimits2</text>
<text text-anchor="middle" x="694.5386" y="-97.9953" font-family="Helvetica,sans-Serif" font-size="10.00" fill="#000000">::TransferTable</text>
</g>
<!-- Node1 -->
<g id="node2" class="node">
<title>Node1</title>
<g id="a_node2"><a xlink:href="class_no_limits_1_1_no_limits2_1_1_special_track.html" target="_top" xlink:title="NoLimits::NoLimits2\l::SpecialTrack">
<polygon fill="none" stroke="#000000" points="426.6943,-133.9953 426.6943,-161.9953 531.6055,-161.9953 531.6055,-133.9953 426.6943,-133.9953"/>
<text text-anchor="start" x="434.6943" y="-149.9953" font-family="Helvetica,sans-Serif" font-size="10.00" fill="#000000">NoLimits::NoLimits2</text>
<text text-anchor="middle" x="479.1499" y="-139.9953" font-family="Helvetica,sans-Serif" font-size="10.00" fill="#000000">::SpecialTrack</text>
</a>
</g>
</g>
<!-- Node1&#45;&gt;Node0 -->
<g id="edge1" class="edge">
<title>Node1&#45;&gt;Node0</title>
<path fill="none" stroke="#191970" d="M541.9154,-143.0313C567.595,-140.2691 597.4686,-136.113 624.083,-129.9953 635.2914,-127.419 647.222,-123.7332 658.018,-120.0209"/>
<polygon fill="#191970" stroke="#191970" points="541.5174,-139.5537 531.9281,-144.0589 542.2339,-146.5169 541.5174,-139.5537"/>
</g>
<!-- Node2 -->
<g id="node3" class="node">
<title>Node2</title>
<g id="a_node3"><a xlink:href="class_no_limits_1_1_no_limits2_1_1_track.html" target="_top" xlink:title="NoLimits::NoLimits2\l::Track">
<polygon fill="none" stroke="#ff0000" points="182.0723,-198.9953 182.0723,-226.9953 286.9834,-226.9953 286.9834,-198.9953 182.0723,-198.9953"/>
<text text-anchor="start" x="190.0723" y="-214.9953" font-family="Helvetica,sans-Serif" font-size="10.00" fill="#000000">NoLimits::NoLimits2</text>
<text text-anchor="middle" x="234.5278" y="-204.9953" font-family="Helvetica,sans-Serif" font-size="10.00" fill="#000000">::Track</text>
</a>
</g>
</g>
<!-- Node2&#45;&gt;Node1 -->
<g id="edge2" class="edge">
<title>Node2&#45;&gt;Node1</title>
<path fill="none" stroke="#191970" d="M297.248,-208.4767C330.9433,-204.7626 372.8151,-198.0534 408.6943,-185.9953 425.9516,-180.1956 443.9964,-170.381 457.5038,-162.1792"/>
<polygon fill="#191970" stroke="#191970" points="296.6531,-205.0196 287.0691,-209.5358 297.3776,-211.982 296.6531,-205.0196"/>
</g>
<!-- Node3 -->
<g id="node4" class="node">
<title>Node3</title>
<g id="a_node4"><a xlink:href="class_no_limits_1_1_stream_1_1_chunk.html" target="_top" xlink:title="NoLimits::Stream::Chunk">
<polygon fill="none" stroke="#000000" points="0,-243.9953 0,-261.9953 127.1475,-261.9953 127.1475,-243.9953 0,-243.9953"/>
<text text-anchor="middle" x="63.5737" y="-249.9953" font-family="Helvetica,sans-Serif" font-size="10.00" fill="#000000">NoLimits::Stream::Chunk</text>
</a>
</g>
</g>
<!-- Node3&#45;&gt;Node2 -->
<g id="edge3" class="edge">
<title>Node3&#45;&gt;Node2</title>
<path fill="none" stroke="#191970" d="M112.3757,-241.5766C134.125,-236.4877 159.7834,-230.4841 181.9558,-225.2962"/>
<polygon fill="#191970" stroke="#191970" points="111.3055,-238.2324 102.3659,-243.9187 112.9003,-245.0483 111.3055,-238.2324"/>
</g>
<!-- Node11 -->
<g id="node11" class="node">
<title>Node11</title>
<g id="a_node11"><a xlink:href="class_no_limits_1_1_no_limits2_1_1_section.html" target="_top" xlink:title="NoLimits::NoLimits2\l::Section">
<polygon fill="none" stroke="#000000" points="426.6943,-265.9953 426.6943,-293.9953 531.6055,-293.9953 531.6055,-265.9953 426.6943,-265.9953"/>
<text text-anchor="start" x="434.6943" y="-281.9953" font-family="Helvetica,sans-Serif" font-size="10.00" fill="#000000">NoLimits::NoLimits2</text>
<text text-anchor="middle" x="479.1499" y="-271.9953" font-family="Helvetica,sans-Serif" font-size="10.00" fill="#000000">::Section</text>
</a>
</g>
</g>
<!-- Node3&#45;&gt;Node11 -->
<g id="edge11" class="edge">
<title>Node3&#45;&gt;Node11</title>
<path fill="none" stroke="#191970" d="M108.9468,-264.2215C126.1294,-268.0093 145.9361,-271.8241 164.1475,-273.9953 255.9368,-284.9388 363.8155,-284.0483 426.5383,-282.1792"/>
<polygon fill="#191970" stroke="#191970" points="109.691,-260.8015 99.165,-262.0071 108.1454,-267.6288 109.691,-260.8015"/>
</g>
<!-- Node5 -->
<g id="node5" class="node">
<title>Node5</title>
<polygon fill="none" stroke="#bfbfbf" points="217.0771,-40.9953 217.0771,-58.9953 251.9785,-58.9953 251.9785,-40.9953 217.0771,-40.9953"/>
<text text-anchor="middle" x="234.5278" y="-46.9953" font-family="Helvetica,sans-Serif" font-size="10.00" fill="#000000">float</text>
</g>
<!-- Node5&#45;&gt;Node1 -->
<g id="edge4" class="edge">
<title>Node5&#45;&gt;Node1</title>
<path fill="none" stroke="#9a32cd" stroke-dasharray="5,2" d="M262.3985,-44.7641C300.0011,-39.3971 367.0567,-36.0191 408.6943,-69.9953 428.622,-86.2563 409.4099,-105.9486 426.6943,-124.9953 429.8351,-128.4563 433.5907,-131.4217 437.6295,-133.9568"/>
<polygon fill="#9a32cd" stroke="#9a32cd" points="261.5087,-41.3611 252.1767,-46.3776 262.6002,-48.2755 261.5087,-41.3611"/>
<text text-anchor="middle" x="365.8013" y="-71.9953" font-family="Helvetica,sans-Serif" font-size="10.00" fill="#000000"> switchTime</text>
</g>
<!-- Node6 -->
<g id="node6" class="node">
<title>Node6</title>
<polygon fill="none" stroke="#bfbfbf" points="186.9697,-3.9953 186.9697,-21.9953 282.0859,-21.9953 282.0859,-3.9953 186.9697,-3.9953"/>
<text text-anchor="middle" x="234.5278" y="-9.9953" font-family="Helvetica,sans-Serif" font-size="10.00" fill="#000000">SpecialTrackType</text>
</g>
<!-- Node6&#45;&gt;Node1 -->
<g id="edge5" class="edge">
<title>Node6&#45;&gt;Node1</title>
<path fill="none" stroke="#9a32cd" stroke-dasharray="5,2" d="M284.4894,-2.5249C323.2145,2.4714 375.6753,1.9497 408.6943,-27.9953 441.1739,-57.4511 399.4478,-90.6414 426.6943,-124.9953 429.4131,-128.4233 432.7469,-131.3524 436.404,-133.8528"/>
<polygon fill="#9a32cd" stroke="#9a32cd" points="283.8545,.9197 274.4605,-3.9795 284.8593,-6.0078 283.8545,.9197"/>
<text text-anchor="middle" x="365.8013" y="-29.9953" font-family="Helvetica,sans-Serif" font-size="10.00" fill="#000000"> _specialTrackType</text>
</g>
<!-- Node7 -->
<g id="node7" class="node">
<title>Node7</title>
<polygon fill="none" stroke="#bfbfbf" points="186.501,-161.9953 186.501,-179.9953 282.5547,-179.9953 282.5547,-161.9953 186.501,-161.9953"/>
<text text-anchor="middle" x="234.5278" y="-167.9953" font-family="Helvetica,sans-Serif" font-size="10.00" fill="#000000">vector&lt; uint32_t &gt;</text>
</g>
<!-- Node7&#45;&gt;Node1 -->
<g id="edge6" class="edge">
<title>Node7&#45;&gt;Node1</title>
<path fill="none" stroke="#9a32cd" stroke-dasharray="5,2" d="M292.6023,-165.535C333.268,-161.7115 387.1609,-156.6444 426.5608,-152.9399"/>
<polygon fill="#9a32cd" stroke="#9a32cd" points="292.1938,-162.0579 282.5654,-166.4787 292.8492,-169.0272 292.1938,-162.0579"/>
<text text-anchor="middle" x="365.8013" y="-173.9953" font-family="Helvetica,sans-Serif" font-size="10.00" fill="#000000"> output</text>
<text text-anchor="middle" x="365.8013" y="-163.9953" font-family="Helvetica,sans-Serif" font-size="10.00" fill="#000000">input</text>
</g>
<!-- Node8 -->
<g id="node8" class="node">
<title>Node8</title>
<polygon fill="none" stroke="#bfbfbf" points="214.3013,-245.9953 214.3013,-263.9953 254.7544,-263.9953 254.7544,-245.9953 214.3013,-245.9953"/>
<text text-anchor="middle" x="234.5278" y="-251.9953" font-family="Helvetica,sans-Serif" font-size="10.00" fill="#000000">string</text>
</g>
<!-- Node8&#45;&gt;Node1 -->
<g id="edge7" class="edge">
<title>Node8&#45;&gt;Node1</title>
<path fill="none" stroke="#9a32cd" stroke-dasharray="5,2" d="M265.3113,-251.2214C301.3859,-245.8404 362.1451,-233.7377 408.6943,-208.9953 431.5529,-196.8453 453.36,-176.0547 466.5008,-162.1703"/>
<polygon fill="#9a32cd" stroke="#9a32cd" points="264.3647,-247.8202 254.9513,-252.6822 265.3421,-254.7516 264.3647,-247.8202"/>
<text text-anchor="middle" x="365.8013" y="-240.9953" font-family="Helvetica,sans-Serif" font-size="10.00" fill="#000000"> name</text>
</g>
<!-- Node8&#45;&gt;Node11 -->
<g id="edge13" class="edge">
<title>Node8&#45;&gt;Node11</title>
<path fill="none" stroke="#9a32cd" stroke-dasharray="5,2" d="M264.9574,-256.7507C299.7725,-258.9192 358.4601,-263.0633 408.6943,-268.9953 414.4728,-269.6777 420.5043,-270.4803 426.5012,-271.3359"/>
<polygon fill="#9a32cd" stroke="#9a32cd" points="265.1492,-253.256 254.9549,-256.1414 264.7235,-260.243 265.1492,-253.256"/>
<text text-anchor="middle" x="365.8013" y="-270.9953" font-family="Helvetica,sans-Serif" font-size="10.00" fill="#000000"> name</text>
</g>
<!-- Node9 -->
<g id="node9" class="node">
<title>Node9</title>
<polygon fill="none" stroke="#bfbfbf" points="164.1475,-114.9953 164.1475,-142.9953 304.9082,-142.9953 304.9082,-114.9953 164.1475,-114.9953"/>
<text text-anchor="start" x="172.1475" y="-130.9953" font-family="Helvetica,sans-Serif" font-size="10.00" fill="#000000">vector&lt; NoLimits::NoLimits2</text>
<text text-anchor="middle" x="234.5278" y="-120.9953" font-family="Helvetica,sans-Serif" font-size="10.00" fill="#000000">::Segment * &gt;</text>
</g>
<!-- Node9&#45;&gt;Node1 -->
<g id="edge8" class="edge">
<title>Node9&#45;&gt;Node1</title>
<path fill="none" stroke="#9a32cd" stroke-dasharray="5,2" d="M315.2751,-129.2912C344.7439,-130.0536 378.2915,-131.6852 408.6943,-134.9953 414.506,-135.6281 420.5585,-136.4667 426.5676,-137.4142"/>
<polygon fill="#9a32cd" stroke="#9a32cd" points="315.1112,-125.7866 305.0336,-129.0564 314.9507,-132.7847 315.1112,-125.7866"/>
<text text-anchor="middle" x="365.8013" y="-136.9953" font-family="Helvetica,sans-Serif" font-size="10.00" fill="#000000"> segment</text>
</g>
<!-- Node10 -->
<g id="node10" class="node">
<title>Node10</title>
<polygon fill="none" stroke="#bfbfbf" points="215.9663,-77.9953 215.9663,-95.9953 253.0894,-95.9953 253.0894,-77.9953 215.9663,-77.9953"/>
<text text-anchor="middle" x="234.5278" y="-83.9953" font-family="Helvetica,sans-Serif" font-size="10.00" fill="#000000">vec3</text>
</g>
<!-- Node10&#45;&gt;Node1 -->
<g id="edge9" class="edge">
<title>Node10&#45;&gt;Node1</title>
<path fill="none" stroke="#9a32cd" stroke-dasharray="5,2" d="M263.5916,-83.87C299.682,-81.3156 362.162,-81.3303 408.6943,-104.9953 419.3538,-110.4164 417.0004,-117.9925 426.6943,-124.9953 431.2889,-128.3144 436.4379,-131.2957 441.6668,-133.9251"/>
<polygon fill="#9a32cd" stroke="#9a32cd" points="262.9629,-80.41 253.2852,-84.7219 263.5395,-87.3862 262.9629,-80.41"/>
<text text-anchor="middle" x="365.8013" y="-116.9953" font-family="Helvetica,sans-Serif" font-size="10.00" fill="#000000"> rotation</text>
<text text-anchor="middle" x="365.8013" y="-106.9953" font-family="Helvetica,sans-Serif" font-size="10.00" fill="#000000">position</text>
</g>
<!-- Node11&#45;&gt;Node0 -->
<g id="edge10" class="edge">
<title>Node11&#45;&gt;Node0</title>
<path fill="none" stroke="#9a32cd" stroke-dasharray="5,2" d="M504.751,-259.3137C549.0714,-223.5098 638.986,-150.8731 676.9709,-120.1872"/>
<polygon fill="#9a32cd" stroke="#9a32cd" points="502.3555,-256.7495 496.7761,-265.7562 506.7544,-262.1947 502.3555,-256.7495"/>
<text text-anchor="middle" x="586.8442" y="-219.9953" font-family="Helvetica,sans-Serif" font-size="10.00" fill="#000000"> section</text>
</g>
<!-- Node11&#45;&gt;Node11 -->
<g id="edge12" class="edge">
<title>Node11&#45;&gt;Node11</title>
<path fill="none" stroke="#9a32cd" stroke-dasharray="5,2" d="M459.9883,-303.9827C462.0229,-308.9367 468.4102,-312.4953 479.1499,-312.4953 496.3335,-312.4953 502.3746,-303.3851 497.2732,-294.0258"/>
<polygon fill="#9a32cd" stroke="#9a32cd" points="463.4704,-304.3349 461.0266,-294.0258 456.5082,-303.6088 463.4704,-304.3349"/>
<text text-anchor="middle" x="479.1499" y="-314.4953" font-family="Helvetica,sans-Serif" font-size="10.00" fill="#000000"> section</text>
</g>
<!-- Node12 -->
<g id="node12" class="node">
<title>Node12</title>
<polygon fill="none" stroke="#bfbfbf" points="199.0083,-321.9953 199.0083,-339.9953 270.0474,-339.9953 270.0474,-321.9953 199.0083,-321.9953"/>
<text text-anchor="middle" x="234.5278" y="-327.9953" font-family="Helvetica,sans-Serif" font-size="10.00" fill="#000000">SectionType</text>
</g>
<!-- Node12&#45;&gt;Node11 -->
<g id="edge14" class="edge">
<title>Node12&#45;&gt;Node11</title>
<path fill="none" stroke="#9a32cd" stroke-dasharray="5,2" d="M280.3967,-327.5629C315.843,-324.2196 365.9121,-317.9854 408.6943,-306.9953 421.5086,-303.7036 435.1783,-298.8065 447.0339,-294.0833"/>
<polygon fill="#9a32cd" stroke="#9a32cd" points="279.9929,-324.085 270.3482,-328.4703 280.6225,-331.0567 279.9929,-324.085"/>
<text text-anchor="middle" x="365.8013" y="-323.9953" font-family="Helvetica,sans-Serif" font-size="10.00" fill="#000000"> _sectionType</text>
</g>
<!-- Node13 -->
<g id="node13" class="node">
<title>Node13</title>
<polygon fill="none" stroke="#bfbfbf" points="456.1353,-96.9953 456.1353,-114.9953 502.1646,-114.9953 502.1646,-96.9953 456.1353,-96.9953"/>
<text text-anchor="middle" x="479.1499" y="-102.9953" font-family="Helvetica,sans-Serif" font-size="10.00" fill="#000000">double</text>
</g>
<!-- Node13&#45;&gt;Node0 -->
<g id="edge15" class="edge">
<title>Node13&#45;&gt;Node0</title>
<path fill="none" stroke="#9a32cd" stroke-dasharray="5,2" d="M512.2315,-105.9953C546.7581,-105.9953 601.4047,-105.9953 641.8744,-105.9953"/>
<polygon fill="#9a32cd" stroke="#9a32cd" points="512.2003,-102.4954 502.2003,-105.9953 512.2002,-109.4954 512.2003,-102.4954"/>
<text text-anchor="middle" x="586.8442" y="-117.9953" font-family="Helvetica,sans-Serif" font-size="10.00" fill="#000000"> length</text>
<text text-anchor="middle" x="586.8442" y="-107.9953" font-family="Helvetica,sans-Serif" font-size="10.00" fill="#000000">distance</text>
</g>
<!-- Node14 -->
<g id="node14" class="node">
<title>Node14</title>
<polygon fill="none" stroke="#bfbfbf" points="434.4702,-59.9953 434.4702,-77.9953 523.8296,-77.9953 523.8296,-59.9953 434.4702,-59.9953"/>
<text text-anchor="middle" x="479.1499" y="-65.9953" font-family="Helvetica,sans-Serif" font-size="10.00" fill="#000000">DisplayStructure</text>
</g>
<!-- Node14&#45;&gt;Node0 -->
<g id="edge16" class="edge">
<title>Node14&#45;&gt;Node0</title>
<path fill="none" stroke="#9a32cd" stroke-dasharray="5,2" d="M534.0327,-77.1917C561.1722,-81.3754 594.3942,-86.692 624.083,-91.9953 629.853,-93.026 635.8792,-94.1502 641.873,-95.2987"/>
<polygon fill="#9a32cd" stroke="#9a32cd" points="534.3639,-73.7017 523.949,-75.6461 533.3033,-80.6209 534.3639,-73.7017"/>
<text text-anchor="middle" x="586.8442" y="-93.9953" font-family="Helvetica,sans-Serif" font-size="10.00" fill="#000000"> displayStructure</text>
</g>
<!-- Node15 -->
<g id="node15" class="node">
<title>Node15</title>
<polygon fill="none" stroke="#bfbfbf" points="453.3569,-22.9953 453.3569,-40.9953 504.9429,-40.9953 504.9429,-22.9953 453.3569,-22.9953"/>
<text text-anchor="middle" x="479.1499" y="-28.9953" font-family="Helvetica,sans-Serif" font-size="10.00" fill="#000000">uint32_t</text>
</g>
<!-- Node15&#45;&gt;Node0 -->
<g id="edge17" class="edge">
<title>Node15&#45;&gt;Node0</title>
<path fill="none" stroke="#9a32cd" stroke-dasharray="5,2" d="M514.9189,-37.4465C544.7879,-42.6871 588.1342,-51.9117 624.083,-65.9953 641.5014,-72.8193 659.8378,-83.3493 673.437,-91.8926"/>
<polygon fill="#9a32cd" stroke="#9a32cd" points="515.3943,-33.9772 504.9501,-35.7575 514.2249,-40.8789 515.3943,-33.9772"/>
<text text-anchor="middle" x="586.8442" y="-67.9953" font-family="Helvetica,sans-Serif" font-size="10.00" fill="#000000"> defaultTrack</text>
</g>
</g>
</svg>
