<?xml version="1.0" encoding="UTF-8" standalone="no"?>
<!DOCTYPE svg PUBLIC "-//W3C//DTD SVG 1.1//EN"
 "http://www.w3.org/Graphics/SVG/1.1/DTD/svg11.dtd">
<!-- Generated by graphviz version 2.40.1 (20161225.0304)
 -->
<!-- Title: NoLimits::NoLimits2::BeamConnection Pages: 1 -->
<svg width="260pt" height="122pt"
 viewBox="0.00 0.00 260.42 122.00" xmlns="http://www.w3.org/2000/svg" xmlns:xlink="http://www.w3.org/1999/xlink">
<g id="graph0" class="graph" transform="scale(1 1) rotate(0) translate(4 118)">
<title>NoLimits::NoLimits2::BeamConnection</title>
<!-- Node0 -->
<g id="node1" class="node">
<title>Node0</title>
<polygon fill="#bfbfbf" stroke="#000000" points="118.1182,-.5 118.1182,-28.5 223.0293,-28.5 223.0293,-.5 118.1182,-.5"/>
<text text-anchor="start" x="126.1182" y="-16.5" font-family="Helvetica,sans-Serif" font-size="10.00" fill="#000000">NoLimits::NoLimits2</text>
<text text-anchor="middle" x="170.5737" y="-6.5" font-family="Helvetica,sans-Serif" font-size="10.00" fill="#000000">::BeamConnection</text>
</g>
<!-- Node1 -->
<g id="node2" class="node">
<title>Node1</title>
<g id="a_node2"><a xlink:href="class_no_limits_1_1_stream_1_1_chunk.html" target="_top" xlink:title="NoLimits::Stream::Chunk">
<polygon fill="none" stroke="#000000" points="0,-95.5 0,-113.5 127.1475,-113.5 127.1475,-95.5 0,-95.5"/>
<text text-anchor="middle" x="63.5737" y="-101.5" font-family="Helvetica,sans-Serif" font-size="10.00" fill="#000000">NoLimits::Stream::Chunk</text>
</a>
</g>
</g>
<!-- Node1&#45;&gt;Node0 -->
<g id="edge1" class="edge">
<title>Node1&#45;&gt;Node0</title>
<path fill="none" stroke="#191970" d="M82.5145,-88.5685C102.7396,-71.5567 134.484,-44.8559 153.8256,-28.5872"/>
<polygon fill="#191970" stroke="#191970" points="80.0215,-86.0919 74.6216,-95.2074 84.5274,-91.4489 80.0215,-86.0919"/>
</g>
<!-- Node2 -->
<g id="node3" class="node">
<title>Node2</title>
<polygon fill="none" stroke="#bfbfbf" points="144.7808,-95.5 144.7808,-113.5 196.3667,-113.5 196.3667,-95.5 144.7808,-95.5"/>
<text text-anchor="middle" x="170.5737" y="-101.5" font-family="Helvetica,sans-Serif" font-size="10.00" fill="#000000">uint32_t</text>
</g>
<!-- Node2&#45;&gt;Node0 -->
<g id="edge2" class="edge">
<title>Node2&#45;&gt;Node0</title>
<path fill="none" stroke="#9a32cd" stroke-dasharray="5,2" d="M170.5737,-84.7822C170.5737,-67.7955 170.5737,-43.6938 170.5737,-28.5872"/>
<polygon fill="#9a32cd" stroke="#9a32cd" points="167.0738,-85.2074 170.5737,-95.2074 174.0738,-85.2074 167.0738,-85.2074"/>
<text text-anchor="middle" x="186.6968" y="-69" font-family="Helvetica,sans-Serif" font-size="10.00" fill="#000000"> index1</text>
<text text-anchor="middle" x="186.6968" y="-59" font-family="Helvetica,sans-Serif" font-size="10.00" fill="#000000">index2</text>
<text text-anchor="middle" x="186.6968" y="-49" font-family="Helvetica,sans-Serif" font-size="10.00" fill="#000000">index3</text>
</g>
<!-- Node3 -->
<g id="node4" class="node">
<title>Node3</title>
<polygon fill="none" stroke="#bfbfbf" points="214.7314,-95.5 214.7314,-113.5 252.416,-113.5 252.416,-95.5 214.7314,-95.5"/>
<text text-anchor="middle" x="233.5737" y="-101.5" font-family="Helvetica,sans-Serif" font-size="10.00" fill="#000000">Type</text>
</g>
<!-- Node3&#45;&gt;Node0 -->
<g id="edge3" class="edge">
<title>Node3&#45;&gt;Node0</title>
<path fill="none" stroke="#9a32cd" stroke-dasharray="5,2" d="M226.9352,-85.6533C222.2759,-73.894 215.3209,-58.8042 206.5737,-47 201.6609,-40.3701 195.2338,-34.0535 189.1718,-28.7819"/>
<polygon fill="#9a32cd" stroke="#9a32cd" points="223.772,-87.187 230.5543,-95.3264 230.3282,-84.734 223.772,-87.187"/>
<text text-anchor="middle" x="233.4136" y="-59" font-family="Helvetica,sans-Serif" font-size="10.00" fill="#000000"> type</text>
</g>
</g>
</svg>
