<?xml version="1.0" encoding="UTF-8" standalone="no"?>
<!DOCTYPE svg PUBLIC "-//W3C//DTD SVG 1.1//EN"
 "http://www.w3.org/Graphics/SVG/1.1/DTD/svg11.dtd">
<!-- Generated by graphviz version 2.40.1 (20161225.0304)
 -->
<!-- Title: NoLimits::NoLimits2::RollPoint Pages: 1 -->
<svg width="257pt" height="112pt"
 viewBox="0.00 0.00 257.25 112.00" xmlns="http://www.w3.org/2000/svg" xmlns:xlink="http://www.w3.org/1999/xlink">
<g id="graph0" class="graph" transform="scale(1 1) rotate(0) translate(4 108)">
<title>NoLimits::NoLimits2::RollPoint</title>
<!-- Node0 -->
<g id="node1" class="node">
<title>Node0</title>
<polygon fill="#bfbfbf" stroke="#000000" points="116.1182,-.5 116.1182,-28.5 221.0293,-28.5 221.0293,-.5 116.1182,-.5"/>
<text text-anchor="start" x="124.1182" y="-16.5" font-family="Helvetica,sans-Serif" font-size="10.00" fill="#000000">NoLimits::NoLimits2</text>
<text text-anchor="middle" x="168.5737" y="-6.5" font-family="Helvetica,sans-Serif" font-size="10.00" fill="#000000">::RollPoint</text>
</g>
<!-- Node1 -->
<g id="node2" class="node">
<title>Node1</title>
<g id="a_node2"><a xlink:href="class_no_limits_1_1_stream_1_1_chunk.html" target="_top" xlink:title="NoLimits::Stream::Chunk">
<polygon fill="none" stroke="#000000" points="0,-85.5 0,-103.5 127.1475,-103.5 127.1475,-85.5 0,-85.5"/>
<text text-anchor="middle" x="63.5737" y="-91.5" font-family="Helvetica,sans-Serif" font-size="10.00" fill="#000000">NoLimits::Stream::Chunk</text>
</a>
</g>
</g>
<!-- Node1&#45;&gt;Node0 -->
<g id="edge1" class="edge">
<title>Node1&#45;&gt;Node0</title>
<path fill="none" stroke="#191970" d="M83.6751,-79.1847C102.8042,-64.6101 131.3554,-42.8568 149.9719,-28.6728"/>
<polygon fill="#191970" stroke="#191970" points="81.4517,-76.4785 75.6186,-85.323 85.6941,-82.0465 81.4517,-76.4785"/>
</g>
<!-- Node2 -->
<g id="node3" class="node">
<title>Node2</title>
<polygon fill="none" stroke="#bfbfbf" points="145.5591,-85.5 145.5591,-103.5 191.5884,-103.5 191.5884,-85.5 145.5591,-85.5"/>
<text text-anchor="middle" x="168.5737" y="-91.5" font-family="Helvetica,sans-Serif" font-size="10.00" fill="#000000">double</text>
</g>
<!-- Node2&#45;&gt;Node0 -->
<g id="edge2" class="edge">
<title>Node2&#45;&gt;Node0</title>
<path fill="none" stroke="#9a32cd" stroke-dasharray="5,2" d="M168.5737,-75.0816C168.5737,-60.7521 168.5737,-41.579 168.5737,-28.6728"/>
<polygon fill="#9a32cd" stroke="#9a32cd" points="165.0738,-75.3229 168.5737,-85.323 172.0738,-75.323 165.0738,-75.3229"/>
<text text-anchor="middle" x="187.1968" y="-59" font-family="Helvetica,sans-Serif" font-size="10.00" fill="#000000"> position</text>
<text text-anchor="middle" x="187.1968" y="-49" font-family="Helvetica,sans-Serif" font-size="10.00" fill="#000000">roll</text>
</g>
<!-- Node3 -->
<g id="node4" class="node">
<title>Node3</title>
<polygon fill="none" stroke="#bfbfbf" points="211.1206,-85.5 211.1206,-103.5 246.0269,-103.5 246.0269,-85.5 211.1206,-85.5"/>
<text text-anchor="middle" x="228.5737" y="-91.5" font-family="Helvetica,sans-Serif" font-size="10.00" fill="#000000">bool</text>
</g>
<!-- Node3&#45;&gt;Node0 -->
<g id="edge3" class="edge">
<title>Node3&#45;&gt;Node0</title>
<path fill="none" stroke="#9a32cd" stroke-dasharray="5,2" d="M222.1773,-76.0257C218.4596,-66.7836 213.1941,-55.7359 206.5737,-47 201.4354,-40.2197 194.6623,-33.8678 188.2592,-28.61"/>
<polygon fill="#9a32cd" stroke="#9a32cd" points="218.9286,-77.3309 225.7069,-85.4737 225.4859,-74.8811 218.9286,-77.3309"/>
<text text-anchor="middle" x="233.4111" y="-59" font-family="Helvetica,sans-Serif" font-size="10.00" fill="#000000"> strict</text>
<text text-anchor="middle" x="233.4111" y="-49" font-family="Helvetica,sans-Serif" font-size="10.00" fill="#000000">vertical</text>
</g>
</g>
</svg>
