<?xml version="1.0" encoding="UTF-8" standalone="no"?>
<!DOCTYPE svg PUBLIC "-//W3C//DTD SVG 1.1//EN"
 "http://www.w3.org/Graphics/SVG/1.1/DTD/svg11.dtd">
<!-- Generated by graphviz version 2.40.1 (20161225.0304)
 -->
<!-- Title: NoLimits::NoLimits2::Terrain Pages: 1 -->
<svg width="687pt" height="281pt"
 viewBox="0.00 0.00 687.38 281.16" xmlns="http://www.w3.org/2000/svg" xmlns:xlink="http://www.w3.org/1999/xlink">
<g id="graph0" class="graph" transform="scale(1 1) rotate(0) translate(4 277.1617)">
<title>NoLimits::NoLimits2::Terrain</title>
<!-- Node0 -->
<g id="node1" class="node">
<title>Node0</title>
<polygon fill="#bfbfbf" stroke="#000000" points="574.4688,-116.5 574.4688,-144.5 679.3799,-144.5 679.3799,-116.5 574.4688,-116.5"/>
<text text-anchor="start" x="582.4688" y="-132.5" font-family="Helvetica,sans-Serif" font-size="10.00" fill="#000000">NoLimits::NoLimits2</text>
<text text-anchor="middle" x="626.9243" y="-122.5" font-family="Helvetica,sans-Serif" font-size="10.00" fill="#000000">::Terrain</text>
</g>
<!-- Node1 -->
<g id="node2" class="node">
<title>Node1</title>
<g id="a_node2"><a xlink:href="class_no_limits_1_1_stream_1_1_chunk.html" target="_top" xlink:title="NoLimits::Stream::Chunk">
<polygon fill="none" stroke="#000000" points="0,-243.5 0,-261.5 127.1475,-261.5 127.1475,-243.5 0,-243.5"/>
<text text-anchor="middle" x="63.5737" y="-249.5" font-family="Helvetica,sans-Serif" font-size="10.00" fill="#000000">NoLimits::Stream::Chunk</text>
</a>
</g>
</g>
<!-- Node1&#45;&gt;Node0 -->
<g id="edge1" class="edge">
<title>Node1&#45;&gt;Node0</title>
<path fill="none" stroke="#191970" d="M124.9589,-262.9417C223.2751,-276.4126 418.9543,-289.5889 556.4688,-210.5 584.5443,-194.3529 607.1592,-162.8979 618.6595,-144.6093"/>
<polygon fill="#191970" stroke="#191970" points="125.286,-259.4531 114.8936,-261.5145 124.3032,-266.3838 125.286,-259.4531"/>
</g>
<!-- Node6 -->
<g id="node7" class="node">
<title>Node6</title>
<g id="a_node7"><a xlink:href="class_no_limits_1_1_no_limits2_1_1_water.html" target="_top" xlink:title="NoLimits::NoLimits2\l::Water">
<polygon fill="none" stroke="#000000" points="317.2539,-195.5 317.2539,-223.5 422.165,-223.5 422.165,-195.5 317.2539,-195.5"/>
<text text-anchor="start" x="325.2539" y="-211.5" font-family="Helvetica,sans-Serif" font-size="10.00" fill="#000000">NoLimits::NoLimits2</text>
<text text-anchor="middle" x="369.7095" y="-201.5" font-family="Helvetica,sans-Serif" font-size="10.00" fill="#000000">::Water</text>
</a>
</g>
</g>
<!-- Node1&#45;&gt;Node6 -->
<g id="edge7" class="edge">
<title>Node1&#45;&gt;Node6</title>
<path fill="none" stroke="#191970" d="M137.5088,-242.115C193.0185,-234.3181 267.6796,-223.8312 317.1828,-216.8779"/>
<polygon fill="#191970" stroke="#191970" points="136.7931,-238.6811 127.3772,-243.5381 137.7668,-245.6131 136.7931,-238.6811"/>
</g>
<!-- Node2 -->
<g id="node3" class="node">
<title>Node2</title>
<polygon fill="none" stroke="#bfbfbf" points="326.6899,-158.5 326.6899,-176.5 412.729,-176.5 412.729,-158.5 326.6899,-158.5"/>
<text text-anchor="middle" x="369.7095" y="-164.5" font-family="Helvetica,sans-Serif" font-size="10.00" fill="#000000">vector&lt; float * &gt;</text>
</g>
<!-- Node2&#45;&gt;Node0 -->
<g id="edge2" class="edge">
<title>Node2&#45;&gt;Node0</title>
<path fill="none" stroke="#9a32cd" stroke-dasharray="5,2" d="M423.0377,-161.9881C460.4744,-157.8611 511.655,-151.7019 556.4688,-144.5 562.2559,-143.57 568.2929,-142.5095 574.2929,-141.3979"/>
<polygon fill="#9a32cd" stroke="#9a32cd" points="422.4216,-158.5345 412.8598,-163.0975 423.1802,-165.4933 422.4216,-158.5345"/>
<text text-anchor="middle" x="507.2793" y="-159.5" font-family="Helvetica,sans-Serif" font-size="10.00" fill="#000000"> terrainIntensityLayers</text>
</g>
<!-- Node3 -->
<g id="node4" class="node">
<title>Node3</title>
<polygon fill="none" stroke="#bfbfbf" points="348.9238,-121.5 348.9238,-139.5 390.4951,-139.5 390.4951,-121.5 348.9238,-121.5"/>
<text text-anchor="middle" x="369.7095" y="-127.5" font-family="Helvetica,sans-Serif" font-size="10.00" fill="#000000">float *</text>
</g>
<!-- Node3&#45;&gt;Node0 -->
<g id="edge3" class="edge">
<title>Node3&#45;&gt;Node0</title>
<path fill="none" stroke="#9a32cd" stroke-dasharray="5,2" d="M400.9129,-130.5C443.9812,-130.5 522.2253,-130.5 574.3944,-130.5"/>
<polygon fill="#9a32cd" stroke="#9a32cd" points="400.7585,-127.0001 390.7584,-130.5 400.7584,-134.0001 400.7585,-127.0001"/>
<text text-anchor="middle" x="507.2793" y="-132.5" font-family="Helvetica,sans-Serif" font-size="10.00" fill="#000000"> terrainData</text>
</g>
<!-- Node4 -->
<g id="node5" class="node">
<title>Node4</title>
<polygon fill="none" stroke="#bfbfbf" points="299.3291,-74.5 299.3291,-102.5 440.0898,-102.5 440.0898,-74.5 299.3291,-74.5"/>
<text text-anchor="start" x="307.3291" y="-90.5" font-family="Helvetica,sans-Serif" font-size="10.00" fill="#000000">vector&lt; NoLimits::NoLimits2</text>
<text text-anchor="middle" x="369.7095" y="-80.5" font-family="Helvetica,sans-Serif" font-size="10.00" fill="#000000">::Layer * &gt;</text>
</g>
<!-- Node4&#45;&gt;Node0 -->
<g id="edge4" class="edge">
<title>Node4&#45;&gt;Node0</title>
<path fill="none" stroke="#9a32cd" stroke-dasharray="5,2" d="M450.3803,-99.7429C483.3323,-104.5568 521.7823,-110.4571 556.4688,-116.5 562.2432,-117.506 568.2721,-118.6145 574.2675,-119.7539"/>
<polygon fill="#9a32cd" stroke="#9a32cd" points="450.7398,-96.2584 440.3406,-98.2848 449.7337,-103.1858 450.7398,-96.2584"/>
<text text-anchor="middle" x="507.2793" y="-118.5" font-family="Helvetica,sans-Serif" font-size="10.00" fill="#000000"> layer</text>
</g>
<!-- Node5 -->
<g id="node6" class="node">
<title>Node5</title>
<polygon fill="none" stroke="#bfbfbf" points="343.9165,-37.5 343.9165,-55.5 395.5024,-55.5 395.5024,-37.5 343.9165,-37.5"/>
<text text-anchor="middle" x="369.7095" y="-43.5" font-family="Helvetica,sans-Serif" font-size="10.00" fill="#000000">uint32_t</text>
</g>
<!-- Node5&#45;&gt;Node0 -->
<g id="edge5" class="edge">
<title>Node5&#45;&gt;Node0</title>
<path fill="none" stroke="#9a32cd" stroke-dasharray="5,2" d="M405.8394,-47.0987C444.5624,-48.9083 507.119,-55.2498 556.4688,-76.5 578.4087,-85.9474 599.6092,-103.7506 612.9227,-116.3279"/>
<polygon fill="#9a32cd" stroke="#9a32cd" points="405.7087,-43.5911 395.5803,-46.6998 405.4367,-50.5858 405.7087,-43.5911"/>
<text text-anchor="middle" x="507.2793" y="-88.5" font-family="Helvetica,sans-Serif" font-size="10.00" fill="#000000"> vertexDimX</text>
<text text-anchor="middle" x="507.2793" y="-78.5" font-family="Helvetica,sans-Serif" font-size="10.00" fill="#000000">vertexDimY</text>
</g>
<!-- Node6&#45;&gt;Node0 -->
<g id="edge6" class="edge">
<title>Node6&#45;&gt;Node0</title>
<path fill="none" stroke="#9a32cd" stroke-dasharray="5,2" d="M432.6447,-201.923C469.5552,-196.204 516.6164,-186.6772 556.4688,-171.5 574.4555,-164.65 593.2158,-153.5068 606.8514,-144.5652"/>
<polygon fill="#9a32cd" stroke="#9a32cd" points="431.8904,-198.4968 422.5176,-203.4366 432.9252,-205.4199 431.8904,-198.4968"/>
<text text-anchor="middle" x="507.2793" y="-198.5" font-family="Helvetica,sans-Serif" font-size="10.00" fill="#000000"> water</text>
</g>
<!-- Node7 -->
<g id="node8" class="node">
<title>Node7</title>
<polygon fill="none" stroke="#bfbfbf" points="30.564,-200.5 30.564,-218.5 96.5835,-218.5 96.5835,-200.5 30.564,-200.5"/>
<text text-anchor="middle" x="63.5737" y="-206.5" font-family="Helvetica,sans-Serif" font-size="10.00" fill="#000000">TerrainMap</text>
</g>
<!-- Node7&#45;&gt;Node6 -->
<g id="edge8" class="edge">
<title>Node7&#45;&gt;Node6</title>
<path fill="none" stroke="#9a32cd" stroke-dasharray="5,2" d="M106.7893,-209.5C162.0608,-209.5 257.7191,-209.5 317.1492,-209.5"/>
<polygon fill="#9a32cd" stroke="#9a32cd" points="106.6265,-206.0001 96.6265,-209.5 106.6265,-213.0001 106.6265,-206.0001"/>
<text text-anchor="middle" x="213.2383" y="-211.5" font-family="Helvetica,sans-Serif" font-size="10.00" fill="#000000"> bumpMapType</text>
</g>
<!-- Node8 -->
<g id="node9" class="node">
<title>Node8</title>
<polygon fill="none" stroke="#bfbfbf" points="46.123,-107.5 46.123,-125.5 81.0244,-125.5 81.0244,-107.5 46.123,-107.5"/>
<text text-anchor="middle" x="63.5737" y="-113.5" font-family="Helvetica,sans-Serif" font-size="10.00" fill="#000000">float</text>
</g>
<!-- Node8&#45;&gt;Node6 -->
<g id="edge9" class="edge">
<title>Node8&#45;&gt;Node6</title>
<path fill="none" stroke="#9a32cd" stroke-dasharray="5,2" d="M90.9396,-110.2982C135.787,-101.8341 225.512,-92.2455 281.3291,-135.5 300.3289,-150.2236 282.1344,-169.7036 299.3291,-186.5 304.3867,-191.4404 310.5196,-195.3196 317.0325,-198.3655"/>
<polygon fill="#9a32cd" stroke="#9a32cd" points="90.1735,-106.8821 81.0594,-112.2844 91.5531,-113.7448 90.1735,-106.8821"/>
<text text-anchor="middle" x="213.2383" y="-197.5" font-family="Helvetica,sans-Serif" font-size="10.00" fill="#000000"> waves</text>
<text text-anchor="middle" x="213.2383" y="-187.5" font-family="Helvetica,sans-Serif" font-size="10.00" fill="#000000">density</text>
<text text-anchor="middle" x="213.2383" y="-177.5" font-family="Helvetica,sans-Serif" font-size="10.00" fill="#000000">bumpMapRepeatsPerDistance</text>
<text text-anchor="middle" x="213.2383" y="-167.5" font-family="Helvetica,sans-Serif" font-size="10.00" fill="#000000">bumpMapHeightMapScale</text>
<text text-anchor="middle" x="213.2383" y="-157.5" font-family="Helvetica,sans-Serif" font-size="10.00" fill="#000000">reflection</text>
<text text-anchor="start" x="145.1475" y="-147.5" font-family="Helvetica,sans-Serif" font-size="10.00" fill="#000000">diffuseTextureRepeatsPer</text>
<text text-anchor="middle" x="213.2383" y="-137.5" font-family="Helvetica,sans-Serif" font-size="10.00" fill="#000000">Distance</text>
</g>
<!-- Node9 -->
<g id="node10" class="node">
<title>Node9</title>
<polygon fill="none" stroke="#bfbfbf" points="43.3472,-64.5 43.3472,-82.5 83.8003,-82.5 83.8003,-64.5 43.3472,-64.5"/>
<text text-anchor="middle" x="63.5737" y="-70.5" font-family="Helvetica,sans-Serif" font-size="10.00" fill="#000000">string</text>
</g>
<!-- Node9&#45;&gt;Node6 -->
<g id="edge10" class="edge">
<title>Node9&#45;&gt;Node6</title>
<path fill="none" stroke="#9a32cd" stroke-dasharray="5,2" d="M93.7279,-63.4617C140.093,-50.1186 229.0019,-33.1303 281.3291,-78.5 318.0958,-110.3781 267.6078,-149.5979 299.3291,-186.5 304.1893,-192.1539 310.4598,-196.4265 317.2522,-199.6535"/>
<polygon fill="#9a32cd" stroke="#9a32cd" points="92.5392,-60.1643 83.9724,-66.398 94.5568,-66.8672 92.5392,-60.1643"/>
<text text-anchor="middle" x="213.2383" y="-90.5" font-family="Helvetica,sans-Serif" font-size="10.00" fill="#000000"> diffuseTexture</text>
<text text-anchor="middle" x="213.2383" y="-80.5" font-family="Helvetica,sans-Serif" font-size="10.00" fill="#000000">bumpMapTexture</text>
</g>
<!-- Node10 -->
<g id="node11" class="node">
<title>Node10</title>
<polygon fill="none" stroke="#bfbfbf" points="330.0249,-.5 330.0249,-18.5 409.394,-18.5 409.394,-.5 330.0249,-.5"/>
<text text-anchor="middle" x="369.7095" y="-6.5" font-family="Helvetica,sans-Serif" font-size="10.00" fill="#000000">vector&lt; float &gt;</text>
</g>
<!-- Node10&#45;&gt;Node0 -->
<g id="edge11" class="edge">
<title>Node10&#45;&gt;Node0</title>
<path fill="none" stroke="#9a32cd" stroke-dasharray="5,2" d="M419.6393,-7.0255C459.3441,-7.2954 514.9294,-12.8458 556.4688,-37.5 588.1714,-56.316 610.4074,-95.3832 620.6135,-116.3967"/>
<polygon fill="#9a32cd" stroke="#9a32cd" points="419.3815,-3.5265 409.3968,-7.0698 419.4119,-10.5264 419.3815,-3.5265"/>
<text text-anchor="middle" x="507.2793" y="-39.5" font-family="Helvetica,sans-Serif" font-size="10.00" fill="#000000"> textureRepeats</text>
</g>
</g>
</svg>
