<?xml version="1.0" encoding="UTF-8" standalone="no"?>
<!DOCTYPE svg PUBLIC "-//W3C//DTD SVG 1.1//EN"
 "http://www.w3.org/Graphics/SVG/1.1/DTD/svg11.dtd">
<!-- Generated by graphviz version 2.40.1 (20161225.0304)
 -->
<!-- Title: NoLimits::NoLimits1::Colors Pages: 1 -->
<svg width="327pt" height="182pt"
 viewBox="0.00 0.00 327.04 182.00" xmlns="http://www.w3.org/2000/svg" xmlns:xlink="http://www.w3.org/1999/xlink">
<g id="graph0" class="graph" transform="scale(1 1) rotate(0) translate(4 178)">
<title>NoLimits::NoLimits1::Colors</title>
<!-- Node0 -->
<g id="node1" class="node">
<title>Node0</title>
<polygon fill="#bfbfbf" stroke="#000000" points="110.1182,-.5 110.1182,-28.5 215.0293,-28.5 215.0293,-.5 110.1182,-.5"/>
<text text-anchor="start" x="118.1182" y="-16.5" font-family="Helvetica,sans-Serif" font-size="10.00" fill="#000000">NoLimits::NoLimits1</text>
<text text-anchor="middle" x="162.5737" y="-6.5" font-family="Helvetica,sans-Serif" font-size="10.00" fill="#000000">::Colors</text>
</g>
<!-- Node1 -->
<g id="node2" class="node">
<title>Node1</title>
<g id="a_node2"><a xlink:href="class_no_limits_1_1_stream_1_1_chunk.html" target="_top" xlink:title="NoLimits::Stream::Chunk">
<polygon fill="none" stroke="#000000" points="0,-155.5 0,-173.5 127.1475,-173.5 127.1475,-155.5 0,-155.5"/>
<text text-anchor="middle" x="63.5737" y="-161.5" font-family="Helvetica,sans-Serif" font-size="10.00" fill="#000000">NoLimits::Stream::Chunk</text>
</a>
</g>
</g>
<!-- Node1&#45;&gt;Node0 -->
<g id="edge1" class="edge">
<title>Node1&#45;&gt;Node0</title>
<path fill="none" stroke="#191970" d="M75.5048,-146.4226C95.4871,-116.1464 135.2999,-55.824 153.3254,-28.5127"/>
<polygon fill="#191970" stroke="#191970" points="72.354,-144.8428 69.7666,-155.1168 78.1962,-148.6987 72.354,-144.8428"/>
</g>
<!-- Node2 -->
<g id="node3" class="node">
<title>Node2</title>
<polygon fill="none" stroke="#bfbfbf" points="145.1206,-155.5 145.1206,-173.5 180.0269,-173.5 180.0269,-155.5 145.1206,-155.5"/>
<text text-anchor="middle" x="162.5737" y="-161.5" font-family="Helvetica,sans-Serif" font-size="10.00" fill="#000000">bool</text>
</g>
<!-- Node2&#45;&gt;Node0 -->
<g id="edge2" class="edge">
<title>Node2&#45;&gt;Node0</title>
<path fill="none" stroke="#9a32cd" stroke-dasharray="5,2" d="M162.5737,-144.8231C162.5737,-114.0673 162.5737,-55.3511 162.5737,-28.5127"/>
<polygon fill="#9a32cd" stroke="#9a32cd" points="159.0738,-145.1168 162.5737,-155.1168 166.0738,-145.1169 159.0738,-145.1168"/>
<text text-anchor="middle" x="199.0776" y="-89" font-family="Helvetica,sans-Serif" font-size="10.00" fill="#000000"> useTunnelColor</text>
</g>
<!-- Node3 -->
<g id="node4" class="node">
<title>Node3</title>
<polygon fill="none" stroke="#bfbfbf" points="240.0122,-155.5 240.0122,-173.5 277.1353,-173.5 277.1353,-155.5 240.0122,-155.5"/>
<text text-anchor="middle" x="258.5737" y="-161.5" font-family="Helvetica,sans-Serif" font-size="10.00" fill="#000000">vec3</text>
</g>
<!-- Node3&#45;&gt;Node0 -->
<g id="edge3" class="edge">
<title>Node3&#45;&gt;Node0</title>
<path fill="none" stroke="#9a32cd" stroke-dasharray="5,2" d="M260.1396,-145.2716C261.149,-119.9952 259.1789,-75.4724 236.5737,-47 230.3791,-39.1976 221.9286,-33.2232 212.9498,-28.663"/>
<polygon fill="#9a32cd" stroke="#9a32cd" points="256.637,-145.2116 259.5296,-155.4039 263.6243,-145.6324 256.637,-145.2116"/>
<text text-anchor="middle" x="289.3076" y="-129" font-family="Helvetica,sans-Serif" font-size="10.00" fill="#000000"> trainSeat</text>
<text text-anchor="middle" x="289.3076" y="-119" font-family="Helvetica,sans-Serif" font-size="10.00" fill="#000000">trainGear</text>
<text text-anchor="middle" x="289.3076" y="-109" font-family="Helvetica,sans-Serif" font-size="10.00" fill="#000000">train</text>
<text text-anchor="middle" x="289.3076" y="-99" font-family="Helvetica,sans-Serif" font-size="10.00" fill="#000000">trackSpine</text>
<text text-anchor="middle" x="289.3076" y="-89" font-family="Helvetica,sans-Serif" font-size="10.00" fill="#000000">supports</text>
<text text-anchor="middle" x="289.3076" y="-79" font-family="Helvetica,sans-Serif" font-size="10.00" fill="#000000">trainRestraint</text>
<text text-anchor="middle" x="289.3076" y="-69" font-family="Helvetica,sans-Serif" font-size="10.00" fill="#000000">tunnel</text>
<text text-anchor="middle" x="289.3076" y="-59" font-family="Helvetica,sans-Serif" font-size="10.00" fill="#000000">trackCrosstie</text>
<text text-anchor="middle" x="289.3076" y="-49" font-family="Helvetica,sans-Serif" font-size="10.00" fill="#000000">trackRail</text>
</g>
</g>
</svg>
