<?xml version="1.0" encoding="UTF-8" standalone="no"?>
<!DOCTYPE svg PUBLIC "-//W3C//DTD SVG 1.1//EN"
 "http://www.w3.org/Graphics/SVG/1.1/DTD/svg11.dtd">
<!-- Generated by graphviz version 2.40.1 (20161225.0304)
 -->
<!-- Title: NoLimits::NoLimits1::NoLimitsTrack Pages: 1 -->
<svg width="800pt" height="244pt"
 viewBox="0.00 0.00 800.11 244.06" xmlns="http://www.w3.org/2000/svg" xmlns:xlink="http://www.w3.org/1999/xlink">
<g id="graph0" class="graph" transform="scale(1 1) rotate(0) translate(4 240.0586)">
<title>NoLimits::NoLimits1::NoLimitsTrack</title>
<!-- Node0 -->
<g id="node1" class="node">
<title>Node0</title>
<polygon fill="#bfbfbf" stroke="#000000" points="687.1963,-105.5 687.1963,-133.5 792.1074,-133.5 792.1074,-105.5 687.1963,-105.5"/>
<text text-anchor="start" x="695.1963" y="-121.5" font-family="Helvetica,sans-Serif" font-size="10.00" fill="#000000">NoLimits::NoLimits1</text>
<text text-anchor="middle" x="739.6519" y="-111.5" font-family="Helvetica,sans-Serif" font-size="10.00" fill="#000000">::NoLimitsTrack</text>
</g>
<!-- Node1 -->
<g id="node2" class="node">
<title>Node1</title>
<g id="a_node2"><a xlink:href="class_no_limits_1_1_stream_1_1_chunk.html" target="_top" xlink:title="NoLimits::Stream::Chunk">
<polygon fill="none" stroke="#000000" points="0,-203.5 0,-221.5 127.1475,-221.5 127.1475,-203.5 0,-203.5"/>
<text text-anchor="middle" x="63.5737" y="-209.5" font-family="Helvetica,sans-Serif" font-size="10.00" fill="#000000">NoLimits::Stream::Chunk</text>
</a>
</g>
</g>
<!-- Node1&#45;&gt;Node0 -->
<g id="edge1" class="edge">
<title>Node1&#45;&gt;Node0</title>
<path fill="none" stroke="#191970" d="M99.7825,-224.4614C113.7876,-228.5051 130.0532,-232.5003 145.1475,-234.5 161.5536,-236.6735 165.8346,-234.6042 182.3838,-234.5 252.9483,-234.0555 270.8639,-238.8395 341.1445,-232.5 491.2626,-218.9589 526.9673,-196.3971 669.1963,-146.5 680.5681,-142.5105 692.8658,-137.9014 703.9552,-133.6333"/>
<polygon fill="#191970" stroke="#191970" points="100.6171,-221.0578 90.0331,-221.5363 98.6055,-227.7625 100.6171,-221.0578"/>
</g>
<!-- Node2 -->
<g id="node3" class="node">
<title>Node2</title>
<g id="a_node3"><a xlink:href="class_no_limits_1_1_no_limits1_1_1_track.html" target="_top" xlink:title="NoLimits::NoLimits1\l::Track">
<polygon fill="none" stroke="#000000" points="483.4775,-126.5 483.4775,-154.5 588.3887,-154.5 588.3887,-126.5 483.4775,-126.5"/>
<text text-anchor="start" x="491.4775" y="-142.5" font-family="Helvetica,sans-Serif" font-size="10.00" fill="#000000">NoLimits::NoLimits1</text>
<text text-anchor="middle" x="535.9331" y="-132.5" font-family="Helvetica,sans-Serif" font-size="10.00" fill="#000000">::Track</text>
</a>
</g>
</g>
<!-- Node1&#45;&gt;Node2 -->
<g id="edge3" class="edge">
<title>Node1&#45;&gt;Node2</title>
<path fill="none" stroke="#191970" d="M137.3695,-219.9788C220.1573,-225.5419 357.0413,-226.1458 465.4775,-184.5 484.5943,-177.1581 504.181,-164.4233 517.8346,-154.5372"/>
<polygon fill="#191970" stroke="#191970" points="137.5227,-216.481 127.2988,-219.2596 137.024,-223.4632 137.5227,-216.481"/>
</g>
<!-- Node3 -->
<g id="node4" class="node">
<title>Node3</title>
<g id="a_node4"><a xlink:href="class_no_limits_1_1_no_limits1_1_1_info.html" target="_top" xlink:title="NoLimits::NoLimits1\l::Info">
<polygon fill="none" stroke="#ff0000" points="218.3086,-168.5 218.3086,-196.5 323.2197,-196.5 323.2197,-168.5 218.3086,-168.5"/>
<text text-anchor="start" x="226.3086" y="-184.5" font-family="Helvetica,sans-Serif" font-size="10.00" fill="#000000">NoLimits::NoLimits1</text>
<text text-anchor="middle" x="270.7642" y="-174.5" font-family="Helvetica,sans-Serif" font-size="10.00" fill="#000000">::Info</text>
</a>
</g>
</g>
<!-- Node1&#45;&gt;Node3 -->
<g id="edge5" class="edge">
<title>Node1&#45;&gt;Node3</title>
<path fill="none" stroke="#191970" d="M135.9316,-202.023C162.9755,-198.1072 193.1526,-193.7377 218.0898,-190.1269"/>
<polygon fill="#191970" stroke="#191970" points="135.1329,-198.6021 125.7377,-203.499 136.1361,-205.5298 135.1329,-198.6021"/>
</g>
<!-- Node9 -->
<g id="node9" class="node">
<title>Node9</title>
<g id="a_node9"><a xlink:href="class_no_limits_1_1_no_limits1_1_1_version.html" target="_top" xlink:title="NoLimits::NoLimits1\l::Version">
<polygon fill="none" stroke="#000000" points="218.3086,-.5 218.3086,-28.5 323.2197,-28.5 323.2197,-.5 218.3086,-.5"/>
<text text-anchor="start" x="226.3086" y="-16.5" font-family="Helvetica,sans-Serif" font-size="10.00" fill="#000000">NoLimits::NoLimits1</text>
<text text-anchor="middle" x="270.7642" y="-6.5" font-family="Helvetica,sans-Serif" font-size="10.00" fill="#000000">::Version</text>
</a>
</g>
</g>
<!-- Node1&#45;&gt;Node9 -->
<g id="edge11" class="edge">
<title>Node1&#45;&gt;Node9</title>
<path fill="none" stroke="#191970" d="M76.8143,-195.2929C110.3584,-151.7353 196.3221,-40.3482 200.3838,-37.5 205.7515,-33.7359 211.7737,-30.5588 217.9767,-27.8841"/>
<polygon fill="#191970" stroke="#191970" points="73.9985,-193.2129 70.6717,-203.2719 79.5452,-197.483 73.9985,-193.2129"/>
</g>
<!-- Node2&#45;&gt;Node0 -->
<g id="edge2" class="edge">
<title>Node2&#45;&gt;Node0</title>
<path fill="none" stroke="#9a32cd" stroke-dasharray="5,2" d="M598.5933,-134.0408C626.9128,-131.1215 660.0026,-127.7105 687.0133,-124.9262"/>
<polygon fill="#9a32cd" stroke="#9a32cd" points="597.9841,-130.5849 588.3957,-135.092 598.702,-137.548 597.9841,-130.5849"/>
<text text-anchor="middle" x="637.7925" y="-134.5" font-family="Helvetica,sans-Serif" font-size="10.00" fill="#000000"> track</text>
</g>
<!-- Node3&#45;&gt;Node2 -->
<g id="edge4" class="edge">
<title>Node3&#45;&gt;Node2</title>
<path fill="none" stroke="#9a32cd" stroke-dasharray="5,2" d="M333.3234,-174.3672C371.5704,-169.1809 421.4431,-162.0356 465.4775,-154.5 471.2549,-153.5113 477.2858,-152.4138 483.2822,-151.2807"/>
<polygon fill="#9a32cd" stroke="#9a32cd" points="332.8039,-170.9055 323.3609,-175.7096 333.7387,-177.8428 332.8039,-170.9055"/>
<text text-anchor="middle" x="412.311" y="-172.5" font-family="Helvetica,sans-Serif" font-size="10.00" fill="#000000"> info</text>
</g>
<!-- Node5 -->
<g id="node5" class="node">
<title>Node5</title>
<polygon fill="none" stroke="#bfbfbf" points="244.9712,-131.5 244.9712,-149.5 296.5571,-149.5 296.5571,-131.5 244.9712,-131.5"/>
<text text-anchor="middle" x="270.7642" y="-137.5" font-family="Helvetica,sans-Serif" font-size="10.00" fill="#000000">uint32_t</text>
</g>
<!-- Node5&#45;&gt;Node2 -->
<g id="edge6" class="edge">
<title>Node5&#45;&gt;Node2</title>
<path fill="none" stroke="#9a32cd" stroke-dasharray="5,2" d="M306.6725,-140.5C352.1797,-140.5 430.9785,-140.5 483.2873,-140.5"/>
<polygon fill="#9a32cd" stroke="#9a32cd" points="306.6725,-137.0001 296.6725,-140.5 306.6724,-144.0001 306.6725,-137.0001"/>
<text text-anchor="middle" x="412.311" y="-142.5" font-family="Helvetica,sans-Serif" font-size="10.00" fill="#000000"> numberOfCarsPerTrain</text>
</g>
<!-- Node6 -->
<g id="node6" class="node">
<title>Node6</title>
<polygon fill="none" stroke="#bfbfbf" points="200.3838,-84.5 200.3838,-112.5 341.1445,-112.5 341.1445,-84.5 200.3838,-84.5"/>
<text text-anchor="start" x="208.3838" y="-100.5" font-family="Helvetica,sans-Serif" font-size="10.00" fill="#000000">vector&lt; NoLimits::NoLimits1</text>
<text text-anchor="middle" x="270.7642" y="-90.5" font-family="Helvetica,sans-Serif" font-size="10.00" fill="#000000">::Train * &gt;</text>
</g>
<!-- Node6&#45;&gt;Node2 -->
<g id="edge7" class="edge">
<title>Node6&#45;&gt;Node2</title>
<path fill="none" stroke="#9a32cd" stroke-dasharray="5,2" d="M351.4025,-109.1133C386.5132,-113.988 428.0987,-120.1034 465.4775,-126.5 471.2549,-127.4887 477.2858,-128.5862 483.2822,-129.7193"/>
<polygon fill="#9a32cd" stroke="#9a32cd" points="351.5889,-105.606 341.2045,-107.7069 350.6325,-112.5403 351.5889,-105.606"/>
<text text-anchor="middle" x="412.311" y="-128.5" font-family="Helvetica,sans-Serif" font-size="10.00" fill="#000000"> train</text>
</g>
<!-- Node7 -->
<g id="node7" class="node">
<title>Node7</title>
<polygon fill="none" stroke="#bfbfbf" points="234.1411,-47.5 234.1411,-65.5 307.3872,-65.5 307.3872,-47.5 234.1411,-47.5"/>
<text text-anchor="middle" x="270.7642" y="-53.5" font-family="Helvetica,sans-Serif" font-size="10.00" fill="#000000">CoasterStyle</text>
</g>
<!-- Node7&#45;&gt;Node2 -->
<g id="edge8" class="edge">
<title>Node7&#45;&gt;Node2</title>
<path fill="none" stroke="#9a32cd" stroke-dasharray="5,2" d="M317.6072,-57.1349C359.1604,-59.6414 420.127,-68.2308 465.4775,-95.5 476.3045,-102.0102 473.4137,-109.863 483.4775,-117.5 487.9134,-120.8662 492.9187,-123.8603 498.032,-126.484"/>
<polygon fill="#9a32cd" stroke="#9a32cd" points="317.647,-53.6325 307.4825,-56.621 317.2922,-60.6235 317.647,-53.6325"/>
<text text-anchor="middle" x="412.311" y="-97.5" font-family="Helvetica,sans-Serif" font-size="10.00" fill="#000000"> coasterStyle</text>
</g>
<!-- Node8 -->
<g id="node8" class="node">
<title>Node8</title>
<polygon fill="none" stroke="#bfbfbf" points="518.48,-89.5 518.48,-107.5 553.3862,-107.5 553.3862,-89.5 518.48,-89.5"/>
<text text-anchor="middle" x="535.9331" y="-95.5" font-family="Helvetica,sans-Serif" font-size="10.00" fill="#000000">bool</text>
</g>
<!-- Node8&#45;&gt;Node0 -->
<g id="edge9" class="edge">
<title>Node8&#45;&gt;Node0</title>
<path fill="none" stroke="#9a32cd" stroke-dasharray="5,2" d="M563.9339,-101.3864C595.572,-104.6478 647.7709,-110.0286 687.0734,-114.08"/>
<polygon fill="#9a32cd" stroke="#9a32cd" points="563.9616,-97.8708 553.6554,-100.3269 563.2438,-104.8339 563.9616,-97.8708"/>
<text text-anchor="middle" x="637.7925" y="-113.5" font-family="Helvetica,sans-Serif" font-size="10.00" fill="#000000"> use16Friction</text>
</g>
<!-- Node9&#45;&gt;Node0 -->
<g id="edge10" class="edge">
<title>Node9&#45;&gt;Node0</title>
<path fill="none" stroke="#9a32cd" stroke-dasharray="5,2" d="M333.224,-22.8956C397.6666,-32.1669 500.8363,-48.7128 588.3887,-70.5 627.3645,-80.199 670.8987,-94.7016 701.2192,-105.4143"/>
<polygon fill="#9a32cd" stroke="#9a32cd" points="333.616,-19.4162 323.2222,-21.4704 332.6285,-26.3462 333.616,-19.4162"/>
<text text-anchor="middle" x="535.9331" y="-72.5" font-family="Helvetica,sans-Serif" font-size="10.00" fill="#000000"> version</text>
</g>
<!-- Node10 -->
<g id="node10" class="node">
<title>Node10</title>
<polygon fill="none" stroke="#bfbfbf" points="40.5615,-5.5 40.5615,-23.5 86.5859,-23.5 86.5859,-5.5 40.5615,-5.5"/>
<text text-anchor="middle" x="63.5737" y="-11.5" font-family="Helvetica,sans-Serif" font-size="10.00" fill="#000000">uint8_t</text>
</g>
<!-- Node10&#45;&gt;Node9 -->
<g id="edge12" class="edge">
<title>Node10&#45;&gt;Node9</title>
<path fill="none" stroke="#9a32cd" stroke-dasharray="5,2" d="M97.3333,-14.5C130.0806,-14.5 180.2506,-14.5 218.2208,-14.5"/>
<polygon fill="#9a32cd" stroke="#9a32cd" points="96.9384,-11.0001 86.9384,-14.5 96.9383,-18.0001 96.9384,-11.0001"/>
<text text-anchor="middle" x="163.7656" y="-46.5" font-family="Helvetica,sans-Serif" font-size="10.00" fill="#000000"> revision</text>
<text text-anchor="middle" x="163.7656" y="-36.5" font-family="Helvetica,sans-Serif" font-size="10.00" fill="#000000">major</text>
<text text-anchor="middle" x="163.7656" y="-26.5" font-family="Helvetica,sans-Serif" font-size="10.00" fill="#000000">markup</text>
<text text-anchor="middle" x="163.7656" y="-16.5" font-family="Helvetica,sans-Serif" font-size="10.00" fill="#000000">minor</text>
</g>
</g>
</svg>
