<?xml version="1.0" encoding="UTF-8" standalone="no"?>
<!DOCTYPE svg PUBLIC "-//W3C//DTD SVG 1.1//EN"
 "http://www.w3.org/Graphics/SVG/1.1/DTD/svg11.dtd">
<!-- Generated by graphviz version 2.40.1 (20161225.0304)
 -->
<!-- Title: NoLimits::NoLimits2::Version Pages: 1 -->
<svg width="200pt" height="132pt"
 viewBox="0.00 0.00 199.59 132.00" xmlns="http://www.w3.org/2000/svg" xmlns:xlink="http://www.w3.org/1999/xlink">
<g id="graph0" class="graph" transform="scale(1 1) rotate(0) translate(4 128)">
<title>NoLimits::NoLimits2::Version</title>
<!-- Node0 -->
<g id="node1" class="node">
<title>Node0</title>
<polygon fill="#bfbfbf" stroke="#000000" points="63.1182,-.5 63.1182,-28.5 168.0293,-28.5 168.0293,-.5 63.1182,-.5"/>
<text text-anchor="start" x="71.1182" y="-16.5" font-family="Helvetica,sans-Serif" font-size="10.00" fill="#000000">NoLimits::NoLimits2</text>
<text text-anchor="middle" x="115.5737" y="-6.5" font-family="Helvetica,sans-Serif" font-size="10.00" fill="#000000">::Version</text>
</g>
<!-- Node1 -->
<g id="node2" class="node">
<title>Node1</title>
<g id="a_node2"><a xlink:href="class_no_limits_1_1_stream_1_1_chunk.html" target="_top" xlink:title="NoLimits::Stream::Chunk">
<polygon fill="none" stroke="#000000" points="0,-105.5 0,-123.5 127.1475,-123.5 127.1475,-105.5 0,-105.5"/>
<text text-anchor="middle" x="63.5737" y="-111.5" font-family="Helvetica,sans-Serif" font-size="10.00" fill="#000000">NoLimits::Stream::Chunk</text>
</a>
</g>
</g>
<!-- Node1&#45;&gt;Node0 -->
<g id="edge1" class="edge">
<title>Node1&#45;&gt;Node0</title>
<path fill="none" stroke="#191970" d="M73.0701,-96.2377C83.1622,-76.8298 98.9096,-46.5464 108.1372,-28.801"/>
<polygon fill="#191970" stroke="#191970" points="69.8809,-94.7846 68.3726,-105.2715 76.0914,-98.0141 69.8809,-94.7846"/>
</g>
<!-- Node2 -->
<g id="node3" class="node">
<title>Node2</title>
<polygon fill="none" stroke="#bfbfbf" points="145.5615,-105.5 145.5615,-123.5 191.5859,-123.5 191.5859,-105.5 145.5615,-105.5"/>
<text text-anchor="middle" x="168.5737" y="-111.5" font-family="Helvetica,sans-Serif" font-size="10.00" fill="#000000">uint8_t</text>
</g>
<!-- Node2&#45;&gt;Node0 -->
<g id="edge2" class="edge">
<title>Node2&#45;&gt;Node0</title>
<path fill="none" stroke="#9a32cd" stroke-dasharray="5,2" d="M158.8947,-96.2377C148.6085,-76.8298 132.5583,-46.5464 123.1533,-28.801"/>
<polygon fill="#9a32cd" stroke="#9a32cd" points="155.9071,-98.0748 163.6826,-105.2715 162.0921,-94.7967 155.9071,-98.0748"/>
<text text-anchor="middle" x="171.1919" y="-79" font-family="Helvetica,sans-Serif" font-size="10.00" fill="#000000"> revision</text>
<text text-anchor="middle" x="171.1919" y="-69" font-family="Helvetica,sans-Serif" font-size="10.00" fill="#000000">major</text>
<text text-anchor="middle" x="171.1919" y="-59" font-family="Helvetica,sans-Serif" font-size="10.00" fill="#000000">build</text>
<text text-anchor="middle" x="171.1919" y="-49" font-family="Helvetica,sans-Serif" font-size="10.00" fill="#000000">minor</text>
</g>
</g>
</svg>
