<?xml version="1.0" encoding="UTF-8" standalone="no"?>
<!DOCTYPE svg PUBLIC "-//W3C//DTD SVG 1.1//EN"
 "http://www.w3.org/Graphics/SVG/1.1/DTD/svg11.dtd">
<!-- Generated by graphviz version 2.40.1 (20161225.0304)
 -->
<!-- Title: NoLimits::NoLimits2::IndividualColor Pages: 1 -->
<svg width="450pt" height="142pt"
 viewBox="0.00 0.00 449.59 142.00" xmlns="http://www.w3.org/2000/svg" xmlns:xlink="http://www.w3.org/1999/xlink">
<g id="graph0" class="graph" transform="scale(1 1) rotate(0) translate(4 138)">
<title>NoLimits::NoLimits2::IndividualColor</title>
<!-- Node0 -->
<g id="node1" class="node">
<title>Node0</title>
<polygon fill="#bfbfbf" stroke="#000000" points="183.1182,-.5 183.1182,-28.5 288.0293,-28.5 288.0293,-.5 183.1182,-.5"/>
<text text-anchor="start" x="191.1182" y="-16.5" font-family="Helvetica,sans-Serif" font-size="10.00" fill="#000000">NoLimits::NoLimits2</text>
<text text-anchor="middle" x="235.5737" y="-6.5" font-family="Helvetica,sans-Serif" font-size="10.00" fill="#000000">::IndividualColor</text>
</g>
<!-- Node1 -->
<g id="node2" class="node">
<title>Node1</title>
<g id="a_node2"><a xlink:href="class_no_limits_1_1_stream_1_1_chunk.html" target="_top" xlink:title="NoLimits::Stream::Chunk">
<polygon fill="none" stroke="#000000" points="0,-115.5 0,-133.5 127.1475,-133.5 127.1475,-115.5 0,-115.5"/>
<text text-anchor="middle" x="63.5737" y="-121.5" font-family="Helvetica,sans-Serif" font-size="10.00" fill="#000000">NoLimits::Stream::Chunk</text>
</a>
</g>
</g>
<!-- Node1&#45;&gt;Node0 -->
<g id="edge1" class="edge">
<title>Node1&#45;&gt;Node0</title>
<path fill="none" stroke="#191970" d="M86.2083,-110.0244C119.3777,-88.8114 180.7976,-49.5312 213.5919,-28.5582"/>
<polygon fill="#191970" stroke="#191970" points="84.188,-107.1619 77.6492,-115.4982 87.9595,-113.059 84.188,-107.1619"/>
</g>
<!-- Node2 -->
<g id="node3" class="node">
<title>Node2</title>
<polygon fill="none" stroke="#bfbfbf" points="144.665,-115.5 144.665,-133.5 248.4824,-133.5 248.4824,-115.5 144.665,-115.5"/>
<text text-anchor="middle" x="196.5737" y="-121.5" font-family="Helvetica,sans-Serif" font-size="10.00" fill="#000000">vector&lt; std::string &gt;</text>
</g>
<!-- Node2&#45;&gt;Node0 -->
<g id="edge2" class="edge">
<title>Node2&#45;&gt;Node0</title>
<path fill="none" stroke="#9a32cd" stroke-dasharray="5,2" d="M195,-105.0018C194.4811,-88.7471 195.6199,-65.3653 204.1108,-47 207.2747,-40.1569 212.4901,-33.8758 217.7735,-28.6975"/>
<polygon fill="#9a32cd" stroke="#9a32cd" points="191.5292,-105.6186 195.5893,-115.4046 198.518,-105.2226 191.5292,-105.6186"/>
<text text-anchor="middle" x="228.3052" y="-69" font-family="Helvetica,sans-Serif" font-size="10.00" fill="#000000"> carTexture</text>
</g>
<!-- Node3 -->
<g id="node4" class="node">
<title>Node3</title>
<polygon fill="none" stroke="#bfbfbf" points="266.1206,-115.5 266.1206,-133.5 301.0269,-133.5 301.0269,-115.5 266.1206,-115.5"/>
<text text-anchor="middle" x="283.5737" y="-121.5" font-family="Helvetica,sans-Serif" font-size="10.00" fill="#000000">bool</text>
</g>
<!-- Node3&#45;&gt;Node0 -->
<g id="edge3" class="edge">
<title>Node3&#45;&gt;Node0</title>
<path fill="none" stroke="#9a32cd" stroke-dasharray="5,2" d="M277.0629,-105.5653C271.4094,-89.6861 262.7134,-66.5374 253.5737,-47 250.6767,-40.8072 247.0927,-34.1707 243.8873,-28.5198"/>
<polygon fill="#9a32cd" stroke="#9a32cd" points="273.8505,-106.9821 280.4588,-115.2634 280.4572,-104.6686 273.8505,-106.9821"/>
<text text-anchor="middle" x="316.0981" y="-69" font-family="Helvetica,sans-Serif" font-size="10.00" fill="#000000"> hasIndividualColor</text>
</g>
<!-- Node4 -->
<g id="node5" class="node">
<title>Node4</title>
<polygon fill="none" stroke="#bfbfbf" points="365.0122,-115.5 365.0122,-133.5 402.1353,-133.5 402.1353,-115.5 365.0122,-115.5"/>
<text text-anchor="middle" x="383.5737" y="-121.5" font-family="Helvetica,sans-Serif" font-size="10.00" fill="#000000">vec3</text>
</g>
<!-- Node4&#45;&gt;Node0 -->
<g id="edge4" class="edge">
<title>Node4&#45;&gt;Node0</title>
<path fill="none" stroke="#9a32cd" stroke-dasharray="5,2" d="M383.2692,-105.1912C381.9327,-87.6397 377.1732,-62.2271 361.5737,-47 350.9042,-36.5851 317.7381,-28.2699 288.1117,-22.658"/>
<polygon fill="#9a32cd" stroke="#9a32cd" points="379.7829,-105.5729 383.7328,-115.4038 386.7757,-105.2554 379.7829,-105.5729"/>
<text text-anchor="middle" x="411.5835" y="-89" font-family="Helvetica,sans-Serif" font-size="10.00" fill="#000000"> chassisColor</text>
<text text-anchor="middle" x="411.5835" y="-79" font-family="Helvetica,sans-Serif" font-size="10.00" fill="#000000">bogieColor</text>
<text text-anchor="middle" x="411.5835" y="-69" font-family="Helvetica,sans-Serif" font-size="10.00" fill="#000000">harnessColor</text>
<text text-anchor="middle" x="411.5835" y="-59" font-family="Helvetica,sans-Serif" font-size="10.00" fill="#000000">seatColor</text>
<text text-anchor="middle" x="411.5835" y="-49" font-family="Helvetica,sans-Serif" font-size="10.00" fill="#000000">carColor</text>
</g>
</g>
</svg>
