<?xml version="1.0" encoding="UTF-8" standalone="no"?>
<!DOCTYPE svg PUBLIC "-//W3C//DTD SVG 1.1//EN"
 "http://www.w3.org/Graphics/SVG/1.1/DTD/svg11.dtd">
<!-- Generated by graphviz version 2.40.1 (20161225.0304)
 -->
<!-- Title: NoLimits::NoLimits1::Section Pages: 1 -->
<svg width="522pt" height="122pt"
 viewBox="0.00 0.00 521.81 122.00" xmlns="http://www.w3.org/2000/svg" xmlns:xlink="http://www.w3.org/1999/xlink">
<g id="graph0" class="graph" transform="scale(1 1) rotate(0) translate(4 118)">
<title>NoLimits::NoLimits1::Section</title>
<!-- Node0 -->
<g id="node1" class="node">
<title>Node0</title>
<polygon fill="#bfbfbf" stroke="#000000" points="174.1182,-.5 174.1182,-28.5 279.0293,-28.5 279.0293,-.5 174.1182,-.5"/>
<text text-anchor="start" x="182.1182" y="-16.5" font-family="Helvetica,sans-Serif" font-size="10.00" fill="#000000">NoLimits::NoLimits1</text>
<text text-anchor="middle" x="226.5737" y="-6.5" font-family="Helvetica,sans-Serif" font-size="10.00" fill="#000000">::Section</text>
</g>
<!-- Node1 -->
<g id="node2" class="node">
<title>Node1</title>
<g id="a_node2"><a xlink:href="class_no_limits_1_1_stream_1_1_chunk.html" target="_top" xlink:title="NoLimits::Stream::Chunk">
<polygon fill="none" stroke="#000000" points="0,-95.5 0,-113.5 127.1475,-113.5 127.1475,-95.5 0,-95.5"/>
<text text-anchor="middle" x="63.5737" y="-101.5" font-family="Helvetica,sans-Serif" font-size="10.00" fill="#000000">NoLimits::Stream::Chunk</text>
</a>
</g>
</g>
<!-- Node1&#45;&gt;Node0 -->
<g id="edge1" class="edge">
<title>Node1&#45;&gt;Node0</title>
<path fill="none" stroke="#191970" d="M88.8601,-90.5382C119.3499,-73.7033 170.3074,-45.5673 200.9481,-28.6491"/>
<polygon fill="#191970" stroke="#191970" points="87.1625,-87.4774 80.1001,-95.375 90.5461,-93.6053 87.1625,-87.4774"/>
</g>
<!-- Node2 -->
<g id="node3" class="node">
<title>Node2</title>
<polygon fill="none" stroke="#bfbfbf" points="144.7808,-95.5 144.7808,-113.5 196.3667,-113.5 196.3667,-95.5 144.7808,-95.5"/>
<text text-anchor="middle" x="170.5737" y="-101.5" font-family="Helvetica,sans-Serif" font-size="10.00" fill="#000000">uint32_t</text>
</g>
<!-- Node2&#45;&gt;Node0 -->
<g id="edge2" class="edge">
<title>Node2&#45;&gt;Node0</title>
<path fill="none" stroke="#9a32cd" stroke-dasharray="5,2" d="M175.6959,-85.7156C179.4216,-73.9807 185.2023,-58.8946 193.1108,-47 197.5051,-40.3909 203.4389,-34.0792 209.0895,-28.8057"/>
<polygon fill="#9a32cd" stroke="#9a32cd" points="172.3225,-84.7811 172.8499,-95.3628 179.0365,-86.7618 172.3225,-84.7811"/>
<text text-anchor="middle" x="207.3052" y="-64" font-family="Helvetica,sans-Serif" font-size="10.00" fill="#000000"> flags1</text>
<text text-anchor="middle" x="207.3052" y="-54" font-family="Helvetica,sans-Serif" font-size="10.00" fill="#000000">flags2</text>
</g>
<!-- Node3 -->
<g id="node4" class="node">
<title>Node3</title>
<polygon fill="none" stroke="#bfbfbf" points="214.1206,-95.5 214.1206,-113.5 249.0269,-113.5 249.0269,-95.5 214.1206,-95.5"/>
<text text-anchor="middle" x="231.5737" y="-101.5" font-family="Helvetica,sans-Serif" font-size="10.00" fill="#000000">bool</text>
</g>
<!-- Node3&#45;&gt;Node0 -->
<g id="edge3" class="edge">
<title>Node3&#45;&gt;Node0</title>
<path fill="none" stroke="#9a32cd" stroke-dasharray="5,2" d="M228.7231,-85.2966C228.392,-82.5182 228.0989,-79.6895 227.8911,-77 226.6205,-60.5523 226.3943,-41.6025 226.4202,-28.9204"/>
<polygon fill="#9a32cd" stroke="#9a32cd" points="225.2758,-85.9219 230.0886,-95.3605 232.2122,-84.9807 225.2758,-85.9219"/>
<text text-anchor="middle" x="282.415" y="-64" font-family="Helvetica,sans-Serif" font-size="10.00" fill="#000000"> useIndividualTrackColor</text>
<text text-anchor="middle" x="282.415" y="-54" font-family="Helvetica,sans-Serif" font-size="10.00" fill="#000000">useTunnel</text>
</g>
<!-- Node4 -->
<g id="node5" class="node">
<title>Node4</title>
<polygon fill="none" stroke="#bfbfbf" points="324.0542,-95.5 324.0542,-113.5 395.0933,-113.5 395.0933,-95.5 324.0542,-95.5"/>
<text text-anchor="middle" x="359.5737" y="-101.5" font-family="Helvetica,sans-Serif" font-size="10.00" fill="#000000">SectionType</text>
</g>
<!-- Node4&#45;&gt;Node0 -->
<g id="edge4" class="edge">
<title>Node4&#45;&gt;Node0</title>
<path fill="none" stroke="#9a32cd" stroke-dasharray="5,2" d="M356.7503,-85.3973C353.9348,-72.8529 348.3894,-56.9774 337.5737,-47 328.6445,-38.7629 303.3583,-31.0518 279.1725,-25.2097"/>
<polygon fill="#9a32cd" stroke="#9a32cd" points="353.3271,-86.1339 358.5858,-95.3316 360.2106,-84.8621 353.3271,-86.1339"/>
<text text-anchor="middle" x="381.6475" y="-59" font-family="Helvetica,sans-Serif" font-size="10.00" fill="#000000"> sectionType</text>
</g>
<!-- Node5 -->
<g id="node6" class="node">
<title>Node5</title>
<polygon fill="none" stroke="#bfbfbf" points="420.0122,-95.5 420.0122,-113.5 457.1353,-113.5 457.1353,-95.5 420.0122,-95.5"/>
<text text-anchor="middle" x="438.5737" y="-101.5" font-family="Helvetica,sans-Serif" font-size="10.00" fill="#000000">vec3</text>
</g>
<!-- Node5&#45;&gt;Node0 -->
<g id="edge5" class="edge">
<title>Node5&#45;&gt;Node0</title>
<path fill="none" stroke="#9a32cd" stroke-dasharray="5,2" d="M435.0381,-84.9397C431.6939,-72.193 425.3538,-56.2635 413.5737,-47 393.1755,-30.9595 327.0947,-22.3546 279.2632,-18.1077"/>
<polygon fill="#9a32cd" stroke="#9a32cd" points="431.7008,-86.0598 437.2673,-95.0745 438.5374,-84.5561 431.7008,-86.0598"/>
<text text-anchor="middle" x="472.6943" y="-69" font-family="Helvetica,sans-Serif" font-size="10.00" fill="#000000"> trackRailColor</text>
<text text-anchor="middle" x="472.6943" y="-59" font-family="Helvetica,sans-Serif" font-size="10.00" fill="#000000">trackSpineColor</text>
<text text-anchor="middle" x="472.6943" y="-49" font-family="Helvetica,sans-Serif" font-size="10.00" fill="#000000">trackCrosstieColor</text>
</g>
</g>
</svg>
