<?xml version="1.0" encoding="UTF-8" standalone="no"?>
<!DOCTYPE svg PUBLIC "-//W3C//DTD SVG 1.1//EN"
 "http://www.w3.org/Graphics/SVG/1.1/DTD/svg11.dtd">
<!-- Generated by graphviz version 2.40.1 (20161225.0304)
 -->
<!-- Title: NoLimits::NoLimits2::Layer Pages: 1 -->
<svg width="554pt" height="596pt"
 viewBox="0.00 0.00 554.26 596.35" xmlns="http://www.w3.org/2000/svg" xmlns:xlink="http://www.w3.org/1999/xlink">
<g id="graph0" class="graph" transform="scale(1 1) rotate(0) translate(4 592.3477)">
<title>NoLimits::NoLimits2::Layer</title>
<!-- Node0 -->
<g id="node1" class="node">
<title>Node0</title>
<polygon fill="#bfbfbf" stroke="#000000" points="441.3486,-346.5 441.3486,-374.5 546.2598,-374.5 546.2598,-346.5 441.3486,-346.5"/>
<text text-anchor="start" x="449.3486" y="-362.5" font-family="Helvetica,sans-Serif" font-size="10.00" fill="#000000">NoLimits::NoLimits2</text>
<text text-anchor="middle" x="493.8042" y="-352.5" font-family="Helvetica,sans-Serif" font-size="10.00" fill="#000000">::Layer</text>
</g>
<!-- Node1 -->
<g id="node2" class="node">
<title>Node1</title>
<g id="a_node2"><a xlink:href="class_no_limits_1_1_stream_1_1_chunk.html" target="_top" xlink:title="NoLimits::Stream::Chunk">
<polygon fill="none" stroke="#000000" points="0,-501.5 0,-519.5 127.1475,-519.5 127.1475,-501.5 0,-501.5"/>
<text text-anchor="middle" x="63.5737" y="-507.5" font-family="Helvetica,sans-Serif" font-size="10.00" fill="#000000">NoLimits::Stream::Chunk</text>
</a>
</g>
</g>
<!-- Node1&#45;&gt;Node0 -->
<g id="edge1" class="edge">
<title>Node1&#45;&gt;Node0</title>
<path fill="none" stroke="#191970" d="M78.4087,-527.0007C93.4653,-542.4039 118.3235,-564.3477 145.1475,-573.5 236.2901,-604.5978 275.956,-583.7593 358.1025,-533.5 423.8766,-493.2578 470.3415,-408.8096 487.0173,-374.9736"/>
<polygon fill="#191970" stroke="#191970" points="80.8778,-524.5174 71.4701,-519.6444 75.7856,-529.3206 80.8778,-524.5174"/>
</g>
<!-- Node2 -->
<g id="node3" class="node">
<title>Node2</title>
<g id="a_node3"><a xlink:href="class_no_limits_1_1_no_limits2_1_1_detail_map.html" target="_top" xlink:title="NoLimits::NoLimits2\l::DetailMap">
<polygon fill="none" stroke="#000000" points="253.1914,-346.5 253.1914,-374.5 358.1025,-374.5 358.1025,-346.5 253.1914,-346.5"/>
<text text-anchor="start" x="261.1914" y="-362.5" font-family="Helvetica,sans-Serif" font-size="10.00" fill="#000000">NoLimits::NoLimits2</text>
<text text-anchor="middle" x="305.647" y="-352.5" font-family="Helvetica,sans-Serif" font-size="10.00" fill="#000000">::DetailMap</text>
</a>
</g>
</g>
<!-- Node1&#45;&gt;Node2 -->
<g id="edge3" class="edge">
<title>Node1&#45;&gt;Node2</title>
<path fill="none" stroke="#191970" d="M106.6129,-498.7556C154.2148,-485.4481 225.514,-464.4489 235.1914,-455.5 250.7041,-441.1551 241.368,-429.0108 253.1914,-411.5 262.7158,-397.3942 276.6414,-384.0821 287.7513,-374.5976"/>
<polygon fill="#191970" stroke="#191970" points="105.5425,-495.4204 96.8456,-501.4714 107.4177,-502.1645 105.5425,-495.4204"/>
</g>
<!-- Node5 -->
<g id="node6" class="node">
<title>Node5</title>
<g id="a_node6"><a xlink:href="class_no_limits_1_1_no_limits2_1_1_extras.html" target="_top" xlink:title="NoLimits::NoLimits2\l::Extras">
<polygon fill="none" stroke="#000000" points="253.1914,-495.5 253.1914,-523.5 358.1025,-523.5 358.1025,-495.5 253.1914,-495.5"/>
<text text-anchor="start" x="261.1914" y="-511.5" font-family="Helvetica,sans-Serif" font-size="10.00" fill="#000000">NoLimits::NoLimits2</text>
<text text-anchor="middle" x="305.647" y="-501.5" font-family="Helvetica,sans-Serif" font-size="10.00" fill="#000000">::Extras</text>
</a>
</g>
</g>
<!-- Node1&#45;&gt;Node5 -->
<g id="edge7" class="edge">
<title>Node1&#45;&gt;Node5</title>
<path fill="none" stroke="#191970" d="M83.8736,-525.5167C99.6715,-536.2203 122.627,-549.7003 145.1475,-555.5 183.9025,-565.4806 196.8338,-566.9131 235.1914,-555.5 256.0536,-549.2926 276.4984,-534.728 289.9445,-523.6373"/>
<polygon fill="#191970" stroke="#191970" points="85.6537,-522.4902 75.4565,-519.6144 81.6347,-528.2215 85.6537,-522.4902"/>
</g>
<!-- Node6 -->
<g id="node7" class="node">
<title>Node6</title>
<g id="a_node7"><a xlink:href="class_no_limits_1_1_no_limits2_1_1_bump_map.html" target="_top" xlink:title="NoLimits::NoLimits2\l::BumpMap">
<polygon fill="none" stroke="#000000" points="253.1914,-234.5 253.1914,-262.5 358.1025,-262.5 358.1025,-234.5 253.1914,-234.5"/>
<text text-anchor="start" x="261.1914" y="-250.5" font-family="Helvetica,sans-Serif" font-size="10.00" fill="#000000">NoLimits::NoLimits2</text>
<text text-anchor="middle" x="305.647" y="-240.5" font-family="Helvetica,sans-Serif" font-size="10.00" fill="#000000">::BumpMap</text>
</a>
</g>
</g>
<!-- Node1&#45;&gt;Node6 -->
<g id="edge10" class="edge">
<title>Node1&#45;&gt;Node6</title>
<path fill="none" stroke="#191970" d="M72.3094,-492.1897C84.9767,-467.5591 110.7441,-424.0222 145.1475,-399.5 179.275,-375.1744 202.9405,-398.2639 235.1914,-371.5 248.349,-360.581 244.8484,-352.4245 253.1914,-337.5 268.1567,-310.7294 286.534,-280.0124 297.0879,-262.5657"/>
<polygon fill="#191970" stroke="#191970" points="69.1503,-490.6821 67.8313,-501.1945 75.4181,-493.799 69.1503,-490.6821"/>
</g>
<!-- Node9 -->
<g id="node10" class="node">
<title>Node9</title>
<g id="a_node10"><a xlink:href="class_no_limits_1_1_no_limits2_1_1_base_map.html" target="_top" xlink:title="NoLimits::NoLimits2\l::BaseMap">
<polygon fill="none" stroke="#000000" points="253.1914,-420.5 253.1914,-448.5 358.1025,-448.5 358.1025,-420.5 253.1914,-420.5"/>
<text text-anchor="start" x="261.1914" y="-436.5" font-family="Helvetica,sans-Serif" font-size="10.00" fill="#000000">NoLimits::NoLimits2</text>
<text text-anchor="middle" x="305.647" y="-426.5" font-family="Helvetica,sans-Serif" font-size="10.00" fill="#000000">::BaseMap</text>
</a>
</g>
</g>
<!-- Node1&#45;&gt;Node9 -->
<g id="edge16" class="edge">
<title>Node1&#45;&gt;Node9</title>
<path fill="none" stroke="#191970" d="M90.5627,-523.7712C126.7119,-539.4485 191.3702,-559.9195 235.1914,-530.5 252.7335,-518.7231 241.4531,-504.0679 253.1914,-486.5 262.8802,-471.9994 277.079,-458.2299 288.2615,-448.5072"/>
<polygon fill="#191970" stroke="#191970" points="91.7177,-520.4524 81.1638,-519.522 88.834,-526.8308 91.7177,-520.4524"/>
</g>
<!-- Node10 -->
<g id="node11" class="node">
<title>Node10</title>
<g id="a_node11"><a xlink:href="class_no_limits_1_1_no_limits2_1_1_auto_paint.html" target="_top" xlink:title="NoLimits::NoLimits2\l::AutoPaint">
<polygon fill="none" stroke="#000000" points="253.1914,-45.5 253.1914,-73.5 358.1025,-73.5 358.1025,-45.5 253.1914,-45.5"/>
<text text-anchor="start" x="261.1914" y="-61.5" font-family="Helvetica,sans-Serif" font-size="10.00" fill="#000000">NoLimits::NoLimits2</text>
<text text-anchor="middle" x="305.647" y="-51.5" font-family="Helvetica,sans-Serif" font-size="10.00" fill="#000000">::AutoPaint</text>
</a>
</g>
</g>
<!-- Node1&#45;&gt;Node10 -->
<g id="edge20" class="edge">
<title>Node1&#45;&gt;Node10</title>
<path fill="none" stroke="#191970" d="M73.407,-492.3685C86.5749,-467.7026 110.2358,-421.9996 127.1475,-381.5 136.5713,-358.932 129.3391,-348.1606 145.1475,-329.5 174.5977,-294.7362 209.9389,-318.4229 235.1914,-280.5 278.5274,-215.4202 217.3159,-174.9718 253.1914,-105.5 259.9162,-92.4777 272.0027,-81.489 282.8801,-73.5207"/>
<polygon fill="#191970" stroke="#191970" points="70.2594,-490.8318 68.6069,-501.297 76.4249,-494.1465 70.2594,-490.8318"/>
</g>
<!-- Node2&#45;&gt;Node0 -->
<g id="edge2" class="edge">
<title>Node2&#45;&gt;Node0</title>
<path fill="none" stroke="#9a32cd" stroke-dasharray="5,2" d="M368.5537,-360.5C392.1147,-360.5 418.6165,-360.5 441.1544,-360.5"/>
<polygon fill="#9a32cd" stroke="#9a32cd" points="368.3095,-357.0001 358.3094,-360.5 368.3094,-364.0001 368.3095,-357.0001"/>
<text text-anchor="middle" x="399.7256" y="-362.5" font-family="Helvetica,sans-Serif" font-size="10.00" fill="#000000"> detailMap</text>
</g>
<!-- Node3 -->
<g id="node4" class="node">
<title>Node3</title>
<polygon fill="none" stroke="#bfbfbf" points="37.7808,-353.5 37.7808,-371.5 89.3667,-371.5 89.3667,-353.5 37.7808,-353.5"/>
<text text-anchor="middle" x="63.5737" y="-359.5" font-family="Helvetica,sans-Serif" font-size="10.00" fill="#000000">uint32_t</text>
</g>
<!-- Node3&#45;&gt;Node2 -->
<g id="edge4" class="edge">
<title>Node3&#45;&gt;Node2</title>
<path fill="none" stroke="#9a32cd" stroke-dasharray="5,2" d="M99.7032,-362.2015C140.2477,-361.8665 206.4036,-361.3199 252.7661,-360.9369"/>
<polygon fill="#9a32cd" stroke="#9a32cd" points="99.4505,-358.7034 89.4798,-362.286 99.5084,-365.7031 99.4505,-358.7034"/>
<text text-anchor="middle" x="190.1694" y="-363.5" font-family="Helvetica,sans-Serif" font-size="10.00" fill="#000000"> repeatIndex</text>
</g>
<!-- Node3&#45;&gt;Node6 -->
<g id="edge13" class="edge">
<title>Node3&#45;&gt;Node6</title>
<path fill="none" stroke="#9a32cd" stroke-dasharray="5,2" d="M99.2353,-356.8657C108.8828,-354.1937 118.921,-350.2661 127.1475,-344.5 138.3591,-336.6415 134.5154,-328.1265 145.1475,-319.5 178.1541,-292.7196 222.8474,-274.0429 256.6897,-262.5903"/>
<polygon fill="#9a32cd" stroke="#9a32cd" points="98.3236,-353.485 89.4153,-359.2203 99.9558,-360.2921 98.3236,-353.485"/>
<text text-anchor="middle" x="190.1694" y="-321.5" font-family="Helvetica,sans-Serif" font-size="10.00" fill="#000000"> repeatIndex</text>
</g>
<!-- Node3&#45;&gt;Node9 -->
<g id="edge17" class="edge">
<title>Node3&#45;&gt;Node9</title>
<path fill="none" stroke="#9a32cd" stroke-dasharray="5,2" d="M77.7778,-379.32C92.6664,-395.566 117.682,-419.1813 145.1475,-429.5 179.465,-442.393 220.8759,-443.3598 253.0378,-441.2507"/>
<polygon fill="#9a32cd" stroke="#9a32cd" points="80.2022,-376.7781 70.9558,-371.6056 74.9584,-381.4153 80.2022,-376.7781"/>
<text text-anchor="middle" x="190.1694" y="-443.5" font-family="Helvetica,sans-Serif" font-size="10.00" fill="#000000"> repeatIndex</text>
</g>
<!-- Node4 -->
<g id="node5" class="node">
<title>Node4</title>
<polygon fill="none" stroke="#bfbfbf" points="43.3472,-316.5 43.3472,-334.5 83.8003,-334.5 83.8003,-316.5 43.3472,-316.5"/>
<text text-anchor="middle" x="63.5737" y="-322.5" font-family="Helvetica,sans-Serif" font-size="10.00" fill="#000000">string</text>
</g>
<!-- Node4&#45;&gt;Node0 -->
<g id="edge23" class="edge">
<title>Node4&#45;&gt;Node0</title>
<path fill="none" stroke="#9a32cd" stroke-dasharray="5,2" d="M75.501,-307.7879C89.6049,-286.1419 112.9517,-248.0028 127.1475,-212.5 139.2338,-182.273 119.4552,-161.4915 145.1475,-141.5 176.7318,-116.9237 196.6321,-130.7882 235.1914,-141.5 355.3681,-174.885 453.8565,-303.1643 484.1617,-346.2741"/>
<polygon fill="#9a32cd" stroke="#9a32cd" points="72.5007,-305.9797 69.9064,-316.2521 78.3404,-309.8396 72.5007,-305.9797"/>
<text text-anchor="middle" x="305.647" y="-208.5" font-family="Helvetica,sans-Serif" font-size="10.00" fill="#000000"> name</text>
</g>
<!-- Node4&#45;&gt;Node2 -->
<g id="edge5" class="edge">
<title>Node4&#45;&gt;Node2</title>
<path fill="none" stroke="#9a32cd" stroke-dasharray="5,2" d="M94.312,-328.5644C128.7285,-332.1573 186.1159,-338.6328 235.1914,-346.5 240.9789,-347.4278 247.0161,-348.4868 253.0163,-349.5976"/>
<polygon fill="#9a32cd" stroke="#9a32cd" points="94.2906,-325.0438 83.9846,-327.5011 93.5736,-332.007 94.2906,-325.0438"/>
<text text-anchor="middle" x="190.1694" y="-348.5" font-family="Helvetica,sans-Serif" font-size="10.00" fill="#000000"> texture</text>
</g>
<!-- Node4&#45;&gt;Node5 -->
<g id="edge8" class="edge">
<title>Node4&#45;&gt;Node5</title>
<path fill="none" stroke="#9a32cd" stroke-dasharray="5,2" d="M94.1731,-327.763C106.0948,-330.215 118.8585,-335.0601 127.1475,-344.5 160.1235,-382.0547 112.8172,-417.3879 145.1475,-455.5 171.773,-486.8871 217.2778,-500.0945 253.0497,-505.6192"/>
<polygon fill="#9a32cd" stroke="#9a32cd" points="94.4694,-324.2666 84.0467,-326.1689 93.3808,-331.1814 94.4694,-324.2666"/>
<text text-anchor="middle" x="190.1694" y="-512.5" font-family="Helvetica,sans-Serif" font-size="10.00" fill="#000000"> autoplantObject</text>
<text text-anchor="middle" x="190.1694" y="-502.5" font-family="Helvetica,sans-Serif" font-size="10.00" fill="#000000">footstepSounds</text>
</g>
<!-- Node4&#45;&gt;Node6 -->
<g id="edge14" class="edge">
<title>Node4&#45;&gt;Node6</title>
<path fill="none" stroke="#9a32cd" stroke-dasharray="5,2" d="M72.3513,-307.2495C84.8047,-283.7406 110.0521,-243.9498 145.1475,-227.5 186.4965,-208.119 240.0213,-221.8043 273.6037,-234.3863"/>
<polygon fill="#9a32cd" stroke="#9a32cd" points="69.0682,-305.9857 67.6727,-316.4882 75.3131,-309.1482 69.0682,-305.9857"/>
<text text-anchor="middle" x="190.1694" y="-239.5" font-family="Helvetica,sans-Serif" font-size="10.00" fill="#000000"> texture</text>
<text text-anchor="middle" x="190.1694" y="-229.5" font-family="Helvetica,sans-Serif" font-size="10.00" fill="#000000">specularMapTexture</text>
</g>
<!-- Node4&#45;&gt;Node9 -->
<g id="edge18" class="edge">
<title>Node4&#45;&gt;Node9</title>
<path fill="none" stroke="#9a32cd" stroke-dasharray="5,2" d="M93.9569,-329.7259C105.2727,-332.4795 117.6585,-337.0197 127.1475,-344.5 139.6592,-354.3632 132.9466,-365.2546 145.1475,-375.5 162.426,-390.0093 215.7686,-408.0886 256.2579,-420.3834"/>
<polygon fill="#9a32cd" stroke="#9a32cd" points="94.4806,-326.2603 83.9795,-327.6663 93.0654,-333.1158 94.4806,-326.2603"/>
<text text-anchor="middle" x="190.1694" y="-414.5" font-family="Helvetica,sans-Serif" font-size="10.00" fill="#000000"> texture</text>
</g>
<!-- Node5&#45;&gt;Node0 -->
<g id="edge6" class="edge">
<title>Node5&#45;&gt;Node0</title>
<path fill="none" stroke="#9a32cd" stroke-dasharray="5,2" d="M332.8853,-489.2104C356.9119,-471.186 392.7628,-443.9803 423.3486,-419.5 442.157,-404.4461 463.29,-386.6241 477.4615,-374.537"/>
<polygon fill="#9a32cd" stroke="#9a32cd" points="330.5074,-486.6184 324.6,-495.4135 334.7027,-492.222 330.5074,-486.6184"/>
<text text-anchor="middle" x="399.7256" y="-456.5" font-family="Helvetica,sans-Serif" font-size="10.00" fill="#000000"> extras</text>
</g>
<!-- Node6&#45;&gt;Node0 -->
<g id="edge9" class="edge">
<title>Node6&#45;&gt;Node0</title>
<path fill="none" stroke="#9a32cd" stroke-dasharray="5,2" d="M338.5192,-268.0671C376.1633,-290.4746 436.9084,-326.6329 470.1674,-346.4303"/>
<polygon fill="#9a32cd" stroke="#9a32cd" points="339.8604,-264.7923 329.4772,-262.6849 336.2799,-270.8073 339.8604,-264.7923"/>
<text text-anchor="middle" x="399.7256" y="-319.5" font-family="Helvetica,sans-Serif" font-size="10.00" fill="#000000"> bumpMap</text>
</g>
<!-- Node7 -->
<g id="node8" class="node">
<title>Node7</title>
<polygon fill="none" stroke="#bfbfbf" points="30.564,-184.5 30.564,-202.5 96.5835,-202.5 96.5835,-184.5 30.564,-184.5"/>
<text text-anchor="middle" x="63.5737" y="-190.5" font-family="Helvetica,sans-Serif" font-size="10.00" fill="#000000">TerrainMap</text>
</g>
<!-- Node7&#45;&gt;Node6 -->
<g id="edge11" class="edge">
<title>Node7&#45;&gt;Node6</title>
<path fill="none" stroke="#9a32cd" stroke-dasharray="5,2" d="M106.9041,-186.2867C142.387,-182.1225 193.372,-180.1812 235.1914,-194.5 258.2284,-202.3877 279.667,-221.1087 292.7051,-234.2861"/>
<polygon fill="#9a32cd" stroke="#9a32cd" points="106.3475,-182.8293 96.8731,-187.5713 107.2368,-189.7726 106.3475,-182.8293"/>
<text text-anchor="middle" x="190.1694" y="-196.5" font-family="Helvetica,sans-Serif" font-size="10.00" fill="#000000"> mapType</text>
</g>
<!-- Node8 -->
<g id="node9" class="node">
<title>Node8</title>
<polygon fill="none" stroke="#bfbfbf" points="46.123,-92.5 46.123,-110.5 81.0244,-110.5 81.0244,-92.5 46.123,-92.5"/>
<text text-anchor="middle" x="63.5737" y="-98.5" font-family="Helvetica,sans-Serif" font-size="10.00" fill="#000000">float</text>
</g>
<!-- Node8&#45;&gt;Node6 -->
<g id="edge12" class="edge">
<title>Node8&#45;&gt;Node6</title>
<path fill="none" stroke="#9a32cd" stroke-dasharray="5,2" d="M91.3603,-107.971C127.0226,-117.2108 189.7091,-136.6792 235.1914,-168.5 261.2742,-186.7483 284.113,-216.5887 296.2927,-234.2068"/>
<polygon fill="#9a32cd" stroke="#9a32cd" points="91.76,-104.4631 81.2093,-105.4295 90.0598,-111.2535 91.76,-104.4631"/>
<text text-anchor="middle" x="190.1694" y="-170.5" font-family="Helvetica,sans-Serif" font-size="10.00" fill="#000000"> heightMapScale</text>
</g>
<!-- Node8&#45;&gt;Node10 -->
<g id="edge21" class="edge">
<title>Node8&#45;&gt;Node10</title>
<path fill="none" stroke="#9a32cd" stroke-dasharray="5,2" d="M80.0942,-84.9703C95.4515,-70.8649 119.7271,-51.6159 145.1475,-43.5 182.7606,-31.4913 227.6297,-37.5647 260.3515,-45.4446"/>
<polygon fill="#9a32cd" stroke="#9a32cd" points="77.3575,-82.7433 72.5292,-92.174 82.1847,-87.8126 77.3575,-82.7433"/>
<text text-anchor="middle" x="190.1694" y="-105.5" font-family="Helvetica,sans-Serif" font-size="10.00" fill="#000000"> maxSlope</text>
<text text-anchor="middle" x="190.1694" y="-95.5" font-family="Helvetica,sans-Serif" font-size="10.00" fill="#000000">noise</text>
<text text-anchor="middle" x="190.1694" y="-85.5" font-family="Helvetica,sans-Serif" font-size="10.00" fill="#000000">noiseDetail</text>
<text text-anchor="middle" x="190.1694" y="-75.5" font-family="Helvetica,sans-Serif" font-size="10.00" fill="#000000">minHeight</text>
<text text-anchor="middle" x="190.1694" y="-65.5" font-family="Helvetica,sans-Serif" font-size="10.00" fill="#000000">minSlope</text>
<text text-anchor="middle" x="190.1694" y="-55.5" font-family="Helvetica,sans-Serif" font-size="10.00" fill="#000000">covarage</text>
<text text-anchor="middle" x="190.1694" y="-45.5" font-family="Helvetica,sans-Serif" font-size="10.00" fill="#000000">maxHeight</text>
</g>
<!-- Node9&#45;&gt;Node0 -->
<g id="edge15" class="edge">
<title>Node9&#45;&gt;Node0</title>
<path fill="none" stroke="#9a32cd" stroke-dasharray="5,2" d="M350.8741,-416.7127C383.7613,-403.7786 427.6708,-386.5095 458.1038,-374.5405"/>
<polygon fill="#9a32cd" stroke="#9a32cd" points="349.5059,-413.4898 341.4808,-420.407 352.068,-420.0041 349.5059,-413.4898"/>
<text text-anchor="middle" x="399.7256" y="-407.5" font-family="Helvetica,sans-Serif" font-size="10.00" fill="#000000"> baseMap</text>
</g>
<!-- Node10&#45;&gt;Node0 -->
<g id="edge19" class="edge">
<title>Node10&#45;&gt;Node0</title>
<path fill="none" stroke="#9a32cd" stroke-dasharray="5,2" d="M368.0858,-70.9769C388.1317,-77.4871 408.8694,-87.6525 423.3486,-103.5 457.0513,-140.3874 484.039,-297.9892 491.6499,-346.3392"/>
<polygon fill="#9a32cd" stroke="#9a32cd" points="368.9144,-67.5718 358.3311,-68.0658 366.9126,-74.2794 368.9144,-67.5718"/>
<text text-anchor="middle" x="399.7256" y="-105.5" font-family="Helvetica,sans-Serif" font-size="10.00" fill="#000000"> autoPaint</text>
</g>
<!-- Node11 -->
<g id="node12" class="node">
<title>Node11</title>
<polygon fill="none" stroke="#bfbfbf" points="46.1206,-.5 46.1206,-18.5 81.0269,-18.5 81.0269,-.5 46.1206,-.5"/>
<text text-anchor="middle" x="63.5737" y="-6.5" font-family="Helvetica,sans-Serif" font-size="10.00" fill="#000000">bool</text>
</g>
<!-- Node11&#45;&gt;Node10 -->
<g id="edge22" class="edge">
<title>Node11&#45;&gt;Node10</title>
<path fill="none" stroke="#9a32cd" stroke-dasharray="5,2" d="M91.7838,-8.4797C126.2868,-7.9824 186.1516,-9.5635 235.1914,-23.5 252.3682,-28.3814 270.2685,-37.5886 283.7279,-45.4694"/>
<polygon fill="#9a32cd" stroke="#9a32cd" points="91.4407,-4.9862 81.5185,-8.7012 91.5917,-11.9846 91.4407,-4.9862"/>
<text text-anchor="middle" x="190.1694" y="-25.5" font-family="Helvetica,sans-Serif" font-size="10.00" fill="#000000"> enabled</text>
</g>
</g>
</svg>
