<?xml version="1.0" encoding="UTF-8" standalone="no"?>
<!DOCTYPE svg PUBLIC "-//W3C//DTD SVG 1.1//EN"
 "http://www.w3.org/Graphics/SVG/1.1/DTD/svg11.dtd">
<!-- Generated by graphviz version 2.40.1 (20161225.0304)
 -->
<!-- Title: NoLimits::NoLimits1::IndividualColor Pages: 1 -->
<svg width="394pt" height="132pt"
 viewBox="0.00 0.00 394.37 132.00" xmlns="http://www.w3.org/2000/svg" xmlns:xlink="http://www.w3.org/1999/xlink">
<g id="graph0" class="graph" transform="scale(1 1) rotate(0) translate(4 128)">
<title>NoLimits::NoLimits1::IndividualColor</title>
<!-- Node0 -->
<g id="node1" class="node">
<title>Node0</title>
<polygon fill="#bfbfbf" stroke="#000000" points="141.1182,-.5 141.1182,-28.5 246.0293,-28.5 246.0293,-.5 141.1182,-.5"/>
<text text-anchor="start" x="149.1182" y="-16.5" font-family="Helvetica,sans-Serif" font-size="10.00" fill="#000000">NoLimits::NoLimits1</text>
<text text-anchor="middle" x="193.5737" y="-6.5" font-family="Helvetica,sans-Serif" font-size="10.00" fill="#000000">::IndividualColor</text>
</g>
<!-- Node1 -->
<g id="node2" class="node">
<title>Node1</title>
<g id="a_node2"><a xlink:href="class_no_limits_1_1_stream_1_1_chunk.html" target="_top" xlink:title="NoLimits::Stream::Chunk">
<polygon fill="none" stroke="#000000" points="0,-105.5 0,-123.5 127.1475,-123.5 127.1475,-105.5 0,-105.5"/>
<text text-anchor="middle" x="63.5737" y="-111.5" font-family="Helvetica,sans-Serif" font-size="10.00" fill="#000000">NoLimits::Stream::Chunk</text>
</a>
</g>
</g>
<!-- Node1&#45;&gt;Node0 -->
<g id="edge1" class="edge">
<title>Node1&#45;&gt;Node0</title>
<path fill="none" stroke="#191970" d="M83.6073,-99.0896C108.5305,-79.9179 150.7493,-47.4418 174.9825,-28.801"/>
<polygon fill="#191970" stroke="#191970" points="81.3631,-96.4001 75.5708,-105.2715 85.6311,-101.9485 81.3631,-96.4001"/>
</g>
<!-- Node2 -->
<g id="node3" class="node">
<title>Node2</title>
<polygon fill="none" stroke="#bfbfbf" points="145.3472,-105.5 145.3472,-123.5 185.8003,-123.5 185.8003,-105.5 145.3472,-105.5"/>
<text text-anchor="middle" x="165.5737" y="-111.5" font-family="Helvetica,sans-Serif" font-size="10.00" fill="#000000">string</text>
</g>
<!-- Node2&#45;&gt;Node0 -->
<g id="edge2" class="edge">
<title>Node2&#45;&gt;Node0</title>
<path fill="none" stroke="#9a32cd" stroke-dasharray="5,2" d="M162.3642,-95.1445C160.8701,-81.2986 160.502,-62.455 166.2241,-47 168.7334,-40.2227 173.3294,-33.8715 178.0469,-28.6135"/>
<polygon fill="#9a32cd" stroke="#9a32cd" points="158.9467,-95.9849 163.7751,-105.4155 165.8816,-95.0322 158.9467,-95.9849"/>
<text text-anchor="middle" x="182.2485" y="-64" font-family="Helvetica,sans-Serif" font-size="10.00" fill="#000000"> texture</text>
</g>
<!-- Node3 -->
<g id="node4" class="node">
<title>Node3</title>
<polygon fill="none" stroke="#bfbfbf" points="204.1206,-105.5 204.1206,-123.5 239.0269,-123.5 239.0269,-105.5 204.1206,-105.5"/>
<text text-anchor="middle" x="221.5737" y="-111.5" font-family="Helvetica,sans-Serif" font-size="10.00" fill="#000000">bool</text>
</g>
<!-- Node3&#45;&gt;Node0 -->
<g id="edge3" class="edge">
<title>Node3&#45;&gt;Node0</title>
<path fill="none" stroke="#9a32cd" stroke-dasharray="5,2" d="M216.2342,-95.4304C210.7934,-75.9987 202.4784,-46.3022 197.578,-28.801"/>
<polygon fill="#9a32cd" stroke="#9a32cd" points="212.923,-96.5856 218.9897,-105.2715 219.6638,-94.6981 212.923,-96.5856"/>
<text text-anchor="middle" x="255.0981" y="-64" font-family="Helvetica,sans-Serif" font-size="10.00" fill="#000000"> hasIndividualColor</text>
</g>
<!-- Node4 -->
<g id="node5" class="node">
<title>Node4</title>
<polygon fill="none" stroke="#bfbfbf" points="311.0122,-105.5 311.0122,-123.5 348.1353,-123.5 348.1353,-105.5 311.0122,-105.5"/>
<text text-anchor="middle" x="329.5737" y="-111.5" font-family="Helvetica,sans-Serif" font-size="10.00" fill="#000000">vec3</text>
</g>
<!-- Node4&#45;&gt;Node0 -->
<g id="edge4" class="edge">
<title>Node4&#45;&gt;Node0</title>
<path fill="none" stroke="#9a32cd" stroke-dasharray="5,2" d="M326.2705,-95.3376C322.6915,-80.2012 315.5095,-59.596 301.5737,-47 292.967,-39.2207 269.1873,-31.6796 246.1256,-25.8231"/>
<polygon fill="#9a32cd" stroke="#9a32cd" points="322.8544,-96.1026 328.2847,-105.1999 329.7128,-94.7018 322.8544,-96.1026"/>
<text text-anchor="middle" x="354.9727" y="-79" font-family="Helvetica,sans-Serif" font-size="10.00" fill="#000000"> restraintColor</text>
<text text-anchor="middle" x="354.9727" y="-69" font-family="Helvetica,sans-Serif" font-size="10.00" fill="#000000">seatColor</text>
<text text-anchor="middle" x="354.9727" y="-59" font-family="Helvetica,sans-Serif" font-size="10.00" fill="#000000">gearColor</text>
<text text-anchor="middle" x="354.9727" y="-49" font-family="Helvetica,sans-Serif" font-size="10.00" fill="#000000">trainColor</text>
</g>
</g>
</svg>
