<?xml version="1.0" encoding="UTF-8" standalone="no"?>
<!DOCTYPE svg PUBLIC "-//W3C//DTD SVG 1.1//EN"
 "http://www.w3.org/Graphics/SVG/1.1/DTD/svg11.dtd">
<!-- Generated by graphviz version 2.40.1 (20161225.0304)
 -->
<!-- Title: NoLimits::NoLimits2::Storage Pages: 1 -->
<svg width="575pt" height="379pt"
 viewBox="0.00 0.00 575.16 379.00" xmlns="http://www.w3.org/2000/svg" xmlns:xlink="http://www.w3.org/1999/xlink">
<g id="graph0" class="graph" transform="scale(1 1) rotate(0) translate(4 375)">
<title>NoLimits::NoLimits2::Storage</title>
<!-- Node0 -->
<g id="node1" class="node">
<title>Node0</title>
<polygon fill="#bfbfbf" stroke="#000000" points="462.2529,-119.5 462.2529,-147.5 567.1641,-147.5 567.1641,-119.5 462.2529,-119.5"/>
<text text-anchor="start" x="470.2529" y="-135.5" font-family="Helvetica,sans-Serif" font-size="10.00" fill="#000000">NoLimits::NoLimits2</text>
<text text-anchor="middle" x="514.7085" y="-125.5" font-family="Helvetica,sans-Serif" font-size="10.00" fill="#000000">::Storage</text>
</g>
<!-- Node1 -->
<g id="node2" class="node">
<title>Node1</title>
<g id="a_node2"><a xlink:href="class_no_limits_1_1_no_limits2_1_1_section.html" target="_top" xlink:title="NoLimits::NoLimits2\l::Section">
<polygon fill="none" stroke="#000000" points="248.0894,-300.5 248.0894,-328.5 353.0005,-328.5 353.0005,-300.5 248.0894,-300.5"/>
<text text-anchor="start" x="256.0894" y="-316.5" font-family="Helvetica,sans-Serif" font-size="10.00" fill="#000000">NoLimits::NoLimits2</text>
<text text-anchor="middle" x="300.5449" y="-306.5" font-family="Helvetica,sans-Serif" font-size="10.00" fill="#000000">::Section</text>
</a>
</g>
</g>
<!-- Node1&#45;&gt;Node0 -->
<g id="edge1" class="edge">
<title>Node1&#45;&gt;Node0</title>
<path fill="none" stroke="#191970" d="M363.1296,-310.618C390.5027,-306.1422 421.4901,-296.9819 444.2529,-278.5 487.057,-243.746 505.7052,-176.6147 512.0273,-147.5174"/>
<polygon fill="#191970" stroke="#191970" points="362.6195,-307.1553 353.2302,-312.0637 363.6311,-314.0819 362.6195,-307.1553"/>
</g>
<!-- Node1&#45;&gt;Node1 -->
<g id="edge3" class="edge">
<title>Node1&#45;&gt;Node1</title>
<path fill="none" stroke="#9a32cd" stroke-dasharray="5,2" d="M281.3833,-338.4873C283.418,-343.4413 289.8052,-347 300.5449,-347 317.7285,-347 323.7696,-337.8898 318.6682,-328.5305"/>
<polygon fill="#9a32cd" stroke="#9a32cd" points="284.8654,-338.8396 282.4216,-328.5305 277.9032,-338.1135 284.8654,-338.8396"/>
<text text-anchor="middle" x="300.5449" y="-349" font-family="Helvetica,sans-Serif" font-size="10.00" fill="#000000"> section</text>
</g>
<!-- Node2 -->
<g id="node3" class="node">
<title>Node2</title>
<g id="a_node3"><a xlink:href="class_no_limits_1_1_stream_1_1_chunk.html" target="_top" xlink:title="NoLimits::Stream::Chunk">
<polygon fill="none" stroke="#000000" points="0,-278.5 0,-296.5 127.1475,-296.5 127.1475,-278.5 0,-278.5"/>
<text text-anchor="middle" x="63.5737" y="-284.5" font-family="Helvetica,sans-Serif" font-size="10.00" fill="#000000">NoLimits::Stream::Chunk</text>
</a>
</g>
</g>
<!-- Node2&#45;&gt;Node1 -->
<g id="edge2" class="edge">
<title>Node2&#45;&gt;Node1</title>
<path fill="none" stroke="#191970" d="M137.764,-295.9531C173.4674,-300.0211 215.4392,-304.8032 247.8206,-308.4927"/>
<polygon fill="#191970" stroke="#191970" points="137.7214,-292.4257 127.3894,-294.771 136.9289,-299.3807 137.7214,-292.4257"/>
</g>
<!-- Node3 -->
<g id="node4" class="node">
<title>Node3</title>
<polygon fill="none" stroke="#bfbfbf" points="43.3472,-352.5 43.3472,-370.5 83.8003,-370.5 83.8003,-352.5 43.3472,-352.5"/>
<text text-anchor="middle" x="63.5737" y="-358.5" font-family="Helvetica,sans-Serif" font-size="10.00" fill="#000000">string</text>
</g>
<!-- Node3&#45;&gt;Node1 -->
<g id="edge4" class="edge">
<title>Node3&#45;&gt;Node1</title>
<path fill="none" stroke="#9a32cd" stroke-dasharray="5,2" d="M93.9668,-357.6164C127.418,-353.097 182.6808,-344.9062 229.6445,-334.5 237.3862,-332.7846 245.5367,-330.727 253.4438,-328.5936"/>
<polygon fill="#9a32cd" stroke="#9a32cd" points="93.3623,-354.1659 83.9107,-358.953 94.2846,-361.1049 93.3623,-354.1659"/>
<text text-anchor="middle" x="187.396" y="-351.5" font-family="Helvetica,sans-Serif" font-size="10.00" fill="#000000"> name</text>
</g>
<!-- Node4 -->
<g id="node5" class="node">
<title>Node4</title>
<polygon fill="none" stroke="#bfbfbf" points="28.0542,-315.5 28.0542,-333.5 99.0933,-333.5 99.0933,-315.5 28.0542,-315.5"/>
<text text-anchor="middle" x="63.5737" y="-321.5" font-family="Helvetica,sans-Serif" font-size="10.00" fill="#000000">SectionType</text>
</g>
<!-- Node4&#45;&gt;Node1 -->
<g id="edge5" class="edge">
<title>Node4&#45;&gt;Node1</title>
<path fill="none" stroke="#9a32cd" stroke-dasharray="5,2" d="M109.4815,-322.5627C149.0948,-320.8911 206.3136,-318.4765 247.7999,-316.7258"/>
<polygon fill="#9a32cd" stroke="#9a32cd" points="109.1508,-319.0735 99.3073,-322.9921 109.446,-326.0672 109.1508,-319.0735"/>
<text text-anchor="middle" x="187.396" y="-322.5" font-family="Helvetica,sans-Serif" font-size="10.00" fill="#000000"> _sectionType</text>
</g>
<!-- Node5 -->
<g id="node6" class="node">
<title>Node5</title>
<g id="a_node6"><a xlink:href="class_no_limits_1_1_no_limits2_1_1_transport_device.html" target="_top" xlink:title="NoLimits::NoLimits2\l::TransportDevice">
<polygon fill="none" stroke="#000000" points="248.0894,-144.5 248.0894,-172.5 353.0005,-172.5 353.0005,-144.5 248.0894,-144.5"/>
<text text-anchor="start" x="256.0894" y="-160.5" font-family="Helvetica,sans-Serif" font-size="10.00" fill="#000000">NoLimits::NoLimits2</text>
<text text-anchor="middle" x="300.5449" y="-150.5" font-family="Helvetica,sans-Serif" font-size="10.00" fill="#000000">::TransportDevice</text>
</a>
</g>
</g>
<!-- Node5&#45;&gt;Node0 -->
<g id="edge6" class="edge">
<title>Node5&#45;&gt;Node0</title>
<path fill="none" stroke="#9a32cd" stroke-dasharray="5,2" d="M363.1879,-151.1875C394.6491,-147.5149 432.332,-143.1161 462.2475,-139.6239"/>
<polygon fill="#9a32cd" stroke="#9a32cd" points="362.7362,-147.7164 353.2095,-152.3523 363.5479,-154.6691 362.7362,-147.7164"/>
<text text-anchor="middle" x="407.8491" y="-151.5" font-family="Helvetica,sans-Serif" font-size="10.00" fill="#000000"> transportDevice</text>
</g>
<!-- Node6 -->
<g id="node7" class="node">
<title>Node6</title>
<polygon fill="none" stroke="#bfbfbf" points="40.5591,-157.5 40.5591,-175.5 86.5884,-175.5 86.5884,-157.5 40.5591,-157.5"/>
<text text-anchor="middle" x="63.5737" y="-163.5" font-family="Helvetica,sans-Serif" font-size="10.00" fill="#000000">double</text>
</g>
<!-- Node6&#45;&gt;Node5 -->
<g id="edge7" class="edge">
<title>Node6&#45;&gt;Node5</title>
<path fill="none" stroke="#9a32cd" stroke-dasharray="5,2" d="M96.7946,-165.3785C135.9464,-164.0567 201.5063,-161.8435 247.6658,-160.2852"/>
<polygon fill="#9a32cd" stroke="#9a32cd" points="96.6032,-161.8829 86.727,-165.7184 96.8394,-168.8789 96.6032,-161.8829"/>
<text text-anchor="middle" x="187.396" y="-205.5" font-family="Helvetica,sans-Serif" font-size="10.00" fill="#000000"> speed</text>
<text text-anchor="middle" x="187.396" y="-195.5" font-family="Helvetica,sans-Serif" font-size="10.00" fill="#000000">deceleration</text>
<text text-anchor="middle" x="187.396" y="-185.5" font-family="Helvetica,sans-Serif" font-size="10.00" fill="#000000">acceleration</text>
<text text-anchor="middle" x="187.396" y="-175.5" font-family="Helvetica,sans-Serif" font-size="10.00" fill="#000000">launchAcceleration</text>
<text text-anchor="middle" x="187.396" y="-165.5" font-family="Helvetica,sans-Serif" font-size="10.00" fill="#000000">launchMaxSpeed</text>
</g>
<!-- Node7 -->
<g id="node8" class="node">
<title>Node7</title>
<polygon fill="none" stroke="#bfbfbf" points="46.1206,-235.5 46.1206,-253.5 81.0269,-253.5 81.0269,-235.5 46.1206,-235.5"/>
<text text-anchor="middle" x="63.5737" y="-241.5" font-family="Helvetica,sans-Serif" font-size="10.00" fill="#000000">bool</text>
</g>
<!-- Node7&#45;&gt;Node0 -->
<g id="edge11" class="edge">
<title>Node7&#45;&gt;Node0</title>
<path fill="none" stroke="#9a32cd" stroke-dasharray="5,2" d="M91.1193,-249.2855C124.31,-254.1849 181.607,-259.8668 229.6445,-250.5 330.9844,-230.7399 441.5459,-174.2745 489.8255,-147.6796"/>
<polygon fill="#9a32cd" stroke="#9a32cd" points="91.6527,-245.8264 81.2325,-247.7424 90.5731,-252.7427 91.6527,-245.8264"/>
<text text-anchor="middle" x="300.5449" y="-248.5" font-family="Helvetica,sans-Serif" font-size="10.00" fill="#000000"> enableTransportDevice</text>
</g>
<!-- Node7&#45;&gt;Node5 -->
<g id="edge8" class="edge">
<title>Node7&#45;&gt;Node5</title>
<path fill="none" stroke="#9a32cd" stroke-dasharray="5,2" d="M91.5821,-244.3887C125.678,-243.2749 184.3138,-238.1584 229.6445,-217.5 252.9593,-206.8748 274.8261,-186.4843 287.9475,-172.6855"/>
<polygon fill="#9a32cd" stroke="#9a32cd" points="91.3384,-240.8933 81.4222,-244.6243 91.5007,-247.8915 91.3384,-240.8933"/>
<text text-anchor="middle" x="187.396" y="-241.5" font-family="Helvetica,sans-Serif" font-size="10.00" fill="#000000"> launch</text>
</g>
<!-- Node8 -->
<g id="node9" class="node">
<title>Node8</title>
<polygon fill="none" stroke="#bfbfbf" points="23.5181,-106.5 23.5181,-124.5 103.6294,-124.5 103.6294,-106.5 23.5181,-106.5"/>
<text text-anchor="middle" x="63.5737" y="-112.5" font-family="Helvetica,sans-Serif" font-size="10.00" fill="#000000">TransportType</text>
</g>
<!-- Node8&#45;&gt;Node0 -->
<g id="edge13" class="edge">
<title>Node8&#45;&gt;Node0</title>
<path fill="none" stroke="#9a32cd" stroke-dasharray="5,2" d="M114.2405,-117.0164C172.1051,-118.802 269.6136,-121.9748 353.4453,-125.5 389.7141,-127.0251 430.5553,-129.0544 462.062,-130.6875"/>
<polygon fill="#9a32cd" stroke="#9a32cd" points="114.0122,-113.5078 103.9095,-116.6994 113.7974,-120.5046 114.0122,-113.5078"/>
<text text-anchor="middle" x="300.5449" y="-127.5" font-family="Helvetica,sans-Serif" font-size="10.00" fill="#000000"> transportType</text>
</g>
<!-- Node8&#45;&gt;Node5 -->
<g id="edge9" class="edge">
<title>Node8&#45;&gt;Node5</title>
<path fill="none" stroke="#9a32cd" stroke-dasharray="5,2" d="M113.7105,-124.5977C153.1801,-131.7597 208.0271,-141.712 248.0843,-148.9807"/>
<polygon fill="#9a32cd" stroke="#9a32cd" points="114.2369,-121.1361 103.7727,-122.7944 112.9871,-128.0236 114.2369,-121.1361"/>
<text text-anchor="middle" x="187.396" y="-146.5" font-family="Helvetica,sans-Serif" font-size="10.00" fill="#000000"> transportType</text>
</g>
<!-- Node9 -->
<g id="node10" class="node">
<title>Node9</title>
<polygon fill="none" stroke="#bfbfbf" points="274.7544,-45.5 274.7544,-63.5 326.3354,-63.5 326.3354,-45.5 274.7544,-45.5"/>
<text text-anchor="middle" x="300.5449" y="-51.5" font-family="Helvetica,sans-Serif" font-size="10.00" fill="#000000">Building</text>
</g>
<!-- Node9&#45;&gt;Node0 -->
<g id="edge10" class="edge">
<title>Node9&#45;&gt;Node0</title>
<path fill="none" stroke="#9a32cd" stroke-dasharray="5,2" d="M336.6133,-54.8397C366.5913,-56.3157 409.7645,-61.261 444.2529,-76.5 466.9912,-86.5471 488.4999,-105.9048 501.6353,-119.2531"/>
<polygon fill="#9a32cd" stroke="#9a32cd" points="336.7241,-51.3415 326.5959,-54.4512 336.4527,-58.3362 336.7241,-51.3415"/>
<text text-anchor="middle" x="407.8491" y="-78.5" font-family="Helvetica,sans-Serif" font-size="10.00" fill="#000000"> building</text>
</g>
<!-- Node10 -->
<g id="node11" class="node">
<title>Node10</title>
<polygon fill="none" stroke="#bfbfbf" points="281.9834,-.5 281.9834,-18.5 319.1064,-18.5 319.1064,-.5 281.9834,-.5"/>
<text text-anchor="middle" x="300.5449" y="-6.5" font-family="Helvetica,sans-Serif" font-size="10.00" fill="#000000">vec3</text>
</g>
<!-- Node10&#45;&gt;Node0 -->
<g id="edge12" class="edge">
<title>Node10&#45;&gt;Node0</title>
<path fill="none" stroke="#9a32cd" stroke-dasharray="5,2" d="M329.4696,-5.5666C360.2546,-2.877 409.2555,-3.0195 444.2529,-24.5 480.3563,-46.6593 501.43,-95.0566 510.0781,-119.2041"/>
<polygon fill="#9a32cd" stroke="#9a32cd" points="328.9813,-2.0983 319.3931,-6.6057 329.6994,-9.0614 328.9813,-2.0983"/>
<text text-anchor="middle" x="407.8491" y="-46.5" font-family="Helvetica,sans-Serif" font-size="10.00" fill="#000000"> frameColor</text>
<text text-anchor="middle" x="407.8491" y="-36.5" font-family="Helvetica,sans-Serif" font-size="10.00" fill="#000000">sideColor</text>
<text text-anchor="middle" x="407.8491" y="-26.5" font-family="Helvetica,sans-Serif" font-size="10.00" fill="#000000">roofColor</text>
</g>
</g>
</svg>
