<?xml version="1.0" encoding="UTF-8" standalone="no"?>
<!DOCTYPE svg PUBLIC "-//W3C//DTD SVG 1.1//EN"
 "http://www.w3.org/Graphics/SVG/1.1/DTD/svg11.dtd">
<!-- Generated by graphviz version 2.40.1 (20161225.0304)
 -->
<!-- Title: NoLimits::NoLimits2::Lift Pages: 1 -->
<svg width="699pt" height="207pt"
 viewBox="0.00 0.00 699.31 207.00" xmlns="http://www.w3.org/2000/svg" xmlns:xlink="http://www.w3.org/1999/xlink">
<g id="graph0" class="graph" transform="scale(1 1) rotate(0) translate(4 203)">
<title>NoLimits::NoLimits2::Lift</title>
<!-- Node0 -->
<g id="node1" class="node">
<title>Node0</title>
<polygon fill="#bfbfbf" stroke="#000000" points="358.1182,-.5 358.1182,-28.5 463.0293,-28.5 463.0293,-.5 358.1182,-.5"/>
<text text-anchor="start" x="366.1182" y="-16.5" font-family="Helvetica,sans-Serif" font-size="10.00" fill="#000000">NoLimits::NoLimits2</text>
<text text-anchor="middle" x="410.5737" y="-6.5" font-family="Helvetica,sans-Serif" font-size="10.00" fill="#000000">::Lift</text>
</g>
<!-- Node1 -->
<g id="node2" class="node">
<title>Node1</title>
<g id="a_node2"><a xlink:href="class_no_limits_1_1_no_limits2_1_1_section.html" target="_top" xlink:title="NoLimits::NoLimits2\l::Section">
<polygon fill="none" stroke="#000000" points="113.1182,-105.5 113.1182,-133.5 218.0293,-133.5 218.0293,-105.5 113.1182,-105.5"/>
<text text-anchor="start" x="121.1182" y="-121.5" font-family="Helvetica,sans-Serif" font-size="10.00" fill="#000000">NoLimits::NoLimits2</text>
<text text-anchor="middle" x="165.5737" y="-111.5" font-family="Helvetica,sans-Serif" font-size="10.00" fill="#000000">::Section</text>
</a>
</g>
</g>
<!-- Node1&#45;&gt;Node0 -->
<g id="edge1" class="edge">
<title>Node1&#45;&gt;Node0</title>
<path fill="none" stroke="#191970" d="M199.0703,-100.5792C227.6031,-84.9369 269.9927,-62.8067 308.5737,-47 325.3419,-40.1301 344.1329,-33.7788 360.9736,-28.5477"/>
<polygon fill="#191970" stroke="#191970" points="197.3777,-97.5156 190.3157,-105.4136 200.7616,-103.6434 197.3777,-97.5156"/>
</g>
<!-- Node1&#45;&gt;Node1 -->
<g id="edge3" class="edge">
<title>Node1&#45;&gt;Node1</title>
<path fill="none" stroke="#9a32cd" stroke-dasharray="5,2" d="M228.379,-124.5493C233.1165,-123.4243 236.0293,-121.7412 236.0293,-119.5 236.0293,-115.9141 228.5726,-113.7569 218.1158,-113.0285"/>
<polygon fill="#9a32cd" stroke="#9a32cd" points="227.5407,-121.1319 218.1158,-125.9715 228.5016,-128.0657 227.5407,-121.1319"/>
<text text-anchor="middle" x="253.2607" y="-116.5" font-family="Helvetica,sans-Serif" font-size="10.00" fill="#000000"> section</text>
</g>
<!-- Node2 -->
<g id="node3" class="node">
<title>Node2</title>
<g id="a_node3"><a xlink:href="class_no_limits_1_1_stream_1_1_chunk.html" target="_top" xlink:title="NoLimits::Stream::Chunk">
<polygon fill="none" stroke="#000000" points="0,-180.5 0,-198.5 127.1475,-198.5 127.1475,-180.5 0,-180.5"/>
<text text-anchor="middle" x="63.5737" y="-186.5" font-family="Helvetica,sans-Serif" font-size="10.00" fill="#000000">NoLimits::Stream::Chunk</text>
</a>
</g>
</g>
<!-- Node2&#45;&gt;Node1 -->
<g id="edge2" class="edge">
<title>Node2&#45;&gt;Node1</title>
<path fill="none" stroke="#191970" d="M85.3898,-174.5282C102.9678,-162.4648 127.5177,-145.6169 144.8096,-133.7499"/>
<polygon fill="#191970" stroke="#191970" points="83.1731,-171.8045 76.9084,-180.3487 87.1341,-177.5761 83.1731,-171.8045"/>
</g>
<!-- Node3 -->
<g id="node4" class="node">
<title>Node3</title>
<polygon fill="none" stroke="#bfbfbf" points="145.3472,-180.5 145.3472,-198.5 185.8003,-198.5 185.8003,-180.5 145.3472,-180.5"/>
<text text-anchor="middle" x="165.5737" y="-186.5" font-family="Helvetica,sans-Serif" font-size="10.00" fill="#000000">string</text>
</g>
<!-- Node3&#45;&gt;Node1 -->
<g id="edge4" class="edge">
<title>Node3&#45;&gt;Node1</title>
<path fill="none" stroke="#9a32cd" stroke-dasharray="5,2" d="M165.5737,-170.0243C165.5737,-158.5169 165.5737,-144.2016 165.5737,-133.7499"/>
<polygon fill="#9a32cd" stroke="#9a32cd" points="162.0738,-170.3487 165.5737,-180.3487 169.0738,-170.3488 162.0738,-170.3487"/>
<text text-anchor="middle" x="179.4702" y="-154" font-family="Helvetica,sans-Serif" font-size="10.00" fill="#000000"> name</text>
</g>
<!-- Node4 -->
<g id="node5" class="node">
<title>Node4</title>
<polygon fill="none" stroke="#bfbfbf" points="204.0542,-180.5 204.0542,-198.5 275.0933,-198.5 275.0933,-180.5 204.0542,-180.5"/>
<text text-anchor="middle" x="239.5737" y="-186.5" font-family="Helvetica,sans-Serif" font-size="10.00" fill="#000000">SectionType</text>
</g>
<!-- Node4&#45;&gt;Node1 -->
<g id="edge5" class="edge">
<title>Node4&#45;&gt;Node1</title>
<path fill="none" stroke="#9a32cd" stroke-dasharray="5,2" d="M222.3225,-173.1813C209.6936,-161.235 192.7227,-145.1814 180.6379,-133.7499"/>
<polygon fill="#9a32cd" stroke="#9a32cd" points="220.2296,-176.0193 229.8995,-180.3487 225.04,-170.934 220.2296,-176.0193"/>
<text text-anchor="middle" x="240.4282" y="-154" font-family="Helvetica,sans-Serif" font-size="10.00" fill="#000000"> _sectionType</text>
</g>
<!-- Node5 -->
<g id="node6" class="node">
<title>Node5</title>
<polygon fill="none" stroke="#bfbfbf" points="287.5591,-110.5 287.5591,-128.5 333.5884,-128.5 333.5884,-110.5 287.5591,-110.5"/>
<text text-anchor="middle" x="310.5737" y="-116.5" font-family="Helvetica,sans-Serif" font-size="10.00" fill="#000000">double</text>
</g>
<!-- Node5&#45;&gt;Node0 -->
<g id="edge6" class="edge">
<title>Node5&#45;&gt;Node0</title>
<path fill="none" stroke="#9a32cd" stroke-dasharray="5,2" d="M310.9309,-99.9283C312.2241,-83.9166 316.45,-61.6077 329.3032,-47 336.9322,-38.3297 347.1942,-31.943 357.8535,-27.2482"/>
<polygon fill="#9a32cd" stroke="#9a32cd" points="307.4177,-100.1155 310.4262,-110.2742 314.4094,-100.4567 307.4177,-100.1155"/>
<text text-anchor="middle" x="367.209" y="-79" font-family="Helvetica,sans-Serif" font-size="10.00" fill="#000000"> speed</text>
<text text-anchor="middle" x="367.209" y="-69" font-family="Helvetica,sans-Serif" font-size="10.00" fill="#000000">deceleration</text>
<text text-anchor="middle" x="367.209" y="-59" font-family="Helvetica,sans-Serif" font-size="10.00" fill="#000000">acceleration</text>
<text text-anchor="middle" x="367.209" y="-49" font-family="Helvetica,sans-Serif" font-size="10.00" fill="#000000">extraBlockLength</text>
</g>
<!-- Node6 -->
<g id="node7" class="node">
<title>Node6</title>
<polygon fill="none" stroke="#bfbfbf" points="370.8892,-110.5 370.8892,-128.5 450.2583,-128.5 450.2583,-110.5 370.8892,-110.5"/>
<text text-anchor="middle" x="410.5737" y="-116.5" font-family="Helvetica,sans-Serif" font-size="10.00" fill="#000000">MotorLocation</text>
</g>
<!-- Node6&#45;&gt;Node0 -->
<g id="edge7" class="edge">
<title>Node6&#45;&gt;Node0</title>
<path fill="none" stroke="#9a32cd" stroke-dasharray="5,2" d="M410.5737,-100.0103C410.5737,-79.2677 410.5737,-46.9572 410.5737,-28.5654"/>
<polygon fill="#9a32cd" stroke="#9a32cd" points="407.0738,-100.1819 410.5737,-110.182 414.0738,-100.182 407.0738,-100.1819"/>
<text text-anchor="middle" x="443.6475" y="-64" font-family="Helvetica,sans-Serif" font-size="10.00" fill="#000000"> motorLocation</text>
</g>
<!-- Node7 -->
<g id="node8" class="node">
<title>Node7</title>
<polygon fill="none" stroke="#bfbfbf" points="474.0615,-110.5 474.0615,-128.5 525.0859,-128.5 525.0859,-110.5 474.0615,-110.5"/>
<text text-anchor="middle" x="499.5737" y="-116.5" font-family="Helvetica,sans-Serif" font-size="10.00" fill="#000000">LiftType</text>
</g>
<!-- Node7&#45;&gt;Node0 -->
<g id="edge8" class="edge">
<title>Node7&#45;&gt;Node0</title>
<path fill="none" stroke="#9a32cd" stroke-dasharray="5,2" d="M497.958,-100.1157C495.7152,-84.2174 490.36,-61.9698 477.5737,-47 471.0245,-39.3323 462.2462,-33.3199 453.2053,-28.6661"/>
<polygon fill="#9a32cd" stroke="#9a32cd" points="494.5153,-100.825 499.1027,-110.3752 501.4721,-100.0487 494.5153,-100.825"/>
<text text-anchor="middle" x="511.8052" y="-64" font-family="Helvetica,sans-Serif" font-size="10.00" fill="#000000"> liftType</text>
</g>
<!-- Node8 -->
<g id="node9" class="node">
<title>Node8</title>
<polygon fill="none" stroke="#bfbfbf" points="543.1206,-110.5 543.1206,-128.5 578.0269,-128.5 578.0269,-110.5 543.1206,-110.5"/>
<text text-anchor="middle" x="560.5737" y="-116.5" font-family="Helvetica,sans-Serif" font-size="10.00" fill="#000000">bool</text>
</g>
<!-- Node8&#45;&gt;Node0 -->
<g id="edge9" class="edge">
<title>Node8&#45;&gt;Node0</title>
<path fill="none" stroke="#9a32cd" stroke-dasharray="5,2" d="M558.0699,-100.3499C554.9168,-83.9148 547.9143,-60.7643 532.5737,-47 522.0507,-37.5583 491.1545,-29.3796 463.0895,-23.5885"/>
<polygon fill="#9a32cd" stroke="#9a32cd" points="554.6516,-101.1387 559.693,-110.4573 561.5631,-100.0288 554.6516,-101.1387"/>
<text text-anchor="start" x="554.5737" y="-79" font-family="Helvetica,sans-Serif" font-size="10.00" fill="#000000"> shuttleModeGentle2ndPass</text>
<text text-anchor="middle" x="622.9429" y="-69" font-family="Helvetica,sans-Serif" font-size="10.00" fill="#000000">Release</text>
<text text-anchor="middle" x="622.9429" y="-59" font-family="Helvetica,sans-Serif" font-size="10.00" fill="#000000">hasAntiRollbackDevice</text>
<text text-anchor="middle" x="622.9429" y="-49" font-family="Helvetica,sans-Serif" font-size="10.00" fill="#000000">diveCoasterDropReleaseMode</text>
</g>
</g>
</svg>
