<?xml version="1.0" encoding="UTF-8" standalone="no"?>
<!DOCTYPE svg PUBLIC "-//W3C//DTD SVG 1.1//EN"
 "http://www.w3.org/Graphics/SVG/1.1/DTD/svg11.dtd">
<!-- Generated by graphviz version 2.40.1 (20161225.0304)
 -->
<!-- Title: NoLimits::NoLimits2::Mode Pages: 1 -->
<svg width="618pt" height="219pt"
 viewBox="0.00 0.00 618.00 218.67" xmlns="http://www.w3.org/2000/svg" xmlns:xlink="http://www.w3.org/1999/xlink">
<g id="graph0" class="graph" transform="scale(1 1) rotate(0) translate(4 214.6713)">
<title>NoLimits::NoLimits2::Mode</title>
<!-- Node0 -->
<g id="node1" class="node">
<title>Node0</title>
<polygon fill="#bfbfbf" stroke="#000000" points="505.084,-87.5 505.084,-115.5 609.9951,-115.5 609.9951,-87.5 505.084,-87.5"/>
<text text-anchor="start" x="513.084" y="-103.5" font-family="Helvetica,sans-Serif" font-size="10.00" fill="#000000">NoLimits::NoLimits2</text>
<text text-anchor="middle" x="557.5396" y="-93.5" font-family="Helvetica,sans-Serif" font-size="10.00" fill="#000000">::Mode</text>
</g>
<!-- Node1 -->
<g id="node2" class="node">
<title>Node1</title>
<g id="a_node2"><a xlink:href="class_no_limits_1_1_stream_1_1_chunk.html" target="_top" xlink:title="NoLimits::Stream::Chunk">
<polygon fill="none" stroke="#000000" points="0,-184.5 0,-202.5 127.1475,-202.5 127.1475,-184.5 0,-184.5"/>
<text text-anchor="middle" x="63.5737" y="-190.5" font-family="Helvetica,sans-Serif" font-size="10.00" fill="#000000">NoLimits::Stream::Chunk</text>
</a>
</g>
</g>
<!-- Node1&#45;&gt;Node0 -->
<g id="edge1" class="edge">
<title>Node1&#45;&gt;Node0</title>
<path fill="none" stroke="#191970" d="M131.0069,-203.7305C218.2249,-213.6944 372.5251,-219.9985 487.084,-162.5 510.3649,-150.815 532.2296,-129.7006 545.2513,-115.639"/>
<polygon fill="#191970" stroke="#191970" points="131.3132,-200.2423 120.9691,-202.5335 130.4843,-207.1931 131.3132,-200.2423"/>
</g>
<!-- Node5 -->
<g id="node6" class="node">
<title>Node5</title>
<g id="a_node6"><a xlink:href="class_no_limits_1_1_no_limits2_1_1_custom_friction.html" target="_top" xlink:title="NoLimits::NoLimits2\l::CustomFriction">
<polygon fill="none" stroke="#000000" points="273.1914,-148.5 273.1914,-176.5 378.1025,-176.5 378.1025,-148.5 273.1914,-148.5"/>
<text text-anchor="start" x="281.1914" y="-164.5" font-family="Helvetica,sans-Serif" font-size="10.00" fill="#000000">NoLimits::NoLimits2</text>
<text text-anchor="middle" x="325.647" y="-154.5" font-family="Helvetica,sans-Serif" font-size="10.00" fill="#000000">::CustomFriction</text>
</a>
</g>
</g>
<!-- Node1&#45;&gt;Node5 -->
<g id="edge6" class="edge">
<title>Node1&#45;&gt;Node5</title>
<path fill="none" stroke="#191970" d="M137.5247,-184.7525C180.7122,-179.644 234.1829,-173.3191 273.0661,-168.7197"/>
<polygon fill="#191970" stroke="#191970" points="136.8685,-181.3056 127.3489,-185.9562 137.6909,-188.2572 136.8685,-181.3056"/>
</g>
<!-- Node2 -->
<g id="node3" class="node">
<title>Node2</title>
<polygon fill="none" stroke="#bfbfbf" points="285.96,-111.5 285.96,-129.5 365.334,-129.5 365.334,-111.5 285.96,-111.5"/>
<text text-anchor="middle" x="325.647" y="-117.5" font-family="Helvetica,sans-Serif" font-size="10.00" fill="#000000">SplinePosition</text>
</g>
<!-- Node2&#45;&gt;Node0 -->
<g id="edge2" class="edge">
<title>Node2&#45;&gt;Node0</title>
<path fill="none" stroke="#9a32cd" stroke-dasharray="5,2" d="M375.8463,-116.3869C413.8987,-113.2691 466.0633,-108.9951 504.7394,-105.8262"/>
<polygon fill="#9a32cd" stroke="#9a32cd" points="375.1915,-112.9288 365.5107,-117.2338 375.7632,-119.9054 375.1915,-112.9288"/>
<text text-anchor="middle" x="441.5933" y="-115.5" font-family="Helvetica,sans-Serif" font-size="10.00" fill="#000000"> splinePosition</text>
</g>
<!-- Node3 -->
<g id="node4" class="node">
<title>Node3</title>
<polygon fill="none" stroke="#bfbfbf" points="295.689,-74.5 295.689,-92.5 355.605,-92.5 355.605,-74.5 295.689,-74.5"/>
<text text-anchor="middle" x="325.647" y="-80.5" font-family="Helvetica,sans-Serif" font-size="10.00" fill="#000000">Operation</text>
</g>
<!-- Node3&#45;&gt;Node0 -->
<g id="edge3" class="edge">
<title>Node3&#45;&gt;Node0</title>
<path fill="none" stroke="#9a32cd" stroke-dasharray="5,2" d="M365.8789,-83.0592C398.6101,-83.1056 445.95,-84.0938 487.084,-88.5 492.8968,-89.1227 498.95,-89.9549 504.9594,-90.8987"/>
<polygon fill="#9a32cd" stroke="#9a32cd" points="365.7863,-79.5592 355.7916,-83.0741 365.7967,-86.5592 365.7863,-79.5592"/>
<text text-anchor="middle" x="441.5933" y="-90.5" font-family="Helvetica,sans-Serif" font-size="10.00" fill="#000000"> operationMode</text>
</g>
<!-- Node4 -->
<g id="node5" class="node">
<title>Node4</title>
<polygon fill="none" stroke="#bfbfbf" points="286.8022,-37.5 286.8022,-55.5 364.4917,-55.5 364.4917,-37.5 286.8022,-37.5"/>
<text text-anchor="middle" x="325.647" y="-43.5" font-family="Helvetica,sans-Serif" font-size="10.00" fill="#000000">PhysicsModel</text>
</g>
<!-- Node4&#45;&gt;Node0 -->
<g id="edge4" class="edge">
<title>Node4&#45;&gt;Node0</title>
<path fill="none" stroke="#9a32cd" stroke-dasharray="5,2" d="M374.6263,-49.3103C407.0551,-52.107 450.2388,-57.6357 487.084,-68.5 502.6307,-73.0842 519.0834,-80.6217 532.1766,-87.3365"/>
<polygon fill="#9a32cd" stroke="#9a32cd" points="374.7457,-45.8087 364.4971,-48.495 374.184,-52.7861 374.7457,-45.8087"/>
<text text-anchor="middle" x="441.5933" y="-70.5" font-family="Helvetica,sans-Serif" font-size="10.00" fill="#000000"> physicsModel</text>
</g>
<!-- Node5&#45;&gt;Node0 -->
<g id="edge5" class="edge">
<title>Node5&#45;&gt;Node0</title>
<path fill="none" stroke="#9a32cd" stroke-dasharray="5,2" d="M388.4102,-151.0195C418.5075,-144.9751 454.9257,-136.8696 487.084,-127.5 498.7254,-124.1082 511.2069,-119.7494 522.3817,-115.5739"/>
<polygon fill="#9a32cd" stroke="#9a32cd" points="387.5908,-147.6137 378.461,-152.9892 388.9503,-154.4804 387.5908,-147.6137"/>
<text text-anchor="middle" x="441.5933" y="-150.5" font-family="Helvetica,sans-Serif" font-size="10.00" fill="#000000"> customFriction</text>
</g>
<!-- Node6 -->
<g id="node7" class="node">
<title>Node6</title>
<polygon fill="none" stroke="#bfbfbf" points="40.5591,-136.5 40.5591,-154.5 86.5884,-154.5 86.5884,-136.5 40.5591,-136.5"/>
<text text-anchor="middle" x="63.5737" y="-142.5" font-family="Helvetica,sans-Serif" font-size="10.00" fill="#000000">double</text>
</g>
<!-- Node6&#45;&gt;Node5 -->
<g id="edge7" class="edge">
<title>Node6&#45;&gt;Node5</title>
<path fill="none" stroke="#9a32cd" stroke-dasharray="5,2" d="M96.7487,-143.4907C135.0588,-141.6751 199.9067,-140.1554 255.1914,-146.5 261.0483,-147.1722 267.1295,-148.1368 273.1551,-149.2639"/>
<polygon fill="#9a32cd" stroke="#9a32cd" points="96.4857,-139.9995 86.677,-144.0043 96.8423,-146.9904 96.4857,-139.9995"/>
<text text-anchor="middle" x="200.1694" y="-158.5" font-family="Helvetica,sans-Serif" font-size="10.00" fill="#000000"> airResistanceParameter</text>
<text text-anchor="middle" x="200.1694" y="-148.5" font-family="Helvetica,sans-Serif" font-size="10.00" fill="#000000">constFrictionParameter</text>
</g>
<!-- Node7 -->
<g id="node8" class="node">
<title>Node7</title>
<polygon fill="none" stroke="#bfbfbf" points="307.0854,-.5 307.0854,-18.5 344.2085,-18.5 344.2085,-.5 307.0854,-.5"/>
<text text-anchor="middle" x="325.647" y="-6.5" font-family="Helvetica,sans-Serif" font-size="10.00" fill="#000000">vec2</text>
</g>
<!-- Node7&#45;&gt;Node0 -->
<g id="edge8" class="edge">
<title>Node7&#45;&gt;Node0</title>
<path fill="none" stroke="#9a32cd" stroke-dasharray="5,2" d="M354.3903,-9.4291C387.8913,-10.4185 444.1369,-15.4659 487.084,-36.5 511.7448,-48.5781 533.8849,-72.0891 546.5091,-87.2778"/>
<polygon fill="#9a32cd" stroke="#9a32cd" points="354.424,-5.9292 344.3582,-9.2353 354.2887,-12.9278 354.424,-5.9292"/>
<text text-anchor="middle" x="441.5933" y="-38.5" font-family="Helvetica,sans-Serif" font-size="10.00" fill="#000000"> splinePositionOffset</text>
</g>
</g>
</svg>
