<?xml version="1.0" encoding="UTF-8" standalone="no"?>
<!DOCTYPE svg PUBLIC "-//W3C//DTD SVG 1.1//EN"
 "http://www.w3.org/Graphics/SVG/1.1/DTD/svg11.dtd">
<!-- Generated by graphviz version 2.40.1 (20161225.0304)
 -->
<!-- Title: NoLimits::NoLimits2::Vertex Pages: 1 -->
<svg width="251pt" height="112pt"
 viewBox="0.00 0.00 250.82 112.00" xmlns="http://www.w3.org/2000/svg" xmlns:xlink="http://www.w3.org/1999/xlink">
<g id="graph0" class="graph" transform="scale(1 1) rotate(0) translate(4 108)">
<title>NoLimits::NoLimits2::Vertex</title>
<!-- Node0 -->
<g id="node1" class="node">
<title>Node0</title>
<polygon fill="#bfbfbf" stroke="#000000" points="110.1182,-.5 110.1182,-28.5 215.0293,-28.5 215.0293,-.5 110.1182,-.5"/>
<text text-anchor="start" x="118.1182" y="-16.5" font-family="Helvetica,sans-Serif" font-size="10.00" fill="#000000">NoLimits::NoLimits2</text>
<text text-anchor="middle" x="162.5737" y="-6.5" font-family="Helvetica,sans-Serif" font-size="10.00" fill="#000000">::Vertex</text>
</g>
<!-- Node1 -->
<g id="node2" class="node">
<title>Node1</title>
<g id="a_node2"><a xlink:href="class_no_limits_1_1_stream_1_1_chunk.html" target="_top" xlink:title="NoLimits::Stream::Chunk">
<polygon fill="none" stroke="#000000" points="0,-85.5 0,-103.5 127.1475,-103.5 127.1475,-85.5 0,-85.5"/>
<text text-anchor="middle" x="63.5737" y="-91.5" font-family="Helvetica,sans-Serif" font-size="10.00" fill="#000000">NoLimits::Stream::Chunk</text>
</a>
</g>
</g>
<!-- Node1&#45;&gt;Node0 -->
<g id="edge1" class="edge">
<title>Node1&#45;&gt;Node0</title>
<path fill="none" stroke="#191970" d="M83.016,-78.789C101.0467,-64.2188 127.6403,-42.7291 145.0349,-28.6728"/>
<polygon fill="#191970" stroke="#191970" points="80.5084,-76.3155 74.9303,-85.323 84.9081,-81.76 80.5084,-76.3155"/>
</g>
<!-- Node2 -->
<g id="node3" class="node">
<title>Node2</title>
<polygon fill="none" stroke="#bfbfbf" points="145.1206,-85.5 145.1206,-103.5 180.0269,-103.5 180.0269,-85.5 145.1206,-85.5"/>
<text text-anchor="middle" x="162.5737" y="-91.5" font-family="Helvetica,sans-Serif" font-size="10.00" fill="#000000">bool</text>
</g>
<!-- Node2&#45;&gt;Node0 -->
<g id="edge2" class="edge">
<title>Node2&#45;&gt;Node0</title>
<path fill="none" stroke="#9a32cd" stroke-dasharray="5,2" d="M162.5737,-75.0816C162.5737,-60.7521 162.5737,-41.579 162.5737,-28.6728"/>
<polygon fill="#9a32cd" stroke="#9a32cd" points="159.0738,-75.3229 162.5737,-85.323 166.0738,-75.323 159.0738,-75.3229"/>
<text text-anchor="middle" x="177.0269" y="-59" font-family="Helvetica,sans-Serif" font-size="10.00" fill="#000000"> strict</text>
<text text-anchor="middle" x="177.0269" y="-49" font-family="Helvetica,sans-Serif" font-size="10.00" fill="#000000">locked</text>
</g>
<!-- Node3 -->
<g id="node4" class="node">
<title>Node3</title>
<polygon fill="none" stroke="#bfbfbf" points="198.0122,-85.5 198.0122,-103.5 235.1353,-103.5 235.1353,-85.5 198.0122,-85.5"/>
<text text-anchor="middle" x="216.5737" y="-91.5" font-family="Helvetica,sans-Serif" font-size="10.00" fill="#000000">vec4</text>
</g>
<!-- Node3&#45;&gt;Node0 -->
<g id="edge3" class="edge">
<title>Node3&#45;&gt;Node0</title>
<path fill="none" stroke="#9a32cd" stroke-dasharray="5,2" d="M209.7206,-75.924C205.9313,-66.8085 200.7391,-55.9026 194.5737,-47 190.0655,-40.4903 184.1966,-34.1071 178.7178,-28.745"/>
<polygon fill="#9a32cd" stroke="#9a32cd" points="206.4698,-77.2214 213.3798,-85.2528 212.9864,-74.6653 206.4698,-77.2214"/>
<text text-anchor="middle" x="224.1968" y="-54" font-family="Helvetica,sans-Serif" font-size="10.00" fill="#000000"> position</text>
</g>
</g>
</svg>
