<?xml version="1.0" encoding="UTF-8" standalone="no"?>
<!DOCTYPE svg PUBLIC "-//W3C//DTD SVG 1.1//EN"
 "http://www.w3.org/Graphics/SVG/1.1/DTD/svg11.dtd">
<!-- Generated by graphviz version 2.40.1 (20161225.0304)
 -->
<!-- Title: NoLimits::NoLimits2::Version Pages: 1 -->
<svg width="204pt" height="132pt"
 viewBox="0.00 0.00 204.37 132.00" xmlns="http://www.w3.org/2000/svg" xmlns:xlink="http://www.w3.org/1999/xlink">
<g id="graph0" class="graph" transform="scale(1 1) rotate(0) translate(4 128)">
<title>NoLimits::NoLimits2::Version</title>
<!-- Node0 -->
<g id="node1" class="node">
<title>Node0</title>
<polygon fill="#bfbfbf" stroke="#000000" points="64.1182,-.5 64.1182,-28.5 169.0293,-28.5 169.0293,-.5 64.1182,-.5"/>
<text text-anchor="start" x="72.1182" y="-16.5" font-family="Helvetica,sans-Serif" font-size="10.00" fill="#000000">NoLimits::NoLimits2</text>
<text text-anchor="middle" x="116.5737" y="-6.5" font-family="Helvetica,sans-Serif" font-size="10.00" fill="#000000">::Version</text>
</g>
<!-- Node1 -->
<g id="node2" class="node">
<title>Node1</title>
<g id="a_node2"><a xlink:href="class_no_limits_1_1_stream_1_1_chunk.html" target="_top" xlink:title="NoLimits::Stream::Chunk">
<polygon fill="none" stroke="#000000" points="0,-105.5 0,-123.5 127.1475,-123.5 127.1475,-105.5 0,-105.5"/>
<text text-anchor="middle" x="63.5737" y="-111.5" font-family="Helvetica,sans-Serif" font-size="10.00" fill="#000000">NoLimits::Stream::Chunk</text>
</a>
</g>
</g>
<!-- Node1&#45;&gt;Node0 -->
<g id="edge1" class="edge">
<title>Node1&#45;&gt;Node0</title>
<path fill="none" stroke="#191970" d="M73.2527,-96.2377C83.5389,-76.8298 99.5891,-46.5464 108.9942,-28.801"/>
<polygon fill="#191970" stroke="#191970" points="70.0553,-94.7967 68.4648,-105.2715 76.2403,-98.0748 70.0553,-94.7967"/>
</g>
<!-- Node2 -->
<g id="node3" class="node">
<title>Node2</title>
<polygon fill="none" stroke="#bfbfbf" points="144.7808,-105.5 144.7808,-123.5 196.3667,-123.5 196.3667,-105.5 144.7808,-105.5"/>
<text text-anchor="middle" x="170.5737" y="-111.5" font-family="Helvetica,sans-Serif" font-size="10.00" fill="#000000">uint16_t</text>
</g>
<!-- Node2&#45;&gt;Node0 -->
<g id="edge2" class="edge">
<title>Node2&#45;&gt;Node0</title>
<path fill="none" stroke="#9a32cd" stroke-dasharray="5,2" d="M160.7121,-96.2377C150.2318,-76.8298 133.8788,-46.5464 124.2963,-28.801"/>
<polygon fill="#9a32cd" stroke="#9a32cd" points="157.7591,-98.1355 165.5903,-105.2715 163.9185,-94.8094 157.7591,-98.1355"/>
<text text-anchor="middle" x="173.1919" y="-79" font-family="Helvetica,sans-Serif" font-size="10.00" fill="#000000"> revision</text>
<text text-anchor="middle" x="173.1919" y="-69" font-family="Helvetica,sans-Serif" font-size="10.00" fill="#000000">major</text>
<text text-anchor="middle" x="173.1919" y="-59" font-family="Helvetica,sans-Serif" font-size="10.00" fill="#000000">build</text>
<text text-anchor="middle" x="173.1919" y="-49" font-family="Helvetica,sans-Serif" font-size="10.00" fill="#000000">minor</text>
</g>
</g>
</svg>
