<?xml version="1.0" encoding="UTF-8" standalone="no"?>
<!DOCTYPE svg PUBLIC "-//W3C//DTD SVG 1.1//EN"
 "http://www.w3.org/Graphics/SVG/1.1/DTD/svg11.dtd">
<!-- Generated by graphviz version 2.40.1 (20161225.0304)
 -->
<!-- Title: NoLimits::NoLimits1::Lift Pages: 1 -->
<svg width="746pt" height="217pt"
 viewBox="0.00 0.00 745.58 217.00" xmlns="http://www.w3.org/2000/svg" xmlns:xlink="http://www.w3.org/1999/xlink">
<g id="graph0" class="graph" transform="scale(1 1) rotate(0) translate(4 213)">
<title>NoLimits::NoLimits1::Lift</title>
<!-- Node0 -->
<g id="node1" class="node">
<title>Node0</title>
<polygon fill="#bfbfbf" stroke="#000000" points="542.3374,-.5 542.3374,-28.5 647.2485,-28.5 647.2485,-.5 542.3374,-.5"/>
<text text-anchor="start" x="550.3374" y="-16.5" font-family="Helvetica,sans-Serif" font-size="10.00" fill="#000000">NoLimits::NoLimits1</text>
<text text-anchor="middle" x="594.793" y="-6.5" font-family="Helvetica,sans-Serif" font-size="10.00" fill="#000000">::Lift</text>
</g>
<!-- Node1 -->
<g id="node2" class="node">
<title>Node1</title>
<g id="a_node2"><a xlink:href="class_no_limits_1_1_no_limits1_1_1_section.html" target="_top" xlink:title="NoLimits::NoLimits1\l::Section">
<polygon fill="none" stroke="#000000" points="233.3374,-95.5 233.3374,-123.5 338.2485,-123.5 338.2485,-95.5 233.3374,-95.5"/>
<text text-anchor="start" x="241.3374" y="-111.5" font-family="Helvetica,sans-Serif" font-size="10.00" fill="#000000">NoLimits::NoLimits1</text>
<text text-anchor="middle" x="285.793" y="-101.5" font-family="Helvetica,sans-Serif" font-size="10.00" fill="#000000">::Section</text>
</a>
</g>
</g>
<!-- Node1&#45;&gt;Node0 -->
<g id="edge1" class="edge">
<title>Node1&#45;&gt;Node0</title>
<path fill="none" stroke="#191970" d="M340.9697,-92.5363C400.3111,-74.2922 493.5859,-45.6155 549.0119,-28.5751"/>
<polygon fill="#191970" stroke="#191970" points="339.9169,-89.1982 331.387,-95.4824 341.974,-95.8891 339.9169,-89.1982"/>
</g>
<!-- Node2 -->
<g id="node3" class="node">
<title>Node2</title>
<g id="a_node3"><a xlink:href="class_no_limits_1_1_stream_1_1_chunk.html" target="_top" xlink:title="NoLimits::Stream::Chunk">
<polygon fill="none" stroke="#000000" points="69.2192,-190.5 69.2192,-208.5 196.3667,-208.5 196.3667,-190.5 69.2192,-190.5"/>
<text text-anchor="middle" x="132.793" y="-196.5" font-family="Helvetica,sans-Serif" font-size="10.00" fill="#000000">NoLimits::Stream::Chunk</text>
</a>
</g>
</g>
<!-- Node2&#45;&gt;Node1 -->
<g id="edge2" class="edge">
<title>Node2&#45;&gt;Node1</title>
<path fill="none" stroke="#191970" d="M157.2725,-185.1003C185.9706,-168.219 233.2265,-140.4214 261.7395,-123.6491"/>
<polygon fill="#191970" stroke="#191970" points="155.1502,-182.288 148.3054,-190.375 158.6994,-188.3216 155.1502,-182.288"/>
</g>
<!-- Node3 -->
<g id="node4" class="node">
<title>Node3</title>
<polygon fill="none" stroke="#bfbfbf" points="0,-190.5 0,-208.5 51.5859,-208.5 51.5859,-190.5 0,-190.5"/>
<text text-anchor="middle" x="25.793" y="-196.5" font-family="Helvetica,sans-Serif" font-size="10.00" fill="#000000">uint32_t</text>
</g>
<!-- Node3&#45;&gt;Node1 -->
<g id="edge3" class="edge">
<title>Node3&#45;&gt;Node1</title>
<path fill="none" stroke="#9a32cd" stroke-dasharray="5,2" d="M51.5393,-185.6459C76.0979,-172.885 114.4159,-154.1432 149.3301,-142 176.4731,-132.5596 207.587,-124.917 233.2442,-119.4206"/>
<polygon fill="#9a32cd" stroke="#9a32cd" points="49.7507,-182.6319 42.5267,-190.3821 53.007,-188.8284 49.7507,-182.6319"/>
<text text-anchor="middle" x="164.5244" y="-159" font-family="Helvetica,sans-Serif" font-size="10.00" fill="#000000"> flags1</text>
<text text-anchor="middle" x="164.5244" y="-149" font-family="Helvetica,sans-Serif" font-size="10.00" fill="#000000">flags2</text>
</g>
<!-- Node4 -->
<g id="node5" class="node">
<title>Node4</title>
<polygon fill="none" stroke="#bfbfbf" points="474.3398,-190.5 474.3398,-208.5 509.2461,-208.5 509.2461,-190.5 474.3398,-190.5"/>
<text text-anchor="middle" x="491.793" y="-196.5" font-family="Helvetica,sans-Serif" font-size="10.00" fill="#000000">bool</text>
</g>
<!-- Node4&#45;&gt;Node0 -->
<g id="edge9" class="edge">
<title>Node4&#45;&gt;Node0</title>
<path fill="none" stroke="#9a32cd" stroke-dasharray="5,2" d="M518.7094,-189.1117C526.7736,-184.8653 535.0023,-179.2198 540.793,-172 563.1555,-144.1186 552.4411,-128.8241 563.9902,-95 572.0168,-71.4925 582.5856,-44.6234 589.0247,-28.6364"/>
<polygon fill="#9a32cd" stroke="#9a32cd" points="517.0276,-186.0351 509.4742,-193.4645 520.012,-192.367 517.0276,-186.0351"/>
<text text-anchor="middle" x="591.1943" y="-111.5" font-family="Helvetica,sans-Serif" font-size="10.00" fill="#000000"> railingRight</text>
<text text-anchor="middle" x="591.1943" y="-101.5" font-family="Helvetica,sans-Serif" font-size="10.00" fill="#000000">railingLeft</text>
</g>
<!-- Node4&#45;&gt;Node1 -->
<g id="edge4" class="edge">
<title>Node4&#45;&gt;Node1</title>
<path fill="none" stroke="#9a32cd" stroke-dasharray="5,2" d="M464.6419,-189.7353C453.7286,-185.1777 441.3362,-179.1653 431.1104,-172 415.8426,-161.3018 417.8305,-151.5055 401.793,-142 382.542,-130.5899 359.1187,-123.0402 338.3739,-118.1172"/>
<polygon fill="#9a32cd" stroke="#9a32cd" points="463.5578,-193.0705 474.1438,-193.5033 466.1382,-186.5635 463.5578,-193.0705"/>
<text text-anchor="middle" x="486.6343" y="-159" font-family="Helvetica,sans-Serif" font-size="10.00" fill="#000000"> useIndividualTrackColor</text>
<text text-anchor="middle" x="486.6343" y="-149" font-family="Helvetica,sans-Serif" font-size="10.00" fill="#000000">useTunnel</text>
</g>
<!-- Node5 -->
<g id="node6" class="node">
<title>Node5</title>
<polygon fill="none" stroke="#bfbfbf" points="214.2734,-190.5 214.2734,-208.5 285.3125,-208.5 285.3125,-190.5 214.2734,-190.5"/>
<text text-anchor="middle" x="249.793" y="-196.5" font-family="Helvetica,sans-Serif" font-size="10.00" fill="#000000">SectionType</text>
</g>
<!-- Node5&#45;&gt;Node1 -->
<g id="edge5" class="edge">
<title>Node5&#45;&gt;Node1</title>
<path fill="none" stroke="#9a32cd" stroke-dasharray="5,2" d="M244.338,-180.4681C242.0469,-168.8281 241.0429,-153.933 246.6455,-142 250.0242,-134.8037 255.8658,-128.6504 262.0208,-123.6962"/>
<polygon fill="#9a32cd" stroke="#9a32cd" points="240.9954,-181.5354 246.7554,-190.4277 247.7979,-179.8842 240.9954,-181.5354"/>
<text text-anchor="middle" x="274.8667" y="-154" font-family="Helvetica,sans-Serif" font-size="10.00" fill="#000000"> sectionType</text>
</g>
<!-- Node6 -->
<g id="node7" class="node">
<title>Node6</title>
<polygon fill="none" stroke="#bfbfbf" points="306.2314,-190.5 306.2314,-208.5 343.3545,-208.5 343.3545,-190.5 306.2314,-190.5"/>
<text text-anchor="middle" x="324.793" y="-196.5" font-family="Helvetica,sans-Serif" font-size="10.00" fill="#000000">vec3</text>
</g>
<!-- Node6&#45;&gt;Node1 -->
<g id="edge6" class="edge">
<title>Node6&#45;&gt;Node1</title>
<path fill="none" stroke="#9a32cd" stroke-dasharray="5,2" d="M318.2349,-180.7188C314.1189,-169.3735 308.5205,-154.6998 302.793,-142 300.018,-135.8471 296.6265,-129.2175 293.6047,-123.5609"/>
<polygon fill="#9a32cd" stroke="#9a32cd" points="315.0314,-182.1564 321.6827,-190.4033 321.626,-179.8086 315.0314,-182.1564"/>
<text text-anchor="middle" x="356.9136" y="-164" font-family="Helvetica,sans-Serif" font-size="10.00" fill="#000000"> trackRailColor</text>
<text text-anchor="middle" x="356.9136" y="-154" font-family="Helvetica,sans-Serif" font-size="10.00" fill="#000000">trackSpineColor</text>
<text text-anchor="middle" x="356.9136" y="-144" font-family="Helvetica,sans-Serif" font-size="10.00" fill="#000000">trackCrosstieColor</text>
</g>
<!-- Node7 -->
<g id="node8" class="node">
<title>Node7</title>
<polygon fill="none" stroke="#bfbfbf" points="625.3423,-100.5 625.3423,-118.5 660.2437,-118.5 660.2437,-100.5 625.3423,-100.5"/>
<text text-anchor="middle" x="642.793" y="-106.5" font-family="Helvetica,sans-Serif" font-size="10.00" fill="#000000">float</text>
</g>
<!-- Node7&#45;&gt;Node0 -->
<g id="edge7" class="edge">
<title>Node7&#45;&gt;Node0</title>
<path fill="none" stroke="#9a32cd" stroke-dasharray="5,2" d="M633.6254,-91.3559C624.398,-73.0933 610.3588,-45.3074 601.9296,-28.6247"/>
<polygon fill="#9a32cd" stroke="#9a32cd" points="630.5569,-93.044 638.1905,-100.391 636.8047,-89.8872 630.5569,-93.044"/>
<text text-anchor="middle" x="653.0342" y="-69" font-family="Helvetica,sans-Serif" font-size="10.00" fill="#000000"> speed</text>
<text text-anchor="middle" x="653.0342" y="-59" font-family="Helvetica,sans-Serif" font-size="10.00" fill="#000000">deceleration</text>
<text text-anchor="middle" x="653.0342" y="-49" font-family="Helvetica,sans-Serif" font-size="10.00" fill="#000000">acceleration</text>
</g>
<!-- Node8 -->
<g id="node9" class="node">
<title>Node8</title>
<polygon fill="none" stroke="#bfbfbf" points="686.0073,-100.5 686.0073,-118.5 737.5786,-118.5 737.5786,-100.5 686.0073,-100.5"/>
<text text-anchor="middle" x="711.793" y="-106.5" font-family="Helvetica,sans-Serif" font-size="10.00" fill="#000000">LiftStyle</text>
</g>
<!-- Node8&#45;&gt;Node0 -->
<g id="edge8" class="edge">
<title>Node8&#45;&gt;Node0</title>
<path fill="none" stroke="#9a32cd" stroke-dasharray="5,2" d="M707.4335,-90.2111C703.4149,-76.4861 696.1507,-58.5094 683.793,-47 673.6816,-37.5828 660.6236,-30.8465 647.6412,-26.0457"/>
<polygon fill="#9a32cd" stroke="#9a32cd" points="704.0998,-91.2993 709.9958,-100.102 710.8761,-89.5438 704.0998,-91.2993"/>
<text text-anchor="middle" x="719.2979" y="-59" font-family="Helvetica,sans-Serif" font-size="10.00" fill="#000000"> liftStyle</text>
</g>
</g>
</svg>
