<?xml version="1.0" encoding="UTF-8" standalone="no"?>
<!DOCTYPE svg PUBLIC "-//W3C//DTD SVG 1.1//EN"
 "http://www.w3.org/Graphics/SVG/1.1/DTD/svg11.dtd">
<!-- Generated by graphviz version 2.40.1 (20161225.0304)
 -->
<!-- Title: NoLimits::NoLimits2::BrakeDevice Pages: 1 -->
<svg width="143pt" height="102pt"
 viewBox="0.00 0.00 143.49 102.00" xmlns="http://www.w3.org/2000/svg" xmlns:xlink="http://www.w3.org/1999/xlink">
<g id="graph0" class="graph" transform="scale(1 1) rotate(0) translate(4 98)">
<title>NoLimits::NoLimits2::BrakeDevice</title>
<!-- Node0 -->
<g id="node1" class="node">
<title>Node0</title>
<polygon fill="#bfbfbf" stroke="#000000" points="10.5591,-.5 10.5591,-28.5 115.4702,-28.5 115.4702,-.5 10.5591,-.5"/>
<text text-anchor="start" x="18.5591" y="-16.5" font-family="Helvetica,sans-Serif" font-size="10.00" fill="#000000">NoLimits::NoLimits2</text>
<text text-anchor="middle" x="63.0146" y="-6.5" font-family="Helvetica,sans-Serif" font-size="10.00" fill="#000000">::BrakeDevice</text>
</g>
<!-- Node1 -->
<g id="node2" class="node">
<title>Node1</title>
<polygon fill="none" stroke="#bfbfbf" points="0,-75.5 0,-93.5 46.0293,-93.5 46.0293,-75.5 0,-75.5"/>
<text text-anchor="middle" x="23.0146" y="-81.5" font-family="Helvetica,sans-Serif" font-size="10.00" fill="#000000">double</text>
</g>
<!-- Node1&#45;&gt;Node0 -->
<g id="edge1" class="edge">
<title>Node1&#45;&gt;Node0</title>
<path fill="none" stroke="#9a32cd" stroke-dasharray="5,2" d="M20.3345,-65.2707C20.271,-59.1721 21.0658,-52.5715 23.7539,-47 27.2144,-39.8275 33.0942,-33.6813 39.2645,-28.7263"/>
<polygon fill="#9a32cd" stroke="#9a32cd" points="16.8569,-65.6902 21.1521,-75.3753 23.8341,-65.1256 16.8569,-65.6902"/>
<text text-anchor="middle" x="52.645" y="-49" font-family="Helvetica,sans-Serif" font-size="10.00" fill="#000000"> deceleration</text>
</g>
<!-- Node2 -->
<g id="node3" class="node">
<title>Node2</title>
<polygon fill="none" stroke="#bfbfbf" points="71.1108,-75.5 71.1108,-93.5 134.9185,-93.5 134.9185,-75.5 71.1108,-75.5"/>
<text text-anchor="middle" x="103.0146" y="-81.5" font-family="Helvetica,sans-Serif" font-size="10.00" fill="#000000">BrakeType</text>
</g>
<!-- Node2&#45;&gt;Node0 -->
<g id="edge2" class="edge">
<title>Node2&#45;&gt;Node0</title>
<path fill="none" stroke="#9a32cd" stroke-dasharray="5,2" d="M92.699,-66.4477C85.9955,-54.7166 77.3787,-39.6371 71.1575,-28.7499"/>
<polygon fill="#9a32cd" stroke="#9a32cd" points="89.7851,-68.4028 97.7853,-75.3487 95.8628,-64.9298 89.7851,-68.4028"/>
<text text-anchor="middle" x="110.7534" y="-49" font-family="Helvetica,sans-Serif" font-size="10.00" fill="#000000"> brakeType</text>
</g>
</g>
</svg>
