<?xml version="1.0" encoding="UTF-8" standalone="no"?>
<!DOCTYPE svg PUBLIC "-//W3C//DTD SVG 1.1//EN"
 "http://www.w3.org/Graphics/SVG/1.1/DTD/svg11.dtd">
<!-- Generated by graphviz version 2.40.1 (20161225.0304)
 -->
<!-- Title: NoLimits::NoLimits2::Weather Pages: 1 -->
<svg width="384pt" height="162pt"
 viewBox="0.00 0.00 384.22 162.00" xmlns="http://www.w3.org/2000/svg" xmlns:xlink="http://www.w3.org/1999/xlink">
<g id="graph0" class="graph" transform="scale(1 1) rotate(0) translate(4 158)">
<title>NoLimits::NoLimits2::Weather</title>
<!-- Node0 -->
<g id="node1" class="node">
<title>Node0</title>
<polygon fill="#bfbfbf" stroke="#000000" points="110.1182,-.5 110.1182,-28.5 215.0293,-28.5 215.0293,-.5 110.1182,-.5"/>
<text text-anchor="start" x="118.1182" y="-16.5" font-family="Helvetica,sans-Serif" font-size="10.00" fill="#000000">NoLimits::NoLimits2</text>
<text text-anchor="middle" x="162.5737" y="-6.5" font-family="Helvetica,sans-Serif" font-size="10.00" fill="#000000">::Weather</text>
</g>
<!-- Node1 -->
<g id="node2" class="node">
<title>Node1</title>
<g id="a_node2"><a xlink:href="class_no_limits_1_1_stream_1_1_chunk.html" target="_top" xlink:title="NoLimits::Stream::Chunk">
<polygon fill="none" stroke="#000000" points="0,-135.5 0,-153.5 127.1475,-153.5 127.1475,-135.5 0,-135.5"/>
<text text-anchor="middle" x="63.5737" y="-141.5" font-family="Helvetica,sans-Serif" font-size="10.00" fill="#000000">NoLimits::Stream::Chunk</text>
</a>
</g>
</g>
<!-- Node1&#45;&gt;Node0 -->
<g id="edge1" class="edge">
<title>Node1&#45;&gt;Node0</title>
<path fill="none" stroke="#191970" d="M76.9319,-126.959C96.7322,-100.9586 133.4894,-52.6915 151.7284,-28.7413"/>
<polygon fill="#191970" stroke="#191970" points="73.9677,-125.0745 70.6936,-135.1507 79.5367,-129.3155 73.9677,-125.0745"/>
</g>
<!-- Node2 -->
<g id="node3" class="node">
<title>Node2</title>
<polygon fill="none" stroke="#bfbfbf" points="145.123,-135.5 145.123,-153.5 180.0244,-153.5 180.0244,-135.5 145.123,-135.5"/>
<text text-anchor="middle" x="162.5737" y="-141.5" font-family="Helvetica,sans-Serif" font-size="10.00" fill="#000000">float</text>
</g>
<!-- Node2&#45;&gt;Node0 -->
<g id="edge2" class="edge">
<title>Node2&#45;&gt;Node0</title>
<path fill="none" stroke="#9a32cd" stroke-dasharray="5,2" d="M162.5737,-124.8703C162.5737,-98.446 162.5737,-52.064 162.5737,-28.7413"/>
<polygon fill="#9a32cd" stroke="#9a32cd" points="159.0738,-125.1507 162.5737,-135.1507 166.0738,-125.1508 159.0738,-125.1507"/>
<text text-anchor="middle" x="201.48" y="-109" font-family="Helvetica,sans-Serif" font-size="10.00" fill="#000000"> overcastIntensity</text>
<text text-anchor="middle" x="201.48" y="-99" font-family="Helvetica,sans-Serif" font-size="10.00" fill="#000000">cloudsIntensity</text>
<text text-anchor="middle" x="201.48" y="-89" font-family="Helvetica,sans-Serif" font-size="10.00" fill="#000000">windIntensity</text>
<text text-anchor="middle" x="201.48" y="-79" font-family="Helvetica,sans-Serif" font-size="10.00" fill="#000000">rainIntensity</text>
<text text-anchor="middle" x="201.48" y="-69" font-family="Helvetica,sans-Serif" font-size="10.00" fill="#000000">thunderIntensity</text>
<text text-anchor="middle" x="201.48" y="-59" font-family="Helvetica,sans-Serif" font-size="10.00" fill="#000000">fogIntensity</text>
<text text-anchor="middle" x="201.48" y="-49" font-family="Helvetica,sans-Serif" font-size="10.00" fill="#000000">snowIntensity</text>
</g>
<!-- Node3 -->
<g id="node4" class="node">
<title>Node3</title>
<polygon fill="none" stroke="#bfbfbf" points="246.1206,-135.5 246.1206,-153.5 281.0269,-153.5 281.0269,-135.5 246.1206,-135.5"/>
<text text-anchor="middle" x="263.5737" y="-141.5" font-family="Helvetica,sans-Serif" font-size="10.00" fill="#000000">bool</text>
</g>
<!-- Node3&#45;&gt;Node0 -->
<g id="edge3" class="edge">
<title>Node3&#45;&gt;Node0</title>
<path fill="none" stroke="#9a32cd" stroke-dasharray="5,2" d="M264.2197,-125.0365C263.8971,-103.5294 260.1732,-69.0276 241.5737,-47 234.5892,-38.7281 225.1642,-32.531 215.2585,-27.8981"/>
<polygon fill="#9a32cd" stroke="#9a32cd" points="260.7183,-125.1953 264.1307,-135.2255 267.718,-125.2565 260.7183,-125.1953"/>
<text text-anchor="middle" x="319.897" y="-79" font-family="Helvetica,sans-Serif" font-size="10.00" fill="#000000"> overwriteDefaultWeather</text>
</g>
</g>
</svg>
