<?xml version="1.0" encoding="UTF-8" standalone="no"?>
<!DOCTYPE svg PUBLIC "-//W3C//DTD SVG 1.1//EN"
 "http://www.w3.org/Graphics/SVG/1.1/DTD/svg11.dtd">
<!-- Generated by graphviz version 2.40.1 (20161225.0304)
 -->
<!-- Title: libnolimits/NL2 Pages: 1 -->
<svg width="308pt" height="302pt"
 viewBox="0.00 0.00 308.39 302.00" xmlns="http://www.w3.org/2000/svg" xmlns:xlink="http://www.w3.org/1999/xlink">
<g id="graph0" class="graph" transform="scale(1 1) rotate(0) translate(4 298)">
<title>libnolimits/NL2</title>
<g id="clust1" class="cluster">
<title>clusterdir_9004b8da9267ee5a0c8b0170f53251be</title>
<g id="a_clust1"><a xlink:href="dir_9004b8da9267ee5a0c8b0170f53251be.html" target="_top" xlink:title="libnolimits">
<polygon fill="#ddddee" stroke="#000000" points="8,-128 8,-286 238,-286 238,-128 8,-128"/>
<text text-anchor="middle" x="123" y="-274" font-family="Helvetica,sans-Serif" font-size="10.00" fill="#000000">libnolimits</text>
</a>
</g>
</g>
<g id="clust2" class="cluster">
<title>clusterdir_9f74f98d3e65ab1dc79013b3d460f5a6</title>
<g id="a_clust2"><a xlink:href="dir_9f74f98d3e65ab1dc79013b3d460f5a6.html" target="_top">
<polygon fill="#eeeeff" stroke="#000000" points="16,-136 16,-260 230,-260 230,-136 16,-136"/>
</a>
</g>
</g>
<!-- dir_9f74f98d3e65ab1dc79013b3d460f5a6 -->
<g id="node1" class="node">
<title>dir_9f74f98d3e65ab1dc79013b3d460f5a6</title>
<text text-anchor="middle" x="123" y="-231" font-family="Helvetica,sans-Serif" font-size="10.00" fill="#000000">NL2</text>
</g>
<!-- dir_98d80305ea07e5f9a344c5a96187ff0c -->
<g id="node3" class="node">
<title>dir_98d80305ea07e5f9a344c5a96187ff0c</title>
<g id="a_node3"><a xlink:href="dir_98d80305ea07e5f9a344c5a96187ff0c.html" target="_top" xlink:title="Info">
<polygon fill="#ffffff" stroke="#000000" points="78,-180 24,-180 24,-144 78,-144 78,-180"/>
<text text-anchor="middle" x="51" y="-159" font-family="Helvetica,sans-Serif" font-size="10.00" fill="#000000">Info</text>
</a>
</g>
</g>
<!-- dir_9f74f98d3e65ab1dc79013b3d460f5a6&#45;&gt;dir_98d80305ea07e5f9a344c5a96187ff0c -->
<g id="edge4" class="edge">
<title>dir_9f74f98d3e65ab1dc79013b3d460f5a6&#45;&gt;dir_98d80305ea07e5f9a344c5a96187ff0c</title>
<path fill="none" stroke="#000000" d="M104.8314,-215.8314C96.2848,-207.2848 85.9443,-196.9443 76.6198,-187.6198"/>
<polygon fill="#000000" stroke="#000000" points="78.9592,-185.0095 69.4133,-180.4133 74.0095,-189.9592 78.9592,-185.0095"/>
<g id="a_edge4&#45;headlabel"><a xlink:href="dir_000002_000007.html" target="_top" xlink:title="1">
<text text-anchor="middle" x="83.5087" y="-182.5436" font-family="Helvetica,sans-Serif" font-size="10.00" fill="#000000">1</text>
</a>
</g>
</g>
<!-- dir_6a3f0fd5ad0cd0c13622363d9195ae83 -->
<g id="node4" class="node">
<title>dir_6a3f0fd5ad0cd0c13622363d9195ae83</title>
<g id="a_node4"><a xlink:href="dir_6a3f0fd5ad0cd0c13622363d9195ae83.html" target="_top" xlink:title="Scenery">
<polygon fill="#ffffff" stroke="#000000" points="150,-180 96,-180 96,-144 150,-144 150,-180"/>
<text text-anchor="middle" x="123" y="-159" font-family="Helvetica,sans-Serif" font-size="10.00" fill="#000000">Scenery</text>
</a>
</g>
</g>
<!-- dir_9f74f98d3e65ab1dc79013b3d460f5a6&#45;&gt;dir_6a3f0fd5ad0cd0c13622363d9195ae83 -->
<g id="edge2" class="edge">
<title>dir_9f74f98d3e65ab1dc79013b3d460f5a6&#45;&gt;dir_6a3f0fd5ad0cd0c13622363d9195ae83</title>
<path fill="none" stroke="#000000" d="M123,-215.8314C123,-208.131 123,-198.9743 123,-190.4166"/>
<polygon fill="#000000" stroke="#000000" points="126.5001,-190.4132 123,-180.4133 119.5001,-190.4133 126.5001,-190.4132"/>
<g id="a_edge2&#45;headlabel"><a xlink:href="dir_000002_000008.html" target="_top" xlink:title="1">
<text text-anchor="middle" x="129.3393" y="-191.0079" font-family="Helvetica,sans-Serif" font-size="10.00" fill="#000000">1</text>
</a>
</g>
</g>
<!-- dir_1de031c1561c049241f1f6d4505dce73 -->
<g id="node5" class="node">
<title>dir_1de031c1561c049241f1f6d4505dce73</title>
<g id="a_node5"><a xlink:href="dir_1de031c1561c049241f1f6d4505dce73.html" target="_top" xlink:title="Terrain">
<polygon fill="#ffffff" stroke="#000000" points="222,-180 168,-180 168,-144 222,-144 222,-180"/>
<text text-anchor="middle" x="195" y="-159" font-family="Helvetica,sans-Serif" font-size="10.00" fill="#000000">Terrain</text>
</a>
</g>
</g>
<!-- dir_9f74f98d3e65ab1dc79013b3d460f5a6&#45;&gt;dir_1de031c1561c049241f1f6d4505dce73 -->
<g id="edge3" class="edge">
<title>dir_9f74f98d3e65ab1dc79013b3d460f5a6&#45;&gt;dir_1de031c1561c049241f1f6d4505dce73</title>
<path fill="none" stroke="#000000" d="M141.1686,-215.8314C149.7152,-207.2848 160.0557,-196.9443 169.3802,-187.6198"/>
<polygon fill="#000000" stroke="#000000" points="171.9905,-189.9592 176.5867,-180.4133 167.0408,-185.0095 171.9905,-189.9592"/>
<g id="a_edge3&#45;headlabel"><a xlink:href="dir_000002_000009.html" target="_top" xlink:title="1">
<text text-anchor="middle" x="171.4564" y="-191.5087" font-family="Helvetica,sans-Serif" font-size="10.00" fill="#000000">1</text>
</a>
</g>
</g>
<!-- dir_2d86e062f95a1c735727044268100056 -->
<g id="node7" class="node">
<title>dir_2d86e062f95a1c735727044268100056</title>
<g id="a_node7"><a xlink:href="dir_2d86e062f95a1c735727044268100056.html" target="_top" xlink:title="File">
<polygon fill="none" stroke="#000000" points="277,-108 223,-108 223,-72 277,-72 277,-108"/>
<text text-anchor="middle" x="250" y="-87" font-family="Helvetica,sans-Serif" font-size="10.00" fill="#000000">File</text>
</a>
</g>
</g>
<!-- dir_9f74f98d3e65ab1dc79013b3d460f5a6&#45;&gt;dir_2d86e062f95a1c735727044268100056 -->
<g id="edge5" class="edge">
<title>dir_9f74f98d3e65ab1dc79013b3d460f5a6&#45;&gt;dir_2d86e062f95a1c735727044268100056</title>
<path fill="none" stroke="#000000" d="M150.2391,-220.3915C182.2188,-204.413 230.957,-180.0557 231,-180 244.526,-162.4854 248.9758,-137.5613 250.2122,-118.3812"/>
<polygon fill="#000000" stroke="#000000" points="253.7196,-118.2544 250.6095,-108.1263 246.7249,-117.9832 253.7196,-118.2544"/>
<g id="a_edge5&#45;headlabel"><a xlink:href="dir_000002_000001.html" target="_top" xlink:title="6">
<text text-anchor="middle" x="256.4177" y="-118.9562" font-family="Helvetica,sans-Serif" font-size="10.00" fill="#000000">6</text>
</a>
</g>
</g>
<!-- dir_ae4b360e0f5483cb2f90f1b8a71874e5 -->
<g id="node2" class="node">
<title>dir_ae4b360e0f5483cb2f90f1b8a71874e5</title>
<g id="a_node2"><a xlink:href="dir_ae4b360e0f5483cb2f90f1b8a71874e5.html" target="_top" xlink:title="Coaster">
<polygon fill="#ffffff" stroke="#ff0000" points="222,-252 168,-252 168,-216 222,-216 222,-252"/>
<text text-anchor="middle" x="195" y="-231" font-family="Helvetica,sans-Serif" font-size="10.00" fill="#000000">Coaster</text>
</a>
</g>
</g>
<!-- dir_299d33022abe531688613a4f2f22c23b -->
<g id="node6" class="node">
<title>dir_299d33022abe531688613a4f2f22c23b</title>
<g id="a_node6"><a xlink:href="dir_299d33022abe531688613a4f2f22c23b.html" target="_top" xlink:title="Stream">
<polygon fill="none" stroke="#000000" points="249,-36 195,-36 195,0 249,0 249,-36"/>
<text text-anchor="middle" x="222" y="-15" font-family="Helvetica,sans-Serif" font-size="10.00" fill="#000000">Stream</text>
</a>
</g>
</g>
<!-- dir_ae4b360e0f5483cb2f90f1b8a71874e5&#45;&gt;dir_299d33022abe531688613a4f2f22c23b -->
<g id="edge7" class="edge">
<title>dir_ae4b360e0f5483cb2f90f1b8a71874e5&#45;&gt;dir_299d33022abe531688613a4f2f22c23b</title>
<path fill="none" stroke="#000000" d="M222.0909,-224.4057C241.7045,-215.9348 266.9704,-201.5416 280,-180 304.8807,-138.8653 306.2576,-115.5975 286,-72 279.8381,-58.7387 268.638,-47.5619 257.3101,-38.8788"/>
<polygon fill="#000000" stroke="#000000" points="259.2766,-35.9822 249.1093,-33.0028 255.1995,-41.6723 259.2766,-35.9822"/>
<g id="a_edge7&#45;headlabel"><a xlink:href="dir_000003_000010.html" target="_top" xlink:title="39">
<text text-anchor="middle" x="263.8523" y="-32.7678" font-family="Helvetica,sans-Serif" font-size="10.00" fill="#000000">39</text>
</a>
</g>
</g>
<!-- dir_ae4b360e0f5483cb2f90f1b8a71874e5&#45;&gt;dir_2d86e062f95a1c735727044268100056 -->
<g id="edge8" class="edge">
<title>dir_ae4b360e0f5483cb2f90f1b8a71874e5&#45;&gt;dir_2d86e062f95a1c735727044268100056</title>
<path fill="none" stroke="#000000" d="M222.0445,-220.7621C237.4084,-211.6343 255.2719,-197.914 264,-180 273.4671,-160.5693 268.8333,-136.2303 262.4577,-117.7638"/>
<polygon fill="#000000" stroke="#000000" points="265.6388,-116.2819 258.8149,-108.1773 259.0953,-118.7684 265.6388,-116.2819"/>
<g id="a_edge8&#45;headlabel"><a xlink:href="dir_000003_000001.html" target="_top" xlink:title="3">
<text text-anchor="middle" x="269.5697" y="-115.6336" font-family="Helvetica,sans-Serif" font-size="10.00" fill="#000000">3</text>
</a>
</g>
</g>
<!-- dir_98d80305ea07e5f9a344c5a96187ff0c&#45;&gt;dir_299d33022abe531688613a4f2f22c23b -->
<g id="edge11" class="edge">
<title>dir_98d80305ea07e5f9a344c5a96187ff0c&#45;&gt;dir_299d33022abe531688613a4f2f22c23b</title>
<path fill="none" stroke="#000000" d="M69.8163,-143.7376C75.283,-138.5669 81.3138,-132.9899 87,-128 121.5969,-97.6395 162.7919,-64.4844 190.4999,-42.5973"/>
<polygon fill="#000000" stroke="#000000" points="192.9541,-45.1196 198.6437,-36.1821 188.6224,-39.6208 192.9541,-45.1196"/>
<g id="a_edge11&#45;headlabel"><a xlink:href="dir_000007_000010.html" target="_top" xlink:title="4">
<text text-anchor="middle" x="191.8873" y="-46.5743" font-family="Helvetica,sans-Serif" font-size="10.00" fill="#000000">4</text>
</a>
</g>
</g>
<!-- dir_6a3f0fd5ad0cd0c13622363d9195ae83&#45;&gt;dir_299d33022abe531688613a4f2f22c23b -->
<g id="edge1" class="edge">
<title>dir_6a3f0fd5ad0cd0c13622363d9195ae83&#45;&gt;dir_299d33022abe531688613a4f2f22c23b</title>
<path fill="none" stroke="#000000" d="M135.5384,-143.7623C152.7962,-118.66 183.9801,-73.3017 203.8039,-44.4671"/>
<polygon fill="#000000" stroke="#000000" points="206.7822,-46.3129 209.5634,-36.0896 201.0139,-42.3472 206.7822,-46.3129"/>
<g id="a_edge1&#45;headlabel"><a xlink:href="dir_000008_000010.html" target="_top" xlink:title="2">
<text text-anchor="middle" x="207.0855" y="-47.8835" font-family="Helvetica,sans-Serif" font-size="10.00" fill="#000000">2</text>
</a>
</g>
</g>
<!-- dir_1de031c1561c049241f1f6d4505dce73&#45;&gt;dir_299d33022abe531688613a4f2f22c23b -->
<g id="edge9" class="edge">
<title>dir_1de031c1561c049241f1f6d4505dce73&#45;&gt;dir_299d33022abe531688613a4f2f22c23b</title>
<path fill="none" stroke="#000000" d="M198.4196,-143.7623C203.0451,-119.0928 211.3388,-74.8598 216.755,-45.9731"/>
<polygon fill="#000000" stroke="#000000" points="220.2053,-46.5634 218.6082,-36.0896 213.3252,-45.2733 220.2053,-46.5634"/>
<g id="a_edge9&#45;headlabel"><a xlink:href="dir_000009_000010.html" target="_top" xlink:title="8">
<text text-anchor="middle" x="222.3336" y="-47.6196" font-family="Helvetica,sans-Serif" font-size="10.00" fill="#000000">8</text>
</a>
</g>
</g>
<!-- dir_1de031c1561c049241f1f6d4505dce73&#45;&gt;dir_2d86e062f95a1c735727044268100056 -->
<g id="edge10" class="edge">
<title>dir_1de031c1561c049241f1f6d4505dce73&#45;&gt;dir_2d86e062f95a1c735727044268100056</title>
<path fill="none" stroke="#000000" d="M208.8788,-143.8314C215.2136,-135.5386 222.8384,-125.557 229.7926,-116.4533"/>
<polygon fill="#000000" stroke="#000000" points="232.6452,-118.4847 235.9343,-108.4133 227.0825,-114.2353 232.6452,-118.4847"/>
<g id="a_edge10&#45;headlabel"><a xlink:href="dir_000009_000001.html" target="_top" xlink:title="1">
<text text-anchor="middle" x="232.7195" y="-120.0647" font-family="Helvetica,sans-Serif" font-size="10.00" fill="#000000">1</text>
</a>
</g>
</g>
<!-- dir_299d33022abe531688613a4f2f22c23b&#45;&gt;dir_2d86e062f95a1c735727044268100056 -->
<g id="edge6" class="edge">
<title>dir_299d33022abe531688613a4f2f22c23b&#45;&gt;dir_2d86e062f95a1c735727044268100056</title>
<path fill="none" stroke="#000000" d="M235.1367,-36.4133C238.9236,-44.2292 242.7394,-53.5113 245.7584,-62.136"/>
<polygon fill="#000000" stroke="#000000" points="242.485,-63.3893 248.8868,-71.8314 249.1468,-61.2397 242.485,-63.3893"/>
<g id="a_edge6&#45;headlabel"><a xlink:href="dir_000010_000001.html" target="_top" xlink:title="1">
<text text-anchor="middle" x="238.6792" y="-57.8403" font-family="Helvetica,sans-Serif" font-size="10.00" fill="#000000">1</text>
</a>
</g>
</g>
<!-- dir_2d86e062f95a1c735727044268100056&#45;&gt;dir_299d33022abe531688613a4f2f22c23b -->
<g id="edge12" class="edge">
<title>dir_2d86e062f95a1c735727044268100056&#45;&gt;dir_299d33022abe531688613a4f2f22c23b</title>
<path fill="none" stroke="#000000" d="M236.982,-71.8314C233.1958,-64.0463 229.3721,-54.7729 226.3366,-46.1347"/>
<polygon fill="#000000" stroke="#000000" points="229.5983,-44.8463 223.1847,-36.4133 222.9395,-47.0053 229.5983,-44.8463"/>
<g id="a_edge12&#45;headlabel"><a xlink:href="dir_000001_000010.html" target="_top" xlink:title="1">
<text text-anchor="middle" x="233.4077" y="-44.3901" font-family="Helvetica,sans-Serif" font-size="10.00" fill="#000000">1</text>
</a>
</g>
</g>
</g>
</svg>
