<?xml version="1.0" encoding="UTF-8" standalone="no"?>
<!DOCTYPE svg PUBLIC "-//W3C//DTD SVG 1.1//EN"
 "http://www.w3.org/Graphics/SVG/1.1/DTD/svg11.dtd">
<!-- Generated by graphviz version 2.40.1 (20161225.0304)
 -->
<!-- Title: libnolimits/NL2/Coaster Pages: 1 -->
<svg width="142pt" height="374pt"
 viewBox="0.00 0.00 142.00 374.00" xmlns="http://www.w3.org/2000/svg" xmlns:xlink="http://www.w3.org/1999/xlink">
<g id="graph0" class="graph" transform="scale(1 1) rotate(0) translate(4 370)">
<title>libnolimits/NL2/Coaster</title>
<g id="clust1" class="cluster">
<title>clusterdir_9f74f98d3e65ab1dc79013b3d460f5a6</title>
<g id="a_clust1"><a xlink:href="dir_9f74f98d3e65ab1dc79013b3d460f5a6.html" target="_top" xlink:title="NL2">
<polygon fill="#ddddee" stroke="#000000" points="20,-128 20,-358 126,-358 126,-128 20,-128"/>
<text text-anchor="middle" x="73" y="-346" font-family="Helvetica,sans-Serif" font-size="10.00" fill="#000000">NL2</text>
</a>
</g>
</g>
<g id="clust2" class="cluster">
<title>clusterdir_ae4b360e0f5483cb2f90f1b8a71874e5</title>
<g id="a_clust2"><a xlink:href="dir_ae4b360e0f5483cb2f90f1b8a71874e5.html" target="_top">
<polygon fill="#eeeeff" stroke="#000000" points="28,-136 28,-332 118,-332 118,-136 28,-136"/>
</a>
</g>
</g>
<!-- dir_ae4b360e0f5483cb2f90f1b8a71874e5 -->
<g id="node1" class="node">
<title>dir_ae4b360e0f5483cb2f90f1b8a71874e5</title>
<text text-anchor="middle" x="73" y="-303" font-family="Helvetica,sans-Serif" font-size="10.00" fill="#000000">Coaster</text>
</g>
<!-- dir_81b978556a6ea2f9016eaf91740cb263 -->
<g id="node2" class="node">
<title>dir_81b978556a6ea2f9016eaf91740cb263</title>
<g id="a_node2"><a xlink:href="dir_81b978556a6ea2f9016eaf91740cb263.html" target="_top" xlink:title="Support">
<polygon fill="#ffffff" stroke="#ff0000" points="100,-180 46,-180 46,-144 100,-144 100,-180"/>
<text text-anchor="middle" x="73" y="-159" font-family="Helvetica,sans-Serif" font-size="10.00" fill="#000000">Support</text>
</a>
</g>
</g>
<!-- dir_ae4b360e0f5483cb2f90f1b8a71874e5&#45;&gt;dir_81b978556a6ea2f9016eaf91740cb263 -->
<g id="edge6" class="edge">
<title>dir_ae4b360e0f5483cb2f90f1b8a71874e5&#45;&gt;dir_81b978556a6ea2f9016eaf91740cb263</title>
<path fill="none" stroke="#000000" d="M61.6804,-287.7678C56.0604,-277.6415 49.8706,-264.5789 47,-252 43.4403,-236.401 43.4403,-231.599 47,-216 49.0856,-206.8606 52.9235,-197.466 57.0219,-189.1276"/>
<polygon fill="#000000" stroke="#000000" points="60.1417,-190.7147 61.6804,-180.2322 53.9405,-187.4672 60.1417,-190.7147"/>
<g id="a_edge6&#45;headlabel"><a xlink:href="dir_000007_000011.html" target="_top" xlink:title="7">
<text text-anchor="middle" x="60.9893" y="-192.2162" font-family="Helvetica,sans-Serif" font-size="10.00" fill="#000000">7</text>
</a>
</g>
</g>
<!-- dir_1bca469090257af04eea8dfd9ff0b95a -->
<g id="node3" class="node">
<title>dir_1bca469090257af04eea8dfd9ff0b95a</title>
<g id="a_node3"><a xlink:href="dir_1bca469090257af04eea8dfd9ff0b95a.html" target="_top" xlink:title="Track">
<polygon fill="#ffffff" stroke="#ff0000" points="110,-252 56,-252 56,-216 110,-216 110,-252"/>
<text text-anchor="middle" x="83" y="-231" font-family="Helvetica,sans-Serif" font-size="10.00" fill="#000000">Track</text>
</a>
</g>
</g>
<!-- dir_ae4b360e0f5483cb2f90f1b8a71874e5&#45;&gt;dir_1bca469090257af04eea8dfd9ff0b95a -->
<g id="edge5" class="edge">
<title>dir_ae4b360e0f5483cb2f90f1b8a71874e5&#45;&gt;dir_1bca469090257af04eea8dfd9ff0b95a</title>
<path fill="none" stroke="#000000" d="M75.5234,-287.8314C76.5929,-280.131 77.8647,-270.9743 79.0532,-262.4166"/>
<polygon fill="#000000" stroke="#000000" points="82.5336,-262.7997 80.4426,-252.4133 75.6001,-261.8367 82.5336,-262.7997"/>
<g id="a_edge5&#45;headlabel"><a xlink:href="dir_000007_000009.html" target="_top" xlink:title="8">
<text text-anchor="middle" x="84.8514" y="-263.7507" font-family="Helvetica,sans-Serif" font-size="10.00" fill="#000000">8</text>
</a>
</g>
</g>
<!-- dir_299d33022abe531688613a4f2f22c23b -->
<g id="node4" class="node">
<title>dir_299d33022abe531688613a4f2f22c23b</title>
<g id="a_node4"><a xlink:href="dir_299d33022abe531688613a4f2f22c23b.html" target="_top" xlink:title="Stream">
<polygon fill="none" stroke="#000000" points="54,-108 0,-108 0,-72 54,-72 54,-108"/>
<text text-anchor="middle" x="27" y="-87" font-family="Helvetica,sans-Serif" font-size="10.00" fill="#000000">Stream</text>
</a>
</g>
</g>
<!-- dir_81b978556a6ea2f9016eaf91740cb263&#45;&gt;dir_299d33022abe531688613a4f2f22c23b -->
<g id="edge7" class="edge">
<title>dir_81b978556a6ea2f9016eaf91740cb263&#45;&gt;dir_299d33022abe531688613a4f2f22c23b</title>
<path fill="none" stroke="#000000" d="M61.3923,-143.8314C56.2022,-135.7079 49.9768,-125.9637 44.2575,-117.0118"/>
<polygon fill="#000000" stroke="#000000" points="47.0974,-114.9559 38.764,-108.4133 41.1985,-118.7246 47.0974,-114.9559"/>
<g id="a_edge7&#45;headlabel"><a xlink:href="dir_000011_000015.html" target="_top" xlink:title="9">
<text text-anchor="middle" x="51.4253" y="-113.4564" font-family="Helvetica,sans-Serif" font-size="10.00" fill="#000000">9</text>
</a>
</g>
</g>
<!-- dir_2d86e062f95a1c735727044268100056 -->
<g id="node5" class="node">
<title>dir_2d86e062f95a1c735727044268100056</title>
<g id="a_node5"><a xlink:href="dir_2d86e062f95a1c735727044268100056.html" target="_top" xlink:title="File">
<polygon fill="none" stroke="#000000" points="81,-36 27,-36 27,0 81,0 81,-36"/>
<text text-anchor="middle" x="54" y="-15" font-family="Helvetica,sans-Serif" font-size="10.00" fill="#000000">File</text>
</a>
</g>
</g>
<!-- dir_81b978556a6ea2f9016eaf91740cb263&#45;&gt;dir_2d86e062f95a1c735727044268100056 -->
<g id="edge8" class="edge">
<title>dir_81b978556a6ea2f9016eaf91740cb263&#45;&gt;dir_2d86e062f95a1c735727044268100056</title>
<path fill="none" stroke="#000000" d="M71.2609,-143.6921C69.4616,-125.4811 66.4362,-96.7593 63,-72 61.8425,-63.6597 60.4083,-54.6248 59.0275,-46.3749"/>
<polygon fill="#000000" stroke="#000000" points="62.467,-45.7235 57.3319,-36.4563 55.5671,-46.9031 62.467,-45.7235"/>
<g id="a_edge8&#45;headlabel"><a xlink:href="dir_000011_000001.html" target="_top" xlink:title="1">
<text text-anchor="middle" x="65.8713" y="-45.7883" font-family="Helvetica,sans-Serif" font-size="10.00" fill="#000000">1</text>
</a>
</g>
</g>
<!-- dir_1bca469090257af04eea8dfd9ff0b95a&#45;&gt;dir_81b978556a6ea2f9016eaf91740cb263 -->
<g id="edge2" class="edge">
<title>dir_1bca469090257af04eea8dfd9ff0b95a&#45;&gt;dir_81b978556a6ea2f9016eaf91740cb263</title>
<path fill="none" stroke="#000000" d="M80.4766,-215.8314C79.4071,-208.131 78.1353,-198.9743 76.9468,-190.4166"/>
<polygon fill="#000000" stroke="#000000" points="80.3999,-189.8367 75.5574,-180.4133 73.4664,-190.7997 80.3999,-189.8367"/>
<g id="a_edge2&#45;headlabel"><a xlink:href="dir_000009_000011.html" target="_top" xlink:title="1">
<text text-anchor="middle" x="83.7066" y="-190.0065" font-family="Helvetica,sans-Serif" font-size="10.00" fill="#000000">1</text>
</a>
</g>
</g>
<!-- dir_1bca469090257af04eea8dfd9ff0b95a&#45;&gt;dir_299d33022abe531688613a4f2f22c23b -->
<g id="edge1" class="edge">
<title>dir_1bca469090257af04eea8dfd9ff0b95a&#45;&gt;dir_299d33022abe531688613a4f2f22c23b</title>
<path fill="none" stroke="#000000" d="M62.8125,-215.957C53.3392,-206.2778 42.8652,-193.5647 37,-180 28.5505,-160.4586 26.2421,-136.4068 25.9421,-118.0848"/>
<polygon fill="#000000" stroke="#000000" points="29.4421,-118.0451 25.9663,-108.0366 22.4421,-118.0281 29.4421,-118.0451"/>
<g id="a_edge1&#45;headlabel"><a xlink:href="dir_000009_000015.html" target="_top" xlink:title="19">
<text text-anchor="middle" x="32.2728" y="-118.6465" font-family="Helvetica,sans-Serif" font-size="10.00" fill="#000000">19</text>
</a>
</g>
</g>
<!-- dir_1bca469090257af04eea8dfd9ff0b95a&#45;&gt;dir_2d86e062f95a1c735727044268100056 -->
<g id="edge3" class="edge">
<title>dir_1bca469090257af04eea8dfd9ff0b95a&#45;&gt;dir_2d86e062f95a1c735727044268100056</title>
<path fill="none" stroke="#000000" d="M94.3196,-215.7678C99.9396,-205.6415 106.1294,-192.5789 109,-180 114.1419,-157.4681 114.3098,-150.4929 109,-128 101.8318,-97.635 84.9271,-66.0952 71.7366,-44.6151"/>
<polygon fill="#000000" stroke="#000000" points="74.6394,-42.6565 66.3501,-36.0581 68.7153,-46.3855 74.6394,-42.6565"/>
<g id="a_edge3&#45;headlabel"><a xlink:href="dir_000009_000001.html" target="_top" xlink:title="2">
<text text-anchor="middle" x="78.9571" y="-41.186" font-family="Helvetica,sans-Serif" font-size="10.00" fill="#000000">2</text>
</a>
</g>
</g>
<!-- dir_299d33022abe531688613a4f2f22c23b&#45;&gt;dir_2d86e062f95a1c735727044268100056 -->
<g id="edge4" class="edge">
<title>dir_299d33022abe531688613a4f2f22c23b&#45;&gt;dir_2d86e062f95a1c735727044268100056</title>
<path fill="none" stroke="#000000" d="M27.8608,-71.8314C30.0685,-63.8771 33.4239,-54.369 37.0776,-45.5723"/>
<polygon fill="#000000" stroke="#000000" points="40.2841,-46.9752 41.119,-36.4133 33.8798,-44.1492 40.2841,-46.9752"/>
<g id="a_edge4&#45;headlabel"><a xlink:href="dir_000015_000001.html" target="_top" xlink:title="1">
<text text-anchor="middle" x="41.4306" y="-48.41" font-family="Helvetica,sans-Serif" font-size="10.00" fill="#000000">1</text>
</a>
</g>
</g>
<!-- dir_2d86e062f95a1c735727044268100056&#45;&gt;dir_299d33022abe531688613a4f2f22c23b -->
<g id="edge9" class="edge">
<title>dir_2d86e062f95a1c735727044268100056&#45;&gt;dir_299d33022abe531688613a4f2f22c23b</title>
<path fill="none" stroke="#000000" d="M53.071,-36.4133C50.8637,-44.3141 47.5414,-53.7132 43.9269,-62.417"/>
<polygon fill="#000000" stroke="#000000" points="40.6073,-61.27 39.7656,-71.8314 47.0097,-64.1 40.6073,-61.27"/>
<g id="a_edge9&#45;headlabel"><a xlink:href="dir_000001_000015.html" target="_top" xlink:title="1">
<text text-anchor="middle" x="39.4635" y="-53.8344" font-family="Helvetica,sans-Serif" font-size="10.00" fill="#000000">1</text>
</a>
</g>
</g>
</g>
</svg>
