<?xml version="1.0" encoding="UTF-8" standalone="no"?>
<!DOCTYPE svg PUBLIC "-//W3C//DTD SVG 1.1//EN"
 "http://www.w3.org/Graphics/SVG/1.1/DTD/svg11.dtd">
<!-- Generated by graphviz version 2.40.1 (20161225.0304)
 -->
<!-- Title: libnolimits/NL1/Track Pages: 1 -->
<svg width="164pt" height="302pt"
 viewBox="0.00 0.00 164.00 302.00" xmlns="http://www.w3.org/2000/svg" xmlns:xlink="http://www.w3.org/1999/xlink">
<g id="graph0" class="graph" transform="scale(1 1) rotate(0) translate(4 298)">
<title>libnolimits/NL1/Track</title>
<g id="clust1" class="cluster">
<title>clusterdir_3c46ac97e3d36dd592732019ab8dec24</title>
<g id="a_clust1"><a xlink:href="dir_3c46ac97e3d36dd592732019ab8dec24.html" target="_top" xlink:title="NL1">
<polygon fill="#ddddee" stroke="#000000" points="62,-128 62,-286 148,-286 148,-128 62,-128"/>
<text text-anchor="middle" x="105" y="-274" font-family="Helvetica,sans-Serif" font-size="10.00" fill="#000000">NL1</text>
</a>
</g>
</g>
<g id="clust2" class="cluster">
<title>clusterdir_149077151eddd7491806c2eb948575b0</title>
<g id="a_clust2"><a xlink:href="dir_149077151eddd7491806c2eb948575b0.html" target="_top">
<polygon fill="#eeeeff" stroke="#000000" points="70,-136 70,-260 140,-260 140,-136 70,-136"/>
</a>
</g>
</g>
<!-- dir_149077151eddd7491806c2eb948575b0 -->
<g id="node1" class="node">
<title>dir_149077151eddd7491806c2eb948575b0</title>
<text text-anchor="middle" x="105" y="-231" font-family="Helvetica,sans-Serif" font-size="10.00" fill="#000000">Track</text>
</g>
<!-- dir_a4bcd51a420fae5837ef2f6034e62fcb -->
<g id="node2" class="node">
<title>dir_a4bcd51a420fae5837ef2f6034e62fcb</title>
<g id="a_node2"><a xlink:href="dir_a4bcd51a420fae5837ef2f6034e62fcb.html" target="_top" xlink:title="Section">
<polygon fill="#ffffff" stroke="#000000" points="132,-180 78,-180 78,-144 132,-144 132,-180"/>
<text text-anchor="middle" x="105" y="-159" font-family="Helvetica,sans-Serif" font-size="10.00" fill="#000000">Section</text>
</a>
</g>
</g>
<!-- dir_149077151eddd7491806c2eb948575b0&#45;&gt;dir_a4bcd51a420fae5837ef2f6034e62fcb -->
<g id="edge2" class="edge">
<title>dir_149077151eddd7491806c2eb948575b0&#45;&gt;dir_a4bcd51a420fae5837ef2f6034e62fcb</title>
<path fill="none" stroke="#000000" d="M105,-215.8314C105,-208.131 105,-198.9743 105,-190.4166"/>
<polygon fill="#000000" stroke="#000000" points="108.5001,-190.4132 105,-180.4133 101.5001,-190.4133 108.5001,-190.4132"/>
<g id="a_edge2&#45;headlabel"><a xlink:href="dir_000006_000008.html" target="_top" xlink:title="2">
<text text-anchor="middle" x="111.3393" y="-191.0079" font-family="Helvetica,sans-Serif" font-size="10.00" fill="#000000">2</text>
</a>
</g>
</g>
<!-- dir_1cf16556f446345b5a0415ddac1beeb5 -->
<g id="node5" class="node">
<title>dir_1cf16556f446345b5a0415ddac1beeb5</title>
<g id="a_node5"><a xlink:href="dir_1cf16556f446345b5a0415ddac1beeb5.html" target="_top" xlink:title="Info">
<polygon fill="none" stroke="#000000" points="54,-180 0,-180 0,-144 54,-144 54,-180"/>
<text text-anchor="middle" x="27" y="-159" font-family="Helvetica,sans-Serif" font-size="10.00" fill="#000000">Info</text>
</a>
</g>
</g>
<!-- dir_149077151eddd7491806c2eb948575b0&#45;&gt;dir_1cf16556f446345b5a0415ddac1beeb5 -->
<g id="edge3" class="edge">
<title>dir_149077151eddd7491806c2eb948575b0&#45;&gt;dir_1cf16556f446345b5a0415ddac1beeb5</title>
<path fill="none" stroke="#000000" d="M85.3173,-215.8314C75.8949,-207.1337 64.4599,-196.5783 54.2204,-187.1265"/>
<polygon fill="#000000" stroke="#000000" points="56.3984,-184.3738 46.6764,-180.1628 51.6505,-189.5175 56.3984,-184.3738"/>
<g id="a_edge3&#45;headlabel"><a xlink:href="dir_000006_000003.html" target="_top" xlink:title="1">
<text text-anchor="middle" x="60.9656" y="-181.7257" font-family="Helvetica,sans-Serif" font-size="10.00" fill="#000000">1</text>
</a>
</g>
</g>
<!-- dir_299d33022abe531688613a4f2f22c23b -->
<g id="node3" class="node">
<title>dir_299d33022abe531688613a4f2f22c23b</title>
<g id="a_node3"><a xlink:href="dir_299d33022abe531688613a4f2f22c23b.html" target="_top" xlink:title="Stream">
<polygon fill="none" stroke="#000000" points="77,-108 23,-108 23,-72 77,-72 77,-108"/>
<text text-anchor="middle" x="50" y="-87" font-family="Helvetica,sans-Serif" font-size="10.00" fill="#000000">Stream</text>
</a>
</g>
</g>
<!-- dir_a4bcd51a420fae5837ef2f6034e62fcb&#45;&gt;dir_299d33022abe531688613a4f2f22c23b -->
<g id="edge5" class="edge">
<title>dir_a4bcd51a420fae5837ef2f6034e62fcb&#45;&gt;dir_299d33022abe531688613a4f2f22c23b</title>
<path fill="none" stroke="#000000" d="M91.1212,-143.8314C84.7864,-135.5386 77.1616,-125.557 70.2074,-116.4533"/>
<polygon fill="#000000" stroke="#000000" points="72.9175,-114.2353 64.0657,-108.4133 67.3548,-118.4847 72.9175,-114.2353"/>
<g id="a_edge5&#45;headlabel"><a xlink:href="dir_000008_000015.html" target="_top" xlink:title="2">
<text text-anchor="middle" x="77.3558" y="-112.3683" font-family="Helvetica,sans-Serif" font-size="10.00" fill="#000000">2</text>
</a>
</g>
</g>
<!-- dir_2d86e062f95a1c735727044268100056 -->
<g id="node4" class="node">
<title>dir_2d86e062f95a1c735727044268100056</title>
<g id="a_node4"><a xlink:href="dir_2d86e062f95a1c735727044268100056.html" target="_top" xlink:title="File">
<polygon fill="none" stroke="#000000" points="77,-36 23,-36 23,0 77,0 77,-36"/>
<text text-anchor="middle" x="50" y="-15" font-family="Helvetica,sans-Serif" font-size="10.00" fill="#000000">File</text>
</a>
</g>
</g>
<!-- dir_a4bcd51a420fae5837ef2f6034e62fcb&#45;&gt;dir_2d86e062f95a1c735727044268100056 -->
<g id="edge6" class="edge">
<title>dir_a4bcd51a420fae5837ef2f6034e62fcb&#45;&gt;dir_2d86e062f95a1c735727044268100056</title>
<path fill="none" stroke="#000000" d="M103.2095,-143.8083C100.9112,-125.1875 95.9655,-95.7008 86,-72 82.0456,-62.5953 76.3848,-53.0879 70.7195,-44.727"/>
<polygon fill="#000000" stroke="#000000" points="73.5184,-42.6231 64.8853,-36.4815 67.8041,-46.6664 73.5184,-42.6231"/>
<g id="a_edge6&#45;headlabel"><a xlink:href="dir_000008_000001.html" target="_top" xlink:title="1">
<text text-anchor="middle" x="77.9124" y="-40.9175" font-family="Helvetica,sans-Serif" font-size="10.00" fill="#000000">1</text>
</a>
</g>
</g>
<!-- dir_299d33022abe531688613a4f2f22c23b&#45;&gt;dir_2d86e062f95a1c735727044268100056 -->
<g id="edge1" class="edge">
<title>dir_299d33022abe531688613a4f2f22c23b&#45;&gt;dir_2d86e062f95a1c735727044268100056</title>
<path fill="none" stroke="#000000" d="M44.0476,-71.8314C43.2972,-64.131 43.0763,-54.9743 43.3849,-46.4166"/>
<polygon fill="#000000" stroke="#000000" points="46.8792,-46.6161 44.024,-36.4133 39.8935,-46.1697 46.8792,-46.6161"/>
<g id="a_edge1&#45;headlabel"><a xlink:href="dir_000015_000001.html" target="_top" xlink:title="1">
<text text-anchor="middle" x="49.4836" y="-47.3844" font-family="Helvetica,sans-Serif" font-size="10.00" fill="#000000">1</text>
</a>
</g>
</g>
<!-- dir_2d86e062f95a1c735727044268100056&#45;&gt;dir_299d33022abe531688613a4f2f22c23b -->
<g id="edge4" class="edge">
<title>dir_2d86e062f95a1c735727044268100056&#45;&gt;dir_299d33022abe531688613a4f2f22c23b</title>
<path fill="none" stroke="#000000" d="M55.976,-36.4133C56.7071,-44.0593 56.9203,-53.1084 56.6155,-61.5726"/>
<polygon fill="#000000" stroke="#000000" points="53.1048,-61.6264 55.9524,-71.8314 60.0902,-62.078 53.1048,-61.6264"/>
<g id="a_edge4&#45;headlabel"><a xlink:href="dir_000001_000015.html" target="_top" xlink:title="1">
<text text-anchor="middle" x="50.5032" y="-54.8562" font-family="Helvetica,sans-Serif" font-size="10.00" fill="#000000">1</text>
</a>
</g>
</g>
<!-- dir_1cf16556f446345b5a0415ddac1beeb5&#45;&gt;dir_299d33022abe531688613a4f2f22c23b -->
<g id="edge7" class="edge">
<title>dir_1cf16556f446345b5a0415ddac1beeb5&#45;&gt;dir_299d33022abe531688613a4f2f22c23b</title>
<path fill="none" stroke="#000000" d="M32.8039,-143.8314C35.2908,-136.0463 38.2531,-126.7729 41.0125,-118.1347"/>
<polygon fill="#000000" stroke="#000000" points="44.409,-119.0041 44.118,-108.4133 37.7409,-116.874 44.409,-119.0041"/>
<g id="a_edge7&#45;headlabel"><a xlink:href="dir_000003_000015.html" target="_top" xlink:title="2">
<text text-anchor="middle" x="46.0199" y="-120.2922" font-family="Helvetica,sans-Serif" font-size="10.00" fill="#000000">2</text>
</a>
</g>
</g>
</g>
</svg>
