<?xml version="1.0" encoding="UTF-8" standalone="no"?>
<!DOCTYPE svg PUBLIC "-//W3C//DTD SVG 1.1//EN"
 "http://www.w3.org/Graphics/SVG/1.1/DTD/svg11.dtd">
<!-- Generated by graphviz version 2.40.1 (20161225.0304)
 -->
<!-- Title: libnolimits Pages: 1 -->
<svg width="172pt" height="220pt"
 viewBox="0.00 0.00 172.00 220.00" xmlns="http://www.w3.org/2000/svg" xmlns:xlink="http://www.w3.org/1999/xlink">
<g id="graph0" class="graph" transform="scale(1 1) rotate(0) translate(4 216)">
<title>libnolimits</title>
<g id="clust1" class="cluster">
<title>clusterdir_9004b8da9267ee5a0c8b0170f53251be</title>
<g id="a_clust1"><a xlink:href="dir_9004b8da9267ee5a0c8b0170f53251be.html" target="_top">
<polygon fill="#eeeeff" stroke="#000000" points="8,-8 8,-204 156,-204 156,-8 8,-8"/>
</a>
</g>
</g>
<!-- dir_9004b8da9267ee5a0c8b0170f53251be -->
<g id="node1" class="node">
<title>dir_9004b8da9267ee5a0c8b0170f53251be</title>
<text text-anchor="middle" x="118" y="-175" font-family="Helvetica,sans-Serif" font-size="10.00" fill="#000000">libnolimits</text>
</g>
<!-- dir_2d86e062f95a1c735727044268100056 -->
<g id="node2" class="node">
<title>dir_2d86e062f95a1c735727044268100056</title>
<g id="a_node2"><a xlink:href="dir_2d86e062f95a1c735727044268100056.html" target="_top" xlink:title="File">
<polygon fill="#ffffff" stroke="#000000" points="70,-124 16,-124 16,-88 70,-88 70,-124"/>
<text text-anchor="middle" x="43" y="-103" font-family="Helvetica,sans-Serif" font-size="10.00" fill="#000000">File</text>
</a>
</g>
</g>
<!-- dir_299d33022abe531688613a4f2f22c23b -->
<g id="node4" class="node">
<title>dir_299d33022abe531688613a4f2f22c23b</title>
<g id="a_node4"><a xlink:href="dir_299d33022abe531688613a4f2f22c23b.html" target="_top" xlink:title="Stream">
<polygon fill="#ffffff" stroke="#000000" points="70,-52 16,-52 16,-16 70,-16 70,-52"/>
<text text-anchor="middle" x="43" y="-31" font-family="Helvetica,sans-Serif" font-size="10.00" fill="#000000">Stream</text>
</a>
</g>
</g>
<!-- dir_2d86e062f95a1c735727044268100056&#45;&gt;dir_299d33022abe531688613a4f2f22c23b -->
<g id="edge4" class="edge">
<title>dir_2d86e062f95a1c735727044268100056&#45;&gt;dir_299d33022abe531688613a4f2f22c23b</title>
<path fill="none" stroke="#000000" d="M37.0476,-87.8314C36.2972,-80.131 36.0763,-70.9743 36.3849,-62.4166"/>
<polygon fill="#000000" stroke="#000000" points="39.8792,-62.6161 37.024,-52.4133 32.8935,-62.1697 39.8792,-62.6161"/>
<g id="a_edge4&#45;headlabel"><a xlink:href="dir_000001_000010.html" target="_top" xlink:title="1">
<text text-anchor="middle" x="42.4836" y="-63.3844" font-family="Helvetica,sans-Serif" font-size="10.00" fill="#000000">1</text>
</a>
</g>
</g>
<!-- dir_9f74f98d3e65ab1dc79013b3d460f5a6 -->
<g id="node3" class="node">
<title>dir_9f74f98d3e65ab1dc79013b3d460f5a6</title>
<g id="a_node3"><a xlink:href="dir_9f74f98d3e65ab1dc79013b3d460f5a6.html" target="_top" xlink:title="NL2">
<polygon fill="#ffffff" stroke="#ff0000" points="70,-196 16,-196 16,-160 70,-160 70,-196"/>
<text text-anchor="middle" x="43" y="-175" font-family="Helvetica,sans-Serif" font-size="10.00" fill="#000000">NL2</text>
</a>
</g>
</g>
<!-- dir_9f74f98d3e65ab1dc79013b3d460f5a6&#45;&gt;dir_2d86e062f95a1c735727044268100056 -->
<g id="edge2" class="edge">
<title>dir_9f74f98d3e65ab1dc79013b3d460f5a6&#45;&gt;dir_2d86e062f95a1c735727044268100056</title>
<path fill="none" stroke="#000000" d="M43,-159.8314C43,-152.131 43,-142.9743 43,-134.4166"/>
<polygon fill="#000000" stroke="#000000" points="46.5001,-134.4132 43,-124.4133 39.5001,-134.4133 46.5001,-134.4132"/>
<g id="a_edge2&#45;headlabel"><a xlink:href="dir_000002_000001.html" target="_top" xlink:title="6">
<text text-anchor="middle" x="49.3393" y="-135.0079" font-family="Helvetica,sans-Serif" font-size="10.00" fill="#000000">6</text>
</a>
</g>
</g>
<!-- dir_9f74f98d3e65ab1dc79013b3d460f5a6&#45;&gt;dir_299d33022abe531688613a4f2f22c23b -->
<g id="edge1" class="edge">
<title>dir_9f74f98d3e65ab1dc79013b3d460f5a6&#45;&gt;dir_299d33022abe531688613a4f2f22c23b</title>
<path fill="none" stroke="#000000" d="M58.9905,-159.9169C66.6538,-150.0371 75.0166,-137.1563 79,-124 83.6365,-108.6865 83.6365,-103.3135 79,-88 76.0436,-78.2355 70.6748,-68.6229 64.97,-60.2762"/>
<polygon fill="#000000" stroke="#000000" points="67.7129,-58.0973 58.9905,-52.0831 62.0586,-62.2239 67.7129,-58.0973"/>
<g id="a_edge1&#45;headlabel"><a xlink:href="dir_000002_000010.html" target="_top" xlink:title="55">
<text text-anchor="middle" x="72.1253" y="-56.327" font-family="Helvetica,sans-Serif" font-size="10.00" fill="#000000">55</text>
</a>
</g>
</g>
<!-- dir_299d33022abe531688613a4f2f22c23b&#45;&gt;dir_2d86e062f95a1c735727044268100056 -->
<g id="edge3" class="edge">
<title>dir_299d33022abe531688613a4f2f22c23b&#45;&gt;dir_2d86e062f95a1c735727044268100056</title>
<path fill="none" stroke="#000000" d="M48.976,-52.4133C49.7071,-60.0593 49.9203,-69.1084 49.6155,-77.5726"/>
<polygon fill="#000000" stroke="#000000" points="46.1048,-77.6264 48.9524,-87.8314 53.0902,-78.078 46.1048,-77.6264"/>
<g id="a_edge3&#45;headlabel"><a xlink:href="dir_000010_000001.html" target="_top" xlink:title="1">
<text text-anchor="middle" x="43.5032" y="-70.8562" font-family="Helvetica,sans-Serif" font-size="10.00" fill="#000000">1</text>
</a>
</g>
</g>
</g>
</svg>
