<?xml version="1.0" encoding="UTF-8" standalone="no"?>
<!DOCTYPE svg PUBLIC "-//W3C//DTD SVG 1.1//EN"
 "http://www.w3.org/Graphics/SVG/1.1/DTD/svg11.dtd">
<!-- Generated by graphviz version 2.40.1 (20161225.0304)
 -->
<!-- Title: libnolimits/NL2/Coaster Pages: 1 -->
<svg width="141pt" height="374pt"
 viewBox="0.00 0.00 141.00 374.00" xmlns="http://www.w3.org/2000/svg" xmlns:xlink="http://www.w3.org/1999/xlink">
<g id="graph0" class="graph" transform="scale(1 1) rotate(0) translate(4 370)">
<title>libnolimits/NL2/Coaster</title>
<g id="clust1" class="cluster">
<title>clusterdir_9f74f98d3e65ab1dc79013b3d460f5a6</title>
<g id="a_clust1"><a xlink:href="dir_9f74f98d3e65ab1dc79013b3d460f5a6.html" target="_top" xlink:title="NL2">
<polygon fill="#ddddee" stroke="#000000" points="8,-128 8,-358 114,-358 114,-128 8,-128"/>
<text text-anchor="middle" x="61" y="-346" font-family="Helvetica,sans-Serif" font-size="10.00" fill="#000000">NL2</text>
</a>
</g>
</g>
<g id="clust2" class="cluster">
<title>clusterdir_ae4b360e0f5483cb2f90f1b8a71874e5</title>
<g id="a_clust2"><a xlink:href="dir_ae4b360e0f5483cb2f90f1b8a71874e5.html" target="_top">
<polygon fill="#eeeeff" stroke="#000000" points="16,-136 16,-332 106,-332 106,-136 16,-136"/>
</a>
</g>
</g>
<!-- dir_ae4b360e0f5483cb2f90f1b8a71874e5 -->
<g id="node1" class="node">
<title>dir_ae4b360e0f5483cb2f90f1b8a71874e5</title>
<text text-anchor="middle" x="71" y="-303" font-family="Helvetica,sans-Serif" font-size="10.00" fill="#000000">Coaster</text>
</g>
<!-- dir_81b978556a6ea2f9016eaf91740cb263 -->
<g id="node2" class="node">
<title>dir_81b978556a6ea2f9016eaf91740cb263</title>
<g id="a_node2"><a xlink:href="dir_81b978556a6ea2f9016eaf91740cb263.html" target="_top" xlink:title="Support">
<polygon fill="#ffffff" stroke="#000000" points="78,-180 24,-180 24,-144 78,-144 78,-180"/>
<text text-anchor="middle" x="51" y="-159" font-family="Helvetica,sans-Serif" font-size="10.00" fill="#000000">Support</text>
</a>
</g>
</g>
<!-- dir_ae4b360e0f5483cb2f90f1b8a71874e5&#45;&gt;dir_81b978556a6ea2f9016eaf91740cb263 -->
<g id="edge7" class="edge">
<title>dir_ae4b360e0f5483cb2f90f1b8a71874e5&#45;&gt;dir_81b978556a6ea2f9016eaf91740cb263</title>
<path fill="none" stroke="#000000" d="M55.0095,-287.9169C47.3462,-278.0371 38.9834,-265.1563 35,-252 28.8203,-231.5897 33.5364,-207.8092 39.4125,-189.8201"/>
<polygon fill="#000000" stroke="#000000" points="42.7723,-190.8186 42.8333,-180.224 36.1787,-188.4682 42.7723,-190.8186"/>
<g id="a_edge7&#45;headlabel"><a xlink:href="dir_000003_000004.html" target="_top" xlink:title="2">
<text text-anchor="middle" x="44.2398" y="-192.1579" font-family="Helvetica,sans-Serif" font-size="10.00" fill="#000000">2</text>
</a>
</g>
</g>
<!-- dir_1bca469090257af04eea8dfd9ff0b95a -->
<g id="node3" class="node">
<title>dir_1bca469090257af04eea8dfd9ff0b95a</title>
<g id="a_node3"><a xlink:href="dir_1bca469090257af04eea8dfd9ff0b95a.html" target="_top" xlink:title="Track">
<polygon fill="#ffffff" stroke="#ff0000" points="98,-252 44,-252 44,-216 98,-216 98,-252"/>
<text text-anchor="middle" x="71" y="-231" font-family="Helvetica,sans-Serif" font-size="10.00" fill="#000000">Track</text>
</a>
</g>
</g>
<!-- dir_ae4b360e0f5483cb2f90f1b8a71874e5&#45;&gt;dir_1bca469090257af04eea8dfd9ff0b95a -->
<g id="edge5" class="edge">
<title>dir_ae4b360e0f5483cb2f90f1b8a71874e5&#45;&gt;dir_1bca469090257af04eea8dfd9ff0b95a</title>
<path fill="none" stroke="#000000" d="M71,-287.8314C71,-280.131 71,-270.9743 71,-262.4166"/>
<polygon fill="#000000" stroke="#000000" points="74.5001,-262.4132 71,-252.4133 67.5001,-262.4133 74.5001,-262.4132"/>
<g id="a_edge5&#45;headlabel"><a xlink:href="dir_000003_000005.html" target="_top" xlink:title="8">
<text text-anchor="middle" x="77.3393" y="-263.0079" font-family="Helvetica,sans-Serif" font-size="10.00" fill="#000000">8</text>
</a>
</g>
</g>
<!-- dir_299d33022abe531688613a4f2f22c23b -->
<g id="node4" class="node">
<title>dir_299d33022abe531688613a4f2f22c23b</title>
<g id="a_node4"><a xlink:href="dir_299d33022abe531688613a4f2f22c23b.html" target="_top" xlink:title="Stream">
<polygon fill="none" stroke="#000000" points="133,-108 79,-108 79,-72 133,-72 133,-108"/>
<text text-anchor="middle" x="106" y="-87" font-family="Helvetica,sans-Serif" font-size="10.00" fill="#000000">Stream</text>
</a>
</g>
</g>
<!-- dir_ae4b360e0f5483cb2f90f1b8a71874e5&#45;&gt;dir_299d33022abe531688613a4f2f22c23b -->
<g id="edge6" class="edge">
<title>dir_ae4b360e0f5483cb2f90f1b8a71874e5&#45;&gt;dir_299d33022abe531688613a4f2f22c23b</title>
<path fill="none" stroke="#000000" d="M86.9905,-287.9169C94.6538,-278.0371 103.0166,-265.1563 107,-252 120.62,-207.0163 116.0324,-151.7309 111.2044,-118.7611"/>
<polygon fill="#000000" stroke="#000000" points="114.5986,-117.8155 109.5838,-108.4826 107.684,-118.9058 114.5986,-117.8155"/>
<g id="a_edge6&#45;headlabel"><a xlink:href="dir_000003_000010.html" target="_top" xlink:title="39">
<text text-anchor="middle" x="117.963" y="-117.9241" font-family="Helvetica,sans-Serif" font-size="10.00" fill="#000000">39</text>
</a>
</g>
</g>
<!-- dir_81b978556a6ea2f9016eaf91740cb263&#45;&gt;dir_299d33022abe531688613a4f2f22c23b -->
<g id="edge8" class="edge">
<title>dir_81b978556a6ea2f9016eaf91740cb263&#45;&gt;dir_299d33022abe531688613a4f2f22c23b</title>
<path fill="none" stroke="#000000" d="M64.8788,-143.8314C71.2136,-135.5386 78.8384,-125.557 85.7926,-116.4533"/>
<polygon fill="#000000" stroke="#000000" points="88.6452,-118.4847 91.9343,-108.4133 83.0825,-114.2353 88.6452,-118.4847"/>
<g id="a_edge8&#45;headlabel"><a xlink:href="dir_000004_000010.html" target="_top" xlink:title="9">
<text text-anchor="middle" x="88.7195" y="-120.0647" font-family="Helvetica,sans-Serif" font-size="10.00" fill="#000000">9</text>
</a>
</g>
</g>
<!-- dir_2d86e062f95a1c735727044268100056 -->
<g id="node5" class="node">
<title>dir_2d86e062f95a1c735727044268100056</title>
<g id="a_node5"><a xlink:href="dir_2d86e062f95a1c735727044268100056.html" target="_top" xlink:title="File">
<polygon fill="none" stroke="#000000" points="105,-36 51,-36 51,0 105,0 105,-36"/>
<text text-anchor="middle" x="78" y="-15" font-family="Helvetica,sans-Serif" font-size="10.00" fill="#000000">File</text>
</a>
</g>
</g>
<!-- dir_81b978556a6ea2f9016eaf91740cb263&#45;&gt;dir_2d86e062f95a1c735727044268100056 -->
<g id="edge9" class="edge">
<title>dir_81b978556a6ea2f9016eaf91740cb263&#45;&gt;dir_2d86e062f95a1c735727044268100056</title>
<path fill="none" stroke="#000000" d="M54.4196,-143.7623C59.0451,-119.0928 67.3388,-74.8598 72.755,-45.9731"/>
<polygon fill="#000000" stroke="#000000" points="76.2053,-46.5634 74.6082,-36.0896 69.3252,-45.2733 76.2053,-46.5634"/>
<g id="a_edge9&#45;headlabel"><a xlink:href="dir_000004_000001.html" target="_top" xlink:title="1">
<text text-anchor="middle" x="78.3336" y="-47.6196" font-family="Helvetica,sans-Serif" font-size="10.00" fill="#000000">1</text>
</a>
</g>
</g>
<!-- dir_1bca469090257af04eea8dfd9ff0b95a&#45;&gt;dir_81b978556a6ea2f9016eaf91740cb263 -->
<g id="edge2" class="edge">
<title>dir_1bca469090257af04eea8dfd9ff0b95a&#45;&gt;dir_81b978556a6ea2f9016eaf91740cb263</title>
<path fill="none" stroke="#000000" d="M65.9532,-215.8314C63.7906,-208.0463 61.2147,-198.7729 58.8152,-190.1347"/>
<polygon fill="#000000" stroke="#000000" points="62.1636,-189.1117 56.1148,-180.4133 55.419,-190.9852 62.1636,-189.1117"/>
<g id="a_edge2&#45;headlabel"><a xlink:href="dir_000005_000004.html" target="_top" xlink:title="1">
<text text-anchor="middle" x="65.8613" y="-188.8153" font-family="Helvetica,sans-Serif" font-size="10.00" fill="#000000">1</text>
</a>
</g>
</g>
<!-- dir_1bca469090257af04eea8dfd9ff0b95a&#45;&gt;dir_299d33022abe531688613a4f2f22c23b -->
<g id="edge1" class="edge">
<title>dir_1bca469090257af04eea8dfd9ff0b95a&#45;&gt;dir_299d33022abe531688613a4f2f22c23b</title>
<path fill="none" stroke="#000000" d="M76.8474,-215.6066C80.0519,-205.211 83.9752,-191.943 87,-180 92.2196,-159.3915 97.1486,-135.8788 100.6777,-118.0553"/>
<polygon fill="#000000" stroke="#000000" points="104.1545,-118.5124 102.6348,-108.0272 97.2841,-117.1716 104.1545,-118.5124"/>
<g id="a_edge1&#45;headlabel"><a xlink:href="dir_000005_000010.html" target="_top" xlink:title="19">
<text text-anchor="middle" x="106.2527" y="-119.5843" font-family="Helvetica,sans-Serif" font-size="10.00" fill="#000000">19</text>
</a>
</g>
</g>
<!-- dir_1bca469090257af04eea8dfd9ff0b95a&#45;&gt;dir_2d86e062f95a1c735727044268100056 -->
<g id="edge3" class="edge">
<title>dir_1bca469090257af04eea8dfd9ff0b95a&#45;&gt;dir_2d86e062f95a1c735727044268100056</title>
<path fill="none" stroke="#000000" d="M44.2769,-215.9104C32.9915,-206.6439 21.074,-194.295 15,-180 5.962,-158.7294 9.0572,-150.334 15,-128 23.2565,-96.971 42.5646,-65.5814 57.6456,-44.3206"/>
<polygon fill="#000000" stroke="#000000" points="60.5463,-46.2827 63.5984,-36.137 54.8856,-42.165 60.5463,-46.2827"/>
<g id="a_edge3&#45;headlabel"><a xlink:href="dir_000005_000001.html" target="_top" xlink:title="2">
<text text-anchor="middle" x="60.7279" y="-47.8598" font-family="Helvetica,sans-Serif" font-size="10.00" fill="#000000">2</text>
</a>
</g>
</g>
<!-- dir_299d33022abe531688613a4f2f22c23b&#45;&gt;dir_2d86e062f95a1c735727044268100056 -->
<g id="edge4" class="edge">
<title>dir_299d33022abe531688613a4f2f22c23b&#45;&gt;dir_2d86e062f95a1c735727044268100056</title>
<path fill="none" stroke="#000000" d="M92.982,-71.8314C89.1958,-64.0463 85.3721,-54.7729 82.3366,-46.1347"/>
<polygon fill="#000000" stroke="#000000" points="85.5983,-44.8463 79.1847,-36.4133 78.9395,-47.0053 85.5983,-44.8463"/>
<g id="a_edge4&#45;headlabel"><a xlink:href="dir_000010_000001.html" target="_top" xlink:title="1">
<text text-anchor="middle" x="89.4077" y="-44.3901" font-family="Helvetica,sans-Serif" font-size="10.00" fill="#000000">1</text>
</a>
</g>
</g>
<!-- dir_2d86e062f95a1c735727044268100056&#45;&gt;dir_299d33022abe531688613a4f2f22c23b -->
<g id="edge10" class="edge">
<title>dir_2d86e062f95a1c735727044268100056&#45;&gt;dir_299d33022abe531688613a4f2f22c23b</title>
<path fill="none" stroke="#000000" d="M91.1367,-36.4133C94.9236,-44.2292 98.7394,-53.5113 101.7584,-62.136"/>
<polygon fill="#000000" stroke="#000000" points="98.485,-63.3893 104.8868,-71.8314 105.1468,-61.2397 98.485,-63.3893"/>
<g id="a_edge10&#45;headlabel"><a xlink:href="dir_000001_000010.html" target="_top" xlink:title="1">
<text text-anchor="middle" x="94.6792" y="-57.8403" font-family="Helvetica,sans-Serif" font-size="10.00" fill="#000000">1</text>
</a>
</g>
</g>
</g>
</svg>
