<?xml version="1.0" encoding="UTF-8" standalone="no"?>
<!DOCTYPE svg PUBLIC "-//W3C//DTD SVG 1.1//EN"
 "http://www.w3.org/Graphics/SVG/1.1/DTD/svg11.dtd">
<!-- Generated by graphviz version 2.40.1 (20161225.0304)
 -->
<!-- Title: libnolimits/NL1/Track Pages: 1 -->
<svg width="97pt" height="294pt"
 viewBox="0.00 0.00 97.43 294.00" xmlns="http://www.w3.org/2000/svg" xmlns:xlink="http://www.w3.org/1999/xlink">
<g id="graph0" class="graph" transform="scale(1 1) rotate(0) translate(4 290)">
<title>libnolimits/NL1/Track</title>
<g id="clust1" class="cluster">
<title>clusterdir_3c46ac97e3d36dd592732019ab8dec24</title>
<g id="a_clust1"><a xlink:href="dir_3c46ac97e3d36dd592732019ab8dec24.html" target="_top" xlink:title="NL1">
<polygon fill="#ddddee" stroke="#000000" points="8,-208 8,-278 78,-278 78,-208 8,-208"/>
<text text-anchor="middle" x="43" y="-266" font-family="Helvetica,sans-Serif" font-size="10.00" fill="#000000">NL1</text>
</a>
</g>
</g>
<!-- dir_149077151eddd7491806c2eb948575b0 -->
<g id="node1" class="node">
<title>dir_149077151eddd7491806c2eb948575b0</title>
<g id="a_node1"><a xlink:href="dir_149077151eddd7491806c2eb948575b0.html" target="_top" xlink:title="Track">
<polygon fill="#eeeeff" stroke="#000000" points="70,-252 16,-252 16,-216 70,-216 70,-252"/>
<text text-anchor="middle" x="43" y="-231" font-family="Helvetica,sans-Serif" font-size="10.00" fill="#000000">Track</text>
</a>
</g>
</g>
<!-- dir_299d33022abe531688613a4f2f22c23b -->
<g id="node2" class="node">
<title>dir_299d33022abe531688613a4f2f22c23b</title>
<g id="a_node2"><a xlink:href="dir_299d33022abe531688613a4f2f22c23b.html" target="_top" xlink:title="Stream">
<polygon fill="none" stroke="#000000" points="70,-108 16,-108 16,-72 70,-72 70,-108"/>
<text text-anchor="middle" x="43" y="-87" font-family="Helvetica,sans-Serif" font-size="10.00" fill="#000000">Stream</text>
</a>
</g>
</g>
<!-- dir_149077151eddd7491806c2eb948575b0&#45;&gt;dir_299d33022abe531688613a4f2f22c23b -->
<g id="edge2" class="edge">
<title>dir_149077151eddd7491806c2eb948575b0&#45;&gt;dir_299d33022abe531688613a4f2f22c23b</title>
<path fill="none" stroke="#000000" d="M27.0095,-215.9169C19.3462,-206.0371 10.9834,-193.1563 7,-180 2.3635,-164.6865 2.3635,-159.3135 7,-144 9.9564,-134.2355 15.3252,-124.6229 21.03,-116.2762"/>
<polygon fill="#000000" stroke="#000000" points="23.9414,-118.2239 27.0095,-108.0831 18.2871,-114.0973 23.9414,-118.2239"/>
<g id="a_edge2&#45;headlabel"><a xlink:href="dir_000006_000014.html" target="_top" xlink:title="3">
<text text-anchor="middle" x="24.1158" y="-119.8013" font-family="Helvetica,sans-Serif" font-size="10.00" fill="#000000">3</text>
</a>
</g>
</g>
<!-- dir_2d86e062f95a1c735727044268100056 -->
<g id="node3" class="node">
<title>dir_2d86e062f95a1c735727044268100056</title>
<g id="a_node3"><a xlink:href="dir_2d86e062f95a1c735727044268100056.html" target="_top" xlink:title="File">
<polygon fill="none" stroke="#000000" points="70,-36 16,-36 16,0 70,0 70,-36"/>
<text text-anchor="middle" x="43" y="-15" font-family="Helvetica,sans-Serif" font-size="10.00" fill="#000000">File</text>
</a>
</g>
</g>
<!-- dir_149077151eddd7491806c2eb948575b0&#45;&gt;dir_2d86e062f95a1c735727044268100056 -->
<g id="edge3" class="edge">
<title>dir_149077151eddd7491806c2eb948575b0&#45;&gt;dir_2d86e062f95a1c735727044268100056</title>
<path fill="none" stroke="#000000" d="M58.9905,-215.9169C66.6538,-206.0371 75.0166,-193.1563 79,-180 92.9096,-134.0596 92.9096,-117.9404 79,-72 76.0436,-62.2355 70.6748,-52.6229 64.97,-44.2762"/>
<polygon fill="#000000" stroke="#000000" points="67.7129,-42.0973 58.9905,-36.0831 62.0586,-46.2239 67.7129,-42.0973"/>
<g id="a_edge3&#45;headlabel"><a xlink:href="dir_000006_000001.html" target="_top" xlink:title="2">
<text text-anchor="middle" x="72.1253" y="-40.327" font-family="Helvetica,sans-Serif" font-size="10.00" fill="#000000">2</text>
</a>
</g>
</g>
<!-- dir_1cf16556f446345b5a0415ddac1beeb5 -->
<g id="node4" class="node">
<title>dir_1cf16556f446345b5a0415ddac1beeb5</title>
<g id="a_node4"><a xlink:href="dir_1cf16556f446345b5a0415ddac1beeb5.html" target="_top" xlink:title="Info">
<polygon fill="none" stroke="#000000" points="70,-180 16,-180 16,-144 70,-144 70,-180"/>
<text text-anchor="middle" x="43" y="-159" font-family="Helvetica,sans-Serif" font-size="10.00" fill="#000000">Info</text>
</a>
</g>
</g>
<!-- dir_149077151eddd7491806c2eb948575b0&#45;&gt;dir_1cf16556f446345b5a0415ddac1beeb5 -->
<g id="edge4" class="edge">
<title>dir_149077151eddd7491806c2eb948575b0&#45;&gt;dir_1cf16556f446345b5a0415ddac1beeb5</title>
<path fill="none" stroke="#000000" d="M43,-215.8314C43,-208.131 43,-198.9743 43,-190.4166"/>
<polygon fill="#000000" stroke="#000000" points="46.5001,-190.4132 43,-180.4133 39.5001,-190.4133 46.5001,-190.4132"/>
<g id="a_edge4&#45;headlabel"><a xlink:href="dir_000006_000003.html" target="_top" xlink:title="1">
<text text-anchor="middle" x="49.3393" y="-191.0079" font-family="Helvetica,sans-Serif" font-size="10.00" fill="#000000">1</text>
</a>
</g>
</g>
<!-- dir_299d33022abe531688613a4f2f22c23b&#45;&gt;dir_2d86e062f95a1c735727044268100056 -->
<g id="edge1" class="edge">
<title>dir_299d33022abe531688613a4f2f22c23b&#45;&gt;dir_2d86e062f95a1c735727044268100056</title>
<path fill="none" stroke="#000000" d="M37.0476,-71.8314C36.2972,-64.131 36.0763,-54.9743 36.3849,-46.4166"/>
<polygon fill="#000000" stroke="#000000" points="39.8792,-46.6161 37.024,-36.4133 32.8935,-46.1697 39.8792,-46.6161"/>
<g id="a_edge1&#45;headlabel"><a xlink:href="dir_000014_000001.html" target="_top" xlink:title="1">
<text text-anchor="middle" x="42.4836" y="-47.3844" font-family="Helvetica,sans-Serif" font-size="10.00" fill="#000000">1</text>
</a>
</g>
</g>
<!-- dir_2d86e062f95a1c735727044268100056&#45;&gt;dir_299d33022abe531688613a4f2f22c23b -->
<g id="edge5" class="edge">
<title>dir_2d86e062f95a1c735727044268100056&#45;&gt;dir_299d33022abe531688613a4f2f22c23b</title>
<path fill="none" stroke="#000000" d="M48.976,-36.4133C49.7071,-44.0593 49.9203,-53.1084 49.6155,-61.5726"/>
<polygon fill="#000000" stroke="#000000" points="46.1048,-61.6264 48.9524,-71.8314 53.0902,-62.078 46.1048,-61.6264"/>
<g id="a_edge5&#45;headlabel"><a xlink:href="dir_000001_000014.html" target="_top" xlink:title="1">
<text text-anchor="middle" x="43.5032" y="-54.8562" font-family="Helvetica,sans-Serif" font-size="10.00" fill="#000000">1</text>
</a>
</g>
</g>
<!-- dir_1cf16556f446345b5a0415ddac1beeb5&#45;&gt;dir_299d33022abe531688613a4f2f22c23b -->
<g id="edge6" class="edge">
<title>dir_1cf16556f446345b5a0415ddac1beeb5&#45;&gt;dir_299d33022abe531688613a4f2f22c23b</title>
<path fill="none" stroke="#000000" d="M43,-143.8314C43,-136.131 43,-126.9743 43,-118.4166"/>
<polygon fill="#000000" stroke="#000000" points="46.5001,-118.4132 43,-108.4133 39.5001,-118.4133 46.5001,-118.4132"/>
<g id="a_edge6&#45;headlabel"><a xlink:href="dir_000003_000014.html" target="_top" xlink:title="2">
<text text-anchor="middle" x="49.3393" y="-119.0079" font-family="Helvetica,sans-Serif" font-size="10.00" fill="#000000">2</text>
</a>
</g>
</g>
</g>
</svg>
