<?xml version="1.0" encoding="UTF-8" standalone="no"?>
<!DOCTYPE svg PUBLIC "-//W3C//DTD SVG 1.1//EN"
 "http://www.w3.org/Graphics/SVG/1.1/DTD/svg11.dtd">
<!-- Generated by graphviz version 2.40.1 (20161225.0304)
 -->
<!-- Title: libnolimits/NL2/Coaster/Track Pages: 1 -->
<svg width="164pt" height="302pt"
 viewBox="0.00 0.00 164.00 302.00" xmlns="http://www.w3.org/2000/svg" xmlns:xlink="http://www.w3.org/1999/xlink">
<g id="graph0" class="graph" transform="scale(1 1) rotate(0) translate(4 298)">
<title>libnolimits/NL2/Coaster/Track</title>
<g id="clust1" class="cluster">
<title>clusterdir_ae4b360e0f5483cb2f90f1b8a71874e5</title>
<g id="a_clust1"><a xlink:href="dir_ae4b360e0f5483cb2f90f1b8a71874e5.html" target="_top" xlink:title="Coaster">
<polygon fill="#ddddee" stroke="#000000" points="8,-128 8,-286 94,-286 94,-128 8,-128"/>
<text text-anchor="middle" x="51" y="-274" font-family="Helvetica,sans-Serif" font-size="10.00" fill="#000000">Coaster</text>
</a>
</g>
</g>
<g id="clust2" class="cluster">
<title>clusterdir_1bca469090257af04eea8dfd9ff0b95a</title>
<g id="a_clust2"><a xlink:href="dir_1bca469090257af04eea8dfd9ff0b95a.html" target="_top">
<polygon fill="#eeeeff" stroke="#000000" points="16,-136 16,-260 86,-260 86,-136 16,-136"/>
</a>
</g>
</g>
<!-- dir_1bca469090257af04eea8dfd9ff0b95a -->
<g id="node1" class="node">
<title>dir_1bca469090257af04eea8dfd9ff0b95a</title>
<text text-anchor="middle" x="51" y="-231" font-family="Helvetica,sans-Serif" font-size="10.00" fill="#000000">Track</text>
</g>
<!-- dir_6b27c8c906c4f6638548af689250edb0 -->
<g id="node2" class="node">
<title>dir_6b27c8c906c4f6638548af689250edb0</title>
<g id="a_node2"><a xlink:href="dir_6b27c8c906c4f6638548af689250edb0.html" target="_top" xlink:title="Section">
<polygon fill="#ffffff" stroke="#000000" points="78,-180 24,-180 24,-144 78,-144 78,-180"/>
<text text-anchor="middle" x="51" y="-159" font-family="Helvetica,sans-Serif" font-size="10.00" fill="#000000">Section</text>
</a>
</g>
</g>
<!-- dir_1bca469090257af04eea8dfd9ff0b95a&#45;&gt;dir_6b27c8c906c4f6638548af689250edb0 -->
<g id="edge1" class="edge">
<title>dir_1bca469090257af04eea8dfd9ff0b95a&#45;&gt;dir_6b27c8c906c4f6638548af689250edb0</title>
<path fill="none" stroke="#000000" d="M51,-215.8314C51,-208.131 51,-198.9743 51,-190.4166"/>
<polygon fill="#000000" stroke="#000000" points="54.5001,-190.4132 51,-180.4133 47.5001,-190.4133 54.5001,-190.4132"/>
<g id="a_edge1&#45;headlabel"><a xlink:href="dir_000008_000011.html" target="_top" xlink:title="4">
<text text-anchor="middle" x="57.3393" y="-191.0079" font-family="Helvetica,sans-Serif" font-size="10.00" fill="#000000">4</text>
</a>
</g>
</g>
<!-- dir_81b978556a6ea2f9016eaf91740cb263 -->
<g id="node4" class="node">
<title>dir_81b978556a6ea2f9016eaf91740cb263</title>
<g id="a_node4"><a xlink:href="dir_81b978556a6ea2f9016eaf91740cb263.html" target="_top" xlink:title="Support">
<polygon fill="none" stroke="#ff0000" points="156,-180 102,-180 102,-144 156,-144 156,-180"/>
<text text-anchor="middle" x="129" y="-159" font-family="Helvetica,sans-Serif" font-size="10.00" fill="#000000">Support</text>
</a>
</g>
</g>
<!-- dir_1bca469090257af04eea8dfd9ff0b95a&#45;&gt;dir_81b978556a6ea2f9016eaf91740cb263 -->
<g id="edge2" class="edge">
<title>dir_1bca469090257af04eea8dfd9ff0b95a&#45;&gt;dir_81b978556a6ea2f9016eaf91740cb263</title>
<path fill="none" stroke="#000000" d="M70.6827,-215.8314C80.1051,-207.1337 91.5401,-196.5783 101.7796,-187.1265"/>
<polygon fill="#000000" stroke="#000000" points="104.3495,-189.5175 109.3236,-180.1628 99.6016,-184.3738 104.3495,-189.5175"/>
<g id="a_edge2&#45;headlabel"><a xlink:href="dir_000008_000009.html" target="_top" xlink:title="1">
<text text-anchor="middle" x="103.634" y="-191.0419" font-family="Helvetica,sans-Serif" font-size="10.00" fill="#000000">1</text>
</a>
</g>
</g>
<!-- dir_299d33022abe531688613a4f2f22c23b -->
<g id="node3" class="node">
<title>dir_299d33022abe531688613a4f2f22c23b</title>
<g id="a_node3"><a xlink:href="dir_299d33022abe531688613a4f2f22c23b.html" target="_top" xlink:title="Stream">
<polygon fill="none" stroke="#000000" points="117,-108 63,-108 63,-72 117,-72 117,-108"/>
<text text-anchor="middle" x="90" y="-87" font-family="Helvetica,sans-Serif" font-size="10.00" fill="#000000">Stream</text>
</a>
</g>
</g>
<!-- dir_6b27c8c906c4f6638548af689250edb0&#45;&gt;dir_299d33022abe531688613a4f2f22c23b -->
<g id="edge3" class="edge">
<title>dir_6b27c8c906c4f6638548af689250edb0&#45;&gt;dir_299d33022abe531688613a4f2f22c23b</title>
<path fill="none" stroke="#000000" d="M60.8413,-143.8314C65.1957,-135.7925 70.4098,-126.1666 75.2169,-117.2918"/>
<polygon fill="#000000" stroke="#000000" points="78.3408,-118.8732 80.0261,-108.4133 72.1857,-115.5392 78.3408,-118.8732"/>
<g id="a_edge3&#45;headlabel"><a xlink:href="dir_000011_000014.html" target="_top" xlink:title="9">
<text text-anchor="middle" x="79.1253" y="-120.3862" font-family="Helvetica,sans-Serif" font-size="10.00" fill="#000000">9</text>
</a>
</g>
</g>
<!-- dir_2d86e062f95a1c735727044268100056 -->
<g id="node5" class="node">
<title>dir_2d86e062f95a1c735727044268100056</title>
<g id="a_node5"><a xlink:href="dir_2d86e062f95a1c735727044268100056.html" target="_top" xlink:title="File">
<polygon fill="none" stroke="#000000" points="117,-36 63,-36 63,0 117,0 117,-36"/>
<text text-anchor="middle" x="90" y="-15" font-family="Helvetica,sans-Serif" font-size="10.00" fill="#000000">File</text>
</a>
</g>
</g>
<!-- dir_6b27c8c906c4f6638548af689250edb0&#45;&gt;dir_2d86e062f95a1c735727044268100056 -->
<g id="edge4" class="edge">
<title>dir_6b27c8c906c4f6638548af689250edb0&#45;&gt;dir_2d86e062f95a1c735727044268100056</title>
<path fill="none" stroke="#000000" d="M48.754,-143.9176C47.1029,-125.3839 46.3057,-95.9654 54,-72 57.1187,-62.2861 62.535,-52.6883 68.2333,-44.3396"/>
<polygon fill="#000000" stroke="#000000" points="71.1446,-46.2871 74.1892,-36.1391 65.4808,-42.1735 71.1446,-46.2871"/>
<g id="a_edge4&#45;headlabel"><a xlink:href="dir_000011_000001.html" target="_top" xlink:title="1">
<text text-anchor="middle" x="71.3295" y="-47.864" font-family="Helvetica,sans-Serif" font-size="10.00" fill="#000000">1</text>
</a>
</g>
</g>
<!-- dir_299d33022abe531688613a4f2f22c23b&#45;&gt;dir_2d86e062f95a1c735727044268100056 -->
<g id="edge5" class="edge">
<title>dir_299d33022abe531688613a4f2f22c23b&#45;&gt;dir_2d86e062f95a1c735727044268100056</title>
<path fill="none" stroke="#000000" d="M84.0476,-71.8314C83.2972,-64.131 83.0763,-54.9743 83.3849,-46.4166"/>
<polygon fill="#000000" stroke="#000000" points="86.8792,-46.6161 84.024,-36.4133 79.8935,-46.1697 86.8792,-46.6161"/>
<g id="a_edge5&#45;headlabel"><a xlink:href="dir_000014_000001.html" target="_top" xlink:title="1">
<text text-anchor="middle" x="89.4836" y="-47.3844" font-family="Helvetica,sans-Serif" font-size="10.00" fill="#000000">1</text>
</a>
</g>
</g>
<!-- dir_81b978556a6ea2f9016eaf91740cb263&#45;&gt;dir_299d33022abe531688613a4f2f22c23b -->
<g id="edge6" class="edge">
<title>dir_81b978556a6ea2f9016eaf91740cb263&#45;&gt;dir_299d33022abe531688613a4f2f22c23b</title>
<path fill="none" stroke="#000000" d="M119.1587,-143.8314C114.8043,-135.7925 109.5902,-126.1666 104.7831,-117.2918"/>
<polygon fill="#000000" stroke="#000000" points="107.8143,-115.5392 99.9739,-108.4133 101.6592,-118.8732 107.8143,-115.5392"/>
<g id="a_edge6&#45;headlabel"><a xlink:href="dir_000009_000014.html" target="_top" xlink:title="9">
<text text-anchor="middle" x="112.0228" y="-114.3476" font-family="Helvetica,sans-Serif" font-size="10.00" fill="#000000">9</text>
</a>
</g>
</g>
<!-- dir_81b978556a6ea2f9016eaf91740cb263&#45;&gt;dir_2d86e062f95a1c735727044268100056 -->
<g id="edge7" class="edge">
<title>dir_81b978556a6ea2f9016eaf91740cb263&#45;&gt;dir_2d86e062f95a1c735727044268100056</title>
<path fill="none" stroke="#000000" d="M131.246,-143.9176C132.8971,-125.3839 133.6943,-95.9654 126,-72 122.8813,-62.2861 117.465,-52.6883 111.7667,-44.3396"/>
<polygon fill="#000000" stroke="#000000" points="114.5192,-42.1735 105.8108,-36.1391 108.8554,-46.2871 114.5192,-42.1735"/>
<g id="a_edge7&#45;headlabel"><a xlink:href="dir_000009_000001.html" target="_top" xlink:title="1">
<text text-anchor="middle" x="118.9289" y="-40.4134" font-family="Helvetica,sans-Serif" font-size="10.00" fill="#000000">1</text>
</a>
</g>
</g>
<!-- dir_2d86e062f95a1c735727044268100056&#45;&gt;dir_299d33022abe531688613a4f2f22c23b -->
<g id="edge8" class="edge">
<title>dir_2d86e062f95a1c735727044268100056&#45;&gt;dir_299d33022abe531688613a4f2f22c23b</title>
<path fill="none" stroke="#000000" d="M95.976,-36.4133C96.7071,-44.0593 96.9203,-53.1084 96.6155,-61.5726"/>
<polygon fill="#000000" stroke="#000000" points="93.1048,-61.6264 95.9524,-71.8314 100.0902,-62.078 93.1048,-61.6264"/>
<g id="a_edge8&#45;headlabel"><a xlink:href="dir_000001_000014.html" target="_top" xlink:title="1">
<text text-anchor="middle" x="90.5032" y="-54.8562" font-family="Helvetica,sans-Serif" font-size="10.00" fill="#000000">1</text>
</a>
</g>
</g>
</g>
</svg>
