<?xml version="1.0" encoding="UTF-8" standalone="no"?>
<!DOCTYPE svg PUBLIC "-//W3C//DTD SVG 1.1//EN"
 "http://www.w3.org/Graphics/SVG/1.1/DTD/svg11.dtd">
<!-- Generated by graphviz version 2.40.1 (20161225.0304)
 -->
<!-- Title: libnolimits Pages: 1 -->
<svg width="244pt" height="220pt"
 viewBox="0.00 0.00 244.00 220.00" xmlns="http://www.w3.org/2000/svg" xmlns:xlink="http://www.w3.org/1999/xlink">
<g id="graph0" class="graph" transform="scale(1 1) rotate(0) translate(4 216)">
<title>libnolimits</title>
<g id="clust1" class="cluster">
<title>clusterdir_9004b8da9267ee5a0c8b0170f53251be</title>
<g id="a_clust1"><a xlink:href="dir_9004b8da9267ee5a0c8b0170f53251be.html" target="_top">
<polygon fill="#eeeeff" stroke="#000000" points="8,-8 8,-204 228,-204 228,-8 8,-8"/>
</a>
</g>
</g>
<!-- dir_9004b8da9267ee5a0c8b0170f53251be -->
<g id="node1" class="node">
<title>dir_9004b8da9267ee5a0c8b0170f53251be</title>
<text text-anchor="middle" x="190" y="-175" font-family="Helvetica,sans-Serif" font-size="10.00" fill="#000000">libnolimits</text>
</g>
<!-- dir_2d86e062f95a1c735727044268100056 -->
<g id="node2" class="node">
<title>dir_2d86e062f95a1c735727044268100056</title>
<g id="a_node2"><a xlink:href="dir_2d86e062f95a1c735727044268100056.html" target="_top" xlink:title="File">
<polygon fill="#ffffff" stroke="#000000" points="106,-124 52,-124 52,-88 106,-88 106,-124"/>
<text text-anchor="middle" x="79" y="-103" font-family="Helvetica,sans-Serif" font-size="10.00" fill="#000000">File</text>
</a>
</g>
</g>
<!-- dir_299d33022abe531688613a4f2f22c23b -->
<g id="node5" class="node">
<title>dir_299d33022abe531688613a4f2f22c23b</title>
<g id="a_node5"><a xlink:href="dir_299d33022abe531688613a4f2f22c23b.html" target="_top" xlink:title="Stream">
<polygon fill="#ffffff" stroke="#000000" points="106,-52 52,-52 52,-16 106,-16 106,-52"/>
<text text-anchor="middle" x="79" y="-31" font-family="Helvetica,sans-Serif" font-size="10.00" fill="#000000">Stream</text>
</a>
</g>
</g>
<!-- dir_2d86e062f95a1c735727044268100056&#45;&gt;dir_299d33022abe531688613a4f2f22c23b -->
<g id="edge6" class="edge">
<title>dir_2d86e062f95a1c735727044268100056&#45;&gt;dir_299d33022abe531688613a4f2f22c23b</title>
<path fill="none" stroke="#000000" d="M73.0476,-87.8314C72.2972,-80.131 72.0763,-70.9743 72.3849,-62.4166"/>
<polygon fill="#000000" stroke="#000000" points="75.8792,-62.6161 73.024,-52.4133 68.8935,-62.1697 75.8792,-62.6161"/>
<g id="a_edge6&#45;headlabel"><a xlink:href="dir_000001_000014.html" target="_top" xlink:title="1">
<text text-anchor="middle" x="78.4836" y="-63.3844" font-family="Helvetica,sans-Serif" font-size="10.00" fill="#000000">1</text>
</a>
</g>
</g>
<!-- dir_3c46ac97e3d36dd592732019ab8dec24 -->
<g id="node3" class="node">
<title>dir_3c46ac97e3d36dd592732019ab8dec24</title>
<g id="a_node3"><a xlink:href="dir_3c46ac97e3d36dd592732019ab8dec24.html" target="_top" xlink:title="NL1">
<polygon fill="#ffffff" stroke="#ff0000" points="142,-196 88,-196 88,-160 142,-160 142,-196"/>
<text text-anchor="middle" x="115" y="-175" font-family="Helvetica,sans-Serif" font-size="10.00" fill="#000000">NL1</text>
</a>
</g>
</g>
<!-- dir_3c46ac97e3d36dd592732019ab8dec24&#45;&gt;dir_2d86e062f95a1c735727044268100056 -->
<g id="edge5" class="edge">
<title>dir_3c46ac97e3d36dd592732019ab8dec24&#45;&gt;dir_2d86e062f95a1c735727044268100056</title>
<path fill="none" stroke="#000000" d="M105.9157,-159.8314C101.9385,-151.8771 97.1845,-142.369 92.7861,-133.5723"/>
<polygon fill="#000000" stroke="#000000" points="95.8093,-131.7923 88.2066,-124.4133 89.5483,-134.9228 95.8093,-131.7923"/>
<g id="a_edge5&#45;headlabel"><a xlink:href="dir_000002_000001.html" target="_top" xlink:title="4">
<text text-anchor="middle" x="99.9563" y="-130.7377" font-family="Helvetica,sans-Serif" font-size="10.00" fill="#000000">4</text>
</a>
</g>
</g>
<!-- dir_3c46ac97e3d36dd592732019ab8dec24&#45;&gt;dir_299d33022abe531688613a4f2f22c23b -->
<g id="edge4" class="edge">
<title>dir_3c46ac97e3d36dd592732019ab8dec24&#45;&gt;dir_299d33022abe531688613a4f2f22c23b</title>
<path fill="none" stroke="#000000" d="M118.0117,-159.9637C120.4105,-141.4666 122.2899,-112.0768 115,-88 112.0436,-78.2355 106.6748,-68.6229 100.97,-60.2762"/>
<polygon fill="#000000" stroke="#000000" points="103.7129,-58.0973 94.9905,-52.0831 98.0586,-62.2239 103.7129,-58.0973"/>
<g id="a_edge4&#45;headlabel"><a xlink:href="dir_000002_000014.html" target="_top" xlink:title="6">
<text text-anchor="middle" x="108.1253" y="-56.327" font-family="Helvetica,sans-Serif" font-size="10.00" fill="#000000">6</text>
</a>
</g>
</g>
<!-- dir_9f74f98d3e65ab1dc79013b3d460f5a6 -->
<g id="node4" class="node">
<title>dir_9f74f98d3e65ab1dc79013b3d460f5a6</title>
<g id="a_node4"><a xlink:href="dir_9f74f98d3e65ab1dc79013b3d460f5a6.html" target="_top" xlink:title="NL2">
<polygon fill="#ffffff" stroke="#ff0000" points="70,-196 16,-196 16,-160 70,-160 70,-196"/>
<text text-anchor="middle" x="43" y="-175" font-family="Helvetica,sans-Serif" font-size="10.00" fill="#000000">NL2</text>
</a>
</g>
</g>
<!-- dir_9f74f98d3e65ab1dc79013b3d460f5a6&#45;&gt;dir_2d86e062f95a1c735727044268100056 -->
<g id="edge2" class="edge">
<title>dir_9f74f98d3e65ab1dc79013b3d460f5a6&#45;&gt;dir_2d86e062f95a1c735727044268100056</title>
<path fill="none" stroke="#000000" d="M52.0843,-159.8314C56.0615,-151.8771 60.8155,-142.369 65.2139,-133.5723"/>
<polygon fill="#000000" stroke="#000000" points="68.4517,-134.9228 69.7934,-124.4133 62.1907,-131.7923 68.4517,-134.9228"/>
<g id="a_edge2&#45;headlabel"><a xlink:href="dir_000004_000001.html" target="_top" xlink:title="6">
<text text-anchor="middle" x="69.3837" y="-136.4077" font-family="Helvetica,sans-Serif" font-size="10.00" fill="#000000">6</text>
</a>
</g>
</g>
<!-- dir_9f74f98d3e65ab1dc79013b3d460f5a6&#45;&gt;dir_299d33022abe531688613a4f2f22c23b -->
<g id="edge1" class="edge">
<title>dir_9f74f98d3e65ab1dc79013b3d460f5a6&#45;&gt;dir_299d33022abe531688613a4f2f22c23b</title>
<path fill="none" stroke="#000000" d="M39.9883,-159.9637C37.5895,-141.4666 35.7101,-112.0768 43,-88 45.9564,-78.2355 51.3252,-68.6229 57.03,-60.2762"/>
<polygon fill="#000000" stroke="#000000" points="59.9414,-62.2239 63.0095,-52.0831 54.2871,-58.0973 59.9414,-62.2239"/>
<g id="a_edge1&#45;headlabel"><a xlink:href="dir_000004_000014.html" target="_top" xlink:title="55">
<text text-anchor="middle" x="60.1158" y="-63.8013" font-family="Helvetica,sans-Serif" font-size="10.00" fill="#000000">55</text>
</a>
</g>
</g>
<!-- dir_299d33022abe531688613a4f2f22c23b&#45;&gt;dir_2d86e062f95a1c735727044268100056 -->
<g id="edge3" class="edge">
<title>dir_299d33022abe531688613a4f2f22c23b&#45;&gt;dir_2d86e062f95a1c735727044268100056</title>
<path fill="none" stroke="#000000" d="M84.976,-52.4133C85.7071,-60.0593 85.9203,-69.1084 85.6155,-77.5726"/>
<polygon fill="#000000" stroke="#000000" points="82.1048,-77.6264 84.9524,-87.8314 89.0902,-78.078 82.1048,-77.6264"/>
<g id="a_edge3&#45;headlabel"><a xlink:href="dir_000014_000001.html" target="_top" xlink:title="1">
<text text-anchor="middle" x="79.5032" y="-70.8562" font-family="Helvetica,sans-Serif" font-size="10.00" fill="#000000">1</text>
</a>
</g>
</g>
</g>
</svg>
