<?xml version="1.0" encoding="UTF-8" standalone="no"?>
<!DOCTYPE svg PUBLIC "-//W3C//DTD SVG 1.1//EN"
 "http://www.w3.org/Graphics/SVG/1.1/DTD/svg11.dtd">
<!-- Generated by graphviz version 2.40.1 (20161225.0304)
 -->
<!-- Title: libnolimits/NL1 Pages: 1 -->
<svg width="196pt" height="302pt"
 viewBox="0.00 0.00 196.00 302.00" xmlns="http://www.w3.org/2000/svg" xmlns:xlink="http://www.w3.org/1999/xlink">
<g id="graph0" class="graph" transform="scale(1 1) rotate(0) translate(4 298)">
<title>libnolimits/NL1</title>
<g id="clust1" class="cluster">
<title>clusterdir_9004b8da9267ee5a0c8b0170f53251be</title>
<g id="a_clust1"><a xlink:href="dir_9004b8da9267ee5a0c8b0170f53251be.html" target="_top" xlink:title="libnolimits">
<polygon fill="#ddddee" stroke="#000000" points="8,-56 8,-286 114,-286 114,-56 8,-56"/>
<text text-anchor="middle" x="61" y="-274" font-family="Helvetica,sans-Serif" font-size="10.00" fill="#000000">libnolimits</text>
</a>
</g>
</g>
<g id="clust2" class="cluster">
<title>clusterdir_3c46ac97e3d36dd592732019ab8dec24</title>
<g id="a_clust2"><a xlink:href="dir_3c46ac97e3d36dd592732019ab8dec24.html" target="_top">
<polygon fill="#eeeeff" stroke="#000000" points="16,-64 16,-260 106,-260 106,-64 16,-64"/>
</a>
</g>
</g>
<!-- dir_3c46ac97e3d36dd592732019ab8dec24 -->
<g id="node1" class="node">
<title>dir_3c46ac97e3d36dd592732019ab8dec24</title>
<text text-anchor="middle" x="71" y="-231" font-family="Helvetica,sans-Serif" font-size="10.00" fill="#000000">NL1</text>
</g>
<!-- dir_1cf16556f446345b5a0415ddac1beeb5 -->
<g id="node2" class="node">
<title>dir_1cf16556f446345b5a0415ddac1beeb5</title>
<g id="a_node2"><a xlink:href="dir_1cf16556f446345b5a0415ddac1beeb5.html" target="_top" xlink:title="Info">
<polygon fill="#ffffff" stroke="#000000" points="78,-108 24,-108 24,-72 78,-72 78,-108"/>
<text text-anchor="middle" x="51" y="-87" font-family="Helvetica,sans-Serif" font-size="10.00" fill="#000000">Info</text>
</a>
</g>
</g>
<!-- dir_3c46ac97e3d36dd592732019ab8dec24&#45;&gt;dir_1cf16556f446345b5a0415ddac1beeb5 -->
<g id="edge7" class="edge">
<title>dir_3c46ac97e3d36dd592732019ab8dec24&#45;&gt;dir_1cf16556f446345b5a0415ddac1beeb5</title>
<path fill="none" stroke="#000000" d="M55.0095,-215.9169C47.3462,-206.0371 38.9834,-193.1563 35,-180 28.8203,-159.5897 33.5364,-135.8092 39.4125,-117.8201"/>
<polygon fill="#000000" stroke="#000000" points="42.7723,-118.8186 42.8333,-108.224 36.1787,-116.4682 42.7723,-118.8186"/>
<g id="a_edge7&#45;headlabel"><a xlink:href="dir_000002_000003.html" target="_top" xlink:title="2">
<text text-anchor="middle" x="44.2398" y="-120.1579" font-family="Helvetica,sans-Serif" font-size="10.00" fill="#000000">2</text>
</a>
</g>
</g>
<!-- dir_149077151eddd7491806c2eb948575b0 -->
<g id="node3" class="node">
<title>dir_149077151eddd7491806c2eb948575b0</title>
<g id="a_node3"><a xlink:href="dir_149077151eddd7491806c2eb948575b0.html" target="_top" xlink:title="Track">
<polygon fill="#ffffff" stroke="#000000" points="98,-180 44,-180 44,-144 98,-144 98,-180"/>
<text text-anchor="middle" x="71" y="-159" font-family="Helvetica,sans-Serif" font-size="10.00" fill="#000000">Track</text>
</a>
</g>
</g>
<!-- dir_3c46ac97e3d36dd592732019ab8dec24&#45;&gt;dir_149077151eddd7491806c2eb948575b0 -->
<g id="edge5" class="edge">
<title>dir_3c46ac97e3d36dd592732019ab8dec24&#45;&gt;dir_149077151eddd7491806c2eb948575b0</title>
<path fill="none" stroke="#000000" d="M71,-215.8314C71,-208.131 71,-198.9743 71,-190.4166"/>
<polygon fill="#000000" stroke="#000000" points="74.5001,-190.4132 71,-180.4133 67.5001,-190.4133 74.5001,-190.4132"/>
<g id="a_edge5&#45;headlabel"><a xlink:href="dir_000002_000006.html" target="_top" xlink:title="1">
<text text-anchor="middle" x="77.3393" y="-191.0079" font-family="Helvetica,sans-Serif" font-size="10.00" fill="#000000">1</text>
</a>
</g>
</g>
<!-- dir_2d86e062f95a1c735727044268100056 -->
<g id="node5" class="node">
<title>dir_2d86e062f95a1c735727044268100056</title>
<g id="a_node5"><a xlink:href="dir_2d86e062f95a1c735727044268100056.html" target="_top" xlink:title="File">
<polygon fill="none" stroke="#000000" points="188,-108 134,-108 134,-72 188,-72 188,-108"/>
<text text-anchor="middle" x="161" y="-87" font-family="Helvetica,sans-Serif" font-size="10.00" fill="#000000">File</text>
</a>
</g>
</g>
<!-- dir_3c46ac97e3d36dd592732019ab8dec24&#45;&gt;dir_2d86e062f95a1c735727044268100056 -->
<g id="edge6" class="edge">
<title>dir_3c46ac97e3d36dd592732019ab8dec24&#45;&gt;dir_2d86e062f95a1c735727044268100056</title>
<path fill="none" stroke="#000000" d="M83.5487,-215.648C90.5687,-205.2654 99.4082,-191.9965 107,-180 120.2763,-159.0208 134.7169,-134.8791 145.3218,-116.884"/>
<polygon fill="#000000" stroke="#000000" points="148.4443,-118.4784 150.4913,-108.0832 142.4085,-114.933 148.4443,-118.4784"/>
<g id="a_edge6&#45;headlabel"><a xlink:href="dir_000002_000001.html" target="_top" xlink:title="4">
<text text-anchor="middle" x="149.0719" y="-120.0159" font-family="Helvetica,sans-Serif" font-size="10.00" fill="#000000">4</text>
</a>
</g>
</g>
<!-- dir_299d33022abe531688613a4f2f22c23b -->
<g id="node4" class="node">
<title>dir_299d33022abe531688613a4f2f22c23b</title>
<g id="a_node4"><a xlink:href="dir_299d33022abe531688613a4f2f22c23b.html" target="_top" xlink:title="Stream">
<polygon fill="none" stroke="#000000" points="160,-36 106,-36 106,0 160,0 160,-36"/>
<text text-anchor="middle" x="133" y="-15" font-family="Helvetica,sans-Serif" font-size="10.00" fill="#000000">Stream</text>
</a>
</g>
</g>
<!-- dir_1cf16556f446345b5a0415ddac1beeb5&#45;&gt;dir_299d33022abe531688613a4f2f22c23b -->
<g id="edge9" class="edge">
<title>dir_1cf16556f446345b5a0415ddac1beeb5&#45;&gt;dir_299d33022abe531688613a4f2f22c23b</title>
<path fill="none" stroke="#000000" d="M71.6921,-71.8314C81.6948,-63.0485 93.855,-52.3712 104.6999,-42.8489"/>
<polygon fill="#000000" stroke="#000000" points="107.1094,-45.3909 112.3146,-36.1628 102.4908,-40.1308 107.1094,-45.3909"/>
<g id="a_edge9&#45;headlabel"><a xlink:href="dir_000003_000014.html" target="_top" xlink:title="2">
<text text-anchor="middle" x="106.2817" y="-46.8962" font-family="Helvetica,sans-Serif" font-size="10.00" fill="#000000">2</text>
</a>
</g>
</g>
<!-- dir_149077151eddd7491806c2eb948575b0&#45;&gt;dir_1cf16556f446345b5a0415ddac1beeb5 -->
<g id="edge4" class="edge">
<title>dir_149077151eddd7491806c2eb948575b0&#45;&gt;dir_1cf16556f446345b5a0415ddac1beeb5</title>
<path fill="none" stroke="#000000" d="M65.9532,-143.8314C63.7906,-136.0463 61.2147,-126.7729 58.8152,-118.1347"/>
<polygon fill="#000000" stroke="#000000" points="62.1636,-117.1117 56.1148,-108.4133 55.419,-118.9852 62.1636,-117.1117"/>
<g id="a_edge4&#45;headlabel"><a xlink:href="dir_000006_000003.html" target="_top" xlink:title="1">
<text text-anchor="middle" x="65.8613" y="-116.8153" font-family="Helvetica,sans-Serif" font-size="10.00" fill="#000000">1</text>
</a>
</g>
</g>
<!-- dir_149077151eddd7491806c2eb948575b0&#45;&gt;dir_299d33022abe531688613a4f2f22c23b -->
<g id="edge2" class="edge">
<title>dir_149077151eddd7491806c2eb948575b0&#45;&gt;dir_299d33022abe531688613a4f2f22c23b</title>
<path fill="none" stroke="#000000" d="M78.8523,-143.7623C89.5205,-118.9846 108.6859,-74.4714 121.1193,-45.5939"/>
<polygon fill="#000000" stroke="#000000" points="124.4715,-46.6586 125.2114,-36.0896 118.0421,-43.8903 124.4715,-46.6586"/>
<g id="a_edge2&#45;headlabel"><a xlink:href="dir_000006_000014.html" target="_top" xlink:title="3">
<text text-anchor="middle" x="125.6578" y="-48.083" font-family="Helvetica,sans-Serif" font-size="10.00" fill="#000000">3</text>
</a>
</g>
</g>
<!-- dir_149077151eddd7491806c2eb948575b0&#45;&gt;dir_2d86e062f95a1c735727044268100056 -->
<g id="edge3" class="edge">
<title>dir_149077151eddd7491806c2eb948575b0&#45;&gt;dir_2d86e062f95a1c735727044268100056</title>
<path fill="none" stroke="#000000" d="M93.7108,-143.8314C104.796,-134.9632 118.2954,-124.1637 130.2852,-114.5718"/>
<polygon fill="#000000" stroke="#000000" points="132.6742,-117.1429 138.2965,-108.1628 128.3013,-111.6768 132.6742,-117.1429"/>
<g id="a_edge3&#45;headlabel"><a xlink:href="dir_000006_000001.html" target="_top" xlink:title="2">
<text text-anchor="middle" x="131.641" y="-118.6055" font-family="Helvetica,sans-Serif" font-size="10.00" fill="#000000">2</text>
</a>
</g>
</g>
<!-- dir_299d33022abe531688613a4f2f22c23b&#45;&gt;dir_2d86e062f95a1c735727044268100056 -->
<g id="edge1" class="edge">
<title>dir_299d33022abe531688613a4f2f22c23b&#45;&gt;dir_2d86e062f95a1c735727044268100056</title>
<path fill="none" stroke="#000000" d="M146.1367,-36.4133C149.9236,-44.2292 153.7394,-53.5113 156.7584,-62.136"/>
<polygon fill="#000000" stroke="#000000" points="153.485,-63.3893 159.8868,-71.8314 160.1468,-61.2397 153.485,-63.3893"/>
<g id="a_edge1&#45;headlabel"><a xlink:href="dir_000014_000001.html" target="_top" xlink:title="1">
<text text-anchor="middle" x="149.6792" y="-57.8403" font-family="Helvetica,sans-Serif" font-size="10.00" fill="#000000">1</text>
</a>
</g>
</g>
<!-- dir_2d86e062f95a1c735727044268100056&#45;&gt;dir_299d33022abe531688613a4f2f22c23b -->
<g id="edge8" class="edge">
<title>dir_2d86e062f95a1c735727044268100056&#45;&gt;dir_299d33022abe531688613a4f2f22c23b</title>
<path fill="none" stroke="#000000" d="M147.982,-71.8314C144.1958,-64.0463 140.3721,-54.7729 137.3366,-46.1347"/>
<polygon fill="#000000" stroke="#000000" points="140.5983,-44.8463 134.1847,-36.4133 133.9395,-47.0053 140.5983,-44.8463"/>
<g id="a_edge8&#45;headlabel"><a xlink:href="dir_000001_000014.html" target="_top" xlink:title="1">
<text text-anchor="middle" x="144.4077" y="-44.3901" font-family="Helvetica,sans-Serif" font-size="10.00" fill="#000000">1</text>
</a>
</g>
</g>
</g>
</svg>
